0, 0, Header, 1, 2, 384
1, 0, Start_track
1, 0, Text_t, "{GNMIDI}Generated by  GNMIDI demo (http://www.gnmidi.com)\012"
1, 0, Tempo, 571420
1, 0, Time_signature, 4, 2, 24, 8
1, 163148, End_track
2, 0, Start_track
2, 0, Text_t, "{GNMIDI}Generated by  GNMIDI demo (http://www.gnmidi.com)\012"
2, 0, Title_t, "Acoustic Grand Piano"
2, 1536, Program_c, 0, 0
2, 1536, Control_c, 0, 7, 127
2, 1536, Note_on_c, 0, 48, 79
2, 1536, Note_on_c, 0, 47, 79
2, 1536, Note_on_c, 0, 83, 82
2, 1538, Note_on_c, 0, 72, 73
2, 1538, Note_on_c, 0, 80, 85
2, 1560, Note_on_c, 0, 47, 0
2, 1694, Note_on_c, 0, 72, 0
2, 1714, Note_on_c, 0, 80, 0
2, 1740, Note_on_c, 0, 83, 0
2, 1806, Note_on_c, 0, 80, 82
2, 1810, Note_on_c, 0, 84, 75
2, 1812, Note_on_c, 0, 72, 65
2, 1880, Note_on_c, 0, 81, 39
2, 1890, Note_on_c, 0, 80, 0
2, 1922, Note_on_c, 0, 72, 0
2, 1944, Note_on_c, 0, 84, 0
2, 1956, Note_on_c, 0, 81, 0
2, 2332, Note_on_c, 0, 71, 69
2, 2336, Note_on_c, 0, 68, 77
2, 2338, Note_on_c, 0, 60, 59
2, 2502, Note_on_c, 0, 60, 0
2, 2508, Note_on_c, 0, 68, 0
2, 2520, Note_on_c, 0, 71, 0
2, 2592, Note_on_c, 0, 72, 79
2, 2594, Note_on_c, 0, 60, 73
2, 2596, Note_on_c, 0, 69, 73
2, 2648, Note_on_c, 0, 69, 0
2, 2652, Note_on_c, 0, 60, 0
2, 2664, Note_on_c, 0, 72, 0
2, 2770, Control_c, 0, 64, 127
2, 2772, Note_off_c, 0, 48, 0
2, 3044, Control_c, 0, 64, 0
2, 3060, Note_on_c, 0, 75, 94
2, 3062, Note_on_c, 0, 61, 87
2, 3062, Note_on_c, 0, 55, 54
2, 3066, Note_on_c, 0, 51, 67
2, 3068, Note_on_c, 0, 67, 74
2, 3306, Note_on_c, 0, 75, 0
2, 3348, Note_on_c, 0, 72, 42
2, 3444, Note_on_c, 0, 75, 88
2, 3450, Note_on_c, 0, 72, 0
2, 3494, Note_on_c, 0, 67, 0
2, 3516, Note_on_c, 0, 61, 0
2, 3576, Note_on_c, 0, 75, 0
2, 3712, Note_on_c, 0, 61, 64
2, 3716, Note_on_c, 0, 67, 60
2, 3720, Note_on_c, 0, 72, 72
2, 3872, Control_c, 0, 64, 127
2, 4218, Note_off_c, 0, 55, 0
2, 4252, Note_off_c, 0, 51, 0
2, 4256, Note_off_c, 0, 72, 0
2, 4266, Note_off_c, 0, 61, 0
2, 4282, Note_off_c, 0, 67, 0
2, 4508, Note_on_c, 0, 66, 83
2, 4508, Note_on_c, 0, 74, 84
2, 4510, Note_on_c, 0, 60, 73
2, 4522, Note_on_c, 0, 54, 59
2, 4524, Control_c, 0, 64, 0
2, 4524, Note_on_c, 0, 50, 52
2, 4572, Note_on_c, 0, 66, 0
2, 4582, Note_on_c, 0, 60, 0
2, 4606, Note_on_c, 0, 74, 0
2, 4904, Note_on_c, 0, 66, 80
2, 4904, Note_on_c, 0, 72, 69
2, 4914, Note_on_c, 0, 60, 62
2, 4980, Note_on_c, 0, 66, 0
2, 4988, Note_on_c, 0, 60, 0
2, 5002, Note_on_c, 0, 72, 0
2, 5274, Note_on_c, 0, 74, 91
2, 5350, Note_on_c, 0, 74, 0
2, 5406, Note_on_c, 0, 69, 24
2, 5406, Note_on_c, 0, 70, 67
2, 5450, Note_on_c, 0, 69, 0
2, 5470, Note_on_c, 0, 71, 49
2, 5484, Note_on_c, 0, 70, 0
2, 5758, Note_on_c, 0, 69, 90
2, 5772, Control_c, 0, 64, 127
2, 5780, Note_off_c, 0, 71, 0
2, 5780, Note_off_c, 0, 50, 0
2, 5792, Note_off_c, 0, 54, 0
2, 5846, Note_off_c, 0, 69, 0
2, 6112, Control_c, 0, 64, 0
2, 6144, Note_on_c, 0, 54, 41
2, 6144, Note_on_c, 0, 49, 57
2, 6148, Note_on_c, 0, 63, 90
2, 6148, Note_on_c, 0, 73, 93
2, 6148, Note_on_c, 0, 59, 49
2, 6312, Note_on_c, 0, 63, 0
2, 6392, Note_on_c, 0, 70, 58
2, 6424, Note_on_c, 0, 68, 59
2, 6450, Note_on_c, 0, 73, 0
2, 6472, Note_on_c, 0, 70, 0
2, 6474, Note_on_c, 0, 66, 75
2, 6506, Note_on_c, 0, 59, 0
2, 6518, Note_on_c, 0, 68, 0
2, 6518, Note_on_c, 0, 49, 0
2, 6522, Note_on_c, 0, 54, 0
2, 6542, Control_c, 0, 64, 127
2, 6552, Note_on_c, 0, 63, 62
2, 6574, Note_on_c, 0, 66, 0
2, 6632, Note_on_c, 0, 63, 0
2, 6772, Control_c, 0, 64, 0
2, 6790, Note_on_c, 0, 72, 75
2, 6790, Note_on_c, 0, 48, 54
2, 6792, Note_on_c, 0, 69, 66
2, 6792, Note_on_c, 0, 62, 70
2, 6792, Note_on_c, 0, 65, 74
2, 6794, Note_on_c, 0, 58, 47
2, 6854, Note_on_c, 0, 65, 0
2, 6868, Note_on_c, 0, 62, 0
2, 6868, Note_on_c, 0, 69, 0
2, 6894, Note_on_c, 0, 72, 0
2, 7160, Note_on_c, 0, 83, 98
2, 7170, Note_on_c, 0, 72, 102
2, 7172, Note_on_c, 0, 84, 102
2, 7220, Note_on_c, 0, 83, 0
2, 7264, Note_on_c, 0, 48, 0
2, 7274, Control_c, 0, 64, 127
2, 7278, Note_off_c, 0, 58, 0
2, 7520, Note_off_c, 0, 84, 0
2, 7552, Note_on_c, 0, 48, 66
2, 7568, Note_on_c, 0, 72, 0
2, 7614, Control_c, 0, 64, 0
2, 7674, Note_on_c, 0, 57, 67
2, 7938, Note_on_c, 0, 72, 117
2, 8040, Note_on_c, 0, 72, 0
2, 8084, Note_on_c, 0, 74, 73
2, 8120, Note_on_c, 0, 48, 0
2, 8132, Control_c, 0, 64, 127
2, 8182, Note_off_c, 0, 57, 0
2, 8324, Note_off_c, 0, 74, 0
2, 8324, Note_on_c, 0, 77, 99
2, 8386, Note_on_c, 0, 77, 0
2, 8428, Control_c, 0, 64, 0
2, 8450, Note_on_c, 0, 76, 90
2, 8666, Note_on_c, 0, 75, 51
2, 8722, Note_on_c, 0, 74, 61
2, 8740, Note_on_c, 0, 76, 0
2, 8776, Note_on_c, 0, 73, 84
2, 8782, Note_on_c, 0, 75, 0
2, 8798, Note_on_c, 0, 74, 0
2, 8824, Note_on_c, 0, 72, 80
2, 8840, Note_on_c, 0, 73, 0
2, 9026, Note_on_c, 0, 72, 0
2, 9206, Note_on_c, 0, 73, 84
2, 9212, Note_on_c, 0, 58, 64
2, 9214, Note_on_c, 0, 48, 64
2, 9220, Note_on_c, 0, 63, 92
2, 9240, Note_on_c, 0, 74, 69
2, 9268, Note_on_c, 0, 73, 0
2, 9582, Control_c, 0, 64, 127
2, 9586, Note_off_c, 0, 48, 0
2, 9600, Note_off_c, 0, 58, 0
2, 9616, Note_on_c, 0, 69, 66
2, 9644, Note_on_c, 0, 63, 0
2, 9650, Note_on_c, 0, 74, 0
2, 9690, Note_on_c, 0, 69, 0
2, 9870, Control_c, 0, 64, 0
2, 9880, Note_on_c, 0, 72, 68
2, 9882, Note_on_c, 0, 63, 71
2, 9884, Note_on_c, 0, 68, 75
2, 9894, Note_on_c, 0, 47, 40
2, 9894, Note_on_c, 0, 57, 37
2, 9978, Note_on_c, 0, 68, 0
2, 9988, Note_on_c, 0, 63, 0
2, 10004, Note_on_c, 0, 72, 0
2, 10270, Note_on_c, 0, 68, 110
2, 10278, Note_on_c, 0, 69, 103
2, 10328, Note_on_c, 0, 68, 0
2, 10364, Note_on_c, 0, 47, 0
2, 10496, Note_on_c, 0, 68, 46
2, 10552, Note_on_c, 0, 69, 0
2, 10552, Note_on_c, 0, 67, 42
2, 10610, Note_on_c, 0, 68, 0
2, 10610, Note_on_c, 0, 66, 66
2, 10620, Note_on_c, 0, 67, 0
2, 10668, Note_on_c, 0, 66, 0
2, 10672, Note_on_c, 0, 65, 67
2, 10776, Note_on_c, 0, 67, 83
2, 10780, Note_on_c, 0, 65, 0
2, 10780, Note_on_c, 0, 46, 65
2, 10846, Control_c, 0, 64, 127
2, 11060, Note_off_c, 0, 67, 0
2, 11092, Note_off_c, 0, 46, 0
2, 11126, Note_off_c, 0, 57, 0
2, 11424, Note_on_c, 0, 47, 34
2, 11468, Control_c, 0, 64, 0
2, 11524, Note_on_c, 0, 57, 43
2, 11532, Note_on_c, 0, 61, 49
2, 11540, Note_on_c, 0, 65, 49
2, 11804, Note_on_c, 0, 73, 89
2, 11844, Control_c, 0, 64, 127
2, 11894, Note_off_c, 0, 47, 0
2, 11918, Note_off_c, 0, 57, 0
2, 11944, Note_off_c, 0, 73, 0
2, 11944, Note_off_c, 0, 65, 0
2, 11944, Note_off_c, 0, 61, 0
2, 12178, Control_c, 0, 64, 0
2, 12180, Note_on_c, 0, 72, 71
2, 12180, Note_on_c, 0, 69, 59
2, 12182, Note_on_c, 0, 65, 61
2, 12184, Note_on_c, 0, 62, 63
2, 12576, Note_on_c, 0, 46, 77
2, 12680, Note_on_c, 0, 46, 0
2, 12680, Note_on_c, 0, 50, 56
2, 12954, Note_on_c, 0, 46, 61
2, 12970, Note_on_c, 0, 62, 0
2, 12988, Note_on_c, 0, 50, 0
2, 13008, Note_on_c, 0, 65, 0
2, 13012, Note_on_c, 0, 69, 0
2, 13044, Note_on_c, 0, 72, 0
2, 13076, Note_on_c, 0, 46, 0
2, 13076, Note_on_c, 0, 53, 56
2, 13342, Note_on_c, 0, 77, 109
2, 13344, Note_on_c, 0, 65, 114
2, 13442, Note_on_c, 0, 65, 0
2, 13452, Note_on_c, 0, 77, 0
2, 13476, Note_on_c, 0, 54, 48
2, 13486, Note_on_c, 0, 53, 0
2, 13544, Note_on_c, 0, 54, 0
2, 13560, Control_c, 0, 64, 127
2, 13578, Note_on_c, 0, 78, 84
2, 13580, Note_on_c, 0, 66, 76
2, 13634, Note_on_c, 0, 66, 0
2, 13652, Note_on_c, 0, 78, 0
2, 13716, Note_on_c, 0, 46, 56
2, 13768, Control_c, 0, 64, 0
2, 13842, Note_on_c, 0, 67, 58
2, 13844, Note_on_c, 0, 79, 61
2, 13846, Note_on_c, 0, 73, 63
2, 13856, Note_on_c, 0, 55, 46
2, 13912, Note_on_c, 0, 46, 0
2, 13922, Note_on_c, 0, 55, 0
2, 14220, Note_on_c, 0, 55, 37
2, 14226, Note_on_c, 0, 65, 42
2, 14228, Note_on_c, 0, 61, 48
2, 14238, Note_on_c, 0, 58, 58
2, 14276, Note_on_c, 0, 58, 0
2, 14280, Note_on_c, 0, 61, 0
2, 14292, Note_on_c, 0, 65, 0
2, 14292, Note_on_c, 0, 55, 0
2, 14604, Note_on_c, 0, 41, 51
2, 14650, Note_on_c, 0, 41, 0
2, 14656, Control_c, 0, 64, 127
2, 14908, Control_c, 0, 64, 0
2, 14972, Note_on_c, 0, 34, 66
2, 15016, Note_on_c, 0, 73, 0
2, 15018, Control_c, 0, 64, 127
2, 15040, Note_off_c, 0, 67, 0
2, 15042, Note_off_c, 0, 79, 0
2, 15044, Note_off_c, 0, 34, 0
2, 15218, Control_c, 0, 64, 0
2, 15236, Note_on_c, 0, 67, 91
2, 15236, Note_on_c, 0, 79, 91
2, 15236, Note_on_c, 0, 73, 101
2, 15264, Note_on_c, 0, 74, 61
2, 15296, Note_on_c, 0, 73, 0
2, 15312, Note_on_c, 0, 67, 0
2, 15352, Note_on_c, 0, 74, 0
2, 15356, Note_on_c, 0, 31, 65
2, 15358, Note_on_c, 0, 79, 0
2, 15416, Note_on_c, 0, 31, 0
2, 15448, Control_c, 0, 64, 127
2, 15758, Note_on_c, 0, 58, 54
2, 15762, Note_on_c, 0, 53, 38
2, 15764, Note_on_c, 0, 62, 48
2, 15768, Note_on_c, 0, 55, 49
2, 15806, Note_on_c, 0, 58, 0
2, 15810, Note_on_c, 0, 55, 0
2, 15814, Note_on_c, 0, 62, 0
2, 15814, Note_on_c, 0, 53, 0
2, 16098, Control_c, 0, 64, 0
2, 16136, Note_on_c, 0, 73, 114
2, 16138, Note_on_c, 0, 36, 51
2, 16138, Note_on_c, 0, 52, 75
2, 16140, Note_on_c, 0, 80, 106
2, 16140, Note_on_c, 0, 78, 107
2, 16140, Note_on_c, 0, 85, 110
2, 16180, Note_on_c, 0, 73, 0
2, 16180, Note_on_c, 0, 86, 33
2, 16182, Note_on_c, 0, 36, 0
2, 16188, Note_on_c, 0, 74, 69
2, 16196, Note_on_c, 0, 85, 0
2, 16196, Note_on_c, 0, 81, 64
2, 16204, Note_on_c, 0, 79, 71
2, 16246, Note_on_c, 0, 78, 0
2, 16276, Note_on_c, 0, 80, 0
2, 16288, Note_on_c, 0, 79, 0
2, 16296, Note_on_c, 0, 81, 0
2, 16296, Note_on_c, 0, 86, 0
2, 16332, Note_on_c, 0, 74, 0
2, 16512, Note_on_c, 0, 46, 68
2, 16514, Note_on_c, 0, 79, 75
2, 16518, Note_on_c, 0, 72, 78
2, 16520, Note_on_c, 0, 77, 75
2, 16524, Note_on_c, 0, 84, 57
2, 16548, Control_c, 0, 64, 127
2, 16556, Note_off_c, 0, 46, 0
2, 16558, Note_off_c, 0, 52, 0
2, 16580, Note_off_c, 0, 77, 0
2, 16590, Note_off_c, 0, 84, 0
2, 16594, Note_off_c, 0, 79, 0
2, 16612, Note_off_c, 0, 72, 0
2, 16786, Note_on_c, 0, 69, 66
2, 16786, Note_on_c, 0, 75, 73
2, 16788, Control_c, 0, 64, 0
2, 16790, Note_on_c, 0, 81, 69
2, 16806, Note_on_c, 0, 76, 64
2, 16844, Note_on_c, 0, 75, 0
2, 16894, Note_on_c, 0, 55, 57
2, 16898, Note_on_c, 0, 45, 68
2, 16960, Note_on_c, 0, 45, 0
2, 16966, Note_on_c, 0, 55, 0
2, 17156, Note_on_c, 0, 39, 67
2, 17286, Note_on_c, 0, 55, 52
2, 17310, Note_on_c, 0, 39, 0
2, 17320, Control_c, 0, 64, 127
2, 17338, Note_off_c, 0, 55, 0
2, 17544, Note_on_c, 0, 38, 61
2, 17570, Control_c, 0, 64, 0
2, 17668, Note_on_c, 0, 54, 65
2, 17694, Note_on_c, 0, 38, 0
2, 17712, Control_c, 0, 64, 127
2, 17716, Note_off_c, 0, 54, 0
2, 17928, Note_on_c, 0, 42, 79
2, 17956, Control_c, 0, 64, 0
2, 18060, Note_on_c, 0, 57, 59
2, 18102, Control_c, 0, 64, 127
2, 18114, Note_off_c, 0, 76, 0
2, 18116, Note_off_c, 0, 42, 0
2, 18120, Note_off_c, 0, 69, 0
2, 18128, Note_off_c, 0, 57, 0
2, 18142, Note_off_c, 0, 81, 0
2, 18310, Note_on_c, 0, 43, 56
2, 18332, Control_c, 0, 64, 0
2, 18442, Note_on_c, 0, 53, 44
2, 18476, Note_on_c, 0, 43, 0
2, 18480, Control_c, 0, 64, 127
2, 18504, Note_off_c, 0, 53, 0
2, 18706, Note_on_c, 0, 72, 110
2, 18708, Note_on_c, 0, 73, 108
2, 18754, Control_c, 0, 64, 0
2, 18766, Note_off_c, 0, 72, 0
2, 18770, Note_on_c, 0, 74, 85
2, 18784, Note_on_c, 0, 73, 0
2, 18818, Note_on_c, 0, 55, 46
2, 18818, Note_on_c, 0, 58, 63
2, 18820, Note_on_c, 0, 62, 50
2, 18862, Note_on_c, 0, 58, 0
2, 18870, Note_on_c, 0, 62, 0
2, 18874, Note_on_c, 0, 55, 0
2, 19082, Note_on_c, 0, 77, 97
2, 19088, Note_on_c, 0, 74, 0
2, 19094, Note_on_c, 0, 48, 68
2, 19166, Note_on_c, 0, 77, 0
2, 19194, Note_on_c, 0, 58, 64
2, 19206, Note_on_c, 0, 77, 53
2, 19216, Note_on_c, 0, 75, 88
2, 19286, Note_on_c, 0, 75, 0
2, 19286, Note_on_c, 0, 77, 0
2, 19340, Note_on_c, 0, 77, 78
2, 19358, Note_on_c, 0, 72, 75
2, 19444, Note_on_c, 0, 72, 0
2, 19462, Note_on_c, 0, 71, 84
2, 19480, Note_on_c, 0, 77, 0
2, 19540, Note_on_c, 0, 71, 0
2, 19574, Note_on_c, 0, 70, 93
2, 19584, Note_on_c, 0, 52, 73
2, 19624, Note_on_c, 0, 48, 0
2, 19640, Note_on_c, 0, 52, 0
2, 19640, Note_on_c, 0, 70, 0
2, 19640, Note_on_c, 0, 58, 0
2, 19744, Note_on_c, 0, 65, 50
2, 19786, Note_on_c, 0, 65, 0
2, 19830, Note_on_c, 0, 74, 78
2, 19834, Note_on_c, 0, 68, 81
2, 19854, Note_on_c, 0, 69, 67
2, 19888, Note_on_c, 0, 68, 0
2, 19928, Note_on_c, 0, 74, 0
2, 19948, Note_on_c, 0, 41, 61
2, 19958, Note_on_c, 0, 65, 64
2, 19962, Note_on_c, 0, 69, 0
2, 19962, Note_on_c, 0, 57, 33
2, 19996, Control_c, 0, 64, 127
2, 20004, Note_off_c, 0, 41, 0
2, 20006, Note_off_c, 0, 57, 0
2, 20028, Note_off_c, 0, 65, 0
2, 20328, Control_c, 0, 64, 0
2, 20344, Note_on_c, 0, 62, 64
2, 20344, Note_on_c, 0, 57, 74
2, 20346, Note_on_c, 0, 60, 69
2, 20352, Note_on_c, 0, 72, 118
2, 20388, Note_on_c, 0, 60, 0
2, 20392, Note_on_c, 0, 57, 0
2, 20394, Note_on_c, 0, 62, 0
2, 20414, Note_on_c, 0, 72, 0
2, 20482, Note_on_c, 0, 74, 50
2, 20596, Note_on_c, 0, 74, 0
2, 20608, Note_on_c, 0, 77, 96
2, 20724, Note_on_c, 0, 52, 77
2, 20724, Note_on_c, 0, 53, 66
2, 20728, Note_on_c, 0, 77, 0
2, 20738, Note_on_c, 0, 74, 29
2, 20744, Note_on_c, 0, 75, 80
2, 20756, Note_on_c, 0, 52, 0
2, 20770, Note_on_c, 0, 74, 0
2, 20804, Note_on_c, 0, 76, 65
2, 20812, Note_on_c, 0, 75, 0
2, 21088, Note_on_c, 0, 53, 0
2, 21124, Note_on_c, 0, 37, 92
2, 21180, Control_c, 0, 64, 127
2, 21198, Note_off_c, 0, 76, 0
2, 21222, Note_off_c, 0, 37, 0
2, 21392, Note_on_c, 0, 69, 104
2, 21468, Control_c, 0, 64, 0
2, 21528, Note_on_c, 0, 36, 65
2, 21536, Note_on_c, 0, 70, 61
2, 21554, Note_on_c, 0, 69, 0
2, 21584, Note_on_c, 0, 36, 0
2, 21592, Note_on_c, 0, 71, 71
2, 21602, Note_on_c, 0, 70, 0
2, 21636, Note_on_c, 0, 72, 57
2, 21654, Note_on_c, 0, 71, 0
2, 21912, Note_on_c, 0, 51, 53
2, 21912, Note_on_c, 0, 62, 55
2, 21912, Note_on_c, 0, 55, 38
2, 21912, Note_on_c, 0, 58, 63
2, 21942, Control_c, 0, 64, 127
2, 21946, Note_off_c, 0, 72, 0
2, 21958, Note_off_c, 0, 58, 0
2, 21966, Note_off_c, 0, 62, 0
2, 21968, Note_off_c, 0, 55, 0
2, 21968, Note_off_c, 0, 51, 0
2, 22174, Note_on_c, 0, 67, 67
2, 22176, Note_on_c, 0, 60, 67
2, 22178, Note_on_c, 0, 63, 80
2, 22180, Control_c, 0, 64, 0
2, 22264, Note_off_c, 0, 63, 0
2, 22272, Note_off_c, 0, 60, 0
2, 22278, Note_on_c, 0, 51, 50
2, 22286, Note_on_c, 0, 41, 46
2, 22290, Note_on_c, 0, 67, 0
2, 22548, Note_on_c, 0, 68, 90
2, 22554, Note_on_c, 0, 77, 81
2, 22556, Note_on_c, 0, 74, 84
2, 22556, Note_on_c, 0, 80, 46
2, 22558, Note_on_c, 0, 81, 76
2, 22586, Note_on_c, 0, 69, 87
2, 22590, Note_on_c, 0, 80, 0
2, 22592, Note_on_c, 0, 68, 0
2, 22672, Note_on_c, 0, 48, 66
2, 22690, Note_on_c, 0, 81, 0
2, 22692, Note_on_c, 0, 77, 0
2, 22694, Note_on_c, 0, 74, 0
2, 22696, Note_on_c, 0, 69, 0
2, 22698, Note_on_c, 0, 41, 0
2, 22702, Note_on_c, 0, 48, 0
2, 22704, Control_c, 0, 64, 127
2, 22720, Note_off_c, 0, 51, 0
2, 22934, Note_on_c, 0, 79, 85
2, 22936, Note_on_c, 0, 67, 87
2, 22936, Note_on_c, 0, 74, 95
2, 22978, Control_c, 0, 64, 0
2, 23044, Note_on_c, 0, 46, 64
2, 23046, Note_on_c, 0, 57, 38
2, 23108, Note_on_c, 0, 46, 0
2, 23132, Note_on_c, 0, 57, 0
2, 23436, Note_on_c, 0, 62, 49
2, 23440, Note_on_c, 0, 53, 53
2, 23442, Note_on_c, 0, 57, 66
2, 23444, Note_on_c, 0, 58, 71
2, 23480, Note_on_c, 0, 58, 0
2, 23482, Note_on_c, 0, 57, 0
2, 23488, Note_on_c, 0, 62, 0
2, 23496, Note_on_c, 0, 53, 0
2, 23706, Note_on_c, 0, 35, 73
2, 23804, Note_on_c, 0, 74, 0
2, 23814, Control_c, 0, 64, 127
2, 23824, Note_off_c, 0, 79, 0
2, 23828, Note_on_c, 0, 51, 76
2, 23842, Note_on_c, 0, 67, 0
2, 23850, Note_on_c, 0, 35, 0
2, 23904, Note_on_c, 0, 51, 0
2, 24170, Control_c, 0, 64, 0
2, 24188, Note_on_c, 0, 80, 88
2, 24192, Note_on_c, 0, 57, 63
2, 24192, Note_on_c, 0, 68, 80
2, 24196, Note_on_c, 0, 73, 86
2, 24200, Note_on_c, 0, 47, 64
2, 24272, Control_c, 0, 64, 127
2, 24298, Note_off_c, 0, 47, 0
2, 24300, Note_off_c, 0, 57, 0
2, 24336, Note_off_c, 0, 80, 0
2, 24344, Note_off_c, 0, 73, 0
2, 24354, Note_off_c, 0, 68, 0
2, 24472, Note_on_c, 0, 46, 69
2, 24502, Control_c, 0, 64, 0
2, 24576, Note_on_c, 0, 55, 65
2, 24580, Note_on_c, 0, 79, 70
2, 24582, Note_on_c, 0, 73, 72
2, 24586, Note_on_c, 0, 67, 59
2, 24632, Note_on_c, 0, 74, 34
2, 24648, Note_on_c, 0, 73, 0
2, 24652, Note_on_c, 0, 55, 0
2, 24658, Note_on_c, 0, 46, 0
2, 24958, Note_on_c, 0, 51, 78
2, 24966, Note_on_c, 0, 36, 57
2, 24990, Control_c, 0, 64, 127
2, 25036, Note_off_c, 0, 36, 0
2, 25038, Note_off_c, 0, 51, 0
2, 25300, Control_c, 0, 64, 0
2, 25340, Note_on_c, 0, 37, 81
2, 25344, Note_on_c, 0, 52, 64
2, 25420, Control_c, 0, 64, 127
2, 25440, Note_off_c, 0, 52, 0
2, 25442, Note_off_c, 0, 37, 0
2, 25686, Control_c, 0, 64, 0
2, 25714, Note_on_c, 0, 38, 70
2, 25718, Note_on_c, 0, 53, 64
2, 25782, Note_on_c, 0, 53, 0
2, 25782, Note_on_c, 0, 38, 0
2, 25788, Control_c, 0, 64, 127
2, 25798, Note_off_c, 0, 74, 0
2, 25834, Note_off_c, 0, 79, 0
2, 25864, Note_off_c, 0, 67, 0
2, 26006, Note_on_c, 0, 43, 62
2, 26026, Control_c, 0, 64, 0
2, 26132, Note_on_c, 0, 53, 63
2, 26192, Note_on_c, 0, 43, 0
2, 26220, Note_on_c, 0, 53, 0
2, 26396, Note_on_c, 0, 68, 105
2, 26396, Note_on_c, 0, 81, 90
2, 26400, Note_on_c, 0, 77, 84
2, 26400, Note_on_c, 0, 74, 88
2, 26416, Note_on_c, 0, 69, 92
2, 26428, Note_on_c, 0, 68, 0
2, 26494, Note_on_c, 0, 69, 0
2, 26510, Note_on_c, 0, 74, 0
2, 26520, Note_on_c, 0, 62, 52
2, 26522, Note_on_c, 0, 77, 0
2, 26524, Note_on_c, 0, 57, 46
2, 26524, Note_on_c, 0, 59, 53
2, 26528, Note_on_c, 0, 81, 0
2, 26532, Note_on_c, 0, 53, 38
2, 26568, Note_on_c, 0, 59, 0
2, 26572, Note_on_c, 0, 62, 0
2, 26574, Note_on_c, 0, 57, 0
2, 26590, Note_on_c, 0, 53, 0
2, 26796, Note_on_c, 0, 77, 46
2, 26876, Note_on_c, 0, 77, 0
2, 26906, Note_on_c, 0, 38, 73
2, 26912, Note_on_c, 0, 68, 86
2, 26916, Note_on_c, 0, 77, 65
2, 26920, Note_on_c, 0, 74, 78
2, 26926, Note_on_c, 0, 81, 54
2, 26934, Note_on_c, 0, 80, 62
2, 26968, Note_on_c, 0, 38, 0
2, 26968, Note_on_c, 0, 69, 75
2, 26970, Note_on_c, 0, 80, 0
2, 26972, Note_on_c, 0, 68, 0
2, 27036, Note_on_c, 0, 69, 0
2, 27048, Note_on_c, 0, 74, 0
2, 27062, Note_on_c, 0, 77, 0
2, 27064, Note_on_c, 0, 81, 0
2, 27292, Note_on_c, 0, 62, 54
2, 27296, Note_on_c, 0, 57, 54
2, 27298, Note_on_c, 0, 59, 63
2, 27298, Note_on_c, 0, 53, 51
2, 27356, Note_on_c, 0, 59, 0
2, 27358, Note_on_c, 0, 57, 0
2, 27368, Note_on_c, 0, 53, 0
2, 27368, Note_on_c, 0, 62, 0
2, 27676, Note_on_c, 0, 36, 71
2, 27680, Note_on_c, 0, 73, 99
2, 27680, Note_on_c, 0, 52, 65
2, 27682, Note_on_c, 0, 76, 83
2, 27682, Note_on_c, 0, 68, 94
2, 27682, Note_on_c, 0, 81, 79
2, 27728, Note_on_c, 0, 69, 75
2, 27732, Note_on_c, 0, 68, 0
2, 27744, Note_on_c, 0, 36, 0
2, 27750, Note_on_c, 0, 52, 0
2, 27808, Note_on_c, 0, 69, 0
2, 27844, Note_on_c, 0, 73, 0
2, 27846, Note_on_c, 0, 81, 0
2, 27850, Note_on_c, 0, 76, 0
2, 28050, Note_on_c, 0, 60, 56
2, 28050, Note_on_c, 0, 58, 69
2, 28050, Note_on_c, 0, 52, 60
2, 28120, Note_on_c, 0, 58, 0
2, 28136, Note_on_c, 0, 60, 0
2, 28148, Note_on_c, 0, 52, 0
2, 28306, Note_on_c, 0, 73, 96
2, 28306, Note_on_c, 0, 76, 80
2, 28308, Note_on_c, 0, 68, 95
2, 28308, Note_on_c, 0, 81, 74
2, 28326, Note_on_c, 0, 80, 64
2, 28352, Note_on_c, 0, 69, 78
2, 28358, Note_on_c, 0, 68, 0
2, 28414, Note_on_c, 0, 80, 0
2, 28420, Note_on_c, 0, 69, 0
2, 28424, Note_on_c, 0, 43, 70
2, 28438, Note_on_c, 0, 81, 0
2, 28438, Note_on_c, 0, 73, 0
2, 28450, Note_on_c, 0, 76, 0
2, 28564, Note_on_c, 0, 43, 0
2, 28698, Note_on_c, 0, 73, 99
2, 28698, Note_on_c, 0, 68, 99
2, 28698, Note_on_c, 0, 76, 85
2, 28700, Note_on_c, 0, 81, 79
2, 28712, Note_on_c, 0, 80, 85
2, 28736, Note_on_c, 0, 69, 82
2, 28744, Note_on_c, 0, 68, 0
2, 28788, Note_on_c, 0, 80, 0
2, 28800, Note_on_c, 0, 81, 0
2, 28800, Note_on_c, 0, 42, 78
2, 28806, Note_on_c, 0, 76, 0
2, 28818, Note_on_c, 0, 73, 0
2, 28834, Note_on_c, 0, 69, 0
2, 28978, Note_on_c, 0, 42, 0
2, 29062, Note_on_c, 0, 68, 90
2, 29066, Note_on_c, 0, 72, 73
2, 29066, Note_on_c, 0, 65, 86
2, 29070, Note_on_c, 0, 77, 79
2, 29072, Note_on_c, 0, 74, 81
2, 29112, Note_on_c, 0, 69, 68
2, 29116, Note_on_c, 0, 68, 0
2, 29154, Note_on_c, 0, 65, 0
2, 29172, Note_on_c, 0, 69, 0
2, 29178, Note_on_c, 0, 72, 0
2, 29182, Note_on_c, 0, 74, 0
2, 29182, Note_on_c, 0, 41, 67
2, 29210, Note_on_c, 0, 77, 0
2, 29236, Note_on_c, 0, 41, 0
2, 29584, Note_on_c, 0, 62, 52
2, 29586, Note_on_c, 0, 57, 58
2, 29588, Note_on_c, 0, 60, 51
2, 29588, Note_on_c, 0, 53, 43
2, 29650, Note_on_c, 0, 60, 0
2, 29656, Note_on_c, 0, 62, 0
2, 29662, Note_on_c, 0, 57, 0
2, 29674, Note_on_c, 0, 53, 0
2, 29968, Note_on_c, 0, 74, 89
2, 29968, Note_on_c, 0, 81, 77
2, 29970, Note_on_c, 0, 89, 89
2, 29970, Note_on_c, 0, 84, 80
2, 29970, Note_on_c, 0, 86, 86
2, 29972, Note_on_c, 0, 38, 68
2, 30036, Note_on_c, 0, 38, 0
2, 30056, Note_on_c, 0, 81, 0
2, 30056, Note_on_c, 0, 74, 0
2, 30062, Note_on_c, 0, 84, 0
2, 30068, Note_on_c, 0, 86, 0
2, 30084, Note_on_c, 0, 89, 0
2, 30362, Note_on_c, 0, 62, 52
2, 30368, Note_on_c, 0, 60, 57
2, 30370, Note_on_c, 0, 53, 41
2, 30372, Note_on_c, 0, 57, 61
2, 30428, Note_on_c, 0, 60, 0
2, 30442, Note_on_c, 0, 62, 0
2, 30446, Note_on_c, 0, 57, 0
2, 30450, Note_on_c, 0, 53, 0
2, 30740, Note_on_c, 0, 80, 92
2, 30742, Note_on_c, 0, 89, 90
2, 30744, Note_on_c, 0, 84, 76
2, 30744, Note_on_c, 0, 74, 81
2, 30744, Note_on_c, 0, 86, 84
2, 30748, Note_on_c, 0, 41, 79
2, 30750, Note_on_c, 0, 57, 68
2, 30804, Note_on_c, 0, 81, 48
2, 30816, Note_on_c, 0, 80, 0
2, 30820, Note_on_c, 0, 57, 0
2, 30828, Note_on_c, 0, 41, 0
2, 30848, Note_on_c, 0, 74, 0
2, 30862, Note_on_c, 0, 81, 0
2, 30866, Note_on_c, 0, 86, 0
2, 30870, Note_on_c, 0, 84, 0
2, 30880, Note_on_c, 0, 89, 0
2, 31126, Note_on_c, 0, 53, 57
2, 31126, Note_on_c, 0, 62, 54
2, 31128, Note_on_c, 0, 60, 59
2, 31130, Note_on_c, 0, 57, 61
2, 31190, Note_on_c, 0, 60, 0
2, 31196, Note_on_c, 0, 62, 0
2, 31202, Note_on_c, 0, 57, 0
2, 31214, Note_on_c, 0, 53, 0
2, 31378, Note_on_c, 0, 80, 96
2, 31380, Note_on_c, 0, 89, 93
2, 31380, Note_on_c, 0, 77, 86
2, 31384, Note_on_c, 0, 84, 76
2, 31386, Note_on_c, 0, 86, 82
2, 31424, Note_on_c, 0, 81, 68
2, 31430, Note_on_c, 0, 80, 0
2, 31476, Note_on_c, 0, 77, 0
2, 31492, Note_on_c, 0, 81, 0
2, 31500, Note_on_c, 0, 86, 0
2, 31500, Note_on_c, 0, 60, 38
2, 31504, Note_on_c, 0, 84, 0
2, 31504, Note_on_c, 0, 45, 28
2, 31510, Note_on_c, 0, 89, 0
2, 31562, Note_on_c, 0, 60, 0
2, 31562, Control_c, 0, 64, 127
2, 31572, Note_off_c, 0, 45, 0
2, 31828, Control_c, 0, 64, 0
2, 31872, Note_on_c, 0, 44, 83
2, 31876, Note_on_c, 0, 59, 61
2, 31938, Control_c, 0, 64, 127
2, 31962, Note_off_c, 0, 59, 0
2, 31966, Note_off_c, 0, 44, 0
2, 32150, Note_on_c, 0, 43, 65
2, 32176, Control_c, 0, 64, 0
2, 32270, Note_on_c, 0, 58, 83
2, 32340, Note_on_c, 0, 43, 0
2, 32388, Note_on_c, 0, 58, 0
2, 32544, Note_on_c, 0, 77, 91
2, 32654, Note_on_c, 0, 77, 0
2, 32656, Note_on_c, 0, 60, 58
2, 32656, Note_on_c, 0, 55, 45
2, 32660, Note_on_c, 0, 58, 64
2, 32668, Note_on_c, 0, 78, 79
2, 32708, Note_on_c, 0, 60, 0
2, 32710, Note_on_c, 0, 78, 0
2, 32718, Note_on_c, 0, 58, 0
2, 32724, Note_on_c, 0, 79, 34
2, 32726, Note_on_c, 0, 55, 0
2, 32914, Note_on_c, 0, 79, 0
2, 32926, Note_on_c, 0, 86, 103
2, 33008, Note_on_c, 0, 86, 0
2, 33042, Note_on_c, 0, 36, 50
2, 33086, Note_on_c, 0, 84, 30
2, 33120, Note_on_c, 0, 36, 0
2, 33214, Note_on_c, 0, 84, 0
2, 33420, Note_on_c, 0, 77, 68
2, 33422, Note_on_c, 0, 60, 63
2, 33422, Note_on_c, 0, 55, 51
2, 33424, Note_on_c, 0, 58, 74
2, 33488, Note_on_c, 0, 60, 0
2, 33492, Note_on_c, 0, 58, 0
2, 33504, Note_on_c, 0, 55, 0
2, 33778, Note_on_c, 0, 77, 0
2, 33804, Note_on_c, 0, 43, 59
2, 33812, Note_on_c, 0, 79, 75
2, 33814, Note_on_c, 0, 51, 64
2, 33818, Note_on_c, 0, 58, 46
2, 33874, Note_on_c, 0, 51, 0
2, 33876, Control_c, 0, 64, 127
2, 33882, Note_off_c, 0, 58, 0
2, 33890, Note_off_c, 0, 43, 0
2, 33904, Note_off_c, 0, 79, 0
2, 34158, Control_c, 0, 64, 0
2, 34174, Note_on_c, 0, 85, 95
2, 34178, Note_on_c, 0, 60, 68
2, 34180, Note_on_c, 0, 55, 62
2, 34182, Note_on_c, 0, 58, 86
2, 34196, Note_on_c, 0, 86, 86
2, 34226, Note_on_c, 0, 85, 0
2, 34230, Note_on_c, 0, 60, 0
2, 34234, Note_on_c, 0, 58, 0
2, 34248, Note_on_c, 0, 55, 0
2, 34416, Note_on_c, 0, 86, 0
2, 34452, Note_on_c, 0, 84, 86
2, 34568, Note_on_c, 0, 41, 66
2, 34608, Control_c, 0, 64, 127
2, 34628, Note_off_c, 0, 41, 0
2, 34760, Note_off_c, 0, 84, 0
2, 34912, Control_c, 0, 64, 0
2, 34948, Note_on_c, 0, 35, 66
2, 34950, Note_on_c, 0, 51, 66
2, 35016, Control_c, 0, 64, 127
2, 35030, Note_off_c, 0, 51, 0
2, 35060, Note_off_c, 0, 35, 0
2, 35234, Note_on_c, 0, 34, 81
2, 35252, Control_c, 0, 64, 0
2, 35350, Note_on_c, 0, 50, 67
2, 35378, Note_on_c, 0, 34, 0
2, 35400, Control_c, 0, 64, 127
2, 35424, Note_off_c, 0, 50, 0
2, 35614, Note_on_c, 0, 77, 108
2, 35636, Control_c, 0, 64, 0
2, 35710, Note_off_c, 0, 77, 0
2, 35720, Note_on_c, 0, 51, 51
2, 35734, Note_on_c, 0, 36, 41
2, 35796, Note_on_c, 0, 80, 66
2, 35824, Note_on_c, 0, 36, 0
2, 35860, Note_on_c, 0, 51, 0
2, 35868, Note_on_c, 0, 80, 0
2, 35868, Note_on_c, 0, 81, 54
2, 35980, Note_on_c, 0, 81, 0
2, 35990, Note_on_c, 0, 89, 111
2, 36088, Note_on_c, 0, 37, 56
2, 36090, Note_on_c, 0, 52, 42
2, 36102, Note_on_c, 0, 89, 0
2, 36132, Control_c, 0, 64, 127
2, 36176, Note_on_c, 0, 86, 72
2, 36180, Note_on_c, 0, 52, 0
2, 36188, Note_on_c, 0, 37, 0
2, 36304, Note_on_c, 0, 86, 0
2, 36370, Note_on_c, 0, 81, 96
2, 36398, Control_c, 0, 64, 0
2, 36458, Note_off_c, 0, 81, 0
2, 36468, Note_on_c, 0, 38, 55
2, 36468, Note_on_c, 0, 53, 43
2, 36506, Note_on_c, 0, 77, 49
2, 36532, Control_c, 0, 64, 127
2, 36540, Note_off_c, 0, 53, 0
2, 36558, Note_off_c, 0, 38, 0
2, 36666, Note_off_c, 0, 77, 0
2, 36752, Note_on_c, 0, 75, 112
2, 36790, Control_c, 0, 64, 0
2, 36848, Note_on_c, 0, 51, 55
2, 36856, Note_on_c, 0, 36, 46
2, 37044, Note_on_c, 0, 36, 0
2, 37094, Note_on_c, 0, 51, 0
2, 37124, Note_on_c, 0, 72, 70
2, 37144, Note_on_c, 0, 75, 0
2, 37240, Note_on_c, 0, 34, 78
2, 37248, Note_on_c, 0, 72, 0
2, 37248, Note_on_c, 0, 73, 92
2, 37300, Control_c, 0, 64, 127
2, 37324, Note_off_c, 0, 73, 0
2, 37612, Control_c, 0, 64, 0
2, 37640, Note_on_c, 0, 50, 77
2, 37640, Note_on_c, 0, 74, 108
2, 37662, Note_on_c, 0, 34, 0
2, 37712, Note_on_c, 0, 50, 0
2, 37716, Control_c, 0, 64, 127
2, 37824, Note_off_c, 0, 74, 0
2, 37920, Note_on_c, 0, 77, 72
2, 37988, Control_c, 0, 64, 0
2, 38020, Note_off_c, 0, 77, 0
2, 38028, Note_on_c, 0, 35, 63
2, 38030, Note_on_c, 0, 50, 64
2, 38032, Note_on_c, 0, 79, 101
2, 38088, Note_on_c, 0, 50, 0
2, 38090, Note_on_c, 0, 35, 0
2, 38104, Note_on_c, 0, 79, 0
2, 38106, Control_c, 0, 64, 127
2, 38374, Control_c, 0, 64, 0
2, 38404, Note_on_c, 0, 38, 68
2, 38406, Note_on_c, 0, 53, 62
2, 38414, Note_on_c, 0, 80, 105
2, 38442, Note_on_c, 0, 81, 97
2, 38454, Note_on_c, 0, 80, 0
2, 38460, Note_on_c, 0, 53, 0
2, 38464, Note_on_c, 0, 38, 0
2, 38600, Note_on_c, 0, 81, 0
2, 38798, Note_on_c, 0, 62, 67
2, 38798, Note_on_c, 0, 88, 101
2, 38798, Note_on_c, 0, 80, 104
2, 38800, Note_on_c, 0, 84, 91
2, 38800, Note_on_c, 0, 60, 65
2, 38800, Note_on_c, 0, 76, 95
2, 38800, Note_on_c, 0, 53, 65
2, 38804, Note_on_c, 0, 57, 67
2, 38848, Note_on_c, 0, 60, 0
2, 38850, Note_on_c, 0, 62, 0
2, 38856, Note_on_c, 0, 57, 0
2, 38872, Note_on_c, 0, 53, 0
2, 38900, Note_on_c, 0, 81, 55
2, 38908, Note_on_c, 0, 80, 0
2, 38960, Note_on_c, 0, 88, 0
2, 38980, Note_on_c, 0, 84, 0
2, 38994, Note_on_c, 0, 81, 0
2, 38998, Note_on_c, 0, 76, 0
2, 39180, Note_on_c, 0, 80, 104
2, 39180, Note_on_c, 0, 86, 95
2, 39182, Note_on_c, 0, 74, 96
2, 39182, Note_on_c, 0, 43, 66
2, 39184, Note_on_c, 0, 53, 56
2, 39260, Note_on_c, 0, 81, 60
2, 39262, Note_on_c, 0, 43, 0
2, 39276, Note_on_c, 0, 80, 0
2, 39286, Note_on_c, 0, 53, 0
2, 39328, Note_on_c, 0, 86, 0
2, 39344, Note_on_c, 0, 81, 0
2, 39372, Note_on_c, 0, 74, 0
2, 39554, Note_on_c, 0, 62, 61
2, 39556, Note_on_c, 0, 59, 74
2, 39558, Note_on_c, 0, 53, 62
2, 39636, Note_on_c, 0, 59, 0
2, 39642, Note_on_c, 0, 62, 0
2, 39654, Note_on_c, 0, 53, 0
2, 39950, Note_on_c, 0, 38, 62
2, 39952, Note_on_c, 0, 53, 52
2, 39954, Note_on_c, 0, 67, 110
2, 39956, Note_on_c, 0, 76, 106
2, 39956, Note_on_c, 0, 70, 115
2, 40050, Note_on_c, 0, 38, 0
2, 40050, Note_on_c, 0, 71, 51
2, 40056, Note_on_c, 0, 70, 0
2, 40062, Note_on_c, 0, 53, 0
2, 40112, Note_on_c, 0, 76, 0
2, 40120, Note_on_c, 0, 67, 0
2, 40182, Note_on_c, 0, 71, 0
2, 40248, Note_on_c, 0, 44, 59
2, 40344, Note_on_c, 0, 54, 71
2, 40346, Note_on_c, 0, 75, 96
2, 40346, Note_on_c, 0, 70, 94
2, 40346, Note_on_c, 0, 66, 96
2, 40504, Note_on_c, 0, 54, 0
2, 40516, Note_on_c, 0, 66, 0
2, 40518, Note_on_c, 0, 75, 0
2, 40524, Note_on_c, 0, 70, 0
2, 40552, Note_on_c, 0, 44, 0
2, 40598, Note_on_c, 0, 65, 91
2, 40600, Note_on_c, 0, 69, 93
2, 40600, Note_on_c, 0, 74, 99
2, 40716, Note_on_c, 0, 53, 48
2, 40720, Note_on_c, 0, 43, 51
2, 40764, Note_on_c, 0, 65, 0
2, 40764, Control_c, 0, 64, 127
2, 40774, Note_off_c, 0, 69, 0
2, 40780, Note_off_c, 0, 74, 0
2, 40800, Note_off_c, 0, 53, 0
2, 40808, Note_off_c, 0, 43, 0
2, 41092, Note_on_c, 0, 37, 95
2, 41096, Note_on_c, 0, 52, 73
2, 41144, Note_on_c, 0, 37, 0
2, 41148, Note_on_c, 0, 52, 0
2, 41360, Note_on_c, 0, 82, 112
2, 41408, Control_c, 0, 64, 0
2, 41456, Note_off_c, 0, 82, 0
2, 41480, Note_on_c, 0, 85, 91
2, 41484, Note_on_c, 0, 73, 75
2, 41490, Note_on_c, 0, 78, 74
2, 41672, Note_on_c, 0, 85, 0
2, 41674, Note_on_c, 0, 73, 0
2, 41732, Note_on_c, 0, 78, 0
2, 41770, Note_on_c, 0, 82, 71
2, 41828, Note_on_c, 0, 82, 0
2, 41852, Note_on_c, 0, 85, 101
2, 41852, Note_on_c, 0, 44, 64
2, 41854, Note_on_c, 0, 73, 96
2, 41856, Note_on_c, 0, 78, 95
2, 41858, Note_on_c, 0, 59, 47
2, 41864, Note_on_c, 0, 54, 65
2, 41888, Control_c, 0, 64, 127
2, 41904, Note_off_c, 0, 54, 0
2, 41904, Note_off_c, 0, 78, 0
2, 41904, Note_off_c, 0, 44, 0
2, 41908, Note_off_c, 0, 85, 0
2, 41912, Note_off_c, 0, 73, 0
2, 41918, Note_off_c, 0, 59, 0
2, 42206, Control_c, 0, 64, 0
2, 42224, Note_on_c, 0, 63, 86
2, 42226, Note_on_c, 0, 70, 84
2, 42230, Note_on_c, 0, 73, 86
2, 42232, Note_on_c, 0, 59, 42
2, 42236, Note_on_c, 0, 53, 46
2, 42240, Note_on_c, 0, 49, 47
2, 42472, Control_c, 0, 64, 127
2, 42500, Note_off_c, 0, 63, 0
2, 42538, Note_off_c, 0, 70, 0
2, 42548, Note_off_c, 0, 73, 0
2, 42588, Note_off_c, 0, 59, 0
2, 42592, Note_off_c, 0, 53, 0
2, 42608, Note_off_c, 0, 49, 0
2, 42908, Note_on_c, 0, 81, 92
2, 42968, Control_c, 0, 64, 0
2, 43004, Note_off_c, 0, 81, 0
2, 43018, Note_on_c, 0, 72, 89
2, 43020, Note_on_c, 0, 58, 77
2, 43020, Note_on_c, 0, 84, 96
2, 43024, Note_on_c, 0, 43, 59
2, 43122, Control_c, 0, 64, 127
2, 43226, Note_off_c, 0, 43, 0
2, 43266, Note_off_c, 0, 84, 0
2, 43296, Note_off_c, 0, 58, 0
2, 43306, Note_on_c, 0, 81, 39
2, 43320, Note_on_c, 0, 72, 0
2, 43406, Note_on_c, 0, 81, 0
2, 43414, Note_on_c, 0, 84, 84
2, 43420, Note_on_c, 0, 72, 88
2, 43468, Note_on_c, 0, 84, 0
2, 43472, Note_on_c, 0, 72, 0
2, 43684, Control_c, 0, 64, 0
2, 43688, Note_on_c, 0, 59, 56
2, 43688, Note_on_c, 0, 75, 91
2, 43688, Note_on_c, 0, 64, 86
2, 43688, Note_on_c, 0, 68, 85
2, 43692, Note_on_c, 0, 49, 66
2, 43752, Note_on_c, 0, 68, 0
2, 43752, Note_on_c, 0, 59, 0
2, 43756, Note_on_c, 0, 49, 0
2, 43770, Note_on_c, 0, 64, 0
2, 43772, Note_on_c, 0, 75, 0
2, 44040, Note_on_c, 0, 73, 106
2, 44040, Note_on_c, 0, 68, 101
2, 44040, Note_on_c, 0, 64, 99
2, 44050, Note_on_c, 0, 42, 66
2, 44050, Note_on_c, 0, 58, 64
2, 44174, Control_c, 0, 64, 127
2, 44208, Note_off_c, 0, 64, 0
2, 44218, Note_off_c, 0, 68, 0
2, 44224, Note_off_c, 0, 58, 0
2, 44240, Note_off_c, 0, 73, 0
2, 44260, Note_off_c, 0, 42, 0
2, 44440, Note_on_c, 0, 41, 71
2, 44552, Control_c, 0, 64, 0
2, 44572, Note_on_c, 0, 57, 89
2, 44600, Note_on_c, 0, 41, 0
2, 44682, Note_on_c, 0, 57, 0
2, 44822, Note_on_c, 0, 84, 117
2, 44944, Note_on_c, 0, 84, 0
2, 44946, Note_on_c, 0, 62, 38
2, 44950, Note_on_c, 0, 57, 41
2, 44952, Note_on_c, 0, 60, 49
2, 44962, Note_on_c, 0, 86, 73
2, 44970, Note_on_c, 0, 53, 30
2, 44994, Note_on_c, 0, 60, 0
2, 45004, Note_on_c, 0, 62, 0
2, 45010, Note_on_c, 0, 57, 0
2, 45012, Note_on_c, 0, 53, 0
2, 45136, Note_on_c, 0, 86, 0
2, 45196, Note_on_c, 0, 89, 106
2, 45196, Note_on_c, 0, 77, 103
2, 45196, Note_on_c, 0, 84, 104
2, 45272, Note_on_c, 0, 84, 0
2, 45276, Note_on_c, 0, 89, 0
2, 45286, Note_on_c, 0, 77, 0
2, 45306, Note_on_c, 0, 46, 70
2, 45306, Note_on_c, 0, 56, 55
2, 45380, Note_on_c, 0, 46, 0
2, 45392, Note_on_c, 0, 80, 73
2, 45392, Note_on_c, 0, 76, 57
2, 45394, Note_on_c, 0, 56, 0
2, 45394, Note_on_c, 0, 88, 70
2, 45522, Note_on_c, 0, 88, 0
2, 45538, Note_on_c, 0, 80, 0
2, 45546, Note_on_c, 0, 76, 0
2, 45696, Note_on_c, 0, 62, 55
2, 45700, Note_on_c, 0, 56, 59
2, 45700, Note_on_c, 0, 72, 68
2, 45704, Note_on_c, 0, 84, 70
2, 45704, Note_on_c, 0, 80, 70
2, 45764, Control_c, 0, 64, 127
2, 45768, Note_off_c, 0, 62, 0
2, 45786, Note_off_c, 0, 56, 0
2, 45822, Note_off_c, 0, 72, 0
2, 45826, Note_off_c, 0, 80, 0
2, 45828, Note_off_c, 0, 84, 0
2, 46030, Control_c, 0, 64, 0
2, 46072, Note_on_c, 0, 45, 57
2, 46074, Note_on_c, 0, 73, 86
2, 46080, Note_on_c, 0, 55, 39
2, 46082, Note_on_c, 0, 79, 61
2, 46082, Note_on_c, 0, 81, 54
2, 46088, Note_on_c, 0, 86, 49
2, 46106, Note_on_c, 0, 85, 42
2, 46140, Note_on_c, 0, 45, 0
2, 46144, Note_on_c, 0, 74, 77
2, 46152, Note_on_c, 0, 73, 0
2, 46176, Note_on_c, 0, 55, 0
2, 46200, Note_on_c, 0, 85, 0
2, 46200, Note_on_c, 0, 86, 0
2, 46236, Note_on_c, 0, 79, 0
2, 46240, Note_on_c, 0, 81, 0
2, 46244, Note_on_c, 0, 74, 0
2, 46454, Note_on_c, 0, 60, 62
2, 46460, Note_on_c, 0, 57, 66
2, 46464, Note_on_c, 0, 55, 60
2, 46464, Note_on_c, 0, 79, 66
2, 46464, Note_on_c, 0, 73, 84
2, 46464, Note_on_c, 0, 81, 47
2, 46480, Note_on_c, 0, 82, 45
2, 46488, Note_on_c, 0, 86, 36
2, 46512, Note_on_c, 0, 60, 0
2, 46520, Note_on_c, 0, 73, 0
2, 46520, Note_on_c, 0, 74, 69
2, 46524, Note_on_c, 0, 57, 0
2, 46536, Note_on_c, 0, 55, 0
2, 46676, Note_on_c, 0, 79, 0
2, 46680, Note_on_c, 0, 74, 0
2, 46692, Note_on_c, 0, 86, 0
2, 46694, Note_on_c, 0, 82, 0
2, 46708, Note_on_c, 0, 81, 0
2, 46854, Note_on_c, 0, 84, 72
2, 46856, Note_on_c, 0, 72, 64
2, 46856, Note_on_c, 0, 81, 57
2, 46856, Note_on_c, 0, 38, 55
2, 46858, Note_on_c, 0, 78, 74
2, 46930, Note_on_c, 0, 38, 0
2, 47072, Note_on_c, 0, 81, 0
2, 47082, Note_on_c, 0, 84, 0
2, 47094, Note_on_c, 0, 72, 0
2, 47100, Note_on_c, 0, 78, 0
2, 47136, Note_on_c, 0, 42, 58
2, 47160, Note_on_c, 0, 81, 46
2, 47218, Note_on_c, 0, 81, 0
2, 47240, Note_on_c, 0, 84, 95
2, 47240, Note_on_c, 0, 78, 92
2, 47240, Note_on_c, 0, 72, 97
2, 47242, Note_on_c, 0, 57, 77
2, 47242, Note_on_c, 0, 81, 86
2, 47280, Note_on_c, 0, 42, 0
2, 47296, Control_c, 0, 64, 127
2, 47304, Note_off_c, 0, 81, 0
2, 47304, Note_off_c, 0, 57, 0
2, 47308, Note_off_c, 0, 78, 0
2, 47320, Note_off_c, 0, 84, 0
2, 47340, Note_off_c, 0, 72, 0
2, 47576, Control_c, 0, 64, 0
2, 47632, Note_on_c, 0, 68, 82
2, 47632, Note_on_c, 0, 43, 62
2, 47636, Note_on_c, 0, 53, 49
2, 47636, Note_on_c, 0, 73, 85
2, 47644, Note_on_c, 0, 81, 52
2, 47644, Note_on_c, 0, 76, 68
2, 47658, Note_on_c, 0, 80, 64
2, 47688, Note_on_c, 0, 69, 71
2, 47690, Note_on_c, 0, 43, 0
2, 47692, Note_on_c, 0, 68, 0
2, 47720, Note_on_c, 0, 53, 0
2, 47752, Note_on_c, 0, 80, 0
2, 48004, Note_on_c, 0, 62, 50
2, 48006, Note_on_c, 0, 57, 64
2, 48008, Note_on_c, 0, 59, 53
2, 48014, Note_on_c, 0, 53, 56
2, 48038, Note_on_c, 0, 69, 0
2, 48050, Note_on_c, 0, 73, 0
2, 48052, Note_on_c, 0, 81, 0
2, 48060, Note_on_c, 0, 76, 0
2, 48084, Note_on_c, 0, 59, 0
2, 48086, Note_on_c, 0, 57, 0
2, 48092, Note_on_c, 0, 62, 0
2, 48100, Note_on_c, 0, 53, 0
2, 48270, Note_on_c, 0, 73, 84
2, 48272, Note_on_c, 0, 68, 85
2, 48276, Note_on_c, 0, 76, 72
2, 48278, Note_on_c, 0, 81, 64
2, 48296, Note_on_c, 0, 80, 57
2, 48304, Note_on_c, 0, 69, 83
2, 48312, Note_on_c, 0, 68, 0
2, 48354, Note_on_c, 0, 80, 0
2, 48384, Note_on_c, 0, 38, 62
2, 48404, Note_on_c, 0, 69, 0
2, 48404, Note_on_c, 0, 81, 0
2, 48404, Note_on_c, 0, 76, 0
2, 48420, Note_on_c, 0, 73, 0
2, 48432, Note_on_c, 0, 38, 0
2, 48434, Control_c, 0, 64, 127
2, 48790, Note_on_c, 0, 53, 69
2, 48792, Note_on_c, 0, 62, 64
2, 48794, Note_on_c, 0, 59, 69
2, 48796, Note_on_c, 0, 57, 65
2, 48832, Note_on_c, 0, 57, 0
2, 48840, Note_on_c, 0, 53, 0
2, 48842, Note_on_c, 0, 59, 0
2, 48844, Note_on_c, 0, 62, 0
2, 49022, Note_on_c, 0, 77, 58
2, 49036, Note_on_c, 0, 75, 90
2, 49052, Note_on_c, 0, 73, 95
2, 49056, Control_c, 0, 64, 0
2, 49088, Note_on_c, 0, 71, 74
2, 49116, Note_on_c, 0, 77, 0
2, 49136, Note_on_c, 0, 75, 0
2, 49146, Note_on_c, 0, 69, 78
2, 49158, Note_on_c, 0, 73, 0
2, 49182, Note_on_c, 0, 71, 0
2, 49340, Note_on_c, 0, 69, 0
2, 49460, Note_on_c, 0, 69, 36
2, 49470, Note_on_c, 0, 67, 58
2, 49492, Note_on_c, 0, 65, 57
2, 49510, Note_on_c, 0, 64, 39
2, 49526, Note_on_c, 0, 69, 0
2, 49530, Note_on_c, 0, 63, 96
2, 49540, Note_on_c, 0, 64, 0
2, 49546, Note_on_c, 0, 67, 0
2, 49576, Note_on_c, 0, 65, 0
2, 49772, Note_on_c, 0, 63, 0
2, 49812, Note_on_c, 0, 63, 68
2, 49856, Note_on_c, 0, 61, 84
2, 49896, Note_on_c, 0, 63, 0
2, 49902, Note_on_c, 0, 59, 82
2, 49932, Note_on_c, 0, 61, 0
2, 50198, Note_on_c, 0, 42, 92
2, 50232, Note_on_c, 0, 59, 0
2, 50298, Note_on_c, 0, 52, 66
2, 50300, Note_on_c, 0, 58, 120
2, 50302, Note_on_c, 0, 50, 74
2, 50336, Control_c, 0, 64, 127
2, 50360, Note_off_c, 0, 42, 0
2, 50366, Note_off_c, 0, 50, 0
2, 50366, Note_off_c, 0, 52, 0
2, 50464, Note_off_c, 0, 58, 0
2, 50564, Control_c, 0, 64, 0
2, 50566, Note_on_c, 0, 55, 79
2, 50568, Note_on_c, 0, 57, 95
2, 50660, Note_on_c, 0, 55, 0
2, 50668, Note_on_c, 0, 57, 0
2, 50692, Note_on_c, 0, 53, 51
2, 50698, Note_on_c, 0, 43, 55
2, 50760, Note_on_c, 0, 43, 0
2, 50782, Note_on_c, 0, 53, 0
2, 50964, Note_on_c, 0, 68, 103
2, 50970, Note_on_c, 0, 77, 83
2, 50972, Note_on_c, 0, 74, 90
2, 50972, Note_on_c, 0, 81, 66
2, 50980, Note_on_c, 0, 80, 75
2, 51010, Note_on_c, 0, 69, 65
2, 51012, Note_on_c, 0, 68, 0
2, 51036, Note_on_c, 0, 80, 0
2, 51062, Note_on_c, 0, 69, 0
2, 51080, Note_on_c, 0, 74, 0
2, 51088, Note_on_c, 0, 77, 0
2, 51088, Note_on_c, 0, 58, 58
2, 51088, Note_on_c, 0, 62, 44
2, 51092, Note_on_c, 0, 53, 53
2, 51096, Note_on_c, 0, 55, 56
2, 51104, Note_on_c, 0, 81, 0
2, 51138, Note_on_c, 0, 58, 0
2, 51150, Note_on_c, 0, 62, 0
2, 51160, Note_on_c, 0, 55, 0
2, 51168, Note_on_c, 0, 53, 0
2, 51350, Note_on_c, 0, 68, 84
2, 51358, Note_on_c, 0, 81, 60
2, 51358, Note_on_c, 0, 74, 76
2, 51358, Note_on_c, 0, 77, 72
2, 51374, Note_on_c, 0, 80, 54
2, 51400, Note_on_c, 0, 69, 75
2, 51404, Note_on_c, 0, 68, 0
2, 51406, Note_on_c, 0, 80, 0
2, 51450, Note_on_c, 0, 38, 68
2, 51470, Note_on_c, 0, 69, 0
2, 51480, Note_on_c, 0, 74, 0
2, 51490, Note_on_c, 0, 77, 0
2, 51490, Note_on_c, 0, 81, 0
2, 51508, Note_on_c, 0, 38, 0
2, 51740, Note_on_c, 0, 68, 95
2, 51740, Note_on_c, 0, 81, 74
2, 51744, Note_on_c, 0, 74, 85
2, 51746, Note_on_c, 0, 77, 76
2, 51782, Note_on_c, 0, 69, 78
2, 51786, Note_on_c, 0, 68, 0
2, 51844, Note_on_c, 0, 62, 49
2, 51848, Note_on_c, 0, 58, 66
2, 51854, Note_on_c, 0, 53, 54
2, 51854, Note_on_c, 0, 55, 58
2, 51856, Note_on_c, 0, 69, 0
2, 51866, Note_on_c, 0, 74, 0
2, 51874, Note_on_c, 0, 81, 0
2, 51878, Note_on_c, 0, 77, 0
2, 51894, Note_on_c, 0, 58, 0
2, 51904, Note_on_c, 0, 62, 0
2, 51910, Note_on_c, 0, 55, 0
2, 51918, Note_on_c, 0, 53, 0
2, 52124, Note_on_c, 0, 68, 104
2, 52128, Note_on_c, 0, 77, 76
2, 52132, Note_on_c, 0, 74, 78
2, 52132, Note_on_c, 0, 81, 76
2, 52212, Note_on_c, 0, 74, 0
2, 52216, Note_on_c, 0, 81, 0
2, 52224, Note_on_c, 0, 36, 58
2, 52228, Note_on_c, 0, 52, 42
2, 52230, Note_on_c, 0, 77, 0
2, 52242, Note_on_c, 0, 68, 0
2, 52252, Note_on_c, 0, 81, 67
2, 52256, Note_on_c, 0, 74, 66
2, 52258, Note_on_c, 0, 69, 64
2, 52262, Note_on_c, 0, 77, 79
2, 52278, Note_on_c, 0, 36, 0
2, 52280, Note_on_c, 0, 52, 0
2, 52288, Control_c, 0, 64, 127
2, 52328, Note_off_c, 0, 69, 0
2, 52332, Note_off_c, 0, 74, 0
2, 52346, Note_off_c, 0, 77, 0
2, 52352, Note_off_c, 0, 81, 0
2, 52508, Note_on_c, 0, 84, 105
2, 52508, Note_on_c, 0, 77, 110
2, 52510, Note_on_c, 0, 72, 103
2, 52562, Control_c, 0, 64, 0
2, 52568, Note_off_c, 0, 77, 0
2, 52572, Note_off_c, 0, 72, 0
2, 52586, Note_off_c, 0, 84, 0
2, 52614, Note_on_c, 0, 42, 71
2, 52624, Note_on_c, 0, 58, 66
2, 52660, Note_on_c, 0, 75, 66
2, 52664, Note_on_c, 0, 82, 62
2, 52668, Note_on_c, 0, 70, 63
2, 52732, Note_on_c, 0, 82, 0
2, 52732, Note_on_c, 0, 75, 0
2, 52748, Note_on_c, 0, 70, 0
2, 52882, Note_on_c, 0, 68, 94
2, 52884, Note_on_c, 0, 74, 82
2, 52886, Note_on_c, 0, 76, 77
2, 52904, Note_on_c, 0, 81, 54
2, 52908, Note_on_c, 0, 80, 51
2, 52928, Note_on_c, 0, 69, 77
2, 52932, Note_on_c, 0, 68, 0
2, 52950, Note_on_c, 0, 80, 0
2, 52966, Note_on_c, 0, 81, 0
2, 52976, Note_on_c, 0, 69, 0
2, 52980, Note_on_c, 0, 76, 0
2, 52982, Note_on_c, 0, 74, 0
2, 53016, Note_on_c, 0, 52, 63
2, 53050, Note_on_c, 0, 77, 71
2, 53054, Note_on_c, 0, 65, 64
2, 53064, Note_on_c, 0, 58, 0
2, 53080, Control_c, 0, 64, 127
2, 53096, Note_off_c, 0, 42, 0
2, 53098, Note_off_c, 0, 65, 0
2, 53100, Note_off_c, 0, 77, 0
2, 53122, Note_off_c, 0, 52, 0
2, 53276, Note_on_c, 0, 60, 99
2, 53276, Note_on_c, 0, 67, 89
2, 53276, Note_on_c, 0, 72, 95
2, 53280, Note_on_c, 0, 65, 91
2, 53324, Note_on_c, 0, 65, 0
2, 53324, Note_on_c, 0, 60, 0
2, 53324, Control_c, 0, 64, 0
2, 53326, Note_off_c, 0, 67, 0
2, 53332, Note_off_c, 0, 72, 0
2, 53340, Note_on_c, 0, 42, 77
2, 53388, Note_on_c, 0, 52, 70
2, 53404, Note_on_c, 0, 70, 84
2, 53408, Note_on_c, 0, 63, 75
2, 53416, Note_on_c, 0, 68, 37
2, 53418, Note_on_c, 0, 75, 56
2, 53442, Note_on_c, 0, 68, 0
2, 53450, Note_on_c, 0, 69, 18
2, 53456, Note_on_c, 0, 63, 0
2, 53462, Note_on_c, 0, 75, 0
2, 53462, Note_on_c, 0, 52, 0
2, 53462, Note_on_c, 0, 64, 61
2, 53474, Note_on_c, 0, 76, 39
2, 53476, Note_on_c, 0, 71, 39
2, 53494, Note_on_c, 0, 70, 0
2, 53496, Note_on_c, 0, 42, 0
2, 53558, Note_on_c, 0, 64, 0
2, 53580, Note_on_c, 0, 69, 0
2, 53584, Note_on_c, 0, 71, 0
2, 53584, Note_on_c, 0, 76, 0
2, 53648, Note_on_c, 0, 77, 97
2, 53652, Note_on_c, 0, 72, 93
2, 53654, Note_on_c, 0, 65, 97
2, 53656, Note_on_c, 0, 71, 71
2, 53660, Note_on_c, 0, 69, 84
2, 53712, Note_on_c, 0, 69, 0
2, 53748, Note_on_c, 0, 57, 48
2, 53750, Note_on_c, 0, 41, 54
2, 53816, Note_on_c, 0, 41, 0
2, 53816, Note_on_c, 0, 57, 0
2, 53820, Control_c, 0, 64, 127
2, 53824, Note_off_c, 0, 72, 0
2, 53828, Note_off_c, 0, 71, 0
2, 53836, Note_off_c, 0, 65, 0
2, 53872, Note_off_c, 0, 77, 0
2, 54030, Note_on_c, 0, 77, 95
2, 54032, Note_on_c, 0, 72, 97
2, 54034, Note_on_c, 0, 65, 102
2, 54036, Note_on_c, 0, 71, 95
2, 54072, Control_c, 0, 64, 0
2, 54144, Note_on_c, 0, 46, 66
2, 54146, Note_on_c, 0, 56, 56
2, 54150, Note_on_c, 0, 71, 0
2, 54152, Note_on_c, 0, 65, 0
2, 54152, Note_on_c, 0, 72, 0
2, 54192, Note_on_c, 0, 77, 0
2, 54218, Control_c, 0, 64, 127
2, 54286, Note_off_c, 0, 56, 0
2, 54306, Note_off_c, 0, 46, 0
2, 54416, Note_on_c, 0, 77, 96
2, 54416, Note_on_c, 0, 65, 97
2, 54416, Note_on_c, 0, 71, 95
2, 54426, Control_c, 0, 64, 0
2, 54428, Note_on_c, 0, 72, 88
2, 54480, Note_on_c, 0, 71, 0
2, 54516, Note_on_c, 0, 65, 0
2, 54532, Note_on_c, 0, 55, 58
2, 54532, Note_on_c, 0, 45, 58
2, 54548, Note_on_c, 0, 72, 0
2, 54564, Note_on_c, 0, 77, 0
2, 54596, Control_c, 0, 64, 127
2, 54604, Note_off_c, 0, 55, 0
2, 54616, Note_off_c, 0, 45, 0
2, 54802, Note_on_c, 0, 77, 95
2, 54802, Note_on_c, 0, 65, 100
2, 54804, Note_on_c, 0, 71, 93
2, 54806, Note_on_c, 0, 72, 93
2, 54826, Control_c, 0, 64, 0
2, 54864, Note_off_c, 0, 71, 0
2, 54932, Note_on_c, 0, 44, 70
2, 54932, Note_on_c, 0, 54, 56
2, 54934, Note_on_c, 0, 65, 0
2, 54950, Note_on_c, 0, 72, 0
2, 54982, Control_c, 0, 64, 127
2, 54984, Note_off_c, 0, 77, 0
2, 55056, Note_off_c, 0, 54, 0
2, 55080, Note_off_c, 0, 44, 0
2, 55180, Note_on_c, 0, 74, 89
2, 55180, Note_on_c, 0, 70, 96
2, 55180, Note_on_c, 0, 65, 93
2, 55182, Note_on_c, 0, 77, 85
2, 55204, Control_c, 0, 64, 0
2, 55302, Note_on_c, 0, 43, 58
2, 55304, Note_on_c, 0, 70, 0
2, 55304, Note_on_c, 0, 53, 60
2, 55308, Note_on_c, 0, 65, 0
2, 55322, Note_on_c, 0, 74, 0
2, 55358, Control_c, 0, 64, 127
2, 55364, Note_off_c, 0, 77, 0
2, 55368, Note_off_c, 0, 53, 0
2, 55374, Note_off_c, 0, 43, 0
2, 55588, Note_on_c, 0, 37, 104
2, 55624, Control_c, 0, 64, 0
2, 55708, Note_on_c, 0, 49, 94
2, 55758, Control_c, 0, 64, 127
2, 55776, Note_off_c, 0, 37, 0
2, 55784, Note_off_c, 0, 49, 0
2, 55976, Note_on_c, 0, 36, 78
2, 55986, Control_c, 0, 64, 0
2, 56088, Note_on_c, 0, 48, 90
2, 56172, Control_c, 0, 64, 127
2, 56196, Note_off_c, 0, 36, 0
2, 56334, Note_on_c, 0, 83, 113
2, 56338, Note_on_c, 0, 89, 111
2, 56338, Note_on_c, 0, 87, 114
2, 56340, Note_on_c, 0, 84, 111
2, 56356, Control_c, 0, 64, 0
2, 56404, Note_off_c, 0, 83, 0
2, 56426, Note_off_c, 0, 84, 0
2, 56434, Note_off_c, 0, 87, 0
2, 56436, Note_off_c, 0, 89, 0
2, 56460, Note_off_c, 0, 48, 0
2, 56460, Note_on_c, 0, 51, 81
2, 56472, Note_on_c, 0, 83, 86
2, 56474, Note_on_c, 0, 84, 91
2, 56474, Note_on_c, 0, 89, 93
2, 56474, Note_on_c, 0, 87, 83
2, 56586, Note_on_c, 0, 83, 0
2, 56648, Note_on_c, 0, 84, 0
2, 56656, Note_on_c, 0, 89, 0
2, 56662, Note_on_c, 0, 87, 0
2, 56716, Note_on_c, 0, 83, 103
2, 56716, Note_on_c, 0, 84, 106
2, 56720, Note_on_c, 0, 89, 101
2, 56722, Note_on_c, 0, 87, 99
2, 56800, Note_on_c, 0, 83, 0
2, 56816, Note_on_c, 0, 41, 66
2, 56824, Note_on_c, 0, 57, 61
2, 56828, Note_on_c, 0, 84, 0
2, 56836, Note_on_c, 0, 87, 0
2, 56846, Note_on_c, 0, 89, 0
2, 56854, Note_on_c, 0, 83, 40
2, 56890, Control_c, 0, 64, 127
2, 56898, Note_off_c, 0, 41, 0
2, 56898, Note_on_c, 0, 84, 52
2, 56900, Note_on_c, 0, 57, 0
2, 56900, Note_on_c, 0, 51, 0
2, 56904, Note_on_c, 0, 83, 0
2, 56910, Note_on_c, 0, 87, 77
2, 56916, Note_on_c, 0, 89, 67
2, 56950, Note_on_c, 0, 87, 0
2, 56952, Note_on_c, 0, 89, 0
2, 56960, Note_on_c, 0, 83, 57
2, 57014, Note_on_c, 0, 83, 0
2, 57018, Note_on_c, 0, 87, 77
2, 57024, Note_on_c, 0, 89, 69
2, 57048, Note_on_c, 0, 87, 0
2, 57056, Note_on_c, 0, 89, 0
2, 57074, Note_on_c, 0, 83, 61
2, 57126, Note_on_c, 0, 87, 76
2, 57128, Note_on_c, 0, 83, 0
2, 57128, Note_on_c, 0, 89, 60
2, 57128, Control_c, 0, 64, 0
2, 57154, Note_off_c, 0, 87, 0
2, 57168, Note_off_c, 0, 89, 0
2, 57170, Note_on_c, 0, 83, 53
2, 57210, Note_on_c, 0, 60, 61
2, 57212, Note_on_c, 0, 57, 68
2, 57212, Note_on_c, 0, 51, 71
2, 57228, Note_on_c, 0, 89, 58
2, 57232, Note_on_c, 0, 83, 0
2, 57232, Note_on_c, 0, 87, 85
2, 57260, Note_on_c, 0, 87, 0
2, 57264, Note_on_c, 0, 57, 0
2, 57272, Note_on_c, 0, 60, 0
2, 57272, Note_on_c, 0, 83, 51
2, 57280, Note_on_c, 0, 89, 0
2, 57282, Note_on_c, 0, 51, 0
2, 57342, Note_on_c, 0, 87, 72
2, 57342, Note_on_c, 0, 89, 64
2, 57344, Note_on_c, 0, 83, 0
2, 57372, Note_on_c, 0, 87, 0
2, 57384, Note_on_c, 0, 89, 0
2, 57384, Note_on_c, 0, 83, 50
2, 57450, Note_on_c, 0, 83, 0
2, 57450, Note_on_c, 0, 87, 80
2, 57452, Note_on_c, 0, 89, 58
2, 57482, Note_on_c, 0, 87, 0
2, 57492, Note_on_c, 0, 89, 0
2, 57498, Note_on_c, 0, 83, 54
2, 57560, Note_on_c, 0, 87, 83
2, 57562, Note_on_c, 0, 83, 0
2, 57562, Note_on_c, 0, 89, 51
2, 57594, Note_on_c, 0, 56, 79
2, 57594, Note_on_c, 0, 46, 82
2, 57596, Note_on_c, 0, 87, 0
2, 57600, Note_on_c, 0, 89, 0
2, 57604, Note_on_c, 0, 83, 54
2, 57664, Note_on_c, 0, 87, 81
2, 57668, Note_on_c, 0, 89, 62
2, 57674, Note_on_c, 0, 83, 0
2, 57684, Note_on_c, 0, 46, 0
2, 57688, Note_on_c, 0, 56, 0
2, 57710, Note_on_c, 0, 89, 0
2, 57710, Note_on_c, 0, 87, 0
2, 57712, Note_on_c, 0, 83, 55
2, 57778, Note_on_c, 0, 87, 72
2, 57784, Note_on_c, 0, 83, 0
2, 57786, Note_on_c, 0, 89, 47
2, 57818, Note_on_c, 0, 89, 0
2, 57820, Note_on_c, 0, 87, 0
2, 57834, Note_on_c, 0, 83, 50
2, 57892, Note_on_c, 0, 87, 72
2, 57896, Note_on_c, 0, 83, 0
2, 57902, Note_on_c, 0, 89, 51
2, 57934, Note_on_c, 0, 89, 0
2, 57936, Note_on_c, 0, 87, 0
2, 57940, Note_on_c, 0, 83, 49
2, 57982, Note_on_c, 0, 38, 70
2, 57982, Note_on_c, 0, 53, 71
2, 57998, Note_on_c, 0, 87, 67
2, 58004, Note_on_c, 0, 89, 61
2, 58008, Note_on_c, 0, 83, 0
2, 58042, Note_on_c, 0, 87, 0
2, 58044, Control_c, 0, 64, 127
2, 58046, Note_off_c, 0, 89, 0
2, 58046, Note_on_c, 0, 83, 52
2, 58048, Note_on_c, 0, 53, 0
2, 58060, Note_on_c, 0, 38, 0
2, 58114, Note_on_c, 0, 83, 0
2, 58114, Note_on_c, 0, 87, 73
2, 58116, Note_on_c, 0, 89, 55
2, 58146, Note_on_c, 0, 87, 0
2, 58152, Note_on_c, 0, 89, 0
2, 58162, Note_on_c, 0, 83, 48
2, 58224, Note_on_c, 0, 89, 58
2, 58226, Note_on_c, 0, 87, 76
2, 58230, Note_on_c, 0, 83, 0
2, 58258, Note_on_c, 0, 87, 0
2, 58272, Note_on_c, 0, 89, 0
2, 58272, Note_on_c, 0, 83, 44
2, 58320, Control_c, 0, 64, 0
2, 58330, Note_on_c, 0, 87, 81
2, 58334, Note_on_c, 0, 83, 0
2, 58336, Note_on_c, 0, 89, 54
2, 58352, Note_on_c, 0, 51, 82
2, 58356, Note_on_c, 0, 36, 69
2, 58376, Note_on_c, 0, 89, 0
2, 58376, Note_on_c, 0, 87, 0
2, 58384, Note_on_c, 0, 83, 56
2, 58428, Note_on_c, 0, 51, 0
2, 58434, Note_on_c, 0, 36, 0
2, 58444, Note_on_c, 0, 87, 69
2, 58450, Note_on_c, 0, 83, 0
2, 58450, Note_on_c, 0, 89, 64
2, 58490, Note_on_c, 0, 89, 0
2, 58490, Note_on_c, 0, 83, 46
2, 58492, Note_on_c, 0, 87, 0
2, 58556, Note_on_c, 0, 87, 71
2, 58562, Note_on_c, 0, 83, 0
2, 58564, Note_on_c, 0, 89, 53
2, 58600, Note_on_c, 0, 89, 0
2, 58604, Note_on_c, 0, 87, 0
2, 58604, Note_on_c, 0, 83, 44
2, 58670, Note_on_c, 0, 87, 64
2, 58674, Note_on_c, 0, 83, 0
2, 58680, Note_on_c, 0, 89, 51
2, 58714, Note_on_c, 0, 89, 0
2, 58716, Note_on_c, 0, 83, 47
2, 58720, Note_on_c, 0, 87, 0
2, 58736, Note_on_c, 0, 58, 80
2, 58736, Note_on_c, 0, 42, 76
2, 58778, Note_on_c, 0, 87, 61
2, 58778, Control_c, 0, 64, 127
2, 58786, Note_on_c, 0, 89, 61
2, 58790, Note_on_c, 0, 83, 0
2, 58800, Note_on_c, 0, 58, 0
2, 58820, Note_on_c, 0, 42, 0
2, 58824, Note_on_c, 0, 87, 0
2, 58826, Note_on_c, 0, 89, 0
2, 58828, Note_on_c, 0, 83, 52
2, 58894, Note_on_c, 0, 87, 68
2, 58900, Note_on_c, 0, 83, 0
2, 58904, Note_on_c, 0, 89, 51
2, 58934, Note_on_c, 0, 87, 0
2, 58936, Note_on_c, 0, 89, 0
2, 58944, Note_on_c, 0, 83, 45
2, 59004, Note_on_c, 0, 87, 71
2, 59012, Note_on_c, 0, 83, 0
2, 59012, Note_on_c, 0, 89, 62
2, 59044, Control_c, 0, 64, 0
2, 59048, Note_off_c, 0, 89, 0
2, 59052, Note_off_c, 0, 87, 0
2, 59054, Note_on_c, 0, 83, 50
2, 59116, Note_on_c, 0, 87, 70
2, 59120, Note_on_c, 0, 89, 58
2, 59120, Note_on_c, 0, 57, 74
2, 59122, Note_on_c, 0, 41, 75
2, 59124, Note_on_c, 0, 83, 0
2, 59160, Note_on_c, 0, 87, 0
2, 59162, Note_on_c, 0, 89, 0
2, 59162, Note_on_c, 0, 83, 54
2, 59180, Note_on_c, 0, 57, 0
2, 59200, Note_on_c, 0, 41, 0
2, 59224, Note_on_c, 0, 87, 70
2, 59228, Note_on_c, 0, 89, 52
2, 59234, Note_on_c, 0, 83, 0
2, 59270, Note_on_c, 0, 87, 0
2, 59272, Note_on_c, 0, 89, 0
2, 59276, Note_on_c, 0, 83, 51
2, 59340, Note_on_c, 0, 87, 67
2, 59348, Note_on_c, 0, 83, 0
2, 59348, Note_on_c, 0, 89, 59
2, 59380, Note_on_c, 0, 89, 0
2, 59384, Note_on_c, 0, 87, 0
2, 59384, Note_on_c, 0, 83, 61
2, 59436, Note_on_c, 0, 87, 61
2, 59452, Note_on_c, 0, 89, 68
2, 59492, Note_on_c, 0, 89, 0
2, 59504, Note_on_c, 0, 51, 87
2, 59506, Note_on_c, 0, 35, 75
2, 59524, Note_on_c, 0, 87, 0
2, 59528, Note_on_c, 0, 84, 0
2, 59552, Note_on_c, 0, 83, 0
2, 59556, Control_c, 0, 64, 127
2, 59570, Note_off_c, 0, 51, 0
2, 59596, Note_off_c, 0, 35, 0
2, 59792, Note_on_c, 0, 85, 111
2, 59794, Note_on_c, 0, 84, 103
2, 59796, Note_on_c, 0, 86, 104
2, 59800, Control_c, 0, 64, 0
2, 59838, Note_off_c, 0, 84, 0
2, 59842, Note_off_c, 0, 85, 0
2, 59888, Note_on_c, 0, 34, 76
2, 59948, Note_on_c, 0, 34, 0
2, 60188, Note_on_c, 0, 89, 108
2, 60194, Note_on_c, 0, 86, 0
2, 60304, Note_on_c, 0, 57, 48
2, 60310, Note_on_c, 0, 58, 42
2, 60318, Note_on_c, 0, 62, 59
2, 60324, Note_on_c, 0, 86, 74
2, 60324, Note_on_c, 0, 53, 46
2, 60338, Note_on_c, 0, 89, 0
2, 60372, Note_on_c, 0, 53, 0
2, 60374, Note_on_c, 0, 58, 0
2, 60376, Note_on_c, 0, 57, 0
2, 60378, Note_on_c, 0, 62, 0
2, 60514, Note_on_c, 0, 86, 0
2, 60578, Note_on_c, 0, 81, 100
2, 60678, Note_on_c, 0, 81, 0
2, 60684, Note_on_c, 0, 41, 64
2, 60724, Note_on_c, 0, 41, 0
2, 60728, Note_on_c, 0, 77, 30
2, 60746, Control_c, 0, 64, 127
2, 60812, Note_off_c, 0, 77, 0
2, 61048, Control_c, 0, 64, 0
2, 61064, Note_on_c, 0, 69, 76
2, 61064, Note_on_c, 0, 73, 89
2, 61064, Note_on_c, 0, 77, 75
2, 61070, Note_on_c, 0, 57, 74
2, 61302, Note_on_c, 0, 69, 0
2, 61304, Note_on_c, 0, 73, 0
2, 61328, Note_on_c, 0, 77, 0
2, 61438, Note_on_c, 0, 81, 68
2, 61440, Note_on_c, 0, 73, 89
2, 61440, Note_on_c, 0, 46, 83
2, 61440, Note_on_c, 0, 69, 63
2, 61442, Note_on_c, 0, 77, 73
2, 61494, Note_on_c, 0, 73, 0
2, 61494, Note_on_c, 0, 74, 67
2, 61500, Note_on_c, 0, 46, 0
2, 61530, Note_on_c, 0, 57, 0
2, 61704, Note_on_c, 0, 81, 0
2, 61712, Note_on_c, 0, 69, 0
2, 61734, Note_on_c, 0, 74, 0
2, 61754, Note_on_c, 0, 79, 52
2, 61776, Note_on_c, 0, 77, 0
2, 61808, Note_on_c, 0, 79, 0
2, 61828, Note_on_c, 0, 57, 62
2, 61828, Note_on_c, 0, 62, 60
2, 61832, Note_on_c, 0, 58, 76
2, 61832, Note_on_c, 0, 53, 63
2, 61832, Note_on_c, 0, 77, 71
2, 61836, Note_on_c, 0, 81, 80
2, 61840, Note_on_c, 0, 69, 71
2, 61842, Note_on_c, 0, 73, 84
2, 61888, Note_on_c, 0, 57, 0
2, 61892, Note_on_c, 0, 58, 0
2, 61900, Note_on_c, 0, 62, 0
2, 61914, Note_on_c, 0, 53, 0
2, 61932, Note_on_c, 0, 74, 31
2, 61944, Note_on_c, 0, 73, 0
2, 62024, Note_on_c, 0, 74, 0
2, 62030, Note_on_c, 0, 69, 0
2, 62064, Note_on_c, 0, 81, 0
2, 62068, Note_on_c, 0, 77, 0
2, 62100, Note_on_c, 0, 69, 73
2, 62102, Note_on_c, 0, 77, 54
2, 62104, Note_on_c, 0, 74, 80
2, 62106, Note_on_c, 0, 79, 79
2, 62190, Note_on_c, 0, 74, 0
2, 62196, Note_on_c, 0, 69, 0
2, 62214, Note_on_c, 0, 77, 0
2, 62214, Note_on_c, 0, 41, 71
2, 62224, Note_on_c, 0, 79, 0
2, 62266, Note_on_c, 0, 41, 0
2, 62278, Control_c, 0, 64, 127
2, 62498, Note_on_c, 0, 35, 80
2, 62530, Control_c, 0, 64, 0
2, 62614, Note_on_c, 0, 50, 86
2, 62648, Note_on_c, 0, 35, 0
2, 62670, Control_c, 0, 64, 127
2, 62672, Note_off_c, 0, 50, 0
2, 62900, Note_on_c, 0, 82, 98
2, 62936, Control_c, 0, 64, 0
2, 63000, Note_off_c, 0, 82, 0
2, 63004, Note_on_c, 0, 34, 79
2, 63004, Note_on_c, 0, 49, 65
2, 63020, Note_on_c, 0, 73, 85
2, 63024, Note_on_c, 0, 85, 85
2, 63040, Note_on_c, 0, 34, 0
2, 63052, Note_on_c, 0, 49, 0
2, 63268, Note_on_c, 0, 85, 0
2, 63302, Note_on_c, 0, 73, 0
2, 63304, Note_on_c, 0, 82, 61
2, 63356, Note_on_c, 0, 82, 0
2, 63378, Note_on_c, 0, 56, 74
2, 63380, Note_on_c, 0, 65, 56
2, 63382, Note_on_c, 0, 61, 73
2, 63382, Note_on_c, 0, 60, 58
2, 63386, Note_on_c, 0, 85, 103
2, 63388, Note_on_c, 0, 73, 101
2, 63444, Note_on_c, 0, 60, 0
2, 63444, Note_on_c, 0, 65, 0
2, 63446, Note_on_c, 0, 61, 0
2, 63466, Note_on_c, 0, 56, 0
2, 63532, Note_on_c, 0, 85, 0
2, 63534, Note_on_c, 0, 73, 0
2, 63764, Note_on_c, 0, 82, 93
2, 63766, Note_on_c, 0, 70, 95
2, 63772, Note_on_c, 0, 44, 81
2, 63810, Note_on_c, 0, 44, 0
2, 63840, Control_c, 0, 64, 127
2, 63924, Note_off_c, 0, 70, 0
2, 63958, Note_off_c, 0, 82, 0
2, 64050, Note_on_c, 0, 80, 52
2, 64102, Note_on_c, 0, 80, 0
2, 64112, Control_c, 0, 64, 0
2, 64138, Note_on_c, 0, 82, 95
2, 64142, Note_on_c, 0, 63, 74
2, 64142, Note_on_c, 0, 70, 91
2, 64144, Note_on_c, 0, 59, 74
2, 64146, Note_on_c, 0, 58, 77
2, 64146, Note_on_c, 0, 54, 59
2, 64150, Note_on_c, 0, 75, 75
2, 64222, Note_on_c, 0, 63, 0
2, 64224, Note_on_c, 0, 59, 0
2, 64230, Note_on_c, 0, 58, 0
2, 64244, Note_on_c, 0, 54, 0
2, 64264, Note_on_c, 0, 75, 0
2, 64320, Note_on_c, 0, 82, 0
2, 64328, Note_on_c, 0, 70, 0
2, 64520, Note_on_c, 0, 68, 79
2, 64524, Note_on_c, 0, 81, 63
2, 64528, Note_on_c, 0, 43, 69
2, 64528, Note_on_c, 0, 74, 72
2, 64528, Note_on_c, 0, 77, 69
2, 64562, Note_on_c, 0, 69, 79
2, 64568, Note_on_c, 0, 68, 0
2, 64580, Note_on_c, 0, 43, 0
2, 64648, Note_on_c, 0, 69, 0
2, 64670, Note_on_c, 0, 74, 0
2, 64684, Note_on_c, 0, 77, 0
2, 64684, Note_on_c, 0, 81, 0
2, 64892, Note_on_c, 0, 62, 72
2, 64894, Note_on_c, 0, 58, 80
2, 64896, Note_on_c, 0, 53, 71
2, 64898, Note_on_c, 0, 55, 64
2, 64948, Note_on_c, 0, 58, 0
2, 64966, Note_on_c, 0, 62, 0
2, 64968, Note_on_c, 0, 55, 0
2, 64972, Note_on_c, 0, 53, 0
2, 65180, Note_on_c, 0, 80, 110
2, 65184, Note_on_c, 0, 81, 99
2, 65230, Note_on_c, 0, 80, 0
2, 65280, Note_on_c, 0, 52, 64
2, 65316, Note_on_c, 0, 81, 0
2, 65318, Note_on_c, 0, 77, 74
2, 65550, Note_on_c, 0, 77, 0
2, 65566, Note_on_c, 0, 72, 86
2, 65644, Note_on_c, 0, 72, 0
2, 65664, Note_on_c, 0, 46, 81
2, 65672, Note_on_c, 0, 70, 91
2, 65744, Note_on_c, 0, 52, 0
2, 65860, Note_on_c, 0, 70, 0
2, 65938, Note_on_c, 0, 70, 105
2, 65942, Note_on_c, 0, 68, 101
2, 65972, Note_on_c, 0, 46, 0
2, 66028, Note_on_c, 0, 68, 0
2, 66036, Note_on_c, 0, 70, 0
2, 66064, Note_on_c, 0, 69, 65
2, 66066, Note_on_c, 0, 55, 61
2, 66066, Note_on_c, 0, 45, 68
2, 66124, Note_on_c, 0, 45, 0
2, 66136, Note_on_c, 0, 55, 0
2, 66348, Note_on_c, 0, 72, 66
2, 66354, Note_on_c, 0, 69, 0
2, 66416, Note_on_c, 0, 72, 0
2, 66432, Note_on_c, 0, 60, 75
2, 66436, Note_on_c, 0, 55, 65
2, 66438, Note_on_c, 0, 57, 77
2, 66440, Note_on_c, 0, 74, 108
2, 66488, Note_on_c, 0, 60, 0
2, 66496, Note_on_c, 0, 57, 0
2, 66504, Note_on_c, 0, 55, 0
2, 66676, Note_on_c, 0, 74, 0
2, 66714, Note_on_c, 0, 72, 57
2, 66768, Note_on_c, 0, 72, 0
2, 66806, Note_on_c, 0, 54, 61
2, 66808, Note_on_c, 0, 38, 61
2, 66810, Note_on_c, 0, 75, 97
2, 66828, Note_on_c, 0, 76, 91
2, 66864, Note_on_c, 0, 75, 0
2, 66896, Note_on_c, 0, 38, 0
2, 66982, Note_on_c, 0, 76, 0
2, 67090, Note_on_c, 0, 74, 106
2, 67194, Note_on_c, 0, 44, 83
2, 67264, Note_on_c, 0, 74, 0
2, 67264, Control_c, 0, 64, 127
2, 67268, Note_off_c, 0, 44, 0
2, 67276, Note_off_c, 0, 54, 0
2, 67476, Note_on_c, 0, 65, 85
2, 67530, Control_c, 0, 64, 0
2, 67570, Note_off_c, 0, 65, 0
2, 67592, Note_on_c, 0, 43, 60
2, 67596, Note_on_c, 0, 68, 84
2, 67598, Note_on_c, 0, 53, 41
2, 67650, Note_on_c, 0, 43, 0
2, 67650, Note_on_c, 0, 69, 68
2, 67652, Note_on_c, 0, 68, 0
2, 67680, Note_on_c, 0, 53, 0
2, 67828, Note_on_c, 0, 69, 0
2, 67860, Note_on_c, 0, 74, 105
2, 67968, Note_on_c, 0, 74, 0
2, 67976, Note_on_c, 0, 58, 58
2, 67980, Note_on_c, 0, 62, 52
2, 67982, Note_on_c, 0, 53, 57
2, 67982, Note_on_c, 0, 55, 47
2, 67994, Note_on_c, 0, 72, 64
2, 68032, Note_on_c, 0, 58, 0
2, 68046, Note_on_c, 0, 62, 0
2, 68052, Note_on_c, 0, 55, 0
2, 68056, Note_on_c, 0, 53, 0
2, 68252, Note_on_c, 0, 74, 99
2, 68254, Note_on_c, 0, 72, 0
2, 68352, Note_on_c, 0, 36, 58
2, 68356, Note_on_c, 0, 52, 55
2, 68372, Note_on_c, 0, 68, 74
2, 68416, Note_on_c, 0, 36, 0
2, 68442, Note_on_c, 0, 69, 35
2, 68444, Note_on_c, 0, 68, 0
2, 68514, Note_on_c, 0, 74, 0
2, 68628, Note_on_c, 0, 69, 0
2, 68636, Note_on_c, 0, 65, 81
2, 68704, Note_on_c, 0, 65, 0
2, 68732, Note_on_c, 0, 42, 83
2, 68740, Note_on_c, 0, 67, 104
2, 68824, Control_c, 0, 64, 127
2, 68832, Note_off_c, 0, 42, 0
2, 68852, Note_off_c, 0, 52, 0
2, 68928, Note_off_c, 0, 67, 0
2, 69018, Note_on_c, 0, 48, 32
2, 69068, Control_c, 0, 64, 0
2, 69112, Note_on_c, 0, 41, 81
2, 69120, Note_on_c, 0, 65, 105
2, 69156, Note_on_c, 0, 48, 0
2, 69168, Note_on_c, 0, 41, 0
2, 69228, Note_on_c, 0, 65, 0
2, 69506, Note_on_c, 0, 67, 111
2, 69506, Note_on_c, 0, 77, 96
2, 69508, Note_on_c, 0, 60, 73
2, 69508, Note_on_c, 0, 57, 79
2, 69508, Note_on_c, 0, 62, 68
2, 69508, Note_on_c, 0, 68, 113
2, 69510, Note_on_c, 0, 72, 92
2, 69510, Note_on_c, 0, 74, 95
2, 69554, Note_on_c, 0, 68, 0
2, 69556, Note_on_c, 0, 69, 63
2, 69560, Note_on_c, 0, 60, 0
2, 69568, Note_on_c, 0, 62, 0
2, 69570, Note_on_c, 0, 57, 0
2, 69604, Note_on_c, 0, 67, 0
2, 69630, Note_on_c, 0, 69, 0
2, 69642, Note_on_c, 0, 74, 0
2, 69642, Note_on_c, 0, 72, 0
2, 69652, Note_on_c, 0, 77, 0
2, 69892, Note_on_c, 0, 45, 41
2, 69894, Note_on_c, 0, 60, 57
2, 69896, Note_on_c, 0, 62, 58
2, 69934, Control_c, 0, 64, 127
2, 69948, Note_off_c, 0, 62, 0
2, 69954, Note_off_c, 0, 60, 0
2, 69958, Note_off_c, 0, 45, 0
2, 70236, Control_c, 0, 64, 0
2, 70266, Note_on_c, 0, 44, 77
2, 70272, Note_on_c, 0, 59, 64
2, 70348, Control_c, 0, 64, 127
2, 70368, Note_off_c, 0, 44, 0
2, 70374, Note_off_c, 0, 59, 0
2, 70628, Control_c, 0, 64, 0
2, 70652, Note_on_c, 0, 58, 86
2, 70652, Note_on_c, 0, 43, 73
2, 70914, Note_on_c, 0, 86, 88
2, 70948, Note_on_c, 0, 84, 76
2, 71010, Note_on_c, 0, 82, 93
2, 71014, Note_on_c, 0, 86, 0
2, 71050, Note_on_c, 0, 51, 83
2, 71052, Note_on_c, 0, 84, 0
2, 71074, Note_on_c, 0, 58, 0
2, 71086, Note_on_c, 0, 79, 88
2, 71088, Note_on_c, 0, 43, 0
2, 71102, Note_on_c, 0, 82, 0
2, 71156, Note_on_c, 0, 79, 0
2, 71180, Note_on_c, 0, 75, 94
2, 71236, Note_on_c, 0, 75, 0
2, 71264, Note_on_c, 0, 74, 75
2, 71332, Note_on_c, 0, 74, 0
2, 71348, Note_on_c, 0, 72, 83
2, 71392, Note_on_c, 0, 41, 70
2, 71400, Note_on_c, 0, 57, 55
2, 71412, Note_on_c, 0, 72, 0
2, 71440, Note_on_c, 0, 70, 91
2, 71504, Note_on_c, 0, 70, 0
2, 71510, Note_on_c, 0, 69, 61
2, 71562, Note_on_c, 0, 69, 0
2, 71588, Note_on_c, 0, 66, 80
2, 71650, Note_on_c, 0, 65, 68
2, 71652, Note_on_c, 0, 66, 0
2, 71684, Note_on_c, 0, 65, 0
2, 71716, Note_on_c, 0, 64, 81
2, 71734, Note_on_c, 0, 48, 69
2, 71738, Note_on_c, 0, 41, 0
2, 71784, Note_on_c, 0, 63, 87
2, 71786, Note_on_c, 0, 48, 0
2, 71786, Note_on_c, 0, 64, 0
2, 71814, Note_on_c, 0, 51, 0
2, 71848, Note_on_c, 0, 61, 82
2, 71852, Note_on_c, 0, 63, 0
2, 71908, Note_on_c, 0, 61, 0
2, 71912, Note_on_c, 0, 62, 71
2, 71978, Note_on_c, 0, 62, 0
2, 71978, Note_on_c, 0, 65, 56
2, 72022, Note_on_c, 0, 69, 68
2, 72056, Note_on_c, 0, 65, 0
2, 72086, Note_on_c, 0, 69, 0
2, 72092, Note_on_c, 0, 72, 81
2, 72098, Note_on_c, 0, 60, 84
2, 72156, Note_on_c, 0, 46, 75
2, 72248, Note_on_c, 0, 46, 0
2, 72256, Note_on_c, 0, 57, 0
2, 72256, Control_c, 0, 64, 127
2, 72298, Note_off_c, 0, 60, 0
2, 72356, Note_off_c, 0, 72, 0
2, 72602, Note_on_c, 0, 57, 69
2, 72602, Note_on_c, 0, 53, 66
2, 72604, Note_on_c, 0, 62, 66
2, 72604, Note_on_c, 0, 58, 80
2, 72606, Control_c, 0, 64, 0
2, 72658, Note_off_c, 0, 57, 0
2, 72660, Note_off_c, 0, 58, 0
2, 72668, Note_off_c, 0, 62, 0
2, 72680, Note_off_c, 0, 53, 0
2, 72848, Note_on_c, 0, 68, 97
2, 72848, Note_on_c, 0, 65, 91
2, 72848, Note_on_c, 0, 77, 83
2, 72852, Note_on_c, 0, 72, 76
2, 72854, Note_on_c, 0, 74, 81
2, 72892, Note_on_c, 0, 68, 0
2, 72892, Note_on_c, 0, 69, 72
2, 72942, Note_on_c, 0, 65, 0
2, 72960, Note_on_c, 0, 72, 0
2, 72962, Note_on_c, 0, 74, 0
2, 72962, Note_on_c, 0, 77, 0
2, 72970, Note_on_c, 0, 69, 0
2, 72972, Note_on_c, 0, 41, 66
2, 73016, Note_on_c, 0, 41, 0
2, 73048, Control_c, 0, 64, 127
2, 73252, Note_on_c, 0, 51, 80
2, 73294, Note_on_c, 0, 52, 79
2, 73312, Note_on_c, 0, 51, 0
2, 73322, Control_c, 0, 64, 0
2, 73332, Note_on_c, 0, 53, 74
2, 73338, Note_on_c, 0, 52, 0
2, 73354, Note_on_c, 0, 63, 94
2, 73354, Note_on_c, 0, 65, 91
2, 73354, Note_on_c, 0, 61, 98
2, 73356, Note_on_c, 0, 57, 94
2, 73504, Note_on_c, 0, 63, 0
2, 73520, Note_on_c, 0, 61, 0
2, 73526, Note_on_c, 0, 65, 0
2, 73550, Note_on_c, 0, 57, 0
2, 73612, Note_on_c, 0, 57, 82
2, 73616, Note_on_c, 0, 60, 85
2, 73616, Note_on_c, 0, 62, 86
2, 73722, Note_on_c, 0, 57, 0
2, 73732, Note_on_c, 0, 46, 80
2, 73752, Note_on_c, 0, 62, 0
2, 73752, Note_on_c, 0, 60, 0
2, 73768, Note_on_c, 0, 46, 0
2, 73774, Control_c, 0, 64, 127
2, 73796, Note_off_c, 0, 53, 0
2, 74114, Note_on_c, 0, 57, 69
2, 74116, Note_on_c, 0, 62, 66
2, 74116, Note_on_c, 0, 58, 83
2, 74118, Note_on_c, 0, 53, 64
2, 74164, Note_on_c, 0, 58, 0
2, 74164, Note_on_c, 0, 57, 0
2, 74172, Note_on_c, 0, 62, 0
2, 74174, Note_on_c, 0, 53, 0
2, 74374, Note_on_c, 0, 65, 98
2, 74374, Note_on_c, 0, 68, 97
2, 74374, Note_on_c, 0, 72, 82
2, 74376, Note_on_c, 0, 77, 82
2, 74378, Note_on_c, 0, 74, 84
2, 74394, Control_c, 0, 64, 0
2, 74438, Note_off_c, 0, 65, 0
2, 74440, Note_off_c, 0, 68, 0
2, 74454, Note_off_c, 0, 72, 0
2, 74466, Note_off_c, 0, 74, 0
2, 74470, Note_off_c, 0, 77, 0
2, 74496, Note_on_c, 0, 51, 76
2, 74500, Note_on_c, 0, 36, 60
2, 74594, Control_c, 0, 64, 127
2, 74622, Note_off_c, 0, 51, 0
2, 74632, Note_off_c, 0, 36, 0
2, 74846, Control_c, 0, 64, 0
2, 74866, Note_on_c, 0, 35, 75
2, 74872, Note_on_c, 0, 50, 65
2, 74940, Note_on_c, 0, 50, 0
2, 74950, Control_c, 0, 64, 127
2, 74952, Note_off_c, 0, 35, 0
2, 75160, Note_on_c, 0, 34, 87
2, 75180, Control_c, 0, 64, 0
2, 75268, Note_on_c, 0, 49, 91
2, 75288, Note_on_c, 0, 34, 0
2, 75304, Control_c, 0, 64, 127
2, 75312, Note_off_c, 0, 49, 0
2, 75542, Note_on_c, 0, 85, 114
2, 75542, Note_on_c, 0, 82, 116
2, 75542, Note_on_c, 0, 77, 112
2, 75544, Note_on_c, 0, 89, 109
2, 75608, Note_on_c, 0, 82, 0
2, 75608, Control_c, 0, 64, 0
2, 75616, Note_off_c, 0, 89, 0
2, 75616, Note_off_c, 0, 85, 0
2, 75618, Note_off_c, 0, 77, 0
2, 75646, Note_on_c, 0, 56, 75
2, 75646, Note_on_c, 0, 65, 68
2, 75646, Note_on_c, 0, 60, 65
2, 75650, Note_on_c, 0, 61, 67
2, 75662, Note_on_c, 0, 77, 96
2, 75664, Note_on_c, 0, 89, 101
2, 75664, Note_on_c, 0, 85, 90
2, 75664, Note_on_c, 0, 82, 90
2, 75706, Note_on_c, 0, 65, 0
2, 75712, Note_on_c, 0, 61, 0
2, 75712, Note_on_c, 0, 60, 0
2, 75734, Note_on_c, 0, 56, 0
2, 75734, Control_c, 0, 64, 127
2, 75794, Note_off_c, 0, 77, 0
2, 75808, Note_off_c, 0, 82, 0
2, 75810, Note_off_c, 0, 85, 0
2, 75834, Note_off_c, 0, 89, 0
2, 75920, Note_on_c, 0, 89, 102
2, 75920, Note_on_c, 0, 85, 106
2, 75920, Note_on_c, 0, 77, 100
2, 75920, Note_on_c, 0, 82, 106
2, 75988, Note_on_c, 0, 77, 0
2, 75992, Note_on_c, 0, 82, 0
2, 75998, Note_on_c, 0, 85, 0
2, 76002, Note_on_c, 0, 89, 0
2, 76008, Control_c, 0, 64, 0
2, 76034, Note_on_c, 0, 46, 86
2, 76036, Note_on_c, 0, 56, 78
2, 76040, Note_on_c, 0, 89, 88
2, 76044, Note_on_c, 0, 85, 84
2, 76044, Note_on_c, 0, 77, 88
2, 76044, Note_on_c, 0, 82, 85
2, 76094, Note_on_c, 0, 46, 0
2, 76100, Note_on_c, 0, 56, 0
2, 76128, Control_c, 0, 64, 127
2, 76184, Note_off_c, 0, 77, 0
2, 76188, Note_off_c, 0, 82, 0
2, 76194, Note_off_c, 0, 85, 0
2, 76210, Note_off_c, 0, 89, 0
2, 76304, Note_on_c, 0, 85, 105
2, 76306, Note_on_c, 0, 77, 98
2, 76306, Note_on_c, 0, 82, 104
2, 76306, Note_on_c, 0, 89, 99
2, 76362, Note_on_c, 0, 77, 0
2, 76370, Note_on_c, 0, 82, 0
2, 76376, Note_on_c, 0, 85, 0
2, 76382, Note_on_c, 0, 89, 0
2, 76400, Control_c, 0, 64, 0
2, 76416, Note_on_c, 0, 61, 81
2, 76420, Note_on_c, 0, 55, 64
2, 76424, Note_on_c, 0, 58, 88
2, 76426, Note_on_c, 0, 85, 86
2, 76426, Note_on_c, 0, 89, 91
2, 76426, Note_on_c, 0, 77, 92
2, 76428, Note_on_c, 0, 82, 89
2, 76478, Note_on_c, 0, 61, 0
2, 76480, Note_on_c, 0, 58, 0
2, 76490, Note_on_c, 0, 55, 0
2, 76504, Control_c, 0, 64, 127
2, 76522, Note_off_c, 0, 77, 0
2, 76550, Note_off_c, 0, 82, 0
2, 76574, Note_off_c, 0, 85, 0
2, 76592, Note_off_c, 0, 89, 0
2, 76680, Note_on_c, 0, 85, 101
2, 76680, Note_on_c, 0, 89, 97
2, 76680, Note_on_c, 0, 82, 99
2, 76682, Note_on_c, 0, 77, 91
2, 76742, Note_on_c, 0, 77, 0
2, 76742, Note_on_c, 0, 82, 0
2, 76754, Note_on_c, 0, 85, 0
2, 76764, Note_on_c, 0, 89, 0
2, 76764, Control_c, 0, 64, 0
2, 76796, Note_on_c, 0, 43, 73
2, 76800, Note_on_c, 0, 53, 63
2, 76802, Note_on_c, 0, 86, 86
2, 76802, Note_on_c, 0, 82, 83
2, 76806, Note_on_c, 0, 89, 60
2, 76806, Note_on_c, 0, 77, 70
2, 76830, Note_on_c, 0, 85, 38
2, 76856, Note_on_c, 0, 85, 0
2, 76868, Note_on_c, 0, 43, 0
2, 76896, Note_on_c, 0, 82, 0
2, 76896, Note_on_c, 0, 53, 0
2, 76900, Note_on_c, 0, 77, 0
2, 76906, Control_c, 0, 64, 127
2, 76974, Note_off_c, 0, 89, 0
2, 76980, Note_off_c, 0, 86, 0
2, 77074, Note_on_c, 0, 86, 91
2, 77076, Note_on_c, 0, 77, 90
2, 77076, Note_on_c, 0, 89, 93
2, 77076, Note_on_c, 0, 82, 98
2, 77142, Note_on_c, 0, 82, 0
2, 77148, Note_on_c, 0, 77, 0
2, 77152, Note_on_c, 0, 89, 0
2, 77160, Note_on_c, 0, 86, 0
2, 77190, Note_on_c, 0, 58, 79
2, 77192, Note_on_c, 0, 62, 69
2, 77192, Note_on_c, 0, 53, 65
2, 77192, Note_on_c, 0, 86, 84
2, 77196, Note_on_c, 0, 55, 65
2, 77198, Note_on_c, 0, 89, 87
2, 77198, Note_on_c, 0, 77, 88
2, 77200, Note_on_c, 0, 82, 87
2, 77238, Note_on_c, 0, 58, 0
2, 77244, Note_on_c, 0, 62, 0
2, 77250, Note_on_c, 0, 55, 0
2, 77254, Note_on_c, 0, 53, 0
2, 77280, Note_on_c, 0, 82, 0
2, 77284, Note_on_c, 0, 77, 0
2, 77298, Note_on_c, 0, 89, 0
2, 77300, Note_on_c, 0, 86, 0
2, 77462, Note_on_c, 0, 82, 104
2, 77464, Note_on_c, 0, 77, 94
2, 77464, Note_on_c, 0, 86, 94
2, 77464, Note_on_c, 0, 89, 93
2, 77506, Note_on_c, 0, 82, 0
2, 77510, Note_on_c, 0, 77, 0
2, 77512, Note_on_c, 0, 89, 0
2, 77512, Note_on_c, 0, 86, 0
2, 77544, Control_c, 0, 64, 0
2, 77566, Note_on_c, 0, 36, 70
2, 77566, Note_on_c, 0, 52, 59
2, 77582, Note_on_c, 0, 92, 101
2, 77584, Note_on_c, 0, 85, 100
2, 77588, Note_on_c, 0, 80, 91
2, 77612, Note_on_c, 0, 80, 0
2, 77612, Note_on_c, 0, 85, 0
2, 77616, Note_on_c, 0, 92, 0
2, 77624, Note_on_c, 0, 36, 0
2, 77654, Control_c, 0, 64, 127
2, 77720, Note_on_c, 0, 77, 58
2, 77730, Note_on_c, 0, 82, 38
2, 77758, Note_on_c, 0, 82, 0
2, 77762, Note_on_c, 0, 77, 0
2, 77826, Note_on_c, 0, 91, 111
2, 77826, Note_on_c, 0, 79, 108
2, 77840, Note_on_c, 0, 85, 84
2, 77844, Note_on_c, 0, 87, 68
2, 77860, Note_on_c, 0, 85, 0
2, 77870, Note_on_c, 0, 87, 0
2, 77882, Note_on_c, 0, 79, 0
2, 77894, Note_on_c, 0, 91, 0
2, 77912, Control_c, 0, 64, 0
2, 77934, Note_on_c, 0, 42, 94
2, 77954, Note_on_c, 0, 89, 99
2, 77956, Note_on_c, 0, 77, 91
2, 77960, Note_on_c, 0, 84, 91
2, 78002, Note_on_c, 0, 89, 0
2, 78004, Note_on_c, 0, 77, 0
2, 78008, Note_on_c, 0, 84, 0
2, 78016, Control_c, 0, 64, 127
2, 78022, Note_off_c, 0, 52, 0
2, 78032, Note_off_c, 0, 42, 0
2, 78210, Note_on_c, 0, 81, 90
2, 78212, Note_on_c, 0, 86, 95
2, 78212, Note_on_c, 0, 74, 84
2, 78248, Note_on_c, 0, 74, 0
2, 78256, Note_on_c, 0, 81, 0
2, 78258, Note_on_c, 0, 86, 0
2, 78268, Control_c, 0, 64, 0
2, 78326, Note_on_c, 0, 41, 75
2, 78326, Note_on_c, 0, 48, 73
2, 78328, Note_on_c, 0, 84, 99
2, 78328, Note_on_c, 0, 89, 100
2, 78330, Note_on_c, 0, 77, 88
2, 78376, Note_on_c, 0, 48, 0
2, 78378, Note_on_c, 0, 77, 0
2, 78380, Note_on_c, 0, 84, 0
2, 78380, Note_on_c, 0, 41, 0
2, 78396, Note_on_c, 0, 89, 0
2, 78402, Control_c, 0, 64, 127
2, 78720, Note_on_c, 0, 60, 73
2, 78720, Note_on_c, 0, 62, 71
2, 78724, Note_on_c, 0, 53, 71
2, 78726, Note_on_c, 0, 57, 76
2, 78734, Control_c, 0, 64, 0
2, 78774, Note_off_c, 0, 60, 0
2, 78778, Note_off_c, 0, 62, 0
2, 78780, Note_off_c, 0, 57, 0
2, 78798, Note_off_c, 0, 53, 0
2, 78988, Note_on_c, 0, 89, 104
2, 78988, Note_on_c, 0, 79, 106
2, 78990, Note_on_c, 0, 80, 110
2, 78992, Note_on_c, 0, 84, 89
2, 78992, Note_on_c, 0, 86, 90
2, 79034, Note_on_c, 0, 80, 0
2, 79036, Note_on_c, 0, 81, 67
2, 79082, Note_on_c, 0, 89, 0
2, 79096, Note_on_c, 0, 86, 0
2, 79096, Note_on_c, 0, 84, 0
2, 79098, Note_on_c, 0, 79, 0
2, 79108, Note_on_c, 0, 81, 0
2, 79108, Note_on_c, 0, 36, 68
2, 79138, Note_on_c, 0, 36, 0
2, 79156, Control_c, 0, 64, 127
2, 79384, Note_on_c, 0, 68, 86
2, 79488, Control_c, 0, 64, 0
2, 79494, Note_on_c, 0, 36, 63
2, 79502, Note_on_c, 0, 52, 73
2, 79502, Note_on_c, 0, 64, 88
2, 79502, Note_on_c, 0, 62, 76
2, 79568, Note_on_c, 0, 36, 0
2, 79580, Note_on_c, 0, 68, 0
2, 79600, Control_c, 0, 64, 127
2, 79608, Note_off_c, 0, 52, 0
2, 79620, Note_off_c, 0, 64, 0
2, 79622, Note_off_c, 0, 62, 0
2, 79778, Note_on_c, 0, 69, 91
2, 79778, Note_on_c, 0, 60, 93
2, 79778, Note_on_c, 0, 64, 102
2, 79800, Control_c, 0, 64, 0
2, 79890, Note_off_c, 0, 60, 0
2, 79902, Note_on_c, 0, 48, 77
2, 79904, Note_on_c, 0, 41, 70
2, 79914, Note_on_c, 0, 64, 0
2, 79944, Note_on_c, 0, 41, 0
2, 79948, Note_on_c, 0, 69, 0
2, 79948, Control_c, 0, 64, 127
2, 79952, Note_off_c, 0, 48, 0
2, 80280, Note_on_c, 0, 60, 81
2, 80282, Note_on_c, 0, 62, 75
2, 80284, Note_on_c, 0, 57, 81
2, 80328, Note_on_c, 0, 60, 0
2, 80330, Note_on_c, 0, 57, 0
2, 80334, Note_on_c, 0, 62, 0
2, 80532, Note_on_c, 0, 38, 79
2, 80604, Control_c, 0, 64, 0
2, 80652, Note_on_c, 0, 53, 91
2, 80744, Note_on_c, 0, 53, 0
2, 80746, Control_c, 0, 64, 127
2, 80754, Note_off_c, 0, 38, 0
2, 81012, Control_c, 0, 64, 0
2, 81032, Note_on_c, 0, 37, 86
2, 81034, Note_on_c, 0, 52, 76
2, 81110, Note_on_c, 0, 52, 0
2, 81120, Note_on_c, 0, 37, 0
2, 81124, Control_c, 0, 64, 127
2, 81292, Note_on_c, 0, 75, 118
2, 81308, Control_c, 0, 64, 0
2, 81396, Note_on_c, 0, 51, 73
2, 81398, Note_on_c, 0, 75, 0
2, 81404, Note_on_c, 0, 36, 58
2, 81412, Note_on_c, 0, 78, 77
2, 81458, Note_on_c, 0, 78, 0
2, 81460, Note_on_c, 0, 36, 0
2, 81476, Note_on_c, 0, 79, 24
2, 81482, Note_on_c, 0, 51, 0
2, 81700, Note_on_c, 0, 82, 79
2, 81704, Note_on_c, 0, 79, 0
2, 81774, Note_on_c, 0, 82, 0
2, 81786, Note_on_c, 0, 60, 72
2, 81788, Note_on_c, 0, 58, 87
2, 81790, Note_on_c, 0, 55, 74
2, 81796, Note_on_c, 0, 85, 106
2, 81846, Note_on_c, 0, 60, 0
2, 81856, Note_on_c, 0, 58, 0
2, 81866, Note_on_c, 0, 55, 0
2, 81984, Note_on_c, 0, 85, 0
2, 82182, Note_on_c, 0, 41, 69
2, 82188, Note_on_c, 0, 86, 108
2, 82246, Note_on_c, 0, 41, 0
2, 82330, Note_on_c, 0, 86, 0
2, 82560, Note_on_c, 0, 57, 62
2, 82560, Note_on_c, 0, 60, 62
2, 82562, Note_on_c, 0, 51, 67
2, 82652, Note_on_c, 0, 57, 0
2, 82666, Note_on_c, 0, 60, 0
2, 82668, Note_on_c, 0, 51, 0
2, 82958, Note_on_c, 0, 75, 103
2, 82960, Note_on_c, 0, 87, 100
2, 82960, Note_on_c, 0, 37, 87
2, 82962, Note_on_c, 0, 83, 82
2, 82964, Note_on_c, 0, 52, 65
2, 82964, Note_on_c, 0, 80, 92
2, 83038, Note_on_c, 0, 37, 0
2, 83072, Note_on_c, 0, 52, 0
2, 83184, Note_on_c, 0, 87, 0
2, 83248, Note_on_c, 0, 85, 76
2, 83258, Note_on_c, 0, 75, 0
2, 83292, Note_on_c, 0, 80, 0
2, 83330, Note_on_c, 0, 85, 0
2, 83334, Note_on_c, 0, 87, 103
2, 83336, Note_on_c, 0, 59, 58
2, 83336, Note_on_c, 0, 56, 75
2, 83336, Note_on_c, 0, 52, 59
2, 83338, Note_on_c, 0, 63, 70
2, 83352, Note_on_c, 0, 80, 56
2, 83358, Note_on_c, 0, 75, 45
2, 83386, Note_on_c, 0, 80, 0
2, 83412, Note_on_c, 0, 83, 0
2, 83456, Note_on_c, 0, 75, 0
2, 83472, Note_on_c, 0, 87, 0
2, 83526, Note_on_c, 0, 59, 0
2, 83604, Note_on_c, 0, 73, 108
2, 83606, Note_on_c, 0, 85, 102
2, 83608, Note_on_c, 0, 82, 94
2, 83610, Note_on_c, 0, 80, 92
2, 83684, Note_on_c, 0, 73, 0
2, 83686, Note_on_c, 0, 80, 0
2, 83700, Note_on_c, 0, 82, 0
2, 83704, Note_on_c, 0, 85, 0
2, 83704, Note_on_c, 0, 58, 82
2, 83720, Note_on_c, 0, 63, 0
2, 83722, Note_on_c, 0, 52, 0
2, 83736, Note_on_c, 0, 58, 0
2, 83738, Note_on_c, 0, 56, 0
2, 84078, Note_on_c, 0, 49, 100
2, 84082, Control_c, 0, 64, 127
2, 84128, Note_off_c, 0, 49, 0
2, 84352, Note_on_c, 0, 43, 64
2, 84422, Control_c, 0, 64, 0
2, 84452, Note_off_c, 0, 43, 0
2, 84464, Note_on_c, 0, 36, 85
2, 84470, Note_on_c, 0, 85, 104
2, 84514, Note_on_c, 0, 36, 0
2, 84688, Note_on_c, 0, 85, 0
2, 84752, Note_on_c, 0, 86, 100
2, 84838, Note_on_c, 0, 86, 0
2, 84854, Note_on_c, 0, 57, 67
2, 84854, Note_on_c, 0, 51, 71
2, 84858, Note_on_c, 0, 60, 61
2, 84888, Note_on_c, 0, 84, 48
2, 84920, Note_on_c, 0, 57, 0
2, 84924, Note_on_c, 0, 60, 0
2, 84936, Note_on_c, 0, 51, 0
2, 85066, Note_on_c, 0, 84, 0
2, 85130, Note_on_c, 0, 84, 95
2, 85130, Note_on_c, 0, 82, 103
2, 85244, Note_on_c, 0, 41, 67
2, 85268, Note_on_c, 0, 82, 0
2, 85276, Note_on_c, 0, 81, 59
2, 85280, Note_on_c, 0, 84, 0
2, 85302, Note_on_c, 0, 41, 0
2, 85456, Note_on_c, 0, 81, 0
2, 85532, Note_on_c, 0, 78, 111
2, 85626, Note_on_c, 0, 57, 60
2, 85626, Note_on_c, 0, 51, 72
2, 85628, Note_on_c, 0, 60, 56
2, 85650, Note_on_c, 0, 78, 0
2, 85652, Note_on_c, 0, 77, 75
2, 85704, Note_on_c, 0, 57, 0
2, 85706, Note_on_c, 0, 60, 0
2, 85718, Note_on_c, 0, 51, 0
2, 85860, Note_on_c, 0, 77, 0
2, 85926, Note_on_c, 0, 75, 104
2, 86008, Note_on_c, 0, 75, 0
2, 86028, Note_on_c, 0, 34, 75
2, 86050, Note_on_c, 0, 74, 56
2, 86072, Control_c, 0, 64, 127
2, 86094, Note_off_c, 0, 34, 0
2, 86374, Control_c, 0, 64, 0
2, 86406, Note_on_c, 0, 51, 83
2, 86408, Note_on_c, 0, 36, 71
2, 86500, Note_on_c, 0, 36, 0
2, 86500, Control_c, 0, 64, 127
2, 86512, Note_off_c, 0, 51, 0
2, 86744, Control_c, 0, 64, 0
2, 86784, Note_on_c, 0, 37, 85
2, 86786, Note_on_c, 0, 52, 66
2, 86856, Control_c, 0, 64, 127
2, 86882, Note_off_c, 0, 52, 0
2, 86888, Note_off_c, 0, 37, 0
2, 86916, Note_off_c, 0, 74, 0
2, 87122, Control_c, 0, 64, 0
2, 87164, Note_on_c, 0, 39, 91
2, 87164, Note_on_c, 0, 54, 87
2, 87226, Control_c, 0, 64, 127
2, 87246, Note_off_c, 0, 54, 0
2, 87264, Note_off_c, 0, 39, 0
2, 87440, Note_on_c, 0, 45, 42
2, 87492, Control_c, 0, 64, 0
2, 87546, Note_on_c, 0, 38, 84
2, 87546, Note_on_c, 0, 53, 84
2, 87548, Note_on_c, 0, 77, 94
2, 87578, Note_on_c, 0, 45, 0
2, 87642, Note_on_c, 0, 38, 0
2, 87666, Note_on_c, 0, 53, 0
2, 87828, Note_on_c, 0, 81, 65
2, 87862, Note_on_c, 0, 77, 0
2, 87904, Note_on_c, 0, 81, 0
2, 87928, Note_on_c, 0, 54, 65
2, 87928, Note_on_c, 0, 44, 76
2, 87932, Note_on_c, 0, 84, 103
2, 87972, Control_c, 0, 64, 127
2, 88018, Note_off_c, 0, 54, 0
2, 88024, Note_off_c, 0, 44, 0
2, 88070, Note_off_c, 0, 84, 0
2, 88212, Note_on_c, 0, 87, 103
2, 88284, Control_c, 0, 64, 0
2, 88296, Note_off_c, 0, 87, 0
2, 88324, Note_on_c, 0, 88, 96
2, 88326, Note_on_c, 0, 43, 67
2, 88326, Note_on_c, 0, 53, 58
2, 88390, Note_on_c, 0, 43, 0
2, 88410, Note_on_c, 0, 53, 0
2, 88540, Note_on_c, 0, 88, 0
2, 88598, Note_on_c, 0, 86, 108
2, 88702, Note_on_c, 0, 62, 61
2, 88704, Note_on_c, 0, 59, 71
2, 88704, Note_on_c, 0, 53, 61
2, 88716, Note_on_c, 0, 86, 0
2, 88716, Note_on_c, 0, 83, 86
2, 88742, Control_c, 0, 64, 127
2, 88758, Note_off_c, 0, 59, 0
2, 88762, Note_off_c, 0, 62, 0
2, 88772, Note_off_c, 0, 53, 0
2, 88968, Note_off_c, 0, 83, 0
2, 88988, Note_on_c, 0, 79, 89
2, 89064, Note_on_c, 0, 79, 0
2, 89074, Control_c, 0, 64, 0
2, 89082, Note_on_c, 0, 53, 60
2, 89086, Note_on_c, 0, 38, 66
2, 89096, Note_on_c, 0, 77, 89
2, 89184, Note_on_c, 0, 38, 0
2, 89382, Note_on_c, 0, 76, 64
2, 89408, Note_on_c, 0, 77, 0
2, 89450, Note_on_c, 0, 76, 0
2, 89474, Note_on_c, 0, 44, 78
2, 89476, Note_on_c, 0, 77, 95
2, 89518, Control_c, 0, 64, 127
2, 89556, Note_off_c, 0, 44, 0
2, 89578, Note_off_c, 0, 53, 0
2, 89582, Note_off_c, 0, 77, 0
2, 89730, Note_on_c, 0, 80, 97
2, 89732, Control_c, 0, 64, 0
2, 89748, Note_on_c, 0, 81, 92
2, 89782, Note_on_c, 0, 80, 0
2, 89876, Note_on_c, 0, 53, 46
2, 89878, Note_on_c, 0, 43, 66
2, 89906, Note_on_c, 0, 81, 0
2, 89924, Control_c, 0, 64, 127
2, 89934, Note_off_c, 0, 43, 0
2, 89934, Note_off_c, 0, 53, 0
2, 90134, Note_on_c, 0, 79, 109
2, 90254, Note_on_c, 0, 62, 65
2, 90254, Note_on_c, 0, 53, 70
2, 90254, Note_on_c, 0, 59, 79
2, 90258, Note_on_c, 0, 79, 0
2, 90304, Note_on_c, 0, 59, 0
2, 90304, Note_on_c, 0, 62, 0
2, 90320, Note_on_c, 0, 53, 0
2, 90510, Note_on_c, 0, 79, 95
2, 90612, Control_c, 0, 64, 0
2, 90620, Note_on_c, 0, 80, 76
2, 90624, Note_on_c, 0, 58, 83
2, 90632, Note_on_c, 0, 48, 65
2, 90634, Note_on_c, 0, 52, 68
2, 90648, Note_on_c, 0, 81, 85
2, 90664, Note_on_c, 0, 79, 0
2, 90676, Note_on_c, 0, 80, 0
2, 90802, Note_on_c, 0, 81, 0
2, 90892, Note_on_c, 0, 81, 88
2, 90978, Note_on_c, 0, 81, 0
2, 91020, Note_on_c, 0, 81, 86
2, 91178, Note_on_c, 0, 81, 0
2, 91264, Note_on_c, 0, 81, 92
2, 91344, Note_on_c, 0, 81, 0
2, 91404, Note_on_c, 0, 81, 99
2, 91636, Note_on_c, 0, 81, 0
2, 91664, Note_on_c, 0, 79, 104
2, 91790, Note_on_c, 0, 79, 0
2, 91804, Control_c, 0, 64, 127
2, 91856, Note_off_c, 0, 48, 0
2, 91880, Note_off_c, 0, 52, 0
2, 91888, Note_off_c, 0, 58, 0
2, 92038, Note_on_c, 0, 72, 81
2, 92094, Note_on_c, 0, 73, 83
2, 92130, Note_on_c, 0, 72, 0
2, 92146, Note_on_c, 0, 74, 80
2, 92166, Control_c, 0, 64, 0
2, 92176, Note_on_c, 0, 58, 66
2, 92182, Note_on_c, 0, 52, 62
2, 92184, Note_on_c, 0, 73, 0
2, 92184, Note_on_c, 0, 48, 52
2, 92188, Note_on_c, 0, 75, 94
2, 92230, Note_on_c, 0, 74, 0
2, 92350, Note_on_c, 0, 75, 0
2, 92428, Note_on_c, 0, 75, 95
2, 92502, Note_on_c, 0, 75, 0
2, 92552, Note_on_c, 0, 75, 95
2, 92708, Note_on_c, 0, 75, 0
2, 92814, Note_on_c, 0, 75, 103
2, 92888, Note_on_c, 0, 75, 0
2, 92944, Note_on_c, 0, 75, 104
2, 93064, Note_on_c, 0, 75, 0
2, 93204, Note_on_c, 0, 73, 110
2, 93276, Note_on_c, 0, 73, 0
2, 93332, Note_on_c, 0, 66, 89
2, 93354, Note_on_c, 0, 52, 0
2, 93356, Note_on_c, 0, 58, 0
2, 93366, Note_on_c, 0, 48, 0
2, 93386, Control_c, 0, 64, 127
2, 93542, Note_off_c, 0, 66, 0
2, 93584, Note_on_c, 0, 64, 79
2, 93664, Note_on_c, 0, 64, 0
2, 93668, Control_c, 0, 64, 0
2, 93694, Note_on_c, 0, 41, 64
2, 93698, Note_on_c, 0, 57, 58
2, 93700, Note_on_c, 0, 66, 92
2, 93714, Note_on_c, 0, 67, 86
2, 93744, Note_on_c, 0, 66, 0
2, 93798, Note_on_c, 0, 67, 0
2, 94082, Note_on_c, 0, 48, 75
2, 94090, Note_on_c, 0, 77, 115
2, 94124, Note_on_c, 0, 41, 0
2, 94144, Note_on_c, 0, 48, 0
2, 94164, Control_c, 0, 64, 127
2, 94172, Note_off_c, 0, 57, 0
2, 94288, Note_off_c, 0, 77, 0
2, 94364, Note_on_c, 0, 74, 71
2, 94428, Control_c, 0, 64, 0
2, 94452, Note_off_c, 0, 74, 0
2, 94470, Note_on_c, 0, 77, 90
2, 94470, Note_on_c, 0, 57, 69
2, 94470, Note_on_c, 0, 47, 73
2, 94472, Note_on_c, 0, 65, 103
2, 94578, Note_on_c, 0, 47, 0
2, 94590, Note_on_c, 0, 57, 0
2, 94668, Note_on_c, 0, 65, 0
2, 94700, Note_on_c, 0, 77, 0
2, 94854, Note_on_c, 0, 46, 73
2, 94856, Note_on_c, 0, 56, 66
2, 94856, Note_on_c, 0, 73, 101
2, 94864, Note_on_c, 0, 68, 95
2, 94918, Control_c, 0, 64, 127
2, 94980, Note_off_c, 0, 56, 0
2, 94982, Note_off_c, 0, 46, 0
2, 94992, Note_off_c, 0, 68, 0
2, 94992, Note_off_c, 0, 73, 0
2, 95154, Control_c, 0, 64, 0
2, 95230, Note_on_c, 0, 68, 103
2, 95230, Note_on_c, 0, 45, 57
2, 95230, Note_on_c, 0, 55, 56
2, 95232, Note_on_c, 0, 77, 97
2, 95232, Note_on_c, 0, 65, 88
2, 95286, Note_on_c, 0, 69, 71
2, 95300, Note_on_c, 0, 68, 0
2, 95590, Note_on_c, 0, 77, 0
2, 95622, Note_on_c, 0, 52, 69
2, 95626, Note_on_c, 0, 74, 90
2, 95644, Note_on_c, 0, 69, 0
2, 95646, Note_on_c, 0, 65, 0
2, 95660, Note_on_c, 0, 55, 0
2, 95670, Note_on_c, 0, 45, 0
2, 95672, Control_c, 0, 64, 127
2, 95678, Note_off_c, 0, 52, 0
2, 95748, Note_off_c, 0, 74, 0
2, 95894, Control_c, 0, 64, 0
2, 95902, Note_on_c, 0, 77, 96
2, 95904, Note_on_c, 0, 70, 104
2, 95904, Note_on_c, 0, 65, 95
2, 95988, Note_on_c, 0, 65, 0
2, 95996, Note_on_c, 0, 70, 0
2, 96010, Note_on_c, 0, 54, 69
2, 96014, Note_on_c, 0, 44, 75
2, 96056, Note_on_c, 0, 77, 0
2, 96080, Control_c, 0, 64, 127
2, 96394, Note_on_c, 0, 51, 90
2, 96410, Note_on_c, 0, 54, 0
2, 96416, Note_on_c, 0, 44, 0
2, 96442, Note_on_c, 0, 51, 0
2, 96598, Note_on_c, 0, 88, 83
2, 96634, Control_c, 0, 64, 0
2, 96654, Note_on_c, 0, 89, 42
2, 96656, Note_on_c, 0, 88, 0
2, 96694, Note_on_c, 0, 88, 66
2, 96742, Note_on_c, 0, 89, 0
2, 96752, Note_on_c, 0, 87, 88
2, 96764, Note_on_c, 0, 53, 64
2, 96764, Note_on_c, 0, 43, 64
2, 96780, Note_on_c, 0, 88, 0
2, 96800, Note_on_c, 0, 86, 77
2, 96808, Note_on_c, 0, 43, 0
2, 96812, Note_on_c, 0, 87, 0
2, 96822, Note_on_c, 0, 53, 0
2, 96846, Note_on_c, 0, 86, 0
2, 96914, Note_on_c, 0, 85, 95
2, 96964, Note_on_c, 0, 85, 0
2, 97022, Note_on_c, 0, 83, 93
2, 97080, Note_on_c, 0, 83, 0
2, 97114, Note_on_c, 0, 81, 79
2, 97144, Note_on_c, 0, 59, 59
2, 97146, Note_on_c, 0, 53, 52
2, 97148, Note_on_c, 0, 62, 45
2, 97162, Note_on_c, 0, 81, 0
2, 97196, Note_on_c, 0, 77, 85
2, 97252, Note_on_c, 0, 77, 0
2, 97280, Note_on_c, 0, 76, 68
2, 97340, Note_on_c, 0, 74, 68
2, 97344, Note_on_c, 0, 76, 0
2, 97398, Note_on_c, 0, 74, 0
2, 97414, Note_on_c, 0, 73, 96
2, 97462, Note_on_c, 0, 73, 0
2, 97512, Note_on_c, 0, 74, 97
2, 97576, Note_on_c, 0, 74, 0
2, 97616, Note_on_c, 0, 62, 0
2, 97616, Note_on_c, 0, 76, 95
2, 97672, Note_on_c, 0, 76, 0
2, 97712, Note_on_c, 0, 74, 78
2, 97772, Note_on_c, 0, 73, 82
2, 97782, Note_on_c, 0, 74, 0
2, 97812, Note_on_c, 0, 69, 64
2, 97830, Note_on_c, 0, 73, 0
2, 97880, Note_on_c, 0, 65, 84
2, 97884, Note_on_c, 0, 69, 0
2, 97938, Note_on_c, 0, 65, 0
2, 97950, Note_on_c, 0, 64, 84
2, 97972, Note_on_c, 0, 59, 0
2, 98008, Note_on_c, 0, 53, 0
2, 98020, Note_on_c, 0, 64, 0
2, 98024, Note_on_c, 0, 63, 75
2, 98072, Note_on_c, 0, 62, 70
2, 98074, Note_on_c, 0, 63, 0
2, 98124, Note_on_c, 0, 62, 0
2, 98136, Note_on_c, 0, 61, 84
2, 98194, Note_on_c, 0, 61, 0
2, 98196, Note_on_c, 0, 60, 75
2, 98238, Note_on_c, 0, 59, 83
2, 98246, Note_on_c, 0, 60, 0
2, 98300, Note_on_c, 0, 53, 58
2, 98304, Note_on_c, 0, 43, 57
2, 98316, Note_on_c, 0, 58, 105
2, 98336, Note_on_c, 0, 59, 0
2, 98688, Note_on_c, 0, 50, 79
2, 98688, Note_on_c, 0, 62, 91
2, 98694, Note_on_c, 0, 58, 0
2, 98722, Note_on_c, 0, 43, 0
2, 98778, Control_c, 0, 64, 127
2, 98954, Note_on_c, 0, 66, 110
2, 98992, Control_c, 0, 64, 0
2, 99068, Note_off_c, 0, 50, 0
2, 99082, Note_on_c, 0, 44, 91
2, 99096, Note_on_c, 0, 53, 0
2, 99342, Note_on_c, 0, 70, 110
2, 99464, Note_on_c, 0, 54, 90
2, 99504, Control_c, 0, 64, 127
2, 99528, Note_off_c, 0, 70, 0
2, 99532, Note_off_c, 0, 54, 0
2, 99544, Note_off_c, 0, 44, 0
2, 99544, Note_off_c, 0, 66, 0
2, 99566, Note_off_c, 0, 62, 0
2, 99718, Control_c, 0, 64, 0
2, 99728, Note_on_c, 0, 74, 103
2, 99728, Note_on_c, 0, 62, 106
2, 99732, Note_on_c, 0, 68, 105
2, 99742, Note_on_c, 0, 69, 88
2, 99782, Note_on_c, 0, 68, 0
2, 99816, Note_on_c, 0, 62, 0
2, 99840, Note_on_c, 0, 69, 0
2, 99856, Note_on_c, 0, 53, 58
2, 99860, Note_on_c, 0, 43, 64
2, 99872, Note_on_c, 0, 74, 0
2, 99920, Note_on_c, 0, 43, 0
2, 99946, Note_on_c, 0, 53, 0
2, 100232, Note_on_c, 0, 79, 100
2, 100232, Note_on_c, 0, 62, 58
2, 100232, Note_on_c, 0, 67, 106
2, 100234, Note_on_c, 0, 73, 106
2, 100234, Note_on_c, 0, 53, 60
2, 100236, Note_on_c, 0, 74, 81
2, 100236, Note_on_c, 0, 58, 79
2, 100244, Note_on_c, 0, 55, 53
2, 100248, Note_on_c, 0, 72, 78
2, 100304, Note_on_c, 0, 58, 0
2, 100308, Note_on_c, 0, 73, 0
2, 100310, Note_on_c, 0, 62, 0
2, 100318, Note_on_c, 0, 55, 0
2, 100330, Note_on_c, 0, 53, 0
2, 100338, Note_on_c, 0, 72, 0
2, 100368, Note_on_c, 0, 67, 0
2, 100372, Note_on_c, 0, 74, 0
2, 100372, Note_on_c, 0, 79, 0
2, 100620, Note_on_c, 0, 80, 82
2, 100620, Note_on_c, 0, 43, 64
2, 100620, Note_on_c, 0, 68, 77
2, 100626, Note_on_c, 0, 74, 71
2, 100630, Note_on_c, 0, 72, 63
2, 100660, Note_on_c, 0, 43, 0
2, 100688, Control_c, 0, 64, 127
2, 100690, Note_off_c, 0, 72, 0
2, 100700, Note_off_c, 0, 80, 0
2, 100704, Note_off_c, 0, 68, 0
2, 100718, Note_off_c, 0, 74, 0
2, 100900, Note_on_c, 0, 77, 34
2, 100902, Note_on_c, 0, 72, 53
2, 100906, Note_on_c, 0, 74, 50
2, 100942, Note_on_c, 0, 77, 0
2, 100946, Note_on_c, 0, 74, 0
2, 100948, Note_on_c, 0, 72, 0
2, 100984, Control_c, 0, 64, 0
2, 100998, Note_on_c, 0, 79, 91
2, 101000, Note_on_c, 0, 67, 85
2, 101000, Note_on_c, 0, 62, 66
2, 101002, Note_on_c, 0, 74, 71
2, 101002, Note_on_c, 0, 58, 82
2, 101002, Note_on_c, 0, 72, 70
2, 101008, Note_on_c, 0, 53, 54
2, 101008, Note_on_c, 0, 55, 63
2, 101078, Note_on_c, 0, 58, 0
2, 101082, Note_on_c, 0, 62, 0
2, 101088, Note_on_c, 0, 55, 0
2, 101092, Note_on_c, 0, 53, 0
2, 101108, Control_c, 0, 64, 127
2, 101152, Note_off_c, 0, 79, 0
2, 101174, Note_off_c, 0, 72, 0
2, 101184, Note_off_c, 0, 67, 0
2, 101208, Note_off_c, 0, 74, 0
2, 101376, Control_c, 0, 64, 0
2, 101392, Note_on_c, 0, 65, 81
2, 101392, Note_on_c, 0, 74, 78
2, 101394, Note_on_c, 0, 77, 75
2, 101394, Note_on_c, 0, 52, 69
2, 101396, Note_on_c, 0, 72, 78
2, 101396, Note_on_c, 0, 36, 69
2, 101458, Note_on_c, 0, 52, 0
2, 101464, Note_on_c, 0, 36, 0
2, 101502, Control_c, 0, 64, 127
2, 101504, Note_off_c, 0, 65, 0
2, 101554, Note_off_c, 0, 74, 0
2, 101576, Note_off_c, 0, 72, 0
2, 101764, Note_on_c, 0, 57, 111
2, 101764, Note_on_c, 0, 58, 107
2, 101784, Note_on_c, 0, 77, 0
2, 101784, Control_c, 0, 64, 0
2, 101824, Note_off_c, 0, 57, 0
2, 102148, Note_on_c, 0, 56, 89
2, 102166, Note_on_c, 0, 58, 0
2, 102212, Control_c, 0, 64, 127
2, 102468, Note_on_c, 0, 54, 79
2, 102498, Note_on_c, 0, 56, 0
2, 102518, Note_on_c, 0, 55, 83
2, 102522, Control_c, 0, 64, 0
2, 102524, Note_off_c, 0, 54, 0
2, 102808, Note_on_c, 0, 81, 99
2, 102810, Note_on_c, 0, 73, 119
2, 102842, Note_on_c, 0, 74, 101
2, 102850, Note_on_c, 0, 73, 0
2, 102914, Note_on_c, 0, 74, 0
2, 102920, Note_on_c, 0, 53, 58
2, 102926, Note_on_c, 0, 81, 0
2, 102928, Note_on_c, 0, 55, 0
2, 103198, Note_on_c, 0, 77, 113
2, 103274, Note_on_c, 0, 77, 0
2, 103300, Note_on_c, 0, 51, 76
2, 103306, Note_on_c, 0, 53, 0
2, 103592, Note_on_c, 0, 74, 66
2, 103668, Note_on_c, 0, 74, 0
2, 103678, Note_on_c, 0, 77, 92
2, 103680, Note_on_c, 0, 65, 96
2, 103682, Note_on_c, 0, 70, 94
2, 103688, Note_on_c, 0, 50, 71
2, 103690, Note_on_c, 0, 51, 0
2, 103816, Note_on_c, 0, 70, 0
2, 103832, Note_on_c, 0, 65, 0
2, 103838, Note_on_c, 0, 77, 0
2, 104074, Note_on_c, 0, 44, 82
2, 104076, Note_on_c, 0, 74, 88
2, 104076, Note_on_c, 0, 65, 79
2, 104142, Control_c, 0, 64, 127
2, 104144, Note_off_c, 0, 50, 0
2, 104164, Note_off_c, 0, 44, 0
2, 104192, Note_off_c, 0, 74, 0
2, 104210, Note_off_c, 0, 65, 0
2, 104430, Control_c, 0, 64, 0
2, 104454, Note_on_c, 0, 70, 96
2, 104454, Note_on_c, 0, 77, 87
2, 104454, Note_on_c, 0, 65, 90
2, 104456, Note_on_c, 0, 53, 65
2, 104456, Note_on_c, 0, 43, 66
2, 104540, Note_on_c, 0, 43, 0
2, 104544, Note_on_c, 0, 53, 0
2, 104556, Control_c, 0, 64, 127
2, 104838, Note_on_c, 0, 37, 98
2, 104844, Note_on_c, 0, 65, 0
2, 104866, Note_on_c, 0, 70, 0
2, 104906, Note_on_c, 0, 77, 0
2, 104928, Note_on_c, 0, 37, 0
2, 105098, Note_on_c, 0, 43, 77
2, 105140, Control_c, 0, 64, 0
2, 105214, Note_on_c, 0, 36, 95
2, 105236, Note_on_c, 0, 43, 0
2, 105264, Note_on_c, 0, 36, 0
2, 105272, Control_c, 0, 64, 127
2, 105496, Note_on_c, 0, 77, 116
2, 105592, Control_c, 0, 64, 0
2, 105614, Note_on_c, 0, 42, 85
2, 105616, Note_on_c, 0, 52, 75
2, 105626, Note_on_c, 0, 80, 93
2, 105636, Note_on_c, 0, 77, 0
2, 105668, Note_on_c, 0, 81, 78
2, 105674, Note_on_c, 0, 80, 0
2, 105802, Note_on_c, 0, 42, 0
2, 105810, Note_on_c, 0, 52, 0
2, 105844, Note_on_c, 0, 81, 0
2, 105878, Note_on_c, 0, 48, 82
2, 105880, Note_on_c, 0, 84, 111
2, 105994, Note_on_c, 0, 41, 90
2, 106004, Note_on_c, 0, 48, 0
2, 106008, Note_on_c, 0, 84, 0
2, 106042, Note_on_c, 0, 41, 0
2, 106276, Note_on_c, 0, 84, 112
2, 106378, Note_on_c, 0, 60, 74
2, 106380, Note_on_c, 0, 62, 68
2, 106382, Note_on_c, 0, 84, 0
2, 106386, Note_on_c, 0, 53, 61
2, 106386, Note_on_c, 0, 57, 73
2, 106390, Note_on_c, 0, 86, 92
2, 106428, Note_on_c, 0, 53, 0
2, 106428, Note_on_c, 0, 60, 0
2, 106430, Note_on_c, 0, 57, 0
2, 106432, Note_on_c, 0, 62, 0
2, 106500, Note_on_c, 0, 86, 0
2, 106636, Note_on_c, 0, 89, 99
2, 106636, Note_on_c, 0, 84, 90
2, 106638, Note_on_c, 0, 80, 104
2, 106642, Note_on_c, 0, 77, 86
2, 106714, Note_on_c, 0, 89, 0
2, 106720, Note_on_c, 0, 80, 0
2, 106722, Note_on_c, 0, 77, 0
2, 106728, Note_on_c, 0, 84, 0
2, 106760, Note_on_c, 0, 56, 73
2, 106762, Note_on_c, 0, 46, 81
2, 106774, Note_on_c, 0, 88, 78
2, 106774, Note_on_c, 0, 76, 76
2, 106776, Note_on_c, 0, 80, 61
2, 106778, Note_on_c, 0, 84, 42
2, 106824, Note_on_c, 0, 46, 0
2, 106826, Note_on_c, 0, 56, 0
2, 106832, Note_on_c, 0, 80, 0
2, 106834, Control_c, 0, 64, 127
2, 106836, Note_off_c, 0, 76, 0
2, 106852, Note_off_c, 0, 84, 0
2, 106854, Note_off_c, 0, 88, 0
2, 107122, Control_c, 0, 64, 0
2, 107136, Note_on_c, 0, 62, 69
2, 107138, Note_on_c, 0, 80, 98
2, 107138, Note_on_c, 0, 72, 97
2, 107138, Note_on_c, 0, 65, 73
2, 107140, Note_on_c, 0, 56, 77
2, 107140, Note_on_c, 0, 84, 93
2, 107228, Note_on_c, 0, 62, 0
2, 107230, Note_on_c, 0, 65, 0
2, 107242, Note_on_c, 0, 56, 0
2, 107298, Note_on_c, 0, 84, 0
2, 107300, Note_on_c, 0, 72, 0
2, 107302, Note_on_c, 0, 80, 0
2, 107534, Note_on_c, 0, 45, 68
2, 107534, Note_on_c, 0, 80, 96
2, 107536, Note_on_c, 0, 74, 89
2, 107536, Note_on_c, 0, 86, 91
2, 107536, Note_on_c, 0, 55, 50
2, 107584, Note_on_c, 0, 80, 0
2, 107584, Note_on_c, 0, 81, 20
2, 107592, Note_on_c, 0, 45, 0
2, 107622, Note_on_c, 0, 55, 0
2, 107630, Note_on_c, 0, 86, 0
2, 107636, Note_on_c, 0, 74, 0
2, 107654, Note_on_c, 0, 81, 0
2, 107920, Note_on_c, 0, 60, 68
2, 107922, Note_on_c, 0, 81, 74
2, 107924, Note_on_c, 0, 69, 76
2, 107924, Note_on_c, 0, 76, 81
2, 107924, Note_on_c, 0, 55, 55
2, 107930, Note_on_c, 0, 57, 69
2, 107984, Note_on_c, 0, 60, 0
2, 107990, Note_on_c, 0, 57, 0
2, 107996, Note_on_c, 0, 69, 0
2, 108004, Note_on_c, 0, 55, 0
2, 108004, Note_on_c, 0, 76, 0
2, 108036, Note_on_c, 0, 81, 0
2, 108180, Note_on_c, 0, 84, 91
2, 108182, Note_on_c, 0, 75, 95
2, 108182, Note_on_c, 0, 72, 88
2, 108184, Note_on_c, 0, 78, 85
2, 108244, Note_on_c, 0, 72, 0
2, 108246, Note_on_c, 0, 75, 0
2, 108254, Note_on_c, 0, 78, 0
2, 108274, Note_on_c, 0, 84, 0
2, 108284, Note_on_c, 0, 38, 49
2, 108294, Note_on_c, 0, 54, 40
2, 108340, Note_on_c, 0, 38, 0
2, 108564, Note_on_c, 0, 75, 92
2, 108566, Note_on_c, 0, 81, 79
2, 108568, Note_on_c, 0, 69, 85
2, 108568, Note_on_c, 0, 76, 75
2, 108614, Note_on_c, 0, 75, 0
2, 108656, Note_on_c, 0, 69, 0
2, 108664, Note_on_c, 0, 81, 0
2, 108668, Note_on_c, 0, 76, 0
2, 108672, Note_on_c, 0, 44, 59
2, 108928, Note_on_c, 0, 54, 0
2, 108932, Note_on_c, 0, 44, 0
2, 108932, Note_on_c, 0, 68, 96
2, 108940, Note_on_c, 0, 65, 77
2, 108940, Note_on_c, 0, 72, 72
2, 108940, Note_on_c, 0, 77, 77
2, 108940, Note_on_c, 0, 74, 76
2, 108966, Note_on_c, 0, 69, 67
2, 108978, Note_on_c, 0, 68, 0
2, 109014, Note_on_c, 0, 65, 0
2, 109018, Note_on_c, 0, 69, 0
2, 109044, Note_on_c, 0, 74, 0
2, 109044, Note_on_c, 0, 72, 0
2, 109048, Note_on_c, 0, 43, 61
2, 109056, Note_on_c, 0, 53, 59
2, 109070, Note_on_c, 0, 77, 0
2, 109088, Note_on_c, 0, 43, 0
2, 109110, Note_on_c, 0, 53, 0
2, 109128, Control_c, 0, 64, 127
2, 109424, Control_c, 0, 64, 0
2, 109436, Note_on_c, 0, 53, 67
2, 109438, Note_on_c, 0, 59, 74
2, 109438, Note_on_c, 0, 62, 68
2, 109498, Note_on_c, 0, 59, 0
2, 109502, Note_on_c, 0, 62, 0
2, 109514, Note_on_c, 0, 53, 0
2, 109708, Note_on_c, 0, 70, 101
2, 109708, Note_on_c, 0, 79, 84
2, 109710, Note_on_c, 0, 69, 85
2, 109712, Note_on_c, 0, 74, 80
2, 109752, Note_on_c, 0, 70, 0
2, 109766, Note_on_c, 0, 71, 33
2, 109790, Note_on_c, 0, 69, 0
2, 109816, Note_on_c, 0, 71, 0
2, 109822, Note_on_c, 0, 45, 58
2, 109822, Note_on_c, 0, 60, 55
2, 109826, Note_on_c, 0, 74, 0
2, 109830, Note_on_c, 0, 53, 57
2, 109842, Note_on_c, 0, 79, 0
2, 109880, Note_on_c, 0, 60, 0
2, 109882, Control_c, 0, 64, 127
2, 109892, Note_off_c, 0, 53, 0
2, 109892, Note_off_c, 0, 45, 0
2, 110186, Control_c, 0, 64, 0
2, 110200, Note_on_c, 0, 54, 88
2, 110204, Note_on_c, 0, 44, 86
2, 110274, Control_c, 0, 64, 127
2, 110326, Note_off_c, 0, 54, 0
2, 110346, Note_off_c, 0, 44, 0
2, 110474, Note_on_c, 0, 50, 70
2, 110510, Control_c, 0, 64, 0
2, 110588, Note_on_c, 0, 43, 84
2, 110588, Note_on_c, 0, 53, 77
2, 110600, Note_on_c, 0, 50, 0
2, 110644, Control_c, 0, 64, 127
2, 110654, Note_off_c, 0, 53, 0
2, 110654, Note_off_c, 0, 43, 0
2, 110860, Note_on_c, 0, 81, 84
2, 110862, Note_on_c, 0, 73, 103
2, 110864, Note_on_c, 0, 77, 85
2, 110864, Note_on_c, 0, 69, 90
2, 110894, Note_on_c, 0, 74, 90
2, 110896, Control_c, 0, 64, 0
2, 110904, Note_off_c, 0, 73, 0
2, 110952, Note_off_c, 0, 74, 0
2, 110956, Note_off_c, 0, 69, 0
2, 110964, Note_off_c, 0, 77, 0
2, 110970, Note_off_c, 0, 81, 0
2, 110972, Note_on_c, 0, 52, 66
2, 110972, Note_on_c, 0, 36, 68
2, 110998, Note_on_c, 0, 81, 80
2, 111000, Note_on_c, 0, 69, 69
2, 111006, Note_on_c, 0, 73, 97
2, 111006, Note_on_c, 0, 77, 71
2, 111028, Control_c, 0, 64, 127
2, 111054, Note_off_c, 0, 73, 0
2, 111056, Note_on_c, 0, 74, 69
2, 111072, Note_on_c, 0, 52, 0
2, 111084, Note_on_c, 0, 36, 0
2, 111134, Note_on_c, 0, 69, 0
2, 111136, Note_on_c, 0, 74, 0
2, 111152, Note_on_c, 0, 81, 0
2, 111158, Note_on_c, 0, 77, 0
2, 111224, Note_on_c, 0, 73, 104
2, 111226, Note_on_c, 0, 81, 82
2, 111226, Note_on_c, 0, 77, 84
2, 111228, Note_on_c, 0, 69, 85
2, 111240, Note_on_c, 0, 74, 99
2, 111248, Note_on_c, 0, 73, 0
2, 111296, Control_c, 0, 64, 0
2, 111304, Note_off_c, 0, 74, 0
2, 111308, Note_off_c, 0, 69, 0
2, 111328, Note_off_c, 0, 77, 0
2, 111328, Note_off_c, 0, 81, 0
2, 111340, Note_on_c, 0, 50, 68
2, 111342, Note_on_c, 0, 35, 71
2, 111360, Note_on_c, 0, 81, 66
2, 111362, Note_on_c, 0, 77, 72
2, 111364, Note_on_c, 0, 69, 73
2, 111364, Note_on_c, 0, 73, 98
2, 111404, Note_on_c, 0, 73, 0
2, 111408, Note_on_c, 0, 74, 67
2, 111436, Control_c, 0, 64, 127
2, 111440, Note_off_c, 0, 35, 0
2, 111442, Note_off_c, 0, 50, 0
2, 111498, Note_off_c, 0, 69, 0
2, 111502, Note_off_c, 0, 74, 0
2, 111512, Note_off_c, 0, 81, 0
2, 111516, Note_off_c, 0, 77, 0
2, 111590, Note_on_c, 0, 73, 103
2, 111590, Note_on_c, 0, 69, 82
2, 111592, Note_on_c, 0, 81, 85
2, 111592, Note_on_c, 0, 77, 85
2, 111610, Note_on_c, 0, 74, 95
2, 111628, Note_on_c, 0, 73, 0
2, 111678, Note_on_c, 0, 69, 0
2, 111680, Note_on_c, 0, 74, 0
2, 111694, Control_c, 0, 64, 0
2, 111698, Note_off_c, 0, 81, 0
2, 111700, Note_off_c, 0, 77, 0
2, 111714, Note_on_c, 0, 48, 73
2, 111714, Note_on_c, 0, 33, 68
2, 111734, Note_on_c, 0, 81, 65
2, 111736, Note_on_c, 0, 77, 75
2, 111736, Note_on_c, 0, 73, 102
2, 111740, Note_on_c, 0, 69, 73
2, 111766, Note_on_c, 0, 74, 90
2, 111778, Note_on_c, 0, 73, 0
2, 111780, Note_on_c, 0, 48, 0
2, 111796, Note_on_c, 0, 33, 0
2, 111820, Control_c, 0, 64, 127
2, 111836, Note_off_c, 0, 69, 0
2, 111846, Note_off_c, 0, 74, 0
2, 111876, Note_off_c, 0, 77, 0
2, 111884, Note_off_c, 0, 81, 0
2, 111980, Note_on_c, 0, 69, 86
2, 111980, Note_on_c, 0, 81, 82
2, 111980, Note_on_c, 0, 73, 101
2, 111982, Note_on_c, 0, 77, 81
2, 112016, Note_on_c, 0, 74, 77
2, 112026, Note_on_c, 0, 73, 0
2, 112042, Note_on_c, 0, 69, 0
2, 112046, Note_on_c, 0, 74, 0
2, 112058, Note_on_c, 0, 81, 0
2, 112072, Control_c, 0, 64, 0
2, 112076, Note_off_c, 0, 77, 0
2, 112108, Note_on_c, 0, 49, 86
2, 112110, Note_on_c, 0, 34, 87
2, 112128, Note_on_c, 0, 73, 76
2, 112132, Note_on_c, 0, 70, 77
2, 112132, Note_on_c, 0, 77, 30
2, 112132, Note_on_c, 0, 82, 74
2, 112152, Note_on_c, 0, 76, 21
2, 112170, Note_on_c, 0, 70, 0
2, 112196, Note_on_c, 0, 34, 0
2, 112198, Note_on_c, 0, 73, 0
2, 112200, Note_on_c, 0, 76, 0
2, 112212, Control_c, 0, 64, 127
2, 112216, Note_off_c, 0, 49, 0
2, 112220, Note_off_c, 0, 77, 0
2, 112228, Note_off_c, 0, 82, 0
2, 112394, Note_on_c, 0, 77, 76
2, 112394, Note_on_c, 0, 73, 88
2, 112394, Note_on_c, 0, 70, 86
2, 112396, Note_on_c, 0, 82, 92
2, 112476, Note_on_c, 0, 82, 0
2, 112482, Note_on_c, 0, 73, 0
2, 112484, Note_on_c, 0, 77, 0
2, 112502, Note_on_c, 0, 70, 0
2, 112512, Note_on_c, 0, 65, 63
2, 112514, Note_on_c, 0, 56, 68
2, 112514, Note_on_c, 0, 61, 76
2, 112518, Note_on_c, 0, 58, 75
2, 112522, Control_c, 0, 64, 0
2, 112574, Note_off_c, 0, 65, 0
2, 112580, Note_off_c, 0, 58, 0
2, 112580, Note_off_c, 0, 61, 0
2, 112592, Note_off_c, 0, 56, 0
2, 112800, Note_on_c, 0, 79, 92
2, 112800, Note_on_c, 0, 73, 96
2, 112800, Note_on_c, 0, 70, 99
2, 112802, Note_on_c, 0, 67, 87
2, 112912, Note_on_c, 0, 55, 60
2, 112914, Note_on_c, 0, 46, 82
2, 112940, Note_on_c, 0, 73, 0
2, 112944, Control_c, 0, 64, 127
2, 112948, Note_off_c, 0, 67, 0
2, 112950, Note_off_c, 0, 70, 0
2, 112950, Note_off_c, 0, 79, 0
2, 112964, Note_off_c, 0, 46, 0
2, 112972, Note_off_c, 0, 55, 0
2, 113316, Note_on_c, 0, 65, 79
2, 113316, Note_on_c, 0, 56, 75
2, 113318, Note_on_c, 0, 61, 80
2, 113324, Note_on_c, 0, 58, 78
2, 113354, Note_on_c, 0, 58, 0
2, 113362, Note_on_c, 0, 61, 0
2, 113364, Note_on_c, 0, 56, 0
2, 113368, Note_on_c, 0, 65, 0
2, 113538, Note_on_c, 0, 85, 55
2, 113544, Control_c, 0, 64, 0
2, 113568, Note_off_c, 0, 85, 0
2, 113572, Note_on_c, 0, 87, 81
2, 113602, Note_on_c, 0, 85, 76
2, 113636, Note_on_c, 0, 87, 0
2, 113656, Note_on_c, 0, 84, 72
2, 113662, Note_on_c, 0, 58, 71
2, 113668, Note_on_c, 0, 85, 0
2, 113672, Note_on_c, 0, 48, 63
2, 113690, Note_on_c, 0, 84, 0
2, 113718, Note_on_c, 0, 82, 87
2, 113784, Note_on_c, 0, 80, 69
2, 113794, Note_on_c, 0, 82, 0
2, 113818, Note_on_c, 0, 78, 79
2, 113846, Note_on_c, 0, 80, 0
2, 113874, Note_on_c, 0, 78, 0
2, 113874, Note_on_c, 0, 76, 72
2, 113926, Note_on_c, 0, 76, 0
2, 113928, Note_on_c, 0, 75, 81
2, 113986, Note_on_c, 0, 73, 79
2, 114004, Note_on_c, 0, 75, 0
2, 114028, Note_on_c, 0, 73, 0
2, 114034, Note_on_c, 0, 72, 44
2, 114050, Note_on_c, 0, 71, 60
2, 114062, Note_on_c, 0, 52, 71
2, 114074, Note_on_c, 0, 72, 0
2, 114074, Note_on_c, 0, 48, 0
2, 114080, Note_on_c, 0, 71, 0
2, 114084, Note_on_c, 0, 70, 80
2, 114136, Note_on_c, 0, 68, 65
2, 114158, Note_on_c, 0, 70, 0
2, 114184, Note_on_c, 0, 66, 76
2, 114210, Note_on_c, 0, 68, 0
2, 114228, Note_on_c, 0, 64, 72
2, 114232, Note_on_c, 0, 66, 0
2, 114292, Note_on_c, 0, 64, 0
2, 114292, Note_on_c, 0, 63, 69
2, 114344, Note_on_c, 0, 61, 69
2, 114370, Note_on_c, 0, 63, 0
2, 114372, Note_on_c, 0, 58, 0
2, 114386, Note_on_c, 0, 60, 70
2, 114394, Note_on_c, 0, 61, 0
2, 114422, Note_on_c, 0, 60, 0
2, 114428, Note_on_c, 0, 54, 83
2, 114436, Note_on_c, 0, 59, 73
2, 114438, Note_on_c, 0, 52, 0
2, 114462, Note_on_c, 0, 54, 0
2, 114512, Note_on_c, 0, 58, 68
2, 114518, Note_on_c, 0, 59, 0
2, 114562, Note_on_c, 0, 57, 40
2, 114566, Note_on_c, 0, 58, 0
2, 114616, Note_on_c, 0, 57, 0
2, 114628, Note_on_c, 0, 56, 72
2, 114690, Note_on_c, 0, 55, 71
2, 114700, Note_on_c, 0, 56, 0
2, 114754, Note_on_c, 0, 55, 0
2, 114760, Note_on_c, 0, 54, 78
2, 114772, Note_on_c, 0, 51, 93
2, 114808, Note_on_c, 0, 51, 0
2, 114814, Note_on_c, 0, 53, 73
2, 114820, Note_on_c, 0, 54, 0
2, 114860, Note_on_c, 0, 53, 0
2, 114876, Note_on_c, 0, 52, 77
2, 114950, Note_on_c, 0, 51, 79
2, 114960, Note_on_c, 0, 52, 0
2, 115000, Note_on_c, 0, 50, 76
2, 115004, Note_on_c, 0, 51, 0
2, 115046, Note_on_c, 0, 40, 69
2, 115058, Note_on_c, 0, 50, 0
2, 115064, Note_on_c, 0, 49, 87
2, 115126, Note_on_c, 0, 40, 0
2, 115154, Note_on_c, 0, 48, 90
2, 115160, Note_on_c, 0, 49, 0
2, 115174, Note_on_c, 0, 33, 86
2, 115224, Note_on_c, 0, 48, 0
2, 115252, Control_c, 0, 64, 127
2, 115570, Note_on_c, 0, 45, 68
2, 115588, Note_on_c, 0, 33, 0
2, 115622, Note_on_c, 0, 45, 0
2, 115642, Note_on_c, 0, 57, 70
2, 115688, Control_c, 0, 64, 0
2, 115698, Note_on_c, 0, 60, 76
2, 115702, Note_on_c, 0, 57, 0
2, 115724, Note_on_c, 0, 64, 72
2, 115760, Note_on_c, 0, 60, 0
2, 115780, Note_on_c, 0, 67, 79
2, 115804, Note_on_c, 0, 64, 0
2, 115836, Note_on_c, 0, 64, 85
2, 115838, Note_on_c, 0, 67, 0
2, 115896, Note_on_c, 0, 64, 0
2, 115896, Note_on_c, 0, 65, 60
2, 115936, Note_on_c, 0, 65, 0
2, 115940, Note_on_c, 0, 71, 95
2, 115986, Note_on_c, 0, 54, 71
2, 116004, Note_on_c, 0, 71, 0
2, 116024, Note_on_c, 0, 72, 20
2, 116048, Note_on_c, 0, 76, 91
2, 116076, Note_on_c, 0, 72, 0
2, 116098, Note_on_c, 0, 76, 0
2, 116104, Note_on_c, 0, 69, 105
2, 116104, Note_on_c, 0, 79, 103
2, 116358, Note_on_c, 0, 38, 85
2, 116378, Note_on_c, 0, 69, 0
2, 116406, Control_c, 0, 64, 127
2, 116420, Note_off_c, 0, 38, 0
2, 116432, Note_off_c, 0, 79, 0
2, 116450, Note_off_c, 0, 54, 0
2, 116668, Note_on_c, 0, 50, 55
2, 116734, Note_on_c, 0, 50, 0
2, 116738, Control_c, 0, 64, 0
2, 116756, Note_on_c, 0, 43, 74
2, 116758, Note_on_c, 0, 53, 84
2, 116776, Note_on_c, 0, 89, 96
2, 116796, Note_on_c, 0, 43, 0
2, 116810, Note_on_c, 0, 53, 0
2, 116812, Note_on_c, 0, 91, 76
2, 116820, Note_on_c, 0, 89, 0
2, 116856, Note_on_c, 0, 89, 64
2, 116910, Note_on_c, 0, 91, 0
2, 116916, Note_on_c, 0, 86, 67
2, 116934, Note_on_c, 0, 89, 0
2, 116944, Note_on_c, 0, 86, 0
2, 116948, Note_on_c, 0, 84, 81
2, 117000, Note_on_c, 0, 84, 0
2, 117020, Note_on_c, 0, 82, 67
2, 117032, Note_on_c, 0, 83, 2
2, 117048, Note_on_c, 0, 81, 63
2, 117072, Note_on_c, 0, 82, 0
2, 117104, Note_on_c, 0, 83, 0
2, 117104, Note_on_c, 0, 80, 79
2, 117134, Note_on_c, 0, 62, 67
2, 117136, Note_on_c, 0, 81, 0
2, 117138, Note_on_c, 0, 57, 69
2, 117138, Note_on_c, 0, 58, 85
2, 117142, Note_on_c, 0, 53, 49
2, 117160, Note_on_c, 0, 79, 76
2, 117166, Note_on_c, 0, 80, 0
2, 117170, Note_on_c, 0, 57, 0
2, 117180, Note_on_c, 0, 62, 0
2, 117182, Note_on_c, 0, 53, 0
2, 117186, Note_on_c, 0, 58, 0
2, 117206, Note_on_c, 0, 78, 95
2, 117214, Note_on_c, 0, 79, 0
2, 117250, Note_on_c, 0, 78, 0
2, 117292, Note_on_c, 0, 87, 111
2, 117332, Note_on_c, 0, 87, 0
2, 117396, Note_on_c, 0, 85, 63
2, 117446, Note_on_c, 0, 82, 72
2, 117452, Note_on_c, 0, 85, 0
2, 117488, Note_on_c, 0, 80, 79
2, 117504, Note_on_c, 0, 82, 0
2, 117528, Note_on_c, 0, 76, 84
2, 117532, Note_on_c, 0, 80, 0
2, 117532, Note_on_c, 0, 58, 68
2, 117538, Note_on_c, 0, 48, 69
2, 117580, Note_on_c, 0, 76, 0
2, 117596, Note_on_c, 0, 75, 73
2, 117648, Note_on_c, 0, 73, 71
2, 117662, Note_on_c, 0, 75, 0
2, 117690, Note_on_c, 0, 71, 67
2, 117696, Note_on_c, 0, 73, 0
2, 117734, Note_on_c, 0, 71, 0
2, 117750, Note_on_c, 0, 70, 79
2, 117798, Note_on_c, 0, 68, 64
2, 117816, Note_on_c, 0, 70, 0
2, 117842, Note_on_c, 0, 66, 80
2, 117866, Note_on_c, 0, 68, 0
2, 117886, Note_on_c, 0, 64, 80
2, 117892, Note_on_c, 0, 66, 0
2, 117906, Note_on_c, 0, 52, 85
2, 117924, Note_on_c, 0, 48, 0
2, 117930, Note_on_c, 0, 58, 0
2, 117936, Note_on_c, 0, 52, 0
2, 117944, Note_on_c, 0, 64, 0
2, 117952, Note_on_c, 0, 63, 78
2, 118006, Note_on_c, 0, 61, 77
2, 118016, Note_on_c, 0, 63, 0
2, 118046, Note_on_c, 0, 60, 75
2, 118058, Note_on_c, 0, 61, 0
2, 118098, Note_on_c, 0, 60, 0
2, 118126, Note_on_c, 0, 58, 74
2, 118188, Note_on_c, 0, 55, 64
2, 118196, Note_on_c, 0, 58, 0
2, 118254, Note_on_c, 0, 56, 91
2, 118262, Note_on_c, 0, 55, 0
2, 118274, Note_on_c, 0, 48, 70
2, 118282, Note_on_c, 0, 41, 69
2, 118298, Note_on_c, 0, 57, 89
2, 118320, Note_on_c, 0, 56, 0
2, 118416, Note_on_c, 0, 41, 0
2, 118418, Control_c, 0, 64, 127
2, 118420, Note_off_c, 0, 48, 0
2, 118442, Note_off_c, 0, 57, 0
2, 118668, Note_on_c, 0, 60, 86
2, 118668, Note_on_c, 0, 62, 81
2, 118670, Note_on_c, 0, 57, 86
2, 118684, Control_c, 0, 64, 0
2, 118716, Note_off_c, 0, 60, 0
2, 118720, Note_off_c, 0, 57, 0
2, 118720, Note_off_c, 0, 62, 0
2, 118796, Note_on_c, 0, 72, 111
2, 118856, Note_on_c, 0, 72, 0
2, 118924, Note_on_c, 0, 74, 104
2, 118998, Note_on_c, 0, 74, 0
2, 119040, Note_on_c, 0, 56, 83
2, 119042, Note_on_c, 0, 46, 89
2, 119052, Note_on_c, 0, 77, 106
2, 119092, Note_on_c, 0, 46, 0
2, 119100, Note_on_c, 0, 56, 0
2, 119192, Note_on_c, 0, 74, 49
2, 119200, Note_on_c, 0, 77, 0
2, 119234, Note_on_c, 0, 74, 0
2, 119296, Note_on_c, 0, 77, 99
2, 119402, Note_on_c, 0, 77, 0
2, 119428, Note_on_c, 0, 62, 76
2, 119428, Note_on_c, 0, 56, 81
2, 119438, Note_on_c, 0, 76, 101
2, 119500, Note_on_c, 0, 62, 0
2, 119516, Note_on_c, 0, 56, 0
2, 119610, Note_on_c, 0, 76, 0
2, 119698, Note_on_c, 0, 72, 111
2, 119800, Note_on_c, 0, 72, 0
2, 119816, Note_on_c, 0, 45, 66
2, 119820, Note_on_c, 0, 55, 49
2, 119834, Note_on_c, 0, 69, 55
2, 119904, Note_on_c, 0, 45, 0
2, 119936, Note_on_c, 0, 55, 0
2, 120196, Note_on_c, 0, 60, 81
2, 120202, Note_on_c, 0, 57, 75
2, 120204, Note_on_c, 0, 55, 63
2, 120260, Note_on_c, 0, 60, 0
2, 120272, Note_on_c, 0, 55, 0
2, 120274, Note_on_c, 0, 57, 0
2, 120402, Note_on_c, 0, 69, 0
2, 120472, Note_on_c, 0, 72, 92
2, 120592, Note_on_c, 0, 54, 71
2, 120592, Note_on_c, 0, 38, 70
2, 120596, Note_on_c, 0, 73, 76
2, 120622, Note_on_c, 0, 75, 85
2, 120624, Note_on_c, 0, 72, 0
2, 120650, Note_on_c, 0, 73, 0
2, 120650, Note_on_c, 0, 38, 0
2, 120698, Note_on_c, 0, 54, 0
2, 120700, Note_on_c, 0, 76, 26
2, 120718, Note_on_c, 0, 75, 0
2, 120834, Note_on_c, 0, 76, 0
2, 120878, Note_on_c, 0, 75, 110
2, 120976, Note_on_c, 0, 75, 0
2, 120976, Note_on_c, 0, 60, 61
2, 120982, Note_on_c, 0, 54, 61
2, 121006, Note_on_c, 0, 74, 86
2, 121044, Note_on_c, 0, 60, 0
2, 121062, Note_on_c, 0, 54, 0
2, 121188, Note_on_c, 0, 74, 0
2, 121262, Note_on_c, 0, 73, 115
2, 121352, Note_on_c, 0, 73, 0
2, 121356, Note_on_c, 0, 43, 66
2, 121364, Note_on_c, 0, 53, 52
2, 121376, Note_on_c, 0, 76, 81
2, 121434, Note_on_c, 0, 43, 0
2, 121464, Note_on_c, 0, 53, 0
2, 121636, Note_on_c, 0, 65, 87
2, 121664, Note_on_c, 0, 76, 0
2, 121736, Note_on_c, 0, 59, 80
2, 121742, Note_on_c, 0, 53, 70
2, 121750, Note_on_c, 0, 65, 0
2, 121810, Note_on_c, 0, 59, 0
2, 121834, Note_on_c, 0, 53, 0
2, 122006, Note_on_c, 0, 73, 100
2, 122006, Note_on_c, 0, 65, 101
2, 122006, Note_on_c, 0, 69, 97
2, 122006, Note_on_c, 0, 76, 92
2, 122060, Note_on_c, 0, 69, 0
2, 122064, Note_on_c, 0, 65, 0
2, 122096, Note_on_c, 0, 73, 0
2, 122112, Note_on_c, 0, 76, 0
2, 122112, Note_on_c, 0, 38, 79
2, 122168, Note_on_c, 0, 38, 0
2, 122204, Control_c, 0, 64, 127
2, 122304, Note_on_c, 0, 54, 64
2, 122344, Note_on_c, 0, 54, 0
2, 122486, Control_c, 0, 64, 0
2, 122510, Note_on_c, 0, 54, 96
2, 122512, Note_on_c, 0, 44, 94
2, 122754, Note_on_c, 0, 54, 0
2, 122778, Note_on_c, 0, 70, 106
2, 122796, Note_on_c, 0, 44, 0
2, 122796, Note_on_c, 0, 50, 66
2, 122852, Note_on_c, 0, 70, 0
2, 122880, Note_on_c, 0, 50, 0
2, 122892, Note_on_c, 0, 43, 69
2, 122892, Note_on_c, 0, 74, 75
2, 122900, Note_on_c, 0, 53, 58
2, 122924, Note_on_c, 0, 43, 0
2, 122944, Note_on_c, 0, 53, 0
2, 122952, Control_c, 0, 64, 127
2, 123030, Note_off_c, 0, 74, 0
2, 123170, Note_on_c, 0, 77, 66
2, 123240, Control_c, 0, 64, 0
2, 123252, Note_on_c, 0, 59, 77
2, 123254, Note_on_c, 0, 62, 71
2, 123256, Note_on_c, 0, 53, 69
2, 123264, Note_on_c, 0, 68, 94
2, 123272, Note_on_c, 0, 74, 71
2, 123278, Note_on_c, 0, 80, 58
2, 123292, Note_on_c, 0, 81, 61
2, 123310, Note_on_c, 0, 62, 0
2, 123312, Note_on_c, 0, 59, 0
2, 123346, Note_on_c, 0, 68, 0
2, 123348, Note_on_c, 0, 53, 0
2, 123352, Note_on_c, 0, 69, 50
2, 123392, Note_on_c, 0, 80, 0
2, 123476, Note_on_c, 0, 69, 0
2, 123492, Note_on_c, 0, 81, 0
2, 123514, Note_on_c, 0, 77, 0
2, 123518, Note_on_c, 0, 74, 0
2, 123652, Note_on_c, 0, 74, 85
2, 123652, Note_on_c, 0, 77, 83
2, 123652, Note_on_c, 0, 69, 84
2, 123654, Note_on_c, 0, 38, 77
2, 123714, Control_c, 0, 64, 127
2, 123720, Note_off_c, 0, 38, 0
2, 123728, Note_off_c, 0, 69, 0
2, 123738, Note_off_c, 0, 74, 0
2, 123752, Note_off_c, 0, 77, 0
2, 123938, Note_on_c, 0, 38, 85
2, 123980, Control_c, 0, 64, 0
2, 124050, Note_on_c, 0, 54, 100
2, 124062, Note_on_c, 0, 38, 0
2, 124106, Control_c, 0, 64, 127
2, 124134, Note_off_c, 0, 54, 0
2, 124328, Control_c, 0, 64, 0
2, 124332, Note_on_c, 0, 73, 117
2, 124414, Note_on_c, 0, 73, 0
2, 124432, Note_on_c, 0, 53, 68
2, 124434, Note_on_c, 0, 43, 70
2, 124458, Note_on_c, 0, 74, 86
2, 124492, Note_on_c, 0, 43, 0
2, 124518, Note_on_c, 0, 53, 0
2, 124664, Note_on_c, 0, 74, 0
2, 124726, Note_on_c, 0, 77, 53
2, 124788, Note_on_c, 0, 77, 0
2, 124806, Note_on_c, 0, 62, 60
2, 124806, Note_on_c, 0, 58, 77
2, 124808, Note_on_c, 0, 53, 56
2, 124812, Note_on_c, 0, 55, 61
2, 124828, Note_on_c, 0, 80, 78
2, 124864, Note_on_c, 0, 58, 0
2, 124874, Note_on_c, 0, 62, 0
2, 124878, Note_on_c, 0, 55, 0
2, 124880, Note_on_c, 0, 53, 0
2, 125042, Note_on_c, 0, 80, 0
2, 125188, Note_on_c, 0, 69, 71
2, 125190, Note_on_c, 0, 81, 61
2, 125194, Note_on_c, 0, 43, 61
2, 125194, Note_on_c, 0, 77, 57
2, 125196, Note_on_c, 0, 74, 69
2, 125202, Note_on_c, 0, 53, 41
2, 125252, Note_on_c, 0, 74, 0
2, 125252, Note_on_c, 0, 69, 0
2, 125260, Note_on_c, 0, 43, 0
2, 125268, Note_on_c, 0, 77, 0
2, 125280, Note_on_c, 0, 53, 0
2, 125300, Note_on_c, 0, 81, 0
2, 125578, Note_on_c, 0, 77, 72
2, 125578, Note_on_c, 0, 62, 52
2, 125580, Note_on_c, 0, 58, 69
2, 125582, Note_on_c, 0, 53, 49
2, 125584, Note_on_c, 0, 55, 55
2, 125626, Note_on_c, 0, 58, 0
2, 125638, Note_on_c, 0, 62, 0
2, 125646, Note_on_c, 0, 55, 0
2, 125648, Note_on_c, 0, 53, 0
2, 125830, Note_on_c, 0, 77, 0
2, 125868, Note_on_c, 0, 80, 81
2, 125944, Note_on_c, 0, 80, 0
2, 125958, Note_on_c, 0, 36, 70
2, 125962, Note_on_c, 0, 52, 61
2, 125984, Note_on_c, 0, 81, 80
2, 126020, Note_on_c, 0, 52, 0
2, 126022, Note_on_c, 0, 36, 0
2, 126236, Note_on_c, 0, 81, 0
2, 126250, Note_on_c, 0, 86, 99
2, 126332, Note_on_c, 0, 86, 0
2, 126340, Note_on_c, 0, 42, 71
2, 126350, Note_on_c, 0, 58, 62
2, 126370, Note_on_c, 0, 84, 83
2, 126576, Note_on_c, 0, 84, 0
2, 126614, Note_on_c, 0, 86, 91
2, 126726, Note_on_c, 0, 80, 84
2, 126734, Note_on_c, 0, 52, 55
2, 126798, Note_on_c, 0, 80, 0
2, 126806, Note_on_c, 0, 81, 52
2, 126898, Note_on_c, 0, 86, 0
2, 126940, Note_on_c, 0, 81, 0
2, 126992, Note_on_c, 0, 77, 104
2, 127060, Note_on_c, 0, 77, 0
2, 127100, Note_on_c, 0, 74, 81
2, 127128, Note_on_c, 0, 58, 0
2, 127152, Control_c, 0, 64, 127
2, 127156, Note_off_c, 0, 52, 0
2, 127208, Note_off_c, 0, 74, 0
2, 127210, Note_off_c, 0, 42, 0
2, 127350, Note_on_c, 0, 70, 101
2, 127356, Note_on_c, 0, 76, 82
2, 127362, Note_on_c, 0, 47, 76
2, 127372, Note_on_c, 0, 48, 76
2, 127420, Control_c, 0, 64, 0
2, 127432, Note_off_c, 0, 47, 0
2, 127444, Note_off_c, 0, 70, 0
2, 127446, Note_off_c, 0, 76, 0
2, 127492, Note_on_c, 0, 69, 59
2, 127494, Note_on_c, 0, 41, 72
2, 127496, Note_on_c, 0, 77, 55
2, 127502, Note_on_c, 0, 74, 73
2, 127710, Note_on_c, 0, 74, 0
2, 127742, Note_on_c, 0, 69, 0
2, 127752, Note_on_c, 0, 77, 0
2, 127756, Note_on_c, 0, 48, 0
2, 127864, Note_on_c, 0, 48, 84
2, 127864, Note_on_c, 0, 69, 85
2, 127866, Note_on_c, 0, 72, 95
2, 127936, Control_c, 0, 64, 127
2, 128090, Note_off_c, 0, 41, 0
2, 128096, Note_off_c, 0, 72, 0
2, 128096, Note_off_c, 0, 69, 0
2, 128100, Note_off_c, 0, 48, 0
2, 128134, Note_on_c, 0, 41, 55
2, 128218, Control_c, 0, 64, 0
2, 128244, Note_on_c, 0, 50, 71
2, 128248, Note_on_c, 0, 68, 76
2, 128252, Note_on_c, 0, 71, 68
2, 128254, Note_on_c, 0, 77, 66
2, 128480, Note_on_c, 0, 68, 0
2, 128486, Note_on_c, 0, 71, 0
2, 128532, Note_on_c, 0, 77, 0
2, 128624, Note_on_c, 0, 49, 82
2, 128632, Note_on_c, 0, 70, 87
2, 128632, Note_on_c, 0, 77, 79
2, 128634, Note_on_c, 0, 67, 68
2, 128656, Note_on_c, 0, 50, 0
2, 128698, Control_c, 0, 64, 127
2, 128764, Note_off_c, 0, 70, 0
2, 128772, Note_off_c, 0, 49, 0
2, 128784, Note_off_c, 0, 77, 0
2, 128792, Note_off_c, 0, 67, 0
2, 129002, Control_c, 0, 64, 0
2, 129028, Note_on_c, 0, 68, 86
2, 129030, Note_on_c, 0, 48, 74
2, 129034, Note_on_c, 0, 65, 77
2, 129034, Note_on_c, 0, 72, 66
2, 129036, Note_on_c, 0, 77, 76
2, 129038, Note_on_c, 0, 74, 75
2, 129086, Note_on_c, 0, 69, 63
2, 129088, Note_on_c, 0, 41, 0
2, 129090, Note_on_c, 0, 68, 0
2, 129112, Note_on_c, 0, 48, 0
2, 129150, Note_on_c, 0, 65, 0
2, 129176, Note_on_c, 0, 69, 0
2, 129180, Note_on_c, 0, 74, 0
2, 129190, Note_on_c, 0, 77, 0
2, 129192, Note_on_c, 0, 72, 0
2, 129410, Note_on_c, 0, 53, 91
2, 129476, Control_c, 0, 64, 127
2, 129572, Control_c, 0, 64, 0
2, 129682, Note_on_c, 0, 45, 64
2, 129796, Note_on_c, 0, 38, 90
2, 129832, Note_on_c, 0, 45, 0
2, 129844, Control_c, 0, 64, 127
2, 129864, Note_off_c, 0, 38, 0
2, 129864, Note_off_c, 0, 53, 0
2, 130170, Control_c, 0, 64, 0
2, 130180, Note_on_c, 0, 37, 94
2, 130182, Note_on_c, 0, 52, 79
2, 130274, Control_c, 0, 64, 127
2, 130276, Note_off_c, 0, 52, 0
2, 130282, Note_off_c, 0, 37, 0
2, 130460, Note_on_c, 0, 36, 83
2, 130504, Control_c, 0, 64, 0
2, 130570, Note_on_c, 0, 51, 103
2, 130624, Note_on_c, 0, 36, 0
2, 130636, Control_c, 0, 64, 127
2, 130646, Note_off_c, 0, 51, 0
2, 130854, Note_on_c, 0, 79, 90
2, 130940, Control_c, 0, 64, 0
2, 130964, Note_on_c, 0, 81, 75
2, 130966, Note_on_c, 0, 51, 66
2, 130968, Note_on_c, 0, 79, 0
2, 130968, Note_on_c, 0, 58, 76
2, 130968, Note_on_c, 0, 55, 54
2, 130968, Note_on_c, 0, 62, 46
2, 131048, Note_on_c, 0, 58, 0
2, 131050, Note_on_c, 0, 62, 0
2, 131056, Note_on_c, 0, 55, 0
2, 131064, Note_on_c, 0, 51, 0
2, 131074, Control_c, 0, 64, 127
2, 131232, Note_on_c, 0, 86, 101
2, 131258, Note_on_c, 0, 81, 0
2, 131318, Control_c, 0, 64, 0
2, 131342, Note_on_c, 0, 41, 65
2, 131348, Note_on_c, 0, 57, 55
2, 131354, Note_on_c, 0, 84, 87
2, 131360, Note_on_c, 0, 51, 70
2, 131388, Note_on_c, 0, 86, 0
2, 131444, Control_c, 0, 64, 127
2, 131708, Note_off_c, 0, 84, 0
2, 131712, Note_on_c, 0, 48, 86
2, 131720, Note_on_c, 0, 81, 90
2, 131722, Note_on_c, 0, 41, 0
2, 131748, Note_on_c, 0, 51, 0
2, 131750, Note_on_c, 0, 57, 0
2, 131760, Note_on_c, 0, 48, 0
2, 131776, Note_on_c, 0, 81, 0
2, 132094, Control_c, 0, 64, 0
2, 132102, Note_on_c, 0, 58, 98
2, 132106, Note_on_c, 0, 67, 95
2, 132376, Note_on_c, 0, 68, 78
2, 132420, Note_on_c, 0, 67, 0
2, 132478, Note_on_c, 0, 68, 0
2, 132484, Note_on_c, 0, 55, 73
2, 132484, Note_on_c, 0, 69, 76
2, 132560, Control_c, 0, 64, 127
2, 132564, Note_off_c, 0, 55, 0
2, 132578, Note_off_c, 0, 58, 0
2, 132760, Note_on_c, 0, 74, 95
2, 132798, Note_on_c, 0, 69, 0
2, 132868, Note_on_c, 0, 51, 76
2, 132872, Control_c, 0, 64, 0
2, 132876, Note_on_c, 0, 57, 61
2, 132880, Note_on_c, 0, 72, 92
2, 132918, Note_on_c, 0, 74, 0
2, 133254, Note_on_c, 0, 41, 82
2, 133256, Note_on_c, 0, 65, 95
2, 133276, Note_on_c, 0, 72, 0
2, 133314, Note_on_c, 0, 41, 0
2, 133314, Control_c, 0, 64, 127
2, 133326, Note_off_c, 0, 57, 0
2, 133326, Note_off_c, 0, 51, 0
2, 133334, Note_off_c, 0, 65, 0
2, 133568, Note_on_c, 0, 46, 75
2, 133604, Control_c, 0, 64, 0
2, 133608, Note_on_c, 0, 67, 59
2, 133640, Note_on_c, 0, 74, 79
2, 133642, Note_on_c, 0, 57, 76
2, 133668, Note_on_c, 0, 79, 91
2, 133694, Note_on_c, 0, 46, 0
2, 133728, Note_on_c, 0, 57, 0
2, 133736, Note_on_c, 0, 67, 0
2, 133736, Control_c, 0, 64, 127
2, 133750, Note_off_c, 0, 74, 0
2, 133798, Note_off_c, 0, 79, 0
2, 134284, Note_on_c, 0, 49, 85
2, 134288, Note_on_c, 0, 73, 110
2, 134358, Control_c, 0, 64, 0
2, 134392, Note_off_c, 0, 73, 0
2, 134402, Note_off_c, 0, 49, 0
2, 134408, Note_on_c, 0, 74, 61
2, 134416, Note_on_c, 0, 50, 54
2, 134498, Note_on_c, 0, 74, 0
2, 134534, Note_on_c, 0, 50, 0
2, 134544, Note_on_c, 0, 77, 48
2, 134548, Note_on_c, 0, 53, 42
2, 134612, Note_on_c, 0, 77, 0
2, 134654, Note_on_c, 0, 57, 67
2, 134656, Note_on_c, 0, 53, 0
2, 134662, Note_on_c, 0, 81, 64
2, 134764, Note_on_c, 0, 81, 0
2, 134778, Note_on_c, 0, 84, 93
2, 134782, Note_on_c, 0, 72, 99
2, 134782, Note_on_c, 0, 60, 82
2, 134786, Note_on_c, 0, 57, 0
2, 135008, Note_on_c, 0, 84, 0
2, 135024, Note_on_c, 0, 72, 0
2, 135038, Note_on_c, 0, 60, 0
2, 135060, Note_on_c, 0, 57, 53
2, 135060, Note_on_c, 0, 81, 52
2, 135130, Note_on_c, 0, 81, 0
2, 135164, Note_on_c, 0, 57, 0
2, 135164, Note_on_c, 0, 60, 78
2, 135168, Note_on_c, 0, 84, 106
2, 135536, Note_on_c, 0, 84, 0
2, 135546, Note_on_c, 0, 57, 80
2, 135556, Note_on_c, 0, 81, 82
2, 135568, Note_on_c, 0, 60, 0
2, 135816, Note_on_c, 0, 77, 93
2, 135816, Note_on_c, 0, 53, 77
2, 135828, Note_on_c, 0, 81, 0
2, 135860, Note_on_c, 0, 57, 0
2, 135888, Control_c, 0, 64, 127
2, 135894, Note_off_c, 0, 77, 0
2, 135908, Note_off_c, 0, 53, 0
2, 136206, Note_on_c, 0, 57, 87
2, 136208, Note_on_c, 0, 62, 93
2, 136208, Note_on_c, 0, 61, 96
2, 136244, Control_c, 0, 64, 0
2, 136370, Control_c, 0, 64, 127
2, 136458, Note_off_c, 0, 62, 0
2, 136460, Note_off_c, 0, 61, 0
2, 136488, Note_off_c, 0, 57, 0
2, 136604, Note_on_c, 0, 38, 69
2, 136680, Control_c, 0, 64, 0
2, 136718, Note_on_c, 0, 60, 88
2, 136718, Note_on_c, 0, 57, 86
2, 136720, Note_on_c, 0, 64, 91
2, 136720, Note_on_c, 0, 53, 84
2, 136812, Note_on_c, 0, 57, 0
2, 136812, Control_c, 0, 64, 127
2, 136816, Note_off_c, 0, 60, 0
2, 136846, Note_off_c, 0, 64, 0
2, 137086, Control_c, 0, 64, 0
2, 137098, Note_on_c, 0, 67, 102
2, 137150, Note_on_c, 0, 38, 0
2, 137370, Note_on_c, 0, 69, 69
2, 137402, Note_on_c, 0, 67, 0
2, 137424, Note_on_c, 0, 69, 0
2, 137474, Note_on_c, 0, 70, 104
2, 137476, Note_on_c, 0, 67, 88
2, 137476, Note_on_c, 0, 76, 91
2, 137558, Note_on_c, 0, 71, 71
2, 137570, Note_on_c, 0, 70, 0
2, 137620, Note_on_c, 0, 67, 0
2, 137632, Note_on_c, 0, 76, 0
2, 137668, Note_on_c, 0, 71, 0
2, 137746, Note_on_c, 0, 65, 91
2, 137748, Note_on_c, 0, 74, 96
2, 137750, Note_on_c, 0, 69, 90
2, 137906, Note_on_c, 0, 74, 0
2, 137912, Note_on_c, 0, 69, 0
2, 137912, Note_on_c, 0, 53, 0
2, 137916, Control_c, 0, 64, 127
2, 137954, Note_off_c, 0, 65, 0
2, 138164, Note_on_c, 0, 44, 64
2, 138248, Control_c, 0, 64, 0
2, 138264, Note_on_c, 0, 70, 85
2, 138266, Note_on_c, 0, 54, 63
2, 138266, Note_on_c, 0, 59, 73
2, 138268, Note_on_c, 0, 63, 87
2, 138488, Note_on_c, 0, 70, 0
2, 138548, Note_on_c, 0, 68, 59
2, 138616, Note_on_c, 0, 68, 0
2, 138646, Note_on_c, 0, 70, 90
2, 138696, Note_on_c, 0, 63, 0
2, 138700, Control_c, 0, 64, 127
2, 138704, Note_off_c, 0, 59, 0
2, 138706, Note_off_c, 0, 54, 0
2, 138718, Note_off_c, 0, 44, 0
2, 138738, Note_off_c, 0, 70, 0
2, 138892, Note_on_c, 0, 59, 85
2, 138894, Note_on_c, 0, 68, 88
2, 138896, Note_on_c, 0, 63, 87
2, 138898, Note_on_c, 0, 49, 56
2, 138900, Note_on_c, 0, 53, 50
2, 138920, Control_c, 0, 64, 0
2, 139076, Control_c, 0, 64, 127
2, 139142, Note_off_c, 0, 68, 0
2, 139168, Note_off_c, 0, 49, 0
2, 139168, Note_off_c, 0, 63, 0
2, 139170, Note_off_c, 0, 53, 0
2, 139184, Note_off_c, 0, 59, 0
2, 139380, Control_c, 0, 64, 0
2, 139396, Note_on_c, 0, 42, 68
2, 139398, Note_on_c, 0, 57, 76
2, 139482, Note_on_c, 0, 42, 0
2, 139484, Control_c, 0, 64, 127
2, 139506, Note_off_c, 0, 57, 0
2, 139642, Note_on_c, 0, 58, 90
2, 139646, Note_on_c, 0, 43, 61
2, 139660, Control_c, 0, 64, 0
2, 140016, Note_on_c, 0, 46, 75
2, 140024, Note_on_c, 0, 43, 0
2, 140036, Note_on_c, 0, 62, 64
2, 140094, Note_on_c, 0, 58, 0
2, 140148, Note_on_c, 0, 65, 70
2, 140148, Note_on_c, 0, 50, 67
2, 140154, Note_on_c, 0, 46, 0
2, 140184, Note_on_c, 0, 62, 0
2, 140208, Control_c, 0, 64, 127
2, 140244, Note_off_c, 0, 50, 0
2, 140264, Note_off_c, 0, 65, 0
2, 140412, Note_on_c, 0, 69, 65
2, 140412, Note_on_c, 0, 58, 76
2, 140418, Note_on_c, 0, 62, 67
2, 140420, Note_on_c, 0, 65, 76
2, 140424, Note_on_c, 0, 53, 58
2, 140436, Control_c, 0, 64, 0
2, 140502, Note_off_c, 0, 53, 0
2, 140506, Note_off_c, 0, 58, 0
2, 140510, Note_off_c, 0, 62, 0
2, 140520, Note_off_c, 0, 69, 0
2, 140522, Note_off_c, 0, 65, 0
2, 140792, Note_on_c, 0, 58, 75
2, 140796, Note_on_c, 0, 67, 64
2, 140796, Note_on_c, 0, 62, 70
2, 140802, Note_on_c, 0, 50, 68
2, 140878, Note_on_c, 0, 50, 0
2, 140904, Control_c, 0, 64, 127
2, 140918, Note_off_c, 0, 62, 0
2, 140918, Note_off_c, 0, 58, 0
2, 140930, Note_off_c, 0, 67, 0
2, 141180, Note_on_c, 0, 48, 76
2, 141192, Note_on_c, 0, 63, 97
2, 141238, Note_on_c, 0, 48, 0
2, 141260, Note_on_c, 0, 63, 0
2, 141280, Control_c, 0, 64, 0
2, 141296, Note_on_c, 0, 49, 86
2, 141320, Note_on_c, 0, 64, 73
2, 141398, Note_on_c, 0, 64, 0
2, 141444, Note_on_c, 0, 68, 51
2, 141448, Note_on_c, 0, 49, 0
2, 141452, Note_on_c, 0, 52, 55
2, 141576, Note_on_c, 0, 68, 0
2, 141580, Note_on_c, 0, 56, 80
2, 141590, Note_on_c, 0, 71, 68
2, 141592, Note_on_c, 0, 52, 0
2, 141708, Note_on_c, 0, 59, 66
2, 141708, Note_on_c, 0, 68, 78
2, 141708, Note_on_c, 0, 75, 88
2, 141712, Note_on_c, 0, 64, 72
2, 141722, Note_on_c, 0, 56, 0
2, 141756, Note_on_c, 0, 71, 0
2, 141762, Control_c, 0, 64, 127
2, 141778, Note_off_c, 0, 59, 0
2, 141792, Note_off_c, 0, 68, 0
2, 141794, Note_off_c, 0, 64, 0
2, 141824, Note_off_c, 0, 75, 0
2, 141972, Note_on_c, 0, 68, 92
2, 141974, Note_on_c, 0, 73, 94
2, 141976, Note_on_c, 0, 64, 85
2, 141984, Control_c, 0, 64, 0
2, 142360, Note_on_c, 0, 42, 95
2, 142362, Note_on_c, 0, 58, 90
2, 142456, Note_on_c, 0, 68, 0
2, 142462, Note_on_c, 0, 64, 0
2, 142464, Control_c, 0, 64, 127
2, 142484, Note_off_c, 0, 73, 0
2, 142494, Note_off_c, 0, 58, 0
2, 142516, Note_off_c, 0, 42, 0
2, 142756, Note_on_c, 0, 72, 115
2, 142812, Control_c, 0, 64, 0
2, 142834, Note_off_c, 0, 72, 0
2, 142874, Note_on_c, 0, 57, 64
2, 142876, Note_on_c, 0, 74, 93
2, 142876, Note_on_c, 0, 41, 64
2, 142984, Note_on_c, 0, 41, 0
2, 142984, Note_on_c, 0, 57, 0
2, 142992, Note_on_c, 0, 74, 0
2, 143258, Note_on_c, 0, 77, 109
2, 143440, Note_on_c, 0, 77, 0
2, 143632, Note_on_c, 0, 75, 106
2, 143642, Note_on_c, 0, 76, 104
2, 143676, Note_on_c, 0, 75, 0
2, 143882, Note_on_c, 0, 75, 52
2, 143926, Note_on_c, 0, 76, 0
2, 143926, Note_on_c, 0, 74, 72
2, 143976, Note_on_c, 0, 73, 86
2, 143984, Note_on_c, 0, 75, 0
2, 144010, Note_on_c, 0, 74, 0
2, 144012, Note_on_c, 0, 72, 85
2, 144048, Note_on_c, 0, 73, 0
2, 144234, Note_on_c, 0, 72, 0
2, 144400, Note_on_c, 0, 73, 100
2, 144406, Note_on_c, 0, 65, 95
2, 144408, Note_on_c, 0, 53, 64
2, 144414, Note_on_c, 0, 38, 64
2, 144426, Note_on_c, 0, 74, 86
2, 144458, Note_on_c, 0, 73, 0
2, 144790, Note_on_c, 0, 38, 0
2, 144792, Note_on_c, 0, 53, 0
2, 144794, Note_on_c, 0, 69, 80
2, 144822, Note_on_c, 0, 74, 0
2, 144840, Control_c, 0, 64, 127
2, 144846, Note_off_c, 0, 65, 0
2, 144860, Note_off_c, 0, 69, 0
2, 145054, Note_on_c, 0, 72, 99
2, 145056, Note_on_c, 0, 64, 99
2, 145056, Control_c, 0, 64, 0
2, 145210, Note_off_c, 0, 64, 0
2, 145226, Note_off_c, 0, 72, 0
2, 145416, Note_on_c, 0, 51, 84
2, 145422, Note_on_c, 0, 36, 69
2, 145426, Note_on_c, 0, 69, 103
2, 145528, Control_c, 0, 64, 127
2, 145532, Note_off_c, 0, 36, 0
2, 145556, Note_off_c, 0, 69, 0
2, 145564, Note_off_c, 0, 51, 0
2, 145800, Note_on_c, 0, 63, 76
2, 145876, Note_on_c, 0, 63, 0
2, 145892, Control_c, 0, 64, 0
2, 145910, Note_on_c, 0, 65, 84
2, 145910, Note_on_c, 0, 46, 66
2, 145912, Note_on_c, 0, 62, 69
2, 145914, Note_on_c, 0, 53, 50
2, 145916, Note_on_c, 0, 57, 39
2, 146172, Note_on_c, 0, 63, 85
2, 146174, Note_on_c, 0, 62, 0
2, 146180, Note_on_c, 0, 65, 0
2, 146180, Note_on_c, 0, 67, 62
2, 146274, Note_on_c, 0, 63, 0
2, 146282, Note_on_c, 0, 65, 79
2, 146286, Note_on_c, 0, 62, 55
2, 146288, Note_on_c, 0, 67, 0
2, 146670, Note_on_c, 0, 65, 0
2, 146686, Note_on_c, 0, 63, 83
2, 146690, Note_on_c, 0, 67, 65
2, 146692, Note_on_c, 0, 62, 0
2, 146732, Note_on_c, 0, 64, 81
2, 146734, Note_on_c, 0, 63, 0
2, 146818, Note_on_c, 0, 67, 0
2, 146824, Note_on_c, 0, 64, 0
2, 147072, Note_on_c, 0, 50, 80
2, 147104, Note_on_c, 0, 46, 0
2, 147108, Note_on_c, 0, 53, 0
2, 147116, Note_on_c, 0, 57, 0
2, 147118, Note_on_c, 0, 50, 0
2, 147134, Control_c, 0, 64, 127
2, 147466, Control_c, 0, 64, 0
2, 147474, Note_on_c, 0, 57, 55
2, 147474, Note_on_c, 0, 46, 68
2, 147478, Note_on_c, 0, 72, 80
2, 147484, Note_on_c, 0, 65, 80
2, 147732, Note_on_c, 0, 72, 0
2, 147764, Note_on_c, 0, 70, 58
2, 147864, Note_on_c, 0, 72, 85
2, 147866, Note_on_c, 0, 70, 0
2, 147918, Control_c, 0, 64, 127
2, 147928, Note_off_c, 0, 57, 0
2, 147942, Note_off_c, 0, 46, 0
2, 147954, Note_off_c, 0, 65, 0
2, 147976, Note_off_c, 0, 72, 0
2, 148120, Note_on_c, 0, 69, 80
2, 148146, Control_c, 0, 64, 0
2, 148496, Note_on_c, 0, 65, 71
2, 148496, Note_on_c, 0, 57, 67
2, 148496, Note_on_c, 0, 61, 66
2, 148500, Note_on_c, 0, 47, 69
2, 148576, Note_on_c, 0, 57, 0
2, 148584, Note_on_c, 0, 47, 0
2, 148588, Note_on_c, 0, 61, 0
2, 148600, Note_on_c, 0, 65, 0
2, 148680, Control_c, 0, 64, 127
2, 148800, Note_off_c, 0, 69, 0
2, 148900, Note_on_c, 0, 46, 66
2, 148960, Control_c, 0, 64, 0
2, 148996, Note_on_c, 0, 56, 55
2, 148998, Note_on_c, 0, 65, 77
2, 149004, Note_on_c, 0, 61, 70
2, 149280, Note_on_c, 0, 67, 55
2, 149336, Note_on_c, 0, 65, 0
2, 149396, Note_on_c, 0, 68, 85
2, 149414, Note_on_c, 0, 61, 0
2, 149418, Note_on_c, 0, 67, 0
2, 149448, Control_c, 0, 64, 127
2, 149468, Note_off_c, 0, 56, 0
2, 149492, Note_off_c, 0, 68, 0
2, 149644, Note_on_c, 0, 65, 85
2, 149646, Note_on_c, 0, 61, 78
2, 149648, Note_on_c, 0, 56, 80
2, 149670, Control_c, 0, 64, 0
2, 149818, Control_c, 0, 64, 127
2, 150188, Note_off_c, 0, 61, 0
2, 150212, Note_off_c, 0, 65, 0
2, 150246, Note_off_c, 0, 46, 0
2, 150248, Note_off_c, 0, 56, 0
2, 150460, Note_on_c, 0, 45, 45
2, 150528, Control_c, 0, 64, 0
2, 150538, Note_on_c, 0, 71, 88
2, 150538, Note_on_c, 0, 64, 90
2, 150540, Note_on_c, 0, 60, 82
2, 150540, Note_on_c, 0, 59, 75
2, 150750, Note_on_c, 0, 71, 0
2, 150838, Note_on_c, 0, 69, 44
2, 150940, Note_on_c, 0, 69, 0
2, 150940, Note_on_c, 0, 71, 88
2, 150980, Control_c, 0, 64, 127
2, 150996, Note_off_c, 0, 64, 0
2, 151012, Note_off_c, 0, 59, 0
2, 151026, Note_off_c, 0, 60, 0
2, 151074, Note_off_c, 0, 71, 0
2, 151188, Note_on_c, 0, 64, 100
2, 151190, Note_on_c, 0, 60, 87
2, 151192, Note_on_c, 0, 57, 70
2, 151216, Control_c, 0, 64, 0
2, 151372, Control_c, 0, 64, 127
2, 151674, Note_on_c, 0, 52, 87
2, 151680, Note_on_c, 0, 64, 0
2, 151692, Note_on_c, 0, 57, 0
2, 151700, Note_on_c, 0, 45, 0
2, 151704, Note_on_c, 0, 60, 0
2, 151720, Note_on_c, 0, 52, 0
2, 151944, Note_on_c, 0, 63, 104
2, 151944, Note_on_c, 0, 70, 99
2, 151946, Note_on_c, 0, 59, 94
2, 151948, Note_on_c, 0, 58, 92
2, 151952, Note_on_c, 0, 44, 85
2, 151964, Control_c, 0, 64, 0
2, 151990, Note_off_c, 0, 63, 0
2, 151994, Note_off_c, 0, 59, 0
2, 152002, Note_off_c, 0, 58, 0
2, 152006, Note_off_c, 0, 70, 0
2, 152334, Note_on_c, 0, 63, 106
2, 152334, Note_on_c, 0, 59, 96
2, 152334, Note_on_c, 0, 70, 99
2, 152336, Note_on_c, 0, 58, 92
2, 152382, Note_on_c, 0, 63, 0
2, 152388, Note_on_c, 0, 59, 0
2, 152396, Note_on_c, 0, 58, 0
2, 152402, Note_on_c, 0, 70, 0
2, 152712, Note_on_c, 0, 56, 69
2, 152716, Note_on_c, 0, 68, 95
2, 152778, Note_on_c, 0, 56, 0
2, 152796, Note_on_c, 0, 68, 0
2, 152824, Note_on_c, 0, 70, 99
2, 152824, Note_on_c, 0, 59, 90
2, 152826, Note_on_c, 0, 63, 99
2, 152830, Note_on_c, 0, 58, 97
2, 152912, Note_on_c, 0, 58, 0
2, 152912, Note_on_c, 0, 63, 0
2, 152924, Note_on_c, 0, 59, 0
2, 152942, Note_on_c, 0, 70, 0
2, 153206, Note_on_c, 0, 56, 84
2, 153208, Note_on_c, 0, 63, 95
2, 153212, Note_on_c, 0, 59, 88
2, 153212, Note_on_c, 0, 68, 90
2, 153288, Control_c, 0, 64, 127
2, 153300, Note_off_c, 0, 56, 0
2, 153320, Note_off_c, 0, 59, 0
2, 153320, Note_off_c, 0, 63, 0
2, 153324, Note_off_c, 0, 68, 0
2, 153332, Note_off_c, 0, 44, 0
2, 153560, Control_c, 0, 64, 0
2, 153592, Note_on_c, 0, 53, 68
2, 153594, Note_on_c, 0, 69, 88
2, 153594, Note_on_c, 0, 59, 91
2, 153594, Note_on_c, 0, 63, 96
2, 153596, Note_on_c, 0, 43, 64
2, 153608, Note_on_c, 0, 64, 92
2, 153640, Note_on_c, 0, 63, 0
2, 154030, Note_on_c, 0, 69, 0
2, 154034, Control_c, 0, 64, 127
2, 154054, Note_off_c, 0, 59, 0
2, 154056, Note_off_c, 0, 53, 0
2, 154084, Note_off_c, 0, 64, 0
2, 154102, Note_off_c, 0, 43, 0
2, 154244, Note_on_c, 0, 59, 94
2, 154244, Note_on_c, 0, 64, 98
2, 154244, Note_on_c, 0, 67, 90
2, 154246, Note_on_c, 0, 53, 76
2, 154252, Note_on_c, 0, 43, 69
2, 154256, Control_c, 0, 64, 0
2, 154376, Note_off_c, 0, 59, 0
2, 154396, Note_off_c, 0, 64, 0
2, 154412, Control_c, 0, 64, 127
2, 154418, Note_off_c, 0, 67, 0
2, 154628, Note_off_c, 0, 53, 0
2, 154628, Note_on_c, 0, 50, 105
2, 154648, Note_on_c, 0, 43, 0
2, 154676, Note_on_c, 0, 50, 0
2, 155006, Note_on_c, 0, 38, 91
2, 155014, Note_on_c, 0, 69, 103
2, 155014, Note_on_c, 0, 74, 109
2, 155076, Control_c, 0, 64, 0
2, 155108, Note_off_c, 0, 69, 0
2, 155120, Note_off_c, 0, 74, 0
2, 155150, Note_on_c, 0, 70, 92
2, 155150, Note_on_c, 0, 77, 64
2, 155358, Note_on_c, 0, 70, 0
2, 155378, Note_on_c, 0, 77, 0
2, 155392, Note_on_c, 0, 38, 0
2, 155416, Note_on_c, 0, 33, 77
2, 155520, Note_on_c, 0, 68, 92
2, 155522, Note_on_c, 0, 74, 72
2, 155526, Note_on_c, 0, 77, 68
2, 155604, Note_on_c, 0, 69, 61
2, 155610, Note_on_c, 0, 68, 0
2, 155692, Note_on_c, 0, 74, 0
2, 155706, Note_on_c, 0, 69, 0
2, 155716, Note_on_c, 0, 77, 0
2, 155792, Note_on_c, 0, 34, 92
2, 155798, Note_on_c, 0, 33, 0
2, 155928, Note_on_c, 0, 74, 75
2, 155930, Note_on_c, 0, 65, 72
2, 156094, Note_on_c, 0, 65, 0
2, 156098, Note_on_c, 0, 74, 0
2, 156182, Note_on_c, 0, 35, 81
2, 156188, Note_on_c, 0, 34, 0
2, 156302, Note_on_c, 0, 65, 84
2, 156304, Note_on_c, 0, 77, 81
2, 156304, Note_on_c, 0, 74, 82
2, 156304, Note_on_c, 0, 70, 90
2, 156348, Note_on_c, 0, 71, 74
2, 156352, Note_on_c, 0, 70, 0
2, 156396, Note_on_c, 0, 65, 0
2, 156416, Note_on_c, 0, 71, 0
2, 156424, Note_on_c, 0, 74, 0
2, 156444, Note_on_c, 0, 77, 0
2, 156582, Note_on_c, 0, 34, 96
2, 156618, Note_on_c, 0, 35, 0
2, 156690, Note_on_c, 0, 36, 74
2, 156694, Note_on_c, 0, 77, 82
2, 156700, Note_on_c, 0, 80, 93
2, 156702, Note_on_c, 0, 34, 0
2, 156838, Note_on_c, 0, 77, 0
2, 156872, Note_on_c, 0, 79, 45
2, 156890, Note_on_c, 0, 77, 64
2, 156902, Note_on_c, 0, 80, 0
2, 156916, Note_on_c, 0, 75, 96
2, 156930, Note_on_c, 0, 79, 0
2, 156964, Note_on_c, 0, 72, 59
2, 156966, Note_on_c, 0, 77, 0
2, 156976, Note_on_c, 0, 74, 53
2, 156984, Note_on_c, 0, 75, 0
2, 157014, Note_on_c, 0, 74, 0
2, 157022, Note_on_c, 0, 72, 0
2, 157068, Note_on_c, 0, 70, 106
2, 157072, Note_on_c, 0, 74, 97
2, 157156, Note_on_c, 0, 71, 68
2, 157160, Note_on_c, 0, 70, 0
2, 157252, Note_on_c, 0, 74, 0
2, 157266, Note_on_c, 0, 71, 0
2, 157338, Note_on_c, 0, 70, 110
2, 157344, Note_on_c, 0, 74, 101
2, 157414, Note_on_c, 0, 74, 0
2, 157426, Note_on_c, 0, 70, 0
2, 157444, Note_on_c, 0, 74, 33
2, 157456, Note_on_c, 0, 68, 83
2, 157528, Note_on_c, 0, 74, 0
2, 157536, Note_on_c, 0, 68, 0
2, 157588, Note_on_c, 0, 65, 72
2, 157664, Note_on_c, 0, 65, 0
2, 157708, Note_on_c, 0, 63, 108
2, 157820, Note_on_c, 0, 63, 0
2, 157844, Note_on_c, 0, 60, 75
2, 157958, Note_on_c, 0, 36, 0
2, 157992, Note_on_c, 0, 60, 0
2, 158064, Note_on_c, 0, 62, 88
2, 158066, Note_on_c, 0, 36, 91
2, 158066, Note_on_c, 0, 58, 101
2, 158124, Note_on_c, 0, 36, 0
2, 158154, Note_on_c, 0, 62, 0
2, 158168, Note_on_c, 0, 58, 0
2, 158196, Note_on_c, 0, 62, 27
2, 158202, Note_on_c, 0, 56, 79
2, 158284, Note_on_c, 0, 57, 62
2, 158290, Note_on_c, 0, 56, 0
2, 158372, Note_on_c, 0, 62, 0
2, 158386, Note_on_c, 0, 57, 0
2, 158448, Note_on_c, 0, 33, 98
2, 158450, Note_on_c, 0, 53, 100
2, 158674, Control_c, 0, 64, 127
2, 158850, Note_off_c, 0, 53, 0
2, 158852, Note_off_c, 0, 33, 0
2, 158862, Note_on_c, 0, 31, 71
2, 158924, Control_c, 0, 64, 0
2, 158984, Note_on_c, 0, 34, 83
2, 158990, Note_on_c, 0, 31, 0
2, 158990, Note_on_c, 0, 62, 68
2, 158992, Note_on_c, 0, 58, 84
2, 158996, Note_on_c, 0, 65, 76
2, 159140, Note_on_c, 0, 58, 0
2, 159148, Note_on_c, 0, 62, 0
2, 159158, Note_on_c, 0, 65, 0
2, 159362, Note_on_c, 0, 35, 68
2, 159362, Note_on_c, 0, 59, 78
2, 159362, Note_on_c, 0, 62, 71
2, 159366, Note_on_c, 0, 65, 81
2, 159374, Note_on_c, 0, 34, 0
2, 159590, Note_on_c, 0, 62, 0
2, 159600, Note_on_c, 0, 59, 0
2, 159624, Note_on_c, 0, 65, 0
2, 159644, Note_on_c, 0, 35, 0
2, 159670, Note_on_c, 0, 34, 57
2, 159752, Note_on_c, 0, 36, 64
2, 159756, Note_on_c, 0, 34, 0
2, 159756, Note_on_c, 0, 65, 84
2, 159760, Note_on_c, 0, 60, 90
2, 159890, Note_on_c, 0, 65, 0
2, 159898, Note_on_c, 0, 60, 0
2, 159960, Note_on_c, 0, 36, 0
2, 160054, Note_on_c, 0, 30, 36
2, 160144, Note_on_c, 0, 58, 83
2, 160146, Note_on_c, 0, 63, 77
2, 160150, Note_on_c, 0, 37, 71
2, 160150, Note_on_c, 0, 52, 63
2, 160184, Control_c, 0, 64, 127
2, 160208, Note_off_c, 0, 58, 0
2, 160218, Note_off_c, 0, 63, 0
2, 160224, Note_off_c, 0, 52, 0
2, 160224, Note_off_c, 0, 37, 0
2, 160238, Note_off_c, 0, 30, 0
2, 160394, Note_on_c, 0, 51, 87
2, 160396, Note_on_c, 0, 59, 70
2, 160396, Note_on_c, 0, 55, 68
2, 160398, Note_on_c, 0, 36, 76
2, 160400, Note_on_c, 0, 29, 76
2, 160400, Note_on_c, 0, 62, 76
2, 160406, Control_c, 0, 64, 0
2, 160568, Control_c, 0, 64, 127
2, 160670, Note_off_c, 0, 29, 0
2, 160670, Note_off_c, 0, 51, 0
2, 160674, Note_off_c, 0, 36, 0
2, 160692, Note_off_c, 0, 55, 0
2, 160698, Note_off_c, 0, 59, 0
2, 160702, Note_off_c, 0, 62, 0
2, 161232, Note_on_c, 0, 69, 49
2, 161278, Note_on_c, 0, 74, 63
2, 161284, Note_on_c, 0, 98, 91
2, 161288, Note_on_c, 0, 95, 88
2, 161288, Note_on_c, 0, 91, 94
2, 161290, Note_on_c, 0, 79, 76
2, 161290, Note_on_c, 0, 75, 80
2, 161296, Note_on_c, 0, 86, 90
2, 161364, Note_on_c, 0, 75, 0
2, 161370, Note_on_c, 0, 91, 0
2, 161372, Note_on_c, 0, 74, 0
2, 161372, Note_on_c, 0, 69, 0
2, 161374, Note_on_c, 0, 79, 0
2, 161380, Note_on_c, 0, 86, 0
2, 161390, Note_on_c, 0, 95, 0
2, 161392, Note_on_c, 0, 98, 0
2, 162616, Note_on_c, 0, 33, 56
2, 162664, Note_on_c, 0, 34, 55
2, 162680, Note_on_c, 0, 35, 65
2, 162682, Note_on_c, 0, 33, 0
2, 162694, Note_on_c, 0, 34, 0
2, 162694, Note_on_c, 0, 36, 64
2, 162736, Control_c, 0, 64, 0
2, 162758, Note_off_c, 0, 35, 0
2, 162788, Note_off_c, 0, 36, 0
2, 162800, Note_on_c, 0, 29, 47
2, 162956, Note_on_c, 0, 29, 0
2, 163148, End_track
0, 0, End_of_file
