0,0, Header,1,2,384,
1,0, Start_track,,,,
1,0, Text_t," ""{GNMIDI}Generated by  GNMIDI demo (http://www.gnmidi.com)\012""",,,
1,0, Time_signature,4,2,24,8
1,0, Tempo,500000,,,
1,220488, End_track,,,,
2,0, Start_track,,,,
2,0, Text_t," ""{GNMIDI}Generated by  GNMIDI demo (http://www.gnmidi.com)\012""",,,
2,0, Title_t," ""Acoustic Grand Piano""",,,
2,1152, Program_c,2,0,,
2,1152, Control_c,2,7,127,
2,2984, Note_on_c,2,74,54,
2,3072, Control_c,2,64,127,
2,3096, Note_on_c,2,77,99,
2,3096, Note_on_c,2,57,40,
2,3096, Note_on_c,2,65,49,
2,3096, Note_on_c,2,41,45,
2,3096, Note_on_c,2,51,51,
2,3096, Control_c,2,64,0,
2,3100, Note_off_c,2,74,64,
2,3174, Control_c,2,64,127,
2,3208, Note_off_c,2,77,64,
2,3220, Note_off_c,2,65,64,
2,3340, Note_on_c,2,75,84,
2,3340, Note_on_c,2,72,71,
2,3344, Note_on_c,2,67,54,
2,3434, Note_off_c,2,72,64,
2,3446, Note_off_c,2,67,64,
2,3512, Note_off_c,2,75,64,
2,3568, Note_on_c,2,65,63,
2,3568, Note_on_c,2,74,68,
2,3570, Note_on_c,2,70,74,
2,3694, Note_on_c,2,72,77,
2,3696, Note_off_c,2,65,64,
2,3696, Note_on_c,2,67,40,
2,3696, Note_on_c,2,69,66,
2,3704, Note_off_c,2,70,64,
2,3704, Note_off_c,2,74,64,
2,3726, Control_c,2,64,0,
2,3760, Note_off_c,2,67,64,
2,3762, Note_off_c,2,69,64,
2,3778, Note_off_c,2,72,64,
2,3834, Note_on_c,2,74,77,
2,3834, Note_on_c,2,67,68,
2,3836, Note_on_c,2,70,81,
2,3870, Control_c,2,64,127,
2,3928, Note_off_c,2,74,64,
2,3936, Note_off_c,2,70,64,
2,3942, Note_off_c,2,41,64,
2,3948, Note_off_c,2,67,64,
2,3948, Note_off_c,2,57,64,
2,3952, Note_off_c,2,51,64,
2,4204, Control_c,2,64,0,
2,4224, Note_on_c,2,75,74,
2,4228, Note_on_c,2,70,65,
2,4230, Note_on_c,2,42,70,
2,4232, Note_on_c,2,66,69,
2,4232, Note_on_c,2,58,59,
2,4246, Note_on_c,2,63,52,
2,4294, Control_c,2,64,127,
2,4336, Note_off_c,2,75,64,
2,4342, Note_off_c,2,58,64,
2,4342, Note_off_c,2,70,64,
2,4364, Note_off_c,2,66,64,
2,4372, Note_off_c,2,42,64,
2,4382, Note_off_c,2,63,64,
2,4548, Note_on_c,2,41,53,
2,4570, Control_c,2,64,0,
2,4572, Note_on_c,2,48,68,
2,4604, Note_on_c,2,56,56,
2,4606, Note_on_c,2,55,58,
2,4618, Note_on_c,2,63,71,
2,4636, Note_on_c,2,67,67,
2,4644, Note_on_c,2,70,89,
2,4768, Control_c,2,64,127,
2,4780, Note_off_c,2,70,64,
2,4868, Note_on_c,2,70,87,
2,4888, Note_off_c,2,67,64,
2,4940, Note_off_c,2,70,64,
2,5006, Note_on_c,2,70,90,
2,5058, Note_off_c,2,41,64,
2,5060, Note_off_c,2,48,64,
2,5062, Note_off_c,2,55,64,
2,5130, Note_off_c,2,70,64,
2,5222, Note_off_c,2,56,64,
2,5246, Note_on_c,2,70,68,
2,5260, Note_off_c,2,63,64,
2,5296, Note_off_c,2,70,64,
2,5348, Control_c,2,64,0,
2,5370, Note_on_c,2,59,67,
2,5370, Note_on_c,2,70,73,
2,5370, Note_on_c,2,61,76,
2,5372, Note_on_c,2,47,62,
2,5372, Note_on_c,2,66,76,
2,5372, Note_on_c,2,40,61,
2,5424, Note_off_c,2,47,64,
2,5426, Note_off_c,2,61,64,
2,5428, Note_off_c,2,40,64,
2,5432, Note_off_c,2,59,64,
2,5438, Note_off_c,2,66,64,
2,5442, Note_off_c,2,70,64,
2,5632, Note_on_c,2,61,78,
2,5632, Note_on_c,2,70,74,
2,5632, Note_on_c,2,66,77,
2,5634, Note_on_c,2,73,77,
2,5640, Note_on_c,2,47,59,
2,5640, Note_on_c,2,40,56,
2,5654, Control_c,2,64,127,
2,5748, Note_off_c,2,70,64,
2,5754, Note_off_c,2,73,64,
2,5768, Note_off_c,2,66,64,
2,5844, Note_off_c,2,61,64,
2,5852, Note_off_c,2,40,64,
2,5890, Note_on_c,2,70,73,
2,5896, Note_off_c,2,47,64,
2,5996, Note_off_c,2,70,64,
2,5996, Note_on_c,2,68,47,
2,6084, Note_off_c,2,68,64,
2,6112, Control_c,2,64,0,
2,6124, Note_on_c,2,70,68,
2,6128, Note_on_c,2,65,66,
2,6128, Note_on_c,2,39,58,
2,6130, Note_on_c,2,46,58,
2,6130, Note_on_c,2,60,57,
2,6206, Control_c,2,64,127,
2,6496, Note_off_c,2,60,64,
2,6560, Note_off_c,2,70,64,
2,6586, Note_off_c,2,65,64,
2,6592, Note_off_c,2,39,64,
2,6602, Note_off_c,2,46,64,
2,6640, Note_on_c,2,60,54,
2,6736, Note_on_c,2,65,53,
2,6782, Note_off_c,2,60,64,
2,6792, Note_on_c,2,67,38,
2,6828, Note_off_c,2,65,64,
2,6828, Note_on_c,2,70,88,
2,6844, Note_off_c,2,67,64,
2,6878, Control_c,2,64,0,
2,6880, Note_off_c,2,70,64,
2,6906, Note_on_c,2,38,65,
2,6908, Note_on_c,2,71,79,
2,7114, Control_c,2,64,127,
2,7118, Note_on_c,2,64,67,
2,7120, Note_on_c,2,54,60,
2,7242, Note_off_c,2,71,64,
2,7260, Note_off_c,2,64,64,
2,7300, Note_on_c,2,68,69,
2,7302, Note_on_c,2,60,57,
2,7426, Note_off_c,2,60,64,
2,7436, Note_off_c,2,54,64,
2,7440, Note_off_c,2,68,64,
2,7446, Note_off_c,2,38,64,
2,7488, Note_on_c,2,71,68,
2,7488, Note_on_c,2,64,76,
2,7550, Note_off_c,2,64,64,
2,7552, Note_off_c,2,71,64,
2,7666, Control_c,2,64,0,
2,7678, Note_on_c,2,37,61,
2,7678, Note_on_c,2,70,85,
2,7678, Note_on_c,2,44,67,
2,7680, Note_on_c,2,59,66,
2,7750, Control_c,2,64,127,
2,7784, Note_off_c,2,37,64,
2,7792, Note_off_c,2,44,64,
2,7876, Note_on_c,2,63,71,
2,7884, Note_off_c,2,70,64,
2,7952, Note_off_c,2,59,64,
2,7982, Note_off_c,2,63,64,
2,8058, Note_on_c,2,59,58,
2,8060, Note_on_c,2,65,66,
2,8060, Note_on_c,2,53,48,
2,8152, Note_off_c,2,53,64,
2,8152, Note_off_c,2,59,64,
2,8184, Note_off_c,2,65,64,
2,8254, Note_on_c,2,63,71,
2,8256, Note_on_c,2,68,61,
2,8306, Note_off_c,2,68,64,
2,8308, Note_off_c,2,63,64,
2,8384, Note_on_c,2,36,68,
2,8386, Control_c,2,64,0,
2,8426, Note_on_c,2,43,51,
2,8450, Note_on_c,2,52,75,
2,8454, Note_off_c,2,36,64,
2,8472, Note_off_c,2,43,64,
2,8474, Note_on_c,2,58,48,
2,8480, Control_c,2,64,127,
2,8488, Note_off_c,2,52,64,
2,8508, Note_on_c,2,61,75,
2,8540, Note_off_c,2,58,64,
2,8548, Note_on_c,2,64,55,
2,8586, Note_on_c,2,67,95,
2,8592, Note_off_c,2,61,64,
2,8608, Note_off_c,2,67,64,
2,8608, Note_on_c,2,69,57,
2,8614, Note_off_c,2,64,64,
2,8640, Note_off_c,2,69,64,
2,8644, Note_on_c,2,70,62,
2,8666, Note_on_c,2,73,58,
2,8692, Note_off_c,2,70,64,
2,8712, Note_on_c,2,76,63,
2,8718, Note_off_c,2,73,64,
2,8748, Note_on_c,2,81,61,
2,8766, Note_on_c,2,82,61,
2,8768, Note_off_c,2,76,64,
2,8782, Note_off_c,2,81,64,
2,8788, Note_on_c,2,85,81,
2,8804, Note_off_c,2,82,64,
2,8822, Note_on_c,2,93,79,
2,8826, Note_on_c,2,88,29,
2,8832, Note_off_c,2,85,64,
2,8848, Note_off_c,2,88,64,
2,8860, Note_off_c,2,93,64,
2,9108, Note_on_c,2,79,101,
2,9110, Note_on_c,2,67,106,
2,9144, Note_off_c,2,67,64,
2,9148, Note_off_c,2,79,64,
2,9200, Control_c,2,64,0,
2,9218, Note_on_c,2,41,60,
2,9224, Note_on_c,2,68,58,
2,9232, Note_on_c,2,56,57,
2,9248, Note_on_c,2,72,43,
2,9248, Note_on_c,2,75,71,
2,9252, Note_on_c,2,80,79,
2,9292, Note_off_c,2,41,64,
2,9304, Control_c,2,64,127,
2,9320, Note_off_c,2,56,64,
2,9328, Note_off_c,2,75,64,
2,9332, Note_off_c,2,68,64,
2,9334, Note_off_c,2,72,64,
2,9336, Note_off_c,2,80,64,
2,9492, Note_on_c,2,72,82,
2,9494, Note_on_c,2,67,84,
2,9498, Note_on_c,2,79,86,
2,9498, Note_on_c,2,75,90,
2,9580, Note_off_c,2,67,64,
2,9582, Note_off_c,2,79,64,
2,9622, Note_off_c,2,72,64,
2,9624, Note_off_c,2,75,64,
2,9624, Control_c,2,64,0,
2,9630, Note_on_c,2,60,61,
2,9632, Note_on_c,2,53,58,
2,9632, Note_on_c,2,56,61,
2,9678, Control_c,2,64,127,
2,9692, Note_off_c,2,60,64,
2,9700, Note_off_c,2,56,64,
2,9704, Note_off_c,2,53,64,
2,9736, Note_on_c,2,65,67,
2,9736, Note_on_c,2,77,56,
2,9738, Note_on_c,2,72,58,
2,9766, Note_off_c,2,77,64,
2,9770, Note_off_c,2,72,64,
2,9774, Note_off_c,2,65,64,
2,9862, Note_on_c,2,63,66,
2,9864, Note_on_c,2,75,68,
2,9890, Note_off_c,2,75,64,
2,9896, Note_off_c,2,63,64,
2,9964, Control_c,2,64,0,
2,9968, Note_on_c,2,46,61,
2,9976, Note_on_c,2,65,50,
2,9976, Note_on_c,2,56,64,
2,9992, Note_on_c,2,77,60,
2,10044, Control_c,2,64,127,
2,10092, Note_off_c,2,56,64,
2,10092, Note_off_c,2,46,64,
2,10348, Control_c,2,64,0,
2,10368, Note_on_c,2,36,68,
2,10372, Note_on_c,2,52,66,
2,10412, Control_c,2,64,127,
2,10420, Note_off_c,2,65,64,
2,10440, Note_off_c,2,77,64,
2,10452, Note_off_c,2,52,64,
2,10456, Note_off_c,2,36,64,
2,10632, Note_on_c,2,67,111,
2,10632, Note_on_c,2,79,109,
2,10666, Note_off_c,2,67,64,
2,10680, Note_off_c,2,79,64,
2,10770, Note_on_c,2,70,78,
2,10772, Control_c,2,64,0,
2,10774, Note_on_c,2,58,86,
2,10784, Note_on_c,2,73,78,
2,10790, Note_on_c,2,76,57,
2,10794, Note_on_c,2,82,84,
2,10872, Control_c,2,64,127,
2,10908, Note_off_c,2,82,64,
2,10916, Note_off_c,2,76,64,
2,10916, Note_off_c,2,73,64,
2,10934, Note_off_c,2,70,64,
2,11018, Note_on_c,2,68,77,
2,11024, Note_on_c,2,72,63,
2,11026, Note_on_c,2,75,87,
2,11030, Note_on_c,2,80,90,
2,11112, Note_off_c,2,68,64,
2,11114, Note_off_c,2,80,64,
2,11114, Note_off_c,2,72,64,
2,11118, Note_off_c,2,75,64,
2,11142, Control_c,2,64,0,
2,11144, Note_on_c,2,43,70,
2,11150, Note_on_c,2,52,68,
2,11156, Note_on_c,2,67,63,
2,11160, Note_on_c,2,72,57,
2,11164, Note_on_c,2,75,68,
2,11166, Note_on_c,2,79,82,
2,11222, Control_c,2,64,127,
2,11250, Note_off_c,2,79,64,
2,11270, Note_off_c,2,75,64,
2,11272, Note_off_c,2,43,64,
2,11276, Note_off_c,2,67,64,
2,11278, Note_off_c,2,58,64,
2,11280, Note_off_c,2,52,64,
2,11288, Note_off_c,2,72,64,
2,11384, Note_on_c,2,65,64,
2,11386, Note_on_c,2,77,64,
2,11434, Note_off_c,2,77,64,
2,11436, Note_off_c,2,65,64,
2,11496, Note_on_c,2,41,63,
2,11500, Note_on_c,2,50,62,
2,11502, Control_c,2,64,0,
2,11512, Note_on_c,2,68,63,
2,11514, Note_on_c,2,56,72,
2,11526, Note_on_c,2,72,42,
2,11530, Note_on_c,2,74,61,
2,11530, Note_on_c,2,80,79,
2,11608, Note_off_c,2,41,64,
2,11612, Control_c,2,64,127,
2,11614, Note_off_c,2,50,64,
2,11648, Note_off_c,2,56,64,
2,11854, Note_off_c,2,68,64,
2,11862, Note_off_c,2,80,64,
2,11870, Note_off_c,2,72,64,
2,11878, Note_off_c,2,74,64,
2,11894, Note_on_c,2,56,59,
2,11896, Note_on_c,2,53,53,
2,11896, Note_on_c,2,58,58,
2,11896, Note_on_c,2,62,51,
2,11946, Note_off_c,2,58,64,
2,11950, Note_off_c,2,56,64,
2,11960, Note_off_c,2,62,64,
2,11962, Note_off_c,2,53,64,
2,12154, Note_on_c,2,70,121,
2,12212, Note_off_c,2,70,64,
2,12262, Control_c,2,64,0,
2,12264, Note_on_c,2,72,74,
2,12288, Note_on_c,2,73,49,
2,12310, Note_on_c,2,46,58,
2,12312, Note_on_c,2,39,66,
2,12318, Note_off_c,2,72,64,
2,12324, Note_on_c,2,74,81,
2,12348, Note_off_c,2,73,64,
2,12350, Note_on_c,2,75,69,
2,12376, Note_off_c,2,74,64,
2,12404, Control_c,2,64,127,
2,12416, Note_off_c,2,39,64,
2,12418, Note_off_c,2,46,64,
2,12576, Note_off_c,2,75,64,
2,12684, Note_on_c,2,55,49,
2,12686, Note_on_c,2,60,60,
2,12688, Note_on_c,2,58,78,
2,12734, Note_off_c,2,58,64,
2,12734, Note_off_c,2,60,64,
2,12744, Note_off_c,2,55,64,
2,12786, Note_on_c,2,74,113,
2,12840, Note_off_c,2,74,64,
2,12880, Note_on_c,2,72,76,
2,12962, Note_on_c,2,70,87,
2,12974, Note_off_c,2,72,64,
2,13012, Note_off_c,2,70,64,
2,13012, Control_c,2,64,0,
2,13040, Note_on_c,2,70,72,
2,13044, Note_on_c,2,56,71,
2,13048, Note_on_c,2,41,58,
2,13056, Note_on_c,2,71,68,
2,13076, Note_off_c,2,70,64,
2,13076, Note_on_c,2,72,72,
2,13100, Note_off_c,2,71,64,
2,13156, Note_off_c,2,72,64,
2,13220, Note_on_c,2,71,38,
2,13248, Note_on_c,2,72,64,
2,13258, Note_off_c,2,71,64,
2,13304, Note_off_c,2,41,64,
2,13400, Note_off_c,2,56,64,
2,13418, Note_on_c,2,42,91,
2,13444, Control_c,2,64,127,
2,13594, Note_off_c,2,42,64,
2,13676, Note_off_c,2,72,64,
2,13810, Control_c,2,64,0,
2,13822, Note_on_c,2,43,61,
2,13824, Note_on_c,2,58,68,
2,13824, Note_on_c,2,62,58,
2,13824, Note_on_c,2,65,71,
2,13888, Control_c,2,64,127,
2,13904, Note_off_c,2,58,64,
2,13914, Note_off_c,2,43,64,
2,13968, Note_off_c,2,62,64,
2,14064, Note_off_c,2,65,64,
2,14088, Note_on_c,2,70,80,
2,14184, Control_c,2,64,0,
2,14214, Note_on_c,2,37,75,
2,14216, Note_on_c,2,44,75,
2,14216, Note_on_c,2,65,58,
2,14218, Note_on_c,2,63,57,
2,14254, Control_c,2,64,127,
2,14292, Note_off_c,2,70,64,
2,14296, Note_off_c,2,37,64,
2,14300, Note_off_c,2,63,64,
2,14300, Note_off_c,2,65,64,
2,14300, Note_off_c,2,44,64,
2,14460, Control_c,2,64,0,
2,14474, Note_on_c,2,72,69,
2,14476, Note_on_c,2,68,66,
2,14478, Note_on_c,2,64,66,
2,14484, Note_on_c,2,61,63,
2,14564, Control_c,2,64,127,
2,14574, Note_off_c,2,61,64,
2,14588, Note_off_c,2,64,64,
2,14598, Note_off_c,2,68,64,
2,14604, Note_off_c,2,72,64,
2,14610, Note_on_c,2,36,67,
2,14612, Note_on_c,2,52,59,
2,14652, Note_off_c,2,36,64,
2,14656, Note_off_c,2,52,64,
2,14850, Control_c,2,64,0,
2,14852, Note_on_c,2,84,68,
2,14852, Note_on_c,2,80,72,
2,14854, Note_on_c,2,76,63,
2,14856, Note_on_c,2,73,58,
2,14920, Control_c,2,64,127,
2,14980, Note_on_c,2,42,72,
2,14982, Note_on_c,2,58,62,
2,14988, Note_off_c,2,73,64,
2,14988, Note_on_c,2,52,64,
2,14998, Note_off_c,2,76,64,
2,15002, Note_off_c,2,80,64,
2,15002, Note_off_c,2,84,64,
2,15036, Note_off_c,2,58,64,
2,15038, Note_off_c,2,52,64,
2,15046, Note_off_c,2,42,64,
2,15242, Note_on_c,2,81,102,
2,15242, Note_on_c,2,86,101,
2,15244, Note_on_c,2,74,106,
2,15246, Note_on_c,2,79,90,
2,15248, Note_on_c,2,84,85,
2,15264, Note_off_c,2,79,64,
2,15276, Note_off_c,2,74,64,
2,15296, Note_off_c,2,81,64,
2,15300, Note_off_c,2,84,64,
2,15310, Note_off_c,2,86,64,
2,15374, Control_c,2,64,0,
2,15390, Note_on_c,2,41,63,
2,15392, Note_on_c,2,51,68,
2,15392, Note_on_c,2,83,70,
2,15392, Note_on_c,2,89,88,
2,15394, Note_on_c,2,57,62,
2,15398, Note_on_c,2,77,61,
2,15468, Control_c,2,64,127,
2,15482, Note_off_c,2,41,64,
2,15486, Note_off_c,2,89,64,
2,15488, Note_off_c,2,77,64,
2,15490, Note_off_c,2,83,64,
2,15490, Note_off_c,2,51,64,
2,15508, Note_off_c,2,57,64,
2,15628, Note_on_c,2,87,98,
2,15628, Note_on_c,2,83,70,
2,15628, Note_on_c,2,75,95,
2,15684, Note_off_c,2,75,64,
2,15692, Note_off_c,2,87,64,
2,15698, Note_off_c,2,83,64,
2,15744, Control_c,2,64,0,
2,15758, Note_on_c,2,73,58,
2,15760, Note_on_c,2,60,48,
2,15762, Note_on_c,2,55,52,
2,15764, Note_on_c,2,79,49,
2,15764, Note_on_c,2,58,74,
2,15780, Note_on_c,2,86,56,
2,15800, Note_off_c,2,73,64,
2,15800, Note_on_c,2,74,69,
2,15844, Note_off_c,2,55,64,
2,15846, Control_c,2,64,127,
2,15848, Note_off_c,2,60,64,
2,15854, Note_off_c,2,58,64,
2,15884, Note_off_c,2,86,64,
2,15898, Note_off_c,2,74,64,
2,15904, Note_off_c,2,79,64,
2,15998, Note_on_c,2,72,57,
2,16002, Note_on_c,2,84,52,
2,16002, Note_on_c,2,79,54,
2,16046, Note_off_c,2,72,64,
2,16056, Note_off_c,2,84,64,
2,16058, Note_off_c,2,79,64,
2,16112, Control_c,2,64,0,
2,16128, Note_on_c,2,58,67,
2,16128, Note_on_c,2,86,72,
2,16128, Note_on_c,2,79,64,
2,16128, Note_on_c,2,48,63,
2,16130, Note_on_c,2,74,60,
2,16188, Control_c,2,64,127,
2,16192, Note_off_c,2,79,64,
2,16208, Note_off_c,2,74,64,
2,16212, Note_off_c,2,48,64,
2,16212, Note_off_c,2,86,64,
2,16224, Note_off_c,2,58,64,
2,16374, Note_on_c,2,75,33,
2,16388, Note_on_c,2,78,56,
2,16394, Note_on_c,2,82,56,
2,16400, Note_on_c,2,87,68,
2,16404, Control_c,2,64,0,
2,16498, Control_c,2,64,127,
2,16516, Note_off_c,2,87,64,
2,16518, Note_on_c,2,42,62,
2,16524, Note_off_c,2,82,64,
2,16524, Note_on_c,2,58,46,
2,16532, Note_off_c,2,78,64,
2,16532, Note_on_c,2,52,59,
2,16544, Note_off_c,2,75,64,
2,16590, Note_off_c,2,52,64,
2,16590, Note_off_c,2,58,64,
2,16606, Note_off_c,2,42,64,
2,16752, Note_on_c,2,70,42,
2,16772, Note_on_c,2,75,56,
2,16786, Note_on_c,2,79,39,
2,16792, Note_on_c,2,82,67,
2,16794, Control_c,2,64,0,
2,16896, Control_c,2,64,127,
2,16906, Note_on_c,2,41,55,
2,16912, Note_on_c,2,56,54,
2,16916, Note_on_c,2,48,62,
2,16964, Note_off_c,2,48,64,
2,16972, Note_off_c,2,56,64,
2,16974, Note_off_c,2,41,64,
2,17266, Control_c,2,64,0,
2,17276, Note_on_c,2,47,59,
2,17276, Note_on_c,2,57,57,
2,17276, Note_on_c,2,51,64,
2,17322, Note_off_c,2,75,64,
2,17326, Note_off_c,2,79,64,
2,17328, Note_off_c,2,82,64,
2,17340, Control_c,2,64,127,
2,17350, Note_off_c,2,70,64,
2,17380, Note_off_c,2,47,64,
2,17384, Note_off_c,2,51,64,
2,17400, Note_off_c,2,57,64,
2,17666, Control_c,2,64,0,
2,17678, Note_on_c,2,56,63,
2,17680, Note_on_c,2,46,72,
2,17680, Note_on_c,2,67,107,
2,17684, Note_on_c,2,63,66,
2,17760, Control_c,2,64,127,
2,17782, Note_off_c,2,46,64,
2,17804, Note_off_c,2,56,64,
2,17852, Note_off_c,2,67,64,
2,17928, Note_on_c,2,68,99,
2,17972, Control_c,2,64,0,
2,17992, Note_off_c,2,63,64,
2,18058, Note_on_c,2,56,61,
2,18060, Note_on_c,2,62,54,
2,18062, Note_on_c,2,69,77,
2,18064, Note_off_c,2,68,64,
2,18104, Control_c,2,64,127,
2,18136, Note_off_c,2,62,64,
2,18140, Note_off_c,2,69,64,
2,18152, Note_off_c,2,56,64,
2,18296, Note_on_c,2,70,72,
2,18298, Note_on_c,2,65,57,
2,18316, Control_c,2,64,0,
2,18428, Note_on_c,2,43,46,
2,18428, Note_on_c,2,58,62,
2,18430, Control_c,2,64,127,
2,18448, Note_off_c,2,65,64,
2,18466, Note_off_c,2,70,64,
2,18510, Note_off_c,2,43,64,
2,18522, Note_off_c,2,58,64,
2,18812, Note_on_c,2,55,46,
2,18812, Note_on_c,2,65,47,
2,18812, Note_on_c,2,58,65,
2,18812, Note_on_c,2,61,55,
2,18820, Control_c,2,64,0,
2,18872, Note_off_c,2,61,64,
2,18872, Note_off_c,2,58,64,
2,18878, Note_off_c,2,65,64,
2,18884, Note_off_c,2,55,64,
2,19076, Note_on_c,2,85,88,
2,19078, Note_on_c,2,82,84,
2,19084, Note_on_c,2,77,77,
2,19090, Note_on_c,2,73,81,
2,19168, Note_off_c,2,85,64,
2,19178, Note_off_c,2,82,64,
2,19184, Control_c,2,64,127,
2,19190, Note_off_c,2,77,64,
2,19206, Note_off_c,2,73,64,
2,19210, Note_on_c,2,37,78,
2,19248, Note_off_c,2,37,64,
2,19442, Note_on_c,2,70,94,
2,19444, Note_on_c,2,63,101,
2,19446, Note_on_c,2,59,84,
2,19466, Control_c,2,64,0,
2,19550, Control_c,2,64,127,
2,19586, Note_on_c,2,53,59,
2,19586, Note_on_c,2,49,76,
2,19594, Note_off_c,2,59,64,
2,19604, Note_off_c,2,63,64,
2,19620, Note_off_c,2,70,64,
2,19640, Note_off_c,2,53,64,
2,19642, Note_off_c,2,49,64,
2,19824, Note_on_c,2,82,74,
2,19832, Control_c,2,64,0,
2,19832, Note_on_c,2,78,83,
2,19838, Note_on_c,2,73,78,
2,19856, Note_on_c,2,70,61,
2,19914, Control_c,2,64,127,
2,19942, Note_off_c,2,70,64,
2,19966, Note_off_c,2,73,64,
2,19972, Note_on_c,2,52,62,
2,19974, Note_off_c,2,78,64,
2,19974, Note_on_c,2,36,60,
2,19984, Note_off_c,2,82,64,
2,20024, Note_off_c,2,36,64,
2,20026, Note_off_c,2,52,64,
2,20344, Control_c,2,64,0,
2,20348, Note_on_c,2,58,56,
2,20352, Note_on_c,2,94,101,
2,20354, Note_on_c,2,48,55,
2,20356, Note_on_c,2,52,57,
2,20414, Note_off_c,2,94,64,
2,20446, Note_on_c,2,92,81,
2,20462, Control_c,2,64,127,
2,20496, Note_off_c,2,48,64,
2,20500, Note_off_c,2,92,64,
2,20510, Note_off_c,2,52,64,
2,20532, Note_on_c,2,90,90,
2,20536, Note_off_c,2,58,64,
2,20572, Note_off_c,2,90,64,
2,20622, Note_on_c,2,90,88,
2,20674, Note_on_c,2,87,88,
2,20688, Note_off_c,2,90,64,
2,20720, Note_on_c,2,85,86,
2,20728, Control_c,2,64,0,
2,20734, Note_off_c,2,87,64,
2,20740, Note_on_c,2,58,74,
2,20740, Note_on_c,2,61,59,
2,20742, Note_on_c,2,52,60,
2,20762, Note_off_c,2,85,64,
2,20808, Note_on_c,2,82,75,
2,20832, Note_off_c,2,82,64,
2,20868, Note_on_c,2,80,69,
2,20896, Note_off_c,2,80,64,
2,20906, Note_on_c,2,78,80,
2,20938, Note_off_c,2,78,64,
2,20956, Note_on_c,2,75,81,
2,21004, Note_off_c,2,75,64,
2,21004, Note_on_c,2,73,72,
2,21036, Note_off_c,2,73,64,
2,21060, Note_on_c,2,70,69,
2,21090, Note_off_c,2,70,64,
2,21104, Note_on_c,2,56,67,
2,21106, Note_on_c,2,68,75,
2,21146, Note_off_c,2,68,64,
2,21158, Note_on_c,2,66,71,
2,21168, Control_c,2,64,127,
2,21176, Note_off_c,2,66,64,
2,21180, Note_off_c,2,61,64,
2,21184, Note_off_c,2,52,64,
2,21190, Note_off_c,2,58,64,
2,21202, Note_off_c,2,56,64,
2,21210, Note_on_c,2,63,61,
2,21256, Note_off_c,2,63,64,
2,21256, Note_on_c,2,61,72,
2,21296, Note_on_c,2,58,79,
2,21302, Note_off_c,2,61,64,
2,21336, Note_off_c,2,58,64,
2,21358, Note_on_c,2,56,68,
2,21406, Note_on_c,2,55,65,
2,21414, Note_off_c,2,56,64,
2,21452, Control_c,2,64,0,
2,21458, Note_off_c,2,55,64,
2,21466, Note_on_c,2,54,67,
2,21492, Note_on_c,2,41,54,
2,21496, Note_on_c,2,51,66,
2,21510, Note_on_c,2,53,67,
2,21518, Note_off_c,2,54,64,
2,21590, Note_off_c,2,53,64,
2,21592, Control_c,2,64,127,
2,21622, Note_off_c,2,41,64,
2,21638, Note_off_c,2,51,64,
2,21856, Note_on_c,2,68,72,
2,21866, Note_on_c,2,56,49,
2,21872, Control_c,2,64,0,
2,21878, Note_on_c,2,60,49,
2,21888, Note_on_c,2,63,82,
2,21888, Note_on_c,2,72,73,
2,21894, Note_on_c,2,65,83,
2,21896, Note_on_c,2,75,94,
2,21904, Note_on_c,2,80,104,
2,21940, Control_c,2,64,127,
2,21956, Note_off_c,2,65,64,
2,21958, Note_off_c,2,63,64,
2,21962, Note_off_c,2,60,64,
2,21980, Note_off_c,2,56,64,
2,21982, Note_off_c,2,80,64,
2,21984, Note_off_c,2,75,64,
2,21986, Note_off_c,2,72,64,
2,21986, Note_off_c,2,68,64,
2,22018, Note_on_c,2,67,72,
2,22022, Note_on_c,2,72,64,
2,22024, Note_on_c,2,75,87,
2,22030, Note_on_c,2,79,91,
2,22094, Note_off_c,2,79,64,
2,22100, Note_off_c,2,67,64,
2,22104, Note_off_c,2,72,64,
2,22108, Note_off_c,2,75,64,
2,22136, Note_on_c,2,72,74,
2,22138, Note_on_c,2,65,83,
2,22142, Note_on_c,2,77,82,
2,22210, Note_off_c,2,65,64,
2,22212, Note_off_c,2,77,64,
2,22232, Note_off_c,2,72,64,
2,22252, Control_c,2,64,0,
2,22254, Note_on_c,2,72,72,
2,22256, Note_on_c,2,67,67,
2,22256, Note_on_c,2,56,83,
2,22258, Note_on_c,2,46,87,
2,22262, Note_on_c,2,79,80,
2,22336, Control_c,2,64,127,
2,22346, Note_off_c,2,79,64,
2,22356, Note_off_c,2,46,64,
2,22356, Note_off_c,2,67,64,
2,22376, Note_off_c,2,56,64,
2,22378, Note_off_c,2,72,64,
2,22508, Note_on_c,2,68,54,
2,22520, Note_on_c,2,72,72,
2,22524, Control_c,2,64,0,
2,22526, Note_on_c,2,74,84,
2,22532, Note_on_c,2,80,90,
2,22592, Control_c,2,64,127,
2,22664, Note_on_c,2,56,77,
2,22668, Note_on_c,2,62,69,
2,22670, Note_off_c,2,74,64,
2,22670, Note_on_c,2,65,72,
2,22680, Note_off_c,2,80,64,
2,22680, Note_off_c,2,72,64,
2,22682, Note_off_c,2,68,64,
2,22718, Note_off_c,2,65,64,
2,22718, Note_off_c,2,62,64,
2,22732, Note_off_c,2,56,64,
2,22912, Note_on_c,2,81,86,
2,22914, Note_on_c,2,73,101,
2,22916, Note_on_c,2,76,91,
2,22916, Note_on_c,2,69,92,
2,22970, Note_off_c,2,69,64,
2,22972, Note_off_c,2,81,64,
2,22982, Note_off_c,2,73,64,
2,22990, Note_off_c,2,76,64,
2,23012, Note_on_c,2,43,71,
2,23036, Control_c,2,64,0,
2,23046, Note_on_c,2,52,71,
2,23050, Note_on_c,2,70,72,
2,23058, Note_on_c,2,58,83,
2,23062, Note_on_c,2,73,83,
2,23066, Note_on_c,2,76,80,
2,23072, Note_on_c,2,82,101,
2,23114, Control_c,2,64,127,
2,23128, Note_off_c,2,73,64,
2,23132, Note_off_c,2,70,64,
2,23134, Note_off_c,2,43,64,
2,23138, Note_off_c,2,76,64,
2,23146, Note_off_c,2,52,64,
2,23150, Note_off_c,2,82,64,
2,23166, Note_off_c,2,58,64,
2,23310, Note_on_c,2,76,88,
2,23312, Note_on_c,2,84,91,
2,23312, Note_on_c,2,80,94,
2,23312, Note_on_c,2,72,93,
2,23366, Note_off_c,2,72,64,
2,23376, Note_off_c,2,84,64,
2,23384, Note_off_c,2,80,64,
2,23384, Note_off_c,2,76,64,
2,23434, Note_on_c,2,55,68,
2,23434, Note_on_c,2,61,78,
2,23436, Note_on_c,2,64,71,
2,23438, Note_on_c,2,58,87,
2,23440, Note_on_c,2,73,88,
2,23440, Note_on_c,2,80,83,
2,23442, Note_on_c,2,85,99,
2,23442, Note_on_c,2,76,73,
2,23504, Note_off_c,2,61,64,
2,23508, Note_off_c,2,64,64,
2,23510, Note_off_c,2,58,64,
2,23524, Note_off_c,2,55,64,
2,23532, Note_off_c,2,85,64,
2,23534, Note_off_c,2,76,64,
2,23536, Note_off_c,2,73,64,
2,23544, Note_off_c,2,80,64,
2,23676, Note_on_c,2,72,100,
2,23678, Note_on_c,2,77,101,
2,23680, Note_on_c,2,80,101,
2,23680, Note_on_c,2,84,99,
2,23732, Note_off_c,2,72,64,
2,23746, Control_c,2,64,0,
2,23764, Note_off_c,2,80,64,
2,23772, Note_off_c,2,84,64,
2,23774, Note_on_c,2,72,55,
2,23804, Note_on_c,2,41,63,
2,23806, Note_on_c,2,56,62,
2,23806, Note_on_c,2,80,69,
2,23808, Note_on_c,2,84,31,
2,23808, Note_on_c,2,50,68,
2,23812, Note_off_c,2,72,64,
2,23840, Note_off_c,2,80,64,
2,23844, Note_off_c,2,84,64,
2,23846, Note_on_c,2,72,56,
2,23860, Control_c,2,64,127,
2,23886, Note_off_c,2,72,64,
2,23886, Note_on_c,2,80,64,
2,23896, Note_on_c,2,84,31,
2,23898, Note_off_c,2,50,64,
2,23900, Note_off_c,2,41,64,
2,23916, Note_off_c,2,80,64,
2,23922, Note_off_c,2,84,64,
2,23928, Note_off_c,2,56,64,
2,23928, Note_on_c,2,72,54,
2,23962, Note_off_c,2,72,64,
2,23962, Note_on_c,2,80,66,
2,23978, Note_on_c,2,84,26,
2,23990, Note_off_c,2,80,64,
2,24000, Note_off_c,2,84,64,
2,24006, Note_on_c,2,72,51,
2,24034, Note_off_c,2,72,64,
2,24042, Note_on_c,2,80,64,
2,24064, Note_off_c,2,80,64,
2,24080, Note_on_c,2,72,55,
2,24114, Note_off_c,2,72,64,
2,24114, Note_on_c,2,80,73,
2,24122, Note_on_c,2,84,44,
2,24152, Note_on_c,2,72,43,
2,24182, Note_off_c,2,84,64,
2,24188, Note_on_c,2,58,74,
2,24188, Note_on_c,2,62,58,
2,24188, Note_on_c,2,56,73,
2,24188, Note_on_c,2,53,61,
2,24190, Note_off_c,2,80,64,
2,24196, Note_off_c,2,72,64,
2,24196, Note_off_c,2,77,64,
2,24256, Note_off_c,2,58,64,
2,24268, Note_off_c,2,56,64,
2,24270, Note_off_c,2,62,64,
2,24280, Note_off_c,2,53,64,
2,24420, Note_on_c,2,70,114,
2,24476, Note_off_c,2,70,64,
2,24516, Note_on_c,2,72,68,
2,24554, Note_on_c,2,73,83,
2,24564, Control_c,2,64,0,
2,24578, Note_on_c,2,74,77,
2,24584, Note_off_c,2,72,64,
2,24604, Note_on_c,2,46,71,
2,24606, Note_on_c,2,39,75,
2,24614, Note_on_c,2,75,101,
2,24620, Note_off_c,2,73,64,
2,24644, Note_off_c,2,74,64,
2,24678, Control_c,2,64,127,
2,24704, Note_off_c,2,39,64,
2,24708, Note_off_c,2,46,64,
2,24750, Note_off_c,2,75,64,
2,24954, Control_c,2,64,0,
2,24978, Note_on_c,2,55,61,
2,24980, Note_on_c,2,60,69,
2,24980, Note_on_c,2,65,103,
2,24980, Note_on_c,2,74,99,
2,24980, Note_on_c,2,58,85,
2,24980, Note_on_c,2,70,106,
2,25032, Control_c,2,64,127,
2,25060, Note_off_c,2,65,64,
2,25064, Note_off_c,2,74,64,
2,25064, Note_off_c,2,60,64,
2,25072, Note_off_c,2,70,64,
2,25072, Note_off_c,2,58,64,
2,25080, Note_off_c,2,55,64,
2,25120, Note_on_c,2,72,85,
2,25224, Note_on_c,2,70,96,
2,25236, Note_off_c,2,72,64,
2,25290, Note_off_c,2,70,64,
2,25314, Control_c,2,64,0,
2,25328, Note_on_c,2,72,78,
2,25332, Note_on_c,2,67,75,
2,25332, Note_on_c,2,68,83,
2,25332, Note_on_c,2,56,78,
2,25334, Note_on_c,2,41,72,
2,25408, Control_c,2,64,127,
2,25446, Note_off_c,2,72,64,
2,25450, Note_off_c,2,68,64,
2,25452, Note_off_c,2,41,64,
2,25456, Note_off_c,2,67,64,
2,25476, Note_off_c,2,56,64,
2,25590, Control_c,2,64,0,
2,25592, Note_on_c,2,80,86,
2,25602, Note_on_c,2,75,84,
2,25604, Note_on_c,2,72,69,
2,25614, Note_on_c,2,68,81,
2,25664, Control_c,2,64,127,
2,25732, Note_on_c,2,60,64,
2,25732, Note_on_c,2,53,62,
2,25734, Note_on_c,2,56,74,
2,25742, Note_off_c,2,80,64,
2,25768, Note_off_c,2,68,64,
2,25772, Note_off_c,2,75,64,
2,25776, Note_off_c,2,72,64,
2,25788, Note_off_c,2,60,64,
2,25800, Note_off_c,2,56,64,
2,25804, Note_off_c,2,53,64,
2,26000, Note_on_c,2,78,106,
2,26080, Note_off_c,2,78,64,
2,26108, Control_c,2,64,0,
2,26128, Note_on_c,2,57,64,
2,26128, Note_on_c,2,42,75,
2,26130, Note_on_c,2,81,68,
2,26130, Note_on_c,2,75,63,
2,26130, Note_on_c,2,69,58,
2,26132, Note_on_c,2,72,65,
2,26186, Control_c,2,64,127,
2,26196, Note_off_c,2,72,64,
2,26198, Note_off_c,2,69,64,
2,26202, Note_off_c,2,75,64,
2,26208, Note_off_c,2,42,64,
2,26210, Note_off_c,2,81,64,
2,26228, Note_off_c,2,57,64,
2,26384, Note_on_c,2,70,88,
2,26384, Note_on_c,2,82,93,
2,26420, Note_off_c,2,70,64,
2,26430, Note_off_c,2,82,64,
2,26504, Note_on_c,2,60,57,
2,26506, Note_on_c,2,54,70,
2,26508, Note_on_c,2,57,67,
2,26512, Note_on_c,2,84,79,
2,26516, Note_on_c,2,72,69,
2,26574, Note_off_c,2,72,64,
2,26576, Note_off_c,2,84,64,
2,26578, Note_off_c,2,60,64,
2,26590, Note_off_c,2,57,64,
2,26600, Note_off_c,2,54,64,
2,26738, Control_c,2,64,0,
2,26752, Note_on_c,2,82,78,
2,26752, Note_on_c,2,73,81,
2,26758, Note_on_c,2,79,57,
2,26762, Note_on_c,2,86,73,
2,26772, Note_on_c,2,74,86,
2,26778, Note_off_c,2,73,64,
2,26836, Note_off_c,2,79,64,
2,26860, Note_off_c,2,74,64,
2,26868, Note_off_c,2,86,64,
2,26868, Note_off_c,2,82,64,
2,26888, Note_on_c,2,43,67,
2,26888, Note_on_c,2,58,75,
2,26906, Control_c,2,64,127,
2,26964, Note_off_c,2,43,64,
2,26972, Note_off_c,2,58,64,
2,27132, Note_on_c,2,42,101,
2,27172, Control_c,2,64,0,
2,27264, Note_on_c,2,58,89,
2,27270, Note_on_c,2,52,76,
2,27276, Control_c,2,64,127,
2,27348, Note_off_c,2,52,64,
2,27354, Note_off_c,2,58,64,
2,27378, Note_off_c,2,42,64,
2,27524, Note_on_c,2,86,121,
2,27608, Control_c,2,64,0,
2,27630, Note_off_c,2,86,64,
2,27648, Note_on_c,2,41,64,
2,27650, Note_on_c,2,57,61,
2,27650, Note_on_c,2,51,70,
2,27660, Note_on_c,2,89,90,
2,27660, Note_on_c,2,77,76,
2,27702, Note_off_c,2,89,64,
2,27706, Control_c,2,64,127,
2,27710, Note_off_c,2,77,64,
2,27718, Note_off_c,2,57,64,
2,27720, Note_off_c,2,51,64,
2,27720, Note_off_c,2,41,64,
2,27904, Note_on_c,2,87,106,
2,27906, Note_on_c,2,75,104,
2,27908, Note_on_c,2,82,97,
2,27960, Note_off_c,2,75,64,
2,27964, Note_off_c,2,82,64,
2,27974, Note_off_c,2,87,64,
2,28000, Control_c,2,64,0,
2,28036, Note_on_c,2,51,66,
2,28036, Note_on_c,2,43,54,
2,28036, Note_on_c,2,58,64,
2,28036, Note_on_c,2,85,77,
2,28044, Note_on_c,2,74,71,
2,28070, Note_on_c,2,86,49,
2,28072, Note_off_c,2,85,64,
2,28134, Note_off_c,2,86,64,
2,28144, Control_c,2,64,127,
2,28146, Note_off_c,2,74,64,
2,28196, Note_off_c,2,58,64,
2,28208, Note_off_c,2,43,64,
2,28228, Note_off_c,2,51,64,
2,28288, Note_on_c,2,84,77,
2,28290, Note_on_c,2,72,71,
2,28324, Note_off_c,2,72,64,
2,28340, Note_off_c,2,84,64,
2,28410, Control_c,2,64,0,
2,28424, Note_on_c,2,57,62,
2,28426, Note_on_c,2,41,53,
2,28428, Note_on_c,2,51,59,
2,28430, Note_on_c,2,86,79,
2,28432, Note_on_c,2,74,70,
2,28484, Control_c,2,64,127,
2,28486, Note_off_c,2,74,64,
2,28488, Note_off_c,2,86,64,
2,28508, Note_off_c,2,41,64,
2,28512, Note_off_c,2,57,64,
2,28514, Note_off_c,2,51,64,
2,28652, Control_c,2,64,0,
2,28662, Note_on_c,2,75,66,
2,28672, Note_on_c,2,80,65,
2,28676, Note_on_c,2,82,70,
2,28684, Note_on_c,2,87,84,
2,28768, Note_off_c,2,87,64,
2,28782, Note_off_c,2,82,64,
2,28784, Note_off_c,2,80,64,
2,28798, Note_off_c,2,75,64,
2,28798, Note_on_c,2,42,74,
2,28804, Note_on_c,2,58,47,
2,28808, Note_on_c,2,52,61,
2,28814, Control_c,2,64,127,
2,28888, Note_off_c,2,52,64,
2,28888, Note_off_c,2,58,64,
2,28900, Note_off_c,2,42,64,
2,29052, Note_on_c,2,79,84,
2,29154, Control_c,2,64,0,
2,29162, Note_off_c,2,79,64,
2,29180, Note_on_c,2,82,79,
2,29182, Note_on_c,2,56,60,
2,29182, Note_on_c,2,70,68,
2,29184, Note_on_c,2,41,60,
2,29186, Note_on_c,2,75,69,
2,29244, Control_c,2,64,127,
2,29264, Note_off_c,2,70,64,
2,29284, Note_off_c,2,75,64,
2,29298, Note_off_c,2,82,64,
2,29404, Note_off_c,2,56,64,
2,29428, Note_on_c,2,79,69,
2,29550, Control_c,2,64,0,
2,29564, Note_off_c,2,79,64,
2,29570, Note_on_c,2,48,79,
2,29576, Note_on_c,2,75,97,
2,29624, Control_c,2,64,127,
2,29662, Note_off_c,2,41,64,
2,29670, Note_off_c,2,48,64,
2,29672, Note_off_c,2,75,64,
2,29828, Note_on_c,2,73,95,
2,29888, Note_off_c,2,73,64,
2,29928, Control_c,2,64,0,
2,29950, Note_on_c,2,56,66,
2,29952, Note_on_c,2,46,71,
2,29956, Note_on_c,2,71,62,
2,29956, Note_on_c,2,74,73,
2,30012, Control_c,2,64,127,
2,30040, Note_off_c,2,46,64,
2,30054, Note_off_c,2,56,64,
2,30072, Note_off_c,2,71,64,
2,30082, Note_off_c,2,74,64,
2,30210, Note_on_c,2,82,106,
2,30286, Note_off_c,2,82,64,
2,30314, Control_c,2,64,0,
2,30334, Note_on_c,2,56,72,
2,30334, Note_on_c,2,62,72,
2,30344, Note_on_c,2,78,88,
2,30372, Control_c,2,64,127,
2,30402, Note_off_c,2,62,64,
2,30422, Note_off_c,2,56,64,
2,30458, Note_off_c,2,78,64,
2,30468, Note_on_c,2,79,47,
2,30550, Note_off_c,2,79,64,
2,30592, Note_on_c,2,75,98,
2,30624, Control_c,2,64,0,
2,30718, Note_on_c,2,46,72,
2,30718, Note_on_c,2,39,77,
2,30742, Control_c,2,64,127,
2,30752, Note_off_c,2,75,64,
2,30774, Note_off_c,2,39,64,
2,30778, Note_off_c,2,46,64,
2,30918, Note_on_c,2,75,49,
2,30944, Note_off_c,2,75,64,
2,30944, Note_on_c,2,77,48,
2,30976, Note_on_c,2,75,64,
2,30992, Note_off_c,2,77,64,
2,31004, Control_c,2,64,0,
2,31006, Note_on_c,2,72,64,
2,31016, Note_off_c,2,75,64,
2,31056, Note_on_c,2,75,70,
2,31058, Note_off_c,2,72,64,
2,31084, Note_on_c,2,77,65,
2,31090, Note_off_c,2,75,64,
2,31116, Note_on_c,2,75,67,
2,31124, Note_on_c,2,60,51,
2,31124, Note_on_c,2,58,66,
2,31140, Note_off_c,2,77,64,
2,31152, Note_on_c,2,72,61,
2,31158, Note_off_c,2,75,64,
2,31196, Note_off_c,2,72,64,
2,31212, Note_on_c,2,75,58,
2,31238, Note_on_c,2,77,68,
2,31240, Note_off_c,2,75,64,
2,31270, Note_off_c,2,60,64,
2,31270, Control_c,2,64,127,
2,31276, Note_on_c,2,75,49,
2,31278, Note_off_c,2,58,64,
2,31292, Note_off_c,2,77,64,
2,31312, Note_off_c,2,75,64,
2,31312, Note_on_c,2,72,66,
2,31352, Note_off_c,2,72,64,
2,31354, Control_c,2,64,0,
2,31364, Note_on_c,2,75,62,
2,31388, Note_on_c,2,77,63,
2,31390, Note_off_c,2,75,64,
2,31424, Note_on_c,2,75,52,
2,31444, Note_off_c,2,77,64,
2,31462, Note_on_c,2,72,64,
2,31466, Note_off_c,2,75,64,
2,31486, Note_on_c,2,57,51,
2,31488, Note_on_c,2,47,47,
2,31516, Note_off_c,2,72,64,
2,31526, Note_on_c,2,75,45,
2,31554, Note_on_c,2,77,67,
2,31556, Note_off_c,2,75,64,
2,31602, Note_on_c,2,75,59,
2,31610, Note_off_c,2,77,64,
2,31610, Control_c,2,64,127,
2,31630, Note_off_c,2,47,64,
2,31640, Note_off_c,2,75,64,
2,31640, Note_on_c,2,72,58,
2,31652, Note_off_c,2,57,64,
2,31672, Note_off_c,2,72,64,
2,31692, Note_on_c,2,75,60,
2,31722, Note_on_c,2,77,63,
2,31726, Note_off_c,2,75,64,
2,31756, Note_on_c,2,75,53,
2,31764, Control_c,2,64,0,
2,31780, Note_off_c,2,77,64,
2,31792, Note_on_c,2,72,69,
2,31802, Note_off_c,2,75,64,
2,31838, Note_off_c,2,72,64,
2,31846, Note_on_c,2,66,66,
2,31850, Note_on_c,2,61,71,
2,31852, Note_on_c,2,57,46,
2,31854, Note_on_c,2,62,65,
2,31854, Note_on_c,2,75,64,
2,31876, Note_on_c,2,77,69,
2,31882, Note_off_c,2,75,64,
2,31922, Note_on_c,2,75,61,
2,31936, Note_off_c,2,77,64,
2,31960, Note_on_c,2,72,65,
2,31964, Note_off_c,2,75,64,
2,32000, Note_off_c,2,66,64,
2,32000, Control_c,2,64,127,
2,32004, Note_off_c,2,72,64,
2,32010, Note_off_c,2,57,64,
2,32012, Note_off_c,2,62,64,
2,32014, Note_on_c,2,75,69,
2,32024, Note_off_c,2,61,64,
2,32044, Note_on_c,2,77,71,
2,32050, Note_off_c,2,75,64,
2,32086, Note_on_c,2,75,59,
2,32104, Note_off_c,2,77,64,
2,32124, Note_on_c,2,72,65,
2,32126, Note_off_c,2,75,64,
2,32152, Control_c,2,64,0,
2,32168, Note_off_c,2,72,64,
2,32168, Note_on_c,2,75,69,
2,32198, Note_on_c,2,77,69,
2,32202, Note_off_c,2,75,64,
2,32230, Note_on_c,2,75,58,
2,32252, Note_on_c,2,56,70,
2,32252, Note_on_c,2,46,75,
2,32260, Note_off_c,2,77,64,
2,32266, Note_on_c,2,72,77,
2,32274, Note_off_c,2,75,64,
2,32310, Note_off_c,2,72,64,
2,32330, Note_on_c,2,75,67,
2,32360, Note_on_c,2,77,71,
2,32364, Note_off_c,2,75,64,
2,32376, Control_c,2,64,127,
2,32392, Note_off_c,2,46,64,
2,32394, Note_on_c,2,75,63,
2,32412, Note_off_c,2,77,64,
2,32412, Note_off_c,2,56,64,
2,32440, Note_off_c,2,75,64,
2,32440, Note_on_c,2,72,68,
2,32486, Note_off_c,2,72,64,
2,32488, Note_on_c,2,75,64,
2,32520, Note_off_c,2,75,64,
2,32520, Note_on_c,2,77,77,
2,32552, Control_c,2,64,0,
2,32560, Note_on_c,2,75,63,
2,32576, Note_off_c,2,77,64,
2,32594, Note_on_c,2,72,73,
2,32606, Note_off_c,2,75,64,
2,32620, Note_on_c,2,56,66,
2,32622, Note_on_c,2,60,60,
2,32622, Note_on_c,2,61,61,
2,32622, Note_on_c,2,65,63,
2,32638, Note_off_c,2,72,64,
2,32672, Note_on_c,2,75,74,
2,32704, Note_off_c,2,75,64,
2,32706, Note_on_c,2,77,73,
2,32746, Note_on_c,2,75,68,
2,32764, Note_off_c,2,77,64,
2,32764, Control_c,2,64,127,
2,32766, Note_off_c,2,65,64,
2,32770, Note_off_c,2,60,64,
2,32776, Note_off_c,2,61,64,
2,32780, Note_on_c,2,72,74,
2,32790, Note_off_c,2,75,64,
2,32790, Note_off_c,2,56,64,
2,32828, Note_off_c,2,72,64,
2,32838, Note_on_c,2,75,79,
2,32864, Note_on_c,2,77,72,
2,32868, Note_off_c,2,75,64,
2,32902, Note_on_c,2,75,64,
2,32922, Note_off_c,2,77,64,
2,32932, Note_on_c,2,72,71,
2,32942, Note_off_c,2,75,64,
2,32942, Control_c,2,64,0,
2,32978, Note_on_c,2,75,77,
2,32984, Note_off_c,2,72,64,
2,33012, Note_on_c,2,77,71,
2,33016, Note_off_c,2,75,64,
2,33046, Note_on_c,2,75,58,
2,33054, Note_on_c,2,46,75,
2,33056, Note_on_c,2,39,76,
2,33072, Note_on_c,2,72,74,
2,33076, Note_off_c,2,77,64,
2,33090, Note_off_c,2,75,64,
2,33118, Note_off_c,2,72,64,
2,33154, Note_on_c,2,76,65,
2,33176, Note_on_c,2,78,73,
2,33188, Note_off_c,2,76,64,
2,33218, Note_off_c,2,39,64,
2,33218, Note_on_c,2,76,33,
2,33218, Control_c,2,64,127,
2,33228, Note_off_c,2,46,64,
2,33234, Note_off_c,2,78,64,
2,33252, Note_on_c,2,73,77,
2,33268, Note_off_c,2,76,64,
2,33290, Note_off_c,2,73,64,
2,33306, Note_on_c,2,76,53,
2,33328, Note_on_c,2,78,82,
2,33344, Note_off_c,2,76,64,
2,33376, Control_c,2,64,0,
2,33376, Note_on_c,2,76,64,
2,33390, Note_off_c,2,78,64,
2,33408, Note_on_c,2,73,84,
2,33428, Note_on_c,2,55,80,
2,33428, Note_on_c,2,45,84,
2,33436, Note_off_c,2,76,64,
2,33454, Note_off_c,2,73,64,
2,33514, Control_c,2,64,127,
2,33624, Note_off_c,2,45,64,
2,33632, Note_off_c,2,55,64,
2,33690, Note_on_c,2,51,103,
2,33790, Control_c,2,64,0,
2,33824, Note_on_c,2,44,87,
2,33824, Note_on_c,2,55,66,
2,33880, Control_c,2,64,127,
2,33916, Note_off_c,2,44,64,
2,33926, Note_off_c,2,51,64,
2,33936, Note_off_c,2,55,64,
2,34064, Note_on_c,2,75,121,
2,34170, Control_c,2,64,0,
2,34204, Note_on_c,2,60,68,
2,34206, Note_on_c,2,58,81,
2,34208, Note_on_c,2,56,78,
2,34278, Control_c,2,64,127,
2,34284, Note_off_c,2,60,64,
2,34296, Note_off_c,2,58,64,
2,34306, Note_off_c,2,56,64,
2,34320, Note_off_c,2,75,64,
2,34392, Note_on_c,2,77,51,
2,34400, Control_c,2,64,0,
2,34416, Note_on_c,2,75,86,
2,34444, Note_off_c,2,77,64,
2,34458, Note_on_c,2,74,79,
2,34474, Note_off_c,2,75,64,
2,34496, Note_on_c,2,75,94,
2,34518, Note_off_c,2,74,64,
2,34556, Note_off_c,2,75,64,
2,34570, Note_on_c,2,39,69,
2,34572, Note_on_c,2,32,77,
2,34582, Note_on_c,2,72,75,
2,34584, Note_on_c,2,84,93,
2,34622, Note_off_c,2,72,64,
2,34634, Note_off_c,2,84,64,
2,34644, Note_off_c,2,32,64,
2,34648, Note_off_c,2,39,64,
2,34814, Note_on_c,2,83,94,
2,34820, Note_on_c,2,72,93,
2,34828, Note_on_c,2,82,62,
2,34832, Note_on_c,2,74,55,
2,34848, Note_off_c,2,82,64,
2,34856, Note_off_c,2,74,64,
2,34862, Note_on_c,2,84,59,
2,34864, Note_off_c,2,83,64,
2,34894, Note_off_c,2,72,64,
2,34926, Note_off_c,2,84,64,
2,34930, Note_on_c,2,72,44,
2,34946, Note_on_c,2,60,51,
2,34950, Note_on_c,2,58,73,
2,34950, Note_on_c,2,56,73,
2,34968, Note_on_c,2,84,51,
2,34976, Note_off_c,2,72,64,
2,35002, Note_off_c,2,60,64,
2,35002, Note_on_c,2,72,49,
2,35004, Note_off_c,2,84,64,
2,35004, Note_off_c,2,58,64,
2,35014, Note_off_c,2,56,64,
2,35050, Note_on_c,2,84,58,
2,35052, Note_off_c,2,72,64,
2,35084, Note_off_c,2,84,64,
2,35084, Note_on_c,2,72,43,
2,35130, Note_off_c,2,72,64,
2,35134, Note_on_c,2,84,61,
2,35156, Note_off_c,2,84,64,
2,35162, Note_on_c,2,72,52,
2,35198, Note_on_c,2,43,81,
2,35206, Note_off_c,2,72,64,
2,35206, Note_on_c,2,84,70,
2,35244, Note_on_c,2,72,44,
2,35246, Note_off_c,2,84,64,
2,35284, Note_on_c,2,84,35,
2,35290, Note_off_c,2,72,64,
2,35332, Note_on_c,2,58,104,
2,35336, Note_off_c,2,84,64,
2,35348, Control_c,2,64,127,
2,35366, Note_off_c,2,43,64,
2,35378, Note_off_c,2,58,64,
2,35582, Note_on_c,2,73,84,
2,35586, Note_on_c,2,77,80,
2,35592, Note_on_c,2,82,90,
2,35596, Note_on_c,2,85,99,
2,35650, Note_off_c,2,73,64,
2,35682, Note_off_c,2,85,64,
2,35684, Note_off_c,2,77,64,
2,35692, Note_off_c,2,82,64,
2,35704, Control_c,2,64,0,
2,35718, Note_on_c,2,61,77,
2,35718, Note_on_c,2,77,54,
2,35718, Note_on_c,2,55,62,
2,35720, Note_on_c,2,65,68,
2,35720, Note_on_c,2,72,56,
2,35720, Note_on_c,2,58,75,
2,35730, Note_on_c,2,80,80,
2,35732, Note_on_c,2,84,80,
2,35800, Note_off_c,2,61,64,
2,35802, Control_c,2,64,127,
2,35804, Note_off_c,2,65,64,
2,35812, Note_off_c,2,58,64,
2,35814, Note_off_c,2,55,64,
2,35824, Note_off_c,2,84,64,
2,35832, Note_off_c,2,80,64,
2,35836, Note_off_c,2,77,64,
2,35852, Note_off_c,2,72,64,
2,35960, Note_on_c,2,71,74,
2,35964, Note_on_c,2,83,71,
2,35964, Note_on_c,2,76,73,
2,35964, Note_on_c,2,80,81,
2,36020, Note_off_c,2,71,64,
2,36036, Note_off_c,2,83,64,
2,36044, Note_off_c,2,76,64,
2,36046, Note_off_c,2,80,64,
2,36078, Control_c,2,64,0,
2,36094, Note_on_c,2,36,75,
2,36096, Note_on_c,2,52,76,
2,36098, Note_on_c,2,72,51,
2,36100, Note_on_c,2,76,73,
2,36106, Note_on_c,2,80,79,
2,36106, Note_on_c,2,84,81,
2,36140, Note_off_c,2,52,64,
2,36142, Note_off_c,2,36,64,
2,36222, Note_on_c,2,53,79,
2,36224, Note_on_c,2,38,75,
2,36250, Note_off_c,2,53,64,
2,36252, Note_off_c,2,38,64,
2,36350, Note_on_c,2,54,69,
2,36352, Note_on_c,2,39,72,
2,36378, Note_off_c,2,54,64,
2,36398, Note_off_c,2,39,64,
2,36474, Note_on_c,2,55,74,
2,36474, Note_on_c,2,40,82,
2,36496, Control_c,2,64,127,
2,36516, Note_off_c,2,76,64,
2,36520, Note_off_c,2,72,64,
2,36524, Note_off_c,2,80,64,
2,36532, Note_off_c,2,84,64,
2,36580, Note_off_c,2,55,64,
2,36584, Note_off_c,2,40,64,
2,36730, Note_on_c,2,48,90,
2,36822, Control_c,2,64,0,
2,36870, Note_on_c,2,41,82,
2,36870, Note_on_c,2,56,89,
2,36926, Control_c,2,64,127,
2,36938, Note_off_c,2,48,64,
2,36946, Note_off_c,2,41,64,
2,36960, Note_off_c,2,56,64,
2,37130, Note_on_c,2,77,123,
2,37216, Control_c,2,64,0,
2,37254, Note_on_c,2,60,73,
2,37256, Note_on_c,2,62,67,
2,37256, Note_on_c,2,53,66,
2,37258, Note_off_c,2,77,64,
2,37258, Note_on_c,2,56,82,
2,37262, Note_on_c,2,79,94,
2,37316, Note_off_c,2,60,64,
2,37320, Note_off_c,2,62,64,
2,37326, Note_off_c,2,53,64,
2,37332, Note_off_c,2,56,64,
2,37384, Note_on_c,2,77,77,
2,37402, Note_off_c,2,79,64,
2,37502, Note_on_c,2,76,85,
2,37510, Note_off_c,2,77,64,
2,37636, Note_on_c,2,36,81,
2,37636, Note_on_c,2,77,88,
2,37652, Note_off_c,2,76,64,
2,37666, Control_c,2,64,127,
2,37680, Note_off_c,2,36,64,
2,37714, Note_off_c,2,77,64,
2,37890, Note_on_c,2,84,95,
2,37892, Note_on_c,2,80,101,
2,37894, Note_on_c,2,77,96,
2,37902, Note_on_c,2,72,97,
2,37908, Control_c,2,64,0,
2,38024, Note_on_c,2,62,64,
2,38024, Note_on_c,2,53,69,
2,38024, Note_on_c,2,60,70,
2,38024, Note_on_c,2,56,78,
2,38040, Control_c,2,64,127,
2,38074, Note_off_c,2,60,64,
2,38076, Note_off_c,2,62,64,
2,38080, Note_off_c,2,77,64,
2,38086, Note_off_c,2,56,64,
2,38086, Note_off_c,2,80,64,
2,38092, Note_off_c,2,53,64,
2,38092, Note_off_c,2,72,64,
2,38104, Note_off_c,2,84,64,
2,38274, Note_on_c,2,81,105,
2,38360, Note_off_c,2,81,64,
2,38380, Note_on_c,2,45,73,
2,38386, Control_c,2,64,0,
2,38400, Note_on_c,2,74,58,
2,38410, Note_on_c,2,54,79,
2,38416, Note_on_c,2,78,96,
2,38420, Note_on_c,2,81,81,
2,38428, Note_on_c,2,86,96,
2,38472, Note_off_c,2,45,64,
2,38474, Control_c,2,64,127,
2,38484, Note_off_c,2,54,64,
2,38528, Note_off_c,2,74,64,
2,38532, Note_off_c,2,81,64,
2,38536, Note_off_c,2,86,64,
2,38538, Note_off_c,2,78,64,
2,38670, Note_on_c,2,73,94,
2,38672, Note_on_c,2,78,87,
2,38674, Note_on_c,2,81,71,
2,38676, Note_on_c,2,85,97,
2,38742, Note_off_c,2,73,64,
2,38754, Note_off_c,2,78,64,
2,38760, Note_off_c,2,85,64,
2,38772, Note_off_c,2,81,64,
2,38800, Control_c,2,64,0,
2,38802, Note_on_c,2,61,95,
2,38802, Note_on_c,2,81,64,
2,38802, Note_on_c,2,78,84,
2,38808, Note_on_c,2,84,86,
2,38808, Note_on_c,2,72,73,
2,38878, Control_c,2,64,127,
2,38908, Note_off_c,2,84,64,
2,38910, Note_off_c,2,81,64,
2,38928, Note_off_c,2,78,64,
2,38932, Note_off_c,2,72,64,
2,38968, Note_off_c,2,61,64,
2,39040, Note_on_c,2,71,61,
2,39044, Note_on_c,2,75,93,
2,39048, Note_on_c,2,78,97,
2,39052, Note_on_c,2,83,91,
2,39120, Control_c,2,64,0,
2,39186, Note_off_c,2,83,64,
2,39186, Note_on_c,2,59,81,
2,39186, Note_on_c,2,54,85,
2,39196, Note_off_c,2,78,64,
2,39198, Note_off_c,2,75,64,
2,39206, Note_off_c,2,71,64,
2,39208, Control_c,2,64,127,
2,39340, Note_off_c,2,59,64,
2,39376, Note_off_c,2,54,64,
2,39428, Note_on_c,2,75,104,
2,39428, Note_on_c,2,66,103,
2,39492, Note_off_c,2,66,64,
2,39528, Note_off_c,2,75,64,
2,39552, Note_on_c,2,57,82,
2,39554, Note_on_c,2,78,94,
2,39556, Note_on_c,2,63,81,
2,39556, Note_on_c,2,66,88,
2,39556, Note_on_c,2,71,82,
2,39636, Note_off_c,2,71,64,
2,39642, Note_off_c,2,78,64,
2,39646, Note_off_c,2,63,64,
2,39652, Note_off_c,2,57,64,
2,39656, Note_off_c,2,66,64,
2,39806, Note_on_c,2,68,106,
2,39894, Note_off_c,2,68,64,
2,39924, Control_c,2,64,0,
2,39944, Note_on_c,2,51,79,
2,39944, Note_on_c,2,67,68,
2,39944, Note_on_c,2,63,78,
2,39946, Note_on_c,2,36,68,
2,40036, Control_c,2,64,127,
2,40058, Note_off_c,2,36,64,
2,40086, Note_off_c,2,51,64,
2,40110, Note_off_c,2,63,64,
2,40124, Note_off_c,2,67,64,
2,40274, Note_on_c,2,53,48,
2,40292, Note_on_c,2,54,90,
2,40300, Note_off_c,2,53,64,
2,40304, Control_c,2,64,0,
2,40318, Note_on_c,2,55,63,
2,40320, Note_on_c,2,67,114,
2,40322, Note_off_c,2,54,64,
2,40416, Note_off_c,2,67,64,
2,40446, Note_on_c,2,68,75,
2,40480, Note_on_c,2,67,64,
2,40482, Note_off_c,2,55,64,
2,40492, Note_off_c,2,68,64,
2,40512, Note_on_c,2,66,57,
2,40536, Note_off_c,2,67,64,
2,40586, Note_off_c,2,66,64,
2,40612, Note_on_c,2,67,71,
2,40668, Note_off_c,2,67,64,
2,40690, Note_on_c,2,44,84,
2,40692, Note_on_c,2,75,99,
2,40692, Note_on_c,2,54,69,
2,40692, Note_on_c,2,63,103,
2,40722, Control_c,2,64,127,
2,40732, Note_off_c,2,63,64,
2,40744, Note_off_c,2,75,64,
2,40760, Note_off_c,2,44,64,
2,40774, Note_off_c,2,54,64,
2,40888, Note_on_c,2,87,99,
2,40890, Note_on_c,2,75,94,
2,40912, Note_off_c,2,75,64,
2,40924, Note_off_c,2,87,64,
2,41068, Note_on_c,2,99,107,
2,41070, Note_on_c,2,87,106,
2,41070, Note_on_c,2,94,103,
2,41070, Note_on_c,2,60,70,
2,41072, Note_on_c,2,54,75,
2,41100, Note_off_c,2,87,64,
2,41106, Note_off_c,2,94,64,
2,41106, Note_off_c,2,99,64,
2,41130, Note_off_c,2,60,64,
2,41146, Note_off_c,2,54,64,
2,41442, Control_c,2,64,0,
2,41452, Note_on_c,2,36,90,
2,41452, Note_on_c,2,51,95,
2,41536, Control_c,2,64,127,
2,41582, Note_off_c,2,36,64,
2,41606, Note_off_c,2,51,64,
2,41782, Note_on_c,2,66,110,
2,41866, Note_off_c,2,66,64,
2,41872, Control_c,2,64,0,
2,41882, Note_on_c,2,67,99,
2,41884, Note_on_c,2,55,77,
2,41990, Control_c,2,64,127,
2,41994, Note_off_c,2,67,64,
2,42010, Note_on_c,2,68,96,
2,42048, Note_off_c,2,55,64,
2,42086, Note_off_c,2,68,64,
2,42138, Note_on_c,2,69,99,
2,42234, Note_off_c,2,69,64,
2,42236, Control_c,2,64,0,
2,42254, Note_on_c,2,51,74,
2,42254, Note_on_c,2,41,69,
2,42254, Note_on_c,2,57,65,
2,42260, Note_on_c,2,70,95,
2,42272, Note_off_c,2,70,64,
2,42272, Note_on_c,2,71,90,
2,42366, Note_off_c,2,71,64,
2,42374, Control_c,2,64,127,
2,42388, Note_off_c,2,41,64,
2,42394, Note_on_c,2,79,88,
2,42396, Note_off_c,2,51,64,
2,42400, Note_off_c,2,57,64,
2,42620, Note_on_c,2,57,60,
2,42624, Note_on_c,2,51,78,
2,42624, Note_on_c,2,62,69,
2,42654, Note_off_c,2,79,64,
2,42718, Note_off_c,2,51,64,
2,42718, Note_off_c,2,57,64,
2,42720, Note_off_c,2,62,64,
2,42876, Note_on_c,2,77,106,
2,42932, Note_off_c,2,77,64,
2,42996, Control_c,2,64,0,
2,43016, Note_on_c,2,56,79,
2,43016, Note_on_c,2,41,76,
2,43020, Note_on_c,2,68,98,
2,43020, Note_on_c,2,75,101,
2,43074, Control_c,2,64,127,
2,43080, Note_off_c,2,41,64,
2,43084, Note_off_c,2,75,64,
2,43088, Note_off_c,2,68,64,
2,43100, Note_off_c,2,56,64,
2,43218, Control_c,2,64,0,
2,43242, Note_on_c,2,60,85,
2,43246, Note_on_c,2,68,82,
2,43246, Note_on_c,2,72,86,
2,43246, Note_on_c,2,67,80,
2,43400, Control_c,2,64,127,
2,43462, Note_off_c,2,60,64,
2,43510, Note_on_c,2,56,100,
2,43532, Note_off_c,2,72,64,
2,43540, Note_off_c,2,68,64,
2,43550, Note_off_c,2,67,64,
2,43552, Note_off_c,2,56,64,
2,43628, Note_on_c,2,55,80,
2,43680, Note_off_c,2,55,64,
2,43740, Control_c,2,64,0,
2,43754, Note_on_c,2,61,86,
2,43756, Note_on_c,2,70,89,
2,43756, Note_on_c,2,64,84,
2,43760, Note_on_c,2,52,81,
2,43828, Control_c,2,64,127,
2,43830, Note_off_c,2,52,64,
2,43830, Note_off_c,2,64,64,
2,43836, Note_off_c,2,61,64,
2,43842, Note_off_c,2,70,64,
2,44002, Control_c,2,64,0,
2,44004, Note_on_c,2,67,78,
2,44004, Note_on_c,2,58,95,
2,44004, Note_on_c,2,73,95,
2,44004, Note_on_c,2,64,86,
2,44100, Control_c,2,64,127,
2,44108, Note_off_c,2,58,64,
2,44188, Note_off_c,2,73,64,
2,44192, Note_off_c,2,67,64,
2,44244, Note_off_c,2,64,64,
2,44288, Note_on_c,2,58,62,
2,44306, Note_on_c,2,57,41,
2,44368, Note_off_c,2,58,64,
2,44374, Note_on_c,2,56,68,
2,44382, Note_off_c,2,57,64,
2,44494, Control_c,2,64,0,
2,44520, Note_on_c,2,60,73,
2,44520, Note_on_c,2,70,77,
2,44522, Note_on_c,2,67,76,
2,44524, Note_on_c,2,63,90,
2,44524, Note_on_c,2,55,68,
2,44528, Note_off_c,2,56,64,
2,44604, Control_c,2,64,127,
2,44636, Note_off_c,2,55,64,
2,44636, Note_off_c,2,63,64,
2,44640, Note_off_c,2,67,64,
2,44642, Note_off_c,2,70,64,
2,44666, Note_off_c,2,60,64,
2,44786, Note_on_c,2,67,73,
2,44788, Note_on_c,2,56,79,
2,44790, Note_on_c,2,60,70,
2,44790, Note_on_c,2,51,82,
2,44810, Control_c,2,64,0,
2,44924, Note_on_c,2,41,77,
2,44928, Note_off_c,2,60,64,
2,44928, Note_on_c,2,63,83,
2,44942, Note_off_c,2,67,64,
2,44962, Control_c,2,64,127,
2,45018, Note_off_c,2,41,64,
2,45044, Note_off_c,2,51,64,
2,45140, Note_off_c,2,56,64,
2,45148, Note_off_c,2,63,64,
2,45182, Note_on_c,2,60,73,
2,45248, Note_off_c,2,60,64,
2,45304, Control_c,2,64,0,
2,45308, Note_on_c,2,43,60,
2,45310, Note_on_c,2,53,59,
2,45314, Note_on_c,2,61,83,
2,45316, Note_on_c,2,55,59,
2,45402, Control_c,2,64,127,
2,45426, Note_off_c,2,43,64,
2,45440, Note_off_c,2,53,64,
2,45444, Note_on_c,2,65,73,
2,45460, Note_off_c,2,61,64,
2,45540, Note_off_c,2,65,64,
2,45572, Note_off_c,2,55,64,
2,45574, Note_on_c,2,61,72,
2,45604, Note_off_c,2,61,64,
2,45684, Control_c,2,64,0,
2,45706, Note_on_c,2,58,80,
2,45706, Note_on_c,2,36,64,
2,45706, Note_on_c,2,52,66,
2,45706, Note_on_c,2,55,62,
2,45756, Note_off_c,2,58,64,
2,45760, Note_off_c,2,55,64,
2,45768, Control_c,2,64,127,
2,45798, Note_off_c,2,36,64,
2,45802, Note_off_c,2,52,64,
2,45958, Note_on_c,2,79,104,
2,45958, Note_on_c,2,67,111,
2,45998, Note_off_c,2,67,64,
2,46022, Note_off_c,2,79,64,
2,46052, Control_c,2,64,0,
2,46088, Note_on_c,2,68,70,
2,46090, Note_on_c,2,56,70,
2,46092, Note_on_c,2,41,61,
2,46104, Note_on_c,2,72,48,
2,46104, Note_on_c,2,75,72,
2,46104, Note_on_c,2,80,81,
2,46138, Note_off_c,2,68,64,
2,46144, Note_off_c,2,72,64,
2,46148, Note_off_c,2,75,64,
2,46154, Note_off_c,2,80,64,
2,46158, Note_off_c,2,41,64,
2,46178, Note_off_c,2,56,64,
2,46340, Note_on_c,2,67,76,
2,46340, Note_on_c,2,72,79,
2,46346, Note_on_c,2,75,88,
2,46346, Note_on_c,2,79,81,
2,46402, Note_off_c,2,67,64,
2,46406, Note_off_c,2,79,64,
2,46420, Note_off_c,2,72,64,
2,46424, Note_off_c,2,75,64,
2,46462, Note_on_c,2,72,56,
2,46466, Note_on_c,2,60,58,
2,46466, Note_on_c,2,53,55,
2,46468, Note_on_c,2,65,57,
2,46470, Note_on_c,2,56,65,
2,46470, Note_on_c,2,77,54,
2,46510, Note_off_c,2,72,64,
2,46512, Note_off_c,2,77,64,
2,46516, Note_off_c,2,60,64,
2,46522, Note_off_c,2,65,64,
2,46524, Note_off_c,2,53,64,
2,46526, Note_off_c,2,56,64,
2,46680, Control_c,2,64,127,
2,46716, Note_on_c,2,63,98,
2,46716, Note_on_c,2,75,101,
2,46764, Note_off_c,2,63,64,
2,46774, Note_off_c,2,75,64,
2,46812, Control_c,2,64,0,
2,46844, Note_on_c,2,56,66,
2,46844, Note_on_c,2,65,61,
2,46846, Note_on_c,2,46,76,
2,46848, Note_on_c,2,68,68,
2,46848, Note_on_c,2,72,67,
2,46852, Note_on_c,2,77,77,
2,46926, Control_c,2,64,127,
2,46940, Note_off_c,2,46,64,
2,46940, Note_off_c,2,56,64,
2,46958, Note_off_c,2,65,64,
2,46960, Note_off_c,2,68,64,
2,46972, Note_off_c,2,72,64,
2,46978, Note_off_c,2,77,64,
2,47090, Note_on_c,2,68,70,
2,47092, Note_on_c,2,65,58,
2,47096, Note_on_c,2,72,73,
2,47098, Control_c,2,64,0,
2,47104, Note_on_c,2,77,85,
2,47232, Note_on_c,2,36,70,
2,47234, Note_on_c,2,52,72,
2,47256, Control_c,2,64,127,
2,47264, Note_off_c,2,65,64,
2,47268, Note_off_c,2,68,64,
2,47270, Note_off_c,2,72,64,
2,47286, Note_off_c,2,52,64,
2,47290, Note_off_c,2,36,64,
2,47290, Note_off_c,2,77,64,
2,47596, Control_c,2,64,0,
2,47612, Note_on_c,2,41,69,
2,47624, Note_on_c,2,56,54,
2,47680, Control_c,2,64,127,
2,47752, Note_off_c,2,41,64,
2,47784, Note_off_c,2,56,64,
2,47864, Note_on_c,2,82,117,
2,47864, Note_on_c,2,70,121,
2,47912, Note_off_c,2,70,64,
2,47918, Note_off_c,2,82,64,
2,47980, Control_c,2,64,0,
2,48000, Note_on_c,2,68,88,
2,48000, Note_on_c,2,58,77,
2,48000, Note_on_c,2,53,64,
2,48000, Note_on_c,2,56,76,
2,48002, Note_on_c,2,80,87,
2,48056, Note_off_c,2,58,64,
2,48064, Control_c,2,64,127,
2,48070, Note_off_c,2,56,64,
2,48070, Note_off_c,2,68,64,
2,48072, Note_off_c,2,80,64,
2,48072, Note_off_c,2,53,64,
2,48116, Note_on_c,2,79,65,
2,48120, Note_on_c,2,67,45,
2,48162, Note_off_c,2,79,64,
2,48172, Note_off_c,2,67,64,
2,48236, Note_on_c,2,65,74,
2,48242, Note_on_c,2,77,64,
2,48266, Note_off_c,2,65,64,
2,48268, Note_off_c,2,77,64,
2,48340, Control_c,2,64,0,
2,48346, Note_on_c,2,46,53,
2,48358, Note_on_c,2,50,64,
2,48358, Note_on_c,2,68,58,
2,48360, Note_on_c,2,56,72,
2,48374, Note_on_c,2,71,68,
2,48384, Note_on_c,2,80,83,
2,48384, Note_on_c,2,74,69,
2,48440, Note_off_c,2,50,64,
2,48444, Note_off_c,2,46,64,
2,48444, Control_c,2,64,127,
2,48474, Note_off_c,2,56,64,
2,48590, Note_on_c,2,62,61,
2,48632, Note_off_c,2,62,64,
2,48638, Note_on_c,2,61,85,
2,48680, Note_off_c,2,61,64,
2,48690, Note_on_c,2,60,80,
2,48696, Control_c,2,64,0,
2,48732, Note_on_c,2,59,77,
2,48750, Note_off_c,2,60,64,
2,48788, Note_on_c,2,58,94,
2,48792, Note_off_c,2,59,64,
2,48816, Note_off_c,2,58,64,
2,48832, Note_on_c,2,57,82,
2,48880, Note_off_c,2,57,64,
2,48892, Note_on_c,2,56,65,
2,48940, Note_off_c,2,56,64,
2,48940, Note_on_c,2,55,75,
2,48996, Note_off_c,2,55,64,
2,49004, Note_on_c,2,54,59,
2,49056, Note_on_c,2,53,80,
2,49058, Note_off_c,2,54,64,
2,49060, Note_off_c,2,71,64,
2,49062, Note_off_c,2,80,64,
2,49092, Note_off_c,2,74,64,
2,49098, Note_off_c,2,68,64,
2,49104, Note_on_c,2,52,74,
2,49118, Note_off_c,2,53,64,
2,49152, Note_off_c,2,52,64,
2,49164, Note_on_c,2,51,103,
2,49228, Control_c,2,64,127,
2,49230, Note_off_c,2,51,64,
2,49356, Note_on_c,2,39,114,
2,49396, Note_off_c,2,39,64,
2,49526, Note_on_c,2,54,95,
2,49534, Control_c,2,64,0,
2,49536, Note_on_c,2,55,71,
2,49542, Note_on_c,2,75,110,
2,49544, Note_on_c,2,70,108,
2,49546, Note_off_c,2,54,64,
2,49546, Note_on_c,2,65,100,
2,49604, Note_off_c,2,75,64,
2,49634, Note_on_c,2,74,90,
2,49650, Note_off_c,2,70,64,
2,49664, Note_off_c,2,65,64,
2,49672, Control_c,2,64,127,
2,49702, Note_off_c,2,74,64,
2,49722, Note_on_c,2,72,84,
2,49740, Note_off_c,2,55,64,
2,49788, Note_off_c,2,72,64,
2,49810, Note_on_c,2,70,97,
2,49866, Note_off_c,2,70,64,
2,49904, Control_c,2,64,0,
2,49918, Note_on_c,2,67,93,
2,49918, Note_on_c,2,72,98,
2,49920, Note_on_c,2,56,82,
2,49922, Note_on_c,2,41,69,
2,49922, Note_on_c,2,68,96,
2,49998, Control_c,2,64,127,
2,50016, Note_off_c,2,68,64,
2,50016, Note_off_c,2,72,64,
2,50024, Note_off_c,2,41,64,
2,50038, Note_off_c,2,67,64,
2,50066, Note_off_c,2,56,64,
2,50278, Control_c,2,64,0,
2,50302, Note_on_c,2,54,86,
2,50302, Note_on_c,2,65,99,
2,50304, Note_on_c,2,44,90,
2,50304, Note_on_c,2,60,86,
2,50368, Control_c,2,64,127,
2,50460, Note_off_c,2,60,64,
2,50460, Note_off_c,2,65,64,
2,50464, Note_off_c,2,44,64,
2,50470, Note_off_c,2,54,64,
2,50668, Control_c,2,64,0,
2,50680, Note_on_c,2,43,70,
2,50680, Note_on_c,2,53,65,
2,50684, Note_on_c,2,65,87,
2,50686, Note_on_c,2,62,79,
2,50686, Note_on_c,2,70,98,
2,50756, Control_c,2,64,127,
2,50782, Note_off_c,2,43,64,
2,50804, Note_off_c,2,53,64,
2,50818, Note_off_c,2,70,64,
2,50836, Note_off_c,2,65,64,
2,50870, Note_off_c,2,62,64,
2,51004, Note_on_c,2,42,71,
2,51042, Control_c,2,64,0,
2,51068, Note_on_c,2,52,68,
2,51076, Note_on_c,2,64,86,
2,51078, Note_on_c,2,61,89,
2,51136, Control_c,2,64,127,
2,51168, Note_off_c,2,42,64,
2,51172, Note_off_c,2,52,64,
2,51176, Note_off_c,2,64,64,
2,51192, Note_off_c,2,61,64,
2,51324, Note_on_c,2,65,77,
2,51324, Note_on_c,2,62,74,
2,51328, Control_c,2,64,0,
2,51454, Note_on_c,2,43,68,
2,51456, Note_on_c,2,53,67,
2,51462, Control_c,2,64,127,
2,51474, Note_off_c,2,65,64,
2,51494, Note_off_c,2,62,64,
2,51532, Note_off_c,2,53,64,
2,51536, Note_off_c,2,43,64,
2,51718, Note_on_c,2,57,101,
2,51718, Control_c,2,64,0,
2,51720, Note_on_c,2,64,99,
2,51720, Note_on_c,2,58,105,
2,51720, Note_on_c,2,61,99,
2,51748, Note_off_c,2,58,64,
2,51752, Note_off_c,2,57,64,
2,51756, Note_off_c,2,61,64,
2,51764, Note_off_c,2,64,64,
2,51862, Note_on_c,2,36,58,
2,51864, Note_on_c,2,52,65,
2,51886, Control_c,2,64,127,
2,51940, Note_off_c,2,52,64,
2,51942, Note_off_c,2,36,64,
2,52088, Control_c,2,64,0,
2,52128, Note_on_c,2,73,113,
2,52128, Note_on_c,2,74,108,
2,52156, Note_off_c,2,73,64,
2,52234, Note_off_c,2,74,64,
2,52256, Note_on_c,2,41,59,
2,52256, Note_on_c,2,57,56,
2,52256, Note_on_c,2,77,77,
2,52256, Note_on_c,2,51,61,
2,52260, Note_on_c,2,65,75,
2,52296, Control_c,2,64,127,
2,52306, Note_off_c,2,65,64,
2,52316, Note_off_c,2,77,64,
2,52330, Note_off_c,2,51,64,
2,52332, Note_off_c,2,41,64,
2,52334, Note_off_c,2,57,64,
2,52500, Note_on_c,2,75,104,
2,52576, Note_off_c,2,75,64,
2,52596, Control_c,2,64,0,
2,52616, Note_on_c,2,57,69,
2,52618, Note_on_c,2,51,79,
2,52622, Note_on_c,2,74,84,
2,52692, Note_off_c,2,57,64,
2,52704, Note_off_c,2,51,64,
2,52708, Note_off_c,2,74,64,
2,52868, Note_on_c,2,72,67,
2,52970, Control_c,2,64,127,
2,52980, Note_on_c,2,36,74,
2,52988, Note_on_c,2,74,74,
2,52990, Note_off_c,2,72,64,
2,53016, Note_off_c,2,36,64,
2,53028, Note_off_c,2,74,64,
2,53228, Control_c,2,64,0,
2,53230, Note_on_c,2,70,78,
2,53232, Note_on_c,2,75,83,
2,53232, Note_on_c,2,66,84,
2,53232, Note_on_c,2,63,78,
2,53358, Note_on_c,2,42,70,
2,53364, Note_on_c,2,58,57,
2,53366, Note_off_c,2,75,64,
2,53370, Control_c,2,64,127,
2,53370, Note_on_c,2,52,64,
2,53384, Note_off_c,2,70,64,
2,53386, Note_off_c,2,66,64,
2,53402, Note_off_c,2,63,64,
2,53448, Note_off_c,2,52,64,
2,53448, Note_off_c,2,58,64,
2,53462, Note_off_c,2,42,64,
2,53626, Control_c,2,64,0,
2,53628, Note_on_c,2,62,49,
2,53632, Note_on_c,2,65,77,
2,53646, Note_on_c,2,70,93,
2,53730, Control_c,2,64,127,
2,53764, Note_off_c,2,62,64,
2,53774, Note_off_c,2,65,64,
2,53776, Note_on_c,2,43,64,
2,53780, Note_on_c,2,53,57,
2,53798, Note_off_c,2,70,64,
2,53834, Note_off_c,2,43,64,
2,53852, Note_off_c,2,53,64,
2,54140, Note_on_c,2,65,58,
2,54142, Note_on_c,2,55,49,
2,54142, Note_on_c,2,62,60,
2,54144, Note_on_c,2,70,102,
2,54146, Note_on_c,2,58,77,
2,54148, Control_c,2,64,0,
2,54188, Control_c,2,64,127,
2,54216, Note_off_c,2,62,64,
2,54220, Note_off_c,2,58,64,
2,54220, Note_off_c,2,65,64,
2,54228, Note_off_c,2,55,64,
2,54244, Note_on_c,2,74,78,
2,54264, Note_off_c,2,70,64,
2,54340, Note_on_c,2,77,71,
2,54366, Note_off_c,2,74,64,
2,54424, Note_off_c,2,77,64,
2,54430, Note_on_c,2,82,95,
2,54462, Note_off_c,2,82,64,
2,54514, Control_c,2,64,0,
2,54522, Note_on_c,2,85,105,
2,54530, Note_on_c,2,44,73,
2,54622, Control_c,2,64,127,
2,54766, Note_on_c,2,82,61,
2,54776, Note_off_c,2,85,64,
2,54790, Note_on_c,2,80,61,
2,54796, Note_off_c,2,82,64,
2,54806, Note_on_c,2,78,73,
2,54828, Note_off_c,2,80,64,
2,54840, Note_on_c,2,75,78,
2,54850, Note_off_c,2,78,64,
2,54866, Note_off_c,2,75,64,
2,54884, Control_c,2,64,0,
2,54902, Note_on_c,2,73,68,
2,54920, Note_off_c,2,73,64,
2,54920, Note_on_c,2,75,77,
2,54924, Note_on_c,2,54,71,
2,54956, Note_on_c,2,73,62,
2,54972, Note_off_c,2,75,64,
2,54984, Note_on_c,2,71,61,
2,54992, Note_off_c,2,73,64,
2,54992, Note_off_c,2,44,64,
2,55000, Note_off_c,2,54,64,
2,55018, Note_off_c,2,71,64,
2,55036, Note_on_c,2,70,66,
2,55076, Note_on_c,2,68,62,
2,55090, Note_off_c,2,70,64,
2,55104, Note_on_c,2,66,65,
2,55116, Note_off_c,2,68,64,
2,55136, Note_off_c,2,66,64,
2,55182, Note_on_c,2,63,61,
2,55224, Note_on_c,2,61,72,
2,55228, Note_off_c,2,63,64,
2,55280, Note_on_c,2,60,81,
2,55286, Note_off_c,2,61,64,
2,55304, Note_on_c,2,41,75,
2,55304, Note_on_c,2,48,79,
2,55328, Note_off_c,2,60,64,
2,55348, Control_c,2,64,127,
2,55380, Note_off_c,2,41,64,
2,55382, Note_off_c,2,48,64,
2,55686, Note_on_c,2,55,62,
2,55688, Note_on_c,2,56,72,
2,55688, Control_c,2,64,0,
2,55688, Note_on_c,2,53,68,
2,55728, Note_off_c,2,56,64,
2,55728, Note_off_c,2,55,64,
2,55736, Note_off_c,2,53,64,
2,55756, Note_on_c,2,60,43,
2,55784, Note_on_c,2,63,72,
2,55794, Note_off_c,2,60,64,
2,55818, Note_on_c,2,68,59,
2,55820, Note_off_c,2,63,64,
2,55864, Note_on_c,2,70,68,
2,55874, Note_off_c,2,68,64,
2,55880, Note_off_c,2,70,64,
2,55898, Note_on_c,2,71,69,
2,55938, Note_off_c,2,71,64,
2,55940, Note_on_c,2,73,72,
2,55984, Note_off_c,2,73,64,
2,55986, Note_on_c,2,76,52,
2,56010, Note_on_c,2,78,86,
2,56026, Note_off_c,2,76,64,
2,56040, Note_off_c,2,78,64,
2,56068, Note_on_c,2,83,70,
2,56070, Note_on_c,2,56,71,
2,56070, Note_on_c,2,46,83,
2,56102, Note_off_c,2,83,64,
2,56102, Note_on_c,2,85,73,
2,56116, Note_off_c,2,46,64,
2,56122, Note_off_c,2,56,64,
2,56144, Note_on_c,2,88,71,
2,56150, Note_off_c,2,85,64,
2,56178, Note_on_c,2,90,105,
2,56188, Note_off_c,2,88,64,
2,56208, Note_off_c,2,90,64,
2,56260, Control_c,2,64,127,
2,56428, Note_on_c,2,62,74,
2,56428, Note_on_c,2,56,61,
2,56430, Note_on_c,2,66,75,
2,56488, Note_off_c,2,66,64,
2,56488, Note_off_c,2,62,64,
2,56494, Note_off_c,2,56,64,
2,56634, Note_on_c,2,74,116,
2,56704, Note_off_c,2,74,64,
2,56812, Control_c,2,64,0,
2,56830, Note_on_c,2,70,94,
2,56832, Note_on_c,2,43,71,
2,56832, Note_on_c,2,53,68,
2,56832, Note_on_c,2,67,71,
2,56834, Note_on_c,2,79,80,
2,56860, Note_on_c,2,71,74,
2,56866, Note_off_c,2,70,64,
2,56950, Control_c,2,64,127,
2,56968, Note_off_c,2,71,64,
2,56968, Note_off_c,2,79,64,
2,56974, Note_off_c,2,67,64,
2,57006, Note_off_c,2,43,64,
2,57012, Note_off_c,2,53,64,
2,57212, Control_c,2,64,0,
2,57238, Note_on_c,2,42,78,
2,57240, Note_on_c,2,52,58,
2,57242, Note_on_c,2,66,90,
2,57242, Note_on_c,2,70,87,
2,57244, Note_on_c,2,78,88,
2,57244, Note_on_c,2,75,84,
2,57304, Control_c,2,64,127,
2,57328, Note_off_c,2,78,64,
2,57328, Note_off_c,2,52,64,
2,57328, Note_off_c,2,42,64,
2,57332, Note_off_c,2,75,64,
2,57332, Note_off_c,2,66,64,
2,57344, Note_off_c,2,70,64,
2,57472, Control_c,2,64,0,
2,57490, Note_on_c,2,70,98,
2,57490, Note_on_c,2,79,79,
2,57490, Note_on_c,2,67,81,
2,57492, Note_on_c,2,76,74,
2,57526, Note_on_c,2,71,75,
2,57530, Note_off_c,2,70,64,
2,57568, Note_off_c,2,67,64,
2,57576, Note_off_c,2,71,64,
2,57586, Note_off_c,2,76,64,
2,57606, Note_off_c,2,79,64,
2,57620, Note_on_c,2,43,68,
2,57622, Note_on_c,2,53,67,
2,57664, Control_c,2,64,127,
2,57690, Note_off_c,2,53,64,
2,57692, Note_off_c,2,43,64,
2,57868, Note_on_c,2,70,113,
2,57870, Note_on_c,2,82,106,
2,57870, Note_on_c,2,75,104,
2,57872, Note_on_c,2,78,99,
2,57902, Control_c,2,64,0,
2,57918, Note_off_c,2,70,64,
2,57920, Note_off_c,2,75,64,
2,57940, Note_off_c,2,78,64,
2,57948, Note_off_c,2,82,64,
2,57990, Control_c,2,64,127,
2,57996, Note_on_c,2,52,71,
2,57996, Note_on_c,2,36,69,
2,58050, Note_off_c,2,52,64,
2,58052, Note_off_c,2,36,64,
2,58258, Note_on_c,2,83,104,
2,58260, Note_on_c,2,71,108,
2,58260, Note_on_c,2,78,109,
2,58260, Note_on_c,2,75,110,
2,58292, Note_off_c,2,71,64,
2,58296, Note_off_c,2,75,64,
2,58310, Note_off_c,2,78,64,
2,58318, Note_off_c,2,83,64,
2,58370, Control_c,2,64,0,
2,58390, Note_on_c,2,41,77,
2,58390, Note_on_c,2,56,76,
2,58390, Note_on_c,2,72,63,
2,58392, Note_on_c,2,78,72,
2,58392, Note_on_c,2,75,74,
2,58402, Note_on_c,2,84,58,
2,58446, Note_off_c,2,75,64,
2,58446, Note_off_c,2,72,64,
2,58452, Note_off_c,2,78,64,
2,58456, Note_off_c,2,41,64,
2,58464, Control_c,2,64,127,
2,58466, Note_off_c,2,84,64,
2,58474, Note_off_c,2,56,64,
2,58640, Note_on_c,2,75,75,
2,58642, Note_on_c,2,80,91,
2,58644, Note_on_c,2,87,95,
2,58696, Note_off_c,2,75,64,
2,58710, Note_off_c,2,80,64,
2,58718, Note_off_c,2,87,64,
2,58758, Note_on_c,2,60,67,
2,58760, Note_on_c,2,67,65,
2,58760, Note_on_c,2,56,76,
2,58760, Note_on_c,2,63,78,
2,58766, Note_on_c,2,89,93,
2,58768, Note_on_c,2,77,72,
2,58826, Note_off_c,2,77,64,
2,58828, Note_off_c,2,89,64,
2,58834, Note_off_c,2,67,64,
2,58836, Note_off_c,2,63,64,
2,58848, Note_off_c,2,60,64,
2,58854, Note_off_c,2,56,64,
2,59024, Note_on_c,2,90,99,
2,59024, Note_on_c,2,82,87,
2,59024, Note_on_c,2,85,89,
2,59026, Note_on_c,2,78,84,
2,59070, Note_off_c,2,78,64,
2,59070, Note_off_c,2,82,64,
2,59088, Note_off_c,2,90,64,
2,59096, Note_off_c,2,85,64,
2,59130, Control_c,2,64,0,
2,59138, Note_on_c,2,56,64,
2,59144, Note_on_c,2,46,66,
2,59144, Note_on_c,2,50,68,
2,59144, Note_on_c,2,85,81,
2,59148, Note_on_c,2,79,60,
2,59150, Note_on_c,2,91,71,
2,59194, Note_off_c,2,85,64,
2,59200, Note_on_c,2,86,24,
2,59224, Note_off_c,2,50,64,
2,59226, Note_off_c,2,79,64,
2,59234, Note_off_c,2,46,64,
2,59238, Control_c,2,64,127,
2,59246, Note_off_c,2,56,64,
2,59284, Note_off_c,2,91,64,
2,59302, Note_off_c,2,86,64,
2,59416, Note_on_c,2,91,89,
2,59416, Note_on_c,2,85,90,
2,59418, Note_on_c,2,79,74,
2,59444, Note_on_c,2,86,35,
2,59450, Note_off_c,2,85,64,
2,59472, Note_off_c,2,79,64,
2,59502, Note_off_c,2,91,64,
2,59506, Note_off_c,2,86,64,
2,59524, Note_on_c,2,56,77,
2,59528, Note_on_c,2,62,71,
2,59528, Note_on_c,2,65,69,
2,59576, Note_off_c,2,65,64,
2,59576, Note_off_c,2,62,64,
2,59584, Note_off_c,2,56,64,
2,59888, Control_c,2,64,0,
2,59902, Note_on_c,2,64,63,
2,59904, Note_on_c,2,58,81,
2,59906, Note_on_c,2,49,69,
2,59906, Note_on_c,2,55,57,
2,59988, Control_c,2,64,127,
2,60084, Note_on_c,2,82,106,
2,60096, Control_c,2,64,0,
2,60168, Note_off_c,2,82,64,
2,60178, Note_on_c,2,79,66,
2,60252, Note_off_c,2,79,64,
2,60276, Note_on_c,2,76,75,
2,60292, Control_c,2,64,127,
2,60328, Note_off_c,2,64,64,
2,60344, Note_off_c,2,55,64,
2,60346, Note_off_c,2,58,64,
2,60348, Note_off_c,2,76,64,
2,60354, Note_off_c,2,49,64,
2,60376, Note_on_c,2,73,91,
2,60408, Note_off_c,2,73,64,
2,60460, Note_on_c,2,70,86,
2,60514, Note_off_c,2,70,64,
2,60554, Note_on_c,2,69,79,
2,60618, Control_c,2,64,0,
2,60620, Note_off_c,2,69,64,
2,60640, Note_on_c,2,56,66,
2,60642, Note_on_c,2,50,66,
2,60648, Note_on_c,2,68,87,
2,60734, Note_off_c,2,68,64,
2,60754, Note_on_c,2,72,65,
2,60824, Note_off_c,2,72,64,
2,60848, Note_on_c,2,66,63,
2,60876, Note_on_c,2,67,63,
2,60880, Note_off_c,2,66,64,
2,60916, Note_off_c,2,67,64,
2,60956, Note_on_c,2,66,67,
2,60974, Note_on_c,2,67,74,
2,60988, Note_off_c,2,66,64,
2,61040, Note_off_c,2,67,64,
2,61064, Note_on_c,2,65,79,
2,61092, Control_c,2,64,127,
2,61148, Note_off_c,2,65,64,
2,61158, Note_off_c,2,56,64,
2,61166, Note_off_c,2,50,64,
2,61368, Note_on_c,2,65,55,
2,61384, Note_on_c,2,64,76,
2,61420, Note_off_c,2,65,64,
2,61420, Note_on_c,2,63,79,
2,61436, Control_c,2,64,0,
2,61440, Note_off_c,2,64,64,
2,61464, Note_on_c,2,46,81,
2,61464, Note_on_c,2,39,70,
2,61466, Note_on_c,2,62,77,
2,61474, Note_off_c,2,63,64,
2,61532, Note_off_c,2,62,64,
2,61568, Note_on_c,2,63,79,
2,61618, Note_off_c,2,63,64,
2,61654, Note_on_c,2,67,61,
2,61716, Note_off_c,2,67,64,
2,61746, Note_on_c,2,70,84,
2,61782, Note_off_c,2,70,64,
2,61838, Note_on_c,2,74,97,
2,61876, Control_c,2,64,127,
2,61932, Note_off_c,2,39,64,
2,61940, Note_off_c,2,46,64,
2,61944, Note_off_c,2,74,64,
2,62012, Note_on_c,2,77,102,
2,62086, Note_off_c,2,77,64,
2,62132, Note_on_c,2,74,66,
2,62176, Note_off_c,2,74,64,
2,62182, Control_c,2,64,0,
2,62200, Note_on_c,2,41,70,
2,62200, Note_on_c,2,56,71,
2,62204, Note_on_c,2,75,89,
2,62252, Note_off_c,2,75,64,
2,62264, Note_on_c,2,72,55,
2,62294, Note_off_c,2,72,64,
2,62324, Note_on_c,2,68,75,
2,62370, Note_off_c,2,68,64,
2,62394, Note_on_c,2,67,55,
2,62572, Control_c,2,64,127,
2,62576, Note_off_c,2,67,64,
2,62586, Note_on_c,2,48,75,
2,62588, Note_on_c,2,65,82,
2,62642, Note_off_c,2,65,64,
2,62688, Note_off_c,2,41,64,
2,62700, Note_off_c,2,48,64,
2,62706, Note_off_c,2,56,64,
2,62892, Note_on_c,2,67,51,
2,62908, Note_on_c,2,65,64,
2,62922, Control_c,2,64,0,
2,62944, Note_on_c,2,64,50,
2,62946, Note_off_c,2,67,64,
2,62970, Note_off_c,2,65,64,
2,62978, Note_on_c,2,42,67,
2,62978, Note_on_c,2,51,60,
2,62978, Note_on_c,2,63,85,
2,62988, Note_off_c,2,64,64,
2,63030, Note_off_c,2,63,64,
2,63044, Control_c,2,64,127,
2,63064, Note_off_c,2,42,64,
2,63072, Note_off_c,2,51,64,
2,63332, Note_on_c,2,54,76,
2,63344, Control_c,2,64,0,
2,63348, Note_on_c,2,60,56,
2,63380, Note_on_c,2,62,79,
2,63380, Note_on_c,2,74,93,
2,63380, Note_on_c,2,63,108,
2,63382, Note_on_c,2,69,88,
2,63410, Note_off_c,2,60,64,
2,63510, Note_on_c,2,60,77,
2,63516, Note_off_c,2,74,64,
2,63520, Note_on_c,2,72,75,
2,63528, Note_off_c,2,62,64,
2,63538, Control_c,2,64,127,
2,63620, Note_on_c,2,62,67,
2,63632, Note_off_c,2,60,64,
2,63636, Note_off_c,2,72,64,
2,63636, Note_on_c,2,74,85,
2,63646, Note_off_c,2,63,64,
2,63646, Note_off_c,2,54,64,
2,63658, Note_off_c,2,62,64,
2,63664, Note_off_c,2,69,64,
2,63696, Note_off_c,2,74,64,
2,63736, Control_c,2,64,0,
2,63750, Note_on_c,2,70,91,
2,63752, Note_on_c,2,65,81,
2,63752, Note_on_c,2,53,60,
2,63754, Note_on_c,2,43,63,
2,63828, Control_c,2,64,127,
2,63844, Note_off_c,2,65,64,
2,63852, Note_off_c,2,43,64,
2,63852, Note_off_c,2,70,64,
2,63868, Note_off_c,2,53,64,
2,63986, Control_c,2,64,0,
2,64004, Note_on_c,2,75,101,
2,64004, Note_on_c,2,70,97,
2,64006, Note_on_c,2,68,98,
2,64008, Note_on_c,2,64,95,
2,64128, Control_c,2,64,127,
2,64138, Note_on_c,2,52,88,
2,64140, Note_on_c,2,42,101,
2,64156, Note_off_c,2,64,64,
2,64164, Note_off_c,2,68,64,
2,64170, Note_off_c,2,70,64,
2,64178, Note_off_c,2,52,64,
2,64184, Note_off_c,2,42,64,
2,64184, Note_off_c,2,75,64,
2,64390, Control_c,2,64,0,
2,64394, Note_on_c,2,73,115,
2,64396, Note_on_c,2,74,108,
2,64432, Note_off_c,2,73,64,
2,64512, Note_off_c,2,74,64,
2,64520, Note_on_c,2,41,62,
2,64520, Note_on_c,2,57,58,
2,64522, Note_on_c,2,51,67,
2,64522, Note_on_c,2,65,54,
2,64526, Note_on_c,2,77,74,
2,64568, Control_c,2,64,127,
2,64586, Note_off_c,2,65,64,
2,64592, Note_off_c,2,51,64,
2,64592, Note_off_c,2,41,64,
2,64596, Note_off_c,2,77,64,
2,64598, Note_off_c,2,57,64,
2,64904, Control_c,2,64,0,
2,64910, Note_on_c,2,51,84,
2,64912, Note_on_c,2,57,80,
2,64976, Note_off_c,2,57,64,
2,64988, Note_off_c,2,51,64,
2,65168, Note_on_c,2,74,101,
2,65280, Note_off_c,2,74,64,
2,65296, Note_on_c,2,36,81,
2,65306, Note_on_c,2,71,84,
2,65344, Note_off_c,2,36,64,
2,65462, Note_off_c,2,71,64,
2,65542, Note_on_c,2,77,91,
2,65548, Note_on_c,2,67,92,
2,65590, Note_off_c,2,67,64,
2,65610, Note_off_c,2,77,64,
2,65672, Note_on_c,2,57,68,
2,65672, Note_on_c,2,51,81,
2,65754, Note_off_c,2,57,64,
2,65806, Note_off_c,2,51,64,
2,65932, Note_on_c,2,74,89,
2,66040, Note_off_c,2,74,64,
2,66054, Note_on_c,2,75,89,
2,66056, Note_on_c,2,56,76,
2,66058, Note_on_c,2,68,85,
2,66060, Note_on_c,2,67,57,
2,66060, Note_on_c,2,41,69,
2,66140, Note_off_c,2,41,64,
2,66168, Note_off_c,2,56,64,
2,66230, Note_off_c,2,67,64,
2,66230, Note_off_c,2,75,64,
2,66242, Note_off_c,2,68,64,
2,66304, Note_on_c,2,72,90,
2,66408, Note_off_c,2,72,64,
2,66434, Note_on_c,2,60,59,
2,66436, Note_on_c,2,53,58,
2,66440, Note_on_c,2,56,75,
2,66440, Note_on_c,2,68,84,
2,66528, Note_off_c,2,60,64,
2,66546, Note_off_c,2,53,64,
2,66554, Note_off_c,2,56,64,
2,66674, Note_off_c,2,68,64,
2,66696, Note_on_c,2,65,75,
2,66808, Note_off_c,2,65,64,
2,66814, Note_on_c,2,56,71,
2,66816, Note_on_c,2,46,80,
2,66818, Note_on_c,2,66,90,
2,66838, Note_on_c,2,67,75,
2,66842, Note_off_c,2,66,64,
2,66868, Note_off_c,2,46,64,
2,66880, Note_off_c,2,56,64,
2,67006, Note_off_c,2,67,64,
2,67086, Note_on_c,2,70,110,
2,67168, Note_off_c,2,70,64,
2,67204, Note_on_c,2,62,77,
2,67206, Note_on_c,2,56,78,
2,67208, Note_on_c,2,71,86,
2,67258, Note_off_c,2,62,64,
2,67272, Note_off_c,2,56,64,
2,67322, Note_off_c,2,71,64,
2,67328, Note_on_c,2,72,66,
2,67402, Note_off_c,2,72,64,
2,67456, Note_on_c,2,73,91,
2,67526, Note_off_c,2,73,64,
2,67578, Note_on_c,2,43,76,
2,67578, Note_on_c,2,53,69,
2,67584, Note_on_c,2,74,107,
2,67626, Note_off_c,2,43,64,
2,67648, Note_off_c,2,53,64,
2,67972, Note_on_c,2,53,72,
2,67974, Note_on_c,2,57,74,
2,67974, Note_on_c,2,62,73,
2,67976, Note_on_c,2,58,86,
2,68032, Note_off_c,2,58,64,
2,68036, Note_off_c,2,57,64,
2,68038, Note_off_c,2,62,64,
2,68040, Note_off_c,2,53,64,
2,68220, Note_off_c,2,74,64,
2,68278, Note_on_c,2,73,114,
2,68336, Note_off_c,2,73,64,
2,68372, Note_on_c,2,38,80,
2,68378, Note_on_c,2,74,98,
2,68410, Note_off_c,2,38,64,
2,68448, Note_off_c,2,74,64,
2,68484, Note_on_c,2,69,47,
2,68524, Note_off_c,2,69,64,
2,68560, Note_on_c,2,72,81,
2,68632, Note_off_c,2,72,64,
2,68656, Note_on_c,2,71,85,
2,68704, Note_off_c,2,71,64,
2,68740, Note_on_c,2,65,62,
2,68740, Note_on_c,2,55,64,
2,68742, Note_on_c,2,61,72,
2,68744, Note_on_c,2,58,79,
2,68744, Note_on_c,2,70,98,
2,68788, Note_off_c,2,61,64,
2,68792, Note_off_c,2,58,64,
2,68792, Note_off_c,2,65,64,
2,68796, Note_off_c,2,55,64,
2,68808, Note_off_c,2,70,64,
2,68852, Note_on_c,2,69,79,
2,68912, Note_off_c,2,69,64,
2,68920, Note_on_c,2,70,71,
2,68972, Note_off_c,2,70,64,
2,68974, Note_on_c,2,73,67,
2,69024, Note_off_c,2,73,64,
2,69028, Note_on_c,2,77,74,
2,69074, Note_off_c,2,77,64,
2,69112, Note_on_c,2,48,85,
2,69116, Note_on_c,2,79,110,
2,69156, Note_off_c,2,48,64,
2,69184, Note_off_c,2,79,64,
2,69216, Note_on_c,2,80,93,
2,69274, Note_off_c,2,80,64,
2,69308, Note_on_c,2,79,88,
2,69370, Note_off_c,2,79,64,
2,69408, Note_on_c,2,78,106,
2,69470, Note_off_c,2,78,64,
2,69496, Note_on_c,2,52,80,
2,69496, Note_on_c,2,58,88,
2,69500, Note_on_c,2,79,98,
2,69546, Note_off_c,2,79,64,
2,69552, Note_off_c,2,58,64,
2,69562, Note_off_c,2,52,64,
2,69602, Note_on_c,2,75,89,
2,69644, Note_off_c,2,75,64,
2,69688, Note_on_c,2,76,87,
2,69742, Note_off_c,2,76,64,
2,69788, Note_on_c,2,72,76,
2,69840, Note_off_c,2,72,64,
2,69862, Note_on_c,2,36,81,
2,69870, Note_on_c,2,73,98,
2,69916, Note_off_c,2,36,64,
2,69918, Note_off_c,2,73,64,
2,69964, Note_on_c,2,69,57,
2,70002, Note_off_c,2,69,64,
2,70026, Note_on_c,2,70,86,
2,70062, Note_off_c,2,70,64,
2,70092, Note_on_c,2,66,72,
2,70126, Note_off_c,2,66,64,
2,70136, Note_on_c,2,67,70,
2,70176, Note_off_c,2,67,64,
2,70206, Note_on_c,2,63,86,
2,70248, Note_off_c,2,63,64,
2,70254, Note_on_c,2,64,80,
2,70256, Note_on_c,2,58,73,
2,70256, Note_on_c,2,52,63,
2,70294, Note_off_c,2,64,64,
2,70296, Note_off_c,2,58,64,
2,70310, Note_off_c,2,52,64,
2,70318, Note_on_c,2,60,58,
2,70364, Note_off_c,2,60,64,
2,70372, Note_on_c,2,61,66,
2,70414, Note_off_c,2,61,64,
2,70428, Note_on_c,2,57,64,
2,70474, Note_off_c,2,57,64,
2,70486, Note_on_c,2,58,69,
2,70524, Note_off_c,2,58,64,
2,70528, Note_on_c,2,55,56,
2,70584, Note_on_c,2,56,66,
2,70590, Note_off_c,2,55,64,
2,70620, Note_off_c,2,56,64,
2,70628, Note_on_c,2,41,70,
2,70630, Note_on_c,2,48,71,
2,70680, Note_off_c,2,48,64,
2,70680, Note_off_c,2,41,64,
2,70682, Control_c,2,64,127,
2,71022, Control_c,2,64,0,
2,71042, Note_on_c,2,60,80,
2,71044, Note_on_c,2,79,106,
2,71044, Note_on_c,2,56,82,
2,71044, Note_on_c,2,55,77,
2,71068, Note_on_c,2,80,80,
2,71086, Note_off_c,2,56,64,
2,71088, Note_off_c,2,55,64,
2,71090, Note_off_c,2,60,64,
2,71098, Note_off_c,2,79,64,
2,71124, Note_off_c,2,80,64,
2,71148, Note_on_c,2,79,104,
2,71202, Note_off_c,2,79,64,
2,71238, Note_on_c,2,77,100,
2,71290, Note_off_c,2,77,64,
2,71336, Note_on_c,2,75,104,
2,71390, Note_off_c,2,75,64,
2,71430, Note_on_c,2,56,85,
2,71434, Note_on_c,2,46,87,
2,71436, Note_on_c,2,77,102,
2,71484, Note_off_c,2,46,64,
2,71496, Note_off_c,2,77,64,
2,71496, Note_off_c,2,56,64,
2,71500, Note_on_c,2,79,65,
2,71540, Note_off_c,2,79,64,
2,71546, Note_on_c,2,77,57,
2,71582, Note_off_c,2,77,64,
2,71586, Note_on_c,2,79,57,
2,71612, Note_off_c,2,79,64,
2,71624, Note_on_c,2,77,57,
2,71654, Note_off_c,2,77,64,
2,71658, Note_on_c,2,79,56,
2,71682, Note_off_c,2,79,64,
2,71690, Note_on_c,2,77,62,
2,71724, Note_on_c,2,79,65,
2,71728, Note_off_c,2,77,64,
2,71756, Note_on_c,2,77,75,
2,71776, Note_off_c,2,79,64,
2,71826, Note_on_c,2,62,58,
2,71828, Note_on_c,2,56,74,
2,71828, Note_on_c,2,65,79,
2,71858, Note_off_c,2,77,64,
2,71860, Control_c,2,64,127,
2,71884, Note_off_c,2,62,64,
2,71888, Note_off_c,2,65,64,
2,71890, Note_off_c,2,56,64,
2,72016, Note_on_c,2,79,88,
2,72072, Control_c,2,64,0,
2,72110, Note_on_c,2,80,63,
2,72134, Note_off_c,2,79,64,
2,72166, Note_on_c,2,81,57,
2,72200, Note_off_c,2,80,64,
2,72212, Note_on_c,2,43,68,
2,72214, Note_on_c,2,58,68,
2,72216, Note_on_c,2,82,98,
2,72218, Note_on_c,2,52,63,
2,72228, Note_off_c,2,81,64,
2,72274, Control_c,2,64,127,
2,72304, Note_off_c,2,52,64,
2,72304, Note_off_c,2,58,64,
2,72322, Note_off_c,2,43,64,
2,72590, Control_c,2,64,0,
2,72608, Note_on_c,2,40,79,
2,72608, Note_on_c,2,55,70,
2,72654, Control_c,2,64,127,
2,72708, Note_off_c,2,82,64,
2,72714, Note_off_c,2,55,64,
2,72714, Note_off_c,2,40,64,
2,72860, Note_on_c,2,84,45,
2,72880, Note_on_c,2,82,68,
2,72904, Note_on_c,2,81,46,
2,72912, Note_off_c,2,84,64,
2,72930, Control_c,2,64,0,
2,72932, Note_on_c,2,80,71,
2,72940, Note_off_c,2,82,64,
2,72952, Note_off_c,2,81,64,
2,72972, Note_on_c,2,79,67,
2,72976, Note_on_c,2,41,56,
2,72980, Note_off_c,2,80,64,
2,72980, Note_on_c,2,56,55,
2,72986, Note_on_c,2,50,68,
2,73012, Note_on_c,2,80,67,
2,73028, Note_off_c,2,79,64,
2,73094, Control_c,2,64,127,
2,73108, Note_off_c,2,50,64,
2,73108, Note_off_c,2,41,64,
2,73112, Note_off_c,2,80,64,
2,73136, Note_off_c,2,56,64,
2,73282, Note_on_c,2,91,47,
2,73316, Note_on_c,2,89,75,
2,73330, Control_c,2,64,0,
2,73342, Note_off_c,2,91,64,
2,73354, Note_on_c,2,86,59,
2,73364, Note_off_c,2,89,64,
2,73376, Note_on_c,2,84,70,
2,73382, Note_on_c,2,65,75,
2,73382, Note_on_c,2,56,68,
2,73384, Note_on_c,2,62,68,
2,73384, Note_on_c,2,60,55,
2,73388, Note_off_c,2,86,64,
2,73406, Note_off_c,2,84,64,
2,73418, Note_off_c,2,62,64,
2,73420, Note_off_c,2,65,64,
2,73424, Note_off_c,2,60,64,
2,73430, Note_on_c,2,82,68,
2,73436, Note_off_c,2,56,64,
2,73458, Note_on_c,2,80,74,
2,73472, Note_off_c,2,82,64,
2,73488, Note_on_c,2,77,68,
2,73496, Note_off_c,2,80,64,
2,73520, Note_off_c,2,77,64,
2,73520, Note_on_c,2,76,22,
2,73538, Note_off_c,2,76,64,
2,73538, Note_on_c,2,75,79,
2,73570, Note_on_c,2,74,68,
2,73600, Note_off_c,2,75,64,
2,73604, Note_on_c,2,73,85,
2,73624, Note_off_c,2,74,64,
2,73628, Note_on_c,2,72,69,
2,73638, Note_off_c,2,73,64,
2,73656, Note_on_c,2,71,35,
2,73662, Note_off_c,2,72,64,
2,73714, Note_on_c,2,70,77,
2,73720, Note_off_c,2,71,64,
2,73742, Note_on_c,2,69,69,
2,73748, Note_off_c,2,70,64,
2,73772, Note_on_c,2,46,79,
2,73772, Note_on_c,2,39,78,
2,73780, Note_on_c,2,68,71,
2,73808, Note_off_c,2,68,64,
2,73810, Note_on_c,2,67,27,
2,73846, Note_off_c,2,67,64,
2,73892, Control_c,2,64,127,
2,73894, Note_off_c,2,46,64,
2,73896, Note_off_c,2,39,64,
2,74126, Note_on_c,2,60,70,
2,74128, Note_on_c,2,58,84,
2,74128, Note_on_c,2,55,69,
2,74130, Note_on_c,2,51,80,
2,74164, Note_off_c,2,58,64,
2,74166, Note_off_c,2,60,64,
2,74168, Note_off_c,2,55,64,
2,74170, Note_off_c,2,51,64,
2,74262, Note_off_c,2,69,64,
2,74316, Note_on_c,2,69,103,
2,74366, Note_on_c,2,70,88,
2,74392, Note_off_c,2,69,64,
2,74400, Control_c,2,64,0,
2,74412, Note_on_c,2,71,53,
2,74432, Note_off_c,2,70,64,
2,74444, Note_on_c,2,72,81,
2,74470, Note_off_c,2,71,64,
2,74496, Note_off_c,2,72,64,
2,74500, Note_on_c,2,56,68,
2,74502, Note_on_c,2,41,70,
2,74504, Note_on_c,2,70,106,
2,74562, Control_c,2,64,127,
2,74576, Note_off_c,2,41,64,
2,74592, Note_off_c,2,56,64,
2,74868, Control_c,2,64,0,
2,74880, Note_on_c,2,57,86,
2,74880, Note_on_c,2,42,95,
2,74912, Note_off_c,2,70,64,
2,74948, Control_c,2,64,127,
2,75010, Note_off_c,2,42,64,
2,75030, Note_off_c,2,57,64,
2,75164, Note_on_c,2,50,65,
2,75258, Control_c,2,64,0,
2,75280, Note_on_c,2,58,87,
2,75282, Note_on_c,2,43,72,
2,75314, Note_off_c,2,50,64,
2,75354, Note_off_c,2,43,64,
2,75358, Note_on_c,2,65,66,
2,75380, Note_off_c,2,58,64,
2,75394, Note_on_c,2,70,81,
2,75402, Note_off_c,2,65,64,
2,75436, Note_on_c,2,74,64,
2,75456, Note_off_c,2,70,64,
2,75488, Note_on_c,2,75,88,
2,75504, Note_off_c,2,74,64,
2,75516, Note_off_c,2,75,64,
2,75546, Note_on_c,2,77,80,
2,75590, Note_off_c,2,77,64,
2,75616, Note_on_c,2,82,95,
2,75656, Note_off_c,2,82,64,
2,75686, Note_on_c,2,86,75,
2,75734, Note_off_c,2,86,64,
2,75762, Note_on_c,2,87,107,
2,75798, Note_off_c,2,87,64,
2,75824, Note_on_c,2,85,92,
2,75870, Note_off_c,2,85,64,
2,75876, Note_on_c,2,82,80,
2,75918, Note_on_c,2,80,76,
2,75930, Note_off_c,2,82,64,
2,75958, Note_on_c,2,76,73,
2,75962, Note_off_c,2,80,64,
2,76004, Note_off_c,2,76,64,
2,76008, Note_on_c,2,58,62,
2,76010, Note_on_c,2,52,74,
2,76010, Note_on_c,2,75,82,
2,76010, Note_on_c,2,48,55,
2,76048, Note_on_c,2,73,75,
2,76068, Note_off_c,2,75,64,
2,76080, Note_on_c,2,72,75,
2,76088, Note_off_c,2,73,64,
2,76104, Note_off_c,2,72,64,
2,76126, Note_on_c,2,70,81,
2,76168, Note_on_c,2,68,72,
2,76176, Note_off_c,2,70,64,
2,76198, Note_on_c,2,66,80,
2,76216, Note_off_c,2,68,64,
2,76232, Note_on_c,2,64,72,
2,76240, Note_off_c,2,66,64,
2,76280, Note_off_c,2,64,64,
2,76280, Note_on_c,2,63,71,
2,76322, Note_on_c,2,61,68,
2,76336, Note_off_c,2,63,64,
2,76344, Note_off_c,2,58,64,
2,76354, Note_on_c,2,60,75,
2,76366, Note_off_c,2,61,64,
2,76396, Note_off_c,2,60,64,
2,76396, Note_on_c,2,54,85,
2,76410, Note_off_c,2,52,64,
2,76410, Note_on_c,2,58,86,
2,76426, Note_off_c,2,54,64,
2,76428, Note_off_c,2,48,64,
2,76452, Note_on_c,2,57,53,
2,76456, Note_off_c,2,58,64,
2,76490, Note_off_c,2,57,64,
2,76500, Note_on_c,2,56,74,
2,76536, Note_on_c,2,55,65,
2,76542, Note_off_c,2,56,64,
2,76576, Note_off_c,2,55,64,
2,76582, Note_on_c,2,54,69,
2,76624, Note_off_c,2,54,64,
2,76624, Note_on_c,2,53,63,
2,76640, Note_on_c,2,36,66,
2,76658, Note_off_c,2,53,64,
2,76660, Note_on_c,2,52,77,
2,76688, Note_off_c,2,36,64,
2,76718, Note_on_c,2,51,75,
2,76720, Note_off_c,2,52,64,
2,76760, Note_off_c,2,51,64,
2,76760, Note_on_c,2,50,82,
2,76782, Note_on_c,2,29,99,
2,76812, Note_off_c,2,50,64,
2,76840, Control_c,2,64,127,
2,76842, Note_off_c,2,29,64,
2,77136, Note_on_c,2,61,70,
2,77138, Note_on_c,2,59,34,
2,77146, Control_c,2,64,0,
2,77150, Note_on_c,2,60,84,
2,77154, Note_off_c,2,61,64,
2,77164, Note_on_c,2,61,77,
2,77166, Note_off_c,2,59,64,
2,77172, Note_off_c,2,60,64,
2,77184, Note_on_c,2,63,109,
2,77184, Note_on_c,2,74,95,
2,77186, Note_on_c,2,67,87,
2,77188, Note_on_c,2,62,65,
2,77194, Note_off_c,2,61,64,
2,77276, Note_off_c,2,74,64,
2,77376, Note_off_c,2,63,64,
2,77390, Note_on_c,2,72,85,
2,77392, Note_on_c,2,60,93,
2,77394, Note_on_c,2,63,64,
2,77414, Note_off_c,2,62,64,
2,77438, Control_c,2,64,127,
2,77444, Note_off_c,2,60,64,
2,77466, Note_off_c,2,67,64,
2,77472, Note_off_c,2,72,64,
2,77480, Note_off_c,2,63,64,
2,77576, Control_c,2,64,0,
2,77580, Note_on_c,2,71,88,
2,77582, Note_on_c,2,63,95,
2,77582, Note_on_c,2,60,84,
2,77582, Note_on_c,2,59,86,
2,77660, Control_c,2,64,127,
2,77664, Note_off_c,2,71,64,
2,77772, Note_on_c,2,57,89,
2,77776, Note_on_c,2,69,88,
2,77780, Note_off_c,2,59,64,
2,77800, Note_off_c,2,63,64,
2,77810, Note_off_c,2,57,64,
2,77816, Note_off_c,2,69,64,
2,77824, Note_off_c,2,60,64,
2,77950, Control_c,2,64,0,
2,77964, Note_on_c,2,60,74,
2,77964, Note_on_c,2,57,79,
2,77964, Note_on_c,2,67,79,
2,77964, Note_on_c,2,63,82,
2,77964, Note_on_c,2,55,73,
2,78054, Control_c,2,64,127,
2,78058, Note_off_c,2,67,64,
2,78148, Note_on_c,2,53,87,
2,78150, Note_on_c,2,65,92,
2,78162, Note_off_c,2,55,64,
2,78168, Note_off_c,2,63,64,
2,78178, Note_off_c,2,60,64,
2,78180, Note_off_c,2,53,64,
2,78202, Note_off_c,2,57,64,
2,78224, Note_off_c,2,65,64,
2,78328, Note_on_c,2,63,89,
2,78330, Control_c,2,64,0,
2,78330, Note_on_c,2,56,90,
2,78332, Note_on_c,2,55,73,
2,78332, Note_on_c,2,51,89,
2,78424, Control_c,2,64,127,
2,78436, Note_off_c,2,55,64,
2,78440, Note_off_c,2,56,64,
2,78458, Note_off_c,2,63,64,
2,78720, Control_c,2,64,0,
2,78726, Note_on_c,2,41,81,
2,78732, Note_on_c,2,66,115,
2,78736, Note_on_c,2,75,108,
2,78758, Note_on_c,2,67,81,
2,78794, Note_off_c,2,41,64,
2,78812, Note_off_c,2,66,64,
2,78818, Note_off_c,2,67,64,
2,78824, Note_off_c,2,51,64,
2,78828, Note_off_c,2,75,64,
2,78866, Note_on_c,2,68,96,
2,78870, Note_on_c,2,75,78,
2,78934, Note_off_c,2,68,64,
2,78944, Note_off_c,2,75,64,
2,78988, Note_on_c,2,69,95,
2,78990, Note_on_c,2,75,98,
2,79070, Note_off_c,2,69,64,
2,79076, Note_off_c,2,75,64,
2,79112, Note_on_c,2,56,77,
2,79114, Note_on_c,2,46,82,
2,79122, Note_on_c,2,75,101,
2,79122, Note_on_c,2,70,104,
2,79184, Note_off_c,2,70,64,
2,79184, Note_off_c,2,75,64,
2,79252, Note_on_c,2,63,70,
2,79286, Note_off_c,2,63,64,
2,79382, Note_on_c,2,75,102,
2,79382, Note_on_c,2,68,103,
2,79448, Note_off_c,2,68,64,
2,79448, Note_off_c,2,75,64,
2,79498, Note_on_c,2,66,94,
2,79500, Note_on_c,2,75,86,
2,79506, Note_on_c,2,53,79,
2,79522, Note_on_c,2,67,79,
2,79532, Note_off_c,2,66,64,
2,79552, Note_off_c,2,56,64,
2,79568, Note_off_c,2,75,64,
2,79592, Note_off_c,2,67,64,
2,79622, Control_c,2,64,127,
2,79628, Note_on_c,2,63,91,
2,79638, Note_off_c,2,53,64,
2,79656, Note_off_c,2,46,64,
2,79660, Note_off_c,2,63,64,
2,79756, Note_on_c,2,56,78,
2,79758, Note_on_c,2,62,67,
2,79824, Note_off_c,2,56,64,
2,79830, Note_off_c,2,62,64,
2,79872, Control_c,2,64,0,
2,79890, Note_on_c,2,63,101,
2,79892, Note_on_c,2,55,85,
2,79892, Note_on_c,2,46,86,
2,79892, Note_on_c,2,39,81,
2,79968, Note_off_c,2,55,64,
2,79968, Control_c,2,64,127,
2,79994, Note_off_c,2,63,64,
2,80038, Note_off_c,2,39,64,
2,80040, Note_off_c,2,46,64,
2,80272, Control_c,2,64,0,
2,80282, Note_on_c,2,54,103,
2,80286, Note_on_c,2,55,83,
2,80290, Note_on_c,2,65,100,
2,80290, Note_on_c,2,66,114,
2,80300, Note_on_c,2,67,99,
2,80302, Note_off_c,2,54,64,
2,80314, Note_off_c,2,66,64,
2,80334, Note_off_c,2,65,64,
2,80418, Note_on_c,2,70,73,
2,80424, Note_off_c,2,67,64,
2,80440, Control_c,2,64,127,
2,80528, Note_off_c,2,55,64,
2,80534, Note_off_c,2,70,64,
2,80536, Note_on_c,2,72,76,
2,80626, Note_off_c,2,72,64,
2,80652, Control_c,2,64,0,
2,80666, Note_on_c,2,55,83,
2,80668, Note_on_c,2,70,105,
2,80736, Control_c,2,64,127,
2,80776, Note_off_c,2,70,64,
2,80826, Note_off_c,2,55,64,
2,80908, Note_on_c,2,44,86,
2,81002, Control_c,2,64,0,
2,81036, Note_on_c,2,65,85,
2,81036, Note_on_c,2,60,79,
2,81038, Note_on_c,2,55,74,
2,81086, Control_c,2,64,127,
2,81090, Note_off_c,2,44,64,
2,81098, Note_off_c,2,55,64,
2,81108, Note_off_c,2,65,64,
2,81110, Note_off_c,2,60,64,
2,81272, Note_on_c,2,45,77,
2,81274, Note_on_c,2,66,95,
2,81274, Note_on_c,2,63,95,
2,81276, Note_on_c,2,60,81,
2,81310, Note_off_c,2,45,64,
2,81320, Note_off_c,2,63,64,
2,81322, Note_off_c,2,60,64,
2,81332, Note_off_c,2,66,64,
2,81406, Control_c,2,64,0,
2,81412, Note_on_c,2,61,76,
2,81412, Note_on_c,2,65,80,
2,81416, Note_on_c,2,56,78,
2,81420, Note_on_c,2,46,76,
2,81536, Control_c,2,64,127,
2,81658, Note_on_c,2,68,90,
2,81730, Note_off_c,2,65,64,
2,81768, Note_off_c,2,61,64,
2,81792, Note_on_c,2,53,88,
2,81796, Note_on_c,2,70,94,
2,81824, Note_off_c,2,56,64,
2,81832, Note_off_c,2,46,64,
2,81834, Note_off_c,2,68,64,
2,81848, Note_off_c,2,53,64,
2,81876, Note_off_c,2,70,64,
2,82004, Control_c,2,64,0,
2,82032, Note_on_c,2,61,88,
2,82032, Note_on_c,2,66,91,
2,82034, Note_on_c,2,64,86,
2,82034, Note_on_c,2,72,82,
2,82086, Note_off_c,2,61,64,
2,82088, Note_off_c,2,64,64,
2,82094, Note_off_c,2,66,64,
2,82108, Note_off_c,2,72,64,
2,82180, Note_on_c,2,45,66,
2,82184, Note_on_c,2,55,61,
2,82206, Control_c,2,64,127,
2,82236, Note_off_c,2,45,64,
2,82238, Note_off_c,2,55,64,
2,82392, Control_c,2,64,0,
2,82422, Note_on_c,2,78,96,
2,82422, Note_on_c,2,71,90,
2,82422, Note_on_c,2,67,84,
2,82424, Note_on_c,2,73,94,
2,82458, Note_off_c,2,67,64,
2,82460, Note_off_c,2,71,64,
2,82464, Note_off_c,2,73,64,
2,82474, Note_off_c,2,78,64,
2,82568, Note_on_c,2,55,60,
2,82568, Note_on_c,2,61,70,
2,82568, Note_on_c,2,59,73,
2,82586, Control_c,2,64,127,
2,82646, Note_off_c,2,61,64,
2,82650, Note_off_c,2,59,64,
2,82664, Note_off_c,2,55,64,
2,82816, Note_on_c,2,75,119,
2,82866, Control_c,2,64,0,
2,82944, Note_off_c,2,75,64,
2,82950, Note_on_c,2,32,79,
2,82952, Note_on_c,2,39,66,
2,82960, Note_on_c,2,77,67,
2,83018, Note_off_c,2,39,64,
2,83018, Note_off_c,2,32,64,
2,83024, Note_off_c,2,77,64,
2,83196, Note_on_c,2,77,77,
2,83196, Note_on_c,2,75,87,
2,83302, Note_off_c,2,77,64,
2,83320, Note_on_c,2,60,65,
2,83322, Note_on_c,2,55,57,
2,83326, Note_on_c,2,56,78,
2,83328, Note_on_c,2,74,77,
2,83334, Note_off_c,2,75,64,
2,83370, Note_off_c,2,60,64,
2,83380, Note_off_c,2,56,64,
2,83384, Note_off_c,2,55,64,
2,83536, Note_off_c,2,74,64,
2,83588, Note_on_c,2,75,92,
2,83648, Note_off_c,2,75,64,
2,83712, Note_on_c,2,78,92,
2,83714, Note_on_c,2,84,80,
2,83716, Note_on_c,2,72,73,
2,83718, Note_on_c,2,39,86,
2,83756, Note_off_c,2,78,64,
2,83756, Note_on_c,2,79,37,
2,83762, Note_off_c,2,39,64,
2,83794, Note_off_c,2,72,64,
2,83890, Note_off_c,2,84,64,
2,83902, Note_off_c,2,79,64,
2,83968, Note_on_c,2,78,102,
2,83970, Note_on_c,2,84,87,
2,83972, Note_on_c,2,72,86,
2,83988, Note_on_c,2,79,55,
2,84008, Note_off_c,2,78,64,
2,84020, Note_off_c,2,72,64,
2,84080, Note_off_c,2,79,64,
2,84092, Note_off_c,2,84,64,
2,84104, Note_on_c,2,54,103,
2,84124, Control_c,2,64,127,
2,84156, Note_off_c,2,54,64,
2,84356, Note_on_c,2,43,86,
2,84400, Control_c,2,64,0,
2,84488, Note_on_c,2,84,81,
2,84488, Note_on_c,2,77,75,
2,84490, Note_on_c,2,72,81,
2,84490, Note_on_c,2,58,89,
2,84532, Control_c,2,64,127,
2,84538, Note_off_c,2,77,64,
2,84544, Note_off_c,2,72,64,
2,84548, Note_off_c,2,58,64,
2,84552, Note_off_c,2,84,64,
2,84552, Note_off_c,2,43,64,
2,84720, Note_on_c,2,73,54,
2,84732, Note_on_c,2,77,69,
2,84736, Note_on_c,2,85,88,
2,84740, Note_on_c,2,80,80,
2,84774, Control_c,2,64,0,
2,84800, Note_off_c,2,73,64,
2,84814, Note_off_c,2,77,64,
2,84822, Note_off_c,2,80,64,
2,84824, Note_off_c,2,85,64,
2,84862, Note_on_c,2,55,56,
2,84862, Note_on_c,2,65,68,
2,84864, Note_on_c,2,61,70,
2,84864, Note_on_c,2,58,77,
2,84866, Note_on_c,2,80,62,
2,84868, Note_on_c,2,72,60,
2,84868, Note_on_c,2,77,54,
2,84872, Note_on_c,2,84,77,
2,84898, Control_c,2,64,127,
2,84922, Note_off_c,2,61,64,
2,84928, Note_off_c,2,65,64,
2,84934, Note_off_c,2,58,64,
2,84936, Note_off_c,2,55,64,
2,84948, Note_off_c,2,84,64,
2,84958, Note_off_c,2,72,64,
2,84960, Note_off_c,2,77,64,
2,84970, Note_off_c,2,80,64,
2,85108, Note_on_c,2,71,69,
2,85108, Note_on_c,2,77,64,
2,85112, Note_on_c,2,83,61,
2,85158, Note_off_c,2,71,64,
2,85184, Note_off_c,2,83,64,
2,85192, Note_off_c,2,77,64,
2,85218, Control_c,2,64,0,
2,85240, Note_on_c,2,52,70,
2,85242, Note_on_c,2,36,67,
2,85246, Note_on_c,2,72,69,
2,85252, Note_on_c,2,84,85,
2,85252, Note_on_c,2,79,84,
2,85312, Note_off_c,2,52,64,
2,85316, Note_off_c,2,36,64,
2,85322, Control_c,2,64,127,
2,85366, Note_off_c,2,72,64,
2,85376, Note_off_c,2,79,64,
2,85388, Note_off_c,2,84,64,
2,85484, Control_c,2,64,0,
2,85492, Note_on_c,2,72,75,
2,85496, Note_on_c,2,79,92,
2,85498, Note_on_c,2,84,91,
2,85610, Note_off_c,2,72,64,
2,85628, Control_c,2,64,127,
2,85632, Note_on_c,2,42,94,
2,85632, Note_on_c,2,58,88,
2,85638, Note_off_c,2,79,64,
2,85664, Note_off_c,2,84,64,
2,85756, Note_off_c,2,58,64,
2,85762, Note_off_c,2,42,64,
2,85850, Note_on_c,2,101,98,
2,85900, Note_off_c,2,101,64,
2,85916, Note_on_c,2,103,95,
2,85956, Note_off_c,2,103,64,
2,85968, Control_c,2,64,0,
2,85992, Note_on_c,2,101,95,
2,85994, Note_on_c,2,56,87,
2,85998, Note_on_c,2,41,79,
2,86030, Note_off_c,2,101,64,
2,86056, Note_on_c,2,98,85,
2,86080, Note_off_c,2,98,64,
2,86114, Note_on_c,2,95,48,
2,86136, Note_off_c,2,95,64,
2,86164, Note_on_c,2,92,85,
2,86200, Note_off_c,2,92,64,
2,86206, Note_on_c,2,89,72,
2,86228, Note_off_c,2,89,64,
2,86262, Note_on_c,2,86,46,
2,86290, Note_off_c,2,86,64,
2,86290, Note_on_c,2,84,79,
2,86322, Note_off_c,2,84,64,
2,86344, Note_on_c,2,80,95,
2,86362, Note_on_c,2,50,76,
2,86390, Note_off_c,2,80,64,
2,86390, Note_on_c,2,77,71,
2,86416, Note_off_c,2,77,64,
2,86416, Note_on_c,2,76,33,
2,86436, Note_off_c,2,76,64,
2,86448, Note_on_c,2,74,54,
2,86476, Note_on_c,2,72,82,
2,86486, Note_off_c,2,74,64,
2,86510, Note_off_c,2,72,64,
2,86534, Note_on_c,2,68,83,
2,86580, Note_off_c,2,68,64,
2,86582, Note_off_c,2,56,64,
2,86582, Note_on_c,2,65,65,
2,86606, Note_off_c,2,65,64,
2,86638, Note_on_c,2,62,39,
2,86666, Note_off_c,2,62,64,
2,86672, Note_on_c,2,60,79,
2,86736, Note_on_c,2,56,102,
2,86758, Note_off_c,2,50,64,
2,86766, Note_off_c,2,60,64,
2,86776, Control_c,2,64,127,
2,86860, Note_off_c,2,56,64,
2,86900, Note_off_c,2,41,64,
2,86948, Note_on_c,2,56,90,
2,87104, Note_on_c,2,53,71,
2,87116, Note_on_c,2,54,89,
2,87132, Note_off_c,2,53,64,
2,87142, Control_c,2,64,0,
2,87144, Note_off_c,2,56,64,
2,87148, Note_on_c,2,55,66,
2,87152, Note_off_c,2,54,64,
2,87158, Note_on_c,2,60,84,
2,87272, Note_off_c,2,60,64,
2,87272, Note_on_c,2,63,91,
2,87276, Note_on_c,2,53,74,
2,87304, Note_off_c,2,55,64,
2,87362, Note_off_c,2,63,64,
2,87366, Note_on_c,2,51,94,
2,87368, Note_on_c,2,65,82,
2,87378, Note_off_c,2,53,64,
2,87452, Note_off_c,2,65,64,
2,87468, Note_on_c,2,66,99,
2,87538, Note_off_c,2,66,64,
2,87562, Note_on_c,2,45,75,
2,87564, Note_on_c,2,63,92,
2,87568, Note_on_c,2,57,79,
2,87568, Note_on_c,2,60,77,
2,87614, Control_c,2,64,127,
2,87656, Note_off_c,2,57,64,
2,87666, Note_off_c,2,60,64,
2,87670, Note_off_c,2,45,64,
2,87670, Note_off_c,2,51,64,
2,87674, Note_off_c,2,63,64,
2,87888, Note_on_c,2,60,56,
2,87908, Note_on_c,2,61,68,
2,87930, Note_off_c,2,60,64,
2,87936, Control_c,2,64,0,
2,87960, Note_on_c,2,62,82,
2,87960, Note_on_c,2,63,96,
2,87960, Note_on_c,2,66,90,
2,87960, Note_on_c,2,74,92,
2,87964, Note_off_c,2,61,64,
2,87964, Note_on_c,2,69,77,
2,88064, Note_off_c,2,74,64,
2,88094, Note_on_c,2,60,67,
2,88098, Note_off_c,2,63,64,
2,88102, Note_off_c,2,66,64,
2,88102, Note_on_c,2,72,55,
2,88104, Note_off_c,2,62,64,
2,88126, Note_off_c,2,69,64,
2,88132, Note_off_c,2,60,64,
2,88152, Note_off_c,2,72,64,
2,88212, Note_on_c,2,62,81,
2,88216, Note_on_c,2,74,64,
2,88218, Note_on_c,2,63,57,
2,88220, Note_on_c,2,66,57,
2,88226, Note_on_c,2,69,54,
2,88268, Note_off_c,2,66,64,
2,88268, Note_off_c,2,63,64,
2,88280, Note_off_c,2,74,64,
2,88280, Note_off_c,2,62,64,
2,88300, Note_off_c,2,69,64,
2,88340, Note_on_c,2,60,94,
2,88340, Note_on_c,2,66,86,
2,88340, Note_on_c,2,72,79,
2,88342, Note_on_c,2,63,87,
2,88368, Control_c,2,64,127,
2,88404, Note_off_c,2,60,64,
2,88450, Note_off_c,2,63,64,
2,88454, Note_off_c,2,72,64,
2,88460, Note_off_c,2,66,64,
2,88700, Control_c,2,64,0,
2,88720, Note_on_c,2,54,112,
2,88722, Note_on_c,2,55,93,
2,88744, Note_off_c,2,54,64,
2,88808, Control_c,2,64,127,
2,88888, Note_off_c,2,55,64,
2,88974, Note_on_c,2,43,74,
2,89040, Control_c,2,64,0,
2,89116, Note_on_c,2,58,87,
2,89182, Note_on_c,2,72,57,
2,89216, Note_off_c,2,72,64,
2,89220, Note_on_c,2,75,66,
2,89248, Note_on_c,2,79,72,
2,89256, Note_off_c,2,75,64,
2,89280, Note_off_c,2,79,64,
2,89288, Note_on_c,2,84,96,
2,89320, Note_off_c,2,84,64,
2,89344, Note_on_c,2,79,81,
2,89388, Note_off_c,2,79,64,
2,89400, Note_on_c,2,75,76,
2,89426, Note_off_c,2,75,64,
2,89446, Note_on_c,2,72,57,
2,89470, Note_off_c,2,72,64,
2,89486, Note_on_c,2,70,73,
2,89490, Note_on_c,2,51,79,
2,89518, Note_on_c,2,69,52,
2,89524, Note_off_c,2,70,64,
2,89524, Note_off_c,2,58,64,
2,89534, Note_off_c,2,43,64,
2,89556, Note_on_c,2,68,72,
2,89564, Note_off_c,2,69,64,
2,89580, Note_on_c,2,67,57,
2,89588, Note_off_c,2,68,64,
2,89622, Note_off_c,2,67,64,
2,89632, Note_on_c,2,66,76,
2,89668, Note_off_c,2,66,64,
2,89672, Note_on_c,2,65,56,
2,89700, Note_off_c,2,65,64,
2,89706, Note_on_c,2,64,84,
2,89752, Note_off_c,2,64,64,
2,89760, Note_on_c,2,63,82,
2,89804, Note_off_c,2,63,64,
2,89804, Note_on_c,2,61,66,
2,89832, Note_off_c,2,61,64,
2,89840, Note_on_c,2,62,68,
2,89850, Note_on_c,2,54,68,
2,89850, Note_on_c,2,44,82,
2,89892, Note_off_c,2,62,64,
2,89900, Note_on_c,2,66,86,
2,89906, Note_off_c,2,44,64,
2,89906, Note_off_c,2,51,64,
2,89922, Note_off_c,2,54,64,
2,89936, Note_off_c,2,66,64,
2,89956, Note_on_c,2,70,95,
2,89978, Note_off_c,2,70,64,
2,90000, Note_on_c,2,74,88,
2,90040, Note_off_c,2,74,64,
2,90052, Note_on_c,2,78,79,
2,90086, Note_on_c,2,82,95,
2,90092, Note_off_c,2,78,64,
2,90124, Note_off_c,2,82,64,
2,90152, Note_on_c,2,85,104,
2,90160, Note_on_c,2,74,105,
2,90200, Note_on_c,2,86,92,
2,90206, Note_off_c,2,74,64,
2,90206, Note_off_c,2,85,64,
2,90228, Note_on_c,2,60,70,
2,90230, Note_on_c,2,54,71,
2,90240, Note_off_c,2,86,64,
2,90264, Note_on_c,2,74,38,
2,90284, Note_on_c,2,86,81,
2,90292, Note_off_c,2,74,64,
2,90304, Note_off_c,2,60,64,
2,90316, Note_off_c,2,54,64,
2,90316, Note_on_c,2,74,59,
2,90318, Note_off_c,2,86,64,
2,90360, Note_off_c,2,74,64,
2,90364, Note_on_c,2,86,80,
2,90390, Note_off_c,2,86,64,
2,90402, Note_on_c,2,74,59,
2,90430, Note_off_c,2,74,64,
2,90438, Note_on_c,2,86,80,
2,90468, Note_off_c,2,86,64,
2,90480, Note_on_c,2,74,61,
2,90504, Note_off_c,2,74,64,
2,90516, Note_on_c,2,86,74,
2,90536, Note_off_c,2,86,64,
2,90550, Note_on_c,2,74,68,
2,90580, Note_on_c,2,51,87,
2,90582, Note_on_c,2,57,80,
2,90584, Note_off_c,2,74,64,
2,90586, Note_on_c,2,86,77,
2,90616, Note_on_c,2,74,61,
2,90620, Note_off_c,2,86,64,
2,90658, Note_on_c,2,86,79,
2,90660, Note_off_c,2,74,64,
2,90668, Control_c,2,64,127,
2,90692, Note_off_c,2,86,64,
2,90698, Note_on_c,2,74,49,
2,90754, Note_on_c,2,86,16,
2,90764, Note_off_c,2,74,64,
2,90778, Note_off_c,2,86,64,
2,90996, Control_c,2,64,0,
2,91020, Note_on_c,2,41,86,
2,91020, Note_on_c,2,75,107,
2,91024, Note_on_c,2,82,108,
2,91026, Note_on_c,2,87,105,
2,91094, Note_off_c,2,41,64,
2,91100, Control_c,2,64,127,
2,91102, Note_off_c,2,51,64,
2,91110, Note_off_c,2,57,64,
2,91118, Note_off_c,2,82,64,
2,91130, Note_off_c,2,75,64,
2,91138, Note_off_c,2,87,64,
2,91290, Note_on_c,2,76,89,
2,91292, Note_on_c,2,82,102,
2,91294, Note_on_c,2,88,101,
2,91348, Note_off_c,2,76,64,
2,91352, Note_off_c,2,82,64,
2,91376, Note_off_c,2,88,64,
2,91396, Control_c,2,64,0,
2,91416, Note_on_c,2,57,72,
2,91416, Note_on_c,2,62,71,
2,91418, Note_on_c,2,51,80,
2,91420, Note_on_c,2,77,71,
2,91424, Note_on_c,2,82,95,
2,91430, Note_on_c,2,89,101,
2,91494, Note_off_c,2,77,64,
2,91498, Note_off_c,2,89,64,
2,91498, Note_off_c,2,82,64,
2,91552, Note_on_c,2,82,72,
2,91552, Note_on_c,2,76,55,
2,91562, Note_on_c,2,88,49,
2,91592, Note_off_c,2,76,64,
2,91604, Note_off_c,2,88,64,
2,91606, Note_off_c,2,82,64,
2,91654, Note_on_c,2,75,80,
2,91660, Note_on_c,2,82,73,
2,91670, Note_on_c,2,87,90,
2,91726, Note_off_c,2,75,64,
2,91736, Note_off_c,2,82,64,
2,91740, Note_off_c,2,87,64,
2,91780, Note_on_c,2,55,76,
2,91780, Note_on_c,2,74,73,
2,91784, Note_on_c,2,86,91,
2,91796, Control_c,2,64,127,
2,91802, Note_off_c,2,51,64,
2,91830, Note_off_c,2,62,64,
2,91834, Note_off_c,2,57,64,
2,91838, Note_off_c,2,55,64,
2,91854, Note_off_c,2,86,64,
2,91878, Note_off_c,2,74,64,
2,92030, Note_on_c,2,84,107,
2,92084, Note_off_c,2,84,64,
2,92156, Control_c,2,64,0,
2,92166, Note_on_c,2,56,84,
2,92168, Note_on_c,2,41,77,
2,92170, Note_on_c,2,82,111,
2,92238, Note_off_c,2,82,64,
2,92274, Note_on_c,2,72,59,
2,92314, Note_off_c,2,72,64,
2,92368, Note_on_c,2,75,64,
2,92422, Note_off_c,2,75,64,
2,92458, Note_on_c,2,82,106,
2,92508, Note_off_c,2,82,64,
2,92552, Note_on_c,2,80,106,
2,92614, Note_off_c,2,80,64,
2,92650, Note_on_c,2,72,33,
2,92692, Note_off_c,2,72,64,
2,92732, Note_on_c,2,75,69,
2,92768, Note_off_c,2,41,64,
2,92768, Control_c,2,64,127,
2,92790, Note_off_c,2,75,64,
2,92804, Note_off_c,2,56,64,
2,92830, Note_on_c,2,79,89,
2,92882, Note_off_c,2,79,64,
2,92900, Control_c,2,64,0,
2,92924, Note_on_c,2,77,80,
2,92926, Note_on_c,2,43,64,
2,92950, Note_on_c,2,79,38,
2,92952, Note_off_c,2,77,64,
2,92972, Note_on_c,2,77,79,
2,93006, Note_off_c,2,79,64,
2,93058, Note_on_c,2,76,91,
2,93070, Note_off_c,2,77,64,
2,93108, Note_off_c,2,76,64,
2,93144, Note_on_c,2,72,75,
2,93194, Note_off_c,2,72,64,
2,93238, Note_on_c,2,68,101,
2,93282, Note_off_c,2,68,64,
2,93296, Note_on_c,2,58,79,
2,93328, Note_on_c,2,67,57,
2,93348, Note_on_c,2,68,75,
2,93356, Note_off_c,2,67,64,
2,93378, Note_on_c,2,67,75,
2,93402, Note_off_c,2,68,64,
2,93416, Note_off_c,2,58,64,
2,93418, Note_on_c,2,65,79,
2,93440, Note_off_c,2,67,64,
2,93448, Note_off_c,2,43,64,
2,93480, Note_off_c,2,65,64,
2,93494, Note_on_c,2,64,71,
2,93568, Note_off_c,2,64,64,
2,93596, Note_on_c,2,67,89,
2,93648, Note_off_c,2,67,64,
2,93678, Note_on_c,2,56,77,
2,93678, Note_on_c,2,41,69,
2,93680, Note_on_c,2,65,92,
2,93734, Note_off_c,2,65,64,
2,93796, Note_on_c,2,65,82,
2,93808, Note_on_c,2,63,88,
2,93848, Note_off_c,2,65,64,
2,93884, Note_on_c,2,60,57,
2,93888, Note_off_c,2,63,64,
2,93948, Note_off_c,2,60,64,
2,93984, Note_on_c,2,61,99,
2,94036, Note_off_c,2,61,64,
2,94066, Note_on_c,2,62,71,
2,94068, Note_on_c,2,48,75,
2,94170, Note_off_c,2,41,64,
2,94172, Note_off_c,2,48,64,
2,94182, Note_on_c,2,66,80,
2,94188, Note_off_c,2,62,64,
2,94216, Note_off_c,2,56,64,
2,94242, Note_off_c,2,66,64,
2,94256, Note_on_c,2,70,96,
2,94330, Note_off_c,2,70,64,
2,94366, Note_on_c,2,73,98,
2,94416, Note_off_c,2,73,64,
2,94446, Note_on_c,2,72,82,
2,94448, Note_on_c,2,58,85,
2,94448, Note_on_c,2,43,72,
2,94538, Note_off_c,2,72,64,
2,94562, Note_on_c,2,73,100,
2,94616, Note_off_c,2,73,64,
2,94630, Note_off_c,2,43,64,
2,94642, Note_on_c,2,72,67,
2,94724, Note_off_c,2,72,64,
2,94760, Note_on_c,2,70,102,
2,94806, Note_off_c,2,70,64,
2,94820, Note_on_c,2,48,74,
2,94838, Note_on_c,2,68,72,
2,94860, Note_off_c,2,68,64,
2,94876, Note_on_c,2,70,71,
2,94884, Note_off_c,2,48,64,
2,94890, Note_off_c,2,58,64,
2,94900, Note_on_c,2,68,53,
2,94926, Note_off_c,2,70,64,
2,94958, Note_on_c,2,64,74,
2,94964, Note_off_c,2,68,64,
2,95016, Note_off_c,2,64,64,
2,95024, Note_on_c,2,63,87,
2,95096, Note_off_c,2,63,64,
2,95150, Note_on_c,2,61,96,
2,95212, Note_off_c,2,61,64,
2,95224, Note_on_c,2,60,82,
2,95224, Note_on_c,2,56,81,
2,95228, Note_on_c,2,41,73,
2,95258, Control_c,2,64,127,
2,95276, Note_off_c,2,60,64,
2,95300, Note_off_c,2,41,64,
2,95312, Note_off_c,2,56,64,
2,95586, Note_on_c,2,53,69,
2,95598, Control_c,2,64,0,
2,95618, Note_on_c,2,56,89,
2,95626, Note_on_c,2,68,71,
2,95636, Note_on_c,2,60,89,
2,95642, Note_on_c,2,72,80,
2,95648, Note_on_c,2,75,96,
2,95652, Note_on_c,2,80,103,
2,95686, Control_c,2,64,127,
2,95692, Note_off_c,2,60,64,
2,95702, Note_off_c,2,53,64,
2,95712, Note_off_c,2,56,64,
2,95716, Note_off_c,2,68,64,
2,95720, Note_off_c,2,80,64,
2,95722, Note_off_c,2,72,64,
2,95726, Note_off_c,2,75,64,
2,95752, Note_on_c,2,72,66,
2,95752, Note_on_c,2,75,66,
2,95756, Note_on_c,2,67,75,
2,95762, Note_on_c,2,79,88,
2,95808, Note_off_c,2,79,64,
2,95816, Note_off_c,2,67,64,
2,95816, Note_off_c,2,75,64,
2,95820, Note_off_c,2,72,64,
2,95856, Note_on_c,2,77,86,
2,95856, Note_on_c,2,65,86,
2,95920, Note_off_c,2,77,64,
2,95924, Note_off_c,2,65,64,
2,95988, Control_c,2,64,0,
2,96004, Note_on_c,2,46,94,
2,96006, Note_on_c,2,64,101,
2,96008, Note_on_c,2,76,95,
2,96076, Control_c,2,64,127,
2,96096, Note_off_c,2,64,64,
2,96100, Note_off_c,2,46,64,
2,96102, Note_off_c,2,76,64,
2,96254, Control_c,2,64,0,
2,96264, Note_on_c,2,65,70,
2,96268, Note_on_c,2,68,88,
2,96268, Note_on_c,2,72,84,
2,96276, Note_on_c,2,77,91,
2,96362, Control_c,2,64,127,
2,96398, Note_on_c,2,56,87,
2,96400, Note_on_c,2,62,80,
2,96402, Note_on_c,2,60,83,
2,96412, Note_off_c,2,68,64,
2,96416, Note_off_c,2,65,64,
2,96424, Note_off_c,2,72,64,
2,96444, Note_off_c,2,77,64,
2,96460, Note_off_c,2,62,64,
2,96464, Note_off_c,2,60,64,
2,96474, Note_off_c,2,56,64,
2,96646, Note_on_c,2,43,94,
2,96672, Control_c,2,64,0,
2,96772, Note_on_c,2,52,83,
2,96774, Note_on_c,2,58,95,
2,96778, Note_on_c,2,70,104,
2,96778, Note_on_c,2,73,100,
2,96780, Note_on_c,2,76,91,
2,96780, Note_on_c,2,82,104,
2,96816, Control_c,2,64,127,
2,96848, Note_off_c,2,43,64,
2,96852, Note_off_c,2,52,64,
2,96872, Note_off_c,2,58,64,
2,96876, Note_off_c,2,82,64,
2,96890, Note_off_c,2,70,64,
2,96892, Note_off_c,2,76,64,
2,96892, Note_off_c,2,73,64,
2,97024, Note_on_c,2,68,99,
2,97024, Note_on_c,2,80,105,
2,97028, Note_on_c,2,73,96,
2,97104, Note_off_c,2,80,64,
2,97108, Note_off_c,2,68,64,
2,97110, Note_off_c,2,73,64,
2,97146, Control_c,2,64,0,
2,97150, Note_on_c,2,55,72,
2,97152, Note_on_c,2,61,79,
2,97152, Note_on_c,2,64,74,
2,97154, Note_on_c,2,58,86,
2,97158, Note_on_c,2,73,95,
2,97160, Note_on_c,2,79,88,
2,97160, Note_on_c,2,67,84,
2,97210, Control_c,2,64,127,
2,97228, Note_off_c,2,64,64,
2,97230, Note_off_c,2,61,64,
2,97242, Note_off_c,2,79,64,
2,97244, Note_off_c,2,58,64,
2,97244, Note_off_c,2,55,64,
2,97248, Note_off_c,2,73,64,
2,97260, Note_off_c,2,67,64,
2,97410, Note_on_c,2,66,104,
2,97410, Note_on_c,2,78,104,
2,97412, Note_on_c,2,73,99,
2,97484, Note_off_c,2,66,64,
2,97492, Note_off_c,2,78,64,
2,97496, Note_off_c,2,73,64,
2,97530, Control_c,2,64,0,
2,97534, Note_on_c,2,57,79,
2,97534, Note_on_c,2,47,84,
2,97540, Note_on_c,2,74,87,
2,97542, Note_on_c,2,79,79,
2,97544, Note_on_c,2,67,79,
2,97620, Control_c,2,64,127,
2,97624, Note_off_c,2,74,64,
2,97628, Note_off_c,2,79,64,
2,97632, Note_off_c,2,67,64,
2,97664, Note_off_c,2,47,64,
2,97678, Note_off_c,2,57,64,
2,97782, Note_on_c,2,68,91,
2,97782, Note_on_c,2,75,95,
2,97784, Note_on_c,2,80,92,
2,97840, Note_off_c,2,68,64,
2,97854, Note_off_c,2,80,64,
2,97856, Note_off_c,2,75,64,
2,97900, Control_c,2,64,0,
2,97908, Note_on_c,2,56,92,
2,97910, Note_on_c,2,46,95,
2,97920, Note_on_c,2,81,86,
2,97920, Note_on_c,2,69,82,
2,97964, Control_c,2,64,127,
2,97982, Note_off_c,2,69,64,
2,97992, Note_off_c,2,81,64,
2,98016, Note_off_c,2,46,64,
2,98022, Note_off_c,2,56,64,
2,98176, Note_on_c,2,70,106,
2,98176, Note_on_c,2,82,110,
2,98208, Note_off_c,2,70,64,
2,98220, Note_off_c,2,82,64,
2,98266, Control_c,2,64,0,
2,98312, Note_on_c,2,46,102,
2,98314, Note_on_c,2,39,100,
2,98318, Note_on_c,2,87,110,
2,98320, Note_on_c,2,75,104,
2,98368, Control_c,2,64,127,
2,98376, Note_off_c,2,39,64,
2,98380, Note_off_c,2,46,64,
2,98400, Note_off_c,2,75,64,
2,98404, Note_off_c,2,87,64,
2,98572, Note_on_c,2,74,95,
2,98572, Note_on_c,2,79,97,
2,98572, Note_on_c,2,82,101,
2,98574, Note_on_c,2,86,103,
2,98640, Control_c,2,64,0,
2,98700, Note_on_c,2,55,69,
2,98702, Note_on_c,2,60,78,
2,98702, Note_on_c,2,58,86,
2,98724, Control_c,2,64,127,
2,98730, Note_off_c,2,86,64,
2,98736, Note_off_c,2,74,64,
2,98744, Note_off_c,2,79,64,
2,98748, Note_off_c,2,82,64,
2,98754, Note_off_c,2,60,64,
2,98762, Note_off_c,2,58,64,
2,98768, Note_off_c,2,55,64,
2,98820, Note_on_c,2,72,90,
2,98822, Note_on_c,2,84,94,
2,98858, Note_off_c,2,72,64,
2,98862, Note_off_c,2,84,64,
2,98942, Note_on_c,2,70,91,
2,98942, Note_on_c,2,82,95,
2,98980, Note_off_c,2,70,64,
2,98994, Note_off_c,2,82,64,
2,99050, Control_c,2,64,0,
2,99050, Note_on_c,2,41,78,
2,99068, Note_on_c,2,72,72,
2,99068, Note_on_c,2,56,91,
2,99068, Note_on_c,2,77,77,
2,99072, Note_on_c,2,80,84,
2,99076, Note_on_c,2,84,85,
2,99148, Control_c,2,64,127,
2,99168, Note_off_c,2,41,64,
2,99176, Note_off_c,2,84,64,
2,99182, Note_off_c,2,80,64,
2,99184, Note_off_c,2,77,64,
2,99200, Note_off_c,2,56,64,
2,99208, Note_off_c,2,72,64,
2,99468, Control_c,2,64,0,
2,99468, Note_on_c,2,57,98,
2,99468, Note_on_c,2,42,104,
2,99582, Note_on_c,2,63,101,
2,99592, Control_c,2,64,127,
2,99654, Note_off_c,2,57,64,
2,99658, Note_off_c,2,42,64,
2,99700, Note_off_c,2,63,64,
2,99700, Note_on_c,2,69,65,
2,99756, Note_on_c,2,74,89,
2,99776, Note_off_c,2,69,64,
2,99788, Control_c,2,64,0,
2,99820, Note_off_c,2,74,64,
2,99846, Note_on_c,2,72,90,
2,99846, Note_on_c,2,58,90,
2,99848, Note_on_c,2,43,78,
2,99908, Control_c,2,64,127,
2,100084, Note_off_c,2,72,64,
2,100100, Note_on_c,2,70,111,
2,100134, Control_c,2,64,0,
2,100244, Note_on_c,2,54,88,
2,100268, Control_c,2,64,127,
2,100312, Note_off_c,2,58,64,
2,100334, Note_off_c,2,54,64,
2,100356, Note_off_c,2,43,64,
2,100496, Note_on_c,2,36,88,
2,100524, Control_c,2,64,0,
2,100626, Note_on_c,2,52,96,
2,100652, Control_c,2,64,127,
2,100660, Note_off_c,2,70,64,
2,100666, Note_off_c,2,36,64,
2,100678, Note_off_c,2,52,64,
2,100854, Control_c,2,64,0,
2,100864, Note_on_c,2,70,112,
2,100866, Note_on_c,2,66,110,
2,100868, Note_on_c,2,64,95,
2,101004, Note_on_c,2,58,86,
2,101004, Note_on_c,2,48,82,
2,101006, Note_on_c,2,52,79,
2,101036, Control_c,2,64,127,
2,101044, Note_off_c,2,66,64,
2,101052, Note_off_c,2,64,64,
2,101068, Note_off_c,2,70,64,
2,101080, Note_off_c,2,52,64,
2,101084, Note_off_c,2,48,64,
2,101084, Note_off_c,2,58,64,
2,101254, Note_on_c,2,51,101,
2,101376, Control_c,2,64,0,
2,101386, Note_on_c,2,41,90,
2,101390, Note_on_c,2,70,108,
2,101392, Note_on_c,2,67,92,
2,101392, Note_on_c,2,77,95,
2,101394, Note_on_c,2,74,88,
2,101414, Note_on_c,2,71,91,
2,101416, Note_off_c,2,70,64,
2,101446, Note_off_c,2,41,64,
2,101452, Note_off_c,2,51,64,
2,101610, Note_on_c,2,57,73,
2,101624, Note_on_c,2,56,77,
2,101678, Note_on_c,2,55,73,
2,101688, Note_off_c,2,57,64,
2,101702, Note_off_c,2,74,64,
2,101708, Note_off_c,2,56,64,
2,101708, Note_off_c,2,71,64,
2,101710, Note_off_c,2,67,64,
2,101716, Note_off_c,2,77,64,
2,101764, Note_on_c,2,54,106,
2,101776, Note_off_c,2,55,64,
2,101800, Control_c,2,64,127,
2,101852, Note_off_c,2,54,64,
2,102008, Note_on_c,2,71,80,
2,102088, Control_c,2,64,0,
2,102096, Note_on_c,2,57,46,
2,102102, Note_off_c,2,71,64,
2,102106, Note_on_c,2,59,64,
2,102122, Note_on_c,2,60,76,
2,102136, Note_on_c,2,61,95,
2,102138, Note_off_c,2,57,64,
2,102146, Note_off_c,2,59,64,
2,102148, Note_on_c,2,62,79,
2,102148, Note_on_c,2,63,88,
2,102150, Note_on_c,2,74,88,
2,102152, Note_on_c,2,66,82,
2,102152, Note_on_c,2,69,78,
2,102154, Note_off_c,2,60,64,
2,102170, Note_off_c,2,61,64,
2,102240, Note_off_c,2,74,64,
2,102248, Note_off_c,2,63,64,
2,102250, Note_off_c,2,66,64,
2,102262, Note_off_c,2,69,64,
2,102268, Note_off_c,2,62,64,
2,102374, Note_on_c,2,59,88,
2,102374, Note_on_c,2,63,87,
2,102374, Note_on_c,2,66,88,
2,102376, Note_on_c,2,71,78,
2,102496, Note_off_c,2,59,64,
2,102526, Control_c,2,64,127,
2,102538, Note_off_c,2,71,64,
2,102560, Note_off_c,2,66,64,
2,102560, Note_off_c,2,63,64,
2,102758, Note_on_c,2,44,98,
2,102760, Note_on_c,2,66,114,
2,102824, Note_off_c,2,44,64,
2,102856, Note_off_c,2,66,64,
2,102886, Control_c,2,64,0,
2,102902, Note_on_c,2,53,79,
2,102904, Note_on_c,2,43,72,
2,102904, Note_on_c,2,65,82,
2,102906, Note_on_c,2,62,74,
2,103004, Control_c,2,64,127,
2,103092, Note_off_c,2,62,64,
2,103108, Note_off_c,2,65,64,
2,103156, Note_on_c,2,70,111,
2,103258, Note_off_c,2,70,64,
2,103292, Note_on_c,2,72,103,
2,103296, Note_on_c,2,50,92,
2,103348, Note_off_c,2,43,64,
2,103358, Note_off_c,2,50,64,
2,103358, Note_off_c,2,53,64,
2,103438, Note_off_c,2,72,64,
2,103546, Note_on_c,2,70,108,
2,103602, Note_off_c,2,70,64,
2,103636, Control_c,2,64,0,
2,103670, Note_on_c,2,52,73,
2,103670, Note_on_c,2,73,109,
2,103672, Note_on_c,2,36,72,
2,103672, Note_on_c,2,66,106,
2,103672, Note_on_c,2,64,93,
2,103750, Note_off_c,2,36,64,
2,103752, Note_off_c,2,52,64,
2,103758, Note_off_c,2,66,64,
2,103766, Note_off_c,2,73,64,
2,103768, Note_off_c,2,64,64,
2,103918, Note_on_c,2,66,108,
2,103918, Note_on_c,2,72,102,
2,103918, Note_on_c,2,64,99,
2,103920, Note_on_c,2,58,81,
2,103922, Note_on_c,2,52,68,
2,103924, Note_on_c,2,48,65,
2,104074, Control_c,2,64,127,
2,104076, Note_off_c,2,52,64,
2,104076, Note_off_c,2,64,64,
2,104084, Note_off_c,2,66,64,
2,104088, Note_off_c,2,58,64,
2,104096, Note_off_c,2,72,64,
2,104100, Note_off_c,2,48,64,
2,104290, Note_on_c,2,74,93,
2,104290, Note_on_c,2,48,99,
2,104324, Control_c,2,64,0,
2,104408, Note_off_c,2,74,64,
2,104430, Note_on_c,2,41,89,
2,104432, Note_on_c,2,68,88,
2,104432, Note_on_c,2,72,81,
2,104434, Note_on_c,2,75,91,
2,104482, Note_off_c,2,41,64,
2,104482, Note_off_c,2,48,64,
2,104526, Note_off_c,2,68,64,
2,104534, Note_off_c,2,75,64,
2,104538, Note_off_c,2,72,64,
2,104816, Note_on_c,2,68,92,
2,104816, Note_on_c,2,53,83,
2,104816, Note_on_c,2,67,80,
2,104858, Control_c,2,64,127,
2,104948, Note_off_c,2,67,64,
2,104954, Note_off_c,2,68,64,
2,105024, Note_off_c,2,53,64,
2,105068, Note_on_c,2,72,84,
2,105068, Note_on_c,2,60,84,
2,105070, Note_on_c,2,67,70,
2,105144, Note_off_c,2,67,64,
2,105158, Control_c,2,64,0,
2,105176, Note_off_c,2,72,64,
2,105200, Note_on_c,2,67,86,
2,105200, Note_on_c,2,68,98,
2,105200, Note_on_c,2,75,105,
2,105206, Note_on_c,2,63,103,
2,105214, Note_off_c,2,60,64,
2,105218, Control_c,2,64,127,
2,105252, Note_off_c,2,68,64,
2,105256, Note_off_c,2,63,64,
2,105262, Note_off_c,2,67,64,
2,105268, Note_off_c,2,75,64,
2,105446, Note_on_c,2,67,77,
2,105448, Note_on_c,2,79,80,
2,105450, Note_on_c,2,72,77,
2,105450, Note_on_c,2,68,82,
2,105526, Note_off_c,2,68,64,
2,105546, Note_off_c,2,72,64,
2,105556, Note_off_c,2,79,64,
2,105558, Control_c,2,64,0,
2,105590, Note_on_c,2,68,81,
2,105590, Note_on_c,2,63,101,
2,105592, Note_on_c,2,75,92,
2,105620, Note_off_c,2,67,64,
2,105646, Control_c,2,64,127,
2,105688, Note_off_c,2,68,64,
2,105722, Note_off_c,2,75,64,
2,105824, Note_on_c,2,60,75,
2,105832, Note_on_c,2,68,76,
2,105834, Note_on_c,2,72,80,
2,105856, Note_off_c,2,63,64,
2,105886, Note_off_c,2,68,64,
2,105890, Note_off_c,2,72,64,
2,105890, Note_off_c,2,60,64,
2,105952, Control_c,2,64,0,
2,105968, Note_on_c,2,56,84,
2,105970, Note_on_c,2,73,90,
2,105970, Note_on_c,2,79,75,
2,105972, Note_on_c,2,67,77,
2,105976, Note_on_c,2,71,82,
2,105976, Note_on_c,2,68,81,
2,105980, Note_on_c,2,76,76,
2,106064, Note_off_c,2,68,64,
2,106068, Note_off_c,2,67,64,
2,106068, Note_off_c,2,56,64,
2,106070, Note_off_c,2,71,64,
2,106072, Note_off_c,2,73,64,
2,106080, Note_off_c,2,76,64,
2,106086, Note_off_c,2,79,64,
2,106228, Note_on_c,2,73,93,
2,106228, Note_on_c,2,71,90,
2,106228, Note_on_c,2,79,82,
2,106230, Note_on_c,2,68,96,
2,106230, Note_on_c,2,56,94,
2,106232, Note_on_c,2,76,81,
2,106232, Note_on_c,2,67,85,
2,106372, Control_c,2,64,127,
2,106410, Note_off_c,2,79,64,
2,106412, Note_off_c,2,67,64,
2,106418, Note_off_c,2,76,64,
2,106426, Note_off_c,2,56,64,
2,106430, Note_off_c,2,73,64,
2,106432, Note_off_c,2,71,64,
2,106456, Note_off_c,2,68,64,
2,106622, Note_on_c,2,46,110,
2,106696, Control_c,2,64,0,
2,106760, Note_on_c,2,67,74,
2,106760, Note_on_c,2,62,81,
2,106760, Note_on_c,2,70,94,
2,106760, Note_on_c,2,64,86,
2,106762, Note_on_c,2,56,93,
2,106836, Note_off_c,2,64,64,
2,106836, Note_off_c,2,62,64,
2,106850, Note_off_c,2,67,64,
2,106870, Note_off_c,2,70,64,
2,107004, Note_on_c,2,73,116,
2,107132, Note_off_c,2,73,64,
2,107136, Note_on_c,2,74,90,
2,107154, Note_off_c,2,46,64,
2,107164, Note_off_c,2,56,64,
2,107166, Control_c,2,64,127,
2,107240, Note_off_c,2,74,64,
2,107352, Control_c,2,64,0,
2,107368, Note_on_c,2,70,108,
2,107370, Note_on_c,2,75,104,
2,107370, Note_on_c,2,65,97,
2,107372, Note_on_c,2,46,102,
2,107374, Note_on_c,2,39,91,
2,107450, Note_off_c,2,70,64,
2,107452, Note_off_c,2,39,64,
2,107456, Note_off_c,2,46,64,
2,107456, Note_off_c,2,75,64,
2,107462, Note_off_c,2,65,64,
2,107744, Note_on_c,2,70,106,
2,107744, Note_on_c,2,75,106,
2,107748, Note_on_c,2,65,80,
2,107748, Note_on_c,2,39,91,
2,107824, Note_off_c,2,65,64,
2,107860, Note_off_c,2,70,64,
2,107864, Note_off_c,2,75,64,
2,107884, Note_on_c,2,43,90,
2,107886, Note_on_c,2,67,83,
2,107886, Note_on_c,2,73,100,
2,107890, Note_off_c,2,39,64,
2,107896, Note_on_c,2,75,64,
2,107980, Control_c,2,64,127,
2,108096, Note_off_c,2,67,64,
2,108104, Note_off_c,2,73,64,
2,108122, Note_off_c,2,75,64,
2,108276, Note_off_c,2,43,64,
2,108280, Control_c,2,64,0,
2,108288, Note_on_c,2,44,89,
2,108288, Note_on_c,2,75,79,
2,108290, Note_on_c,2,66,76,
2,108290, Note_on_c,2,71,68,
2,108324, Note_on_c,2,72,70,
2,108346, Note_off_c,2,71,64,
2,108410, Note_off_c,2,72,64,
2,108416, Note_off_c,2,66,64,
2,108438, Note_off_c,2,75,64,
2,108672, Note_on_c,2,71,73,
2,108672, Note_on_c,2,75,87,
2,108672, Note_on_c,2,66,84,
2,108672, Note_on_c,2,63,76,
2,108674, Note_on_c,2,45,72,
2,108686, Note_off_c,2,44,64,
2,108860, Note_off_c,2,71,64,
2,108862, Note_off_c,2,66,64,
2,108864, Note_off_c,2,63,64,
2,108870, Note_off_c,2,75,64,
2,109068, Note_off_c,2,45,64,
2,109072, Note_on_c,2,66,100,
2,109072, Note_on_c,2,75,98,
2,109076, Note_on_c,2,70,90,
2,109076, Note_on_c,2,46,86,
2,109124, Note_on_c,2,67,66,
2,109180, Note_off_c,2,46,64,
2,109180, Note_off_c,2,66,64,
2,109186, Note_off_c,2,75,64,
2,109192, Note_off_c,2,70,64,
2,109200, Note_off_c,2,67,64,
2,109500, Note_on_c,2,40,80,
2,109520, Note_on_c,2,47,79,
2,109524, Note_on_c,2,66,102,
2,109524, Note_on_c,2,62,88,
2,109530, Note_on_c,2,56,100,
2,109542, Control_c,2,64,127,
2,109604, Note_off_c,2,40,64,
2,109606, Note_off_c,2,47,64,
2,109628, Note_off_c,2,66,64,
2,109648, Note_off_c,2,56,64,
2,109650, Note_off_c,2,62,64,
2,109824, Note_on_c,2,65,106,
2,109826, Note_on_c,2,60,106,
2,109828, Note_on_c,2,46,106,
2,109828, Note_on_c,2,39,101,
2,109830, Note_on_c,2,55,101,
2,109844, Control_c,2,64,0,
2,109936, Control_c,2,64,127,
2,110150, Note_off_c,2,55,64,
2,110176, Note_off_c,2,60,64,
2,110186, Note_off_c,2,65,64,
2,110218, Note_off_c,2,39,64,
2,110224, Note_off_c,2,46,64,
2,110746, Note_on_c,2,65,58,
2,110746, Note_on_c,2,96,72,
2,110748, Note_on_c,2,94,71,
2,110748, Note_on_c,2,55,49,
2,110748, Note_on_c,2,84,63,
2,110748, Note_on_c,2,89,65,
2,110750, Note_on_c,2,60,51,
2,110758, Note_on_c,2,58,70,
2,110780, Note_off_c,2,89,64,
2,110784, Note_off_c,2,84,64,
2,110784, Note_off_c,2,94,64,
2,110788, Note_off_c,2,96,64,
2,110794, Note_off_c,2,60,64,
2,110796, Note_off_c,2,58,64,
2,110800, Note_off_c,2,55,64,
2,110804, Note_off_c,2,65,64,
2,113146, Control_c,2,64,0,
2,113664, Note_on_c,2,77,54,
2,113664, Control_c,2,64,127,
2,113664, Note_on_c,2,73,57,
2,113664, Note_on_c,2,71,45,
2,113664, Note_on_c,2,65,53,
2,113664, Note_on_c,2,67,41,
2,113668, Note_off_c,2,71,64,
2,113672, Note_off_c,2,73,64,
2,113674, Note_off_c,2,77,64,
2,113676, Note_off_c,2,65,64,
2,113682, Note_off_c,2,67,64,
2,113838, Note_on_c,2,65,50,
2,113838, Note_on_c,2,71,44,
2,113840, Note_on_c,2,69,31,
2,113840, Note_on_c,2,75,59,
2,113840, Note_on_c,2,63,65,
2,113868, Note_off_c,2,75,64,
2,113870, Note_off_c,2,63,64,
2,113870, Note_off_c,2,71,64,
2,113872, Note_off_c,2,69,64,
2,113882, Note_off_c,2,65,64,
2,114006, Control_c,2,64,0,
2,114020, Note_on_c,2,73,74,
2,114024, Note_on_c,2,69,57,
2,114024, Note_on_c,2,61,66,
2,114024, Note_on_c,2,67,50,
2,114028, Note_on_c,2,63,68,
2,114056, Control_c,2,64,127,
2,114060, Note_off_c,2,61,64,
2,114062, Note_off_c,2,73,64,
2,114064, Note_off_c,2,67,64,
2,114066, Note_off_c,2,69,64,
2,114076, Note_off_c,2,63,64,
2,114208, Note_on_c,2,67,42,
2,114208, Note_on_c,2,65,47,
2,114208, Note_on_c,2,71,59,
2,114212, Note_on_c,2,59,60,
2,114214, Note_on_c,2,61,62,
2,114268, Note_off_c,2,59,64,
2,114268, Note_off_c,2,71,64,
2,114280, Note_off_c,2,67,64,
2,114288, Note_off_c,2,65,64,
2,114298, Note_off_c,2,61,64,
2,114386, Control_c,2,64,0,
2,114396, Note_on_c,2,69,60,
2,114400, Note_on_c,2,65,64,
2,114400, Note_on_c,2,59,57,
2,114402, Note_on_c,2,63,69,
2,114404, Note_on_c,2,57,63,
2,114452, Control_c,2,64,127,
2,114460, Note_off_c,2,57,64,
2,114460, Note_off_c,2,69,64,
2,114464, Note_off_c,2,65,64,
2,114480, Note_off_c,2,63,64,
2,114494, Note_off_c,2,59,64,
2,114580, Control_c,2,64,0,
2,114588, Note_on_c,2,61,51,
2,114592, Note_on_c,2,67,61,
2,114592, Note_on_c,2,55,53,
2,114592, Note_on_c,2,63,67,
2,114594, Note_on_c,2,57,57,
2,114630, Control_c,2,64,127,
2,114642, Note_off_c,2,63,64,
2,114642, Note_off_c,2,67,64,
2,114650, Note_off_c,2,61,64,
2,114656, Note_off_c,2,55,64,
2,114668, Note_off_c,2,57,64,
2,114774, Control_c,2,64,0,
2,114786, Note_on_c,2,61,55,
2,114788, Note_on_c,2,59,56,
2,114788, Note_on_c,2,55,55,
2,114788, Note_on_c,2,65,67,
2,114792, Note_on_c,2,53,56,
2,114828, Note_off_c,2,59,64,
2,114832, Note_off_c,2,61,64,
2,114834, Note_off_c,2,65,64,
2,114838, Control_c,2,64,127,
2,114842, Note_off_c,2,53,64,
2,114856, Note_off_c,2,55,64,
2,114982, Control_c,2,64,0,
2,114986, Note_on_c,2,63,68,
2,114988, Note_on_c,2,53,53,
2,114988, Note_on_c,2,59,56,
2,114988, Note_on_c,2,57,54,
2,114988, Note_on_c,2,51,64,
2,115036, Control_c,2,64,127,
2,115046, Note_off_c,2,57,64,
2,115048, Note_off_c,2,51,64,
2,115048, Note_off_c,2,59,64,
2,115050, Note_off_c,2,53,64,
2,115050, Note_off_c,2,63,64,
2,115176, Control_c,2,64,0,
2,115192, Note_on_c,2,54,55,
2,115194, Note_on_c,2,64,59,
2,115196, Note_on_c,2,60,60,
2,115196, Note_on_c,2,50,39,
2,115196, Note_on_c,2,58,67,
2,115200, Note_on_c,2,46,59,
2,115284, Note_off_c,2,64,64,
2,115306, Note_off_c,2,60,64,
2,115306, Note_on_c,2,62,44,
2,115314, Note_off_c,2,58,64,
2,115330, Note_off_c,2,54,64,
2,115360, Note_off_c,2,62,64,
2,115396, Note_on_c,2,60,51,
2,115398, Note_on_c,2,54,37,
2,115400, Note_on_c,2,64,48,
2,115404, Note_on_c,2,58,55,
2,115472, Note_off_c,2,64,64,
2,115488, Note_off_c,2,60,64,
2,115494, Note_off_c,2,58,64,
2,115496, Note_off_c,2,54,64,
2,115496, Note_on_c,2,62,46,
2,115548, Note_off_c,2,62,64,
2,115594, Note_on_c,2,60,56,
2,115594, Note_on_c,2,64,49,
2,115596, Note_on_c,2,54,45,
2,115600, Note_on_c,2,58,59,
2,115620, Note_off_c,2,58,64,
2,115632, Note_off_c,2,54,64,
2,115644, Note_off_c,2,64,64,
2,115644, Note_off_c,2,60,64,
2,115788, Control_c,2,64,127,
2,115790, Note_on_c,2,54,47,
2,115792, Note_on_c,2,58,68,
2,115794, Note_on_c,2,62,54,
2,115812, Note_off_c,2,46,64,
2,115812, Note_off_c,2,50,64,
2,115826, Note_off_c,2,58,64,
2,115832, Note_off_c,2,54,64,
2,115836, Note_off_c,2,62,64,
2,115938, Note_on_c,2,43,37,
2,115946, Control_c,2,64,0,
2,115980, Note_on_c,2,53,42,
2,115984, Note_on_c,2,49,61,
2,115994, Note_on_c,2,58,61,
2,116000, Note_on_c,2,60,60,
2,116028, Note_on_c,2,61,70,
2,116034, Note_off_c,2,58,64,
2,116034, Control_c,2,64,127,
2,116040, Note_off_c,2,49,64,
2,116044, Note_off_c,2,53,64,
2,116044, Note_off_c,2,43,64,
2,116048, Note_off_c,2,60,64,
2,116060, Note_off_c,2,61,64,
2,116292, Note_on_c,2,84,51,
2,116308, Note_on_c,2,82,69,
2,116308, Control_c,2,64,0,
2,116322, Note_on_c,2,80,73,
2,116336, Note_off_c,2,84,64,
2,116340, Note_on_c,2,78,76,
2,116344, Note_off_c,2,82,64,
2,116362, Note_off_c,2,80,64,
2,116372, Note_on_c,2,72,71,
2,116382, Note_off_c,2,78,64,
2,116448, Control_c,2,64,127,
2,116482, Note_off_c,2,72,64,
2,116488, Note_on_c,2,36,72,
2,116488, Note_on_c,2,52,70,
2,116514, Note_off_c,2,52,64,
2,116524, Note_off_c,2,36,64,
2,116658, Note_on_c,2,65,56,
2,116684, Note_on_c,2,66,77,
2,116712, Note_on_c,2,67,74,
2,116714, Note_off_c,2,65,64,
2,116714, Control_c,2,64,0,
2,116740, Note_off_c,2,66,64,
2,116748, Note_on_c,2,68,104,
2,116752, Note_on_c,2,56,69,
2,116756, Note_on_c,2,41,55,
2,116770, Note_off_c,2,67,64,
2,116974, Note_off_c,2,68,64,
2,117020, Note_on_c,2,67,94,
2,117088, Note_off_c,2,67,64,
2,117128, Note_on_c,2,65,81,
2,117234, Control_c,2,64,127,
2,117240, Note_off_c,2,41,64,
2,117282, Note_off_c,2,56,64,
2,117376, Note_on_c,2,63,60,
2,117380, Note_off_c,2,65,64,
2,117444, Note_off_c,2,63,64,
2,117462, Control_c,2,64,0,
2,117490, Note_on_c,2,46,49,
2,117492, Note_on_c,2,56,38,
2,117492, Note_on_c,2,65,56,
2,117548, Control_c,2,64,127,
2,117584, Note_off_c,2,65,64,
2,117618, Note_on_c,2,60,48,
2,117642, Note_off_c,2,60,64,
2,117752, Note_on_c,2,72,56,
2,117792, Note_off_c,2,72,64,
2,117884, Note_on_c,2,84,55,
2,117884, Note_on_c,2,80,65,
2,117910, Note_off_c,2,80,64,
2,117914, Note_off_c,2,84,64,
2,117940, Note_off_c,2,46,64,
2,117964, Note_off_c,2,56,64,
2,118198, Note_on_c,2,58,61,
2,118212, Control_c,2,64,0,
2,118214, Note_on_c,2,61,50,
2,118228, Note_on_c,2,59,64,
2,118246, Note_off_c,2,58,64,
2,118248, Note_on_c,2,64,38,
2,118254, Note_on_c,2,67,50,
2,118256, Note_on_c,2,60,64,
2,118264, Note_off_c,2,59,64,
2,118264, Note_on_c,2,72,68,
2,118304, Control_c,2,64,127,
2,118312, Note_off_c,2,60,64,
2,118322, Note_off_c,2,72,64,
2,118332, Note_off_c,2,64,64,
2,118338, Note_off_c,2,67,64,
2,118338, Note_off_c,2,61,64,
2,118452, Control_c,2,64,0,
2,118452, Note_on_c,2,70,82,
2,118454, Note_on_c,2,61,71,
2,118454, Note_on_c,2,64,73,
2,118456, Note_on_c,2,58,70,
2,118498, Control_c,2,64,127,
2,118500, Note_off_c,2,58,64,
2,118518, Note_off_c,2,70,64,
2,118524, Note_off_c,2,64,64,
2,118534, Note_off_c,2,61,64,
2,118630, Control_c,2,64,0,
2,118642, Note_on_c,2,61,67,
2,118642, Note_on_c,2,68,73,
2,118644, Note_on_c,2,56,69,
2,118646, Note_on_c,2,58,60,
2,118646, Note_on_c,2,64,63,
2,118688, Control_c,2,64,127,
2,118708, Note_off_c,2,56,64,
2,118718, Note_off_c,2,68,64,
2,118740, Note_off_c,2,64,64,
2,118784, Note_off_c,2,58,64,
2,118828, Control_c,2,64,0,
2,118836, Note_on_c,2,55,62,
2,118840, Note_on_c,2,67,79,
2,118846, Note_on_c,2,58,40,
2,118874, Control_c,2,64,127,
2,118876, Note_off_c,2,58,64,
2,118878, Note_off_c,2,61,64,
2,118896, Note_off_c,2,55,64,
2,118908, Note_off_c,2,67,64,
2,119036, Control_c,2,64,0,
2,119040, Note_on_c,2,68,74,
2,119042, Note_on_c,2,56,67,
2,119042, Note_on_c,2,64,67,
2,119042, Note_on_c,2,59,67,
2,119042, Note_on_c,2,62,65,
2,119102, Control_c,2,64,127,
2,119136, Note_off_c,2,62,64,
2,119234, Control_c,2,64,0,
2,119248, Note_on_c,2,63,84,
2,119260, Note_off_c,2,64,64,
2,119288, Control_c,2,64,127,
2,119366, Note_off_c,2,63,64,
2,119432, Control_c,2,64,0,
2,119438, Note_on_c,2,46,61,
2,119440, Note_on_c,2,62,65,
2,119500, Control_c,2,64,127,
2,119532, Note_off_c,2,62,64,
2,119570, Note_off_c,2,56,64,
2,119572, Note_off_c,2,46,64,
2,119634, Note_on_c,2,61,77,
2,119660, Note_off_c,2,59,64,
2,119800, Control_c,2,64,0,
2,119822, Note_on_c,2,46,66,
2,119824, Note_on_c,2,39,69,
2,119824, Note_on_c,2,60,72,
2,119836, Note_off_c,2,61,64,
2,119854, Note_off_c,2,68,64,
2,119864, Control_c,2,64,127,
2,119872, Note_off_c,2,60,64,
2,119960, Control_c,2,64,0,
2,119964, Note_on_c,2,74,88,
2,119978, Note_on_c,2,75,71,
2,119996, Note_off_c,2,74,64,
2,120032, Note_off_c,2,75,64,
2,120088, Note_on_c,2,74,80,
2,120144, Note_off_c,2,74,64,
2,120218, Note_on_c,2,72,77,
2,120248, Control_c,2,64,127,
2,120346, Note_off_c,2,39,64,
2,120356, Note_off_c,2,46,64,
2,120406, Note_off_c,2,72,64,
2,120482, Note_on_c,2,70,58,
2,120520, Note_off_c,2,70,64,
2,120556, Control_c,2,64,0,
2,120566, Note_on_c,2,56,68,
2,120566, Note_on_c,2,41,57,
2,120572, Note_on_c,2,63,74,
2,120574, Note_on_c,2,68,68,
2,120574, Note_on_c,2,72,64,
2,120604, Note_off_c,2,41,64,
2,120608, Note_off_c,2,63,64,
2,120610, Note_off_c,2,56,64,
2,120618, Note_off_c,2,68,64,
2,120662, Note_on_c,2,73,60,
2,120664, Note_on_c,2,57,60,
2,120664, Note_on_c,2,42,76,
2,120666, Note_on_c,2,64,62,
2,120668, Note_on_c,2,69,61,
2,120698, Note_off_c,2,69,64,
2,120700, Note_off_c,2,64,64,
2,120700, Note_off_c,2,57,64,
2,120700, Note_off_c,2,72,64,
2,120702, Note_off_c,2,42,64,
2,120706, Note_off_c,2,73,64,
2,120760, Note_on_c,2,63,87,
2,120760, Note_on_c,2,41,77,
2,120760, Note_on_c,2,68,82,
2,120762, Note_on_c,2,56,71,
2,120764, Note_on_c,2,72,72,
2,120862, Control_c,2,64,127,
2,120936, Note_off_c,2,72,64,
2,120948, Note_off_c,2,68,64,
2,120964, Note_off_c,2,56,64,
2,120968, Note_off_c,2,41,64,
2,120972, Note_off_c,2,63,64,
2,121136, Control_c,2,64,0,
2,121142, Note_on_c,2,60,62,
2,121142, Note_on_c,2,63,75,
2,121144, Note_on_c,2,42,72,
2,121144, Note_on_c,2,51,68,
2,121186, Control_c,2,64,127,
2,121200, Note_off_c,2,42,64,
2,121204, Note_off_c,2,51,64,
2,121206, Note_off_c,2,60,64,
2,121232, Note_off_c,2,63,64,
2,121334, Control_c,2,64,0,
2,121340, Note_on_c,2,62,64,
2,121340, Note_on_c,2,43,44,
2,121340, Note_on_c,2,53,45,
2,121342, Note_on_c,2,58,69,
2,121410, Note_off_c,2,58,64,
2,121420, Control_c,2,64,127,
2,121428, Note_off_c,2,62,64,
2,121724, Note_on_c,2,70,86,
2,121774, Note_off_c,2,53,64,
2,121776, Note_off_c,2,43,64,
2,121860, Note_on_c,2,82,86,
2,121880, Note_off_c,2,70,64,
2,121894, Note_off_c,2,82,64,
2,121974, Note_on_c,2,73,57,
2,121982, Note_on_c,2,85,89,
2,122038, Note_off_c,2,85,64,
2,122040, Note_off_c,2,73,64,
2,122082, Control_c,2,64,0,
2,122100, Note_on_c,2,72,55,
2,122120, Note_on_c,2,84,65,
2,122180, Control_c,2,64,127,
2,122196, Note_off_c,2,84,64,
2,122220, Note_off_c,2,72,64,
2,122236, Note_on_c,2,36,64,
2,122240, Note_on_c,2,52,61,
2,122270, Note_off_c,2,52,64,
2,122270, Note_off_c,2,36,64,
2,122372, Note_on_c,2,61,75,
2,122416, Note_off_c,2,61,64,
2,122492, Control_c,2,64,0,
2,122494, Note_on_c,2,70,71,
2,122496, Note_on_c,2,66,73,
2,122496, Note_on_c,2,63,68,
2,122496, Note_on_c,2,61,61,
2,122576, Control_c,2,64,127,
2,122620, Note_off_c,2,70,64,
2,122620, Note_on_c,2,42,68,
2,122620, Note_on_c,2,52,52,
2,122622, Note_off_c,2,66,64,
2,122630, Note_off_c,2,61,64,
2,122636, Note_off_c,2,63,64,
2,122656, Note_off_c,2,42,64,
2,122658, Note_off_c,2,52,64,
2,122756, Note_on_c,2,58,68,
2,122788, Note_off_c,2,58,64,
2,122868, Control_c,2,64,0,
2,122884, Note_on_c,2,51,58,
2,122884, Note_on_c,2,62,58,
2,122886, Note_on_c,2,57,61,
2,122888, Note_on_c,2,41,49,
2,122940, Control_c,2,64,127,
2,122948, Note_off_c,2,57,64,
2,122954, Note_off_c,2,62,64,
2,122968, Note_off_c,2,41,64,
2,122982, Note_off_c,2,51,64,
2,123250, Control_c,2,64,0,
2,123268, Note_on_c,2,77,91,
2,123272, Note_on_c,2,70,101,
2,123274, Note_on_c,2,62,78,
2,123282, Note_on_c,2,67,73,
2,123312, Control_c,2,64,127,
2,123328, Note_off_c,2,62,64,
2,123330, Note_off_c,2,70,64,
2,123330, Note_off_c,2,77,64,
2,123344, Note_off_c,2,67,64,
2,123516, Control_c,2,64,0,
2,123524, Note_on_c,2,75,85,
2,123524, Note_on_c,2,68,84,
2,123528, Note_on_c,2,65,77,
2,123528, Note_on_c,2,59,72,
2,123562, Note_off_c,2,68,64,
2,123570, Control_c,2,64,127,
2,123572, Note_off_c,2,65,64,
2,123576, Note_off_c,2,59,64,
2,123586, Note_off_c,2,75,64,
2,123664, Control_c,2,64,0,
2,123664, Note_on_c,2,74,73,
2,123666, Note_on_c,2,67,57,
2,123668, Note_on_c,2,63,73,
2,123668, Note_on_c,2,58,81,
2,123748, Control_c,2,64,127,
2,123868, Note_off_c,2,74,64,
2,123900, Note_off_c,2,58,64,
2,123916, Note_on_c,2,72,71,
2,123916, Note_on_c,2,57,58,
2,123920, Note_off_c,2,63,64,
2,123948, Note_off_c,2,67,64,
2,123952, Note_off_c,2,57,64,
2,123990, Note_off_c,2,72,64,
2,124022, Control_c,2,64,0,
2,124038, Note_on_c,2,63,79,
2,124038, Note_on_c,2,67,63,
2,124038, Note_on_c,2,74,75,
2,124044, Note_on_c,2,58,84,
2,124080, Note_off_c,2,58,64,
2,124082, Control_c,2,64,127,
2,124150, Control_c,2,64,0,
2,124164, Note_off_c,2,63,64,
2,124164, Note_on_c,2,75,90,
2,124166, Note_on_c,2,68,81,
2,124166, Note_on_c,2,63,74,
2,124168, Note_off_c,2,67,64,
2,124168, Note_on_c,2,58,75,
2,124170, Note_on_c,2,52,63,
2,124172, Note_off_c,2,74,64,
2,124234, Control_c,2,64,127,
2,124276, Note_off_c,2,52,64,
2,124276, Note_off_c,2,68,64,
2,124284, Note_off_c,2,58,64,
2,124290, Note_off_c,2,63,64,
2,124344, Note_off_c,2,75,64,
2,124416, Note_on_c,2,70,74,
2,124420, Control_c,2,64,0,
2,124420, Note_on_c,2,67,84,
2,124424, Note_on_c,2,53,49,
2,124426, Note_on_c,2,56,59,
2,124534, Control_c,2,64,127,
2,124664, Note_on_c,2,63,80,
2,124682, Note_off_c,2,53,64,
2,124684, Note_off_c,2,56,64,
2,124770, Note_off_c,2,70,64,
2,124774, Note_off_c,2,67,64,
2,124802, Note_off_c,2,63,64,
2,124924, Note_on_c,2,64,74,
2,125030, Note_off_c,2,64,64,
2,125044, Note_on_c,2,63,85,
2,125160, Control_c,2,64,0,
2,125166, Note_on_c,2,56,57,
2,125166, Note_on_c,2,46,65,
2,125170, Note_on_c,2,62,71,
2,125172, Note_off_c,2,63,64,
2,125220, Note_off_c,2,62,64,
2,125288, Note_on_c,2,65,88,
2,125296, Note_on_c,2,66,95,
2,125316, Note_on_c,2,67,68,
2,125322, Note_off_c,2,65,64,
2,125330, Note_off_c,2,66,64,
2,125408, Note_off_c,2,67,64,
2,125432, Note_on_c,2,70,80,
2,125474, Note_off_c,2,70,64,
2,125548, Note_on_c,2,66,79,
2,125562, Note_on_c,2,67,71,
2,125578, Note_off_c,2,66,64,
2,125604, Note_off_c,2,67,64,
2,125692, Note_on_c,2,58,61,
2,125704, Control_c,2,64,127,
2,125778, Note_off_c,2,56,64,
2,125788, Note_off_c,2,46,64,
2,125806, Note_off_c,2,58,64,
2,125818, Note_on_c,2,60,61,
2,125854, Note_off_c,2,60,64,
2,125928, Control_c,2,64,0,
2,125952, Note_on_c,2,43,58,
2,125952, Note_on_c,2,53,50,
2,125956, Note_on_c,2,63,90,
2,125984, Note_off_c,2,63,64,
2,125984, Note_on_c,2,65,52,
2,126014, Note_on_c,2,63,41,
2,126032, Note_off_c,2,65,64,
2,126058, Note_on_c,2,62,54,
2,126064, Note_off_c,2,63,64,
2,126100, Note_off_c,2,62,64,
2,126116, Note_on_c,2,63,74,
2,126152, Control_c,2,64,127,
2,126222, Note_off_c,2,63,64,
2,126358, Note_off_c,2,43,64,
2,126384, Note_off_c,2,53,64,
2,126640, Note_on_c,2,66,107,
2,126700, Note_off_c,2,66,64,
2,126724, Control_c,2,64,0,
2,126736, Note_on_c,2,60,51,
2,126738, Note_on_c,2,55,44,
2,126738, Note_on_c,2,61,50,
2,126738, Note_on_c,2,67,68,
2,126814, Note_off_c,2,67,64,
2,126840, Note_on_c,2,70,77,
2,126902, Note_off_c,2,70,64,
2,126930, Note_on_c,2,72,72,
2,126964, Control_c,2,64,127,
2,127002, Note_off_c,2,72,64,
2,127030, Note_on_c,2,70,77,
2,127068, Note_off_c,2,70,64,
2,127084, Control_c,2,64,0,
2,127106, Note_on_c,2,74,78,
2,127122, Note_on_c,2,75,70,
2,127134, Note_off_c,2,74,64,
2,127180, Note_off_c,2,75,64,
2,127216, Note_on_c,2,73,85,
2,127252, Control_c,2,64,127,
2,127254, Note_off_c,2,73,64,
2,127254, Note_off_c,2,60,64,
2,127256, Note_off_c,2,61,64,
2,127258, Note_off_c,2,55,64,
2,127298, Control_c,2,64,0,
2,127304, Note_on_c,2,68,68,
2,127326, Note_off_c,2,68,64,
2,127328, Note_on_c,2,73,59,
2,127356, Note_on_c,2,68,41,
2,127374, Note_off_c,2,73,64,
2,127412, Note_off_c,2,68,64,
2,127414, Note_on_c,2,64,75,
2,127462, Note_off_c,2,64,64,
2,127486, Note_on_c,2,58,45,
2,127488, Note_on_c,2,63,78,
2,127490, Note_on_c,2,48,38,
2,127494, Note_on_c,2,52,45,
2,127570, Note_off_c,2,63,64,
2,127612, Note_on_c,2,61,54,
2,127668, Note_off_c,2,61,64,
2,127680, Note_on_c,2,63,85,
2,127704, Control_c,2,64,127,
2,127724, Note_off_c,2,58,64,
2,127740, Note_off_c,2,63,64,
2,127818, Note_off_c,2,52,64,
2,127864, Control_c,2,64,0,
2,127874, Note_on_c,2,54,67,
2,127874, Note_on_c,2,52,50,
2,127916, Note_off_c,2,54,64,
2,127918, Note_off_c,2,52,64,
2,127992, Note_on_c,2,52,58,
2,127992, Note_on_c,2,54,62,
2,128034, Control_c,2,64,127,
2,128036, Note_off_c,2,48,64,
2,128376, Control_c,2,64,0,
2,128382, Note_on_c,2,35,82,
2,128384, Note_on_c,2,36,80,
2,128402, Note_off_c,2,35,64,
2,128618, Note_off_c,2,52,64,
2,128626, Note_off_c,2,54,64,
2,128626, Control_c,2,64,127,
2,128630, Note_on_c,2,24,84,
2,128668, Note_off_c,2,24,64,
2,128676, Note_off_c,2,36,64,
2,128906, Note_on_c,2,79,106,
2,128906, Note_on_c,2,67,111,
2,128938, Note_off_c,2,67,64,
2,129002, Note_off_c,2,79,64,
2,129018, Control_c,2,64,0,
2,129032, Note_on_c,2,41,65,
2,129032, Note_on_c,2,56,63,
2,129034, Note_on_c,2,68,75,
2,129044, Note_on_c,2,72,42,
2,129048, Note_on_c,2,75,64,
2,129052, Note_on_c,2,80,78,
2,129120, Note_off_c,2,75,64,
2,129120, Note_off_c,2,68,64,
2,129124, Note_off_c,2,80,64,
2,129128, Note_off_c,2,72,64,
2,129272, Note_on_c,2,72,69,
2,129272, Note_on_c,2,67,58,
2,129278, Note_on_c,2,75,78,
2,129284, Note_on_c,2,79,77,
2,129348, Note_off_c,2,67,64,
2,129352, Note_off_c,2,79,64,
2,129360, Note_off_c,2,72,64,
2,129372, Note_off_c,2,75,64,
2,129404, Note_on_c,2,65,49,
2,129416, Note_on_c,2,77,63,
2,129428, Control_c,2,64,127,
2,129474, Note_off_c,2,77,64,
2,129476, Note_off_c,2,65,64,
2,129492, Note_off_c,2,41,64,
2,129548, Note_off_c,2,56,64,
2,129660, Note_on_c,2,63,50,
2,129662, Note_on_c,2,75,80,
2,129714, Note_off_c,2,63,64,
2,129762, Control_c,2,64,0,
2,129784, Note_on_c,2,65,42,
2,129788, Note_on_c,2,46,59,
2,129788, Note_on_c,2,56,43,
2,129792, Note_on_c,2,68,50,
2,129792, Note_on_c,2,72,50,
2,129802, Note_on_c,2,77,64,
2,129834, Control_c,2,64,127,
2,129840, Note_off_c,2,68,64,
2,129848, Note_off_c,2,65,64,
2,129856, Note_off_c,2,46,64,
2,129860, Note_off_c,2,72,64,
2,129874, Note_off_c,2,56,64,
2,129886, Note_off_c,2,77,64,
2,130026, Note_on_c,2,91,53,
2,130052, Note_on_c,2,89,43,
2,130066, Note_off_c,2,91,64,
2,130090, Note_on_c,2,86,36,
2,130094, Note_off_c,2,89,64,
2,130112, Note_on_c,2,84,67,
2,130114, Note_off_c,2,86,64,
2,130142, Note_off_c,2,84,64,
2,130156, Control_c,2,64,0,
2,130158, Note_on_c,2,82,69,
2,130182, Note_on_c,2,56,50,
2,130184, Note_on_c,2,80,76,
2,130184, Note_on_c,2,62,51,
2,130188, Note_off_c,2,82,64,
2,130212, Note_off_c,2,80,64,
2,130216, Note_on_c,2,79,65,
2,130240, Note_off_c,2,79,64,
2,130250, Note_on_c,2,78,69,
2,130280, Note_off_c,2,78,64,
2,130284, Note_on_c,2,77,66,
2,130302, Note_off_c,2,77,64,
2,130304, Note_on_c,2,76,30,
2,130308, Control_c,2,64,127,
2,130324, Note_off_c,2,76,64,
2,130324, Note_on_c,2,75,64,
2,130354, Note_off_c,2,56,64,
2,130356, Note_on_c,2,73,76,
2,130366, Note_off_c,2,62,64,
2,130368, Note_off_c,2,75,64,
2,130384, Note_on_c,2,72,65,
2,130386, Note_off_c,2,73,64,
2,130412, Note_off_c,2,72,64,
2,130430, Note_on_c,2,70,64,
2,130464, Note_on_c,2,68,68,
2,130466, Note_off_c,2,70,64,
2,130492, Note_on_c,2,67,69,
2,130496, Note_off_c,2,68,64,
2,130540, Control_c,2,64,0,
2,130554, Note_off_c,2,67,64,
2,130560, Note_on_c,2,61,66,
2,130560, Note_on_c,2,58,74,
2,130560, Note_on_c,2,55,58,
2,130624, Control_c,2,64,127,
2,130686, Note_off_c,2,61,64,
2,130700, Note_off_c,2,55,64,
2,130704, Note_off_c,2,58,64,
2,130732, Note_on_c,2,67,65,
2,130752, Control_c,2,64,0,
2,130752, Note_on_c,2,68,85,
2,130772, Note_on_c,2,69,82,
2,130778, Note_off_c,2,67,64,
2,130794, Note_off_c,2,68,64,
2,130796, Note_on_c,2,70,68,
2,130824, Note_off_c,2,69,64,
2,130964, Note_on_c,2,61,53,
2,130964, Note_on_c,2,46,52,
2,130970, Note_on_c,2,55,52,
2,130986, Note_on_c,2,75,0,
2,130996, Control_c,2,64,127,
2,131004, Note_off_c,2,70,64,
2,131050, Note_on_c,2,68,86,
2,131058, Note_off_c,2,61,64,
2,131064, Note_off_c,2,55,64,
2,131070, Note_off_c,2,46,64,
2,131096, Note_off_c,2,68,64,
2,131140, Note_on_c,2,67,82,
2,131192, Note_off_c,2,67,64,
2,131240, Note_on_c,2,65,76,
2,131312, Note_on_c,2,66,74,
2,131314, Note_off_c,2,65,64,
2,131330, Control_c,2,64,0,
2,131332, Note_on_c,2,67,61,
2,131344, Note_on_c,2,40,68,
2,131348, Note_off_c,2,66,64,
2,131358, Note_on_c,2,68,83,
2,131378, Note_off_c,2,67,64,
2,131530, Note_on_c,2,47,60,
2,131716, Note_on_c,2,61,71,
2,131718, Note_on_c,2,62,71,
2,131722, Note_on_c,2,56,75,
2,131740, Control_c,2,64,127,
2,131762, Note_off_c,2,61,64,
2,131764, Note_off_c,2,62,64,
2,131782, Note_off_c,2,68,64,
2,131784, Note_off_c,2,56,64,
2,131796, Note_off_c,2,47,64,
2,131818, Note_off_c,2,40,64,
2,131912, Note_on_c,2,70,93,
2,132016, Note_off_c,2,70,64,
2,132200, Control_c,2,64,0,
2,132214, Note_on_c,2,75,92,
2,132216, Note_on_c,2,61,79,
2,132216, Note_on_c,2,71,86,
2,132218, Note_on_c,2,56,71,
2,132230, Note_on_c,2,66,68,
2,132268, Control_c,2,64,127,
2,132278, Note_off_c,2,56,64,
2,132278, Note_off_c,2,71,64,
2,132288, Note_off_c,2,61,64,
2,132288, Note_off_c,2,75,64,
2,132300, Note_off_c,2,66,64,
2,132340, Control_c,2,64,0,
2,132348, Note_on_c,2,59,76,
2,132352, Note_on_c,2,54,76,
2,132354, Note_on_c,2,69,65,
2,132356, Note_on_c,2,74,89,
2,132360, Note_on_c,2,64,74,
2,132392, Control_c,2,64,127,
2,132408, Note_off_c,2,69,64,
2,132410, Note_off_c,2,74,64,
2,132410, Note_off_c,2,59,64,
2,132414, Note_off_c,2,64,64,
2,132416, Note_off_c,2,54,64,
2,132468, Control_c,2,64,0,
2,132474, Note_on_c,2,72,74,
2,132474, Note_on_c,2,68,83,
2,132476, Note_on_c,2,58,77,
2,132478, Note_on_c,2,53,62,
2,132480, Note_on_c,2,63,78,
2,132530, Control_c,2,64,127,
2,132544, Note_off_c,2,53,64,
2,132544, Note_off_c,2,58,64,
2,132546, Note_off_c,2,72,64,
2,132558, Note_off_c,2,63,64,
2,132596, Note_off_c,2,68,64,
2,132658, Control_c,2,64,0,
2,132664, Note_on_c,2,56,68,
2,132664, Note_on_c,2,51,68,
2,132664, Note_on_c,2,61,81,
2,132664, Note_on_c,2,70,82,
2,132666, Note_on_c,2,66,85,
2,132720, Control_c,2,64,127,
2,132740, Note_off_c,2,51,64,
2,132744, Note_off_c,2,61,64,
2,132758, Note_off_c,2,66,64,
2,132764, Note_off_c,2,56,64,
2,132772, Note_off_c,2,70,64,
2,132852, Control_c,2,64,0,
2,132860, Note_on_c,2,72,75,
2,132860, Note_on_c,2,53,54,
2,132860, Note_on_c,2,58,74,
2,132860, Note_on_c,2,68,83,
2,132864, Note_on_c,2,63,85,
2,132912, Note_off_c,2,53,64,
2,132916, Control_c,2,64,127,
2,132928, Note_off_c,2,72,64,
2,132936, Note_off_c,2,63,64,
2,132936, Note_off_c,2,58,64,
2,132942, Note_off_c,2,68,64,
2,133038, Control_c,2,64,0,
2,133048, Note_on_c,2,69,75,
2,133048, Note_on_c,2,73,88,
2,133048, Note_on_c,2,54,56,
2,133048, Note_on_c,2,59,59,
2,133052, Note_on_c,2,64,71,
2,133106, Control_c,2,64,127,
2,133112, Note_off_c,2,73,64,
2,133116, Note_off_c,2,69,64,
2,133118, Note_off_c,2,64,64,
2,133122, Note_off_c,2,59,64,
2,133124, Note_off_c,2,54,64,
2,133236, Control_c,2,64,0,
2,133246, Note_on_c,2,53,55,
2,133246, Note_on_c,2,58,78,
2,133248, Note_on_c,2,68,87,
2,133252, Note_on_c,2,63,83,
2,133292, Note_off_c,2,58,64,
2,133292, Control_c,2,64,127,
2,133298, Note_off_c,2,53,64,
2,133312, Note_off_c,2,68,64,
2,133314, Note_off_c,2,63,64,
2,133432, Control_c,2,64,0,
2,133436, Note_on_c,2,42,79,
2,133438, Note_on_c,2,61,74,
2,133440, Note_on_c,2,64,77,
2,133440, Note_on_c,2,51,65,
2,133496, Control_c,2,64,127,
2,133508, Note_off_c,2,64,64,
2,133518, Note_off_c,2,42,64,
2,133526, Note_off_c,2,61,64,
2,133528, Note_off_c,2,51,64,
2,133626, Control_c,2,64,0,
2,133630, Note_on_c,2,53,61,
2,133630, Note_on_c,2,43,58,
2,133632, Note_on_c,2,65,85,
2,133634, Note_on_c,2,62,69,
2,133710, Control_c,2,64,127,
2,133836, Note_on_c,2,70,102,
2,133836, Note_on_c,2,50,82,
2,133854, Note_off_c,2,43,64,
2,133860, Note_off_c,2,53,64,
2,133862, Note_off_c,2,65,64,
2,133864, Note_off_c,2,50,64,
2,133868, Note_off_c,2,62,64,
2,133882, Note_off_c,2,70,64,
2,134014, Control_c,2,64,0,
2,134028, Note_on_c,2,74,91,
2,134028, Note_on_c,2,70,94,
2,134028, Note_on_c,2,60,76,
2,134030, Note_on_c,2,65,87,
2,134030, Note_on_c,2,55,65,
2,134078, Control_c,2,64,127,
2,134088, Note_off_c,2,55,64,
2,134088, Note_off_c,2,60,64,
2,134090, Note_off_c,2,74,64,
2,134094, Note_off_c,2,70,64,
2,134104, Note_off_c,2,65,64,
2,134218, Note_on_c,2,73,90,
2,134220, Note_on_c,2,54,66,
2,134220, Note_on_c,2,59,65,
2,134220, Note_on_c,2,69,69,
2,134222, Note_on_c,2,64,78,
2,134222, Control_c,2,64,0,
2,134282, Control_c,2,64,127,
2,134290, Note_off_c,2,69,64,
2,134292, Note_off_c,2,64,64,
2,134296, Note_off_c,2,59,64,
2,134296, Note_off_c,2,73,64,
2,134300, Note_off_c,2,54,64,
2,134396, Control_c,2,64,0,
2,134406, Note_on_c,2,75,96,
2,134408, Note_on_c,2,58,71,
2,134408, Note_on_c,2,68,88,
2,134408, Note_on_c,2,63,92,
2,134408, Note_on_c,2,52,67,
2,134456, Control_c,2,64,127,
2,134556, Note_off_c,2,75,64,
2,134582, Note_off_c,2,52,64,
2,134592, Note_off_c,2,58,64,
2,134604, Note_on_c,2,73,102,
2,134608, Note_off_c,2,63,64,
2,134624, Note_off_c,2,68,64,
2,134654, Note_off_c,2,73,64,
2,134782, Control_c,2,64,0,
2,134790, Note_on_c,2,59,65,
2,134792, Note_on_c,2,73,92,
2,134850, Control_c,2,64,127,
2,134980, Note_on_c,2,49,79,
2,134980, Note_on_c,2,85,92,
2,134982, Note_on_c,2,78,86,
2,135012, Note_off_c,2,49,64,
2,135024, Note_off_c,2,59,64,
2,135032, Note_off_c,2,78,64,
2,135034, Note_off_c,2,73,64,
2,135042, Note_off_c,2,85,64,
2,135156, Note_on_c,2,74,45,
2,135166, Control_c,2,64,0,
2,135168, Note_on_c,2,79,54,
2,135168, Note_on_c,2,48,52,
2,135172, Note_on_c,2,58,65,
2,135178, Note_on_c,2,82,71,
2,135188, Note_on_c,2,86,73,
2,135246, Control_c,2,64,127,
2,135256, Note_off_c,2,58,64,
2,135264, Note_off_c,2,48,64,
2,135280, Note_off_c,2,74,64,
2,135288, Note_off_c,2,79,64,
2,135298, Note_off_c,2,82,64,
2,135306, Note_off_c,2,86,64,
2,135548, Note_on_c,2,36,79,
2,135572, Note_off_c,2,36,64,
2,135674, Note_on_c,2,82,104,
2,135674, Note_on_c,2,89,99,
2,135676, Note_on_c,2,77,87,
2,135700, Note_off_c,2,77,64,
2,135700, Note_off_c,2,82,64,
2,135704, Note_off_c,2,89,64,
2,135790, Note_on_c,2,87,103,
2,135790, Note_on_c,2,75,99,
2,135792, Note_on_c,2,82,88,
2,135832, Note_off_c,2,75,64,
2,135836, Note_off_c,2,82,64,
2,135842, Note_off_c,2,87,64,
2,135910, Control_c,2,64,0,
2,135920, Note_on_c,2,55,47,
2,135920, Note_on_c,2,58,55,
2,135920, Note_on_c,2,51,51,
2,135920, Note_on_c,2,82,84,
2,135922, Note_on_c,2,62,48,
2,135922, Note_on_c,2,74,82,
2,135924, Note_on_c,2,86,86,
2,135986, Control_c,2,64,127,
2,136016, Note_off_c,2,86,64,
2,136032, Note_off_c,2,82,64,
2,136040, Note_off_c,2,74,64,
2,136112, Note_off_c,2,51,64,
2,136112, Note_off_c,2,55,64,
2,136124, Note_off_c,2,58,64,
2,136128, Note_off_c,2,62,64,
2,136188, Note_on_c,2,84,85,
2,136190, Note_on_c,2,72,82,
2,136220, Note_off_c,2,72,64,
2,136236, Note_off_c,2,84,64,
2,136304, Control_c,2,64,0,
2,136314, Note_on_c,2,51,67,
2,136314, Note_on_c,2,57,61,
2,136314, Note_on_c,2,62,54,
2,136316, Note_on_c,2,74,70,
2,136322, Note_on_c,2,86,76,
2,136370, Note_off_c,2,74,64,
2,136370, Control_c,2,64,127,
2,136380, Note_off_c,2,86,64,
2,136396, Note_off_c,2,62,64,
2,136400, Note_off_c,2,57,64,
2,136416, Note_off_c,2,51,64,
2,136444, Note_on_c,2,75,73,
2,136456, Note_on_c,2,87,90,
2,136578, Note_on_c,2,42,86,
2,136586, Note_off_c,2,87,64,
2,136604, Note_off_c,2,75,64,
2,136632, Note_off_c,2,42,64,
2,136692, Control_c,2,64,0,
2,136706, Note_on_c,2,74,61,
2,136708, Note_on_c,2,41,85,
2,136708, Note_on_c,2,79,67,
2,136712, Note_on_c,2,82,79,
2,136718, Note_on_c,2,86,88,
2,136766, Note_off_c,2,41,64,
2,136776, Control_c,2,64,127,
2,136788, Note_off_c,2,74,64,
2,136792, Note_off_c,2,86,64,
2,136792, Note_off_c,2,79,64,
2,136798, Note_off_c,2,82,64,
2,136958, Note_on_c,2,75,71,
2,136964, Note_on_c,2,79,66,
2,136966, Note_on_c,2,82,82,
2,136968, Note_on_c,2,87,91,
2,137016, Note_off_c,2,75,64,
2,137028, Note_off_c,2,87,64,
2,137034, Note_off_c,2,82,64,
2,137034, Note_off_c,2,79,64,
2,137088, Control_c,2,64,0,
2,137100, Note_on_c,2,55,46,
2,137102, Note_on_c,2,51,60,
2,137102, Note_on_c,2,84,63,
2,137102, Note_on_c,2,62,51,
2,137104, Note_on_c,2,58,71,
2,137104, Note_on_c,2,79,61,
2,137116, Note_on_c,2,72,75,
2,137170, Note_off_c,2,72,64,
2,137180, Note_off_c,2,84,64,
2,137208, Note_off_c,2,79,64,
2,137212, Control_c,2,64,127,
2,137270, Note_off_c,2,62,64,
2,137302, Note_off_c,2,51,64,
2,137310, Note_off_c,2,58,64,
2,137310, Note_off_c,2,55,64,
2,137352, Note_on_c,2,86,68,
2,137352, Note_on_c,2,79,63,
2,137354, Note_on_c,2,74,55,
2,137388, Note_off_c,2,74,64,
2,137388, Note_off_c,2,79,64,
2,137392, Note_off_c,2,86,64,
2,137482, Control_c,2,64,0,
2,137490, Note_on_c,2,56,51,
2,137490, Note_on_c,2,41,56,
2,137492, Note_on_c,2,51,60,
2,137494, Note_on_c,2,70,64,
2,137494, Note_on_c,2,82,71,
2,137558, Control_c,2,64,127,
2,137570, Note_off_c,2,82,64,
2,137586, Note_off_c,2,70,64,
2,137858, Control_c,2,64,0,
2,137878, Note_on_c,2,72,100,
2,137878, Note_on_c,2,66,111,
2,137884, Note_on_c,2,67,90,
2,137908, Note_off_c,2,66,64,
2,137932, Note_off_c,2,56,64,
2,137940, Note_off_c,2,67,64,
2,137940, Note_off_c,2,72,64,
2,137948, Note_off_c,2,41,64,
2,138136, Note_on_c,2,58,77,
2,138168, Note_off_c,2,58,64,
2,138170, Note_on_c,2,62,68,
2,138176, Note_off_c,2,51,64,
2,138196, Note_on_c,2,63,64,
2,138212, Note_off_c,2,62,64,
2,138256, Note_on_c,2,46,54,
2,138256, Note_on_c,2,39,60,
2,138294, Control_c,2,64,127,
2,138368, Note_off_c,2,63,64,
2,138614, Note_off_c,2,46,64,
2,138614, Control_c,2,64,0,
2,138624, Note_on_c,2,43,77,
2,138626, Note_on_c,2,65,95,
2,138628, Note_off_c,2,39,64,
2,138628, Note_on_c,2,66,110,
2,138642, Note_on_c,2,67,96,
2,138648, Note_off_c,2,66,64,
2,138668, Note_off_c,2,65,64,
2,138878, Note_off_c,2,67,64,
2,138890, Note_on_c,2,70,91,
2,138976, Note_off_c,2,70,64,
2,139014, Note_off_c,2,43,64,
2,139020, Note_on_c,2,68,95,
2,139020, Note_on_c,2,44,72,
2,139032, Note_on_c,2,70,59,
2,139094, Note_off_c,2,70,64,
2,139156, Note_off_c,2,68,64,
2,139158, Note_on_c,2,66,73,
2,139202, Note_off_c,2,66,64,
2,139286, Note_on_c,2,63,76,
2,139400, Note_off_c,2,63,64,
2,139402, Note_on_c,2,45,61,
2,139406, Note_off_c,2,44,64,
2,139408, Note_on_c,2,58,75,
2,139536, Note_off_c,2,58,64,
2,139544, Note_on_c,2,60,45,
2,139578, Control_c,2,64,127,
2,139668, Note_off_c,2,60,64,
2,139670, Note_on_c,2,63,67,
2,139692, Note_off_c,2,45,64,
2,139696, Note_off_c,2,63,64,
2,139764, Control_c,2,64,0,
2,139790, Note_on_c,2,46,69,
2,139792, Note_on_c,2,66,92,
2,139820, Note_on_c,2,67,61,
2,139832, Note_off_c,2,66,64,
2,139872, Note_off_c,2,67,64,
2,139930, Note_on_c,2,63,83,
2,139946, Control_c,2,64,127,
2,140174, Note_off_c,2,63,64,
2,140184, Note_on_c,2,34,70,
2,140198, Note_off_c,2,46,64,
2,140200, Note_off_c,2,34,64,
2,140308, Note_on_c,2,51,89,
2,140310, Note_on_c,2,58,91,
2,140312, Note_on_c,2,36,72,
2,140312, Note_on_c,2,63,86,
2,140322, Control_c,2,64,0,
2,140334, Note_off_c,2,58,64,
2,140340, Note_off_c,2,63,64,
2,140340, Note_off_c,2,51,64,
2,140342, Note_off_c,2,36,64,
2,140430, Note_on_c,2,57,70,
2,140430, Note_on_c,2,35,54,
2,140432, Note_on_c,2,62,63,
2,140462, Note_off_c,2,57,64,
2,140464, Note_off_c,2,62,64,
2,140464, Note_off_c,2,35,64,
2,140560, Note_on_c,2,61,85,
2,140560, Note_on_c,2,56,76,
2,140560, Note_on_c,2,34,83,
2,140572, Control_c,2,64,127,
2,140588, Note_off_c,2,56,64,
2,140606, Note_off_c,2,61,64,
2,140620, Note_off_c,2,34,64,
2,140928, Control_c,2,64,0,
2,140940, Note_on_c,2,45,58,
2,140940, Note_on_c,2,61,54,
2,140940, Note_on_c,2,59,52,
2,140942, Note_on_c,2,64,63,
2,140942, Note_on_c,2,55,50,
2,141020, Control_c,2,64,127,
2,141026, Note_off_c,2,45,64,
2,141056, Note_off_c,2,61,64,
2,141064, Note_off_c,2,64,64,
2,141068, Note_off_c,2,59,64,
2,141086, Note_off_c,2,55,64,
2,141164, Control_c,2,64,0,
2,141186, Note_on_c,2,60,31,
2,141186, Note_on_c,2,55,30,
2,141188, Note_on_c,2,58,50,
2,141190, Note_on_c,2,63,62,
2,141312, Note_on_c,2,44,58,
2,141314, Note_on_c,2,51,53,
2,141324, Control_c,2,64,127,
2,141328, Note_off_c,2,55,64,
2,141338, Note_off_c,2,58,64,
2,141340, Note_off_c,2,60,64,
2,141344, Note_off_c,2,63,64,
2,141356, Note_off_c,2,44,64,
2,141360, Note_off_c,2,51,64,
2,141704, Control_c,2,64,0,
2,141714, Note_on_c,2,63,117,
2,141716, Note_on_c,2,55,79,
2,141842, Note_off_c,2,63,64,
2,141846, Note_on_c,2,65,70,
2,141872, Note_on_c,2,63,75,
2,141896, Note_off_c,2,65,64,
2,141904, Note_on_c,2,62,74,
2,141926, Note_off_c,2,63,64,
2,142022, Note_on_c,2,63,71,
2,142024, Note_off_c,2,62,64,
2,142070, Note_off_c,2,63,64,
2,142084, Note_on_c,2,44,62,
2,142084, Note_on_c,2,72,84,
2,142156, Control_c,2,64,127,
2,142200, Note_off_c,2,72,64,
2,142216, Note_on_c,2,60,60,
2,142252, Note_off_c,2,55,64,
2,142262, Note_off_c,2,44,64,
2,142264, Note_off_c,2,60,64,
2,142396, Note_on_c,2,44,74,
2,142436, Control_c,2,64,0,
2,142444, Note_off_c,2,44,64,
2,142460, Note_on_c,2,54,63,
2,142580, Note_on_c,2,59,55,
2,142580, Note_on_c,2,44,62,
2,142582, Note_on_c,2,63,71,
2,142582, Note_on_c,2,58,55,
2,142604, Control_c,2,64,127,
2,142652, Note_off_c,2,59,64,
2,142654, Note_off_c,2,58,64,
2,142658, Note_off_c,2,63,64,
2,142662, Note_off_c,2,44,64,
2,142670, Note_off_c,2,54,64,
2,142832, Control_c,2,64,0,
2,142840, Note_on_c,2,61,55,
2,142840, Note_on_c,2,58,53,
2,142840, Note_on_c,2,43,40,
2,142842, Note_on_c,2,53,39,
2,142842, Note_on_c,2,57,52,
2,142904, Control_c,2,64,127,
2,142928, Note_off_c,2,58,64,
2,142932, Note_off_c,2,57,64,
2,142936, Note_off_c,2,43,64,
2,142938, Note_off_c,2,61,64,
2,142966, Note_off_c,2,53,64,
2,143230, Control_c,2,64,0,
2,143240, Note_on_c,2,55,43,
2,143244, Note_on_c,2,61,52,
2,143288, Note_off_c,2,61,64,
2,143296, Note_off_c,2,55,64,
2,143318, Note_on_c,2,65,40,
2,143350, Note_off_c,2,65,64,
2,143374, Note_on_c,2,70,83,
2,143420, Note_off_c,2,70,64,
2,143438, Note_on_c,2,72,93,
2,143502, Note_on_c,2,73,87,
2,143508, Note_off_c,2,72,64,
2,143546, Note_off_c,2,73,64,
2,143572, Note_on_c,2,75,80,
2,143610, Note_off_c,2,75,64,
2,143630, Note_on_c,2,73,80,
2,143632, Note_on_c,2,36,57,
2,143638, Note_on_c,2,52,40,
2,143666, Control_c,2,64,127,
2,143694, Note_off_c,2,73,64,
2,143702, Note_off_c,2,52,64,
2,143704, Note_off_c,2,36,64,
2,143932, Note_on_c,2,70,57,
2,143934, Note_on_c,2,72,56,
2,143936, Note_on_c,2,66,59,
2,143936, Note_on_c,2,64,56,
2,143970, Control_c,2,64,0,
2,144020, Note_on_c,2,58,51,
2,144020, Note_on_c,2,48,54,
2,144032, Note_off_c,2,72,64,
2,144040, Note_off_c,2,70,64,
2,144044, Note_off_c,2,66,64,
2,144054, Control_c,2,64,127,
2,144056, Note_off_c,2,64,64,
2,144100, Note_off_c,2,48,64,
2,144102, Note_off_c,2,58,64,
2,144316, Note_on_c,2,67,42,
2,144320, Note_on_c,2,64,42,
2,144322, Note_on_c,2,56,40,
2,144330, Note_on_c,2,60,31,
2,144334, Control_c,2,64,0,
2,144386, Note_on_c,2,41,48,
2,144386, Note_on_c,2,50,41,
2,144418, Note_off_c,2,56,64,
2,144418, Control_c,2,64,127,
2,144424, Note_off_c,2,60,64,
2,144424, Note_off_c,2,67,64,
2,144428, Note_off_c,2,64,64,
2,144434, Note_off_c,2,41,64,
2,144448, Note_off_c,2,50,64,
2,144748, Control_c,2,64,0,
2,144766, Note_on_c,2,55,45,
2,144768, Note_on_c,2,65,108,
2,144768, Note_on_c,2,56,58,
2,144768, Note_on_c,2,60,54,
2,144824, Note_off_c,2,56,64,
2,144826, Note_off_c,2,55,64,
2,144828, Note_off_c,2,60,64,
2,144864, Note_off_c,2,65,64,
2,144900, Note_on_c,2,67,58,
2,144920, Note_on_c,2,65,65,
2,144946, Note_off_c,2,67,64,
2,144964, Note_on_c,2,64,62,
2,144988, Note_off_c,2,65,64,
2,145052, Note_off_c,2,64,64,
2,145072, Note_on_c,2,65,86,
2,145116, Note_off_c,2,65,64,
2,145150, Note_on_c,2,36,58,
2,145154, Note_on_c,2,71,74,
2,145168, Note_on_c,2,72,77,
2,145188, Note_off_c,2,71,64,
2,145210, Note_off_c,2,36,64,
2,145220, Note_off_c,2,72,64,
2,145252, Note_on_c,2,71,72,
2,145262, Note_on_c,2,72,70,
2,145284, Note_off_c,2,71,64,
2,145314, Note_off_c,2,72,64,
2,145344, Note_on_c,2,71,68,
2,145356, Note_on_c,2,72,68,
2,145376, Note_off_c,2,71,64,
2,145412, Note_off_c,2,72,64,
2,145432, Note_on_c,2,71,60,
2,145442, Note_on_c,2,72,71,
2,145468, Note_off_c,2,71,64,
2,145494, Note_off_c,2,72,64,
2,145524, Note_on_c,2,71,63,
2,145530, Note_on_c,2,55,49,
2,145532, Note_on_c,2,56,58,
2,145534, Note_on_c,2,60,51,
2,145534, Note_on_c,2,72,73,
2,145556, Note_off_c,2,71,64,
2,145636, Control_c,2,64,127,
2,145678, Note_off_c,2,60,64,
2,145688, Note_off_c,2,55,64,
2,145694, Note_off_c,2,56,64,
2,145780, Note_off_c,2,72,64,
2,145898, Control_c,2,64,0,
2,145902, Note_on_c,2,74,91,
2,145912, Note_on_c,2,66,99,
2,145912, Note_on_c,2,54,73,
2,145916, Note_on_c,2,65,78,
2,146004, Control_c,2,64,127,
2,146144, Note_off_c,2,54,64,
2,146264, Note_off_c,2,66,64,
2,146280, Note_off_c,2,65,64,
2,146314, Note_off_c,2,74,64,
2,146436, Note_on_c,2,60,43,
2,146436, Note_on_c,2,69,40,
2,146438, Note_on_c,2,72,50,
2,146438, Note_on_c,2,54,49,
2,146440, Note_on_c,2,63,41,
2,146444, Control_c,2,64,0,
2,146514, Control_c,2,64,127,
2,146536, Note_off_c,2,72,64,
2,146560, Note_on_c,2,62,56,
2,146560, Note_on_c,2,74,70,
2,146566, Note_off_c,2,60,64,
2,146570, Note_off_c,2,54,64,
2,146584, Note_off_c,2,69,64,
2,146590, Note_off_c,2,63,64,
2,146592, Note_off_c,2,62,64,
2,146598, Note_off_c,2,74,64,
2,146696, Control_c,2,64,0,
2,146698, Note_on_c,2,66,72,
2,146698, Note_on_c,2,77,63,
2,146698, Note_on_c,2,65,56,
2,146700, Note_on_c,2,72,66,
2,146706, Note_on_c,2,57,47,
2,146760, Control_c,2,64,127,
2,146768, Note_off_c,2,77,64,
2,146784, Note_off_c,2,72,64,
2,146786, Note_on_c,2,75,71,
2,146788, Note_on_c,2,63,75,
2,146794, Note_off_c,2,65,64,
2,146796, Note_off_c,2,66,64,
2,146802, Note_off_c,2,75,64,
2,146804, Note_off_c,2,57,64,
2,146806, Note_off_c,2,63,64,
2,146866, Control_c,2,64,0,
2,146872, Note_on_c,2,74,68,
2,146876, Note_on_c,2,69,61,
2,146880, Note_on_c,2,62,61,
2,146880, Note_on_c,2,63,74,
2,146884, Note_on_c,2,54,53,
2,146934, Control_c,2,64,127,
2,146956, Note_off_c,2,74,64,
2,146970, Note_on_c,2,60,69,
2,146974, Note_off_c,2,62,64,
2,146976, Note_on_c,2,72,69,
2,146982, Note_off_c,2,69,64,
2,146984, Note_off_c,2,63,64,
2,146990, Note_off_c,2,60,64,
2,147000, Note_off_c,2,54,64,
2,147008, Note_off_c,2,72,64,
2,147052, Control_c,2,64,0,
2,147058, Note_on_c,2,66,91,
2,147060, Note_on_c,2,71,75,
2,147060, Note_on_c,2,59,63,
2,147060, Note_on_c,2,60,64,
2,147070, Note_on_c,2,51,51,
2,147116, Control_c,2,64,127,
2,147124, Note_off_c,2,60,64,
2,147126, Note_off_c,2,71,64,
2,147132, Note_off_c,2,66,64,
2,147142, Note_on_c,2,57,68,
2,147150, Note_off_c,2,59,64,
2,147152, Note_on_c,2,69,51,
2,147164, Note_off_c,2,57,64,
2,147168, Note_off_c,2,51,64,
2,147182, Note_off_c,2,69,64,
2,147242, Control_c,2,64,0,
2,147244, Note_on_c,2,68,83,
2,147246, Note_on_c,2,56,76,
2,147246, Note_on_c,2,63,81,
2,147248, Note_on_c,2,57,62,
2,147300, Control_c,2,64,127,
2,147338, Note_off_c,2,57,64,
2,147340, Note_on_c,2,54,67,
2,147342, Note_on_c,2,66,84,
2,147348, Note_off_c,2,56,64,
2,147360, Note_off_c,2,63,64,
2,147364, Note_off_c,2,68,64,
2,147378, Note_off_c,2,54,64,
2,147386, Note_off_c,2,66,64,
2,147436, Control_c,2,64,0,
2,147442, Note_on_c,2,63,94,
2,147444, Note_on_c,2,60,79,
2,147444, Note_on_c,2,55,68,
2,147444, Note_on_c,2,67,82,
2,147446, Note_on_c,2,62,81,
2,147446, Note_on_c,2,48,72,
2,147528, Control_c,2,64,127,
2,147566, Note_off_c,2,55,64,
2,147574, Note_off_c,2,48,64,
2,147582, Note_off_c,2,60,64,
2,147584, Note_off_c,2,62,64,
2,147590, Note_off_c,2,63,64,
2,147594, Note_off_c,2,67,64,
2,147826, Note_on_c,2,36,81,
2,147830, Control_c,2,64,0,
2,147832, Note_on_c,2,67,111,
2,147868, Note_off_c,2,36,64,
2,147956, Note_on_c,2,68,54,
2,147960, Note_off_c,2,67,64,
2,147980, Note_on_c,2,67,10,
2,148022, Note_on_c,2,66,50,
2,148024, Note_off_c,2,68,64,
2,148040, Note_off_c,2,67,64,
2,148098, Note_off_c,2,66,64,
2,148118, Note_on_c,2,54,76,
2,148120, Note_on_c,2,67,75,
2,148178, Note_off_c,2,67,64,
2,148206, Note_on_c,2,44,68,
2,148208, Note_on_c,2,70,79,
2,148264, Note_off_c,2,70,64,
2,148332, Control_c,2,64,127,
2,148340, Note_on_c,2,63,66,
2,148378, Note_off_c,2,63,64,
2,148398, Note_off_c,2,44,64,
2,148412, Note_on_c,2,70,85,
2,148416, Note_off_c,2,54,64,
2,148528, Note_off_c,2,70,64,
2,148548, Note_on_c,2,63,64,
2,148578, Control_c,2,64,0,
2,148602, Note_on_c,2,60,62,
2,148602, Note_on_c,2,54,67,
2,148604, Note_on_c,2,72,82,
2,148606, Note_off_c,2,63,64,
2,148662, Control_c,2,64,127,
2,148674, Note_off_c,2,72,64,
2,148702, Note_off_c,2,60,64,
2,148724, Note_off_c,2,54,64,
2,148750, Note_on_c,2,63,57,
2,148802, Note_off_c,2,63,64,
2,148812, Note_on_c,2,75,101,
2,148934, Note_off_c,2,75,64,
2,148952, Note_on_c,2,43,62,
2,148984, Control_c,2,64,0,
2,149010, Note_off_c,2,43,64,
2,149014, Note_on_c,2,36,71,
2,149020, Note_on_c,2,74,73,
2,149084, Control_c,2,64,127,
2,149102, Note_off_c,2,36,64,
2,149112, Note_off_c,2,74,64,
2,149148, Note_on_c,2,63,77,
2,149152, Note_on_c,2,75,82,
2,149190, Note_off_c,2,63,64,
2,149212, Note_off_c,2,75,64,
2,149276, Note_on_c,2,74,74,
2,149352, Note_off_c,2,74,64,
2,149380, Control_c,2,64,0,
2,149396, Note_on_c,2,51,53,
2,149396, Note_on_c,2,55,41,
2,149396, Note_on_c,2,75,92,
2,149398, Note_on_c,2,63,92,
2,149398, Note_on_c,2,58,67,
2,149398, Note_on_c,2,62,46,
2,149462, Control_c,2,64,127,
2,149498, Note_off_c,2,62,64,
2,149498, Note_off_c,2,58,64,
2,149502, Note_off_c,2,75,64,
2,149504, Note_off_c,2,51,64,
2,149506, Note_off_c,2,55,64,
2,149518, Note_off_c,2,63,64,
2,149536, Note_on_c,2,74,68,
2,149618, Note_off_c,2,74,64,
2,149656, Note_on_c,2,75,88,
2,149696, Note_off_c,2,75,64,
2,149766, Control_c,2,64,0,
2,149784, Note_on_c,2,77,91,
2,149904, Note_on_c,2,42,84,
2,149918, Control_c,2,64,127,
2,150032, Note_on_c,2,58,92,
2,150064, Note_off_c,2,58,64,
2,150074, Note_off_c,2,42,64,
2,150076, Note_off_c,2,77,64,
2,150142, Control_c,2,64,0,
2,150144, Note_on_c,2,77,77,
2,150144, Note_on_c,2,57,71,
2,150148, Note_on_c,2,71,91,
2,150154, Note_on_c,2,65,86,
2,150244, Control_c,2,64,127,
2,150282, Note_on_c,2,41,83,
2,150314, Note_off_c,2,71,64,
2,150316, Note_off_c,2,41,64,
2,150320, Note_off_c,2,65,64,
2,150324, Note_off_c,2,57,64,
2,150338, Note_off_c,2,77,64,
2,150402, Note_on_c,2,74,91,
2,150466, Note_off_c,2,74,64,
2,150522, Control_c,2,64,0,
2,150524, Note_on_c,2,58,81,
2,150526, Note_on_c,2,74,97,
2,150528, Note_on_c,2,70,101,
2,150532, Note_on_c,2,67,86,
2,150616, Control_c,2,64,127,
2,150744, Note_off_c,2,74,64,
2,150792, Note_off_c,2,58,64,
2,150806, Note_off_c,2,70,64,
2,150842, Note_off_c,2,67,64,
2,151176, Note_on_c,2,74,111,
2,151218, Note_off_c,2,74,64,
2,151296, Control_c,2,64,0,
2,151306, Note_on_c,2,70,91,
2,151306, Note_on_c,2,72,79,
2,151308, Note_on_c,2,58,78,
2,151310, Note_on_c,2,66,86,
2,151312, Note_on_c,2,64,68,
2,151392, Control_c,2,64,127,
2,151752, Note_off_c,2,58,64,
2,151776, Note_off_c,2,72,64,
2,151808, Note_off_c,2,70,64,
2,151852, Note_off_c,2,64,64,
2,151864, Note_off_c,2,66,64,
2,151924, Note_on_c,2,72,93,
2,151972, Note_off_c,2,72,64,
2,152048, Control_c,2,64,0,
2,152060, Note_on_c,2,42,82,
2,152060, Note_on_c,2,71,79,
2,152282, Note_on_c,2,64,58,
2,152284, Note_on_c,2,56,42,
2,152286, Note_on_c,2,49,60,
2,152286, Note_on_c,2,57,53,
2,152314, Control_c,2,64,127,
2,152496, Note_off_c,2,57,64,
2,152516, Note_off_c,2,64,64,
2,152518, Note_off_c,2,71,64,
2,152538, Note_off_c,2,56,64,
2,152550, Note_off_c,2,49,64,
2,152552, Note_off_c,2,42,64,
2,152682, Note_on_c,2,71,80,
2,152684, Note_on_c,2,64,84,
2,152684, Note_on_c,2,57,78,
2,152716, Note_off_c,2,57,64,
2,152726, Note_off_c,2,64,64,
2,152730, Note_off_c,2,71,64,
2,152822, Control_c,2,64,0,
2,152836, Note_on_c,2,43,67,
2,152838, Note_on_c,2,72,73,
2,152840, Note_on_c,2,65,67,
2,152840, Note_on_c,2,50,73,
2,152840, Note_on_c,2,58,82,
2,152876, Note_off_c,2,50,64,
2,152880, Note_off_c,2,58,64,
2,152880, Note_off_c,2,43,64,
2,152892, Note_off_c,2,65,64,
2,152894, Note_off_c,2,72,64,
2,153214, Note_on_c,2,56,79,
2,153214, Note_on_c,2,43,54,
2,153216, Note_on_c,2,68,85,
2,153216, Note_on_c,2,36,57,
2,153218, Note_on_c,2,63,84,
2,153266, Note_off_c,2,36,64,
2,153268, Note_off_c,2,43,64,
2,153274, Note_off_c,2,56,64,
2,153278, Note_off_c,2,68,64,
2,153280, Note_off_c,2,63,64,
2,153468, Note_on_c,2,67,58,
2,153470, Note_on_c,2,63,74,
2,153474, Note_on_c,2,60,60,
2,153476, Note_on_c,2,56,55,
2,153566, Control_c,2,64,127,
2,153596, Note_off_c,2,56,64,
2,153604, Note_on_c,2,41,64,
2,153606, Note_on_c,2,48,58,
2,153612, Note_off_c,2,60,64,
2,153616, Note_off_c,2,67,64,
2,153620, Note_off_c,2,63,64,
2,153642, Note_off_c,2,41,64,
2,153644, Note_off_c,2,48,64,
2,153840, Control_c,2,64,0,
2,153858, Note_on_c,2,68,75,
2,153866, Note_on_c,2,72,82,
2,153872, Note_on_c,2,75,96,
2,153878, Note_on_c,2,80,100,
2,153904, Control_c,2,64,127,
2,153956, Note_off_c,2,68,64,
2,153962, Note_off_c,2,72,64,
2,153964, Note_off_c,2,80,64,
2,153964, Note_off_c,2,75,64,
2,153986, Note_on_c,2,55,62,
2,153986, Note_on_c,2,60,67,
2,153986, Note_on_c,2,56,73,
2,153992, Note_on_c,2,72,54,
2,153992, Note_on_c,2,75,73,
2,153994, Note_on_c,2,67,61,
2,154000, Note_on_c,2,79,78,
2,154034, Note_off_c,2,56,64,
2,154034, Note_off_c,2,55,64,
2,154036, Note_off_c,2,60,64,
2,154064, Note_off_c,2,79,64,
2,154064, Note_off_c,2,67,64,
2,154072, Note_off_c,2,75,64,
2,154074, Note_off_c,2,72,64,
2,154112, Note_on_c,2,65,55,
2,154114, Note_on_c,2,72,69,
2,154120, Note_on_c,2,77,74,
2,154176, Note_off_c,2,65,64,
2,154180, Note_off_c,2,77,64,
2,154180, Note_off_c,2,72,64,
2,154236, Note_on_c,2,63,69,
2,154240, Note_on_c,2,75,71,
2,154280, Note_off_c,2,63,64,
2,154292, Note_off_c,2,75,64,
2,154348, Control_c,2,64,0,
2,154354, Note_on_c,2,65,54,
2,154358, Note_on_c,2,68,68,
2,154360, Note_on_c,2,72,69,
2,154360, Note_on_c,2,56,69,
2,154364, Note_on_c,2,46,75,
2,154368, Note_on_c,2,77,77,
2,154396, Note_off_c,2,68,64,
2,154400, Note_off_c,2,65,64,
2,154412, Note_off_c,2,72,64,
2,154420, Note_off_c,2,46,64,
2,154420, Control_c,2,64,127,
2,154424, Note_off_c,2,77,64,
2,154428, Note_off_c,2,56,64,
2,154614, Note_on_c,2,77,41,
2,154616, Note_on_c,2,80,63,
2,154622, Note_on_c,2,84,73,
2,154632, Note_on_c,2,89,86,
2,154674, Note_off_c,2,80,64,
2,154674, Note_off_c,2,77,64,
2,154680, Note_off_c,2,89,64,
2,154680, Note_off_c,2,84,64,
2,154748, Note_on_c,2,56,71,
2,154752, Note_on_c,2,62,68,
2,154752, Note_on_c,2,65,64,
2,154800, Note_off_c,2,62,64,
2,154804, Note_off_c,2,65,64,
2,154808, Note_off_c,2,56,64,
2,155106, Note_on_c,2,46,76,
2,155130, Control_c,2,64,0,
2,155136, Note_on_c,2,52,70,
2,155150, Note_on_c,2,70,64,
2,155152, Note_on_c,2,55,63,
2,155158, Note_on_c,2,73,83,
2,155162, Note_on_c,2,61,88,
2,155168, Note_on_c,2,76,86,
2,155172, Note_on_c,2,82,102,
2,155214, Control_c,2,64,127,
2,155248, Note_off_c,2,46,64,
2,155254, Note_off_c,2,76,64,
2,155256, Note_off_c,2,82,64,
2,155256, Note_off_c,2,52,64,
2,155258, Note_off_c,2,55,64,
2,155260, Note_off_c,2,73,64,
2,155278, Note_off_c,2,70,64,
2,155280, Note_off_c,2,61,64,
2,155408, Note_on_c,2,68,73,
2,155412, Note_on_c,2,72,84,
2,155414, Note_on_c,2,75,97,
2,155416, Note_on_c,2,80,101,
2,155492, Note_off_c,2,68,64,
2,155496, Note_off_c,2,80,64,
2,155500, Note_off_c,2,72,64,
2,155504, Note_off_c,2,75,64,
2,155530, Control_c,2,64,0,
2,155532, Note_on_c,2,55,54,
2,155534, Note_on_c,2,61,62,
2,155536, Note_on_c,2,58,81,
2,155536, Note_on_c,2,64,60,
2,155538, Note_on_c,2,72,73,
2,155538, Note_on_c,2,67,71,
2,155538, Note_on_c,2,75,69,
2,155542, Note_on_c,2,79,83,
2,155604, Control_c,2,64,127,
2,155626, Note_off_c,2,79,64,
2,155626, Note_off_c,2,64,64,
2,155632, Note_off_c,2,61,64,
2,155640, Note_off_c,2,55,64,
2,155642, Note_off_c,2,75,64,
2,155644, Note_off_c,2,67,64,
2,155644, Note_off_c,2,58,64,
2,155646, Note_off_c,2,72,64,
2,155772, Note_on_c,2,77,77,
2,155772, Note_on_c,2,65,83,
2,155776, Note_on_c,2,72,73,
2,155824, Note_off_c,2,72,64,
2,155826, Note_off_c,2,65,64,
2,155832, Note_off_c,2,77,64,
2,155890, Control_c,2,64,0,
2,155912, Note_on_c,2,80,93,
2,155916, Note_on_c,2,53,77,
2,155916, Note_on_c,2,75,91,
2,155918, Note_on_c,2,72,96,
2,155922, Note_on_c,2,68,91,
2,155974, Control_c,2,64,127,
2,155990, Note_off_c,2,80,64,
2,156000, Note_off_c,2,75,64,
2,156006, Note_off_c,2,72,64,
2,156022, Note_off_c,2,68,64,
2,156040, Note_on_c,2,46,98,
2,156062, Note_off_c,2,53,64,
2,156078, Note_off_c,2,46,64,
2,156276, Note_on_c,2,70,96,
2,156278, Note_on_c,2,61,91,
2,156278, Note_on_c,2,62,85,
2,156278, Note_on_c,2,66,95,
2,156280, Control_c,2,64,0,
2,156356, Control_c,2,64,127,
2,156406, Note_off_c,2,62,64,
2,156406, Note_on_c,2,47,81,
2,156408, Note_off_c,2,61,64,
2,156408, Note_on_c,2,40,82,
2,156420, Note_off_c,2,70,64,
2,156422, Note_off_c,2,66,64,
2,156482, Note_off_c,2,47,64,
2,156484, Note_off_c,2,40,64,
2,156652, Control_c,2,64,0,
2,156672, Note_on_c,2,74,92,
2,156672, Note_on_c,2,75,95,
2,156674, Note_on_c,2,46,94,
2,156676, Note_on_c,2,70,99,
2,156676, Note_on_c,2,39,89,
2,156678, Note_on_c,2,65,90,
2,156744, Control_c,2,64,127,
2,156764, Note_off_c,2,39,64,
2,156764, Note_off_c,2,46,64,
2,156778, Note_off_c,2,65,64,
2,156782, Note_off_c,2,70,64,
2,156798, Note_off_c,2,74,64,
2,156806, Note_off_c,2,75,64,
2,157082, Note_on_c,2,55,64,
2,157084, Note_on_c,2,60,73,
2,157084, Note_on_c,2,58,87,
2,157084, Note_on_c,2,75,98,
2,157084, Note_on_c,2,84,91,
2,157084, Note_on_c,2,86,91,
2,157158, Note_off_c,2,86,64,
2,157172, Note_off_c,2,84,64,
2,157192, Note_off_c,2,75,64,
2,157208, Note_off_c,2,60,64,
2,157212, Note_off_c,2,58,64,
2,157218, Note_off_c,2,55,64,
2,157334, Note_on_c,2,86,84,
2,157378, Note_on_c,2,84,80,
2,157398, Note_off_c,2,86,64,
2,157408, Note_on_c,2,82,61,
2,157434, Note_off_c,2,82,64,
2,157446, Control_c,2,64,0,
2,157454, Note_off_c,2,84,64,
2,157466, Note_on_c,2,84,101,
2,157538, Control_c,2,64,127,
2,157574, Note_off_c,2,84,64,
2,157592, Note_on_c,2,41,76,
2,157640, Note_off_c,2,41,64,
2,157810, Control_c,2,64,0,
2,157820, Note_on_c,2,56,93,
2,157822, Note_on_c,2,68,91,
2,157824, Note_on_c,2,63,94,
2,157824, Note_on_c,2,60,77,
2,157872, Control_c,2,64,127,
2,158024, Note_off_c,2,56,64,
2,158028, Note_off_c,2,60,64,
2,158028, Note_off_c,2,63,64,
2,158038, Note_off_c,2,68,64,
2,158216, Control_c,2,64,0,
2,158218, Note_on_c,2,58,82,
2,158218, Note_on_c,2,43,75,
2,158312, Note_on_c,2,62,67,
2,158372, Control_c,2,64,127,
2,158380, Note_off_c,2,62,64,
2,158402, Note_on_c,2,65,68,
2,158420, Note_off_c,2,43,64,
2,158432, Note_off_c,2,58,64,
2,158484, Note_off_c,2,65,64,
2,158500, Note_on_c,2,70,94,
2,158530, Note_off_c,2,70,64,
2,158582, Control_c,2,64,0,
2,158592, Note_on_c,2,57,72,
2,158592, Note_on_c,2,42,80,
2,158600, Note_on_c,2,72,101,
2,158702, Note_on_c,2,73,51,
2,158708, Note_off_c,2,72,64,
2,158746, Note_on_c,2,74,60,
2,158786, Note_off_c,2,73,64,
2,158788, Note_on_c,2,75,102,
2,158802, Control_c,2,64,127,
2,158808, Note_off_c,2,74,64,
2,158830, Note_off_c,2,57,64,
2,158834, Note_off_c,2,42,64,
2,158880, Note_off_c,2,75,64,
2,158892, Note_on_c,2,72,83,
2,158938, Note_off_c,2,72,64,
2,158964, Control_c,2,64,0,
2,158972, Note_on_c,2,43,68,
2,158972, Note_on_c,2,58,79,
2,158980, Note_on_c,2,74,88,
2,159066, Note_off_c,2,74,64,
2,159086, Control_c,2,64,127,
2,159092, Note_on_c,2,70,94,
2,159140, Note_off_c,2,70,64,
2,159144, Note_off_c,2,43,64,
2,159172, Note_off_c,2,58,64,
2,159182, Note_on_c,2,69,68,
2,159192, Note_on_c,2,70,27,
2,159216, Note_off_c,2,69,64,
2,159234, Note_on_c,2,69,63,
2,159260, Note_off_c,2,70,64,
2,159292, Note_on_c,2,67,74,
2,159304, Note_off_c,2,69,64,
2,159334, Note_off_c,2,67,64,
2,159340, Control_c,2,64,0,
2,159350, Note_on_c,2,42,63,
2,159356, Note_on_c,2,58,50,
2,159360, Note_on_c,2,66,74,
2,159362, Note_on_c,2,52,61,
2,159380, Note_off_c,2,66,64,
2,159386, Note_on_c,2,68,48,
2,159414, Note_on_c,2,66,44,
2,159436, Note_off_c,2,68,64,
2,159474, Note_off_c,2,66,64,
2,159476, Note_on_c,2,64,79,
2,159508, Control_c,2,64,127,
2,159516, Note_off_c,2,58,64,
2,159524, Note_off_c,2,52,64,
2,159528, Note_off_c,2,64,64,
2,159552, Note_off_c,2,42,64,
2,159552, Note_on_c,2,63,70,
2,159614, Note_off_c,2,63,64,
2,159676, Note_on_c,2,62,69,
2,159720, Control_c,2,64,0,
2,159740, Note_on_c,2,51,48,
2,159742, Note_off_c,2,62,64,
2,159742, Note_on_c,2,41,50,
2,159752, Note_on_c,2,60,62,
2,159808, Control_c,2,64,127,
2,159816, Note_off_c,2,41,64,
2,159820, Note_off_c,2,60,64,
2,159828, Note_off_c,2,51,64,
2,160116, Control_c,2,64,0,
2,160130, Note_on_c,2,57,68,
2,160130, Note_on_c,2,51,77,
2,160130, Note_on_c,2,60,60,
2,160130, Note_on_c,2,77,111,
2,160172, Note_off_c,2,77,64,
2,160182, Note_off_c,2,51,64,
2,160182, Note_off_c,2,57,64,
2,160184, Note_off_c,2,60,64,
2,160238, Note_on_c,2,75,94,
2,160292, Note_off_c,2,75,64,
2,160332, Note_on_c,2,74,95,
2,160386, Note_off_c,2,74,64,
2,160442, Note_on_c,2,72,87,
2,160480, Note_off_c,2,72,64,
2,160530, Note_on_c,2,36,54,
2,160534, Note_on_c,2,74,88,
2,160568, Control_c,2,64,127,
2,160574, Note_off_c,2,36,64,
2,160584, Note_off_c,2,74,64,
2,160900, Note_on_c,2,42,73,
2,160902, Note_on_c,2,58,55,
2,161032, Note_on_c,2,63,79,
2,161068, Note_off_c,2,42,64,
2,161072, Note_off_c,2,58,64,
2,161142, Note_off_c,2,63,64,
2,161160, Note_on_c,2,75,86,
2,161200, Note_off_c,2,75,64,
2,161250, Control_c,2,64,0,
2,161272, Note_on_c,2,58,63,
2,161274, Note_on_c,2,43,52,
2,161276, Note_on_c,2,70,75,
2,161338, Control_c,2,64,127,
2,161356, Note_off_c,2,43,64,
2,161382, Note_off_c,2,58,64,
2,161392, Note_off_c,2,70,64,
2,161542, Note_on_c,2,67,82,
2,161648, Control_c,2,64,0,
2,161668, Note_on_c,2,65,46,
2,161670, Note_on_c,2,70,84,
2,161670, Note_on_c,2,61,49,
2,161670, Note_on_c,2,55,40,
2,161672, Note_on_c,2,58,69,
2,161678, Note_off_c,2,67,64,
2,161762, Note_off_c,2,65,64,
2,161764, Note_off_c,2,61,64,
2,161776, Note_off_c,2,58,64,
2,161782, Control_c,2,64,127,
2,161784, Note_off_c,2,55,64,
2,161884, Note_off_c,2,70,64,
2,161942, Note_on_c,2,72,76,
2,161976, Note_off_c,2,72,64,
2,162040, Control_c,2,64,0,
2,162060, Note_on_c,2,52,45,
2,162062, Note_on_c,2,73,91,
2,162062, Note_on_c,2,36,42,
2,162112, Note_off_c,2,73,64,
2,162130, Note_off_c,2,36,64,
2,162130, Note_off_c,2,52,64,
2,162134, Note_on_c,2,75,58,
2,162166, Note_off_c,2,75,64,
2,162224, Note_on_c,2,72,61,
2,162448, Note_on_c,2,61,46,
2,162450, Note_on_c,2,52,44,
2,162452, Note_on_c,2,58,66,
2,162462, Control_c,2,64,127,
2,162468, Note_off_c,2,72,64,
2,162518, Note_off_c,2,58,64,
2,162524, Note_off_c,2,52,64,
2,162524, Note_off_c,2,61,64,
2,162744, Note_on_c,2,70,102,
2,162794, Note_off_c,2,70,64,
2,162808, Control_c,2,64,0,
2,162824, Note_on_c,2,48,55,
2,162824, Note_on_c,2,41,62,
2,162830, Note_on_c,2,68,77,
2,162868, Note_off_c,2,41,64,
2,162870, Note_off_c,2,48,64,
2,162872, Note_off_c,2,68,64,
2,162946, Note_on_c,2,67,62,
2,162988, Note_off_c,2,67,64,
2,163012, Note_on_c,2,68,66,
2,163036, Note_off_c,2,68,64,
2,163076, Note_on_c,2,72,55,
2,163116, Note_off_c,2,72,64,
2,163140, Note_on_c,2,75,91,
2,163178, Note_off_c,2,75,64,
2,163208, Note_on_c,2,67,36,
2,163210, Note_on_c,2,56,52,
2,163212, Note_on_c,2,60,53,
2,163212, Note_on_c,2,77,77,
2,163212, Note_on_c,2,63,62,
2,163276, Note_off_c,2,63,64,
2,163278, Note_off_c,2,56,64,
2,163282, Note_off_c,2,67,64,
2,163286, Note_off_c,2,60,64,
2,163292, Note_off_c,2,77,64,
2,163308, Note_on_c,2,79,83,
2,163368, Note_off_c,2,79,64,
2,163408, Note_on_c,2,80,87,
2,163450, Note_off_c,2,80,64,
2,163502, Note_on_c,2,81,84,
2,163548, Note_off_c,2,81,64,
2,163598, Note_on_c,2,56,68,
2,163600, Note_on_c,2,46,71,
2,163604, Note_on_c,2,82,87,
2,163632, Note_off_c,2,82,64,
2,163632, Note_off_c,2,46,64,
2,163634, Note_on_c,2,83,44,
2,163636, Note_off_c,2,56,64,
2,163664, Note_on_c,2,82,62,
2,163674, Note_off_c,2,83,64,
2,163718, Note_on_c,2,81,78,
2,163734, Note_off_c,2,82,64,
2,163766, Note_off_c,2,81,64,
2,163802, Note_on_c,2,80,75,
2,163832, Note_off_c,2,80,64,
2,163832, Note_on_c,2,81,33,
2,163870, Note_on_c,2,80,60,
2,163886, Note_off_c,2,81,64,
2,163916, Note_on_c,2,79,85,
2,163936, Note_off_c,2,80,64,
2,163960, Note_off_c,2,79,64,
2,163988, Note_on_c,2,62,63,
2,163990, Note_on_c,2,56,65,
2,163992, Note_on_c,2,78,83,
2,164020, Note_off_c,2,62,64,
2,164024, Note_off_c,2,78,64,
2,164030, Note_on_c,2,79,47,
2,164032, Note_off_c,2,56,64,
2,164054, Note_on_c,2,78,34,
2,164074, Note_off_c,2,79,64,
2,164100, Note_on_c,2,74,84,
2,164108, Note_off_c,2,78,64,
2,164144, Note_off_c,2,74,64,
2,164194, Note_on_c,2,73,68,
2,164234, Note_off_c,2,73,64,
2,164288, Note_on_c,2,71,85,
2,164346, Note_off_c,2,71,64,
2,164370, Note_on_c,2,70,88,
2,164370, Note_on_c,2,39,75,
2,164370, Note_on_c,2,46,73,
2,164404, Note_off_c,2,39,64,
2,164406, Note_off_c,2,46,64,
2,164456, Note_off_c,2,70,64,
2,164500, Note_on_c,2,71,70,
2,164514, Note_on_c,2,70,87,
2,164536, Note_off_c,2,71,64,
2,164570, Note_on_c,2,69,56,
2,164582, Note_off_c,2,70,64,
2,164628, Note_off_c,2,69,64,
2,164674, Note_on_c,2,70,81,
2,164724, Note_off_c,2,70,64,
2,164746, Note_on_c,2,44,69,
2,164746, Note_on_c,2,54,55,
2,164748, Note_on_c,2,77,87,
2,164816, Note_off_c,2,77,64,
2,164878, Note_on_c,2,74,95,
2,164924, Note_off_c,2,74,64,
2,164936, Note_on_c,2,70,74,
2,164972, Note_off_c,2,54,64,
2,164988, Note_off_c,2,44,64,
2,165068, Note_on_c,2,65,70,
2,165072, Note_off_c,2,70,64,
2,165112, Note_off_c,2,65,64,
2,165122, Note_on_c,2,53,53,
2,165122, Note_on_c,2,43,52,
2,165128, Note_on_c,2,63,84,
2,165200, Note_off_c,2,43,64,
2,165204, Note_off_c,2,53,64,
2,165222, Note_off_c,2,63,64,
2,165268, Note_on_c,2,60,51,
2,165302, Note_off_c,2,60,64,
2,165320, Note_on_c,2,61,76,
2,165392, Note_off_c,2,61,64,
2,165460, Note_on_c,2,63,94,
2,165494, Note_off_c,2,63,64,
2,165510, Note_on_c,2,36,55,
2,165512, Note_on_c,2,52,50,
2,165520, Note_on_c,2,64,66,
2,165600, Note_off_c,2,52,64,
2,165600, Note_off_c,2,36,64,
2,165660, Note_off_c,2,64,64,
2,165664, Note_on_c,2,67,23,
2,165690, Note_off_c,2,67,64,
2,165706, Note_on_c,2,73,110,
2,165784, Note_off_c,2,73,64,
2,165848, Note_on_c,2,71,44,
2,165884, Note_off_c,2,71,64,
2,165896, Note_on_c,2,41,61,
2,165896, Note_on_c,2,72,95,
2,165898, Note_on_c,2,48,58,
2,165956, Note_off_c,2,41,64,
2,165960, Note_off_c,2,48,64,
2,166000, Note_off_c,2,72,64,
2,166040, Note_on_c,2,67,73,
2,166076, Note_off_c,2,67,64,
2,166290, Note_on_c,2,55,59,
2,166290, Note_on_c,2,56,71,
2,166292, Note_on_c,2,60,64,
2,166338, Note_off_c,2,56,64,
2,166340, Note_off_c,2,60,64,
2,166340, Note_off_c,2,55,64,
2,166420, Note_on_c,2,72,78,
2,166466, Note_off_c,2,72,64,
2,166482, Note_on_c,2,75,69,
2,166514, Note_off_c,2,75,64,
2,166546, Note_on_c,2,80,70,
2,166582, Note_off_c,2,80,64,
2,166602, Note_on_c,2,82,94,
2,166642, Note_off_c,2,82,64,
2,166662, Note_on_c,2,84,96,
2,166664, Note_on_c,2,72,95,
2,166664, Note_on_c,2,52,66,
2,166666, Note_on_c,2,36,64,
2,166724, Note_off_c,2,72,64,
2,166726, Note_off_c,2,36,64,
2,166728, Note_off_c,2,52,64,
2,166744, Note_off_c,2,84,64,
2,166808, Note_on_c,2,72,101,
2,166810, Note_on_c,2,84,100,
2,166850, Note_off_c,2,72,64,
2,166872, Note_off_c,2,84,64,
2,166882, Note_on_c,2,72,55,
2,166914, Note_off_c,2,72,64,
2,166916, Note_on_c,2,84,59,
2,166946, Note_off_c,2,84,64,
2,166946, Note_on_c,2,72,58,
2,166980, Note_on_c,2,84,51,
2,166984, Note_off_c,2,72,64,
2,167006, Note_on_c,2,72,52,
2,167012, Note_off_c,2,84,64,
2,167042, Note_on_c,2,84,44,
2,167048, Note_off_c,2,72,64,
2,167068, Note_on_c,2,61,65,
2,167068, Note_on_c,2,72,57,
2,167068, Note_on_c,2,52,65,
2,167070, Note_on_c,2,58,84,
2,167076, Note_off_c,2,84,64,
2,167106, Note_on_c,2,84,50,
2,167110, Note_off_c,2,72,64,
2,167120, Note_off_c,2,58,64,
2,167120, Note_off_c,2,61,64,
2,167124, Note_off_c,2,52,64,
2,167136, Note_on_c,2,72,44,
2,167138, Note_off_c,2,84,64,
2,167176, Note_off_c,2,72,64,
2,167176, Note_on_c,2,84,59,
2,167204, Note_off_c,2,84,64,
2,167206, Note_on_c,2,72,47,
2,167240, Note_off_c,2,72,64,
2,167244, Note_on_c,2,84,59,
2,167266, Note_off_c,2,84,64,
2,167266, Note_on_c,2,72,54,
2,167304, Note_off_c,2,72,64,
2,167310, Note_on_c,2,84,61,
2,167332, Note_off_c,2,84,64,
2,167334, Note_on_c,2,72,45,
2,167372, Note_off_c,2,72,64,
2,167374, Note_on_c,2,84,65,
2,167402, Note_on_c,2,72,41,
2,167404, Note_off_c,2,84,64,
2,167434, Note_on_c,2,84,42,
2,167442, Note_off_c,2,72,64,
2,167442, Note_on_c,2,56,75,
2,167442, Note_on_c,2,41,72,
2,167464, Note_on_c,2,72,52,
2,167472, Note_off_c,2,84,64,
2,167504, Note_off_c,2,41,64,
2,167508, Note_off_c,2,72,64,
2,167508, Note_on_c,2,84,52,
2,167520, Note_off_c,2,56,64,
2,167538, Note_off_c,2,84,64,
2,167538, Note_on_c,2,72,44,
2,167574, Note_off_c,2,72,64,
2,167574, Note_on_c,2,84,47,
2,167606, Note_off_c,2,84,64,
2,167606, Note_on_c,2,72,47,
2,167642, Note_on_c,2,84,45,
2,167644, Note_off_c,2,72,64,
2,167672, Note_on_c,2,72,44,
2,167674, Note_off_c,2,84,64,
2,167710, Note_off_c,2,72,64,
2,167710, Note_on_c,2,84,48,
2,167738, Note_on_c,2,72,43,
2,167742, Note_off_c,2,84,64,
2,167776, Note_on_c,2,84,50,
2,167778, Note_off_c,2,72,64,
2,167804, Note_on_c,2,72,41,
2,167812, Note_off_c,2,84,64,
2,167828, Note_on_c,2,60,68,
2,167830, Note_on_c,2,53,68,
2,167832, Note_on_c,2,56,79,
2,167842, Note_on_c,2,84,45,
2,167846, Note_off_c,2,72,64,
2,167870, Note_off_c,2,60,64,
2,167872, Note_on_c,2,72,46,
2,167874, Note_off_c,2,56,64,
2,167874, Note_off_c,2,53,64,
2,167878, Note_off_c,2,84,64,
2,167912, Note_off_c,2,72,64,
2,167916, Note_on_c,2,84,64,
2,167946, Note_on_c,2,72,40,
2,167948, Note_off_c,2,84,64,
2,167982, Note_on_c,2,84,41,
2,167984, Note_off_c,2,72,64,
2,168014, Note_on_c,2,72,46,
2,168016, Note_off_c,2,84,64,
2,168048, Note_on_c,2,84,38,
2,168052, Note_off_c,2,72,64,
2,168076, Note_on_c,2,72,48,
2,168080, Note_off_c,2,84,64,
2,168116, Note_on_c,2,84,41,
2,168120, Note_off_c,2,72,64,
2,168142, Note_on_c,2,72,58,
2,168188, Note_on_c,2,56,67,
2,168188, Note_on_c,2,46,75,
2,168192, Note_off_c,2,72,64,
2,168192, Note_on_c,2,50,74,
2,168214, Note_off_c,2,84,64,
2,168220, Control_c,2,64,127,
2,168244, Note_off_c,2,46,64,
2,168246, Note_off_c,2,50,64,
2,168262, Note_off_c,2,56,64,
2,168394, Note_on_c,2,82,113,
2,168456, Note_off_c,2,82,64,
2,168496, Note_on_c,2,80,104,
2,168546, Note_off_c,2,80,64,
2,168552, Control_c,2,64,0,
2,168580, Note_on_c,2,62,70,
2,168582, Note_on_c,2,56,70,
2,168584, Note_on_c,2,78,86,
2,168608, Note_off_c,2,62,64,
2,168612, Note_off_c,2,78,64,
2,168612, Note_off_c,2,56,64,
2,168616, Note_on_c,2,80,49,
2,168634, Note_on_c,2,78,70,
2,168656, Note_off_c,2,80,64,
2,168690, Note_on_c,2,74,86,
2,168704, Note_off_c,2,78,64,
2,168736, Note_off_c,2,74,64,
2,168784, Note_on_c,2,73,78,
2,168824, Note_off_c,2,73,64,
2,168876, Note_on_c,2,71,77,
2,168936, Note_off_c,2,71,64,
2,168968, Note_on_c,2,46,75,
2,168970, Note_on_c,2,70,85,
2,168970, Note_on_c,2,39,73,
2,169008, Note_off_c,2,39,64,
2,169014, Note_off_c,2,46,64,
2,169032, Note_off_c,2,70,64,
2,169104, Note_on_c,2,74,104,
2,169114, Note_on_c,2,77,77,
2,169126, Note_on_c,2,75,28,
2,169150, Note_off_c,2,74,64,
2,169178, Note_off_c,2,75,64,
2,169366, Note_on_c,2,51,70,
2,169366, Note_on_c,2,62,60,
2,169366, Note_on_c,2,58,77,
2,169414, Note_off_c,2,58,64,
2,169418, Note_off_c,2,51,64,
2,169422, Note_off_c,2,62,64,
2,169748, Note_on_c,2,41,82,
2,169770, Control_c,2,64,127,
2,169780, Note_off_c,2,41,64,
2,169784, Note_off_c,2,77,64,
2,169952, Note_on_c,2,67,57,
2,169968, Control_c,2,64,0,
2,170012, Note_off_c,2,67,64,
2,170044, Note_on_c,2,68,98,
2,170096, Note_off_c,2,68,64,
2,170128, Note_on_c,2,55,62,
2,170128, Note_on_c,2,60,63,
2,170128, Note_on_c,2,56,70,
2,170132, Note_on_c,2,72,88,
2,170172, Note_off_c,2,56,64,
2,170172, Note_off_c,2,60,64,
2,170172, Note_off_c,2,55,64,
2,170214, Note_off_c,2,72,64,
2,170230, Note_on_c,2,75,97,
2,170260, Note_off_c,2,75,64,
2,170316, Note_on_c,2,79,95,
2,170364, Note_on_c,2,80,77,
2,170384, Note_off_c,2,79,64,
2,170400, Note_on_c,2,81,64,
2,170416, Note_off_c,2,80,64,
2,170428, Note_on_c,2,82,101,
2,170446, Note_off_c,2,81,64,
2,170470, Note_off_c,2,82,64,
2,170498, Note_on_c,2,81,93,
2,170498, Note_on_c,2,42,87,
2,170528, Note_off_c,2,42,64,
2,170564, Note_off_c,2,81,64,
2,170622, Note_on_c,2,81,91,
2,170624, Note_on_c,2,78,103,
2,170684, Note_off_c,2,81,64,
2,170706, Note_on_c,2,77,82,
2,170708, Note_off_c,2,78,64,
2,170770, Note_off_c,2,77,64,
2,170808, Note_on_c,2,75,107,
2,170852, Note_off_c,2,75,64,
2,170876, Note_on_c,2,60,58,
2,170878, Note_on_c,2,54,73,
2,170888, Note_on_c,2,74,86,
2,170904, Note_on_c,2,75,49,
2,170906, Note_off_c,2,60,64,
2,170916, Note_off_c,2,54,64,
2,170918, Note_off_c,2,74,64,
2,170938, Note_on_c,2,74,71,
2,170962, Note_off_c,2,75,64,
2,170998, Note_on_c,2,72,85,
2,171008, Note_off_c,2,74,64,
2,171052, Note_off_c,2,72,64,
2,171072, Note_on_c,2,71,86,
2,171156, Note_off_c,2,71,64,
2,171194, Note_on_c,2,70,107,
2,171252, Note_off_c,2,70,64,
2,171258, Note_on_c,2,43,71,
2,171264, Note_on_c,2,69,57,
2,171290, Note_off_c,2,43,64,
2,171356, Note_off_c,2,69,64,
2,171402, Note_on_c,2,70,67,
2,171426, Note_off_c,2,70,64,
2,171456, Note_on_c,2,74,84,
2,171564, Note_off_c,2,74,64,
2,171592, Note_on_c,2,77,64,
2,171616, Note_off_c,2,77,64,
2,171644, Note_on_c,2,58,76,
2,171646, Note_on_c,2,52,68,
2,171648, Note_on_c,2,48,60,
2,171648, Note_on_c,2,81,87,
2,171714, Note_off_c,2,52,64,
2,171714, Note_off_c,2,58,64,
2,171720, Note_off_c,2,48,64,
2,171754, Note_off_c,2,81,64,
2,171782, Note_on_c,2,82,80,
2,171822, Note_off_c,2,82,64,
2,171838, Note_on_c,2,84,93,
2,171920, Note_off_c,2,84,64,
2,171970, Note_on_c,2,85,110,
2,172012, Note_off_c,2,85,64,
2,172020, Note_on_c,2,41,75,
2,172022, Note_on_c,2,48,72,
2,172028, Note_on_c,2,86,88,
2,172052, Note_off_c,2,48,64,
2,172056, Note_off_c,2,41,64,
2,172092, Note_off_c,2,86,64,
2,172094, Note_on_c,2,81,47,
2,172122, Note_off_c,2,81,64,
2,172152, Note_on_c,2,84,99,
2,172198, Note_off_c,2,84,64,
2,172224, Note_on_c,2,82,87,
2,172304, Note_off_c,2,82,64,
2,172364, Note_on_c,2,72,53,
2,172396, Note_off_c,2,72,64,
2,172408, Note_on_c,2,57,64,
2,172410, Note_on_c,2,60,58,
2,172410, Note_on_c,2,51,70,
2,172414, Note_on_c,2,75,91,
2,172482, Note_off_c,2,57,64,
2,172484, Note_off_c,2,60,64,
2,172490, Note_off_c,2,51,64,
2,172512, Note_off_c,2,75,64,
2,172614, Note_on_c,2,80,106,
2,172628, Note_on_c,2,81,82,
2,172646, Note_off_c,2,80,64,
2,172758, Note_off_c,2,81,64,
2,172792, Note_on_c,2,36,61,
2,172800, Note_on_c,2,79,88,
2,172838, Note_off_c,2,36,64,
2,172918, Note_off_c,2,79,64,
2,172938, Note_on_c,2,69,71,
2,173188, Note_on_c,2,57,67,
2,173190, Note_on_c,2,62,68,
2,173192, Note_on_c,2,51,74,
2,173240, Note_off_c,2,51,64,
2,173240, Note_off_c,2,62,64,
2,173240, Note_off_c,2,57,64,
2,173302, Note_off_c,2,69,64,
2,173326, Note_on_c,2,70,103,
2,173396, Note_off_c,2,70,64,
2,173456, Note_on_c,2,74,95,
2,173532, Note_off_c,2,74,64,
2,173580, Note_on_c,2,51,65,
2,173580, Note_on_c,2,41,60,
2,173586, Note_on_c,2,75,112,
2,173626, Note_off_c,2,41,64,
2,173632, Note_off_c,2,51,64,
2,173676, Note_off_c,2,75,64,
2,173726, Note_on_c,2,67,33,
2,173808, Note_off_c,2,67,64,
2,173850, Note_on_c,2,68,100,
2,173930, Note_off_c,2,68,64,
2,173974, Note_on_c,2,60,69,
2,173974, Note_on_c,2,55,71,
2,173974, Note_on_c,2,56,78,
2,173980, Note_on_c,2,72,89,
2,174020, Note_off_c,2,55,64,
2,174024, Note_off_c,2,56,64,
2,174030, Note_off_c,2,60,64,
2,174060, Note_off_c,2,72,64,
2,174110, Note_on_c,2,75,106,
2,174110, Note_on_c,2,63,108,
2,174172, Note_off_c,2,63,64,
2,174192, Note_off_c,2,75,64,
2,174236, Note_on_c,2,68,80,
2,174300, Note_off_c,2,68,64,
2,174348, Note_on_c,2,34,96,
2,174354, Note_on_c,2,72,77,
2,174384, Note_off_c,2,34,64,
2,174446, Note_off_c,2,72,64,
2,174488, Note_on_c,2,63,105,
2,174488, Note_on_c,2,75,103,
2,174550, Note_off_c,2,63,64,
2,174576, Note_off_c,2,75,64,
2,174612, Note_on_c,2,72,78,
2,174694, Note_off_c,2,72,64,
2,174728, Note_on_c,2,56,97,
2,174732, Note_on_c,2,75,108,
2,174804, Note_off_c,2,56,64,
2,174844, Note_off_c,2,75,64,
2,174870, Note_on_c,2,72,76,
2,174960, Note_off_c,2,72,64,
2,174988, Note_on_c,2,68,95,
2,175064, Note_off_c,2,68,64,
2,175096, Note_on_c,2,65,68,
2,175102, Note_on_c,2,43,68,
2,175104, Note_on_c,2,66,89,
2,175104, Note_on_c,2,53,58,
2,175124, Note_on_c,2,67,80,
2,175128, Note_off_c,2,66,64,
2,175150, Note_off_c,2,43,64,
2,175154, Note_off_c,2,65,64,
2,175170, Note_off_c,2,53,64,
2,175232, Note_off_c,2,67,64,
2,175248, Note_on_c,2,70,104,
2,175494, Note_on_c,2,55,59,
2,175496, Note_on_c,2,60,63,
2,175496, Note_on_c,2,65,65,
2,175496, Note_on_c,2,61,74,
2,175544, Note_off_c,2,61,64,
2,175544, Note_off_c,2,60,64,
2,175546, Note_off_c,2,65,64,
2,175556, Note_off_c,2,55,64,
2,175878, Note_on_c,2,49,77,
2,175880, Note_on_c,2,52,61,
2,175916, Note_off_c,2,70,64,
2,175964, Note_on_c,2,71,71,
2,176004, Note_off_c,2,71,64,
2,176010, Note_on_c,2,68,63,
2,176050, Note_off_c,2,68,64,
2,176054, Note_on_c,2,69,58,
2,176098, Note_off_c,2,69,64,
2,176102, Note_on_c,2,72,77,
2,176148, Note_on_c,2,69,57,
2,176150, Note_off_c,2,72,64,
2,176192, Note_on_c,2,70,66,
2,176208, Note_off_c,2,69,64,
2,176244, Note_on_c,2,73,85,
2,176246, Note_off_c,2,70,64,
2,176288, Note_off_c,2,73,64,
2,176424, Control_c,2,64,127,
2,176462, Note_off_c,2,49,64,
2,176480, Note_off_c,2,52,64,
2,176550, Note_on_c,2,72,79,
2,176578, Note_on_c,2,75,81,
2,176580, Note_off_c,2,72,64,
2,176584, Control_c,2,64,0,
2,176604, Note_on_c,2,72,61,
2,176626, Note_off_c,2,75,64,
2,176636, Note_on_c,2,71,68,
2,176644, Note_off_c,2,72,64,
2,176648, Note_on_c,2,51,75,
2,176664, Note_off_c,2,71,64,
2,176690, Note_on_c,2,70,81,
2,176710, Note_off_c,2,70,64,
2,176716, Note_on_c,2,73,81,
2,176744, Note_on_c,2,70,55,
2,176754, Note_off_c,2,73,64,
2,176772, Note_on_c,2,69,69,
2,176776, Note_off_c,2,70,64,
2,176796, Note_off_c,2,69,64,
2,176812, Note_on_c,2,68,74,
2,176828, Note_on_c,2,71,72,
2,176836, Note_off_c,2,68,64,
2,176864, Note_on_c,2,68,66,
2,176876, Note_off_c,2,71,64,
2,176894, Note_on_c,2,67,62,
2,176898, Note_off_c,2,68,64,
2,176932, Note_on_c,2,66,72,
2,176934, Note_off_c,2,67,64,
2,176952, Note_on_c,2,70,74,
2,176960, Note_off_c,2,66,64,
2,176980, Note_off_c,2,70,64,
2,176980, Note_on_c,2,66,76,
2,177010, Note_on_c,2,65,71,
2,177014, Note_off_c,2,66,64,
2,177042, Note_off_c,2,65,64,
2,177052, Note_on_c,2,63,75,
2,177072, Note_on_c,2,66,70,
2,177080, Note_off_c,2,63,64,
2,177106, Note_on_c,2,63,59,
2,177116, Note_off_c,2,66,64,
2,177138, Note_on_c,2,62,64,
2,177142, Note_off_c,2,63,64,
2,177176, Note_on_c,2,61,80,
2,177180, Note_off_c,2,62,64,
2,177198, Note_on_c,2,64,67,
2,177206, Note_off_c,2,61,64,
2,177232, Note_on_c,2,61,60,
2,177246, Note_off_c,2,64,64,
2,177260, Note_on_c,2,60,68,
2,177268, Note_off_c,2,61,64,
2,177286, Note_off_c,2,51,64,
2,177296, Note_on_c,2,58,81,
2,177298, Note_off_c,2,60,64,
2,177322, Note_on_c,2,61,74,
2,177332, Note_off_c,2,58,64,
2,177356, Note_on_c,2,58,78,
2,177372, Note_off_c,2,61,64,
2,177380, Note_on_c,2,57,71,
2,177392, Note_off_c,2,58,64,
2,177418, Note_on_c,2,56,103,
2,177428, Note_off_c,2,57,64,
2,177488, Control_c,2,64,127,
2,177500, Note_off_c,2,56,64,
2,177534, Note_on_c,2,36,101,
2,177564, Note_off_c,2,36,64,
2,177660, Note_on_c,2,75,104,
2,177704, Note_off_c,2,75,64,
2,177780, Note_on_c,2,64,103,
2,177780, Note_on_c,2,70,104,
2,177780, Note_on_c,2,68,106,
2,177808, Note_off_c,2,64,64,
2,177810, Note_off_c,2,68,64,
2,177820, Note_off_c,2,70,64,
2,177912, Note_on_c,2,48,81,
2,177912, Note_on_c,2,58,83,
2,177912, Note_on_c,2,52,81,
2,177948, Note_off_c,2,58,64,
2,177952, Note_off_c,2,48,64,
2,177954, Note_off_c,2,52,64,
2,178040, Note_on_c,2,87,106,
2,178040, Note_on_c,2,75,104,
2,178040, Note_on_c,2,82,97,
2,178042, Note_on_c,2,80,91,
2,178056, Note_off_c,2,80,64,
2,178058, Note_off_c,2,75,64,
2,178066, Note_off_c,2,82,64,
2,178076, Note_off_c,2,87,64,
2,178144, Note_on_c,2,41,76,
2,178148, Control_c,2,64,0,
2,178178, Note_on_c,2,75,72,
2,178182, Note_on_c,2,56,91,
2,178190, Note_on_c,2,82,94,
2,178246, Control_c,2,64,127,
2,178256, Note_off_c,2,41,64,
2,178270, Note_off_c,2,75,64,
2,178272, Note_off_c,2,82,64,
2,178276, Note_off_c,2,56,64,
2,178582, Note_on_c,2,60,68,
2,178582, Note_on_c,2,53,65,
2,178584, Note_on_c,2,56,79,
2,178626, Note_off_c,2,56,64,
2,178626, Note_off_c,2,53,64,
2,178630, Note_off_c,2,60,64,
2,178824, Note_on_c,2,84,95,
2,178916, Note_off_c,2,84,64,
2,178952, Control_c,2,64,0,
2,178962, Note_on_c,2,56,74,
2,178966, Note_on_c,2,46,73,
2,178966, Note_on_c,2,75,95,
2,178966, Note_on_c,2,87,102,
2,178968, Note_on_c,2,80,92,
2,179040, Control_c,2,64,127,
2,179044, Note_off_c,2,46,64,
2,179062, Note_off_c,2,56,64,
2,179068, Note_off_c,2,80,64,
2,179068, Note_off_c,2,87,64,
2,179080, Note_off_c,2,75,64,
2,179200, Note_on_c,2,86,92,
2,179200, Note_on_c,2,79,82,
2,179202, Note_on_c,2,82,85,
2,179202, Note_on_c,2,74,77,
2,179232, Note_off_c,2,74,64,
2,179236, Note_off_c,2,79,64,
2,179244, Note_off_c,2,82,64,
2,179244, Note_off_c,2,86,64,
2,179328, Note_on_c,2,56,72,
2,179330, Note_on_c,2,62,69,
2,179336, Note_on_c,2,75,97,
2,179336, Note_on_c,2,87,101,
2,179378, Note_off_c,2,75,64,
2,179380, Note_off_c,2,62,64,
2,179384, Note_off_c,2,87,64,
2,179390, Note_off_c,2,56,64,
2,179576, Note_on_c,2,89,106,
2,179576, Note_on_c,2,77,99,
2,179606, Note_off_c,2,77,64,
2,179624, Note_off_c,2,89,64,
2,179662, Note_on_c,2,46,74,
2,179680, Control_c,2,64,0,
2,179694, Note_on_c,2,55,66,
2,179700, Note_on_c,2,78,82,
2,179700, Note_on_c,2,61,92,
2,179704, Note_on_c,2,82,89,
2,179708, Note_on_c,2,85,94,
2,179712, Note_on_c,2,90,103,
2,179768, Control_c,2,64,127,
2,179774, Note_off_c,2,78,64,
2,179790, Note_off_c,2,46,64,
2,179794, Note_off_c,2,55,64,
2,179796, Note_off_c,2,85,64,
2,179796, Note_off_c,2,82,64,
2,179798, Note_off_c,2,90,64,
2,179822, Note_off_c,2,61,64,
2,179842, Note_on_c,2,78,95,
2,179850, Note_on_c,2,82,96,
2,179856, Note_on_c,2,85,95,
2,179862, Note_on_c,2,90,91,
2,179882, Note_off_c,2,78,64,
2,179904, Note_off_c,2,82,64,
2,179910, Note_off_c,2,85,64,
2,179920, Note_off_c,2,90,64,
2,179930, Note_on_c,2,78,62,
2,179948, Note_off_c,2,78,64,
2,179954, Note_on_c,2,82,28,
2,179958, Note_on_c,2,85,72,
2,179966, Note_on_c,2,90,57,
2,179974, Note_off_c,2,85,64,
2,179982, Note_off_c,2,90,64,
2,179986, Note_on_c,2,78,71,
2,179990, Note_off_c,2,82,64,
2,180014, Note_off_c,2,78,64,
2,180018, Note_on_c,2,82,5,
2,180018, Note_on_c,2,85,79,
2,180024, Note_on_c,2,90,55,
2,180044, Note_off_c,2,90,64,
2,180044, Note_off_c,2,85,64,
2,180044, Note_on_c,2,78,68,
2,180068, Note_on_c,2,55,59,
2,180068, Note_on_c,2,64,61,
2,180068, Note_on_c,2,61,64,
2,180070, Note_on_c,2,58,83,
2,180080, Note_off_c,2,78,64,
2,180080, Note_on_c,2,85,76,
2,180080, Note_on_c,2,90,58,
2,180108, Note_off_c,2,90,64,
2,180108, Note_off_c,2,85,64,
2,180110, Note_on_c,2,78,71,
2,180116, Note_off_c,2,61,64,
2,180124, Note_off_c,2,58,64,
2,180124, Note_off_c,2,64,64,
2,180128, Note_off_c,2,55,64,
2,180142, Note_off_c,2,78,64,
2,180148, Note_on_c,2,85,68,
2,180152, Note_on_c,2,90,45,
2,180170, Note_off_c,2,90,64,
2,180170, Note_off_c,2,85,64,
2,180174, Note_on_c,2,78,65,
2,180210, Note_off_c,2,78,64,
2,180226, Note_on_c,2,85,65,
2,180236, Note_off_c,2,82,64,
2,180236, Note_on_c,2,90,18,
2,180252, Note_off_c,2,90,64,
2,180258, Note_off_c,2,85,64,
2,180322, Note_on_c,2,79,86,
2,180324, Note_on_c,2,85,103,
2,180326, Note_on_c,2,91,97,
2,180344, Control_c,2,64,0,
2,180374, Note_off_c,2,85,64,
2,180376, Note_on_c,2,86,51,
2,180420, Note_off_c,2,79,64,
2,180444, Note_off_c,2,86,64,
2,180444, Note_off_c,2,91,64,
2,180462, Note_on_c,2,56,69,
2,180464, Note_on_c,2,46,71,
2,180482, Control_c,2,64,127,
2,180536, Note_off_c,2,46,64,
2,180544, Note_off_c,2,56,64,
2,180892, Note_on_c,2,56,74,
2,180892, Note_on_c,2,62,68,
2,180896, Control_c,2,64,0,
2,180922, Note_off_c,2,62,64,
2,180932, Note_off_c,2,56,64,
2,180944, Note_on_c,2,82,86,
2,180978, Note_on_c,2,84,75,
2,180980, Note_off_c,2,82,64,
2,181024, Note_off_c,2,84,64,
2,181032, Note_on_c,2,87,96,
2,181088, Note_off_c,2,87,64,
2,181094, Note_on_c,2,89,86,
2,181136, Note_off_c,2,89,64,
2,181152, Note_on_c,2,89,90,
2,181160, Note_on_c,2,90,63,
2,181190, Note_off_c,2,89,64,
2,181222, Note_on_c,2,89,58,
2,181256, Note_off_c,2,90,64,
2,181268, Note_on_c,2,87,95,
2,181276, Note_on_c,2,39,74,
2,181288, Note_off_c,2,89,64,
2,181314, Note_off_c,2,87,64,
2,181334, Note_on_c,2,89,88,
2,181386, Note_on_c,2,87,88,
2,181396, Note_off_c,2,89,64,
2,181428, Note_off_c,2,87,64,
2,181448, Note_on_c,2,89,68,
2,181486, Note_on_c,2,87,88,
2,181506, Note_off_c,2,89,64,
2,181522, Note_on_c,2,85,93,
2,181536, Note_off_c,2,87,64,
2,181560, Note_on_c,2,82,86,
2,181564, Note_off_c,2,85,64,
2,181588, Note_off_c,2,82,64,
2,181608, Note_on_c,2,85,84,
2,181628, Note_on_c,2,43,63,
2,181636, Note_off_c,2,39,64,
2,181644, Note_off_c,2,85,64,
2,181658, Note_on_c,2,87,56,
2,181684, Note_on_c,2,85,52,
2,181724, Note_off_c,2,87,64,
2,181732, Note_on_c,2,82,87,
2,181744, Note_off_c,2,85,64,
2,181758, Note_off_c,2,82,64,
2,181780, Note_on_c,2,80,88,
2,181820, Note_on_c,2,78,76,
2,181830, Note_off_c,2,80,64,
2,181850, Note_on_c,2,75,73,
2,181854, Note_off_c,2,78,64,
2,181880, Note_off_c,2,75,64,
2,181896, Note_on_c,2,78,95,
2,181926, Note_on_c,2,79,79,
2,181930, Note_off_c,2,78,64,
2,181974, Note_off_c,2,79,64,
2,181980, Note_on_c,2,84,86,
2,181984, Note_on_c,2,41,70,
2,181988, Note_off_c,2,43,64,
2,182020, Note_off_c,2,84,64,
2,182054, Note_on_c,2,82,94,
2,182092, Note_off_c,2,82,64,
2,182116, Note_on_c,2,75,89,
2,182146, Note_off_c,2,75,64,
2,182156, Note_on_c,2,78,87,
2,182172, Note_on_c,2,84,53,
2,182214, Note_on_c,2,79,66,
2,182218, Note_off_c,2,78,64,
2,182230, Note_off_c,2,84,64,
2,182232, Note_off_c,2,79,64,
2,182266, Note_on_c,2,78,97,
2,182266, Note_on_c,2,84,62,
2,182298, Note_on_c,2,79,76,
2,182304, Note_off_c,2,78,64,
2,182332, Note_off_c,2,84,64,
2,182344, Note_off_c,2,79,64,
2,182392, Note_on_c,2,42,88,
2,182408, Note_off_c,2,41,64,
2,182520, Note_on_c,2,72,82,
2,182602, Note_on_c,2,75,65,
2,182606, Note_off_c,2,72,64,
2,182644, Note_on_c,2,78,69,
2,182654, Note_off_c,2,75,64,
2,182680, Note_on_c,2,81,97,
2,182688, Note_off_c,2,78,64,
2,182750, Note_off_c,2,81,64,
2,182780, Note_on_c,2,79,97,
2,182782, Note_off_c,2,42,64,
2,182782, Note_on_c,2,43,70,
2,182838, Note_off_c,2,79,64,
2,182864, Note_on_c,2,77,81,
2,182904, Note_off_c,2,77,64,
2,182910, Note_on_c,2,74,77,
2,182938, Note_off_c,2,74,64,
2,182946, Note_on_c,2,72,73,
2,182974, Note_off_c,2,72,64,
2,182988, Note_on_c,2,70,80,
2,183020, Note_on_c,2,69,62,
2,183034, Note_off_c,2,70,64,
2,183056, Note_on_c,2,68,64,
2,183062, Note_off_c,2,69,64,
2,183084, Note_on_c,2,67,67,
2,183092, Note_off_c,2,68,64,
2,183120, Note_off_c,2,67,64,
2,183130, Note_on_c,2,66,77,
2,183132, Note_off_c,2,43,64,
2,183142, Note_on_c,2,42,72,
2,183160, Note_on_c,2,65,77,
2,183164, Note_off_c,2,66,64,
2,183190, Note_off_c,2,65,64,
2,183210, Note_on_c,2,63,56,
2,183240, Note_on_c,2,61,69,
2,183250, Note_off_c,2,63,64,
2,183272, Note_off_c,2,61,64,
2,183274, Note_on_c,2,60,61,
2,183298, Note_off_c,2,60,64,
2,183330, Note_on_c,2,58,48,
2,183358, Note_off_c,2,58,64,
2,183362, Note_on_c,2,55,80,
2,183480, Note_off_c,2,55,64,
2,183518, Note_on_c,2,43,85,
2,183522, Note_off_c,2,42,64,
2,183572, Control_c,2,64,127,
2,183704, Note_off_c,2,43,64,
2,183808, Note_on_c,2,43,94,
2,183890, Control_c,2,64,0,
2,183920, Note_on_c,2,36,90,
2,183984, Control_c,2,64,127,
2,184026, Note_off_c,2,36,64,
2,184028, Note_off_c,2,43,64,
2,184144, Note_on_c,2,87,117,
2,184144, Note_on_c,2,75,112,
2,184232, Note_off_c,2,75,64,
2,184256, Note_off_c,2,87,64,
2,184288, Note_on_c,2,86,57,
2,184300, Control_c,2,64,0,
2,184316, Note_off_c,2,86,64,
2,184332, Note_on_c,2,41,81,
2,184336, Note_on_c,2,87,110,
2,184336, Note_on_c,2,75,110,
2,184414, Note_off_c,2,41,64,
2,184438, Note_off_c,2,75,64,
2,184450, Note_off_c,2,87,64,
2,184472, Note_on_c,2,87,81,
2,184474, Note_on_c,2,75,101,
2,184502, Note_off_c,2,75,64,
2,184504, Note_off_c,2,87,64,
2,184728, Note_on_c,2,57,71,
2,184730, Note_on_c,2,51,82,
2,184732, Note_on_c,2,62,70,
2,184792, Note_off_c,2,57,64,
2,184794, Note_off_c,2,62,64,
2,184800, Note_off_c,2,51,64,
2,184862, Note_on_c,2,74,95,
2,184910, Note_off_c,2,74,64,
2,184928, Note_on_c,2,79,50,
2,184958, Note_off_c,2,79,64,
2,184992, Note_on_c,2,83,61,
2,185022, Note_off_c,2,83,64,
2,185046, Note_on_c,2,74,108,
2,185048, Note_on_c,2,86,111,
2,185076, Note_off_c,2,74,64,
2,185080, Note_off_c,2,86,64,
2,185110, Note_on_c,2,36,84,
2,185116, Note_on_c,2,72,97,
2,185116, Note_on_c,2,84,92,
2,185150, Note_off_c,2,36,64,
2,185194, Note_off_c,2,72,64,
2,185212, Note_off_c,2,84,64,
2,185256, Note_on_c,2,83,57,
2,185292, Note_off_c,2,83,64,
2,185304, Note_on_c,2,84,104,
2,185388, Note_off_c,2,84,64,
2,185436, Note_on_c,2,83,107,
2,185478, Note_off_c,2,83,64,
2,185482, Note_on_c,2,62,77,
2,185482, Note_on_c,2,57,78,
2,185484, Note_on_c,2,51,82,
2,185508, Note_on_c,2,79,44,
2,185514, Note_off_c,2,57,64,
2,185516, Note_off_c,2,51,64,
2,185516, Note_off_c,2,62,64,
2,185538, Note_off_c,2,79,64,
2,185540, Note_on_c,2,83,60,
2,185572, Note_on_c,2,79,61,
2,185592, Note_off_c,2,83,64,
2,185622, Note_on_c,2,74,75,
2,185632, Note_off_c,2,79,64,
2,185662, Note_off_c,2,74,64,
2,185692, Note_on_c,2,72,66,
2,185768, Note_off_c,2,72,64,
2,185808, Note_on_c,2,71,99,
2,185842, Note_off_c,2,71,64,
2,185864, Note_on_c,2,56,77,
2,185864, Note_on_c,2,41,77,
2,185872, Note_on_c,2,70,76,
2,185906, Note_off_c,2,41,64,
2,185912, Note_off_c,2,56,64,
2,185958, Note_off_c,2,70,64,
2,185998, Note_on_c,2,69,88,
2,186040, Note_off_c,2,69,64,
2,186066, Note_on_c,2,68,41,
2,186150, Note_off_c,2,68,64,
2,186188, Note_on_c,2,70,108,
2,186222, Note_off_c,2,70,64,
2,186240, Note_on_c,2,56,73,
2,186240, Note_on_c,2,63,82,
2,186240, Note_on_c,2,60,74,
2,186248, Note_on_c,2,72,79,
2,186282, Note_off_c,2,63,64,
2,186284, Note_off_c,2,60,64,
2,186286, Note_off_c,2,56,64,
2,186366, Note_off_c,2,72,64,
2,186384, Note_on_c,2,75,59,
2,186426, Note_off_c,2,75,64,
2,186436, Note_on_c,2,79,104,
2,186536, Note_off_c,2,79,64,
2,186568, Note_on_c,2,76,84,
2,186616, Note_off_c,2,76,64,
2,186622, Note_on_c,2,56,86,
2,186624, Note_on_c,2,46,87,
2,186628, Note_on_c,2,77,84,
2,186662, Note_off_c,2,46,64,
2,186662, Note_off_c,2,56,64,
2,186668, Note_off_c,2,77,64,
2,186756, Note_on_c,2,79,92,
2,186804, Note_off_c,2,79,64,
2,186816, Note_on_c,2,80,91,
2,186920, Note_off_c,2,80,64,
2,186944, Note_on_c,2,82,108,
2,186978, Note_off_c,2,82,64,
2,187004, Note_on_c,2,60,74,
2,187006, Note_on_c,2,54,70,
2,187022, Note_on_c,2,85,86,
2,187026, Note_off_c,2,54,64,
2,187032, Note_off_c,2,60,64,
2,187056, Note_on_c,2,86,74,
2,187060, Note_off_c,2,85,64,
2,187092, Note_on_c,2,85,72,
2,187108, Note_off_c,2,86,64,
2,187140, Note_on_c,2,83,80,
2,187156, Note_off_c,2,85,64,
2,187184, Note_off_c,2,83,64,
2,187208, Note_on_c,2,82,92,
2,187276, Note_off_c,2,82,64,
2,187330, Note_on_c,2,80,104,
2,187380, Note_off_c,2,80,64,
2,187382, Note_on_c,2,46,87,
2,187382, Note_on_c,2,39,87,
2,187388, Note_on_c,2,79,75,
2,187418, Note_off_c,2,39,64,
2,187418, Note_off_c,2,46,64,
2,187512, Note_off_c,2,79,64,
2,187550, Note_on_c,2,82,62,
2,187580, Note_off_c,2,82,64,
2,187594, Note_on_c,2,84,88,
2,187686, Note_off_c,2,84,64,
2,187776, Note_on_c,2,87,110,
2,187776, Note_on_c,2,75,105,
2,187776, Note_on_c,2,55,57,
2,187778, Note_on_c,2,60,65,
2,187778, Note_on_c,2,58,78,
2,187778, Note_on_c,2,82,95,
2,187844, Note_off_c,2,60,64,
2,187846, Note_off_c,2,58,64,
2,187848, Note_off_c,2,75,64,
2,187848, Note_off_c,2,87,64,
2,187852, Note_off_c,2,82,64,
2,187858, Note_off_c,2,55,64,
2,187976, Note_on_c,2,90,110,
2,187978, Note_on_c,2,75,108,
2,188084, Note_off_c,2,75,64,
2,188092, Note_off_c,2,90,64,
2,188120, Note_on_c,2,87,49,
2,188140, Note_off_c,2,87,64,
2,188162, Note_on_c,2,51,80,
2,188162, Note_on_c,2,44,84,
2,188166, Note_on_c,2,90,106,
2,188166, Note_on_c,2,54,71,
2,188166, Note_on_c,2,75,110,
2,188210, Note_off_c,2,44,64,
2,188210, Note_off_c,2,51,64,
2,188218, Note_off_c,2,54,64,
2,188228, Note_off_c,2,75,64,
2,188270, Note_off_c,2,90,64,
2,188306, Note_on_c,2,90,96,
2,188322, Note_on_c,2,87,81,
2,188344, Note_on_c,2,85,86,
2,188390, Note_off_c,2,87,64,
2,188548, Note_on_c,2,58,82,
2,188548, Note_on_c,2,54,78,
2,188564, Note_off_c,2,90,64,
2,188576, Note_off_c,2,85,64,
2,188592, Note_off_c,2,58,64,
2,188594, Control_c,2,64,127,
2,188600, Note_off_c,2,54,64,
2,188856, Note_on_c,2,87,98,
2,188856, Note_on_c,2,81,89,
2,188880, Control_c,2,64,0,
2,188912, Note_off_c,2,87,64,
2,188916, Note_off_c,2,81,64,
2,188930, Note_on_c,2,46,84,
2,188932, Note_on_c,2,39,81,
2,188934, Note_on_c,2,87,84,
2,188936, Note_on_c,2,80,87,
2,188974, Note_off_c,2,39,64,
2,188976, Note_off_c,2,46,64,
2,188996, Note_off_c,2,87,64,
2,189006, Note_off_c,2,80,64,
2,189052, Note_on_c,2,87,98,
2,189054, Note_on_c,2,78,96,
2,189110, Note_off_c,2,87,64,
2,189120, Note_off_c,2,78,64,
2,189126, Note_on_c,2,75,77,
2,189188, Note_off_c,2,75,64,
2,189246, Note_on_c,2,73,105,
2,189304, Note_off_c,2,73,64,
2,189308, Note_on_c,2,55,57,
2,189308, Note_on_c,2,61,68,
2,189310, Note_on_c,2,58,79,
2,189312, Note_on_c,2,70,80,
2,189352, Note_off_c,2,58,64,
2,189354, Note_off_c,2,61,64,
2,189364, Note_off_c,2,55,64,
2,189400, Note_off_c,2,70,64,
2,189442, Note_on_c,2,68,97,
2,189448, Note_on_c,2,75,83,
2,189452, Note_on_c,2,69,82,
2,189454, Note_off_c,2,68,64,
2,189502, Note_off_c,2,69,64,
2,189512, Note_on_c,2,68,80,
2,189594, Note_off_c,2,75,64,
2,189610, Note_off_c,2,68,64,
2,189644, Note_on_c,2,66,86,
2,189694, Note_off_c,2,66,64,
2,189694, Note_on_c,2,46,79,
2,189694, Note_on_c,2,56,71,
2,189700, Note_on_c,2,65,67,
2,189752, Control_c,2,64,127,
2,189814, Note_off_c,2,46,64,
2,189830, Note_off_c,2,65,64,
2,189842, Note_on_c,2,68,68,
2,189848, Note_off_c,2,56,64,
2,189888, Note_off_c,2,68,64,
2,189898, Note_on_c,2,72,86,
2,189974, Note_off_c,2,72,64,
2,190026, Note_on_c,2,61,78,
2,190026, Control_c,2,64,0,
2,190028, Note_on_c,2,75,108,
2,190028, Note_on_c,2,65,95,
2,190030, Note_on_c,2,55,65,
2,190068, Note_off_c,2,65,64,
2,190082, Note_off_c,2,75,64,
2,190088, Note_off_c,2,55,64,
2,190094, Note_off_c,2,61,64,
2,190214, Note_on_c,2,71,91,
2,190216, Note_on_c,2,55,76,
2,190216, Note_on_c,2,66,103,
2,190216, Note_on_c,2,78,98,
2,190216, Note_on_c,2,45,82,
2,190260, Control_c,2,64,127,
2,190320, Note_off_c,2,45,64,
2,190322, Note_off_c,2,71,64,
2,190328, Note_off_c,2,78,64,
2,190340, Note_off_c,2,66,64,
2,190348, Note_off_c,2,55,64,
2,190436, Note_on_c,2,44,76,
2,190458, Control_c,2,64,0,
2,190492, Note_on_c,2,70,92,
2,190492, Note_on_c,2,75,93,
2,190492, Note_on_c,2,72,81,
2,190492, Note_on_c,2,65,88,
2,190492, Note_on_c,2,55,70,
2,190534, Control_c,2,64,127,
2,190540, Note_off_c,2,44,64,
2,190558, Note_off_c,2,65,64,
2,190560, Note_off_c,2,55,64,
2,190564, Note_off_c,2,70,64,
2,190570, Note_off_c,2,72,64,
2,190578, Note_off_c,2,75,64,
2,190860, Note_on_c,2,55,62,
2,190860, Note_on_c,2,60,69,
2,190862, Note_on_c,2,58,85,
2,190864, Control_c,2,64,0,
2,190924, Control_c,2,64,127,
2,190946, Note_off_c,2,60,64,
2,190956, Note_off_c,2,58,64,
2,190960, Note_off_c,2,55,64,
2,190994, Note_on_c,2,72,102,
2,191088, Note_off_c,2,72,64,
2,191124, Note_on_c,2,75,98,
2,191188, Note_off_c,2,75,64,
2,191232, Control_c,2,64,0,
2,191248, Note_on_c,2,32,82,
2,191248, Note_on_c,2,39,75,
2,191250, Note_on_c,2,82,105,
2,191300, Note_off_c,2,32,64,
2,191306, Note_off_c,2,39,64,
2,191316, Control_c,2,64,127,
2,191328, Note_off_c,2,82,64,
2,191564, Note_on_c,2,82,80,
2,191588, Note_on_c,2,81,73,
2,191604, Control_c,2,64,0,
2,191610, Note_on_c,2,80,85,
2,191612, Note_off_c,2,82,64,
2,191624, Note_on_c,2,60,68,
2,191624, Note_on_c,2,55,63,
2,191626, Note_on_c,2,58,84,
2,191636, Note_off_c,2,81,64,
2,191640, Note_on_c,2,79,89,
2,191660, Note_off_c,2,80,64,
2,191690, Note_off_c,2,60,64,
2,191692, Note_off_c,2,79,64,
2,191698, Note_off_c,2,58,64,
2,191704, Note_off_c,2,55,64,
2,191740, Note_on_c,2,75,90,
2,191794, Note_off_c,2,75,64,
2,191818, Note_on_c,2,74,81,
2,191876, Note_off_c,2,74,64,
2,191932, Note_on_c,2,73,96,
2,191988, Note_off_c,2,73,64,
2,191996, Note_on_c,2,43,73,
2,191998, Note_on_c,2,58,74,
2,192000, Note_on_c,2,72,74,
2,192048, Control_c,2,64,127,
2,192094, Note_off_c,2,43,64,
2,192120, Note_off_c,2,58,64,
2,192282, Note_off_c,2,72,64,
2,192360, Control_c,2,64,0,
2,192372, Note_on_c,2,65,67,
2,192374, Note_on_c,2,55,59,
2,192374, Note_on_c,2,72,110,
2,192374, Note_on_c,2,61,73,
2,192376, Note_on_c,2,58,78,
2,192440, Note_off_c,2,61,64,
2,192444, Note_off_c,2,65,64,
2,192452, Note_off_c,2,58,64,
2,192456, Note_off_c,2,55,64,
2,192460, Note_off_c,2,72,64,
2,192492, Note_on_c,2,73,46,
2,192512, Note_on_c,2,72,72,
2,192536, Note_off_c,2,73,64,
2,192566, Note_on_c,2,71,75,
2,192578, Note_off_c,2,72,64,
2,192632, Note_off_c,2,71,64,
2,192678, Note_on_c,2,72,88,
2,192730, Note_off_c,2,72,64,
2,192760, Note_on_c,2,52,68,
2,192760, Note_on_c,2,36,68,
2,192762, Note_on_c,2,84,93,
2,192834, Control_c,2,64,127,
2,192898, Note_off_c,2,36,64,
2,192900, Note_off_c,2,52,64,
2,193152, Note_on_c,2,61,71,
2,193154, Note_on_c,2,58,78,
2,193154, Note_on_c,2,52,64,
2,193196, Note_off_c,2,84,64,
2,193216, Note_off_c,2,61,64,
2,193220, Note_off_c,2,58,64,
2,193224, Note_off_c,2,52,64,
2,193256, Note_on_c,2,82,112,
2,193320, Note_off_c,2,82,64,
2,193344, Note_on_c,2,81,91,
2,193400, Note_off_c,2,81,64,
2,193438, Note_on_c,2,80,104,
2,193502, Control_c,2,64,0,
2,193516, Note_off_c,2,80,64,
2,193530, Note_on_c,2,56,77,
2,193532, Note_on_c,2,41,74,
2,193532, Note_on_c,2,79,86,
2,193586, Control_c,2,64,127,
2,193608, Note_off_c,2,79,64,
2,193610, Note_off_c,2,41,64,
2,193632, Note_off_c,2,56,64,
2,193636, Note_on_c,2,80,86,
2,193688, Note_off_c,2,80,64,
2,193728, Note_on_c,2,84,88,
2,193810, Note_off_c,2,84,64,
2,193822, Note_on_c,2,87,102,
2,193852, Note_off_c,2,87,64,
2,193896, Control_c,2,64,0,
2,193908, Note_on_c,2,67,56,
2,193910, Note_on_c,2,56,65,
2,193910, Note_on_c,2,60,57,
2,193910, Note_on_c,2,63,72,
2,193914, Note_on_c,2,91,101,
2,193958, Note_off_c,2,91,64,
2,193972, Control_c,2,64,127,
2,193976, Note_on_c,2,94,80,
2,194016, Note_off_c,2,94,64,
2,194040, Note_on_c,2,91,81,
2,194082, Note_off_c,2,91,64,
2,194102, Note_off_c,2,63,64,
2,194102, Note_on_c,2,92,96,
2,194140, Note_off_c,2,92,64,
2,194164, Note_on_c,2,89,72,
2,194208, Note_off_c,2,89,64,
2,194234, Note_on_c,2,87,98,
2,194250, Control_c,2,64,0,
2,194288, Note_off_c,2,87,64,
2,194300, Note_on_c,2,89,92,
2,194302, Note_on_c,2,62,74,
2,194318, Control_c,2,64,127,
2,194344, Note_off_c,2,89,64,
2,194370, Note_on_c,2,91,76,
2,194376, Note_off_c,2,67,64,
2,194378, Note_off_c,2,62,64,
2,194384, Note_off_c,2,60,64,
2,194396, Note_off_c,2,56,64,
2,194400, Note_off_c,2,91,64,
2,194436, Note_on_c,2,87,101,
2,194482, Note_off_c,2,87,64,
2,194500, Note_on_c,2,84,64,
2,194534, Note_off_c,2,84,64,
2,194564, Note_on_c,2,80,78,
2,194600, Note_off_c,2,80,64,
2,194628, Note_on_c,2,79,86,
2,194664, Control_c,2,64,0,
2,194680, Note_off_c,2,79,64,
2,194692, Note_on_c,2,77,81,
2,194696, Note_on_c,2,56,92,
2,194724, Control_c,2,64,127,
2,194744, Note_off_c,2,77,64,
2,194764, Note_on_c,2,75,77,
2,194792, Note_off_c,2,75,64,
2,194826, Note_on_c,2,74,93,
2,194874, Note_off_c,2,74,64,
2,194888, Note_on_c,2,72,73,
2,194898, Note_off_c,2,56,64,
2,194930, Note_off_c,2,72,64,
2,194954, Note_on_c,2,71,77,
2,194988, Note_off_c,2,71,64,
2,195020, Note_on_c,2,70,94,
2,195070, Note_off_c,2,70,64,
2,195070, Control_c,2,64,0,
2,195088, Note_on_c,2,42,99,
2,195090, Note_on_c,2,69,72,
2,195136, Note_off_c,2,42,64,
2,195138, Control_c,2,64,127,
2,195162, Note_on_c,2,74,52,
2,195182, Note_off_c,2,69,64,
2,195188, Note_off_c,2,74,64,
2,195222, Note_on_c,2,78,78,
2,195260, Note_off_c,2,78,64,
2,195288, Note_on_c,2,81,85,
2,195288, Note_on_c,2,69,93,
2,195324, Note_off_c,2,69,64,
2,195348, Note_off_c,2,81,64,
2,195366, Note_on_c,2,78,57,
2,195390, Note_off_c,2,78,64,
2,195424, Note_on_c,2,81,84,
2,195428, Note_on_c,2,69,85,
2,195468, Control_c,2,64,0,
2,195478, Note_off_c,2,69,64,
2,195492, Note_on_c,2,78,101,
2,195492, Note_on_c,2,63,90,
2,195492, Note_on_c,2,54,90,
2,195500, Note_off_c,2,81,64,
2,195544, Control_c,2,64,127,
2,195556, Note_off_c,2,78,64,
2,195588, Note_off_c,2,63,64,
2,195598, Note_off_c,2,54,64,
2,195856, Control_c,2,64,0,
2,195868, Note_on_c,2,57,86,
2,195868, Note_on_c,2,51,89,
2,195970, Note_on_c,2,71,99,
2,195970, Note_on_c,2,78,101,
2,195970, Note_on_c,2,75,103,
2,195970, Note_on_c,2,83,95,
2,195984, Control_c,2,64,127,
2,195994, Note_off_c,2,75,64,
2,195996, Note_off_c,2,78,64,
2,195998, Note_off_c,2,71,64,
2,196000, Note_off_c,2,83,64,
2,196018, Control_c,2,64,0,
2,196110, Control_c,2,64,127,
2,196146, Note_on_c,2,66,91,
2,196148, Note_on_c,2,60,67,
2,196148, Note_on_c,2,71,74,
2,196150, Note_on_c,2,75,81,
2,196154, Note_off_c,2,57,64,
2,196160, Note_off_c,2,51,64,
2,196176, Note_off_c,2,60,64,
2,196188, Note_off_c,2,66,64,
2,196192, Note_off_c,2,71,64,
2,196208, Note_off_c,2,75,64,
2,196224, Control_c,2,64,0,
2,196232, Note_on_c,2,73,98,
2,196236, Note_on_c,2,69,79,
2,196236, Note_on_c,2,77,90,
2,196244, Note_on_c,2,64,71,
2,196244, Note_on_c,2,62,71,
2,196276, Note_off_c,2,73,64,
2,196276, Note_on_c,2,74,78,
2,196294, Note_off_c,2,64,64,
2,196308, Note_off_c,2,69,64,
2,196310, Note_off_c,2,77,64,
2,196320, Note_off_c,2,74,64,
2,196428, Note_on_c,2,60,92,
2,196430, Note_on_c,2,71,85,
2,196430, Note_on_c,2,66,91,
2,196432, Note_on_c,2,75,92,
2,196448, Control_c,2,64,127,
2,196452, Note_off_c,2,62,64,
2,196460, Note_off_c,2,60,64,
2,196490, Note_off_c,2,71,64,
2,196496, Note_off_c,2,75,64,
2,196502, Note_off_c,2,66,64,
2,196600, Control_c,2,64,0,
2,196614, Note_on_c,2,70,90,
2,196616, Note_on_c,2,72,87,
2,196616, Note_on_c,2,65,78,
2,196728, Note_on_c,2,43,89,
2,196730, Note_on_c,2,36,88,
2,196758, Control_c,2,64,127,
2,196784, Note_off_c,2,72,64,
2,196792, Note_off_c,2,36,64,
2,196794, Note_off_c,2,70,64,
2,196800, Note_off_c,2,43,64,
2,196812, Note_off_c,2,65,64,
2,196986, Control_c,2,64,0,
2,196990, Note_on_c,2,60,68,
2,196992, Note_on_c,2,55,64,
2,196992, Note_on_c,2,70,105,
2,196992, Note_on_c,2,65,93,
2,196994, Note_on_c,2,51,74,
2,197098, Note_off_c,2,65,64,
2,197100, Note_off_c,2,70,64,
2,197104, Control_c,2,64,127,
2,197120, Note_on_c,2,72,93,
2,197120, Note_on_c,2,67,93,
2,197206, Note_off_c,2,67,64,
2,197208, Note_off_c,2,72,64,
2,197226, Note_off_c,2,60,64,
2,197232, Note_off_c,2,55,64,
2,197246, Note_off_c,2,51,64,
2,197248, Note_on_c,2,65,83,
2,197248, Note_on_c,2,70,94,
2,197288, Note_off_c,2,65,64,
2,197302, Note_on_c,2,72,84,
2,197304, Note_on_c,2,67,81,
2,197308, Note_off_c,2,70,64,
2,197344, Note_off_c,2,67,64,
2,197348, Note_off_c,2,72,64,
2,197362, Control_c,2,64,0,
2,197368, Note_on_c,2,72,84,
2,197372, Note_on_c,2,65,91,
2,197372, Note_on_c,2,66,102,
2,197374, Note_on_c,2,70,99,
2,197502, Note_on_c,2,54,101,
2,197504, Note_on_c,2,44,105,
2,197506, Control_c,2,64,127,
2,197536, Note_off_c,2,54,64,
2,197540, Note_off_c,2,44,64,
2,197570, Note_off_c,2,70,64,
2,197578, Note_off_c,2,66,64,
2,197580, Note_off_c,2,65,64,
2,197608, Note_off_c,2,72,64,
2,197742, Control_c,2,64,0,
2,197748, Note_on_c,2,58,86,
2,197748, Note_on_c,2,60,75,
2,197752, Note_on_c,2,54,85,
2,197752, Note_on_c,2,65,95,
2,197752, Note_on_c,2,70,104,
2,197836, Control_c,2,64,127,
2,197846, Note_off_c,2,65,64,
2,197852, Note_off_c,2,70,64,
2,197880, Note_on_c,2,66,104,
2,197880, Note_on_c,2,72,91,
2,197920, Note_off_c,2,60,64,
2,197930, Note_off_c,2,58,64,
2,197936, Note_off_c,2,54,64,
2,197972, Note_off_c,2,72,64,
2,197976, Note_off_c,2,66,64,
2,198016, Note_on_c,2,65,84,
2,198018, Note_on_c,2,70,98,
2,198056, Note_off_c,2,65,64,
2,198072, Note_on_c,2,72,88,
2,198074, Note_on_c,2,66,96,
2,198076, Note_off_c,2,70,64,
2,198110, Note_off_c,2,66,64,
2,198114, Note_off_c,2,72,64,
2,198140, Control_c,2,64,0,
2,198144, Note_on_c,2,74,105,
2,198144, Note_on_c,2,67,91,
2,198148, Note_on_c,2,69,98,
2,198258, Control_c,2,64,127,
2,198268, Note_on_c,2,41,90,
2,198270, Note_on_c,2,51,99,
2,198284, Note_off_c,2,67,64,
2,198286, Note_off_c,2,69,64,
2,198294, Note_off_c,2,74,64,
2,198318, Note_off_c,2,41,64,
2,198320, Note_off_c,2,51,64,
2,198502, Control_c,2,64,0,
2,198512, Note_on_c,2,57,92,
2,198516, Note_on_c,2,51,91,
2,198518, Note_on_c,2,69,86,
2,198520, Note_on_c,2,75,106,
2,198576, Control_c,2,64,127,
2,198606, Note_off_c,2,69,64,
2,198612, Note_off_c,2,75,64,
2,198642, Note_on_c,2,77,93,
2,198644, Note_on_c,2,71,101,
2,198652, Note_off_c,2,51,64,
2,198664, Note_off_c,2,57,64,
2,198746, Note_off_c,2,71,64,
2,198748, Note_off_c,2,77,64,
2,198786, Note_on_c,2,69,75,
2,198786, Note_on_c,2,75,94,
2,198822, Note_off_c,2,69,64,
2,198824, Note_off_c,2,75,64,
2,198842, Note_on_c,2,77,90,
2,198844, Note_on_c,2,71,91,
2,198874, Note_off_c,2,71,64,
2,198884, Note_off_c,2,77,64,
2,198904, Control_c,2,64,0,
2,198912, Note_on_c,2,57,82,
2,198912, Note_on_c,2,63,91,
2,198914, Note_on_c,2,61,92,
2,198914, Note_on_c,2,73,109,
2,198914, Note_on_c,2,79,97,
2,198988, Control_c,2,64,127,
2,199010, Note_off_c,2,79,64,
2,199024, Note_off_c,2,73,64,
2,199046, Note_on_c,2,77,91,
2,199048, Note_off_c,2,63,64,
2,199048, Note_on_c,2,71,91,
2,199052, Note_off_c,2,61,64,
2,199062, Note_off_c,2,57,64,
2,199126, Note_off_c,2,71,64,
2,199144, Note_off_c,2,77,64,
2,199164, Note_on_c,2,79,75,
2,199168, Note_on_c,2,73,96,
2,199206, Note_off_c,2,73,64,
2,199214, Note_off_c,2,79,64,
2,199228, Note_on_c,2,71,68,
2,199228, Note_on_c,2,77,76,
2,199270, Note_off_c,2,77,64,
2,199270, Note_off_c,2,71,64,
2,199280, Control_c,2,64,0,
2,199302, Note_on_c,2,53,77,
2,199304, Note_on_c,2,63,88,
2,199304, Note_on_c,2,57,79,
2,199304, Note_on_c,2,81,93,
2,199306, Note_on_c,2,75,107,
2,199366, Control_c,2,64,127,
2,199404, Note_off_c,2,81,64,
2,199408, Note_off_c,2,75,64,
2,199432, Note_on_c,2,79,90,
2,199432, Note_on_c,2,71,86,
2,199436, Note_off_c,2,63,64,
2,199448, Note_off_c,2,57,64,
2,199450, Note_off_c,2,53,64,
2,199496, Note_off_c,2,71,64,
2,199532, Note_off_c,2,79,64,
2,199560, Note_on_c,2,81,76,
2,199560, Note_on_c,2,75,98,
2,199610, Note_off_c,2,75,64,
2,199616, Note_on_c,2,79,77,
2,199620, Note_off_c,2,81,64,
2,199622, Note_on_c,2,71,70,
2,199654, Note_off_c,2,71,64,
2,199658, Note_off_c,2,79,64,
2,199674, Control_c,2,64,0,
2,199692, Note_on_c,2,82,107,
2,199692, Note_on_c,2,70,110,
2,199696, Note_on_c,2,75,97,
2,199754, Control_c,2,64,127,
2,199818, Note_on_c,2,41,97,
2,199820, Note_on_c,2,48,98,
2,199832, Note_off_c,2,70,64,
2,199844, Note_off_c,2,48,64,
2,199848, Note_off_c,2,41,64,
2,199854, Note_off_c,2,82,64,
2,199864, Note_off_c,2,75,64,
2,199956, Note_on_c,2,70,110,
2,199956, Note_on_c,2,79,91,
2,200082, Note_on_c,2,60,91,
2,200082, Note_on_c,2,56,98,
2,200084, Note_on_c,2,55,91,
2,200086, Note_off_c,2,70,64,
2,200100, Note_off_c,2,79,64,
2,200102, Control_c,2,64,0,
2,200168, Control_c,2,64,127,
2,200186, Note_off_c,2,60,64,
2,200190, Note_off_c,2,56,64,
2,200192, Note_off_c,2,55,64,
2,200216, Note_on_c,2,70,114,
2,200216, Note_on_c,2,82,111,
2,200216, Note_on_c,2,75,107,
2,200330, Control_c,2,64,0,
2,200342, Note_on_c,2,48,101,
2,200342, Note_on_c,2,41,94,
2,200362, Note_off_c,2,75,64,
2,200364, Note_off_c,2,70,64,
2,200374, Note_off_c,2,82,64,
2,200398, Control_c,2,64,127,
2,200438, Note_off_c,2,41,64,
2,200438, Note_off_c,2,48,64,
2,200472, Note_on_c,2,79,84,
2,200472, Note_on_c,2,70,107,
2,200474, Note_on_c,2,82,90,
2,200476, Note_on_c,2,76,94,
2,200482, Control_c,2,64,0,
2,200598, Note_on_c,2,52,88,
2,200598, Note_on_c,2,36,90,
2,200600, Control_c,2,64,127,
2,200616, Note_off_c,2,70,64,
2,200624, Note_off_c,2,76,64,
2,200632, Note_off_c,2,82,64,
2,200636, Note_off_c,2,79,64,
2,200672, Note_off_c,2,52,64,
2,200674, Note_off_c,2,36,64,
2,200736, Note_on_c,2,79,86,
2,200738, Note_on_c,2,70,112,
2,200738, Note_on_c,2,76,95,
2,200756, Control_c,2,64,0,
2,200856, Note_on_c,2,42,103,
2,200856, Note_on_c,2,58,103,
2,200872, Control_c,2,64,127,
2,200880, Note_off_c,2,70,64,
2,200888, Note_off_c,2,76,64,
2,200906, Note_off_c,2,79,64,
2,200978, Note_on_c,2,82,99,
2,200980, Note_on_c,2,70,107,
2,200982, Note_off_c,2,58,64,
2,200982, Note_on_c,2,76,97,
2,201012, Note_off_c,2,42,64,
2,201100, Note_on_c,2,48,94,
2,201104, Note_off_c,2,76,64,
2,201112, Note_off_c,2,82,64,
2,201116, Note_off_c,2,70,64,
2,201142, Control_c,2,64,0,
2,201228, Note_on_c,2,82,103,
2,201228, Note_on_c,2,70,106,
2,201228, Note_on_c,2,73,101,
2,201228, Note_on_c,2,77,88,
2,201264, Control_c,2,64,127,
2,201356, Note_on_c,2,41,92,
2,201368, Note_off_c,2,82,64,
2,201376, Note_off_c,2,77,64,
2,201380, Note_off_c,2,73,64,
2,201380, Note_off_c,2,70,64,
2,201388, Note_off_c,2,41,64,
2,201392, Note_off_c,2,48,64,
2,201484, Note_on_c,2,70,108,
2,201484, Note_on_c,2,77,91,
2,201484, Note_on_c,2,73,103,
2,201496, Control_c,2,64,0,
2,201608, Note_on_c,2,54,108,
2,201608, Note_on_c,2,44,108,
2,201620, Note_off_c,2,70,64,
2,201628, Note_off_c,2,73,64,
2,201644, Note_off_c,2,77,64,
2,201652, Control_c,2,64,127,
2,201728, Note_on_c,2,82,102,
2,201730, Note_on_c,2,70,110,
2,201730, Note_on_c,2,77,88,
2,201730, Note_on_c,2,73,103,
2,201802, Note_off_c,2,82,64,
2,201810, Note_off_c,2,77,64,
2,201830, Note_off_c,2,70,64,
2,201832, Note_off_c,2,73,64,
2,201844, Note_off_c,2,54,64,
2,201856, Note_on_c,2,51,105,
2,201866, Note_off_c,2,44,64,
2,201966, Control_c,2,64,0,
2,201976, Note_on_c,2,43,86,
2,201976, Note_on_c,2,53,99,
2,201980, Note_off_c,2,51,64,
2,202022, Note_on_c,2,65,82,
2,202054, Note_on_c,2,67,74,
2,202068, Note_off_c,2,65,64,
2,202080, Note_on_c,2,68,67,
2,202096, Note_on_c,2,70,90,
2,202100, Note_off_c,2,67,64,
2,202112, Note_off_c,2,68,64,
2,202116, Note_off_c,2,70,64,
2,202118, Note_on_c,2,72,93,
2,202150, Note_off_c,2,72,64,
2,202156, Note_on_c,2,75,98,
2,202180, Note_off_c,2,75,64,
2,202180, Note_on_c,2,72,61,
2,202188, Note_off_c,2,43,64,
2,202202, Control_c,2,64,127,
2,202204, Note_on_c,2,73,95,
2,202206, Note_off_c,2,53,64,
2,202212, Note_off_c,2,72,64,
2,202224, Note_on_c,2,75,86,
2,202238, Note_off_c,2,73,64,
2,202248, Note_off_c,2,75,64,
2,202252, Note_on_c,2,76,86,
2,202284, Note_on_c,2,78,96,
2,202298, Note_off_c,2,76,64,
2,202304, Control_c,2,64,0,
2,202308, Note_on_c,2,80,83,
2,202334, Note_off_c,2,78,64,
2,202340, Note_on_c,2,82,91,
2,202340, Note_on_c,2,58,98,
2,202344, Note_on_c,2,48,81,
2,202346, Note_on_c,2,52,80,
2,202348, Note_off_c,2,80,64,
2,202366, Note_off_c,2,82,64,
2,202370, Note_on_c,2,84,87,
2,202404, Note_on_c,2,85,95,
2,202412, Note_off_c,2,84,64,
2,202436, Note_on_c,2,86,60,
2,202438, Note_on_c,2,88,55,
2,202458, Note_off_c,2,85,64,
2,202460, Note_on_c,2,87,90,
2,202470, Note_off_c,2,87,64,
2,202472, Note_off_c,2,86,64,
2,202476, Note_off_c,2,88,64,
2,202484, Note_on_c,2,89,86,
2,202522, Note_on_c,2,91,68,
2,202528, Note_off_c,2,89,64,
2,202528, Note_on_c,2,54,94,
2,202542, Note_off_c,2,52,64,
2,202544, Note_off_c,2,48,64,
2,202544, Note_off_c,2,58,64,
2,202548, Note_on_c,2,92,83,
2,202560, Note_off_c,2,54,64,
2,202566, Control_c,2,64,127,
2,202572, Note_off_c,2,91,64,
2,202582, Note_on_c,2,94,75,
2,202588, Note_off_c,2,92,64,
2,202596, Note_off_c,2,94,64,
2,202606, Note_on_c,2,96,88,
2,202636, Note_on_c,2,97,87,
2,202644, Note_off_c,2,96,64,
2,202668, Note_on_c,2,98,79,
2,202686, Note_off_c,2,97,64,
2,202688, Note_on_c,2,99,94,
2,202700, Note_off_c,2,98,64,
2,202708, Note_off_c,2,99,64,
2,202712, Note_on_c,2,101,91,
2,202718, Control_c,2,64,0,
2,202736, Note_on_c,2,41,88,
2,202736, Note_on_c,2,56,108,
2,202742, Note_on_c,2,103,97,
2,202764, Note_off_c,2,101,64,
2,202770, Note_on_c,2,104,91,
2,202796, Note_off_c,2,103,64,
2,202802, Control_c,2,64,127,
2,202852, Note_off_c,2,104,64,
2,202868, Note_off_c,2,41,64,
2,202892, Note_off_c,2,56,64,
2,203134, Note_on_c,2,60,82,
2,203134, Note_on_c,2,67,72,
2,203136, Note_on_c,2,63,88,
2,203138, Note_on_c,2,103,118,
2,203140, Note_on_c,2,98,121,
2,203140, Note_on_c,2,91,117,
2,203224, Note_off_c,2,98,64,
2,203224, Note_off_c,2,103,64,
2,203230, Note_off_c,2,91,64,
2,203274, Note_on_c,2,89,111,
2,203274, Note_on_c,2,96,113,
2,203276, Note_on_c,2,101,111,
2,203324, Note_off_c,2,89,64,
2,203328, Note_off_c,2,101,64,
2,203330, Note_off_c,2,96,64,
2,203372, Note_off_c,2,60,64,
2,203378, Note_off_c,2,67,64,
2,203382, Note_off_c,2,63,64,
2,203398, Note_on_c,2,99,103,
2,203398, Note_on_c,2,87,103,
2,203398, Note_on_c,2,94,101,
2,203424, Note_off_c,2,87,64,
2,203438, Note_off_c,2,94,64,
2,203448, Note_off_c,2,99,64,
2,203520, Control_c,2,64,0,
2,203524, Note_on_c,2,67,82,
2,203526, Note_on_c,2,62,83,
2,203526, Note_on_c,2,56,91,
2,203532, Note_on_c,2,96,107,
2,203534, Note_on_c,2,101,103,
2,203536, Note_on_c,2,89,103,
2,203584, Control_c,2,64,127,
2,203596, Note_off_c,2,67,64,
2,203600, Note_off_c,2,62,64,
2,203604, Note_off_c,2,101,64,
2,203604, Note_off_c,2,96,64,
2,203612, Note_off_c,2,56,64,
2,203618, Note_off_c,2,89,64,
2,203728, Note_on_c,2,46,110,
2,203916, Note_on_c,2,56,108,
2,203920, Note_on_c,2,80,111,
2,203920, Note_on_c,2,72,112,
2,203922, Note_on_c,2,84,106,
2,203922, Note_on_c,2,77,108,
2,203954, Note_off_c,2,72,64,
2,203958, Note_off_c,2,77,64,
2,203972, Note_off_c,2,84,64,
2,203972, Note_off_c,2,80,64,
2,204036, Note_on_c,2,73,108,
2,204036, Note_on_c,2,85,105,
2,204038, Note_on_c,2,80,99,
2,204074, Note_off_c,2,73,64,
2,204080, Note_off_c,2,80,64,
2,204086, Note_off_c,2,85,64,
2,204122, Note_on_c,2,53,91,
2,204128, Note_on_c,2,81,100,
2,204128, Note_on_c,2,86,99,
2,204130, Note_on_c,2,74,90,
2,204148, Note_off_c,2,56,64,
2,204148, Note_off_c,2,46,64,
2,204156, Note_off_c,2,74,64,
2,204160, Note_off_c,2,81,64,
2,204160, Note_off_c,2,53,64,
2,204162, Note_off_c,2,86,64,
2,204228, Note_on_c,2,87,104,
2,204230, Note_on_c,2,82,100,
2,204230, Note_on_c,2,75,100,
2,204256, Note_off_c,2,75,64,
2,204268, Note_off_c,2,82,64,
2,204272, Note_off_c,2,87,64,
2,204292, Note_on_c,2,46,94,
2,204312, Note_on_c,2,52,71,
2,204320, Control_c,2,64,0,
2,204330, Note_on_c,2,55,77,
2,204334, Note_on_c,2,76,89,
2,204334, Note_on_c,2,61,99,
2,204336, Note_on_c,2,82,98,
2,204338, Note_on_c,2,85,90,
2,204340, Note_on_c,2,88,79,
2,204392, Control_c,2,64,127,
2,204396, Note_off_c,2,76,64,
2,204410, Note_off_c,2,46,64,
2,204412, Note_off_c,2,52,64,
2,204414, Note_off_c,2,85,64,
2,204414, Note_off_c,2,82,64,
2,204416, Note_off_c,2,88,64,
2,204418, Note_off_c,2,55,64,
2,204442, Note_off_c,2,61,64,
2,204464, Note_on_c,2,78,95,
2,204470, Note_on_c,2,82,95,
2,204472, Note_on_c,2,85,94,
2,204472, Note_on_c,2,90,98,
2,204516, Note_off_c,2,78,64,
2,204520, Note_off_c,2,82,64,
2,204544, Note_off_c,2,85,64,
2,204546, Note_off_c,2,90,64,
2,204588, Note_on_c,2,79,89,
2,204588, Note_on_c,2,91,100,
2,204596, Note_on_c,2,89,76,
2,204614, Note_off_c,2,89,64,
2,204630, Note_off_c,2,79,64,
2,204656, Note_on_c,2,55,62,
2,204664, Note_off_c,2,91,64,
2,204696, Note_on_c,2,58,91,
2,204698, Note_on_c,2,61,98,
2,204700, Note_on_c,2,64,90,
2,204704, Note_on_c,2,81,100,
2,204706, Note_on_c,2,93,106,
2,204748, Note_off_c,2,81,64,
2,204764, Note_off_c,2,93,64,
2,204786, Note_off_c,2,64,64,
2,204796, Note_off_c,2,61,64,
2,204798, Note_off_c,2,55,64,
2,204808, Note_off_c,2,58,64,
2,204834, Note_on_c,2,82,107,
2,204834, Note_on_c,2,94,110,
2,204868, Note_off_c,2,82,64,
2,204888, Note_off_c,2,94,64,
2,204952, Note_on_c,2,96,104,
2,204952, Note_on_c,2,84,98,
2,204986, Note_off_c,2,84,64,
2,205016, Note_off_c,2,96,64,
2,205030, Note_on_c,2,46,94,
2,205052, Control_c,2,64,0,
2,205072, Note_on_c,2,56,98,
2,205072, Note_on_c,2,86,82,
2,205074, Note_on_c,2,91,96,
2,205078, Note_on_c,2,98,103,
2,205110, Note_off_c,2,46,64,
2,205114, Note_off_c,2,86,64,
2,205118, Note_off_c,2,91,64,
2,205118, Control_c,2,64,127,
2,205120, Note_off_c,2,56,64,
2,205144, Note_off_c,2,98,64,
2,205230, Note_on_c,2,103,68,
2,205252, Note_on_c,2,101,64,
2,205278, Note_off_c,2,103,64,
2,205282, Note_on_c,2,98,67,
2,205296, Note_off_c,2,101,64,
2,205306, Note_on_c,2,96,74,
2,205312, Note_off_c,2,98,64,
2,205340, Note_off_c,2,96,64,
2,205352, Note_on_c,2,97,84,
2,205372, Note_on_c,2,98,77,
2,205374, Note_off_c,2,97,64,
2,205400, Note_on_c,2,97,75,
2,205418, Note_off_c,2,98,64,
2,205428, Note_on_c,2,95,85,
2,205432, Control_c,2,64,0,
2,205434, Note_off_c,2,97,64,
2,205440, Note_on_c,2,66,99,
2,205442, Note_on_c,2,56,92,
2,205448, Note_off_c,2,95,64,
2,205448, Note_on_c,2,93,42,
2,205470, Note_off_c,2,93,64,
2,205472, Note_on_c,2,92,91,
2,205490, Control_c,2,64,127,
2,205506, Note_on_c,2,90,93,
2,205510, Note_off_c,2,92,64,
2,205528, Note_off_c,2,90,64,
2,205530, Note_on_c,2,86,92,
2,205560, Note_off_c,2,86,64,
2,205570, Note_on_c,2,85,98,
2,205580, Note_off_c,2,66,64,
2,205592, Note_off_c,2,56,64,
2,205594, Note_on_c,2,86,65,
2,205596, Note_off_c,2,85,64,
2,205620, Note_on_c,2,85,73,
2,205642, Note_off_c,2,86,64,
2,205644, Note_on_c,2,83,73,
2,205650, Note_off_c,2,85,64,
2,205670, Note_on_c,2,81,48,
2,205672, Note_off_c,2,83,64,
2,205688, Note_on_c,2,80,78,
2,205692, Note_off_c,2,81,64,
2,205716, Note_on_c,2,78,90,
2,205738, Note_off_c,2,80,64,
2,205752, Note_on_c,2,74,92,
2,205754, Note_off_c,2,78,64,
2,205794, Note_off_c,2,74,64,
2,205828, Control_c,2,64,0,
2,205848, Note_on_c,2,46,106,
2,205850, Note_on_c,2,39,104,
2,205914, Control_c,2,64,127,
2,205920, Note_off_c,2,39,64,
2,205922, Note_off_c,2,46,64,
2,205938, Note_on_c,2,84,99,
2,205986, Note_on_c,2,79,89,
2,206002, Note_off_c,2,84,64,
2,206024, Note_on_c,2,77,80,
2,206032, Note_off_c,2,79,64,
2,206046, Note_on_c,2,72,84,
2,206052, Note_off_c,2,77,64,
2,206068, Note_off_c,2,72,64,
2,206088, Note_on_c,2,67,84,
2,206108, Note_on_c,2,65,73,
2,206126, Note_off_c,2,67,64,
2,206144, Note_on_c,2,60,84,
2,206146, Note_off_c,2,65,64,
2,206154, Control_c,2,64,0,
2,206178, Note_on_c,2,65,85,
2,206180, Note_off_c,2,60,64,
2,206200, Note_on_c,2,67,68,
2,206216, Note_on_c,2,51,96,
2,206216, Note_on_c,2,58,101,
2,206224, Note_on_c,2,72,91,
2,206226, Note_off_c,2,65,64,
2,206238, Note_off_c,2,67,64,
2,206244, Note_off_c,2,72,64,
2,206258, Note_on_c,2,72,91,
2,206264, Control_c,2,64,127,
2,206282, Note_off_c,2,58,64,
2,206290, Note_off_c,2,51,64,
2,206292, Note_on_c,2,77,77,
2,206296, Note_off_c,2,72,64,
2,206316, Note_on_c,2,79,69,
2,206332, Note_off_c,2,77,64,
2,206336, Note_on_c,2,81,40,
2,206342, Note_off_c,2,79,64,
2,206354, Note_off_c,2,81,64,
2,206358, Note_on_c,2,84,86,
2,206392, Note_off_c,2,84,64,
2,206392, Note_on_c,2,89,80,
2,206410, Note_on_c,2,91,98,
2,206428, Note_off_c,2,89,64,
2,206438, Note_on_c,2,84,101,
2,206440, Note_on_c,2,96,106,
2,206450, Note_off_c,2,91,64,
2,206530, Control_c,2,64,0,
2,206578, Note_off_c,2,96,64,
2,206600, Note_off_c,2,84,64,
2,206600, Note_on_c,2,41,93,
2,206600, Note_on_c,2,56,106,
2,206620, Control_c,2,64,127,
2,206704, Note_off_c,2,41,64,
2,206716, Note_on_c,2,72,59,
2,206716, Note_on_c,2,74,54,
2,206728, Note_off_c,2,56,64,
2,206744, Note_on_c,2,67,78,
2,206746, Note_off_c,2,74,64,
2,206764, Note_off_c,2,72,64,
2,206772, Note_on_c,2,65,43,
2,206784, Note_off_c,2,67,64,
2,206790, Note_on_c,2,60,84,
2,206796, Note_off_c,2,65,64,
2,206828, Note_off_c,2,60,64,
2,206836, Note_on_c,2,65,47,
2,206852, Note_on_c,2,67,82,
2,206860, Note_off_c,2,65,64,
2,206878, Note_off_c,2,67,64,
2,206888, Note_on_c,2,72,93,
2,206928, Note_on_c,2,77,77,
2,206930, Note_off_c,2,72,64,
2,206970, Control_c,2,64,0,
2,206970, Note_on_c,2,79,66,
2,206972, Note_off_c,2,77,64,
2,206972, Note_on_c,2,81,51,
2,206978, Note_on_c,2,60,81,
2,206980, Note_on_c,2,56,91,
2,206980, Note_on_c,2,63,93,
2,206988, Note_off_c,2,79,64,
2,206996, Note_off_c,2,81,64,
2,207002, Note_on_c,2,84,95,
2,207012, Control_c,2,64,127,
2,207036, Note_off_c,2,63,64,
2,207036, Note_off_c,2,60,64,
2,207042, Note_off_c,2,84,64,
2,207048, Note_on_c,2,89,81,
2,207052, Note_off_c,2,56,64,
2,207066, Note_on_c,2,91,73,
2,207068, Note_on_c,2,93,72,
2,207084, Note_off_c,2,93,64,
2,207084, Note_off_c,2,89,64,
2,207094, Note_off_c,2,91,64,
2,207096, Note_on_c,2,84,106,
2,207098, Note_on_c,2,96,109,
2,207126, Note_off_c,2,96,64,
2,207126, Note_off_c,2,84,64,
2,207324, Control_c,2,64,0,
2,207328, Note_on_c,2,42,110,
2,207396, Control_c,2,64,127,
2,207408, Note_off_c,2,42,64,
2,207436, Note_on_c,2,63,103,
2,207494, Note_off_c,2,63,64,
2,207512, Note_on_c,2,69,70,
2,207558, Note_on_c,2,72,81,
2,207572, Note_off_c,2,69,64,
2,207606, Note_on_c,2,74,90,
2,207614, Note_off_c,2,72,64,
2,207630, Note_off_c,2,74,64,
2,207646, Note_on_c,2,75,106,
2,207684, Note_off_c,2,75,64,
2,207690, Note_on_c,2,72,81,
2,207692, Control_c,2,64,0,
2,207720, Note_on_c,2,63,90,
2,207724, Note_on_c,2,54,87,
2,207726, Note_on_c,2,74,87,
2,207732, Note_off_c,2,72,64,
2,207758, Note_on_c,2,75,96,
2,207768, Note_off_c,2,74,64,
2,207784, Note_off_c,2,75,64,
2,207796, Note_on_c,2,77,86,
2,207830, Note_on_c,2,78,92,
2,207836, Note_off_c,2,77,64,
2,207866, Note_on_c,2,80,95,
2,207876, Note_off_c,2,78,64,
2,207892, Note_off_c,2,80,64,
2,207896, Note_on_c,2,81,81,
2,207930, Note_on_c,2,82,94,
2,207944, Note_off_c,2,81,64,
2,207948, Note_off_c,2,54,64,
2,207960, Note_on_c,2,83,82,
2,207968, Note_off_c,2,82,64,
2,207972, Note_off_c,2,63,64,
2,207994, Note_on_c,2,84,71,
2,208000, Note_off_c,2,83,64,
2,208032, Note_on_c,2,83,70,
2,208054, Note_off_c,2,84,64,
2,208054, Note_on_c,2,82,92,
2,208072, Note_off_c,2,83,64,
2,208088, Note_on_c,2,81,74,
2,208096, Note_off_c,2,82,64,
2,208118, Note_on_c,2,63,78,
2,208122, Note_on_c,2,60,69,
2,208122, Note_on_c,2,80,92,
2,208124, Note_on_c,2,56,77,
2,208132, Note_off_c,2,81,64,
2,208140, Note_off_c,2,60,64,
2,208142, Note_off_c,2,56,64,
2,208142, Note_off_c,2,63,64,
2,208160, Note_off_c,2,80,64,
2,208160, Note_on_c,2,82,94,
2,208192, Note_on_c,2,80,79,
2,208220, Note_off_c,2,82,64,
2,208228, Note_on_c,2,79,76,
2,208234, Note_off_c,2,80,64,
2,208264, Note_off_c,2,79,64,
2,208268, Note_on_c,2,78,82,
2,208300, Note_on_c,2,77,79,
2,208306, Note_off_c,2,78,64,
2,208328, Note_off_c,2,77,64,
2,208336, Note_on_c,2,75,87,
2,208372, Note_on_c,2,73,88,
2,208386, Note_off_c,2,75,64,
2,208398, Note_on_c,2,72,76,
2,208404, Note_off_c,2,73,64,
2,208428, Note_off_c,2,72,64,
2,208510, Note_on_c,2,42,104,
2,208538, Control_c,2,64,127,
2,208554, Note_off_c,2,42,64,
2,208628, Note_on_c,2,67,106,
2,208714, Note_on_c,2,68,70,
2,208734, Note_off_c,2,67,64,
2,208766, Note_on_c,2,69,60,
2,208808, Note_off_c,2,68,64,
2,208814, Note_on_c,2,70,110,
2,208828, Note_off_c,2,69,64,
2,208878, Note_off_c,2,70,64,
2,208884, Control_c,2,64,0,
2,208904, Note_on_c,2,43,81,
2,208906, Note_on_c,2,67,105,
2,208952, Note_off_c,2,67,64,
2,208978, Note_off_c,2,43,64,
2,209092, Note_on_c,2,67,107,
2,209092, Note_on_c,2,73,116,
2,209094, Note_on_c,2,77,103,
2,209094, Note_on_c,2,65,87,
2,209096, Note_on_c,2,64,53,
2,209118, Note_off_c,2,64,64,
2,209128, Note_on_c,2,74,82,
2,209138, Note_off_c,2,73,64,
2,209154, Note_off_c,2,67,64,
2,209156, Note_off_c,2,77,64,
2,209170, Note_off_c,2,74,64,
2,209174, Note_off_c,2,65,64,
2,209190, Note_on_c,2,63,92,
2,209192, Note_on_c,2,67,75,
2,209192, Note_on_c,2,75,104,
2,209244, Note_off_c,2,67,64,
2,209244, Note_off_c,2,63,64,
2,209248, Note_off_c,2,75,64,
2,209286, Note_on_c,2,62,88,
2,209288, Note_on_c,2,67,87,
2,209288, Note_on_c,2,74,95,
2,209336, Control_c,2,64,127,
2,209446, Note_off_c,2,74,64,
2,209456, Note_off_c,2,67,64,
2,209462, Note_off_c,2,62,64,
2,209476, Note_on_c,2,60,105,
2,209482, Note_on_c,2,72,103,
2,209512, Note_off_c,2,60,64,
2,209544, Note_off_c,2,72,64,
2,209650, Note_on_c,2,74,94,
2,209652, Note_on_c,2,63,100,
2,209654, Control_c,2,64,0,
2,209654, Note_on_c,2,67,81,
2,209750, Note_on_c,2,55,90,
2,209792, Note_off_c,2,55,64,
2,209832, Note_on_c,2,54,72,
2,209866, Note_off_c,2,54,64,
2,209876, Note_off_c,2,74,64,
2,209882, Note_on_c,2,53,88,
2,209884, Note_off_c,2,63,64,
2,209908, Note_off_c,2,67,64,
2,209936, Note_on_c,2,52,82,
2,209944, Note_off_c,2,53,64,
2,209994, Note_on_c,2,51,92,
2,210004, Note_off_c,2,52,64,
2,210028, Note_off_c,2,51,64,
2,210040, Note_on_c,2,75,99,
2,210042, Note_on_c,2,67,86,
2,210042, Note_on_c,2,70,96,
2,210044, Note_on_c,2,63,108,
2,210046, Note_on_c,2,51,97,
2,210076, Control_c,2,64,127,
2,210086, Note_off_c,2,51,64,
2,210112, Note_off_c,2,63,64,
2,210112, Note_off_c,2,67,64,
2,210120, Note_off_c,2,70,64,
2,210124, Note_off_c,2,75,64,
2,210244, Note_on_c,2,60,97,
2,210246, Note_on_c,2,54,106,
2,210276, Note_off_c,2,60,64,
2,210278, Note_off_c,2,54,64,
2,210420, Control_c,2,64,0,
2,210428, Note_on_c,2,70,102,
2,210428, Note_on_c,2,65,97,
2,210430, Note_on_c,2,62,91,
2,210432, Note_on_c,2,43,87,
2,210432, Note_on_c,2,53,88,
2,210496, Note_off_c,2,62,64,
2,210496, Control_c,2,64,127,
2,210498, Note_off_c,2,65,64,
2,210524, Note_off_c,2,70,64,
2,210620, Note_on_c,2,49,107,
2,210626, Note_off_c,2,43,64,
2,210632, Note_off_c,2,53,64,
2,210644, Note_off_c,2,49,64,
2,210806, Note_on_c,2,82,99,
2,210808, Control_c,2,64,0,
2,210808, Note_on_c,2,73,104,
2,210808, Note_on_c,2,65,94,
2,210808, Note_on_c,2,77,90,
2,210810, Note_on_c,2,61,103,
2,210810, Note_on_c,2,70,107,
2,210880, Control_c,2,64,127,
2,210916, Note_off_c,2,82,64,
2,210926, Note_off_c,2,77,64,
2,210942, Note_off_c,2,73,64,
2,210946, Note_off_c,2,70,64,
2,210992, Note_on_c,2,55,90,
2,211008, Note_off_c,2,65,64,
2,211018, Note_off_c,2,61,64,
2,211028, Note_off_c,2,55,64,
2,211176, Control_c,2,64,0,
2,211186, Note_on_c,2,64,102,
2,211186, Note_on_c,2,73,107,
2,211186, Note_on_c,2,68,98,
2,211188, Note_on_c,2,63,108,
2,211248, Control_c,2,64,127,
2,211256, Note_off_c,2,63,64,
2,211258, Note_off_c,2,64,64,
2,211268, Note_off_c,2,68,64,
2,211280, Note_off_c,2,73,64,
2,211280, Note_on_c,2,36,95,
2,211282, Note_on_c,2,52,95,
2,211322, Note_off_c,2,52,64,
2,211322, Note_off_c,2,36,64,
2,211386, Note_on_c,2,68,114,
2,211386, Note_on_c,2,64,114,
2,211388, Note_on_c,2,75,116,
2,211458, Note_off_c,2,75,64,
2,211464, Note_off_c,2,68,64,
2,211476, Note_off_c,2,64,64,
2,211490, Note_on_c,2,58,114,
2,211518, Control_c,2,64,0,
2,211592, Note_on_c,2,72,104,
2,211592, Note_on_c,2,64,110,
2,211592, Note_on_c,2,68,109,
2,211608, Control_c,2,64,127,
2,211698, Note_off_c,2,58,64,
2,211700, Note_off_c,2,64,64,
2,211702, Note_on_c,2,56,109,
2,211706, Note_off_c,2,72,64,
2,211712, Note_off_c,2,68,64,
2,211746, Note_off_c,2,56,64,
2,211804, Note_on_c,2,64,111,
2,211804, Note_on_c,2,70,113,
2,211804, Note_on_c,2,66,115,
2,211874, Note_off_c,2,64,64,
2,211878, Note_off_c,2,66,64,
2,211880, Note_off_c,2,70,64,
2,211908, Note_on_c,2,48,108,
2,211924, Control_c,2,64,0,
2,212026, Note_on_c,2,72,95,
2,212028, Note_on_c,2,67,93,
2,212028, Note_on_c,2,63,109,
2,212030, Note_on_c,2,68,91,
2,212056, Control_c,2,64,127,
2,212124, Note_off_c,2,72,64,
2,212132, Note_off_c,2,67,64,
2,212134, Note_off_c,2,68,64,
2,212134, Note_on_c,2,41,98,
2,212146, Note_off_c,2,63,64,
2,212146, Note_off_c,2,48,64,
2,212168, Note_off_c,2,41,64,
2,212240, Note_on_c,2,60,110,
2,212352, Note_on_c,2,63,103,
2,212384, Note_off_c,2,60,64,
2,212460, Note_off_c,2,63,64,
2,212476, Note_on_c,2,60,93,
2,212478, Note_on_c,2,67,86,
2,212480, Note_on_c,2,56,104,
2,212588, Note_off_c,2,60,64,
2,212596, Note_off_c,2,67,64,
2,212620, Note_on_c,2,70,103,
2,212620, Note_on_c,2,63,104,
2,212658, Note_off_c,2,63,64,
2,212676, Note_off_c,2,70,64,
2,212760, Note_on_c,2,74,117,
2,212854, Note_off_c,2,74,64,
2,212874, Note_off_c,2,56,64,
2,212902, Note_on_c,2,70,114,
2,212944, Note_off_c,2,70,64,
2,213040, Control_c,2,64,0,
2,213050, Note_on_c,2,72,96,
2,213052, Note_on_c,2,75,108,
2,213054, Note_on_c,2,68,107,
2,213056, Note_on_c,2,46,106,
2,213116, Control_c,2,64,127,
2,213132, Note_off_c,2,68,64,
2,213144, Note_off_c,2,72,64,
2,213146, Note_off_c,2,75,64,
2,213198, Note_off_c,2,46,64,
2,213204, Note_on_c,2,66,106,
2,213204, Note_on_c,2,73,103,
2,213206, Note_on_c,2,70,99,
2,213246, Note_off_c,2,66,64,
2,213252, Note_off_c,2,70,64,
2,213268, Note_off_c,2,73,64,
2,213380, Note_on_c,2,78,103,
2,213380, Note_on_c,2,75,101,
2,213380, Note_on_c,2,56,106,
2,213392, Control_c,2,64,0,
2,213442, Control_c,2,64,127,
2,213488, Note_off_c,2,75,64,
2,213496, Note_off_c,2,78,64,
2,213550, Note_on_c,2,70,99,
2,213550, Note_on_c,2,73,96,
2,213552, Note_on_c,2,76,88,
2,213552, Note_on_c,2,62,94,
2,213602, Note_off_c,2,70,64,
2,213604, Note_off_c,2,73,64,
2,213616, Note_off_c,2,76,64,
2,213728, Note_on_c,2,82,110,
2,213728, Note_on_c,2,85,112,
2,213728, Note_on_c,2,78,114,
2,213730, Note_on_c,2,66,104,
2,213810, Note_off_c,2,82,64,
2,213816, Note_off_c,2,85,64,
2,213818, Note_off_c,2,78,64,
2,213918, Note_on_c,2,80,115,
2,213918, Note_on_c,2,83,108,
2,213918, Note_on_c,2,76,108,
2,213966, Note_off_c,2,76,64,
2,213976, Note_off_c,2,80,64,
2,213984, Note_off_c,2,83,64,
2,213992, Note_off_c,2,66,64,
2,214002, Note_off_c,2,62,64,
2,214012, Note_off_c,2,56,64,
2,214084, Note_on_c,2,56,80,
2,214098, Note_on_c,2,59,77,
2,214128, Note_on_c,2,62,72,
2,214140, Note_on_c,2,82,87,
2,214144, Note_on_c,2,66,96,
2,214150, Note_on_c,2,85,104,
2,214154, Note_on_c,2,90,104,
2,214238, Note_off_c,2,90,64,
2,214240, Note_off_c,2,82,64,
2,214248, Note_off_c,2,85,64,
2,214372, Note_on_c,2,88,97,
2,214374, Note_on_c,2,80,103,
2,214376, Note_on_c,2,83,91,
2,214448, Note_off_c,2,66,64,
2,214464, Note_off_c,2,62,64,
2,214468, Note_off_c,2,80,64,
2,214470, Note_off_c,2,83,64,
2,214472, Note_off_c,2,59,64,
2,214476, Note_off_c,2,88,64,
2,214484, Note_off_c,2,56,64,
2,214676, Control_c,2,64,0,
2,214692, Note_on_c,2,39,110,
2,214692, Note_on_c,2,46,115,
2,214744, Note_off_c,2,39,64,
2,214744, Control_c,2,64,127,
2,214750, Note_off_c,2,46,64,
2,214810, Note_on_c,2,84,107,
2,214810, Note_on_c,2,93,108,
2,214882, Note_off_c,2,84,64,
2,214904, Note_off_c,2,93,64,
2,214932, Note_on_c,2,89,113,
2,214932, Note_on_c,2,96,109,
2,215010, Note_off_c,2,96,64,
2,215016, Note_off_c,2,89,64,
2,215042, Note_on_c,2,93,99,
2,215044, Note_on_c,2,84,103,
2,215078, Note_off_c,2,84,64,
2,215078, Note_off_c,2,93,64,
2,215160, Note_on_c,2,55,84,
2,215162, Note_on_c,2,65,89,
2,215164, Note_on_c,2,60,86,
2,215164, Note_on_c,2,61,91,
2,215170, Control_c,2,64,0,
2,215246, Control_c,2,64,127,
2,215288, Note_on_c,2,89,91,
2,215288, Note_on_c,2,82,102,
2,215376, Note_off_c,2,82,64,
2,215384, Note_off_c,2,89,64,
2,215394, Note_off_c,2,65,64,
2,215404, Note_on_c,2,94,105,
2,215408, Note_off_c,2,61,64,
2,215408, Note_off_c,2,60,64,
2,215408, Note_on_c,2,85,104,
2,215410, Note_off_c,2,55,64,
2,215496, Note_off_c,2,85,64,
2,215506, Note_off_c,2,94,64,
2,215526, Note_on_c,2,89,90,
2,215528, Note_on_c,2,82,95,
2,215576, Note_off_c,2,89,64,
2,215586, Note_off_c,2,82,64,
2,215636, Control_c,2,64,0,
2,215640, Note_on_c,2,44,105,
2,215642, Note_on_c,2,51,108,
2,215702, Control_c,2,64,127,
2,215750, Note_off_c,2,44,64,
2,215754, Note_off_c,2,51,64,
2,215782, Note_on_c,2,82,109,
2,215782, Note_on_c,2,74,101,
2,215860, Note_off_c,2,74,64,
2,215874, Note_off_c,2,82,64,
2,215924, Note_on_c,2,78,112,
2,215924, Note_on_c,2,86,103,
2,216012, Note_off_c,2,78,64,
2,216018, Note_off_c,2,86,64,
2,216064, Note_on_c,2,82,107,
2,216066, Note_on_c,2,74,98,
2,216106, Note_off_c,2,82,64,
2,216118, Note_off_c,2,74,64,
2,216214, Control_c,2,64,0,
2,216214, Note_on_c,2,54,93,
2,216214, Note_on_c,2,59,85,
2,216216, Note_on_c,2,63,92,
2,216218, Note_on_c,2,58,95,
2,216298, Control_c,2,64,127,
2,216374, Note_on_c,2,68,105,
2,216376, Note_off_c,2,63,64,
2,216376, Note_on_c,2,75,99,
2,216392, Note_off_c,2,59,64,
2,216396, Note_off_c,2,58,64,
2,216398, Note_off_c,2,54,64,
2,216460, Note_off_c,2,68,64,
2,216480, Note_off_c,2,75,64,
2,216562, Note_on_c,2,80,103,
2,216564, Note_on_c,2,44,110,
2,216564, Note_on_c,2,71,99,
2,216574, Control_c,2,64,0,
2,216636, Control_c,2,64,127,
2,216684, Note_off_c,2,80,64,
2,216700, Note_off_c,2,71,64,
2,216748, Note_on_c,2,68,108,
2,216750, Note_on_c,2,75,105,
2,216758, Note_off_c,2,44,64,
2,216790, Note_off_c,2,75,64,
2,216796, Note_off_c,2,68,64,
2,216946, Note_on_c,2,44,112,
2,216948, Note_on_c,2,37,108,
2,216958, Control_c,2,64,0,
2,217042, Control_c,2,64,127,
2,217126, Note_on_c,2,53,105,
2,217126, Note_on_c,2,58,106,
2,217126, Note_on_c,2,61,97,
2,217128, Note_on_c,2,63,100,
2,217200, Note_off_c,2,53,64,
2,217208, Note_off_c,2,58,64,
2,217212, Note_off_c,2,63,64,
2,217218, Note_off_c,2,61,64,
2,217228, Note_on_c,2,53,39,
2,217254, Note_on_c,2,58,75,
2,217266, Note_off_c,2,53,64,
2,217290, Note_on_c,2,61,76,
2,217294, Note_off_c,2,58,64,
2,217312, Note_on_c,2,63,75,
2,217318, Note_off_c,2,61,64,
2,217324, Note_off_c,2,63,64,
2,217342, Note_on_c,2,65,92,
2,217382, Note_on_c,2,70,88,
2,217384, Note_off_c,2,65,64,
2,217408, Note_off_c,2,70,64,
2,217414, Note_on_c,2,73,75,
2,217436, Note_off_c,2,73,64,
2,217438, Note_on_c,2,75,66,
2,217452, Note_off_c,2,75,64,
2,217464, Note_on_c,2,77,84,
2,217498, Note_off_c,2,77,64,
2,217498, Note_on_c,2,82,80,
2,217516, Note_on_c,2,85,89,
2,217528, Note_off_c,2,82,64,
2,217542, Note_off_c,2,85,64,
2,217546, Note_on_c,2,82,74,
2,217546, Note_on_c,2,87,89,
2,217572, Note_on_c,2,85,78,
2,217582, Note_off_c,2,82,64,
2,217604, Note_off_c,2,87,64,
2,217608, Note_on_c,2,82,63,
2,217622, Note_off_c,2,85,64,
2,217626, Note_on_c,2,77,83,
2,217632, Note_off_c,2,82,64,
2,217648, Note_off_c,2,77,64,
2,217672, Note_on_c,2,75,77,
2,217688, Note_on_c,2,73,77,
2,217708, Note_off_c,2,75,64,
2,217718, Note_on_c,2,70,85,
2,217728, Note_off_c,2,73,64,
2,217732, Note_on_c,2,65,74,
2,217746, Note_off_c,2,70,64,
2,217752, Control_c,2,64,0,
2,217768, Note_off_c,2,65,64,
2,217772, Note_on_c,2,75,108,
2,217790, Control_c,2,64,127,
2,217798, Note_on_c,2,73,92,
2,217824, Note_off_c,2,75,64,
2,217826, Note_on_c,2,70,87,
2,217844, Note_off_c,2,73,64,
2,217852, Note_on_c,2,65,72,
2,217856, Note_off_c,2,70,64,
2,217872, Note_off_c,2,65,64,
2,217886, Note_off_c,2,44,64,
2,217892, Note_on_c,2,63,80,
2,217896, Note_off_c,2,37,64,
2,217912, Note_on_c,2,61,80,
2,217936, Note_off_c,2,63,64,
2,217940, Note_on_c,2,58,86,
2,217958, Note_off_c,2,61,64,
2,217960, Note_on_c,2,53,67,
2,217968, Note_off_c,2,58,64,
2,217994, Note_off_c,2,53,64,
2,217998, Note_on_c,2,63,97,
2,218022, Note_on_c,2,61,88,
2,218050, Note_on_c,2,58,85,
2,218052, Note_off_c,2,63,64,
2,218062, Note_off_c,2,61,64,
2,218072, Note_on_c,2,53,80,
2,218082, Note_off_c,2,58,64,
2,218100, Note_off_c,2,53,64,
2,218128, Note_on_c,2,51,81,
2,218144, Note_on_c,2,49,87,
2,218158, Control_c,2,64,0,
2,218164, Note_on_c,2,46,95,
2,218172, Note_off_c,2,51,64,
2,218184, Note_off_c,2,49,64,
2,218194, Note_on_c,2,41,84,
2,218206, Note_off_c,2,46,64,
2,218220, Note_on_c,2,37,107,
2,218224, Note_off_c,2,41,64,
2,218228, Note_on_c,2,32,91,
2,218288, Note_on_c,2,25,116,
2,218328, Control_c,2,64,127,
2,218362, Note_off_c,2,25,64,
2,218364, Note_off_c,2,32,64,
2,218376, Note_off_c,2,37,64,
2,218594, Control_c,2,64,0,
2,218612, Note_on_c,2,27,106,
2,218670, Note_on_c,2,34,106,
2,218732, Note_on_c,2,39,99,
2,218738, Note_on_c,2,65,119,
2,218738, Note_on_c,2,55,117,
2,218738, Note_on_c,2,60,115,
2,218784, Control_c,2,64,127,
2,218836, Note_off_c,2,27,64,
2,218840, Note_off_c,2,34,64,
2,218848, Note_off_c,2,39,64,
2,218874, Note_off_c,2,55,64,
2,218878, Note_off_c,2,60,64,
2,218882, Note_off_c,2,65,64,
2,219186, Note_on_c,2,67,93,
2,219186, Note_on_c,2,77,100,
2,219186, Note_on_c,2,74,95,
2,219186, Note_on_c,2,70,95,
2,219186, Note_on_c,2,72,94,
2,219188, Note_on_c,2,101,120,
2,219188, Note_on_c,2,96,122,
2,219308, Note_off_c,2,96,64,
2,219332, Note_off_c,2,101,64,
2,219334, Note_off_c,2,67,64,
2,219344, Note_off_c,2,77,64,
2,219348, Note_off_c,2,70,64,
2,219348, Note_on_c,2,95,49,
2,219368, Note_off_c,2,72,64,
2,219370, Note_off_c,2,95,64,
2,219376, Note_on_c,2,67,36,
2,219382, Note_on_c,2,101,63,
2,219384, Note_off_c,2,74,64,
2,219392, Note_on_c,2,70,73,
2,219412, Note_on_c,2,72,67,
2,219430, Note_off_c,2,101,64,
2,219434, Note_on_c,2,96,44,
2,219434, Note_on_c,2,77,33,
2,219436, Note_off_c,2,67,64,
2,219444, Note_on_c,2,74,72,
2,219446, Note_off_c,2,70,64,
2,219458, Note_on_c,2,101,64,
2,219460, Note_off_c,2,72,64,
2,219472, Note_off_c,2,96,64,
2,219486, Note_off_c,2,77,64,
2,219488, Note_on_c,2,67,61,
2,219494, Note_on_c,2,96,67,
2,219496, Note_on_c,2,70,71,
2,219498, Note_off_c,2,74,64,
2,219500, Note_off_c,2,101,64,
2,219510, Note_on_c,2,72,71,
2,219528, Note_off_c,2,96,64,
2,219528, Note_on_c,2,101,62,
2,219534, Note_off_c,2,67,64,
2,219544, Note_off_c,2,70,64,
2,219544, Note_on_c,2,74,70,
2,219546, Note_on_c,2,77,54,
2,219552, Note_off_c,2,72,64,
2,219558, Note_on_c,2,96,65,
2,219562, Note_off_c,2,101,64,
2,219590, Note_off_c,2,77,64,
2,219592, Note_on_c,2,67,46,
2,219594, Note_off_c,2,96,64,
2,219594, Note_off_c,2,74,64,
2,219596, Note_on_c,2,70,61,
2,219596, Note_on_c,2,101,65,
2,219618, Note_on_c,2,72,55,
2,219620, Note_on_c,2,96,56,
2,219624, Note_off_c,2,101,64,
2,219642, Note_off_c,2,70,64,
2,219644, Note_on_c,2,74,55,
2,219648, Note_off_c,2,67,64,
2,219648, Note_on_c,2,77,42,
2,219654, Note_off_c,2,72,64,
2,219658, Note_off_c,2,96,64,
2,219662, Note_on_c,2,101,68,
2,219676, Note_off_c,2,77,64,
2,219682, Note_on_c,2,96,77,
2,219684, Note_off_c,2,101,64,
2,219690, Note_off_c,2,74,64,
2,219692, Note_on_c,2,67,42,
2,219704, Note_on_c,2,77,61,
2,219708, Note_on_c,2,72,77,
2,219708, Note_on_c,2,74,49,
2,219710, Note_off_c,2,96,64,
2,219710, Note_on_c,2,70,69,
2,219730, Note_off_c,2,74,64,
2,219734, Note_off_c,2,72,64,
2,219736, Note_off_c,2,77,64,
2,219736, Note_off_c,2,67,64,
2,219744, Note_off_c,2,70,64,
2,219922, Note_on_c,2,104,52,
2,219932, Note_on_c,2,96,55,
2,219954, Note_on_c,2,106,87,
2,219960, Note_on_c,2,103,51,
2,219968, Note_on_c,2,108,91,
2,219972, Note_off_c,2,96,64,
2,219976, Note_off_c,2,104,64,
2,219978, Note_off_c,2,103,64,
2,219984, Note_off_c,2,106,64,
2,219992, Note_off_c,2,108,64,
2,220212, Note_on_c,2,31,67,
2,220230, Note_on_c,2,39,70,
2,220240, Note_on_c,2,34,80,
2,220264, Control_c,2,64,0,
2,220280, Note_off_c,2,39,64,
2,220296, Note_off_c,2,34,64,
2,243816, Note_off_c,2,31,1,
2,243912, End_track,,,,
0,0, End_of_file,,,,
