0, 0, Header, 1, 1, 120
1, 0, Start_track
1, 0, Text_t, "{GNMIDI}Generated by  GNMIDI demo (http://www.gnmidi.com)\012"
1, 0, Title_t, "Piano"
1, 0, Key_signature, 0, "major"
1, 989, Control_c, 0, 64, 127
1, 1075, Control_c, 0, 64, 0
1, 1088, Note_on_c, 0, 61, 61
1, 1090, Note_on_c, 0, 66, 63
1, 1091, Note_on_c, 0, 73, 67
1, 1091, Note_on_c, 0, 54, 58
1, 1094, Note_on_c, 0, 69, 69
1, 1094, Note_on_c, 0, 50, 54
1, 1097, Note_on_c, 0, 57, 53
1, 1139, Control_c, 0, 64, 127
1, 1164, Note_off_c, 0, 61, 0
1, 1168, Note_off_c, 0, 66, 0
1, 1170, Note_off_c, 0, 73, 0
1, 1353, Note_on_c, 0, 74, 82
1, 1373, Control_c, 0, 64, 0
1, 1382, Note_on_c, 0, 73, 77
1, 1383, Note_on_c, 0, 54, 0
1, 1398, Control_c, 0, 64, 127
1, 1411, Note_off_c, 0, 69, 0
1, 1420, Note_on_c, 0, 69, 59
1, 1455, Note_on_c, 0, 50, 0
1, 1457, Note_on_c, 0, 57, 0
1, 1462, Note_on_c, 0, 66, 48
1, 1465, Note_on_c, 0, 74, 0
1, 1465, Note_on_c, 0, 73, 0
1, 1473, Note_on_c, 0, 69, 0
1, 1494, Note_on_c, 0, 50, 58
1, 1511, Note_on_c, 0, 53, 62
1, 1528, Note_on_c, 0, 57, 50
1, 1536, Control_c, 0, 64, 0
1, 1540, Note_on_c, 0, 60, 49
1, 1557, Note_on_c, 0, 66, 0
1, 1566, Note_on_c, 0, 65, 53
1, 1584, Control_c, 0, 64, 127
1, 1595, Note_off_c, 0, 50, 0
1, 1599, Note_on_c, 0, 69, 30
1, 1613, Note_on_c, 0, 53, 0
1, 1617, Note_on_c, 0, 72, 42
1, 1637, Note_on_c, 0, 57, 0
1, 1664, Note_on_c, 0, 77, 56
1, 1689, Note_on_c, 0, 60, 0
1, 1690, Note_on_c, 0, 81, 60
1, 1708, Note_on_c, 0, 65, 0
1, 1712, Note_on_c, 0, 84, 54
1, 1719, Note_on_c, 0, 69, 0
1, 1736, Note_on_c, 0, 89, 74
1, 1754, Note_on_c, 0, 93, 68
1, 1759, Note_on_c, 0, 72, 0
1, 1762, Note_on_c, 0, 77, 0
1, 1763, Note_on_c, 0, 96, 74
1, 1777, Note_on_c, 0, 81, 0
1, 1798, Note_on_c, 0, 101, 83
1, 1815, Note_on_c, 0, 84, 0
1, 1817, Note_on_c, 0, 105, 66
1, 1827, Note_on_c, 0, 89, 0
1, 1830, Note_on_c, 0, 108, 77
1, 1838, Note_on_c, 0, 93, 0
1, 1941, Note_on_c, 0, 96, 0
1, 1944, Note_on_c, 0, 101, 0
1, 1953, Note_on_c, 0, 105, 0
1, 1970, Note_on_c, 0, 108, 0
1, 2083, Note_on_c, 0, 31, 74
1, 2102, Control_c, 0, 64, 0
1, 2143, Note_on_c, 0, 56, 84
1, 2144, Note_on_c, 0, 53, 82
1, 2145, Note_on_c, 0, 63, 87
1, 2147, Note_on_c, 0, 59, 71
1, 2150, Control_c, 0, 64, 127
1, 2169, Note_off_c, 0, 31, 0
1, 2171, Note_off_c, 0, 56, 0
1, 2182, Note_off_c, 0, 53, 0
1, 2182, Note_off_c, 0, 63, 0
1, 2185, Note_off_c, 0, 59, 0
1, 2380, Note_on_c, 0, 64, 71
1, 2398, Note_on_c, 0, 64, 0
1, 2644, Note_on_c, 0, 68, 72
1, 2645, Note_on_c, 0, 59, 72
1, 2645, Note_on_c, 0, 71, 68
1, 2648, Note_on_c, 0, 64, 69
1, 2686, Note_on_c, 0, 68, 0
1, 2706, Note_on_c, 0, 59, 0
1, 2765, Note_on_c, 0, 71, 0
1, 2766, Note_on_c, 0, 64, 0
1, 2835, Note_on_c, 0, 72, 73
1, 2860, Note_on_c, 0, 72, 0
1, 2922, Note_on_c, 0, 73, 77
1, 2995, Note_on_c, 0, 73, 0
1, 2999, Note_on_c, 0, 29, 54
1, 3001, Control_c, 0, 64, 0
1, 3015, Note_on_c, 0, 69, 66
1, 3016, Note_on_c, 0, 74, 59
1, 3034, Note_on_c, 0, 29, 0
1, 3042, Control_c, 0, 64, 127
1, 3110, Note_off_c, 0, 69, 0
1, 3112, Note_off_c, 0, 74, 0
1, 3114, Note_on_c, 0, 41, 56
1, 3153, Note_on_c, 0, 48, 60
1, 3172, Note_on_c, 0, 41, 0
1, 3177, Note_on_c, 0, 48, 0
1, 3181, Note_on_c, 0, 53, 71
1, 3182, Note_on_c, 0, 72, 83
1, 3183, Note_on_c, 0, 69, 83
1, 3189, Note_on_c, 0, 53, 0
1, 3193, Note_on_c, 0, 72, 0
1, 3197, Note_on_c, 0, 69, 0
1, 3217, Note_on_c, 0, 57, 71
1, 3252, Note_on_c, 0, 60, 83
1, 3252, Note_on_c, 0, 69, 90
1, 3252, Note_on_c, 0, 64, 82
1, 3254, Note_on_c, 0, 65, 86
1, 3262, Note_on_c, 0, 57, 0
1, 3264, Note_on_c, 0, 60, 0
1, 3264, Note_on_c, 0, 69, 0
1, 3265, Note_on_c, 0, 64, 0
1, 3266, Note_on_c, 0, 65, 0
1, 3291, Note_on_c, 0, 57, 74
1, 3300, Note_on_c, 0, 57, 0
1, 3338, Note_on_c, 0, 65, 78
1, 3340, Note_on_c, 0, 57, 66
1, 3341, Note_on_c, 0, 62, 67
1, 3343, Note_on_c, 0, 60, 51
1, 3345, Note_on_c, 0, 65, 0
1, 3347, Note_on_c, 0, 57, 0
1, 3347, Note_on_c, 0, 62, 0
1, 3350, Note_on_c, 0, 60, 0
1, 3393, Note_on_c, 0, 41, 58
1, 3451, Control_c, 0, 64, 0
1, 3451, Note_on_c, 0, 53, 47
1, 3452, Note_on_c, 0, 62, 54
1, 3453, Note_on_c, 0, 57, 66
1, 3454, Note_on_c, 0, 60, 58
1, 3454, Note_on_c, 0, 50, 58
1, 3532, Control_c, 0, 64, 127
1, 3676, Note_off_c, 0, 41, 0
1, 3678, Note_off_c, 0, 53, 0
1, 3686, Note_off_c, 0, 62, 0
1, 3690, Note_off_c, 0, 57, 0
1, 3730, Note_off_c, 0, 60, 0
1, 3798, Note_on_c, 0, 65, 72
1, 3799, Note_on_c, 0, 57, 62
1, 3802, Note_on_c, 0, 62, 56
1, 3803, Note_on_c, 0, 60, 46
1, 3805, Note_on_c, 0, 50, 0
1, 3806, Note_on_c, 0, 65, 0
1, 3806, Note_on_c, 0, 52, 51
1, 3809, Note_on_c, 0, 57, 0
1, 3809, Note_on_c, 0, 62, 0
1, 3810, Note_on_c, 0, 60, 0
1, 3817, Note_on_c, 0, 52, 0
1, 3878, Note_on_c, 0, 69, 63
1, 3879, Note_on_c, 0, 65, 73
1, 3880, Note_on_c, 0, 60, 48
1, 3881, Note_on_c, 0, 64, 66
1, 3882, Note_on_c, 0, 57, 65
1, 3886, Note_on_c, 0, 69, 0
1, 3887, Note_on_c, 0, 65, 0
1, 3887, Note_on_c, 0, 60, 0
1, 3888, Note_on_c, 0, 64, 0
1, 3959, Note_on_c, 0, 72, 59
1, 3961, Note_on_c, 0, 69, 65
1, 3964, Note_on_c, 0, 67, 60
1, 3967, Note_on_c, 0, 60, 29
1, 3971, Note_on_c, 0, 57, 0
1, 3972, Note_on_c, 0, 72, 0
1, 3976, Note_on_c, 0, 69, 0
1, 3980, Note_on_c, 0, 67, 0
1, 4002, Note_on_c, 0, 60, 0
1, 4086, Control_c, 0, 64, 0
1, 4096, Note_on_c, 0, 68, 52
1, 4097, Note_on_c, 0, 76, 49
1, 4097, Note_on_c, 0, 65, 64
1, 4099, Note_on_c, 0, 41, 56
1, 4101, Note_on_c, 0, 71, 51
1, 4119, Control_c, 0, 64, 127
1, 4127, Note_off_c, 0, 68, 0
1, 4209, Note_on_c, 0, 53, 59
1, 4232, Control_c, 0, 64, 0
1, 4239, Note_on_c, 0, 56, 59
1, 4262, Note_on_c, 0, 59, 40
1, 4272, Control_c, 0, 64, 127
1, 4277, Note_off_c, 0, 76, 0
1, 4283, Note_on_c, 0, 62, 51
1, 4294, Note_on_c, 0, 65, 0
1, 4299, Note_on_c, 0, 41, 0
1, 4300, Note_on_c, 0, 71, 0
1, 4300, Note_on_c, 0, 53, 0
1, 4300, Note_on_c, 0, 56, 0
1, 4309, Note_on_c, 0, 65, 53
1, 4310, Note_on_c, 0, 59, 0
1, 4312, Note_on_c, 0, 62, 0
1, 4326, Note_on_c, 0, 68, 65
1, 4333, Note_on_c, 0, 65, 0
1, 4342, Note_on_c, 0, 68, 0
1, 4344, Note_on_c, 0, 71, 48
1, 4363, Note_on_c, 0, 76, 50
1, 4364, Note_on_c, 0, 71, 0
1, 4370, Note_on_c, 0, 76, 0
1, 4372, Note_on_c, 0, 77, 59
1, 4398, Note_on_c, 0, 80, 42
1, 4403, Note_on_c, 0, 79, 29
1, 4409, Note_on_c, 0, 77, 0
1, 4410, Note_on_c, 0, 80, 0
1, 4421, Note_on_c, 0, 79, 0
1, 4425, Note_on_c, 0, 89, 62
1, 4445, Note_on_c, 0, 92, 57
1, 4457, Note_on_c, 0, 89, 0
1, 4458, Note_on_c, 0, 95, 69
1, 4462, Note_on_c, 0, 92, 0
1, 4466, Note_on_c, 0, 100, 84
1, 4469, Note_on_c, 0, 95, 0
1, 4477, Note_on_c, 0, 100, 0
1, 4723, Note_on_c, 0, 44, 61
1, 4742, Control_c, 0, 64, 0
1, 4743, Note_on_c, 0, 62, 46
1, 4750, Note_on_c, 0, 68, 48
1, 4754, Note_on_c, 0, 53, 43
1, 4758, Note_on_c, 0, 74, 67
1, 4764, Control_c, 0, 64, 127
1, 4774, Note_off_c, 0, 44, 0
1, 4775, Note_off_c, 0, 62, 0
1, 4777, Note_off_c, 0, 68, 0
1, 4815, Note_on_c, 0, 60, 61
1, 4822, Note_on_c, 0, 53, 0
1, 4867, Note_on_c, 0, 56, 71
1, 4868, Note_on_c, 0, 74, 0
1, 4872, Note_on_c, 0, 68, 34
1, 4874, Note_on_c, 0, 60, 0
1, 4879, Note_on_c, 0, 56, 0
1, 4923, Note_on_c, 0, 65, 64
1, 4924, Note_on_c, 0, 53, 45
1, 4930, Note_on_c, 0, 68, 0
1, 4931, Note_on_c, 0, 65, 0
1, 4994, Note_on_c, 0, 56, 59
1, 4997, Note_on_c, 0, 65, 34
1, 5000, Note_on_c, 0, 62, 54
1, 5004, Note_on_c, 0, 60, 46
1, 5031, Note_on_c, 0, 53, 0
1, 5033, Note_on_c, 0, 56, 0
1, 5040, Note_on_c, 0, 65, 0
1, 5072, Note_on_c, 0, 62, 0
1, 5120, Note_on_c, 0, 53, 28
1, 5161, Note_on_c, 0, 60, 0
1, 5174, Note_on_c, 0, 74, 57
1, 5181, Note_on_c, 0, 53, 0
1, 5182, Note_on_c, 0, 74, 0
1, 5224, Note_on_c, 0, 43, 36
1, 5248, Note_on_c, 0, 72, 56
1, 5252, Note_on_c, 0, 64, 49
1, 5254, Control_c, 0, 64, 0
1, 5258, Note_on_c, 0, 67, 44
1, 5283, Note_on_c, 0, 48, 58
1, 5293, Note_on_c, 0, 43, 0
1, 5296, Control_c, 0, 64, 127
1, 5317, Note_off_c, 0, 72, 0
1, 5322, Note_on_c, 0, 52, 58
1, 5329, Note_on_c, 0, 64, 0
1, 5351, Note_on_c, 0, 55, 81
1, 5363, Note_on_c, 0, 67, 0
1, 5380, Note_on_c, 0, 60, 71
1, 5383, Note_on_c, 0, 48, 0
1, 5404, Note_on_c, 0, 52, 0
1, 5405, Note_on_c, 0, 64, 77
1, 5432, Note_on_c, 0, 67, 78
1, 5447, Note_on_c, 0, 55, 0
1, 5449, Note_on_c, 0, 60, 0
1, 5457, Note_on_c, 0, 72, 95
1, 5469, Note_on_c, 0, 64, 0
1, 5498, Note_on_c, 0, 60, 66
1, 5527, Note_on_c, 0, 67, 0
1, 5532, Note_on_c, 0, 72, 0
1, 5546, Note_on_c, 0, 64, 52
1, 5585, Note_on_c, 0, 59, 47
1, 5601, Note_on_c, 0, 60, 0
1, 5609, Note_on_c, 0, 52, 61
1, 5624, Note_on_c, 0, 64, 0
1, 5625, Note_on_c, 0, 55, 69
1, 5640, Note_on_c, 0, 59, 51
1, 5649, Note_on_c, 0, 59, 0
1, 5656, Note_on_c, 0, 62, 59
1, 5666, Control_c, 0, 64, 0
1, 5669, Note_on_c, 0, 64, 66
1, 5672, Note_on_c, 0, 70, 82
1, 5685, Note_on_c, 0, 52, 0
1, 5685, Note_on_c, 0, 55, 0
1, 5686, Note_on_c, 0, 71, 81
1, 5715, Note_on_c, 0, 59, 0
1, 5717, Note_on_c, 0, 76, 77
1, 5752, Control_c, 0, 64, 127
1, 5756, Note_on_c, 0, 71, 51
1, 5779, Note_on_c, 0, 62, 0
1, 5791, Note_on_c, 0, 64, 0
1, 5797, Note_on_c, 0, 70, 0
1, 5800, Note_on_c, 0, 71, 0
1, 5803, Note_on_c, 0, 67, 29
1, 5840, Note_on_c, 0, 64, 33
1, 5866, Note_on_c, 0, 58, 53
1, 5900, Note_on_c, 0, 49, 62
1, 5901, Control_c, 0, 64, 0
1, 5902, Note_off_c, 0, 76, 0
1, 5933, Note_on_c, 0, 52, 55
1, 5970, Control_c, 0, 64, 127
1, 6000, Note_off_c, 0, 71, 0
1, 6008, Note_on_c, 0, 58, 36
1, 6020, Note_on_c, 0, 67, 0
1, 6028, Note_on_c, 0, 64, 0
1, 6056, Note_on_c, 0, 64, 38
1, 6109, Note_on_c, 0, 67, 24
1, 6141, Note_on_c, 0, 58, 0
1, 6159, Note_on_c, 0, 70, 40
1, 6171, Note_on_c, 0, 49, 0
1, 6179, Note_on_c, 0, 52, 0
1, 6180, Note_on_c, 0, 58, 0
1, 6184, Note_on_c, 0, 64, 0
1, 6185, Note_on_c, 0, 67, 0
1, 6191, Note_on_c, 0, 70, 0
1, 6219, Note_on_c, 0, 50, 65
1, 6241, Note_on_c, 0, 53, 56
1, 6260, Note_on_c, 0, 57, 77
1, 6275, Control_c, 0, 64, 0
1, 6295, Note_on_c, 0, 62, 70
1, 6321, Control_c, 0, 64, 127
1, 6331, Note_on_c, 0, 65, 86
1, 6344, Note_on_c, 0, 50, 0
1, 6366, Note_on_c, 0, 62, 38
1, 6367, Note_on_c, 0, 69, 77
1, 6380, Note_on_c, 0, 53, 0
1, 6394, Note_on_c, 0, 57, 0
1, 6396, Note_on_c, 0, 62, 0
1, 6404, Note_on_c, 0, 62, 61
1, 6406, Note_on_c, 0, 72, 64
1, 6407, Note_on_c, 0, 65, 54
1, 6441, Note_on_c, 0, 65, 0
1, 6443, Note_on_c, 0, 62, 0
1, 6449, Note_on_c, 0, 69, 77
1, 6456, Note_on_c, 0, 69, 0
1, 6457, Note_on_c, 0, 62, 0
1, 6500, Note_on_c, 0, 62, 57
1, 6500, Note_on_c, 0, 65, 60
1, 6531, Note_on_c, 0, 72, 0
1, 6539, Note_on_c, 0, 65, 0
1, 6556, Note_on_c, 0, 67, 41
1, 6556, Note_on_c, 0, 64, 30
1, 6563, Note_on_c, 0, 69, 0
1, 6565, Note_on_c, 0, 62, 0
1, 6593, Note_on_c, 0, 65, 0
1, 6597, Note_on_c, 0, 67, 0
1, 6608, Note_on_c, 0, 60, 45
1, 6609, Note_on_c, 0, 64, 0
1, 6611, Note_on_c, 0, 64, 51
1, 6668, Note_on_c, 0, 65, 67
1, 6671, Note_on_c, 0, 60, 0
1, 6672, Note_on_c, 0, 64, 0
1, 6675, Note_on_c, 0, 65, 0
1, 6740, Note_on_c, 0, 31, 63
1, 6749, Note_on_c, 0, 53, 50
1, 6750, Note_on_c, 0, 62, 49
1, 6751, Note_on_c, 0, 57, 60
1, 6756, Note_on_c, 0, 59, 53
1, 6760, Control_c, 0, 64, 0
1, 6805, Control_c, 0, 64, 127
1, 6813, Note_on_c, 0, 43, 38
1, 6824, Note_on_c, 0, 31, 0
1, 6865, Note_on_c, 0, 53, 0
1, 6865, Note_on_c, 0, 53, 42
1, 6901, Note_on_c, 0, 62, 0
1, 6907, Note_on_c, 0, 57, 0
1, 6926, Note_on_c, 0, 43, 32
1, 6937, Note_on_c, 0, 59, 0
1, 7002, Note_on_c, 0, 43, 0
1, 7038, Note_on_c, 0, 53, 0
1, 7110, Note_on_c, 0, 43, 46
1, 7131, Note_on_c, 0, 43, 0
1, 7139, Note_on_c, 0, 43, 0
1, 7148, Note_on_c, 0, 67, 63
1, 7154, Note_on_c, 0, 64, 49
1, 7170, Note_on_c, 0, 67, 0
1, 7172, Note_on_c, 0, 63, 76
1, 7173, Note_on_c, 0, 64, 0
1, 7195, Note_on_c, 0, 62, 71
1, 7196, Note_on_c, 0, 63, 0
1, 7212, Note_on_c, 0, 62, 0
1, 7217, Note_on_c, 0, 38, 62
1, 7220, Note_on_c, 0, 67, 69
1, 7229, Control_c, 0, 64, 0
1, 7257, Note_on_c, 0, 45, 69
1, 7261, Control_c, 0, 64, 127
1, 7264, Note_off_c, 0, 38, 0
1, 7279, Note_on_c, 0, 67, 76
1, 7302, Note_on_c, 0, 50, 56
1, 7309, Note_on_c, 0, 67, 0
1, 7315, Note_on_c, 0, 45, 0
1, 7326, Note_on_c, 0, 67, 0
1, 7331, Note_on_c, 0, 57, 69
1, 7348, Note_on_c, 0, 50, 0
1, 7348, Note_on_c, 0, 60, 62
1, 7361, Note_on_c, 0, 57, 0
1, 7372, Note_on_c, 0, 65, 60
1, 7377, Note_on_c, 0, 50, 61
1, 7378, Note_on_c, 0, 60, 0
1, 7379, Note_on_c, 0, 65, 0
1, 7400, Note_on_c, 0, 53, 67
1, 7413, Note_on_c, 0, 57, 77
1, 7434, Note_on_c, 0, 60, 70
1, 7455, Note_on_c, 0, 65, 52
1, 7471, Note_on_c, 0, 69, 64
1, 7473, Note_on_c, 0, 50, 0
1, 7487, Note_on_c, 0, 53, 0
1, 7488, Note_on_c, 0, 72, 62
1, 7496, Note_on_c, 0, 57, 0
1, 7518, Note_on_c, 0, 77, 59
1, 7522, Note_on_c, 0, 60, 0
1, 7532, Note_on_c, 0, 81, 69
1, 7533, Note_on_c, 0, 65, 0
1, 7537, Note_on_c, 0, 69, 0
1, 7539, Note_on_c, 0, 72, 0
1, 7547, Note_on_c, 0, 77, 0
1, 7547, Note_on_c, 0, 81, 0
1, 7548, Note_on_c, 0, 84, 51
1, 7555, Note_on_c, 0, 84, 0
1, 7568, Note_on_c, 0, 89, 85
1, 7578, Note_on_c, 0, 93, 93
1, 7587, Note_on_c, 0, 89, 0
1, 7590, Note_on_c, 0, 96, 57
1, 7591, Note_on_c, 0, 93, 0
1, 7599, Note_on_c, 0, 100, 102
1, 7602, Note_on_c, 0, 96, 0
1, 7611, Note_on_c, 0, 100, 0
1, 7630, Note_on_c, 0, 43, 81
1, 7642, Control_c, 0, 64, 0
1, 7663, Control_c, 0, 64, 127
1, 7671, Note_on_c, 0, 50, 82
1, 7715, Note_on_c, 0, 56, 92
1, 7715, Note_on_c, 0, 53, 88
1, 7716, Note_on_c, 0, 62, 85
1, 7716, Note_on_c, 0, 59, 78
1, 7728, Note_on_c, 0, 43, 0
1, 7731, Note_on_c, 0, 50, 0
1, 7733, Note_on_c, 0, 56, 0
1, 7738, Note_on_c, 0, 53, 0
1, 7766, Note_on_c, 0, 56, 81
1, 7766, Note_on_c, 0, 53, 76
1, 7769, Note_on_c, 0, 64, 69
1, 7770, Note_on_c, 0, 59, 48
1, 7773, Note_on_c, 0, 62, 0
1, 7773, Note_on_c, 0, 59, 0
1, 7777, Note_on_c, 0, 56, 0
1, 7779, Note_on_c, 0, 53, 0
1, 7843, Note_on_c, 0, 67, 82
1, 7857, Note_on_c, 0, 64, 0
1, 7914, Note_on_c, 0, 53, 69
1, 7915, Note_on_c, 0, 62, 63
1, 7916, Note_on_c, 0, 56, 69
1, 7918, Note_on_c, 0, 59, 61
1, 7921, Note_on_c, 0, 59, 0
1, 7924, Note_on_c, 0, 67, 0
1, 7925, Note_on_c, 0, 53, 0
1, 7925, Note_on_c, 0, 62, 0
1, 7990, Note_on_c, 0, 64, 58
1, 7991, Note_on_c, 0, 56, 41
1, 7997, Note_on_c, 0, 56, 0
1, 7998, Note_on_c, 0, 59, 0
1, 8027, Note_on_c, 0, 64, 0
1, 8038, Note_on_c, 0, 56, 0
1, 8058, Note_on_c, 0, 67, 59
1, 8065, Note_on_c, 0, 67, 0
1, 8132, Note_on_c, 0, 55, 54
1, 8132, Note_on_c, 0, 36, 54
1, 8133, Note_on_c, 0, 64, 58
1, 8135, Note_on_c, 0, 59, 57
1, 8135, Note_on_c, 0, 60, 54
1, 8139, Control_c, 0, 64, 0
1, 8164, Note_off_c, 0, 55, 0
1, 8166, Control_c, 0, 64, 127
1, 8167, Note_off_c, 0, 36, 0
1, 8170, Note_off_c, 0, 64, 0
1, 8173, Note_off_c, 0, 59, 0
1, 8185, Note_on_c, 0, 43, 58
1, 8199, Note_on_c, 0, 60, 0
1, 8202, Note_on_c, 0, 43, 0
1, 8232, Note_on_c, 0, 69, 69
1, 8234, Note_on_c, 0, 60, 62
1, 8236, Note_on_c, 0, 64, 64
1, 8269, Note_on_c, 0, 48, 57
1, 8273, Control_c, 0, 64, 0
1, 8297, Note_on_c, 0, 52, 61
1, 8309, Control_c, 0, 64, 127
1, 8313, Note_on_c, 0, 55, 63
1, 8318, Note_on_c, 0, 69, 0
1, 8332, Note_on_c, 0, 60, 0
1, 8337, Note_on_c, 0, 64, 0
1, 8337, Note_on_c, 0, 57, 54
1, 8346, Note_on_c, 0, 60, 61
1, 8356, Note_on_c, 0, 48, 0
1, 8363, Note_on_c, 0, 64, 59
1, 8382, Note_on_c, 0, 52, 0
1, 8390, Note_on_c, 0, 69, 64
1, 8397, Note_on_c, 0, 55, 0
1, 8422, Note_on_c, 0, 72, 31
1, 8436, Note_on_c, 0, 76, 56
1, 8437, Note_on_c, 0, 57, 0
1, 8455, Note_on_c, 0, 60, 0
1, 8461, Note_on_c, 0, 81, 51
1, 8468, Note_on_c, 0, 64, 0
1, 8488, Note_on_c, 0, 84, 46
1, 8496, Note_on_c, 0, 69, 0
1, 8544, Note_on_c, 0, 100, 65
1, 8554, Note_on_c, 0, 72, 0
1, 8564, Note_on_c, 0, 105, 73
1, 8571, Note_on_c, 0, 76, 0
1, 8662, Note_on_c, 0, 81, 0
1, 8678, Note_on_c, 0, 84, 0
1, 8686, Note_on_c, 0, 100, 0
1, 8698, Note_on_c, 0, 105, 0
1, 8761, Note_on_c, 0, 76, 86
1, 8762, Note_on_c, 0, 72, 88
1, 8787, Note_on_c, 0, 76, 0
1, 8788, Note_on_c, 0, 72, 0
1, 8808, Note_on_c, 0, 33, 69
1, 8836, Note_on_c, 0, 33, 0
1, 8839, Control_c, 0, 64, 0
1, 8845, Note_on_c, 0, 26, 75
1, 8849, Note_on_c, 0, 76, 82
1, 8850, Note_on_c, 0, 72, 79
1, 8872, Control_c, 0, 64, 127
1, 8875, Note_off_c, 0, 26, 0
1, 8876, Note_off_c, 0, 76, 0
1, 8877, Note_off_c, 0, 72, 0
1, 8924, Note_on_c, 0, 74, 83
1, 8927, Note_on_c, 0, 71, 60
1, 8934, Note_on_c, 0, 74, 0
1, 8936, Note_on_c, 0, 71, 0
1, 8970, Note_on_c, 0, 50, 64
1, 8988, Note_on_c, 0, 66, 85
1, 8989, Note_on_c, 0, 71, 75
1, 9010, Note_on_c, 0, 50, 0
1, 9014, Note_on_c, 0, 54, 72
1, 9040, Note_on_c, 0, 66, 79
1, 9047, Note_on_c, 0, 57, 69
1, 9082, Note_on_c, 0, 60, 67
1, 9083, Control_c, 0, 64, 0
1, 9100, Control_c, 0, 64, 127
1, 9101, Note_on_c, 0, 64, 81
1, 9122, Note_on_c, 0, 66, 0
1, 9134, Note_on_c, 0, 71, 0
1, 9204, Note_on_c, 0, 54, 0
1, 9213, Note_on_c, 0, 60, 45
1, 9225, Note_on_c, 0, 66, 0
1, 9252, Note_on_c, 0, 66, 75
1, 9261, Note_on_c, 0, 57, 0
1, 9273, Note_on_c, 0, 67, 73
1, 9290, Note_on_c, 0, 68, 82
1, 9293, Note_on_c, 0, 60, 0
1, 9303, Note_on_c, 0, 64, 0
1, 9311, Note_on_c, 0, 60, 0
1, 9313, Note_on_c, 0, 69, 77
1, 9315, Note_on_c, 0, 66, 0
1, 9329, Note_on_c, 0, 70, 85
1, 9334, Note_on_c, 0, 67, 0
1, 9339, Note_on_c, 0, 68, 0
1, 9340, Note_on_c, 0, 69, 0
1, 9341, Note_on_c, 0, 71, 77
1, 9349, Control_c, 0, 64, 0
1, 9350, Note_off_c, 0, 70, 0
1, 9356, Note_on_c, 0, 50, 59
1, 9393, Control_c, 0, 64, 127
1, 9399, Note_on_c, 0, 54, 61
1, 9409, Note_on_c, 0, 71, 0
1, 9436, Note_on_c, 0, 57, 62
1, 9460, Note_on_c, 0, 60, 56
1, 9478, Note_on_c, 0, 62, 77
1, 9486, Note_on_c, 0, 50, 0
1, 9501, Note_on_c, 0, 54, 0
1, 9507, Note_on_c, 0, 57, 0
1, 9516, Note_on_c, 0, 60, 0
1, 9517, Note_on_c, 0, 61, 56
1, 9521, Note_on_c, 0, 62, 0
1, 9538, Note_on_c, 0, 61, 0
1, 9554, Note_on_c, 0, 60, 64
1, 9594, Note_on_c, 0, 38, 60
1, 9600, Control_c, 0, 64, 0
1, 9614, Control_c, 0, 64, 127
1, 9626, Note_on_c, 0, 45, 63
1, 9636, Note_on_c, 0, 69, 61
1, 9638, Note_on_c, 0, 60, 0
1, 9638, Note_on_c, 0, 66, 52
1, 9661, Note_on_c, 0, 38, 0
1, 9672, Note_on_c, 0, 50, 34
1, 9680, Note_on_c, 0, 45, 0
1, 9699, Note_on_c, 0, 54, 84
1, 9724, Note_on_c, 0, 69, 0
1, 9730, Note_on_c, 0, 57, 83
1, 9766, Note_on_c, 0, 66, 0
1, 9767, Note_on_c, 0, 50, 0
1, 9767, Note_on_c, 0, 60, 84
1, 9768, Note_on_c, 0, 54, 0
1, 9778, Note_on_c, 0, 57, 0
1, 9797, Note_on_c, 0, 62, 81
1, 9806, Note_on_c, 0, 60, 0
1, 9809, Note_on_c, 0, 50, 77
1, 9826, Note_on_c, 0, 62, 0
1, 9827, Note_on_c, 0, 50, 0
1, 9835, Note_on_c, 0, 67, 85
1, 9838, Note_on_c, 0, 43, 69
1, 9859, Control_c, 0, 64, 0
1, 9868, Note_on_c, 0, 50, 81
1, 9893, Note_on_c, 0, 53, 74
1, 9904, Control_c, 0, 64, 127
1, 9918, Note_off_c, 0, 67, 0
1, 9919, Note_on_c, 0, 59, 82
1, 9952, Note_on_c, 0, 62, 83
1, 9974, Note_on_c, 0, 43, 0
1, 9985, Note_on_c, 0, 50, 0
1, 9987, Note_on_c, 0, 53, 0
1, 9997, Note_on_c, 0, 59, 0
1, 10000, Note_on_c, 0, 67, 81
1, 10000, Note_on_c, 0, 62, 76
1, 10002, Note_on_c, 0, 59, 53
1, 10006, Note_on_c, 0, 62, 0
1, 10023, Note_on_c, 0, 67, 0
1, 10026, Note_on_c, 0, 62, 0
1, 10029, Note_on_c, 0, 59, 0
1, 10032, Note_on_c, 0, 45, 71
1, 10055, Note_on_c, 0, 45, 0
1, 10065, Note_on_c, 0, 38, 73
1, 10069, Note_on_c, 0, 60, 75
1, 10071, Note_on_c, 0, 69, 78
1, 10071, Note_on_c, 0, 65, 71
1, 10075, Control_c, 0, 64, 0
1, 10091, Note_off_c, 0, 38, 0
1, 10097, Control_c, 0, 64, 127
1, 10099, Note_off_c, 0, 60, 0
1, 10101, Note_on_c, 0, 45, 65
1, 10103, Note_on_c, 0, 69, 0
1, 10119, Note_on_c, 0, 65, 0
1, 10121, Note_on_c, 0, 45, 0
1, 10140, Note_on_c, 0, 74, 80
1, 10142, Note_on_c, 0, 69, 77
1, 10144, Note_on_c, 0, 65, 54
1, 10151, Note_on_c, 0, 74, 0
1, 10152, Note_on_c, 0, 69, 0
1, 10154, Note_on_c, 0, 65, 0
1, 10177, Note_on_c, 0, 50, 61
1, 10211, Note_on_c, 0, 53, 54
1, 10212, Note_on_c, 0, 65, 67
1, 10213, Note_on_c, 0, 69, 63
1, 10228, Note_on_c, 0, 50, 0
1, 10252, Note_on_c, 0, 53, 0
1, 10262, Note_on_c, 0, 57, 54
1, 10269, Note_on_c, 0, 65, 0
1, 10275, Note_on_c, 0, 69, 0
1, 10282, Note_on_c, 0, 68, 63
1, 10284, Note_on_c, 0, 57, 0
1, 10301, Note_on_c, 0, 68, 0
1, 10328, Note_on_c, 0, 50, 29
1, 10377, Note_on_c, 0, 50, 0
1, 10382, Note_on_c, 0, 43, 40
1, 10387, Note_on_c, 0, 67, 36
1, 10387, Note_on_c, 0, 64, 53
1, 10388, Note_on_c, 0, 62, 53
1, 10390, Note_on_c, 0, 59, 25
1, 10397, Control_c, 0, 64, 0
1, 10438, Control_c, 0, 64, 127
1, 10460, Note_on_c, 0, 50, 48
1, 10542, Note_on_c, 0, 43, 0
1, 10552, Note_on_c, 0, 53, 16
1, 10639, Note_on_c, 0, 67, 0
1, 10643, Note_on_c, 0, 64, 0
1, 10646, Note_on_c, 0, 62, 0
1, 10649, Note_on_c, 0, 59, 0
1, 10654, Note_on_c, 0, 50, 0
1, 10669, Note_on_c, 0, 53, 0
1, 10751, Note_on_c, 0, 59, 80
1, 10751, Note_on_c, 0, 71, 77
1, 10752, Note_on_c, 0, 64, 81
1, 10752, Note_on_c, 0, 56, 76
1, 10754, Note_on_c, 0, 68, 80
1, 10771, Note_on_c, 0, 59, 0
1, 10775, Note_on_c, 0, 71, 0
1, 10781, Note_on_c, 0, 64, 0
1, 10781, Note_on_c, 0, 56, 0
1, 10830, Note_on_c, 0, 65, 92
1, 10830, Note_on_c, 0, 60, 91
1, 10831, Note_on_c, 0, 69, 85
1, 10831, Note_on_c, 0, 72, 81
1, 10842, Note_on_c, 0, 68, 0
1, 10846, Note_on_c, 0, 65, 0
1, 10847, Note_on_c, 0, 60, 0
1, 10849, Note_on_c, 0, 69, 0
1, 10857, Note_on_c, 0, 72, 0
1, 10869, Note_on_c, 0, 56, 85
1, 10889, Note_on_c, 0, 56, 0
1, 10903, Note_on_c, 0, 61, 100
1, 10903, Note_on_c, 0, 73, 91
1, 10928, Note_on_c, 0, 61, 0
1, 10934, Note_on_c, 0, 73, 0
1, 10943, Note_on_c, 0, 48, 76
1, 10969, Note_on_c, 0, 48, 0
1, 10988, Note_on_c, 0, 41, 64
1, 10990, Note_on_c, 0, 74, 76
1, 10991, Note_on_c, 0, 69, 75
1, 10991, Note_on_c, 0, 65, 73
1, 10999, Control_c, 0, 64, 0
1, 11042, Control_c, 0, 64, 127
1, 11048, Note_on_c, 0, 50, 40
1, 11052, Note_on_c, 0, 41, 0
1, 11057, Note_on_c, 0, 74, 0
1, 11058, Note_on_c, 0, 69, 0
1, 11064, Note_on_c, 0, 65, 0
1, 11086, Note_on_c, 0, 65, 78
1, 11086, Note_on_c, 0, 69, 75
1, 11089, Note_on_c, 0, 50, 0
1, 11089, Note_on_c, 0, 72, 69
1, 11095, Note_on_c, 0, 65, 0
1, 11096, Note_on_c, 0, 69, 0
1, 11098, Note_on_c, 0, 72, 0
1, 11125, Note_on_c, 0, 53, 61
1, 11160, Note_on_c, 0, 57, 61
1, 11165, Note_on_c, 0, 69, 67
1, 11166, Note_on_c, 0, 65, 69
1, 11172, Note_on_c, 0, 53, 0
1, 11173, Note_on_c, 0, 57, 0
1, 11202, Note_on_c, 0, 60, 51
1, 11251, Note_on_c, 0, 62, 41
1, 11258, Note_on_c, 0, 69, 0
1, 11263, Note_on_c, 0, 65, 0
1, 11263, Note_on_c, 0, 65, 69
1, 11266, Note_on_c, 0, 62, 43
1, 11268, Note_on_c, 0, 60, 0
1, 11271, Note_on_c, 0, 62, 0
1, 11275, Note_on_c, 0, 65, 0
1, 11275, Note_on_c, 0, 62, 0
1, 11334, Note_on_c, 0, 41, 63
1, 11390, Note_on_c, 0, 53, 58
1, 11393, Note_on_c, 0, 62, 56
1, 11394, Note_on_c, 0, 57, 64
1, 11395, Note_on_c, 0, 60, 65
1, 11396, Note_on_c, 0, 50, 47
1, 11399, Control_c, 0, 64, 0
1, 11429, Control_c, 0, 64, 127
1, 11430, Note_off_c, 0, 41, 0
1, 11432, Note_off_c, 0, 53, 0
1, 11438, Note_off_c, 0, 62, 0
1, 11440, Note_off_c, 0, 57, 0
1, 11512, Note_on_c, 0, 65, 66
1, 11515, Note_on_c, 0, 57, 53
1, 11517, Note_on_c, 0, 62, 58
1, 11518, Note_on_c, 0, 60, 57
1, 11522, Note_on_c, 0, 60, 0
1, 11522, Note_on_c, 0, 50, 0
1, 11524, Note_on_c, 0, 65, 0
1, 11525, Note_on_c, 0, 57, 0
1, 11540, Note_on_c, 0, 62, 0
1, 11565, Note_on_c, 0, 41, 66
1, 11570, Note_on_c, 0, 60, 0
1, 11632, Note_on_c, 0, 52, 67
1, 11633, Note_on_c, 0, 60, 76
1, 11635, Note_on_c, 0, 65, 70
1, 11636, Note_on_c, 0, 64, 77
1, 11636, Note_on_c, 0, 69, 71
1, 11641, Control_c, 0, 64, 0
1, 11656, Control_c, 0, 64, 127
1, 11661, Note_off_c, 0, 41, 0
1, 11666, Note_off_c, 0, 52, 0
1, 11668, Note_off_c, 0, 60, 0
1, 11670, Note_off_c, 0, 65, 0
1, 11673, Note_off_c, 0, 64, 0
1, 11680, Note_off_c, 0, 69, 0
1, 11701, Note_on_c, 0, 57, 85
1, 11733, Note_on_c, 0, 57, 0
1, 11743, Note_on_c, 0, 72, 80
1, 11743, Note_on_c, 0, 69, 86
1, 11743, Note_on_c, 0, 64, 79
1, 11752, Note_on_c, 0, 72, 0
1, 11761, Note_on_c, 0, 69, 0
1, 11762, Note_on_c, 0, 64, 0
1, 11790, Note_on_c, 0, 50, 63
1, 11834, Note_on_c, 0, 50, 0
1, 11838, Note_on_c, 0, 41, 64
1, 11849, Note_on_c, 0, 68, 77
1, 11849, Note_on_c, 0, 76, 79
1, 11850, Note_on_c, 0, 65, 81
1, 11851, Note_on_c, 0, 71, 73
1, 11855, Control_c, 0, 64, 0
1, 11881, Control_c, 0, 64, 127
1, 11900, Note_off_c, 0, 41, 0
1, 11911, Note_on_c, 0, 50, 56
1, 11918, Note_on_c, 0, 68, 0
1, 11971, Note_on_c, 0, 53, 55
1, 11995, Note_on_c, 0, 56, 69
1, 12004, Note_on_c, 0, 76, 0
1, 12009, Note_on_c, 0, 65, 0
1, 12009, Note_on_c, 0, 59, 45
1, 12021, Note_on_c, 0, 71, 0
1, 12021, Note_on_c, 0, 50, 0
1, 12022, Note_on_c, 0, 53, 0
1, 12023, Note_on_c, 0, 62, 63
1, 12025, Note_on_c, 0, 56, 0
1, 12027, Note_on_c, 0, 59, 0
1, 12037, Note_on_c, 0, 62, 0
1, 12042, Note_on_c, 0, 65, 38
1, 12048, Note_on_c, 0, 68, 62
1, 12056, Note_on_c, 0, 65, 0
1, 12062, Note_on_c, 0, 68, 0
1, 12067, Note_on_c, 0, 71, 42
1, 12076, Note_on_c, 0, 71, 0
1, 12088, Note_on_c, 0, 65, 37
1, 12097, Note_on_c, 0, 68, 60
1, 12111, Note_on_c, 0, 65, 0
1, 12113, Note_on_c, 0, 71, 48
1, 12122, Note_on_c, 0, 68, 0
1, 12127, Note_on_c, 0, 71, 0
1, 12128, Note_on_c, 0, 77, 24
1, 12134, Note_on_c, 0, 80, 57
1, 12139, Note_on_c, 0, 77, 0
1, 12142, Note_on_c, 0, 80, 0
1, 12179, Note_on_c, 0, 89, 58
1, 12187, Note_on_c, 0, 92, 70
1, 12198, Note_on_c, 0, 89, 0
1, 12201, Note_on_c, 0, 92, 0
1, 12203, Note_on_c, 0, 95, 54
1, 12211, Note_on_c, 0, 95, 0
1, 12212, Note_on_c, 0, 100, 74
1, 12219, Note_on_c, 0, 100, 0
1, 12377, Note_on_c, 0, 44, 57
1, 12385, Note_on_c, 0, 62, 49
1, 12390, Note_on_c, 0, 68, 63
1, 12398, Control_c, 0, 64, 0
1, 12407, Note_on_c, 0, 53, 44
1, 12409, Control_c, 0, 64, 127
1, 12414, Note_on_c, 0, 74, 46
1, 12446, Note_on_c, 0, 44, 0
1, 12447, Note_on_c, 0, 62, 0
1, 12455, Note_on_c, 0, 72, 54
1, 12460, Note_on_c, 0, 68, 0
1, 12491, Note_on_c, 0, 53, 0
1, 12492, Note_on_c, 0, 68, 57
1, 12531, Note_on_c, 0, 74, 0
1, 12533, Note_on_c, 0, 72, 0
1, 12534, Note_on_c, 0, 62, 62
1, 12543, Note_on_c, 0, 68, 0
1, 12577, Note_on_c, 0, 64, 56
1, 12625, Note_on_c, 0, 62, 0
1, 12630, Note_on_c, 0, 60, 62
1, 12631, Note_on_c, 0, 62, 52
1, 12670, Note_on_c, 0, 64, 0
1, 12676, Note_on_c, 0, 56, 84
1, 12684, Note_on_c, 0, 60, 0
1, 12700, Note_on_c, 0, 62, 0
1, 12726, Note_on_c, 0, 60, 82
1, 12738, Note_on_c, 0, 56, 0
1, 12744, Note_on_c, 0, 53, 26
1, 12757, Note_on_c, 0, 60, 0
1, 12761, Note_on_c, 0, 53, 0
1, 12782, Note_on_c, 0, 72, 42
1, 12783, Note_on_c, 0, 43, 66
1, 12819, Control_c, 0, 64, 0
1, 12833, Note_on_c, 0, 48, 58
1, 12848, Control_c, 0, 64, 127
1, 12854, Note_off_c, 0, 72, 0
1, 12881, Note_off_c, 0, 43, 0
1, 12885, Note_on_c, 0, 52, 58
1, 12892, Note_on_c, 0, 48, 0
1, 12929, Note_on_c, 0, 55, 65
1, 12937, Note_on_c, 0, 67, 59
1, 12938, Note_on_c, 0, 52, 0
1, 12939, Note_on_c, 0, 64, 46
1, 12993, Note_on_c, 0, 60, 54
1, 12999, Note_on_c, 0, 72, 56
1, 13002, Note_on_c, 0, 55, 0
1, 13005, Note_on_c, 0, 67, 0
1, 13016, Note_on_c, 0, 64, 0
1, 13066, Note_on_c, 0, 64, 50
1, 13145, Note_on_c, 0, 83, 34
1, 13152, Note_on_c, 0, 60, 0
1, 13231, Note_on_c, 0, 72, 0
1, 13266, Note_on_c, 0, 64, 0
1, 13274, Note_on_c, 0, 83, 0
1, 13297, Note_on_c, 0, 40, 67
1, 13317, Control_c, 0, 64, 0
1, 13330, Note_on_c, 0, 47, 69
1, 13340, Control_c, 0, 64, 127
1, 13346, Note_off_c, 0, 40, 0
1, 13353, Note_off_c, 0, 47, 0
1, 13361, Note_on_c, 0, 64, 64
1, 13371, Note_on_c, 0, 67, 77
1, 13374, Note_on_c, 0, 64, 0
1, 13382, Note_on_c, 0, 70, 84
1, 13387, Note_on_c, 0, 67, 0
1, 13392, Note_on_c, 0, 70, 0
1, 13394, Note_on_c, 0, 71, 69
1, 13405, Note_on_c, 0, 71, 0
1, 13410, Note_on_c, 0, 76, 80
1, 13427, Note_on_c, 0, 52, 58
1, 13458, Note_on_c, 0, 55, 62
1, 13493, Note_on_c, 0, 59, 51
1, 13501, Note_on_c, 0, 76, 0
1, 13504, Note_on_c, 0, 52, 0
1, 13504, Note_on_c, 0, 55, 0
1, 13529, Note_on_c, 0, 71, 45
1, 13564, Note_on_c, 0, 67, 25
1, 13581, Note_on_c, 0, 58, 54
1, 13587, Note_on_c, 0, 64, 58
1, 13613, Note_on_c, 0, 59, 0
1, 13613, Control_c, 0, 64, 0
1, 13614, Note_on_c, 0, 49, 63
1, 13647, Note_on_c, 0, 52, 59
1, 13678, Note_on_c, 0, 55, 37
1, 13702, Note_on_c, 0, 58, 66
1, 13707, Control_c, 0, 64, 127
1, 13714, Note_off_c, 0, 71, 0
1, 13734, Note_off_c, 0, 67, 0
1, 13736, Note_off_c, 0, 58, 0
1, 13744, Note_on_c, 0, 64, 68
1, 13777, Note_on_c, 0, 67, 71
1, 13782, Note_on_c, 0, 64, 0
1, 13784, Note_on_c, 0, 49, 0
1, 13786, Note_on_c, 0, 52, 0
1, 13797, Note_on_c, 0, 55, 0
1, 13805, Note_on_c, 0, 70, 75
1, 13813, Note_on_c, 0, 58, 0
1, 13819, Note_on_c, 0, 64, 0
1, 13819, Note_on_c, 0, 67, 0
1, 13822, Note_on_c, 0, 50, 78
1, 13829, Note_on_c, 0, 70, 0
1, 13847, Note_on_c, 0, 53, 62
1, 13860, Note_on_c, 0, 57, 85
1, 13881, Note_on_c, 0, 60, 78
1, 13883, Control_c, 0, 64, 0
1, 13907, Note_on_c, 0, 65, 84
1, 13908, Note_on_c, 0, 69, 88
1, 13917, Control_c, 0, 64, 127
1, 13923, Note_off_c, 0, 50, 0
1, 13934, Note_off_c, 0, 53, 0
1, 13950, Note_on_c, 0, 65, 83
1, 13951, Note_on_c, 0, 72, 77
1, 13972, Note_on_c, 0, 57, 0
1, 13987, Note_on_c, 0, 60, 0
1, 13994, Note_on_c, 0, 69, 79
1, 13995, Note_on_c, 0, 65, 67
1, 14001, Note_on_c, 0, 65, 0
1, 14002, Note_on_c, 0, 69, 0
1, 14024, Note_on_c, 0, 65, 0
1, 14032, Note_on_c, 0, 65, 74
1, 14034, Note_on_c, 0, 62, 68
1, 14069, Note_on_c, 0, 72, 0
1, 14070, Note_on_c, 0, 69, 0
1, 14079, Note_on_c, 0, 64, 63
1, 14080, Note_on_c, 0, 67, 59
1, 14086, Note_on_c, 0, 65, 0
1, 14088, Note_on_c, 0, 65, 0
1, 14089, Note_on_c, 0, 62, 0
1, 14097, Note_on_c, 0, 64, 0
1, 14107, Note_on_c, 0, 67, 0
1, 14127, Note_on_c, 0, 64, 67
1, 14128, Note_on_c, 0, 60, 54
1, 14168, Note_on_c, 0, 64, 0
1, 14169, Note_on_c, 0, 65, 70
1, 14170, Note_on_c, 0, 60, 0
1, 14176, Note_on_c, 0, 65, 0
1, 14222, Note_on_c, 0, 31, 61
1, 14226, Note_on_c, 0, 57, 64
1, 14230, Note_on_c, 0, 53, 26
1, 14230, Note_on_c, 0, 59, 55
1, 14231, Note_on_c, 0, 62, 35
1, 14241, Control_c, 0, 64, 0
1, 14284, Control_c, 0, 64, 127
1, 14288, Note_on_c, 0, 43, 42
1, 14291, Note_on_c, 0, 31, 0
1, 14345, Note_on_c, 0, 57, 0
1, 14348, Note_on_c, 0, 53, 25
1, 14355, Note_on_c, 0, 53, 0
1, 14360, Note_on_c, 0, 59, 0
1, 14407, Note_on_c, 0, 62, 0
1, 14412, Note_on_c, 0, 43, 39
1, 14463, Note_on_c, 0, 43, 0
1, 14468, Note_on_c, 0, 57, 49
1, 14470, Note_on_c, 0, 53, 18
1, 14478, Note_on_c, 0, 53, 0
1, 14482, Note_on_c, 0, 43, 0
1, 14487, Note_on_c, 0, 59, 1
1, 14498, Note_on_c, 0, 57, 0
1, 14501, Note_on_c, 0, 53, 0
1, 14571, Note_on_c, 0, 43, 45
1, 14588, Note_on_c, 0, 59, 0
1, 14597, Note_on_c, 0, 67, 65
1, 14598, Note_on_c, 0, 64, 61
1, 14609, Note_on_c, 0, 43, 0
1, 14614, Note_on_c, 0, 63, 80
1, 14617, Note_on_c, 0, 67, 0
1, 14619, Note_on_c, 0, 64, 0
1, 14634, Note_on_c, 0, 63, 0
1, 14636, Note_on_c, 0, 62, 59
1, 14655, Note_on_c, 0, 62, 0
1, 14663, Note_on_c, 0, 67, 71
1, 14664, Note_on_c, 0, 38, 62
1, 14673, Control_c, 0, 64, 0
1, 14704, Note_on_c, 0, 45, 67
1, 14718, Control_c, 0, 64, 127
1, 14729, Note_off_c, 0, 67, 0
1, 14734, Note_off_c, 0, 38, 0
1, 14737, Note_on_c, 0, 50, 58
1, 14746, Note_on_c, 0, 45, 0
1, 14758, Note_on_c, 0, 57, 35
1, 14765, Note_on_c, 0, 50, 0
1, 14769, Note_on_c, 0, 60, 64
1, 14770, Note_on_c, 0, 57, 0
1, 14797, Note_on_c, 0, 60, 0
1, 14802, Note_on_c, 0, 50, 66
1, 14831, Note_on_c, 0, 53, 63
1, 14833, Note_on_c, 0, 57, 48
1, 14842, Note_on_c, 0, 50, 0
1, 14844, Note_on_c, 0, 60, 61
1, 14863, Note_on_c, 0, 57, 78
1, 14865, Note_on_c, 0, 53, 0
1, 14870, Note_on_c, 0, 65, 70
1, 14877, Note_on_c, 0, 57, 0
1, 14891, Note_on_c, 0, 60, 66
1, 14902, Note_on_c, 0, 69, 67
1, 14922, Note_on_c, 0, 72, 61
1, 14925, Note_on_c, 0, 60, 0
1, 14941, Note_on_c, 0, 57, 0
1, 14944, Note_on_c, 0, 77, 54
1, 14951, Note_on_c, 0, 65, 0
1, 14973, Note_on_c, 0, 81, 64
1, 14974, Note_on_c, 0, 60, 0
1, 14984, Note_on_c, 0, 69, 0
1, 14986, Note_on_c, 0, 84, 46
1, 14990, Note_on_c, 0, 72, 0
1, 14993, Note_on_c, 0, 77, 0
1, 14993, Note_on_c, 0, 89, 67
1, 14998, Note_on_c, 0, 81, 0
1, 15000, Note_on_c, 0, 84, 0
1, 15004, Note_on_c, 0, 89, 0
1, 15015, Note_on_c, 0, 93, 91
1, 15021, Note_on_c, 0, 96, 76
1, 15029, Note_on_c, 0, 93, 0
1, 15029, Note_on_c, 0, 96, 0
1, 15039, Note_on_c, 0, 103, 91
1, 15048, Note_on_c, 0, 103, 0
1, 15084, Note_on_c, 0, 43, 77
1, 15119, Note_on_c, 0, 50, 82
1, 15132, Control_c, 0, 64, 0
1, 15154, Note_on_c, 0, 53, 79
1, 15175, Control_c, 0, 64, 127
1, 15176, Note_off_c, 0, 43, 0
1, 15180, Note_on_c, 0, 57, 84
1, 15181, Note_on_c, 0, 59, 76
1, 15181, Note_on_c, 0, 64, 83
1, 15184, Note_on_c, 0, 53, 62
1, 15193, Note_on_c, 0, 50, 0
1, 15197, Note_on_c, 0, 53, 0
1, 15199, Note_on_c, 0, 57, 0
1, 15205, Note_on_c, 0, 59, 0
1, 15226, Note_on_c, 0, 63, 91
1, 15228, Note_on_c, 0, 53, 70
1, 15243, Note_on_c, 0, 64, 0
1, 15254, Note_on_c, 0, 53, 0
1, 15279, Note_on_c, 0, 56, 74
1, 15280, Note_on_c, 0, 59, 77
1, 15281, Note_on_c, 0, 62, 81
1, 15281, Note_on_c, 0, 53, 72
1, 15299, Note_on_c, 0, 63, 0
1, 15300, Note_on_c, 0, 53, 0
1, 15304, Note_on_c, 0, 56, 0
1, 15312, Note_on_c, 0, 59, 0
1, 15335, Note_on_c, 0, 56, 97
1, 15337, Note_on_c, 0, 53, 81
1, 15337, Note_on_c, 0, 60, 88
1, 15357, Note_on_c, 0, 62, 0
1, 15362, Note_on_c, 0, 53, 0
1, 15372, Note_on_c, 0, 56, 0
1, 15388, Note_on_c, 0, 56, 92
1, 15389, Note_on_c, 0, 53, 0
1, 15389, Note_on_c, 0, 53, 88
1, 15391, Note_on_c, 0, 62, 83
1, 15391, Note_on_c, 0, 59, 78
1, 15403, Note_on_c, 0, 60, 0
1, 15411, Note_on_c, 0, 56, 0
1, 15415, Note_on_c, 0, 53, 0
1, 15416, Note_on_c, 0, 62, 0
1, 15423, Note_on_c, 0, 59, 0
1, 15440, Note_on_c, 0, 53, 83
1, 15440, Note_on_c, 0, 60, 90
1, 15443, Note_on_c, 0, 56, 68
1, 15450, Note_on_c, 0, 53, 0
1, 15453, Note_on_c, 0, 60, 0
1, 15464, Note_on_c, 0, 56, 0
1, 15466, Note_on_c, 0, 43, 62
1, 15475, Note_on_c, 0, 43, 0
1, 15492, Note_on_c, 0, 36, 81
1, 15495, Note_on_c, 0, 55, 93
1, 15495, Note_on_c, 0, 64, 93
1, 15496, Note_on_c, 0, 60, 83
1, 15497, Note_on_c, 0, 59, 81
1, 15500, Control_c, 0, 64, 0
1, 15522, Note_off_c, 0, 36, 0
1, 15524, Note_off_c, 0, 55, 0
1, 15526, Control_c, 0, 64, 127
1, 15527, Note_off_c, 0, 64, 0
1, 15531, Note_off_c, 0, 60, 0
1, 15539, Note_on_c, 0, 43, 71
1, 15579, Note_on_c, 0, 59, 77
1, 15579, Note_on_c, 0, 64, 87
1, 15580, Note_on_c, 0, 67, 79
1, 15581, Note_on_c, 0, 62, 82
1, 15586, Note_on_c, 0, 59, 0
1, 15589, Note_on_c, 0, 43, 0
1, 15593, Note_on_c, 0, 59, 0
1, 15597, Note_on_c, 0, 64, 0
1, 15618, Note_on_c, 0, 67, 0
1, 15620, Note_on_c, 0, 48, 72
1, 15622, Note_on_c, 0, 62, 0
1, 15632, Note_on_c, 0, 48, 0
1, 15654, Note_on_c, 0, 64, 77
1, 15654, Note_on_c, 0, 72, 75
1, 15655, Note_on_c, 0, 67, 78
1, 15655, Note_on_c, 0, 69, 86
1, 15661, Note_on_c, 0, 64, 0
1, 15663, Note_on_c, 0, 72, 0
1, 15669, Note_on_c, 0, 67, 0
1, 15672, Note_on_c, 0, 69, 0
1, 15685, Note_on_c, 0, 48, 67
1, 15726, Note_on_c, 0, 52, 64
1, 15735, Note_on_c, 0, 72, 88
1, 15737, Note_on_c, 0, 76, 75
1, 15744, Note_on_c, 0, 48, 0
1, 15749, Note_on_c, 0, 52, 0
1, 15785, Note_on_c, 0, 55, 75
1, 15792, Note_on_c, 0, 72, 0
1, 15796, Note_on_c, 0, 76, 0
1, 15802, Note_on_c, 0, 55, 0
1, 15838, Note_on_c, 0, 66, 79
1, 15838, Note_on_c, 0, 71, 77
1, 15839, Note_on_c, 0, 64, 82
1, 15841, Note_on_c, 0, 60, 80
1, 15859, Control_c, 0, 64, 0
1, 15890, Note_on_c, 0, 26, 83
1, 15903, Control_c, 0, 64, 127
1, 15907, Note_off_c, 0, 66, 0
1, 15908, Note_off_c, 0, 71, 0
1, 15911, Note_off_c, 0, 64, 0
1, 15924, Note_off_c, 0, 60, 0
1, 15931, Note_off_c, 0, 26, 0
1, 15943, Note_on_c, 0, 60, 34
1, 15952, Note_on_c, 0, 64, 64
1, 15958, Note_on_c, 0, 60, 0
1, 15983, Note_on_c, 0, 64, 0
1, 15987, Note_on_c, 0, 65, 24
1, 15994, Note_on_c, 0, 65, 0
1, 16005, Note_on_c, 0, 72, 56
1, 16026, Note_on_c, 0, 74, 37
1, 16046, Note_on_c, 0, 78, 54
1, 16058, Note_on_c, 0, 72, 0
1, 16061, Note_on_c, 0, 74, 0
1, 16072, Note_on_c, 0, 84, 21
1, 16076, Note_on_c, 0, 78, 0
1, 16079, Note_on_c, 0, 88, 56
1, 16088, Note_on_c, 0, 84, 0
1, 16097, Note_on_c, 0, 88, 0
1, 16098, Note_on_c, 0, 90, 59
1, 16105, Note_on_c, 0, 90, 0
1, 16128, Note_on_c, 0, 96, 63
1, 16130, Note_on_c, 0, 95, 42
1, 16135, Note_on_c, 0, 98, 48
1, 16136, Note_on_c, 0, 96, 0
1, 16136, Note_on_c, 0, 95, 0
1, 16137, Note_on_c, 0, 100, 58
1, 16147, Note_on_c, 0, 98, 0
1, 16148, Note_on_c, 0, 100, 0
1, 16155, Note_on_c, 0, 107, 74
1, 16158, Note_on_c, 0, 105, 69
1, 16163, Note_on_c, 0, 107, 0
1, 16164, Note_on_c, 0, 105, 0
1, 16396, Note_on_c, 0, 71, 58
1, 16418, Note_on_c, 0, 71, 0
1, 16436, Note_on_c, 0, 72, 40
1, 16450, Note_on_c, 0, 72, 0
1, 16480, Note_on_c, 0, 73, 60
1, 16510, Note_on_c, 0, 73, 0
1, 16527, Note_on_c, 0, 74, 66
1, 16541, Note_on_c, 0, 53, 57
1, 16564, Control_c, 0, 64, 0
1, 16571, Note_on_c, 0, 57, 57
1, 16597, Note_on_c, 0, 60, 59
1, 16615, Note_on_c, 0, 72, 51
1, 16658, Note_on_c, 0, 64, 51
1, 16665, Note_on_c, 0, 69, 62
1, 16672, Note_on_c, 0, 74, 0
1, 16674, Control_c, 0, 64, 127
1, 16704, Note_off_c, 0, 53, 0
1, 16710, Note_on_c, 0, 65, 62
1, 16764, Note_on_c, 0, 57, 0
1, 16765, Note_on_c, 0, 69, 76
1, 16789, Note_on_c, 0, 60, 0
1, 16815, Note_on_c, 0, 65, 61
1, 16831, Note_on_c, 0, 64, 66
1, 16844, Note_on_c, 0, 72, 0
1, 16845, Note_on_c, 0, 64, 0
1, 16848, Note_on_c, 0, 69, 0
1, 16851, Note_on_c, 0, 65, 0
1, 16878, Note_on_c, 0, 57, 82
1, 16879, Note_on_c, 0, 64, 82
1, 16880, Note_on_c, 0, 60, 76
1, 16884, Note_on_c, 0, 53, 61
1, 16891, Note_on_c, 0, 69, 0
1, 16893, Note_on_c, 0, 65, 0
1, 16894, Note_on_c, 0, 64, 0
1, 16895, Note_on_c, 0, 57, 0
1, 16897, Control_c, 0, 64, 0
1, 16960, Note_on_c, 0, 59, 76
1, 16960, Note_on_c, 0, 55, 76
1, 16961, Note_on_c, 0, 62, 77
1, 16964, Note_on_c, 0, 52, 62
1, 16970, Note_on_c, 0, 64, 0
1, 16971, Note_on_c, 0, 60, 0
1, 16973, Note_on_c, 0, 53, 0
1, 16974, Note_on_c, 0, 59, 0
1, 17060, Note_on_c, 0, 57, 70
1, 17061, Note_on_c, 0, 60, 70
1, 17062, Note_on_c, 0, 53, 62
1, 17064, Note_on_c, 0, 50, 67
1, 17114, Control_c, 0, 64, 127
1, 17162, Note_off_c, 0, 55, 0
1, 17176, Note_off_c, 0, 62, 0
1, 17178, Note_off_c, 0, 52, 0
1, 17312, Note_on_c, 0, 67, 98
1, 17354, Note_on_c, 0, 57, 0
1, 17367, Note_on_c, 0, 60, 0
1, 17380, Note_on_c, 0, 69, 102
1, 17381, Note_on_c, 0, 53, 0
1, 17389, Note_on_c, 0, 50, 0
1, 17393, Note_on_c, 0, 67, 0
1, 17423, Note_on_c, 0, 69, 0
1, 17429, Note_on_c, 0, 65, 92
1, 17442, Note_on_c, 0, 65, 0
1, 17467, Note_on_c, 0, 43, 59
1, 17502, Note_on_c, 0, 53, 49
1, 17503, Note_on_c, 0, 59, 63
1, 17505, Note_on_c, 0, 67, 67
1, 17508, Control_c, 0, 64, 0
1, 17563, Control_c, 0, 64, 127
1, 17569, Note_on_c, 0, 64, 69
1, 17573, Note_on_c, 0, 43, 0
1, 17640, Note_on_c, 0, 53, 0
1, 17646, Note_on_c, 0, 65, 51
1, 17653, Note_on_c, 0, 59, 0
1, 17655, Note_on_c, 0, 67, 0
1, 17697, Note_on_c, 0, 64, 0
1, 17713, Note_on_c, 0, 65, 0
1, 17765, Note_on_c, 0, 62, 53
1, 17767, Note_on_c, 0, 53, 43
1, 17768, Note_on_c, 0, 56, 62
1, 17772, Note_on_c, 0, 59, 40
1, 17774, Note_on_c, 0, 62, 0
1, 17775, Note_on_c, 0, 53, 0
1, 17780, Note_on_c, 0, 56, 0
1, 17780, Note_on_c, 0, 59, 0
1, 18011, Control_c, 0, 64, 0
1, 18017, Note_on_c, 0, 36, 60
1, 18017, Note_on_c, 0, 52, 75
1, 18018, Note_on_c, 0, 60, 76
1, 18018, Note_on_c, 0, 55, 74
1, 18019, Note_on_c, 0, 57, 74
1, 18021, Note_on_c, 0, 48, 53
1, 18021, Note_on_c, 0, 43, 55
1, 18058, Control_c, 0, 64, 127
1, 18092, Note_off_c, 0, 36, 0
1, 18123, Note_off_c, 0, 52, 0
1, 18137, Note_off_c, 0, 60, 0
1, 18140, Note_off_c, 0, 55, 0
1, 18224, Note_on_c, 0, 62, 94
1, 18246, Note_on_c, 0, 57, 0
1, 18274, Note_on_c, 0, 64, 93
1, 18292, Note_on_c, 0, 48, 0
1, 18299, Note_on_c, 0, 43, 0
1, 18308, Note_on_c, 0, 62, 0
1, 18317, Note_on_c, 0, 64, 0
1, 18321, Note_on_c, 0, 67, 88
1, 18338, Note_on_c, 0, 67, 0
1, 18358, Note_on_c, 0, 41, 63
1, 18390, Note_on_c, 0, 60, 80
1, 18391, Note_on_c, 0, 65, 80
1, 18391, Note_on_c, 0, 64, 78
1, 18392, Note_on_c, 0, 69, 83
1, 18394, Note_on_c, 0, 50, 30
1, 18398, Note_on_c, 0, 52, 24
1, 18399, Control_c, 0, 64, 0
1, 18421, Note_off_c, 0, 41, 0
1, 18422, Note_off_c, 0, 60, 0
1, 18424, Note_off_c, 0, 65, 0
1, 18424, Note_off_c, 0, 64, 0
1, 18429, Control_c, 0, 64, 127
1, 18449, Note_off_c, 0, 69, 0
1, 18467, Note_on_c, 0, 62, 81
1, 18468, Note_on_c, 0, 67, 82
1, 18468, Note_on_c, 0, 65, 84
1, 18469, Note_on_c, 0, 71, 71
1, 18477, Note_on_c, 0, 50, 0
1, 18481, Note_on_c, 0, 52, 0
1, 18483, Note_on_c, 0, 62, 0
1, 18488, Note_on_c, 0, 67, 0
1, 18506, Note_on_c, 0, 68, 50
1, 18518, Note_on_c, 0, 65, 0
1, 18542, Note_on_c, 0, 64, 82
1, 18542, Note_on_c, 0, 69, 87
1, 18543, Note_on_c, 0, 72, 78
1, 18544, Note_on_c, 0, 67, 82
1, 18549, Note_on_c, 0, 71, 0
1, 18553, Note_on_c, 0, 68, 0
1, 18555, Note_on_c, 0, 64, 0
1, 18556, Note_on_c, 0, 69, 0
1, 18585, Note_on_c, 0, 70, 28
1, 18594, Note_on_c, 0, 72, 0
1, 18610, Note_on_c, 0, 67, 0
1, 18636, Note_on_c, 0, 70, 0
1, 18654, Note_on_c, 0, 69, 82
1, 18654, Note_on_c, 0, 65, 77
1, 18655, Note_on_c, 0, 74, 70
1, 18656, Note_on_c, 0, 71, 70
1, 18661, Note_on_c, 0, 69, 0
1, 18669, Note_on_c, 0, 65, 0
1, 18669, Note_on_c, 0, 74, 0
1, 18670, Note_on_c, 0, 71, 0
1, 18755, Control_c, 0, 64, 0
1, 18796, Note_on_c, 0, 36, 77
1, 18797, Note_on_c, 0, 24, 76
1, 18798, Note_on_c, 0, 64, 91
1, 18799, Note_on_c, 0, 67, 74
1, 18799, Note_on_c, 0, 76, 82
1, 18800, Note_on_c, 0, 71, 78
1, 18821, Control_c, 0, 64, 127
1, 18837, Note_off_c, 0, 36, 0
1, 18850, Note_off_c, 0, 24, 0
1, 18851, Note_off_c, 0, 64, 0
1, 18853, Note_off_c, 0, 67, 0
1, 19029, Note_on_c, 0, 100, 73
1, 19030, Note_on_c, 0, 103, 70
1, 19061, Note_on_c, 0, 76, 0
1, 19062, Note_on_c, 0, 71, 0
1, 19070, Note_on_c, 0, 95, 52
1, 19077, Note_on_c, 0, 100, 0
1, 19097, Note_on_c, 0, 100, 74
1, 19098, Note_on_c, 0, 95, 71
1, 19106, Note_on_c, 0, 103, 0
1, 19112, Note_on_c, 0, 95, 0
1, 19118, Note_on_c, 0, 91, 77
1, 19125, Note_on_c, 0, 100, 0
1, 19136, Note_on_c, 0, 91, 91
1, 19138, Note_on_c, 0, 95, 71
1, 19153, Note_on_c, 0, 95, 0
1, 19156, Note_on_c, 0, 91, 0
1, 19183, Note_on_c, 0, 88, 67
1, 19185, Note_on_c, 0, 91, 63
1, 19201, Note_on_c, 0, 91, 0
1, 19201, Note_on_c, 0, 95, 0
1, 19207, Note_on_c, 0, 83, 54
1, 19215, Note_on_c, 0, 88, 0
1, 19227, Note_on_c, 0, 83, 73
1, 19231, Note_on_c, 0, 88, 54
1, 19250, Note_on_c, 0, 91, 0
1, 19250, Note_on_c, 0, 83, 0
1, 19256, Note_on_c, 0, 79, 60
1, 19263, Note_on_c, 0, 83, 0
1, 19281, Note_on_c, 0, 79, 49
1, 19283, Note_on_c, 0, 83, 61
1, 19306, Note_on_c, 0, 88, 0
1, 19308, Note_on_c, 0, 79, 0
1, 19314, Note_on_c, 0, 76, 45
1, 19321, Note_on_c, 0, 79, 0
1, 19338, Note_on_c, 0, 76, 51
1, 19343, Note_on_c, 0, 79, 41
1, 19361, Note_on_c, 0, 83, 0
1, 19365, Note_on_c, 0, 76, 0
1, 19371, Note_on_c, 0, 71, 60
1, 19379, Note_on_c, 0, 76, 0
1, 19404, Note_on_c, 0, 71, 54
1, 19407, Note_on_c, 0, 76, 39
1, 19429, Note_on_c, 0, 79, 0
1, 19431, Note_on_c, 0, 71, 0
1, 19437, Note_on_c, 0, 67, 62
1, 19444, Note_on_c, 0, 71, 0
1, 19474, Note_on_c, 0, 67, 44
1, 19475, Note_on_c, 0, 71, 32
1, 19498, Note_on_c, 0, 76, 0
1, 19502, Note_on_c, 0, 67, 0
1, 19558, Note_on_c, 0, 64, 54
1, 19582, Note_on_c, 0, 67, 0
1, 19657, Note_on_c, 0, 59, 37
1, 19660, Note_on_c, 0, 71, 0
1, 19671, Note_on_c, 0, 64, 0
1, 19716, Note_on_c, 0, 59, 0
1, 19725, Note_on_c, 0, 55, 36
1, 19732, Note_on_c, 0, 55, 0
1, 19806, Note_on_c, 0, 44, 52
1, 19807, Note_on_c, 0, 63, 63
1, 19808, Note_on_c, 0, 56, 68
1, 19809, Note_on_c, 0, 49, 49
1, 19810, Note_on_c, 0, 53, 40
1, 19810, Note_on_c, 0, 37, 48
1, 19813, Note_on_c, 0, 59, 62
1, 19838, Note_on_c, 0, 44, 0
1, 19841, Note_on_c, 0, 63, 0
1, 19847, Note_on_c, 0, 56, 0
1, 19847, Note_on_c, 0, 49, 0
1, 19848, Note_on_c, 0, 53, 0
1, 19849, Note_on_c, 0, 37, 0
1, 19860, Note_on_c, 0, 59, 0
1, 19911, Note_on_c, 0, 43, 51
1, 19914, Note_on_c, 0, 52, 65
1, 19915, Note_on_c, 0, 48, 50
1, 19916, Note_on_c, 0, 62, 63
1, 19916, Note_on_c, 0, 36, 51
1, 19917, Note_on_c, 0, 57, 64
1, 19918, Note_on_c, 0, 60, 62
1, 19924, Control_c, 0, 64, 0
1, 20020, Control_c, 0, 64, 127
1, 20068, Note_off_c, 0, 43, 0
1, 20075, Note_off_c, 0, 52, 0
1, 20084, Note_off_c, 0, 48, 0
1, 20163, Note_on_c, 0, 24, 58
1, 20174, Note_on_c, 0, 62, 0
1, 20356, Note_on_c, 0, 36, 0
1, 20358, Note_on_c, 0, 57, 0
1, 20359, Note_on_c, 0, 60, 0
1, 20365, Note_on_c, 0, 24, 0
1, 21049, Control_c, 0, 64, 0
1, 21049, End_track
0, 0, End_of_file
