0, 0, Header, 1, 1, 120
1, 0, Start_track
1, 0, Text_t, "{GNMIDI}Generated by  GNMIDI demo (http://www.gnmidi.com)\012"
1, 0, Title_t, "Piano"
1, 0, Key_signature, 0, "major"
1, 681, Control_c, 0, 64, 127
1, 681, Note_on_c, 0, 31, 40
1, 712, Note_on_c, 0, 31, 0
1, 768, Note_on_c, 0, 31, 44
1, 794, Note_on_c, 0, 31, 0
1, 809, Note_on_c, 0, 43, 32
1, 835, Note_on_c, 0, 43, 0
1, 836, Note_on_c, 0, 31, 49
1, 864, Note_on_c, 0, 31, 0
1, 875, Note_on_c, 0, 43, 51
1, 900, Note_on_c, 0, 31, 51
1, 901, Note_on_c, 0, 43, 0
1, 922, Note_on_c, 0, 31, 0
1, 932, Note_on_c, 0, 43, 57
1, 956, Note_on_c, 0, 43, 0
1, 957, Note_on_c, 0, 31, 62
1, 982, Note_on_c, 0, 31, 0
1, 990, Note_on_c, 0, 43, 59
1, 1013, Note_on_c, 0, 31, 59
1, 1014, Note_on_c, 0, 43, 0
1, 1037, Note_on_c, 0, 31, 0
1, 1043, Note_on_c, 0, 43, 61
1, 1068, Note_on_c, 0, 31, 60
1, 1070, Note_on_c, 0, 43, 0
1, 1087, Note_on_c, 0, 59, 72
1, 1093, Note_on_c, 0, 31, 0
1, 1100, Note_on_c, 0, 43, 61
1, 1112, Note_on_c, 0, 59, 0
1, 1127, Note_on_c, 0, 31, 61
1, 1130, Note_on_c, 0, 43, 0
1, 1143, Note_on_c, 0, 62, 48
1, 1148, Note_on_c, 0, 60, 41
1, 1157, Note_on_c, 0, 31, 0
1, 1161, Note_on_c, 0, 62, 0
1, 1162, Note_on_c, 0, 60, 0
1, 1176, Note_on_c, 0, 43, 55
1, 1202, Note_on_c, 0, 59, 77
1, 1216, Note_on_c, 0, 43, 0
1, 1218, Note_on_c, 0, 59, 0
1, 1224, Note_on_c, 0, 31, 68
1, 1256, Note_on_c, 0, 31, 0
1, 1262, Note_on_c, 0, 43, 58
1, 1281, Note_on_c, 0, 54, 87
1, 1284, Note_on_c, 0, 62, 71
1, 1285, Note_on_c, 0, 59, 69
1, 1285, Note_on_c, 0, 57, 77
1, 1290, Note_on_c, 0, 31, 62
1, 1292, Control_c, 0, 64, 0
1, 1298, Note_off_c, 0, 43, 0
1, 1317, Note_off_c, 0, 54, 0
1, 1323, Control_c, 0, 64, 127
1, 1329, Note_off_c, 0, 62, 0
1, 1333, Note_on_c, 0, 43, 54
1, 1348, Note_on_c, 0, 62, 81
1, 1363, Note_on_c, 0, 31, 59
1, 1371, Note_on_c, 0, 59, 0
1, 1379, Note_on_c, 0, 57, 0
1, 1391, Note_on_c, 0, 31, 0
1, 1392, Note_on_c, 0, 43, 0
1, 1393, Note_on_c, 0, 62, 0
1, 1402, Note_on_c, 0, 31, 0
1, 1403, Note_on_c, 0, 54, 76
1, 1406, Note_on_c, 0, 62, 90
1, 1410, Note_on_c, 0, 43, 57
1, 1410, Note_on_c, 0, 59, 40
1, 1443, Note_on_c, 0, 54, 0
1, 1444, Note_on_c, 0, 31, 62
1, 1475, Note_on_c, 0, 62, 0
1, 1480, Note_on_c, 0, 43, 55
1, 1499, Note_on_c, 0, 43, 0
1, 1509, Note_on_c, 0, 31, 64
1, 1510, Note_on_c, 0, 59, 0
1, 1513, Note_on_c, 0, 31, 0
1, 1539, Note_on_c, 0, 43, 0
1, 1543, Note_on_c, 0, 43, 58
1, 1560, Note_on_c, 0, 31, 0
1, 1568, Note_on_c, 0, 54, 61
1, 1573, Note_on_c, 0, 31, 61
1, 1575, Note_on_c, 0, 43, 0
1, 1602, Note_on_c, 0, 54, 0
1, 1604, Note_on_c, 0, 31, 0
1, 1604, Note_on_c, 0, 57, 51
1, 1611, Note_on_c, 0, 43, 50
1, 1626, Note_on_c, 0, 57, 0
1, 1640, Note_on_c, 0, 31, 54
1, 1643, Note_on_c, 0, 43, 0
1, 1674, Note_on_c, 0, 31, 0
1, 1680, Note_on_c, 0, 43, 61
1, 1721, Note_on_c, 0, 31, 49
1, 1722, Note_on_c, 0, 43, 0
1, 1730, Note_on_c, 0, 69, 56
1, 1743, Note_on_c, 0, 31, 0
1, 1766, Note_on_c, 0, 43, 51
1, 1779, Note_on_c, 0, 71, 26
1, 1788, Note_on_c, 0, 69, 0
1, 1820, Note_on_c, 0, 78, 47
1, 1856, Note_on_c, 0, 43, 0
1, 1869, Note_on_c, 0, 81, 38
1, 1882, Note_on_c, 0, 71, 0
1, 1915, Note_on_c, 0, 83, 38
1, 1938, Note_on_c, 0, 78, 0
1, 1962, Note_on_c, 0, 81, 0
1, 1968, Note_on_c, 0, 86, 59
1, 1971, Note_on_c, 0, 83, 0
1, 1977, Note_on_c, 0, 86, 0
1, 2024, Note_on_c, 0, 43, 24
1, 2038, Note_on_c, 0, 43, 0
1, 2043, Note_on_c, 0, 31, 51
1, 2067, Note_on_c, 0, 31, 0
1, 2084, Note_on_c, 0, 43, 30
1, 2103, Note_on_c, 0, 43, 0
1, 2108, Note_on_c, 0, 31, 44
1, 2130, Note_on_c, 0, 31, 0
1, 2140, Note_on_c, 0, 43, 56
1, 2164, Note_on_c, 0, 31, 62
1, 2165, Note_on_c, 0, 43, 0
1, 2188, Note_on_c, 0, 31, 0
1, 2192, Note_on_c, 0, 43, 61
1, 2216, Note_on_c, 0, 31, 63
1, 2217, Note_on_c, 0, 43, 0
1, 2239, Note_on_c, 0, 31, 0
1, 2240, Note_on_c, 0, 43, 62
1, 2265, Note_on_c, 0, 31, 68
1, 2268, Note_on_c, 0, 43, 0
1, 2281, Note_on_c, 0, 59, 94
1, 2289, Note_on_c, 0, 31, 0
1, 2291, Note_on_c, 0, 43, 63
1, 2310, Note_on_c, 0, 59, 0
1, 2319, Note_on_c, 0, 43, 0
1, 2320, Note_on_c, 0, 31, 69
1, 2332, Note_on_c, 0, 62, 97
1, 2345, Note_on_c, 0, 31, 0
1, 2349, Note_on_c, 0, 43, 67
1, 2370, Note_on_c, 0, 62, 0
1, 2375, Note_on_c, 0, 43, 0
1, 2377, Note_on_c, 0, 31, 77
1, 2383, Note_on_c, 0, 59, 85
1, 2404, Note_on_c, 0, 31, 0
1, 2408, Note_on_c, 0, 43, 63
1, 2423, Note_on_c, 0, 59, 0
1, 2437, Note_on_c, 0, 31, 74
1, 2441, Note_on_c, 0, 43, 0
1, 2443, Note_on_c, 0, 55, 92
1, 2443, Note_on_c, 0, 64, 90
1, 2444, Note_on_c, 0, 59, 78
1, 2449, Control_c, 0, 64, 0
1, 2482, Control_c, 0, 64, 127
1, 2483, Note_off_c, 0, 31, 0
1, 2486, Note_on_c, 0, 43, 65
1, 2502, Note_on_c, 0, 55, 0
1, 2514, Note_on_c, 0, 64, 0
1, 2523, Note_on_c, 0, 66, 87
1, 2523, Note_on_c, 0, 59, 66
1, 2527, Note_on_c, 0, 55, 45
1, 2541, Note_on_c, 0, 59, 0
1, 2559, Note_on_c, 0, 43, 0
1, 2567, Note_on_c, 0, 66, 0
1, 2571, Note_on_c, 0, 59, 0
1, 2576, Note_on_c, 0, 43, 62
1, 2579, Note_on_c, 0, 55, 0
1, 2585, Note_on_c, 0, 59, 77
1, 2587, Note_on_c, 0, 55, 84
1, 2588, Note_on_c, 0, 64, 84
1, 2608, Note_on_c, 0, 43, 0
1, 2613, Note_on_c, 0, 31, 67
1, 2642, Note_on_c, 0, 59, 0
1, 2649, Note_on_c, 0, 43, 49
1, 2670, Note_on_c, 0, 55, 0
1, 2674, Note_on_c, 0, 31, 69
1, 2681, Note_on_c, 0, 64, 0
1, 2696, Note_on_c, 0, 31, 0
1, 2700, Note_on_c, 0, 43, 73
1, 2710, Note_on_c, 0, 43, 0
1, 2730, Note_on_c, 0, 55, 61
1, 2751, Note_on_c, 0, 43, 66
1, 2780, Note_on_c, 0, 31, 0
1, 2780, Note_on_c, 0, 50, 68
1, 2794, Note_on_c, 0, 43, 0
1, 2798, Note_on_c, 0, 52, 65
1, 2817, Note_on_c, 0, 55, 43
1, 2821, Note_on_c, 0, 55, 0
1, 2830, Note_on_c, 0, 59, 60
1, 2835, Note_on_c, 0, 43, 0
1, 2858, Note_on_c, 0, 50, 0
1, 2860, Note_on_c, 0, 62, 47
1, 2876, Note_on_c, 0, 64, 68
1, 2880, Note_on_c, 0, 52, 0
1, 2884, Note_on_c, 0, 55, 0
1, 2916, Note_on_c, 0, 67, 37
1, 2935, Note_on_c, 0, 59, 0
1, 2940, Note_on_c, 0, 71, 68
1, 2962, Note_on_c, 0, 62, 0
1, 2968, Note_on_c, 0, 74, 52
1, 2977, Note_on_c, 0, 64, 0
1, 3007, Note_on_c, 0, 79, 43
1, 3008, Note_on_c, 0, 77, 31
1, 3019, Note_on_c, 0, 67, 0
1, 3021, Note_on_c, 0, 71, 0
1, 3061, Note_on_c, 0, 86, 39
1, 3069, Note_on_c, 0, 74, 0
1, 3091, Note_on_c, 0, 91, 92
1, 3117, Note_on_c, 0, 79, 0
1, 3132, Note_on_c, 0, 95, 59
1, 3147, Note_on_c, 0, 77, 0
1, 3154, Note_on_c, 0, 86, 0
1, 3181, Note_on_c, 0, 98, 71
1, 3220, Note_on_c, 0, 91, 0
1, 3244, Note_on_c, 0, 100, 71
1, 3253, Note_on_c, 0, 95, 0
1, 3278, Note_on_c, 0, 98, 0
1, 3298, Note_on_c, 0, 43, 40
1, 3299, Note_on_c, 0, 100, 0
1, 3332, Note_on_c, 0, 50, 59
1, 3381, Note_on_c, 0, 52, 63
1, 3413, Note_on_c, 0, 43, 0
1, 3421, Note_on_c, 0, 64, 95
1, 3436, Note_on_c, 0, 50, 0
1, 3459, Note_on_c, 0, 52, 0
1, 3477, Note_on_c, 0, 67, 84
1, 3515, Note_on_c, 0, 64, 0
1, 3526, Note_on_c, 0, 64, 79
1, 3534, Note_on_c, 0, 50, 68
1, 3543, Note_on_c, 0, 67, 0
1, 3558, Note_on_c, 0, 64, 0
1, 3569, Note_on_c, 0, 67, 82
1, 3593, Note_on_c, 0, 43, 68
1, 3596, Note_on_c, 0, 50, 0
1, 3612, Control_c, 0, 64, 0
1, 3631, Note_on_c, 0, 50, 73
1, 3664, Note_on_c, 0, 55, 72
1, 3673, Control_c, 0, 64, 127
1, 3705, Note_on_c, 0, 59, 73
1, 3723, Note_on_c, 0, 67, 0
1, 3741, Note_on_c, 0, 43, 0
1, 3747, Note_on_c, 0, 62, 82
1, 3778, Note_on_c, 0, 50, 0
1, 3789, Note_on_c, 0, 63, 93
1, 3795, Note_on_c, 0, 64, 102
1, 3797, Note_on_c, 0, 55, 0
1, 3804, Note_on_c, 0, 59, 0
1, 3806, Note_on_c, 0, 62, 0
1, 3810, Note_on_c, 0, 63, 0
1, 3827, Note_on_c, 0, 64, 0
1, 3834, Note_on_c, 0, 67, 87
1, 3860, Control_c, 0, 64, 0
1, 3871, Note_on_c, 0, 45, 55
1, 3910, Note_on_c, 0, 52, 67
1, 3947, Note_on_c, 0, 55, 66
1, 3974, Control_c, 0, 64, 127
1, 3995, Note_on_c, 0, 59, 57
1, 4026, Note_on_c, 0, 67, 0
1, 4044, Note_on_c, 0, 62, 63
1, 4045, Note_on_c, 0, 45, 0
1, 4071, Note_on_c, 0, 52, 0
1, 4086, Note_on_c, 0, 55, 0
1, 4093, Note_on_c, 0, 64, 62
1, 4095, Note_on_c, 0, 59, 0
1, 4130, Note_on_c, 0, 62, 0
1, 4136, Note_on_c, 0, 67, 54
1, 4142, Note_on_c, 0, 64, 0
1, 4160, Note_on_c, 0, 46, 59
1, 4195, Control_c, 0, 64, 0
1, 4211, Note_on_c, 0, 52, 60
1, 4246, Note_on_c, 0, 55, 59
1, 4282, Control_c, 0, 64, 127
1, 4289, Note_on_c, 0, 58, 63
1, 4335, Note_on_c, 0, 61, 62
1, 4369, Note_on_c, 0, 67, 0
1, 4370, Note_on_c, 0, 46, 0
1, 4380, Note_on_c, 0, 52, 0
1, 4399, Note_on_c, 0, 64, 55
1, 4405, Note_on_c, 0, 55, 0
1, 4492, Note_on_c, 0, 67, 41
1, 4494, Note_on_c, 0, 58, 0
1, 4500, Note_on_c, 0, 61, 0
1, 4526, Note_on_c, 0, 64, 0
1, 4537, Note_on_c, 0, 47, 67
1, 4564, Note_on_c, 0, 67, 0
1, 4568, Note_on_c, 0, 55, 77
1, 4593, Note_on_c, 0, 59, 81
1, 4594, Note_on_c, 0, 67, 85
1, 4601, Control_c, 0, 64, 0
1, 4640, Control_c, 0, 64, 127
1, 4715, Note_off_c, 0, 47, 0
1, 4721, Note_off_c, 0, 55, 0
1, 4745, Note_off_c, 0, 59, 0
1, 4753, Note_on_c, 0, 64, 97
1, 4766, Note_on_c, 0, 67, 0
1, 4787, Note_on_c, 0, 64, 0
1, 4807, Note_on_c, 0, 67, 83
1, 4827, Note_on_c, 0, 67, 0
1, 4846, Note_on_c, 0, 47, 71
1, 4877, Note_on_c, 0, 47, 0
1, 4878, Note_on_c, 0, 40, 77
1, 4882, Note_on_c, 0, 67, 72
1, 4883, Note_on_c, 0, 71, 74
1, 4883, Note_on_c, 0, 64, 71
1, 4885, Note_on_c, 0, 62, 74
1, 4890, Control_c, 0, 64, 0
1, 4925, Note_on_c, 0, 47, 70
1, 4936, Control_c, 0, 64, 127
1, 4938, Note_off_c, 0, 40, 0
1, 4943, Note_on_c, 0, 69, 85
1, 4944, Note_on_c, 0, 67, 0
1, 4948, Note_on_c, 0, 71, 0
1, 4952, Note_on_c, 0, 64, 0
1, 4958, Note_on_c, 0, 62, 0
1, 4966, Note_on_c, 0, 47, 0
1, 4967, Note_on_c, 0, 52, 69
1, 4969, Note_on_c, 0, 69, 0
1, 4988, Note_on_c, 0, 67, 87
1, 4989, Note_on_c, 0, 62, 88
1, 4989, Note_on_c, 0, 71, 91
1, 4990, Note_on_c, 0, 64, 83
1, 4991, Note_on_c, 0, 52, 0
1, 5029, Note_on_c, 0, 50, 63
1, 5055, Note_on_c, 0, 52, 60
1, 5070, Note_on_c, 0, 67, 0
1, 5073, Note_on_c, 0, 55, 57
1, 5083, Note_on_c, 0, 62, 0
1, 5083, Note_on_c, 0, 71, 0
1, 5087, Note_on_c, 0, 64, 0
1, 5090, Note_on_c, 0, 50, 0
1, 5091, Note_on_c, 0, 52, 0
1, 5094, Note_on_c, 0, 59, 63
1, 5103, Note_on_c, 0, 55, 0
1, 5110, Note_on_c, 0, 59, 0
1, 5110, Note_on_c, 0, 62, 51
1, 5125, Note_on_c, 0, 64, 69
1, 5133, Note_on_c, 0, 62, 0
1, 5146, Note_on_c, 0, 67, 64
1, 5153, Note_on_c, 0, 64, 0
1, 5168, Note_on_c, 0, 62, 57
1, 5176, Note_on_c, 0, 67, 0
1, 5178, Note_on_c, 0, 71, 51
1, 5178, Note_on_c, 0, 64, 29
1, 5187, Note_on_c, 0, 62, 0
1, 5209, Note_on_c, 0, 67, 64
1, 5226, Note_on_c, 0, 71, 58
1, 5251, Note_on_c, 0, 71, 0
1, 5254, Note_on_c, 0, 74, 38
1, 5270, Note_on_c, 0, 76, 60
1, 5281, Note_on_c, 0, 64, 0
1, 5302, Note_on_c, 0, 67, 0
1, 5302, Note_on_c, 0, 71, 0
1, 5302, Note_on_c, 0, 79, 64
1, 5310, Note_on_c, 0, 74, 0
1, 5320, Note_on_c, 0, 76, 0
1, 5320, Note_on_c, 0, 79, 0
1, 5341, Note_on_c, 0, 86, 77
1, 5375, Note_on_c, 0, 86, 0
1, 5375, Note_on_c, 0, 88, 63
1, 5408, Note_on_c, 0, 88, 0
1, 5408, Note_on_c, 0, 91, 80
1, 5417, Note_on_c, 0, 91, 0
1, 5451, Note_on_c, 0, 98, 76
1, 5485, Note_on_c, 0, 98, 0
1, 5487, Note_on_c, 0, 100, 60
1, 5506, Note_on_c, 0, 100, 0
1, 5518, Note_on_c, 0, 103, 51
1, 5543, Note_on_c, 0, 105, 61
1, 5548, Note_on_c, 0, 103, 0
1, 5570, Note_on_c, 0, 105, 0
1, 5583, Note_on_c, 0, 107, 77
1, 5604, Control_c, 0, 64, 0
1, 5613, Note_on_c, 0, 45, 53
1, 5636, Note_on_c, 0, 107, 0
1, 5638, Control_c, 0, 64, 127
1, 5667, Note_on_c, 0, 52, 54
1, 5699, Note_on_c, 0, 45, 0
1, 5726, Note_on_c, 0, 55, 45
1, 5744, Note_on_c, 0, 52, 0
1, 5746, Note_on_c, 0, 55, 0
1, 5786, Note_on_c, 0, 61, 56
1, 5854, Note_on_c, 0, 64, 56
1, 5857, Note_on_c, 0, 61, 0
1, 5907, Note_on_c, 0, 64, 0
1, 5930, Note_on_c, 0, 67, 18
1, 6000, Note_on_c, 0, 67, 0
1, 6032, Note_on_c, 0, 69, 30
1, 6314, Note_on_c, 0, 69, 0
1, 6522, Note_on_c, 0, 69, 71
1, 6526, Note_on_c, 0, 70, 107
1, 6534, Note_on_c, 0, 71, 94
1, 6535, Note_on_c, 0, 69, 0
1, 6536, Note_on_c, 0, 70, 0
1, 6551, Control_c, 0, 64, 0
1, 6690, Control_c, 0, 64, 127
1, 6699, Note_on_c, 0, 74, 76
1, 6700, Note_on_c, 0, 71, 0
1, 6761, Note_on_c, 0, 71, 66
1, 6768, Note_on_c, 0, 74, 0
1, 6773, Note_on_c, 0, 71, 0
1, 6837, Note_on_c, 0, 74, 71
1, 6894, Note_on_c, 0, 45, 66
1, 6914, Control_c, 0, 64, 0
1, 6940, Note_on_c, 0, 52, 61
1, 6969, Control_c, 0, 64, 127
1, 6979, Note_off_c, 0, 74, 0
1, 6984, Note_off_c, 0, 45, 0
1, 6987, Note_on_c, 0, 55, 71
1, 6996, Note_on_c, 0, 52, 0
1, 7032, Note_on_c, 0, 60, 79
1, 7083, Note_on_c, 0, 64, 81
1, 7101, Note_on_c, 0, 55, 0
1, 7111, Note_on_c, 0, 60, 0
1, 7123, Note_on_c, 0, 67, 78
1, 7131, Note_on_c, 0, 64, 0
1, 7150, Note_on_c, 0, 67, 0
1, 7166, Note_on_c, 0, 71, 81
1, 7203, Note_on_c, 0, 71, 0
1, 7210, Note_on_c, 0, 57, 73
1, 7212, Note_on_c, 0, 74, 88
1, 7239, Note_on_c, 0, 57, 0
1, 7241, Note_on_c, 0, 50, 73
1, 7261, Control_c, 0, 64, 0
1, 7282, Note_on_c, 0, 57, 75
1, 7317, Note_on_c, 0, 60, 76
1, 7322, Control_c, 0, 64, 127
1, 7351, Note_on_c, 0, 62, 75
1, 7373, Note_on_c, 0, 74, 0
1, 7395, Note_on_c, 0, 66, 71
1, 7399, Note_on_c, 0, 50, 0
1, 7425, Note_on_c, 0, 57, 0
1, 7438, Note_on_c, 0, 60, 0
1, 7466, Note_on_c, 0, 71, 56
1, 7473, Note_on_c, 0, 62, 0
1, 7476, Note_on_c, 0, 66, 0
1, 7485, Note_on_c, 0, 71, 0
1, 7516, Note_on_c, 0, 49, 42
1, 7543, Note_on_c, 0, 49, 0
1, 7550, Note_on_c, 0, 42, 53
1, 7560, Note_on_c, 0, 61, 67
1, 7562, Note_on_c, 0, 57, 58
1, 7564, Note_on_c, 0, 69, 62
1, 7583, Control_c, 0, 64, 0
1, 7616, Note_on_c, 0, 49, 59
1, 7637, Control_c, 0, 64, 127
1, 7659, Note_on_c, 0, 52, 58
1, 7661, Note_on_c, 0, 42, 0
1, 7684, Note_on_c, 0, 61, 0
1, 7702, Note_on_c, 0, 57, 0
1, 7711, Note_on_c, 0, 57, 67
1, 7761, Note_on_c, 0, 61, 59
1, 7783, Note_on_c, 0, 69, 0
1, 7796, Note_on_c, 0, 49, 0
1, 7820, Note_on_c, 0, 69, 64
1, 7823, Note_on_c, 0, 52, 0
1, 7828, Note_on_c, 0, 57, 0
1, 7853, Note_on_c, 0, 61, 0
1, 7869, Note_on_c, 0, 47, 54
1, 7926, Note_on_c, 0, 54, 60
1, 7933, Control_c, 0, 64, 0
1, 7981, Note_on_c, 0, 57, 59
1, 7990, Control_c, 0, 64, 127
1, 8054, Note_on_c, 0, 59, 39
1, 8186, Note_on_c, 0, 69, 0
1, 8235, Note_on_c, 0, 47, 0
1, 8308, Note_on_c, 0, 54, 0
1, 8330, Note_on_c, 0, 57, 0
1, 8344, Note_on_c, 0, 59, 0
1, 8374, Note_on_c, 0, 67, 60
1, 8393, Note_on_c, 0, 68, 84
1, 8399, Note_on_c, 0, 67, 0
1, 8408, Note_on_c, 0, 69, 81
1, 8409, Note_on_c, 0, 68, 0
1, 8423, Note_on_c, 0, 70, 84
1, 8430, Note_on_c, 0, 69, 0
1, 8439, Note_on_c, 0, 70, 0
1, 8441, Note_on_c, 0, 71, 81
1, 8446, Control_c, 0, 64, 0
1, 8466, Note_on_c, 0, 40, 68
1, 8507, Control_c, 0, 64, 127
1, 8515, Note_on_c, 0, 47, 70
1, 8518, Note_on_c, 0, 71, 0
1, 8529, Note_on_c, 0, 40, 0
1, 8555, Note_on_c, 0, 47, 0
1, 8563, Note_on_c, 0, 52, 74
1, 8579, Note_on_c, 0, 52, 0
1, 8609, Note_on_c, 0, 52, 81
1, 8656, Note_on_c, 0, 55, 80
1, 8662, Note_on_c, 0, 67, 77
1, 8664, Note_on_c, 0, 62, 69
1, 8666, Note_on_c, 0, 64, 66
1, 8674, Note_on_c, 0, 52, 0
1, 8682, Note_on_c, 0, 55, 0
1, 8699, Note_on_c, 0, 67, 0
1, 8718, Note_on_c, 0, 64, 95
1, 8718, Note_on_c, 0, 69, 100
1, 8719, Note_on_c, 0, 62, 93
1, 8722, Note_on_c, 0, 62, 0
1, 8738, Note_on_c, 0, 64, 0
1, 8771, Note_on_c, 0, 64, 0
1, 8772, Note_on_c, 0, 52, 82
1, 8783, Note_on_c, 0, 69, 0
1, 8784, Note_on_c, 0, 62, 0
1, 8804, Note_on_c, 0, 71, 94
1, 8804, Note_on_c, 0, 62, 93
1, 8805, Note_on_c, 0, 64, 82
1, 8851, Note_on_c, 0, 52, 0
1, 8852, Note_on_c, 0, 71, 0
1, 8854, Note_on_c, 0, 55, 77
1, 8864, Note_on_c, 0, 62, 0
1, 8885, Note_on_c, 0, 62, 84
1, 8886, Note_on_c, 0, 64, 0
1, 8886, Note_on_c, 0, 69, 95
1, 8886, Note_on_c, 0, 64, 87
1, 8895, Note_on_c, 0, 55, 0
1, 8932, Note_on_c, 0, 52, 87
1, 8933, Note_on_c, 0, 62, 0
1, 8947, Note_on_c, 0, 69, 0
1, 8947, Note_on_c, 0, 64, 0
1, 8959, Note_on_c, 0, 52, 0
1, 8966, Note_on_c, 0, 67, 85
1, 8967, Note_on_c, 0, 62, 83
1, 8981, Note_on_c, 0, 67, 0
1, 8984, Note_on_c, 0, 62, 0
1, 9057, Note_on_c, 0, 37, 71
1, 9057, Note_on_c, 0, 61, 85
1, 9059, Note_on_c, 0, 66, 81
1, 9083, Control_c, 0, 64, 0
1, 9120, Note_on_c, 0, 44, 68
1, 9166, Control_c, 0, 64, 127
1, 9169, Note_on_c, 0, 49, 71
1, 9224, Note_on_c, 0, 37, 0
1, 9243, Note_on_c, 0, 61, 0
1, 9266, Note_on_c, 0, 55, 46
1, 9275, Note_on_c, 0, 66, 0
1, 9328, Note_on_c, 0, 61, 45
1, 9362, Note_on_c, 0, 44, 0
1, 9413, Note_on_c, 0, 66, 58
1, 9424, Note_on_c, 0, 49, 0
1, 9462, Note_on_c, 0, 67, 45
1, 9509, Note_on_c, 0, 55, 0
1, 9511, Note_on_c, 0, 73, 33
1, 9539, Note_on_c, 0, 61, 0
1, 9565, Note_on_c, 0, 76, 38
1, 9607, Note_on_c, 0, 66, 0
1, 9628, Note_on_c, 0, 78, 45
1, 9629, Note_on_c, 0, 67, 0
1, 9638, Note_on_c, 0, 73, 0
1, 9696, Note_on_c, 0, 49, 50
1, 9719, Note_on_c, 0, 76, 0
1, 9754, Note_on_c, 0, 78, 0
1, 9814, Note_on_c, 0, 44, 48
1, 9877, Note_on_c, 0, 66, 52
1, 9879, Note_on_c, 0, 49, 0
1, 9890, Note_on_c, 0, 44, 0
1, 9895, Note_on_c, 0, 66, 0
1, 9900, Note_on_c, 0, 65, 67
1, 9909, Note_on_c, 0, 65, 0
1, 9916, Note_on_c, 0, 64, 62
1, 9941, Note_on_c, 0, 64, 0
1, 9949, Note_on_c, 0, 62, 61
1, 9984, Note_on_c, 0, 35, 68
1, 9990, Control_c, 0, 64, 0
1, 10036, Control_c, 0, 64, 127
1, 10037, Note_off_c, 0, 62, 0
1, 10043, Note_on_c, 0, 47, 61
1, 10052, Note_on_c, 0, 35, 0
1, 10089, Note_on_c, 0, 47, 71
1, 10133, Note_on_c, 0, 54, 87
1, 10167, Note_on_c, 0, 57, 90
1, 10191, Note_on_c, 0, 47, 0
1, 10207, Note_on_c, 0, 59, 88
1, 10220, Note_on_c, 0, 47, 0
1, 10223, Note_on_c, 0, 54, 0
1, 10240, Note_on_c, 0, 57, 0
1, 10257, Note_on_c, 0, 59, 0
1, 10258, Note_on_c, 0, 46, 87
1, 10285, Note_on_c, 0, 62, 95
1, 10308, Control_c, 0, 64, 0
1, 10326, Note_on_c, 0, 55, 83
1, 10358, Control_c, 0, 64, 127
1, 10380, Note_off_c, 0, 46, 0
1, 10381, Note_on_c, 0, 59, 80
1, 10382, Note_on_c, 0, 62, 0
1, 10433, Note_on_c, 0, 55, 0
1, 10435, Note_on_c, 0, 55, 80
1, 10475, Note_on_c, 0, 59, 0
1, 10483, Note_on_c, 0, 64, 94
1, 10516, Note_on_c, 0, 55, 0
1, 10522, Note_on_c, 0, 55, 82
1, 10523, Note_on_c, 0, 64, 0
1, 10549, Note_on_c, 0, 55, 0
1, 10562, Note_on_c, 0, 45, 76
1, 10570, Note_on_c, 0, 59, 71
1, 10571, Note_on_c, 0, 66, 72
1, 10572, Note_on_c, 0, 62, 65
1, 10589, Control_c, 0, 64, 0
1, 10622, Note_on_c, 0, 54, 68
1, 10635, Control_c, 0, 64, 127
1, 10638, Note_off_c, 0, 45, 0
1, 10640, Note_off_c, 0, 59, 0
1, 10649, Note_off_c, 0, 66, 0
1, 10678, Note_on_c, 0, 66, 78
1, 10678, Note_on_c, 0, 59, 71
1, 10680, Note_on_c, 0, 62, 74
1, 10695, Note_on_c, 0, 62, 0
1, 10745, Note_on_c, 0, 54, 70
1, 10751, Note_on_c, 0, 54, 0
1, 10759, Note_on_c, 0, 66, 0
1, 10768, Note_on_c, 0, 59, 0
1, 10769, Note_on_c, 0, 62, 0
1, 10813, Note_on_c, 0, 45, 66
1, 10829, Note_on_c, 0, 61, 70
1, 10831, Note_on_c, 0, 58, 71
1, 10856, Control_c, 0, 64, 0
1, 10906, Note_on_c, 0, 55, 60
1, 10909, Control_c, 0, 64, 127
1, 10923, Note_off_c, 0, 54, 0
1, 10936, Note_off_c, 0, 45, 0
1, 10948, Note_off_c, 0, 61, 0
1, 10968, Note_on_c, 0, 58, 68
1, 10968, Note_on_c, 0, 61, 65
1, 10970, Note_on_c, 0, 58, 0
1, 10970, Note_on_c, 0, 67, 66
1, 11022, Note_on_c, 0, 55, 0
1, 11027, Note_on_c, 0, 58, 0
1, 11029, Note_on_c, 0, 61, 0
1, 11056, Note_on_c, 0, 55, 58
1, 11111, Note_on_c, 0, 67, 0
1, 11114, Note_on_c, 0, 55, 0
1, 11114, Note_on_c, 0, 52, 44
1, 11133, Note_on_c, 0, 60, 75
1, 11134, Note_on_c, 0, 64, 77
1, 11135, Note_on_c, 0, 69, 76
1, 11140, Note_on_c, 0, 67, 67
1, 11158, Control_c, 0, 64, 0
1, 11172, Note_off_c, 0, 52, 0
1, 11179, Note_on_c, 0, 45, 62
1, 11218, Note_on_c, 0, 52, 63
1, 11235, Control_c, 0, 64, 127
1, 11248, Note_on_c, 0, 55, 66
1, 11252, Note_on_c, 0, 60, 0
1, 11266, Note_on_c, 0, 64, 0
1, 11283, Note_on_c, 0, 69, 0
1, 11283, Note_on_c, 0, 67, 0
1, 11287, Note_on_c, 0, 60, 38
1, 11304, Note_on_c, 0, 64, 56
1, 11305, Note_on_c, 0, 45, 0
1, 11328, Note_on_c, 0, 52, 0
1, 11337, Note_on_c, 0, 67, 46
1, 11347, Note_on_c, 0, 55, 0
1, 11373, Note_on_c, 0, 72, 64
1, 11402, Note_on_c, 0, 60, 0
1, 11409, Note_on_c, 0, 76, 54
1, 11422, Note_on_c, 0, 64, 0
1, 11428, Note_on_c, 0, 79, 52
1, 11437, Note_on_c, 0, 67, 0
1, 11462, Note_on_c, 0, 84, 77
1, 11487, Note_on_c, 0, 72, 0
1, 11489, Note_on_c, 0, 88, 48
1, 11498, Note_on_c, 0, 91, 84
1, 11499, Note_on_c, 0, 76, 0
1, 11504, Note_on_c, 0, 93, 58
1, 11506, Note_on_c, 0, 79, 0
1, 11513, Note_on_c, 0, 84, 0
1, 11532, Note_on_c, 0, 96, 79
1, 11552, Note_on_c, 0, 100, 74
1, 11561, Note_on_c, 0, 88, 0
1, 11562, Note_on_c, 0, 91, 0
1, 11567, Note_on_c, 0, 103, 63
1, 11576, Note_on_c, 0, 105, 88
1, 11580, Note_on_c, 0, 93, 0
1, 11590, Note_on_c, 0, 96, 0
1, 11741, Note_on_c, 0, 100, 0
1, 11824, Note_on_c, 0, 55, 50
1, 11852, Note_on_c, 0, 103, 0
1, 11857, Note_on_c, 0, 67, 90
1, 11861, Note_on_c, 0, 105, 0
1, 11876, Note_on_c, 0, 55, 0
1, 11891, Note_on_c, 0, 67, 0
1, 11912, Note_on_c, 0, 64, 93
1, 11962, Note_on_c, 0, 64, 0
1, 11971, Note_on_c, 0, 60, 56
1, 11979, Note_on_c, 0, 60, 0
1, 11985, Note_on_c, 0, 45, 52
1, 12050, Note_on_c, 0, 38, 41
1, 12053, Note_on_c, 0, 45, 0
1, 12053, Note_on_c, 0, 54, 47
1, 12056, Note_on_c, 0, 59, 60
1, 12059, Note_on_c, 0, 57, 69
1, 12060, Note_on_c, 0, 62, 38
1, 12066, Control_c, 0, 64, 0
1, 12124, Control_c, 0, 64, 127
1, 12147, Note_on_c, 0, 45, 41
1, 12216, Note_on_c, 0, 38, 0
1, 12223, Note_on_c, 0, 50, 55
1, 12293, Note_on_c, 0, 54, 0
1, 12299, Note_on_c, 0, 54, 52
1, 12305, Note_on_c, 0, 59, 0
1, 12404, Note_on_c, 0, 57, 38
1, 12430, Note_on_c, 0, 57, 0
1, 12477, Note_on_c, 0, 62, 0
1, 12545, Note_on_c, 0, 45, 0
1, 12750, Note_on_c, 0, 50, 0
1, 12794, Note_on_c, 0, 59, 93
1, 12828, Note_on_c, 0, 54, 0
1, 12830, Note_on_c, 0, 57, 0
1, 12832, Note_on_c, 0, 59, 0
1, 12844, Note_on_c, 0, 62, 86
1, 12888, Note_on_c, 0, 62, 0
1, 12894, Note_on_c, 0, 59, 67
1, 12914, Note_on_c, 0, 43, 67
1, 12927, Note_on_c, 0, 59, 0
1, 12956, Note_on_c, 0, 54, 74
1, 12956, Control_c, 0, 64, 0
1, 12957, Note_on_c, 0, 62, 60
1, 12959, Note_on_c, 0, 59, 60
1, 12961, Note_on_c, 0, 57, 70
1, 12972, Note_on_c, 0, 50, 59
1, 13004, Control_c, 0, 64, 127
1, 13007, Note_off_c, 0, 43, 0
1, 13012, Note_off_c, 0, 54, 0
1, 13016, Note_off_c, 0, 62, 0
1, 13044, Note_on_c, 0, 62, 59
1, 13047, Note_on_c, 0, 57, 50
1, 13051, Note_on_c, 0, 59, 33
1, 13066, Note_on_c, 0, 59, 0
1, 13068, Note_on_c, 0, 57, 0
1, 13070, Note_on_c, 0, 50, 0
1, 13074, Note_on_c, 0, 62, 0
1, 13104, Note_on_c, 0, 54, 94
1, 13105, Note_on_c, 0, 62, 84
1, 13105, Note_on_c, 0, 57, 87
1, 13107, Note_on_c, 0, 59, 76
1, 13116, Note_on_c, 0, 57, 0
1, 13164, Note_on_c, 0, 50, 78
1, 13177, Note_on_c, 0, 59, 0
1, 13203, Note_on_c, 0, 54, 0
1, 13222, Note_on_c, 0, 38, 71
1, 13257, Note_on_c, 0, 62, 0
1, 13263, Note_on_c, 0, 50, 81
1, 13283, Note_on_c, 0, 57, 0
1, 13301, Note_on_c, 0, 43, 69
1, 13305, Note_on_c, 0, 59, 0
1, 13320, Note_on_c, 0, 50, 0
1, 13329, Note_on_c, 0, 38, 0
1, 13330, Note_on_c, 0, 50, 76
1, 13345, Note_on_c, 0, 50, 0
1, 13359, Note_on_c, 0, 43, 0
1, 13360, Note_on_c, 0, 54, 66
1, 13370, Note_on_c, 0, 50, 0
1, 13384, Note_on_c, 0, 57, 73
1, 13396, Note_on_c, 0, 54, 0
1, 13409, Note_on_c, 0, 59, 52
1, 13424, Note_on_c, 0, 57, 0
1, 13427, Note_on_c, 0, 62, 55
1, 13441, Note_on_c, 0, 59, 0
1, 13442, Note_on_c, 0, 62, 0
1, 13451, Note_on_c, 0, 66, 67
1, 13494, Note_on_c, 0, 69, 51
1, 13502, Note_on_c, 0, 71, 51
1, 13515, Note_on_c, 0, 74, 55
1, 13539, Note_on_c, 0, 66, 0
1, 13547, Note_on_c, 0, 69, 0
1, 13550, Note_on_c, 0, 78, 59
1, 13551, Note_on_c, 0, 71, 0
1, 13566, Note_on_c, 0, 74, 0
1, 13591, Note_on_c, 0, 81, 62
1, 13593, Note_on_c, 0, 78, 0
1, 13618, Note_on_c, 0, 81, 0
1, 13646, Note_on_c, 0, 83, 64
1, 13699, Note_on_c, 0, 83, 0
1, 13711, Note_on_c, 0, 86, 85
1, 13732, Note_on_c, 0, 86, 0
1, 13765, Note_on_c, 0, 59, 90
1, 13817, Note_on_c, 0, 58, 59
1, 13819, Note_on_c, 0, 62, 83
1, 13832, Note_on_c, 0, 59, 0
1, 13836, Note_on_c, 0, 58, 0
1, 13847, Note_on_c, 0, 62, 0
1, 13873, Note_on_c, 0, 62, 93
1, 13924, Note_on_c, 0, 62, 0
1, 13937, Note_on_c, 0, 59, 76
1, 13945, Note_on_c, 0, 50, 69
1, 13987, Note_on_c, 0, 59, 0
1, 13991, Note_on_c, 0, 62, 88
1, 14023, Note_on_c, 0, 50, 0
1, 14039, Note_on_c, 0, 62, 0
1, 14042, Note_on_c, 0, 43, 71
1, 14045, Note_on_c, 0, 64, 88
1, 14046, Note_on_c, 0, 59, 69
1, 14051, Control_c, 0, 64, 0
1, 14091, Note_on_c, 0, 50, 71
1, 14103, Control_c, 0, 64, 127
1, 14107, Note_off_c, 0, 43, 0
1, 14110, Note_off_c, 0, 64, 0
1, 14130, Note_on_c, 0, 66, 80
1, 14130, Note_on_c, 0, 59, 65
1, 14131, Note_on_c, 0, 62, 77
1, 14171, Note_on_c, 0, 59, 0
1, 14172, Note_on_c, 0, 54, 70
1, 14180, Note_on_c, 0, 50, 0
1, 14187, Note_on_c, 0, 66, 0
1, 14203, Note_on_c, 0, 59, 0
1, 14207, Note_on_c, 0, 59, 71
1, 14208, Note_on_c, 0, 64, 84
1, 14211, Note_on_c, 0, 62, 0
1, 14224, Note_on_c, 0, 54, 0
1, 14244, Note_on_c, 0, 43, 69
1, 14275, Control_c, 0, 64, 0
1, 14276, Note_on_c, 0, 50, 74
1, 14291, Control_c, 0, 64, 127
1, 14307, Note_off_c, 0, 59, 0
1, 14309, Note_on_c, 0, 52, 67
1, 14322, Note_on_c, 0, 64, 0
1, 14363, Note_on_c, 0, 55, 45
1, 14367, Note_on_c, 0, 57, 41
1, 14375, Note_on_c, 0, 43, 0
1, 14382, Note_on_c, 0, 50, 0
1, 14388, Note_on_c, 0, 59, 36
1, 14411, Note_on_c, 0, 52, 0
1, 14419, Note_on_c, 0, 62, 49
1, 14438, Note_on_c, 0, 55, 0
1, 14473, Note_on_c, 0, 67, 58
1, 14493, Note_on_c, 0, 57, 0
1, 14511, Note_on_c, 0, 71, 42
1, 14526, Note_on_c, 0, 59, 0
1, 14549, Note_on_c, 0, 74, 40
1, 14583, Note_on_c, 0, 62, 0
1, 14628, Note_on_c, 0, 79, 49
1, 14657, Note_on_c, 0, 67, 0
1, 14683, Note_on_c, 0, 83, 47
1, 14700, Note_on_c, 0, 71, 0
1, 14737, Note_on_c, 0, 86, 54
1, 14800, Note_on_c, 0, 74, 0
1, 14818, Note_on_c, 0, 88, 24
1, 14829, Note_on_c, 0, 79, 0
1, 15057, Note_on_c, 0, 62, 49
1, 15060, Note_on_c, 0, 63, 86
1, 15064, Note_on_c, 0, 64, 88
1, 15068, Note_on_c, 0, 83, 0
1, 15069, Note_on_c, 0, 86, 0
1, 15111, Note_on_c, 0, 88, 0
1, 15117, Note_on_c, 0, 67, 73
1, 15129, Control_c, 0, 64, 0
1, 15152, Note_off_c, 0, 62, 0
1, 15160, Note_on_c, 0, 64, 66
1, 15182, Note_on_c, 0, 63, 0
1, 15205, Note_on_c, 0, 67, 69
1, 15206, Note_on_c, 0, 64, 0
1, 15226, Note_on_c, 0, 67, 0
1, 15229, Note_on_c, 0, 64, 0
1, 15232, Control_c, 0, 64, 127
1, 15249, Note_on_c, 0, 43, 58
1, 15291, Note_on_c, 0, 50, 71
1, 15329, Note_on_c, 0, 55, 72
1, 15345, Note_on_c, 0, 67, 0
1, 15365, Note_on_c, 0, 59, 66
1, 15399, Note_on_c, 0, 43, 0
1, 15408, Note_on_c, 0, 62, 61
1, 15436, Note_on_c, 0, 50, 0
1, 15452, Note_on_c, 0, 64, 67
1, 15475, Note_on_c, 0, 55, 0
1, 15501, Note_on_c, 0, 71, 62
1, 15507, Note_on_c, 0, 59, 0
1, 15508, Note_on_c, 0, 62, 0
1, 15527, Note_on_c, 0, 64, 0
1, 15551, Note_on_c, 0, 67, 76
1, 15552, Note_on_c, 0, 71, 0
1, 15581, Note_on_c, 0, 45, 71
1, 15596, Control_c, 0, 64, 0
1, 15622, Note_on_c, 0, 52, 78
1, 15658, Note_on_c, 0, 55, 87
1, 15662, Control_c, 0, 64, 127
1, 15690, Note_off_c, 0, 67, 0
1, 15697, Note_on_c, 0, 60, 91
1, 15747, Note_on_c, 0, 64, 91
1, 15756, Note_on_c, 0, 45, 0
1, 15768, Note_on_c, 0, 52, 0
1, 15777, Note_on_c, 0, 55, 0
1, 15793, Note_on_c, 0, 60, 0
1, 15794, Note_on_c, 0, 67, 86
1, 15815, Note_on_c, 0, 64, 0
1, 15832, Note_on_c, 0, 46, 76
1, 15856, Control_c, 0, 64, 0
1, 15874, Note_on_c, 0, 52, 69
1, 15907, Note_on_c, 0, 55, 78
1, 15924, Control_c, 0, 64, 127
1, 15941, Note_on_c, 0, 58, 92
1, 15965, Note_on_c, 0, 67, 0
1, 15977, Note_on_c, 0, 46, 0
1, 15979, Note_on_c, 0, 61, 81
1, 16009, Note_on_c, 0, 52, 0
1, 16025, Note_on_c, 0, 64, 84
1, 16045, Note_on_c, 0, 55, 0
1, 16054, Note_on_c, 0, 58, 0
1, 16055, Note_on_c, 0, 61, 0
1, 16069, Note_on_c, 0, 64, 0
1, 16071, Note_on_c, 0, 67, 94
1, 16076, Note_on_c, 0, 47, 76
1, 16096, Control_c, 0, 64, 0
1, 16117, Note_on_c, 0, 55, 86
1, 16137, Note_on_c, 0, 67, 0
1, 16147, Control_c, 0, 64, 127
1, 16148, Note_on_c, 0, 59, 83
1, 16148, Note_on_c, 0, 62, 80
1, 16150, Note_on_c, 0, 64, 86
1, 16153, Note_on_c, 0, 47, 0
1, 16184, Note_on_c, 0, 55, 0
1, 16191, Note_on_c, 0, 59, 0
1, 16193, Note_on_c, 0, 62, 0
1, 16211, Note_on_c, 0, 67, 85
1, 16212, Note_on_c, 0, 59, 85
1, 16243, Note_on_c, 0, 64, 0
1, 16247, Note_on_c, 0, 67, 0
1, 16250, Note_on_c, 0, 55, 81
1, 16258, Note_on_c, 0, 59, 0
1, 16270, Note_on_c, 0, 64, 93
1, 16277, Note_on_c, 0, 55, 0
1, 16304, Note_on_c, 0, 64, 0
1, 16317, Note_on_c, 0, 67, 91
1, 16337, Note_on_c, 0, 47, 74
1, 16339, Note_on_c, 0, 67, 0
1, 16367, Note_on_c, 0, 47, 0
1, 16375, Note_on_c, 0, 40, 73
1, 16377, Note_on_c, 0, 62, 94
1, 16377, Note_on_c, 0, 67, 84
1, 16379, Note_on_c, 0, 71, 88
1, 16381, Note_on_c, 0, 64, 77
1, 16385, Control_c, 0, 64, 0
1, 16423, Note_on_c, 0, 47, 72
1, 16427, Control_c, 0, 64, 127
1, 16430, Note_off_c, 0, 40, 0
1, 16440, Note_on_c, 0, 69, 87
1, 16441, Note_on_c, 0, 62, 0
1, 16444, Note_on_c, 0, 67, 0
1, 16445, Note_on_c, 0, 71, 0
1, 16452, Note_on_c, 0, 64, 0
1, 16454, Note_on_c, 0, 52, 81
1, 16459, Note_on_c, 0, 47, 0
1, 16466, Note_on_c, 0, 69, 0
1, 16476, Note_on_c, 0, 52, 0
1, 16483, Note_on_c, 0, 67, 97
1, 16484, Note_on_c, 0, 62, 95
1, 16485, Note_on_c, 0, 71, 94
1, 16485, Note_on_c, 0, 64, 82
1, 16528, Note_on_c, 0, 50, 65
1, 16551, Note_on_c, 0, 52, 71
1, 16557, Control_c, 0, 64, 0
1, 16575, Note_on_c, 0, 55, 68
1, 16593, Note_on_c, 0, 67, 0
1, 16596, Note_on_c, 0, 59, 69
1, 16605, Note_on_c, 0, 62, 0
1, 16616, Note_on_c, 0, 62, 60
1, 16622, Note_on_c, 0, 71, 0
1, 16624, Control_c, 0, 64, 127
1, 16637, Note_on_c, 0, 64, 71
1, 16644, Note_on_c, 0, 64, 0
1, 16645, Note_on_c, 0, 50, 0
1, 16663, Note_on_c, 0, 52, 0
1, 16664, Note_on_c, 0, 67, 62
1, 16671, Note_on_c, 0, 69, 61
1, 16672, Note_on_c, 0, 55, 0
1, 16679, Note_on_c, 0, 59, 0
1, 16701, Note_on_c, 0, 74, 66
1, 16728, Note_on_c, 0, 62, 0
1, 16729, Note_on_c, 0, 76, 56
1, 16752, Note_on_c, 0, 79, 63
1, 16753, Note_on_c, 0, 64, 0
1, 16763, Note_on_c, 0, 67, 0
1, 16791, Note_on_c, 0, 86, 78
1, 16817, Note_on_c, 0, 69, 0
1, 16818, Note_on_c, 0, 88, 57
1, 16828, Note_on_c, 0, 74, 0
1, 16834, Note_on_c, 0, 91, 83
1, 16835, Note_on_c, 0, 76, 0
1, 16842, Note_on_c, 0, 79, 0
1, 16855, Note_on_c, 0, 86, 0
1, 16860, Note_on_c, 0, 88, 0
1, 16866, Note_on_c, 0, 91, 0
1, 16873, Note_on_c, 0, 96, 57
1, 16875, Note_on_c, 0, 98, 75
1, 16883, Note_on_c, 0, 96, 0
1, 16890, Note_on_c, 0, 98, 0
1, 16903, Note_on_c, 0, 100, 51
1, 16910, Note_on_c, 0, 103, 59
1, 16912, Note_on_c, 0, 100, 0
1, 16913, Note_on_c, 0, 101, 70
1, 16922, Note_on_c, 0, 103, 0
1, 16923, Note_on_c, 0, 105, 76
1, 16932, Note_on_c, 0, 101, 0
1, 16934, Note_on_c, 0, 105, 0
1, 16944, Note_on_c, 0, 107, 94
1, 16957, Note_on_c, 0, 45, 64
1, 16964, Note_on_c, 0, 107, 0
1, 16965, Control_c, 0, 64, 0
1, 16990, Control_c, 0, 64, 127
1, 17007, Note_on_c, 0, 52, 61
1, 17048, Note_on_c, 0, 45, 0
1, 17053, Note_on_c, 0, 52, 0
1, 17060, Note_on_c, 0, 55, 63
1, 17069, Note_on_c, 0, 55, 0
1, 17119, Note_on_c, 0, 61, 53
1, 17191, Note_on_c, 0, 64, 43
1, 17461, Note_on_c, 0, 61, 0
1, 17462, Note_on_c, 0, 71, 85
1, 17470, Note_on_c, 0, 64, 0
1, 17494, Note_on_c, 0, 71, 0
1, 17506, Note_on_c, 0, 74, 90
1, 17545, Note_on_c, 0, 71, 69
1, 17548, Note_on_c, 0, 74, 0
1, 17573, Note_on_c, 0, 71, 0
1, 17589, Note_on_c, 0, 74, 84
1, 17608, Control_c, 0, 64, 0
1, 17611, Note_on_c, 0, 45, 59
1, 17654, Note_on_c, 0, 52, 58
1, 17662, Control_c, 0, 64, 127
1, 17670, Note_off_c, 0, 74, 0
1, 17679, Note_off_c, 0, 45, 0
1, 17691, Note_on_c, 0, 55, 62
1, 17700, Note_on_c, 0, 52, 0
1, 17733, Note_on_c, 0, 60, 67
1, 17754, Note_on_c, 0, 55, 0
1, 17775, Note_on_c, 0, 64, 68
1, 17819, Note_on_c, 0, 67, 68
1, 17834, Note_on_c, 0, 60, 0
1, 17847, Note_on_c, 0, 64, 0
1, 17865, Note_on_c, 0, 71, 71
1, 17873, Note_on_c, 0, 67, 0
1, 17895, Note_on_c, 0, 57, 58
1, 17907, Note_on_c, 0, 71, 0
1, 17908, Note_on_c, 0, 57, 0
1, 17916, Note_on_c, 0, 74, 71
1, 17923, Note_on_c, 0, 50, 68
1, 17933, Control_c, 0, 64, 0
1, 17976, Note_on_c, 0, 57, 64
1, 17987, Control_c, 0, 64, 127
1, 18046, Note_on_c, 0, 62, 58
1, 18049, Note_on_c, 0, 66, 68
1, 18052, Note_on_c, 0, 60, 59
1, 18059, Note_on_c, 0, 74, 0
1, 18107, Note_on_c, 0, 50, 0
1, 18127, Note_on_c, 0, 57, 0
1, 18130, Note_on_c, 0, 71, 82
1, 18138, Note_on_c, 0, 62, 0
1, 18143, Note_on_c, 0, 66, 0
1, 18146, Note_on_c, 0, 60, 0
1, 18149, Note_on_c, 0, 71, 0
1, 18230, Note_on_c, 0, 42, 72
1, 18233, Note_on_c, 0, 61, 85
1, 18236, Note_on_c, 0, 57, 93
1, 18236, Note_on_c, 0, 69, 83
1, 18255, Control_c, 0, 64, 0
1, 18289, Note_on_c, 0, 49, 80
1, 18302, Note_on_c, 0, 42, 0
1, 18309, Control_c, 0, 64, 127
1, 18311, Note_off_c, 0, 61, 0
1, 18318, Note_off_c, 0, 57, 0
1, 18334, Note_on_c, 0, 61, 83
1, 18335, Note_on_c, 0, 57, 95
1, 18336, Note_on_c, 0, 69, 94
1, 18396, Note_on_c, 0, 69, 0
1, 18400, Note_on_c, 0, 49, 0
1, 18400, Note_on_c, 0, 52, 79
1, 18412, Note_on_c, 0, 61, 0
1, 18440, Note_on_c, 0, 57, 91
1, 18444, Note_on_c, 0, 57, 0
1, 18464, Note_on_c, 0, 69, 0
1, 18477, Note_on_c, 0, 52, 0
1, 18483, Note_on_c, 0, 47, 71
1, 18538, Note_on_c, 0, 59, 82
1, 18538, Note_on_c, 0, 63, 82
1, 18542, Note_on_c, 0, 57, 79
1, 18545, Control_c, 0, 64, 0
1, 18579, Note_off_c, 0, 57, 0
1, 18589, Control_c, 0, 64, 127
1, 18612, Note_on_c, 0, 59, 70
1, 18630, Note_on_c, 0, 47, 0
1, 18666, Note_on_c, 0, 59, 0
1, 18687, Note_on_c, 0, 54, 89
1, 18705, Note_on_c, 0, 63, 0
1, 18707, Note_on_c, 0, 67, 41
1, 18717, Note_on_c, 0, 57, 0
1, 18753, Note_on_c, 0, 55, 88
1, 18762, Note_on_c, 0, 59, 0
1, 18762, Note_on_c, 0, 67, 84
1, 18763, Note_on_c, 0, 54, 0
1, 18767, Note_on_c, 0, 67, 0
1, 18770, Note_on_c, 0, 55, 0
1, 18783, Note_on_c, 0, 67, 0
1, 18837, Note_on_c, 0, 40, 79
1, 18840, Note_on_c, 0, 62, 92
1, 18840, Note_on_c, 0, 67, 86
1, 18841, Note_on_c, 0, 71, 86
1, 18842, Note_on_c, 0, 64, 86
1, 18862, Control_c, 0, 64, 0
1, 18896, Note_on_c, 0, 47, 77
1, 18919, Control_c, 0, 64, 127
1, 18926, Note_off_c, 0, 40, 0
1, 18932, Note_off_c, 0, 62, 0
1, 18937, Note_on_c, 0, 52, 77
1, 18945, Note_on_c, 0, 67, 0
1, 18979, Note_on_c, 0, 55, 91
1, 19012, Note_on_c, 0, 71, 0
1, 19019, Note_on_c, 0, 59, 77
1, 19028, Note_on_c, 0, 64, 0
1, 19037, Note_on_c, 0, 47, 0
1, 19038, Note_on_c, 0, 52, 0
1, 19062, Note_on_c, 0, 67, 69
1, 19067, Note_on_c, 0, 62, 49
1, 19076, Note_on_c, 0, 55, 0
1, 19103, Note_on_c, 0, 59, 0
1, 19128, Note_on_c, 0, 64, 77
1, 19129, Note_on_c, 0, 71, 75
1, 19130, Note_on_c, 0, 62, 69
1, 19148, Note_on_c, 0, 67, 0
1, 19156, Note_on_c, 0, 62, 0
1, 19200, Note_on_c, 0, 55, 71
1, 19208, Note_on_c, 0, 64, 0
1, 19218, Note_on_c, 0, 71, 0
1, 19219, Note_on_c, 0, 62, 0
1, 19262, Note_on_c, 0, 62, 41
1, 19264, Note_on_c, 0, 64, 66
1, 19264, Note_on_c, 0, 67, 67
1, 19271, Note_on_c, 0, 55, 0
1, 19272, Note_on_c, 0, 62, 0
1, 19274, Note_on_c, 0, 64, 0
1, 19286, Note_on_c, 0, 67, 0
1, 19355, Note_on_c, 0, 55, 40
1, 19419, Note_on_c, 0, 76, 82
1, 19421, Note_on_c, 0, 70, 86
1, 19423, Note_on_c, 0, 64, 75
1, 19424, Note_on_c, 0, 67, 65
1, 19442, Note_on_c, 0, 55, 0
1, 19457, Control_c, 0, 64, 0
1, 19481, Note_on_c, 0, 49, 71
1, 19520, Note_on_c, 0, 52, 74
1, 19535, Control_c, 0, 64, 127
1, 19545, Note_on_c, 0, 55, 58
1, 19559, Note_on_c, 0, 76, 0
1, 19566, Note_on_c, 0, 70, 0
1, 19570, Note_on_c, 0, 58, 74
1, 19578, Note_on_c, 0, 64, 0
1, 19593, Note_on_c, 0, 67, 0
1, 19603, Note_on_c, 0, 64, 60
1, 19628, Note_on_c, 0, 67, 53
1, 19629, Note_on_c, 0, 49, 0
1, 19656, Note_on_c, 0, 52, 0
1, 19657, Note_on_c, 0, 70, 69
1, 19671, Note_on_c, 0, 55, 0
1, 19693, Note_on_c, 0, 76, 71
1, 19719, Note_on_c, 0, 58, 0
1, 19730, Note_on_c, 0, 79, 59
1, 19757, Note_on_c, 0, 64, 0
1, 19758, Note_on_c, 0, 82, 66
1, 19768, Note_on_c, 0, 67, 0
1, 19796, Note_on_c, 0, 88, 71
1, 19839, Note_on_c, 0, 91, 83
1, 19843, Note_on_c, 0, 70, 0
1, 19862, Note_on_c, 0, 76, 0
1, 19886, Note_on_c, 0, 94, 62
1, 19929, Note_on_c, 0, 79, 0
1, 19936, Note_on_c, 0, 97, 59
1, 19946, Note_on_c, 0, 82, 0
1, 19991, Note_on_c, 0, 100, 59
1, 20040, Note_on_c, 0, 88, 0
1, 20055, Note_on_c, 0, 103, 38
1, 20119, Note_on_c, 0, 91, 0
1, 20129, Note_on_c, 0, 106, 60
1, 20139, Note_on_c, 0, 94, 0
1, 20394, Note_on_c, 0, 97, 0
1, 20438, Note_on_c, 0, 100, 0
1, 20473, Note_on_c, 0, 103, 0
1, 20486, Note_on_c, 0, 106, 0
1, 20564, Note_on_c, 0, 59, 91
1, 20609, Note_on_c, 0, 59, 0
1, 20629, Note_on_c, 0, 62, 92
1, 20673, Note_on_c, 0, 62, 0
1, 20687, Note_on_c, 0, 59, 92
1, 20935, Note_on_c, 0, 47, 60
1, 20964, Note_on_c, 0, 54, 57
1, 21009, Note_on_c, 0, 57, 21
1, 21023, Control_c, 0, 64, 0
1, 21041, Note_on_c, 0, 62, 68
1, 21071, Note_on_c, 0, 59, 0
1, 21093, Control_c, 0, 64, 127
1, 21110, Note_on_c, 0, 62, 62
1, 21137, Note_on_c, 0, 47, 0
1, 21183, Note_on_c, 0, 62, 53
1, 21189, Note_on_c, 0, 54, 0
1, 21195, Note_on_c, 0, 57, 0
1, 21208, Note_on_c, 0, 62, 0
1, 21399, Control_c, 0, 64, 0
1, 21412, Note_on_c, 0, 44, 58
1, 21415, Note_on_c, 0, 53, 58
1, 21500, Control_c, 0, 64, 127
1, 21524, Note_off_c, 0, 62, 0
1, 21536, Note_off_c, 0, 62, 0
1, 21571, Note_on_c, 0, 59, 97
1, 21605, Note_on_c, 0, 44, 0
1, 21640, Note_on_c, 0, 62, 94
1, 21675, Note_on_c, 0, 53, 0
1, 21680, Note_on_c, 0, 59, 0
1, 21700, Note_on_c, 0, 62, 0
1, 21709, Note_on_c, 0, 59, 83
1, 21731, Note_on_c, 0, 59, 0
1, 21743, Note_on_c, 0, 45, 67
1, 21773, Note_on_c, 0, 52, 59
1, 21788, Note_on_c, 0, 62, 72
1, 21788, Note_on_c, 0, 55, 67
1, 21791, Control_c, 0, 64, 0
1, 21791, Note_on_c, 0, 60, 70
1, 21844, Note_on_c, 0, 45, 0
1, 21851, Control_c, 0, 64, 127
1, 21874, Note_on_c, 0, 62, 72
1, 21906, Note_on_c, 0, 52, 0
1, 21958, Note_on_c, 0, 62, 72
1, 21964, Note_on_c, 0, 62, 0
1, 21977, Note_on_c, 0, 55, 0
1, 22028, Note_on_c, 0, 60, 0
1, 22053, Note_on_c, 0, 62, 0
1, 22060, Note_on_c, 0, 45, 56
1, 22177, Note_on_c, 0, 38, 50
1, 22184, Note_on_c, 0, 54, 48
1, 22185, Note_on_c, 0, 62, 0
1, 22203, Control_c, 0, 64, 0
1, 22250, Control_c, 0, 64, 127
1, 22272, Note_off_c, 0, 45, 0
1, 22287, Note_off_c, 0, 38, 0
1, 22303, Note_on_c, 0, 45, 54
1, 22332, Note_on_c, 0, 54, 0
1, 22334, Note_on_c, 0, 45, 0
1, 22562, Note_on_c, 0, 44, 58
1, 22570, Note_on_c, 0, 60, 54
1, 22570, Note_on_c, 0, 71, 51
1, 22571, Note_on_c, 0, 54, 54
1, 22572, Note_on_c, 0, 66, 56
1, 22573, Note_on_c, 0, 63, 59
1, 22578, Control_c, 0, 64, 0
1, 22692, Control_c, 0, 64, 127
1, 22895, Note_off_c, 0, 44, 0
1, 22901, Note_off_c, 0, 60, 0
1, 22909, Note_off_c, 0, 71, 0
1, 22920, Note_off_c, 0, 54, 0
1, 22924, Note_off_c, 0, 66, 0
1, 22975, Note_off_c, 0, 63, 0
1, 23121, Note_on_c, 0, 43, 63
1, 23139, Note_on_c, 0, 57, 57
1, 23139, Note_on_c, 0, 59, 57
1, 23142, Note_on_c, 0, 67, 53
1, 23144, Note_on_c, 0, 62, 55
1, 23145, Note_on_c, 0, 64, 63
1, 23150, Control_c, 0, 64, 0
1, 23229, Control_c, 0, 64, 127
1, 23254, Note_on_c, 0, 52, 52
1, 23270, Note_on_c, 0, 43, 0
1, 23283, Note_on_c, 0, 57, 0
1, 23283, Note_on_c, 0, 59, 0
1, 23510, Note_on_c, 0, 67, 0
1, 23613, Note_on_c, 0, 59, 29
1, 23708, Note_on_c, 0, 43, 39
1, 23734, Note_on_c, 0, 62, 0
1, 23735, Note_on_c, 0, 64, 0
1, 23737, Note_on_c, 0, 52, 0
1, 23753, Note_on_c, 0, 59, 0
1, 23805, Note_on_c, 0, 50, 50
1, 23876, Note_on_c, 0, 43, 0
1, 23903, Note_on_c, 0, 55, 35
1, 23904, Note_on_c, 0, 59, 44
1, 23906, Note_on_c, 0, 64, 42
1, 23908, Note_on_c, 0, 62, 43
1, 23930, Note_on_c, 0, 50, 0
1, 23935, Note_on_c, 0, 55, 0
1, 23980, Note_on_c, 0, 55, 44
1, 23981, Note_on_c, 0, 59, 0
1, 23994, Note_on_c, 0, 64, 0
1, 23996, Note_on_c, 0, 62, 0
1, 24005, Note_on_c, 0, 55, 0
1, 24055, Note_on_c, 0, 45, 49
1, 24098, Control_c, 0, 64, 0
1, 24102, Note_on_c, 0, 54, 62
1, 24105, Note_on_c, 0, 58, 67
1, 24108, Note_on_c, 0, 62, 50
1, 24160, Note_on_c, 0, 45, 0
1, 24164, Note_on_c, 0, 38, 56
1, 24179, Control_c, 0, 64, 127
1, 24200, Note_on_c, 0, 45, 64
1, 24211, Note_on_c, 0, 54, 0
1, 24219, Note_on_c, 0, 58, 0
1, 24225, Note_on_c, 0, 62, 0
1, 24228, Note_on_c, 0, 50, 53
1, 24239, Note_on_c, 0, 38, 0
1, 24239, Note_on_c, 0, 45, 0
1, 24252, Note_on_c, 0, 50, 0
1, 24255, Note_on_c, 0, 54, 57
1, 24282, Note_on_c, 0, 58, 62
1, 24283, Note_on_c, 0, 54, 0
1, 24314, Note_on_c, 0, 62, 46
1, 24316, Note_on_c, 0, 58, 0
1, 24331, Note_on_c, 0, 62, 0
1, 24331, Note_on_c, 0, 66, 68
1, 24373, Note_on_c, 0, 70, 65
1, 24397, Note_on_c, 0, 66, 0
1, 24400, Note_on_c, 0, 78, 66
1, 24403, Note_on_c, 0, 70, 0
1, 24432, Note_on_c, 0, 78, 0
1, 24478, Note_on_c, 0, 90, 52
1, 24504, Note_on_c, 0, 90, 0
1, 24508, Note_on_c, 0, 94, 58
1, 24549, Note_on_c, 0, 98, 72
1, 24552, Note_on_c, 0, 94, 0
1, 24558, Note_on_c, 0, 98, 0
1, 24738, Note_on_c, 0, 59, 95
1, 24779, Note_on_c, 0, 59, 0
1, 24800, Note_on_c, 0, 62, 84
1, 24855, Note_on_c, 0, 59, 67
1, 24856, Note_on_c, 0, 62, 0
1, 24864, Note_on_c, 0, 59, 0
1, 24868, Note_on_c, 0, 43, 69
1, 24910, Note_on_c, 0, 50, 61
1, 24914, Control_c, 0, 64, 0
1, 24929, Note_on_c, 0, 54, 68
1, 24932, Note_on_c, 0, 62, 62
1, 24935, Note_on_c, 0, 57, 72
1, 24935, Note_on_c, 0, 59, 60
1, 24984, Control_c, 0, 64, 127
1, 25009, Note_off_c, 0, 43, 0
1, 25016, Note_off_c, 0, 50, 0
1, 25026, Note_on_c, 0, 62, 10
1, 25053, Note_on_c, 0, 54, 0
1, 25058, Note_on_c, 0, 62, 0
1, 25058, Note_on_c, 0, 57, 0
1, 25075, Note_on_c, 0, 59, 0
1, 25126, Note_on_c, 0, 54, 94
1, 25126, Note_on_c, 0, 62, 85
1, 25128, Note_on_c, 0, 57, 86
1, 25130, Note_on_c, 0, 59, 73
1, 25135, Note_on_c, 0, 62, 0
1, 25136, Note_on_c, 0, 54, 0
1, 25138, Note_on_c, 0, 62, 0
1, 25143, Note_on_c, 0, 57, 0
1, 25155, Note_on_c, 0, 59, 0
1, 25235, Note_on_c, 0, 52, 77
1, 25237, Note_on_c, 0, 57, 90
1, 25239, Note_on_c, 0, 55, 88
1, 25239, Note_on_c, 0, 62, 80
1, 25241, Note_on_c, 0, 43, 67
1, 25241, Note_on_c, 0, 50, 70
1, 25244, Note_on_c, 0, 59, 77
1, 25262, Control_c, 0, 64, 0
1, 25341, Control_c, 0, 64, 127
1, 25380, Note_off_c, 0, 52, 0
1, 25429, Note_off_c, 0, 57, 0
1, 25486, Note_off_c, 0, 55, 0
1, 25509, Note_off_c, 0, 62, 0
1, 25509, Note_off_c, 0, 43, 0
1, 25511, Note_off_c, 0, 50, 0
1, 25513, Note_on_c, 0, 55, 69
1, 25567, Note_on_c, 0, 59, 0
1, 25615, Note_on_c, 0, 43, 66
1, 25684, Note_on_c, 0, 50, 56
1, 25687, Note_on_c, 0, 54, 58
1, 25689, Note_on_c, 0, 59, 58
1, 25690, Note_on_c, 0, 57, 66
1, 25695, Control_c, 0, 64, 0
1, 25758, Control_c, 0, 64, 127
1, 25788, Note_off_c, 0, 55, 0
1, 25802, Note_off_c, 0, 43, 0
1, 25804, Note_off_c, 0, 50, 0
1, 25813, Note_off_c, 0, 54, 0
1, 25886, Note_on_c, 0, 50, 53
1, 25887, Note_on_c, 0, 54, 53
1, 25889, Note_on_c, 0, 59, 54
1, 25891, Note_on_c, 0, 57, 60
1, 25921, Note_on_c, 0, 59, 0
1, 25928, Note_on_c, 0, 57, 0
1, 25950, Note_on_c, 0, 50, 0
1, 25951, Note_on_c, 0, 54, 0
1, 25970, Note_on_c, 0, 59, 0
1, 26003, Note_on_c, 0, 43, 60
1, 26075, Note_on_c, 0, 57, 0
1, 26075, Note_on_c, 0, 50, 73
1, 26076, Note_on_c, 0, 55, 74
1, 26077, Note_on_c, 0, 59, 73
1, 26082, Control_c, 0, 64, 0
1, 26114, Control_c, 0, 64, 127
1, 26166, Note_off_c, 0, 43, 0
1, 26170, Note_off_c, 0, 50, 0
1, 26175, Note_off_c, 0, 55, 0
1, 26190, Note_on_c, 0, 55, 82
1, 26192, Note_on_c, 0, 62, 95
1, 26258, Note_on_c, 0, 50, 82
1, 26268, Note_on_c, 0, 59, 0
1, 26280, Note_on_c, 0, 55, 0
1, 26296, Note_on_c, 0, 62, 0
1, 26325, Note_on_c, 0, 50, 0
1, 26325, Note_on_c, 0, 59, 82
1, 26341, Note_on_c, 0, 59, 0
1, 26387, Note_on_c, 0, 38, 74
1, 26423, Note_on_c, 0, 38, 0
1, 26426, Control_c, 0, 64, 0
1, 26446, Note_on_c, 0, 64, 80
1, 26447, Note_on_c, 0, 55, 77
1, 26447, Note_on_c, 0, 59, 76
1, 26448, Note_on_c, 0, 31, 74
1, 26481, Control_c, 0, 64, 127
1, 26497, Note_off_c, 0, 64, 0
1, 26499, Note_off_c, 0, 55, 0
1, 26506, Note_on_c, 0, 66, 78
1, 26538, Note_on_c, 0, 59, 0
1, 26548, Note_on_c, 0, 31, 0
1, 26552, Note_on_c, 0, 66, 0
1, 26566, Note_on_c, 0, 59, 82
1, 26566, Note_on_c, 0, 64, 78
1, 26567, Note_on_c, 0, 55, 79
1, 26642, Note_on_c, 0, 43, 75
1, 26684, Note_on_c, 0, 50, 78
1, 26703, Note_on_c, 0, 59, 0
1, 26715, Note_on_c, 0, 64, 0
1, 26723, Note_on_c, 0, 52, 63
1, 26731, Note_on_c, 0, 55, 0
1, 26737, Note_on_c, 0, 55, 56
1, 26761, Note_on_c, 0, 43, 0
1, 26761, Note_on_c, 0, 59, 53
1, 26788, Note_on_c, 0, 50, 0
1, 26791, Note_on_c, 0, 62, 46
1, 26800, Note_on_c, 0, 64, 74
1, 26809, Note_on_c, 0, 52, 0
1, 26809, Note_on_c, 0, 55, 0
1, 26834, Note_on_c, 0, 67, 74
1, 26856, Note_on_c, 0, 59, 0
1, 26869, Note_on_c, 0, 71, 34
1, 26880, Note_on_c, 0, 62, 0
1, 26883, Note_on_c, 0, 74, 62
1, 26896, Note_on_c, 0, 64, 0
1, 26925, Note_on_c, 0, 79, 71
1, 26943, Note_on_c, 0, 67, 0
1, 26952, Note_on_c, 0, 83, 60
1, 26953, Note_on_c, 0, 71, 0
1, 26974, Note_on_c, 0, 86, 51
1, 26975, Note_on_c, 0, 74, 0
1, 26988, Note_on_c, 0, 79, 0
1, 27003, Note_on_c, 0, 52, 58
1, 27019, Note_on_c, 0, 91, 63
1, 27022, Note_on_c, 0, 93, 74
1, 27030, Note_on_c, 0, 83, 0
1, 27034, Note_on_c, 0, 86, 0
1, 27057, Note_on_c, 0, 100, 71
1, 27065, Note_on_c, 0, 52, 0
1, 27091, Note_on_c, 0, 103, 85
1, 27115, Note_on_c, 0, 91, 0
1, 27130, Note_on_c, 0, 107, 83
1, 27146, Note_on_c, 0, 93, 0
1, 27155, Note_on_c, 0, 100, 0
1, 27155, Note_on_c, 0, 103, 0
1, 27205, Note_on_c, 0, 43, 54
1, 27206, Note_on_c, 0, 107, 0
1, 27274, Note_on_c, 0, 50, 52
1, 27331, Note_on_c, 0, 55, 63
1, 27396, Note_on_c, 0, 43, 0
1, 27397, Note_on_c, 0, 59, 67
1, 27458, Note_on_c, 0, 50, 0
1, 27465, Note_on_c, 0, 55, 0
1, 27466, Note_on_c, 0, 62, 61
1, 27467, Note_on_c, 0, 59, 0
1, 27516, Note_on_c, 0, 62, 0
1, 27525, Note_on_c, 0, 63, 59
1, 27537, Note_on_c, 0, 63, 0
1, 27550, Note_on_c, 0, 45, 59
1, 27551, Note_on_c, 0, 43, 51
1, 27561, Note_on_c, 0, 45, 0
1, 27571, Note_on_c, 0, 52, 61
1, 27590, Control_c, 0, 64, 0
1, 27594, Note_on_c, 0, 55, 54
1, 27597, Note_on_c, 0, 62, 63
1, 27600, Note_on_c, 0, 63, 45
1, 27609, Note_on_c, 0, 64, 88
1, 27610, Note_on_c, 0, 43, 0
1, 27618, Note_on_c, 0, 52, 0
1, 27687, Control_c, 0, 64, 127
1, 27696, Note_off_c, 0, 55, 0
1, 27708, Note_on_c, 0, 67, 94
1, 27713, Note_on_c, 0, 62, 0
1, 27779, Note_on_c, 0, 55, 58
1, 27807, Note_on_c, 0, 63, 0
1, 27818, Note_on_c, 0, 64, 0
1, 27830, Note_on_c, 0, 67, 0
1, 27847, Note_on_c, 0, 64, 73
1, 27864, Note_on_c, 0, 55, 0
1, 27867, Note_on_c, 0, 64, 0
1, 27909, Note_on_c, 0, 43, 71
1, 27968, Note_on_c, 0, 59, 53
1, 27968, Note_on_c, 0, 67, 57
1, 27969, Note_on_c, 0, 62, 65
1, 27970, Note_on_c, 0, 55, 67
1, 27971, Note_on_c, 0, 64, 65
1, 27976, Control_c, 0, 64, 0
1, 28031, Note_off_c, 0, 43, 0
1, 28033, Control_c, 0, 64, 127
1, 28063, Note_off_c, 0, 59, 0
1, 28100, Note_on_c, 0, 59, 66
1, 28164, Note_on_c, 0, 67, 0
1, 28164, Note_on_c, 0, 55, 77
1, 28167, Note_on_c, 0, 62, 0
1, 28204, Note_on_c, 0, 55, 0
1, 28216, Note_on_c, 0, 64, 0
1, 28224, Note_on_c, 0, 64, 82
1, 28262, Note_on_c, 0, 59, 0
1, 28275, Note_on_c, 0, 55, 0
1, 28281, Note_on_c, 0, 45, 84
1, 28301, Note_on_c, 0, 64, 0
1, 28342, Note_on_c, 0, 55, 79
1, 28350, Note_on_c, 0, 64, 87
1, 28351, Note_on_c, 0, 67, 77
1, 28361, Control_c, 0, 64, 0
1, 28429, Control_c, 0, 64, 127
1, 28469, Note_on_c, 0, 60, 54
1, 28474, Note_on_c, 0, 45, 0
1, 28540, Note_on_c, 0, 55, 66
1, 28551, Note_on_c, 0, 55, 0
1, 28576, Note_on_c, 0, 64, 0
1, 28588, Note_on_c, 0, 67, 0
1, 28611, Note_on_c, 0, 64, 65
1, 28625, Note_on_c, 0, 60, 0
1, 28626, Note_on_c, 0, 55, 0
1, 28632, Note_on_c, 0, 64, 0
1, 28669, Note_on_c, 0, 46, 68
1, 28718, Note_on_c, 0, 55, 66
1, 28722, Note_on_c, 0, 58, 68
1, 28724, Note_on_c, 0, 61, 67
1, 28725, Note_on_c, 0, 67, 61
1, 28725, Note_on_c, 0, 64, 69
1, 28730, Control_c, 0, 64, 0
1, 28788, Control_c, 0, 64, 127
1, 28841, Note_off_c, 0, 46, 0
1, 28927, Note_off_c, 0, 55, 0
1, 28931, Note_on_c, 0, 55, 63
1, 28990, Note_on_c, 0, 58, 67
1, 28993, Note_on_c, 0, 58, 0
1, 28997, Note_on_c, 0, 61, 0
1, 29020, Note_on_c, 0, 67, 0
1, 29027, Note_on_c, 0, 64, 0
1, 29047, Note_on_c, 0, 47, 69
1, 29049, Note_on_c, 0, 55, 0
1, 29108, Note_on_c, 0, 59, 74
1, 29109, Note_on_c, 0, 64, 77
1, 29109, Note_on_c, 0, 62, 77
1, 29111, Note_on_c, 0, 55, 80
1, 29129, Control_c, 0, 64, 0
1, 29163, Note_off_c, 0, 58, 0
1, 29167, Note_off_c, 0, 47, 0
1, 29174, Note_off_c, 0, 59, 0
1, 29178, Control_c, 0, 64, 127
1, 29200, Note_off_c, 0, 64, 0
1, 29224, Note_on_c, 0, 67, 94
1, 29224, Note_on_c, 0, 59, 88
1, 29225, Note_on_c, 0, 62, 88
1, 29225, Note_on_c, 0, 64, 92
1, 29233, Note_on_c, 0, 62, 0
1, 29293, Note_on_c, 0, 55, 0
1, 29303, Note_on_c, 0, 55, 83
1, 29306, Note_on_c, 0, 67, 0
1, 29309, Note_on_c, 0, 59, 0
1, 29316, Note_on_c, 0, 62, 0
1, 29324, Note_on_c, 0, 64, 0
1, 29338, Note_on_c, 0, 55, 0
1, 29362, Note_on_c, 0, 64, 95
1, 29409, Note_on_c, 0, 64, 0
1, 29417, Note_on_c, 0, 67, 83
1, 29423, Note_on_c, 0, 47, 74
1, 29434, Note_on_c, 0, 67, 0
1, 29463, Note_on_c, 0, 47, 0
1, 29479, Control_c, 0, 64, 0
1, 29481, Note_on_c, 0, 40, 71
1, 29483, Note_on_c, 0, 67, 82
1, 29483, Note_on_c, 0, 71, 87
1, 29484, Note_on_c, 0, 64, 82
1, 29485, Note_on_c, 0, 62, 93
1, 29525, Control_c, 0, 64, 127
1, 29535, Note_off_c, 0, 40, 0
1, 29543, Note_off_c, 0, 67, 0
1, 29547, Note_on_c, 0, 69, 84
1, 29549, Note_on_c, 0, 71, 0
1, 29554, Note_on_c, 0, 64, 0
1, 29559, Note_on_c, 0, 62, 0
1, 29579, Note_on_c, 0, 69, 0
1, 29601, Note_on_c, 0, 67, 92
1, 29602, Note_on_c, 0, 71, 91
1, 29602, Note_on_c, 0, 62, 91
1, 29603, Note_on_c, 0, 64, 83
1, 29644, Control_c, 0, 64, 0
1, 29666, Note_on_c, 0, 50, 84
1, 29725, Note_on_c, 0, 52, 68
1, 29741, Control_c, 0, 64, 127
1, 29778, Note_off_c, 0, 67, 0
1, 29789, Note_on_c, 0, 55, 65
1, 29808, Note_on_c, 0, 71, 0
1, 29812, Note_on_c, 0, 62, 0
1, 29843, Note_on_c, 0, 59, 73
1, 29883, Note_on_c, 0, 62, 67
1, 29911, Note_on_c, 0, 64, 0
1, 29911, Note_on_c, 0, 64, 65
1, 29914, Note_on_c, 0, 50, 0
1, 29921, Note_on_c, 0, 52, 0
1, 29944, Note_on_c, 0, 67, 69
1, 29953, Note_on_c, 0, 55, 0
1, 29975, Note_on_c, 0, 59, 0
1, 29981, Note_on_c, 0, 74, 80
1, 30011, Note_on_c, 0, 62, 0
1, 30011, Note_on_c, 0, 76, 61
1, 30035, Note_on_c, 0, 79, 63
1, 30036, Note_on_c, 0, 64, 0
1, 30044, Note_on_c, 0, 67, 0
1, 30049, Note_on_c, 0, 59, 54
1, 30076, Note_on_c, 0, 86, 67
1, 30077, Note_on_c, 0, 74, 0
1, 30084, Note_on_c, 0, 76, 0
1, 30091, Note_on_c, 0, 79, 0
1, 30094, Note_on_c, 0, 59, 0
1, 30099, Note_on_c, 0, 88, 67
1, 30101, Note_on_c, 0, 86, 0
1, 30123, Note_on_c, 0, 91, 83
1, 30124, Note_on_c, 0, 88, 0
1, 30136, Note_on_c, 0, 91, 0
1, 30162, Note_on_c, 0, 98, 86
1, 30186, Note_on_c, 0, 100, 74
1, 30193, Note_on_c, 0, 98, 0
1, 30200, Note_on_c, 0, 103, 77
1, 30207, Note_on_c, 0, 100, 0
1, 30217, Note_on_c, 0, 105, 82
1, 30231, Note_on_c, 0, 103, 0
1, 30236, Note_on_c, 0, 107, 102
1, 30242, Note_on_c, 0, 105, 0
1, 30247, Note_on_c, 0, 45, 69
1, 30251, Note_on_c, 0, 107, 0
1, 30256, Control_c, 0, 64, 0
1, 30272, Control_c, 0, 64, 127
1, 30313, Note_on_c, 0, 49, 52
1, 30319, Note_on_c, 0, 45, 0
1, 30369, Note_on_c, 0, 52, 52
1, 30426, Note_on_c, 0, 49, 0
1, 30428, Note_on_c, 0, 52, 0
1, 30432, Note_on_c, 0, 55, 66
1, 30441, Note_on_c, 0, 55, 0
1, 30495, Note_on_c, 0, 61, 42
1, 30564, Note_on_c, 0, 64, 36
1, 30603, Note_on_c, 0, 61, 0
1, 30632, Note_on_c, 0, 64, 50
1, 30658, Note_on_c, 0, 64, 0
1, 30727, Note_on_c, 0, 64, 0
1, 30748, Note_on_c, 0, 67, 42
1, 30757, Note_on_c, 0, 67, 0
1, 30823, Note_on_c, 0, 61, 71
1, 30840, Note_on_c, 0, 71, 88
1, 30847, Note_on_c, 0, 61, 0
1, 30874, Note_on_c, 0, 71, 0
1, 30892, Note_on_c, 0, 74, 114
1, 30933, Note_on_c, 0, 74, 0
1, 30943, Note_on_c, 0, 71, 84
1, 30967, Note_on_c, 0, 52, 68
1, 30981, Note_on_c, 0, 71, 0
1, 30997, Note_on_c, 0, 52, 0
1, 31005, Note_on_c, 0, 45, 74
1, 31005, Note_on_c, 0, 74, 102
1, 31012, Control_c, 0, 64, 0
1, 31050, Control_c, 0, 64, 127
1, 31051, Note_on_c, 0, 52, 71
1, 31066, Note_on_c, 0, 45, 0
1, 31072, Note_on_c, 0, 74, 0
1, 31111, Note_on_c, 0, 57, 100
1, 31152, Note_on_c, 0, 60, 82
1, 31191, Note_on_c, 0, 64, 94
1, 31204, Note_on_c, 0, 52, 0
1, 31214, Note_on_c, 0, 57, 0
1, 31222, Note_on_c, 0, 60, 0
1, 31223, Note_on_c, 0, 64, 0
1, 31236, Note_on_c, 0, 67, 87
1, 31261, Note_on_c, 0, 67, 0
1, 31277, Note_on_c, 0, 69, 87
1, 31304, Note_on_c, 0, 69, 0
1, 31318, Note_on_c, 0, 71, 69
1, 31330, Note_on_c, 0, 45, 75
1, 31354, Note_on_c, 0, 71, 0
1, 31355, Note_on_c, 0, 45, 0
1, 31371, Note_on_c, 0, 62, 82
1, 31371, Note_on_c, 0, 66, 81
1, 31373, Note_on_c, 0, 74, 90
1, 31375, Note_on_c, 0, 38, 76
1, 31375, Note_on_c, 0, 69, 82
1, 31383, Control_c, 0, 64, 0
1, 31432, Control_c, 0, 64, 127
1, 31459, Note_off_c, 0, 62, 0
1, 31466, Note_off_c, 0, 66, 0
1, 31478, Note_on_c, 0, 50, 72
1, 31487, Note_on_c, 0, 74, 0
1, 31505, Note_on_c, 0, 62, 66
1, 31507, Note_on_c, 0, 38, 0
1, 31509, Note_on_c, 0, 69, 0
1, 31511, Note_on_c, 0, 50, 0
1, 31531, Note_on_c, 0, 62, 0
1, 31574, Note_on_c, 0, 54, 98
1, 31594, Note_on_c, 0, 54, 0
1, 31641, Note_on_c, 0, 62, 91
1, 31641, Note_on_c, 0, 66, 89
1, 31643, Note_on_c, 0, 71, 85
1, 31660, Note_on_c, 0, 62, 0
1, 31662, Note_on_c, 0, 66, 0
1, 31666, Note_on_c, 0, 71, 0
1, 31694, Note_on_c, 0, 42, 79
1, 31756, Note_on_c, 0, 61, 83
1, 31757, Note_on_c, 0, 52, 68
1, 31758, Note_on_c, 0, 57, 82
1, 31758, Note_on_c, 0, 69, 83
1, 31764, Control_c, 0, 64, 0
1, 31806, Note_off_c, 0, 42, 0
1, 31815, Control_c, 0, 64, 127
1, 31824, Note_on_c, 0, 67, 56
1, 31887, Note_on_c, 0, 69, 82
1, 31898, Note_on_c, 0, 61, 0
1, 31909, Note_on_c, 0, 52, 0
1, 31951, Note_on_c, 0, 52, 55
1, 31968, Note_on_c, 0, 57, 0
1, 31980, Note_on_c, 0, 69, 0
1, 32016, Note_on_c, 0, 57, 74
1, 32045, Note_on_c, 0, 67, 0
1, 32060, Note_on_c, 0, 69, 0
1, 32070, Note_on_c, 0, 52, 0
1, 32076, Note_on_c, 0, 35, 63
1, 32139, Note_on_c, 0, 47, 56
1, 32140, Note_on_c, 0, 66, 59
1, 32142, Note_on_c, 0, 57, 63
1, 32144, Note_on_c, 0, 63, 65
1, 32147, Control_c, 0, 64, 0
1, 32196, Control_c, 0, 64, 127
1, 32219, Note_off_c, 0, 57, 0
1, 32253, Note_off_c, 0, 35, 0
1, 32265, Note_on_c, 0, 57, 77
1, 32332, Note_on_c, 0, 47, 87
1, 32333, Note_on_c, 0, 47, 0
1, 32333, Note_on_c, 0, 66, 0
1, 32335, Note_on_c, 0, 57, 0
1, 32342, Note_on_c, 0, 63, 0
1, 32353, Note_on_c, 0, 57, 0
1, 32383, Note_on_c, 0, 47, 0
1, 32393, Note_on_c, 0, 57, 86
1, 32395, Note_on_c, 0, 63, 75
1, 32396, Note_on_c, 0, 67, 70
1, 32402, Note_on_c, 0, 57, 0
1, 32410, Note_on_c, 0, 63, 0
1, 32415, Note_on_c, 0, 67, 0
1, 32465, Note_on_c, 0, 40, 85
1, 32507, Control_c, 0, 64, 0
1, 32517, Note_on_c, 0, 47, 79
1, 32518, Note_on_c, 0, 62, 88
1, 32518, Note_on_c, 0, 64, 85
1, 32519, Note_on_c, 0, 71, 81
1, 32520, Note_on_c, 0, 67, 83
1, 32555, Control_c, 0, 64, 127
1, 32585, Note_off_c, 0, 40, 0
1, 32592, Note_off_c, 0, 47, 0
1, 32594, Note_off_c, 0, 62, 0
1, 32656, Note_on_c, 0, 62, 67
1, 32714, Note_on_c, 0, 52, 80
1, 32744, Note_on_c, 0, 64, 0
1, 32745, Note_on_c, 0, 71, 0
1, 32748, Note_on_c, 0, 67, 0
1, 32780, Note_on_c, 0, 55, 62
1, 32834, Note_on_c, 0, 62, 0
1, 32834, Note_on_c, 0, 67, 64
1, 32837, Note_on_c, 0, 62, 58
1, 32839, Note_on_c, 0, 64, 59
1, 32913, Note_on_c, 0, 59, 57
1, 32917, Note_on_c, 0, 71, 69
1, 32928, Note_on_c, 0, 52, 0
1, 32953, Note_on_c, 0, 55, 0
1, 32974, Note_on_c, 0, 67, 0
1, 33021, Note_on_c, 0, 62, 0
1, 33026, Note_on_c, 0, 62, 63
1, 33029, Note_on_c, 0, 64, 0
1, 33096, Note_on_c, 0, 55, 57
1, 33109, Note_on_c, 0, 59, 0
1, 33115, Note_on_c, 0, 71, 0
1, 33157, Note_on_c, 0, 67, 58
1, 33165, Note_on_c, 0, 62, 0
1, 33169, Note_on_c, 0, 55, 0
1, 33179, Note_on_c, 0, 67, 0
1, 33219, Note_on_c, 0, 39, 67
1, 33280, Note_on_c, 0, 51, 61
1, 33281, Note_on_c, 0, 58, 69
1, 33282, Note_on_c, 0, 61, 67
1, 33283, Note_on_c, 0, 63, 70
1, 33284, Note_on_c, 0, 66, 58
1, 33288, Control_c, 0, 64, 0
1, 33359, Control_c, 0, 64, 127
1, 33404, Note_off_c, 0, 39, 0
1, 33449, Note_off_c, 0, 51, 0
1, 33473, Note_on_c, 0, 51, 62
1, 33480, Note_on_c, 0, 58, 0
1, 33492, Note_on_c, 0, 61, 0
1, 33536, Note_on_c, 0, 58, 67
1, 33575, Note_on_c, 0, 63, 0
1, 33583, Note_on_c, 0, 66, 0
1, 33590, Note_on_c, 0, 63, 59
1, 33631, Note_on_c, 0, 51, 0
1, 33635, Note_on_c, 0, 66, 53
1, 33636, Note_on_c, 0, 58, 0
1, 33647, Note_on_c, 0, 63, 0
1, 33681, Note_on_c, 0, 70, 70
1, 33685, Note_on_c, 0, 51, 47
1, 33717, Note_on_c, 0, 66, 0
1, 33733, Note_on_c, 0, 75, 62
1, 33769, Note_on_c, 0, 70, 0
1, 33778, Note_on_c, 0, 51, 0
1, 33788, Note_on_c, 0, 78, 63
1, 33797, Note_on_c, 0, 75, 0
1, 33845, Note_on_c, 0, 51, 71
1, 33908, Note_on_c, 0, 66, 71
1, 33930, Note_on_c, 0, 78, 0
1, 33935, Note_on_c, 0, 51, 0
1, 33938, Note_on_c, 0, 66, 0
1, 33945, Note_on_c, 0, 65, 59
1, 33956, Note_on_c, 0, 65, 0
1, 33960, Note_on_c, 0, 64, 74
1, 33996, Note_on_c, 0, 63, 88
1, 34002, Note_on_c, 0, 64, 0
1, 34023, Note_on_c, 0, 63, 0
1, 34034, Note_on_c, 0, 62, 82
1, 34034, Note_on_c, 0, 47, 66
1, 34053, Control_c, 0, 64, 0
1, 34108, Control_c, 0, 64, 127
1, 34109, Note_on_c, 0, 54, 60
1, 34151, Note_on_c, 0, 62, 0
1, 34173, Note_on_c, 0, 59, 84
1, 34243, Note_on_c, 0, 57, 74
1, 34279, Note_on_c, 0, 47, 0
1, 34288, Note_on_c, 0, 54, 0
1, 34308, Note_on_c, 0, 59, 0
1, 34310, Note_on_c, 0, 57, 0
1, 34362, Note_on_c, 0, 46, 68
1, 34423, Note_on_c, 0, 59, 74
1, 34425, Note_on_c, 0, 62, 73
1, 34426, Note_on_c, 0, 54, 64
1, 34439, Control_c, 0, 64, 0
1, 34494, Control_c, 0, 64, 127
1, 34506, Note_off_c, 0, 46, 0
1, 34507, Note_off_c, 0, 59, 0
1, 34542, Note_off_c, 0, 62, 0
1, 34548, Note_on_c, 0, 62, 66
1, 34549, Note_on_c, 0, 59, 60
1, 34610, Note_on_c, 0, 54, 61
1, 34644, Note_on_c, 0, 54, 0
1, 34659, Note_on_c, 0, 62, 0
1, 34675, Note_on_c, 0, 59, 0
1, 34678, Note_on_c, 0, 64, 66
1, 34680, Note_on_c, 0, 54, 0
1, 34717, Note_on_c, 0, 64, 0
1, 34739, Note_on_c, 0, 45, 60
1, 34793, Note_on_c, 0, 54, 69
1, 34794, Note_on_c, 0, 57, 83
1, 34795, Note_on_c, 0, 66, 67
1, 34796, Note_on_c, 0, 62, 68
1, 34805, Control_c, 0, 64, 0
1, 34863, Control_c, 0, 64, 127
1, 34920, Note_off_c, 0, 45, 0
1, 34994, Note_on_c, 0, 54, 62
1, 35000, Note_on_c, 0, 54, 0
1, 35000, Note_on_c, 0, 57, 0
1, 35017, Note_on_c, 0, 66, 0
1, 35040, Note_on_c, 0, 62, 0
1, 35046, Note_on_c, 0, 66, 48
1, 35049, Note_on_c, 0, 54, 0
1, 35049, Note_on_c, 0, 61, 50
1, 35051, Note_on_c, 0, 57, 53
1, 35080, Note_on_c, 0, 66, 0
1, 35081, Note_on_c, 0, 61, 0
1, 35109, Note_on_c, 0, 44, 63
1, 35140, Note_on_c, 0, 57, 0
1, 35183, Note_on_c, 0, 59, 78
1, 35183, Note_on_c, 0, 55, 59
1, 35184, Note_on_c, 0, 66, 71
1, 35185, Note_on_c, 0, 61, 72
1, 35194, Control_c, 0, 64, 0
1, 35243, Control_c, 0, 64, 127
1, 35258, Note_off_c, 0, 44, 0
1, 35264, Note_off_c, 0, 59, 0
1, 35283, Note_off_c, 0, 55, 0
1, 35296, Note_on_c, 0, 61, 91
1, 35297, Note_on_c, 0, 58, 98
1, 35298, Note_on_c, 0, 67, 86
1, 35302, Note_on_c, 0, 66, 0
1, 35372, Note_on_c, 0, 53, 74
1, 35377, Note_on_c, 0, 61, 0
1, 35378, Note_on_c, 0, 61, 0
1, 35386, Note_on_c, 0, 58, 0
1, 35426, Note_on_c, 0, 58, 96
1, 35426, Note_on_c, 0, 61, 84
1, 35430, Note_on_c, 0, 64, 77
1, 35433, Note_on_c, 0, 67, 66
1, 35442, Note_on_c, 0, 67, 0
1, 35459, Note_on_c, 0, 53, 0
1, 35463, Note_on_c, 0, 58, 0
1, 35466, Note_on_c, 0, 61, 0
1, 35484, Note_on_c, 0, 64, 0
1, 35486, Note_on_c, 0, 67, 0
1, 35488, Note_on_c, 0, 67, 79
1, 35496, Note_on_c, 0, 52, 74
1, 35520, Note_on_c, 0, 67, 0
1, 35556, Note_on_c, 0, 69, 94
1, 35556, Note_on_c, 0, 64, 93
1, 35557, Note_on_c, 0, 60, 88
1, 35558, Note_on_c, 0, 45, 73
1, 35559, Note_on_c, 0, 52, 0
1, 35576, Control_c, 0, 64, 0
1, 35641, Note_on_c, 0, 52, 63
1, 35646, Control_c, 0, 64, 127
1, 35691, Note_on_c, 0, 55, 65
1, 35700, Note_on_c, 0, 69, 0
1, 35730, Note_on_c, 0, 64, 0
1, 35749, Note_on_c, 0, 60, 0
1, 35766, Note_on_c, 0, 60, 67
1, 35793, Note_on_c, 0, 45, 0
1, 35812, Note_on_c, 0, 64, 71
1, 35829, Note_on_c, 0, 52, 0
1, 35851, Note_on_c, 0, 67, 68
1, 35859, Note_on_c, 0, 55, 0
1, 35893, Note_on_c, 0, 72, 46
1, 35896, Note_on_c, 0, 74, 45
1, 35904, Note_on_c, 0, 60, 0
1, 35910, Note_on_c, 0, 64, 0
1, 35936, Note_on_c, 0, 76, 46
1, 35957, Note_on_c, 0, 67, 0
1, 35971, Note_on_c, 0, 72, 0
1, 35979, Note_on_c, 0, 74, 0
1, 35988, Note_on_c, 0, 79, 66
1, 35989, Note_on_c, 0, 76, 0
1, 36027, Note_on_c, 0, 79, 0
1, 36046, Note_on_c, 0, 83, 79
1, 36063, Note_on_c, 0, 83, 0
1, 36117, Note_on_c, 0, 67, 78
1, 36166, Note_on_c, 0, 67, 0
1, 36177, Note_on_c, 0, 64, 74
1, 36190, Note_on_c, 0, 64, 0
1, 36242, Note_on_c, 0, 64, 69
1, 36250, Note_on_c, 0, 64, 0
1, 36302, Note_on_c, 0, 45, 43
1, 36318, Note_on_c, 0, 45, 0
1, 36323, Note_on_c, 0, 54, 79
1, 36324, Note_on_c, 0, 59, 66
1, 36329, Note_on_c, 0, 62, 64
1, 36331, Note_on_c, 0, 38, 59
1, 36344, Control_c, 0, 64, 0
1, 36398, Control_c, 0, 64, 127
1, 36420, Note_off_c, 0, 54, 0
1, 36445, Note_on_c, 0, 45, 54
1, 36511, Note_on_c, 0, 54, 65
1, 36569, Note_on_c, 0, 50, 59
1, 36583, Note_on_c, 0, 59, 0
1, 36598, Note_on_c, 0, 62, 0
1, 36600, Note_on_c, 0, 38, 0
1, 36632, Note_on_c, 0, 45, 57
1, 36649, Note_on_c, 0, 45, 0
1, 36700, Note_on_c, 0, 50, 69
1, 36703, Note_on_c, 0, 54, 54
1, 36705, Note_on_c, 0, 58, 66
1, 36725, Note_on_c, 0, 54, 0
1, 36739, Note_on_c, 0, 50, 0
1, 36743, Note_on_c, 0, 45, 0
1, 36837, Note_on_c, 0, 50, 0
1, 36889, Note_on_c, 0, 50, 61
1, 36895, Note_on_c, 0, 71, 93
1, 36907, Note_on_c, 0, 54, 0
1, 36911, Note_on_c, 0, 58, 0
1, 36931, Note_on_c, 0, 50, 0
1, 36938, Note_on_c, 0, 71, 0
1, 36951, Note_on_c, 0, 74, 94
1, 37004, Note_on_c, 0, 71, 69
1, 37007, Note_on_c, 0, 74, 0
1, 37008, Note_on_c, 0, 50, 73
1, 37012, Note_on_c, 0, 71, 0
1, 37066, Note_on_c, 0, 50, 0
1, 37071, Control_c, 0, 64, 0
1, 37073, Note_on_c, 0, 74, 71
1, 37074, Note_on_c, 0, 66, 66
1, 37075, Note_on_c, 0, 71, 64
1, 37076, Note_on_c, 0, 69, 69
1, 37079, Note_on_c, 0, 43, 70
1, 37113, Control_c, 0, 64, 127
1, 37118, Note_off_c, 0, 74, 0
1, 37123, Note_off_c, 0, 66, 0
1, 37123, Note_off_c, 0, 71, 0
1, 37126, Note_off_c, 0, 69, 0
1, 37150, Note_on_c, 0, 69, 56
1, 37151, Note_on_c, 0, 71, 60
1, 37151, Note_on_c, 0, 74, 57
1, 37164, Note_on_c, 0, 43, 0
1, 37164, Note_on_c, 0, 69, 0
1, 37177, Note_on_c, 0, 71, 0
1, 37179, Note_on_c, 0, 74, 0
1, 37203, Note_on_c, 0, 66, 90
1, 37205, Note_on_c, 0, 69, 82
1, 37205, Note_on_c, 0, 71, 75
1, 37207, Note_on_c, 0, 74, 86
1, 37260, Note_on_c, 0, 62, 58
1, 37264, Note_on_c, 0, 66, 0
1, 37264, Note_on_c, 0, 54, 66
1, 37265, Note_on_c, 0, 59, 63
1, 37268, Note_on_c, 0, 69, 0
1, 37268, Note_on_c, 0, 71, 0
1, 37281, Note_on_c, 0, 74, 0
1, 37284, Note_on_c, 0, 62, 0
1, 37287, Note_on_c, 0, 54, 0
1, 37389, Note_on_c, 0, 43, 77
1, 37389, Note_on_c, 0, 71, 69
1, 37392, Note_on_c, 0, 62, 68
1, 37392, Note_on_c, 0, 66, 65
1, 37434, Control_c, 0, 64, 0
1, 37447, Note_off_c, 0, 59, 0
1, 37447, Control_c, 0, 64, 127
1, 37460, Note_on_c, 0, 31, 77
1, 37464, Note_on_c, 0, 43, 0
1, 37470, Note_on_c, 0, 71, 0
1, 37474, Note_on_c, 0, 62, 0
1, 37484, Note_on_c, 0, 66, 0
1, 37486, Note_on_c, 0, 31, 0
1, 37573, Note_on_c, 0, 59, 77
1, 37575, Note_on_c, 0, 62, 71
1, 37576, Note_on_c, 0, 64, 75
1, 37622, Note_on_c, 0, 59, 0
1, 37639, Note_on_c, 0, 54, 78
1, 37649, Note_on_c, 0, 62, 0
1, 37652, Note_on_c, 0, 59, 66
1, 37653, Note_on_c, 0, 64, 0
1, 37657, Note_on_c, 0, 54, 0
1, 37672, Note_on_c, 0, 59, 0
1, 37759, Note_on_c, 0, 43, 71
1, 37764, Note_on_c, 0, 55, 74
1, 37804, Note_on_c, 0, 43, 0
1, 37828, Note_on_c, 0, 54, 76
1, 37831, Note_on_c, 0, 55, 78
1, 37833, Note_on_c, 0, 59, 71
1, 37834, Note_on_c, 0, 62, 71
1, 37834, Note_on_c, 0, 66, 69
1, 37842, Control_c, 0, 64, 0
1, 37891, Note_off_c, 0, 55, 0
1, 37893, Control_c, 0, 64, 127
1, 37911, Note_off_c, 0, 54, 0
1, 37965, Note_on_c, 0, 55, 67
1, 38029, Note_on_c, 0, 54, 79
1, 38046, Note_on_c, 0, 55, 0
1, 38052, Note_on_c, 0, 59, 0
1, 38120, Note_on_c, 0, 62, 0
1, 38134, Note_on_c, 0, 66, 0
1, 38140, Note_on_c, 0, 55, 0
1, 38143, Note_on_c, 0, 54, 0
1, 38145, Note_on_c, 0, 43, 82
1, 38212, Note_on_c, 0, 52, 75
1, 38216, Note_on_c, 0, 64, 88
1, 38216, Note_on_c, 0, 59, 83
1, 38219, Note_on_c, 0, 62, 82
1, 38251, Note_on_c, 0, 43, 0
1, 38255, Note_on_c, 0, 52, 0
1, 38265, Note_on_c, 0, 64, 0
1, 38340, Note_on_c, 0, 67, 63
1, 38341, Note_on_c, 0, 71, 93
1, 38343, Note_on_c, 0, 69, 70
1, 38347, Note_on_c, 0, 59, 0
1, 38350, Note_on_c, 0, 62, 0
1, 38358, Note_on_c, 0, 67, 0
1, 38412, Note_on_c, 0, 52, 73
1, 38457, Note_on_c, 0, 71, 0
1, 38477, Note_on_c, 0, 74, 102
1, 38535, Note_on_c, 0, 71, 71
1, 38536, Note_on_c, 0, 50, 77
1, 38542, Note_on_c, 0, 69, 0
1, 38547, Note_on_c, 0, 52, 0
1, 38555, Note_on_c, 0, 74, 0
1, 38579, Note_on_c, 0, 71, 0
1, 38591, Note_on_c, 0, 50, 0
1, 38592, Control_c, 0, 64, 0
1, 38600, Note_on_c, 0, 67, 86
1, 38600, Note_on_c, 0, 76, 85
1, 38602, Note_on_c, 0, 71, 77
1, 38602, Note_on_c, 0, 43, 74
1, 38640, Control_c, 0, 64, 127
1, 38646, Note_off_c, 0, 67, 0
1, 38671, Note_off_c, 0, 76, 0
1, 38704, Note_off_c, 0, 71, 0
1, 38705, Note_off_c, 0, 43, 0
1, 38719, Note_on_c, 0, 67, 58
1, 38729, Note_on_c, 0, 67, 0
1, 38789, Note_on_c, 0, 59, 77
1, 38798, Note_on_c, 0, 57, 37
1, 38805, Note_on_c, 0, 59, 0
1, 38807, Note_on_c, 0, 57, 0
1, 38842, Note_on_c, 0, 78, 87
1, 38844, Note_on_c, 0, 67, 71
1, 38844, Note_on_c, 0, 74, 73
1, 38846, Note_on_c, 0, 71, 74
1, 38883, Note_on_c, 0, 78, 0
1, 38893, Note_on_c, 0, 67, 0
1, 38905, Note_on_c, 0, 74, 0
1, 38906, Note_on_c, 0, 45, 68
1, 38942, Note_on_c, 0, 71, 0
1, 38958, Control_c, 0, 64, 0
1, 38959, Note_off_c, 0, 45, 0
1, 38963, Note_on_c, 0, 74, 82
1, 38964, Note_on_c, 0, 71, 83
1, 38964, Note_on_c, 0, 76, 81
1, 38966, Note_on_c, 0, 67, 86
1, 38971, Note_on_c, 0, 38, 71
1, 38999, Control_c, 0, 64, 127
1, 39018, Note_off_c, 0, 74, 0
1, 39034, Note_off_c, 0, 71, 0
1, 39044, Note_off_c, 0, 76, 0
1, 39048, Note_off_c, 0, 67, 0
1, 39062, Note_on_c, 0, 67, 57
1, 39080, Note_on_c, 0, 71, 51
1, 39083, Note_on_c, 0, 38, 0
1, 39092, Note_on_c, 0, 67, 0
1, 39098, Note_on_c, 0, 74, 57
1, 39106, Note_on_c, 0, 71, 0
1, 39138, Note_on_c, 0, 79, 30
1, 39159, Note_on_c, 0, 74, 0
1, 39162, Note_on_c, 0, 83, 61
1, 39185, Note_on_c, 0, 86, 61
1, 39187, Note_on_c, 0, 79, 0
1, 39197, Note_on_c, 0, 83, 0
1, 39214, Note_on_c, 0, 86, 0
1, 39228, Note_on_c, 0, 91, 92
1, 39260, Note_on_c, 0, 91, 0
1, 39261, Note_on_c, 0, 95, 63
1, 39276, Note_on_c, 0, 98, 70
1, 39286, Note_on_c, 0, 95, 0
1, 39294, Note_on_c, 0, 100, 73
1, 39298, Note_on_c, 0, 98, 0
1, 39304, Note_on_c, 0, 100, 0
1, 39324, Note_on_c, 0, 102, 81
1, 39339, Note_on_c, 0, 102, 0
1, 39358, Note_on_c, 0, 43, 56
1, 39417, Note_on_c, 0, 43, 0
1, 39425, Note_on_c, 0, 50, 60
1, 39471, Note_on_c, 0, 50, 0
1, 39481, Note_on_c, 0, 54, 68
1, 39489, Note_on_c, 0, 54, 0
1, 39552, Note_on_c, 0, 54, 62
1, 39612, Note_on_c, 0, 59, 61
1, 39620, Note_on_c, 0, 54, 0
1, 39628, Note_on_c, 0, 59, 0
1, 39680, Note_on_c, 0, 52, 61
1, 39735, Note_on_c, 0, 52, 0
1, 39746, Note_on_c, 0, 45, 86
1, 39752, Control_c, 0, 64, 0
1, 39765, Control_c, 0, 64, 127
1, 39785, Note_off_c, 0, 45, 0
1, 39862, Note_on_c, 0, 76, 80
1, 39864, Note_on_c, 0, 72, 77
1, 39864, Note_on_c, 0, 67, 77
1, 39926, Note_on_c, 0, 60, 71
1, 39947, Note_on_c, 0, 76, 0
1, 39949, Note_on_c, 0, 72, 0
1, 39960, Note_on_c, 0, 67, 0
1, 39971, Note_on_c, 0, 60, 0
1, 39989, Note_on_c, 0, 79, 85
1, 39990, Note_on_c, 0, 72, 79
1, 39991, Note_on_c, 0, 67, 73
1, 40051, Note_on_c, 0, 76, 67
1, 40058, Note_on_c, 0, 79, 0
1, 40064, Note_on_c, 0, 47, 59
1, 40065, Note_on_c, 0, 72, 0
1, 40075, Note_on_c, 0, 67, 0
1, 40114, Note_on_c, 0, 76, 0
1, 40123, Note_on_c, 0, 79, 86
1, 40126, Note_on_c, 0, 55, 77
1, 40129, Control_c, 0, 64, 0
1, 40186, Control_c, 0, 64, 127
1, 40244, Note_on_c, 0, 74, 58
1, 40245, Note_on_c, 0, 67, 58
1, 40247, Note_on_c, 0, 71, 61
1, 40251, Note_on_c, 0, 47, 0
1, 40309, Note_on_c, 0, 79, 0
1, 40314, Note_on_c, 0, 55, 73
1, 40320, Note_on_c, 0, 55, 0
1, 40354, Note_on_c, 0, 74, 0
1, 40357, Note_on_c, 0, 67, 0
1, 40359, Note_on_c, 0, 71, 0
1, 40374, Note_on_c, 0, 76, 61
1, 40383, Note_on_c, 0, 55, 0
1, 40408, Note_on_c, 0, 76, 0
1, 40430, Note_on_c, 0, 45, 78
1, 40489, Note_on_c, 0, 72, 84
1, 40489, Note_on_c, 0, 76, 82
1, 40490, Note_on_c, 0, 79, 81
1, 40491, Note_on_c, 0, 67, 85
1, 40492, Note_on_c, 0, 55, 76
1, 40498, Control_c, 0, 64, 0
1, 40538, Control_c, 0, 64, 127
1, 40547, Note_off_c, 0, 45, 0
1, 40564, Note_off_c, 0, 72, 0
1, 40568, Note_off_c, 0, 76, 0
1, 40620, Note_on_c, 0, 67, 63
1, 40681, Note_on_c, 0, 57, 73
1, 40682, Note_on_c, 0, 60, 73
1, 40701, Note_on_c, 0, 79, 0
1, 40704, Note_on_c, 0, 67, 0
1, 40705, Note_on_c, 0, 55, 0
1, 40755, Note_on_c, 0, 76, 59
1, 40764, Note_on_c, 0, 67, 0
1, 40766, Note_on_c, 0, 57, 0
1, 40782, Note_on_c, 0, 60, 0
1, 40787, Note_on_c, 0, 76, 0
1, 40871, Note_on_c, 0, 34, 94
1, 40872, Note_on_c, 0, 46, 102
1, 40887, Control_c, 0, 64, 0
1, 40924, Note_off_c, 0, 34, 0
1, 40930, Control_c, 0, 64, 127
1, 40937, Note_off_c, 0, 46, 0
1, 40981, Note_on_c, 0, 73, 94
1, 40982, Note_on_c, 0, 70, 104
1, 40983, Note_on_c, 0, 79, 85
1, 40986, Note_on_c, 0, 76, 78
1, 41057, Note_on_c, 0, 58, 96
1, 41058, Note_on_c, 0, 61, 87
1, 41081, Note_on_c, 0, 73, 0
1, 41081, Note_on_c, 0, 70, 0
1, 41083, Note_on_c, 0, 79, 0
1, 41101, Note_on_c, 0, 76, 0
1, 41102, Note_on_c, 0, 58, 0
1, 41104, Note_on_c, 0, 61, 0
1, 41132, Note_on_c, 0, 76, 79
1, 41133, Note_on_c, 0, 70, 94
1, 41134, Note_on_c, 0, 73, 84
1, 41163, Note_on_c, 0, 76, 0
1, 41165, Note_on_c, 0, 70, 0
1, 41172, Note_on_c, 0, 73, 0
1, 41201, Note_on_c, 0, 47, 34
1, 41223, Note_on_c, 0, 47, 0
1, 41256, Note_on_c, 0, 76, 88
1, 41256, Note_on_c, 0, 79, 91
1, 41258, Note_on_c, 0, 35, 88
1, 41258, Note_on_c, 0, 71, 94
1, 41260, Note_on_c, 0, 74, 94
1, 41261, Note_on_c, 0, 47, 91
1, 41272, Control_c, 0, 64, 0
1, 41316, Note_off_c, 0, 76, 0
1, 41318, Control_c, 0, 64, 127
1, 41329, Note_off_c, 0, 79, 0
1, 41352, Note_off_c, 0, 35, 0
1, 41354, Note_off_c, 0, 71, 0
1, 41355, Note_off_c, 0, 74, 0
1, 41358, Note_off_c, 0, 47, 0
1, 41375, Note_on_c, 0, 71, 83
1, 41375, Note_on_c, 0, 76, 79
1, 41377, Note_on_c, 0, 74, 81
1, 41441, Note_on_c, 0, 59, 82
1, 41455, Note_on_c, 0, 71, 0
1, 41471, Note_on_c, 0, 76, 0
1, 41473, Note_on_c, 0, 74, 0
1, 41494, Note_on_c, 0, 59, 0
1, 41513, Note_on_c, 0, 79, 86
1, 41513, Note_on_c, 0, 76, 74
1, 41514, Note_on_c, 0, 71, 74
1, 41515, Note_on_c, 0, 74, 80
1, 41524, Note_on_c, 0, 79, 0
1, 41527, Note_on_c, 0, 76, 0
1, 41537, Note_on_c, 0, 71, 0
1, 41540, Note_on_c, 0, 74, 0
1, 41570, Note_on_c, 0, 47, 80
1, 41625, Note_on_c, 0, 47, 0
1, 41626, Control_c, 0, 64, 0
1, 41630, Note_on_c, 0, 79, 74
1, 41633, Note_on_c, 0, 83, 75
1, 41633, Note_on_c, 0, 74, 77
1, 41634, Note_on_c, 0, 40, 71
1, 41635, Note_on_c, 0, 76, 66
1, 41673, Control_c, 0, 64, 127
1, 41678, Note_off_c, 0, 79, 0
1, 41700, Note_off_c, 0, 83, 0
1, 41702, Note_off_c, 0, 74, 0
1, 41702, Note_on_c, 0, 81, 71
1, 41716, Note_on_c, 0, 40, 0
1, 41716, Note_on_c, 0, 76, 0
1, 41737, Note_on_c, 0, 81, 0
1, 41753, Note_on_c, 0, 79, 77
1, 41754, Note_on_c, 0, 74, 82
1, 41754, Note_on_c, 0, 76, 72
1, 41756, Note_on_c, 0, 83, 86
1, 41794, Note_on_c, 0, 79, 0
1, 41811, Note_on_c, 0, 50, 78
1, 41814, Note_on_c, 0, 74, 0
1, 41816, Note_on_c, 0, 76, 0
1, 41821, Note_on_c, 0, 83, 0
1, 41845, Note_on_c, 0, 52, 70
1, 41871, Note_on_c, 0, 55, 66
1, 41896, Note_on_c, 0, 59, 69
1, 41928, Note_on_c, 0, 62, 42
1, 41932, Note_on_c, 0, 64, 37
1, 41952, Note_on_c, 0, 50, 0
1, 41976, Note_on_c, 0, 67, 55
1, 41979, Note_on_c, 0, 52, 0
1, 41991, Note_on_c, 0, 69, 66
1, 41994, Note_on_c, 0, 55, 0
1, 41997, Note_on_c, 0, 59, 0
1, 41999, Note_on_c, 0, 62, 0
1, 42024, Note_on_c, 0, 59, 62
1, 42029, Note_on_c, 0, 74, 47
1, 42054, Note_on_c, 0, 64, 0
1, 42056, Note_on_c, 0, 76, 59
1, 42071, Note_on_c, 0, 79, 52
1, 42075, Note_on_c, 0, 67, 0
1, 42087, Note_on_c, 0, 81, 60
1, 42091, Note_on_c, 0, 69, 0
1, 42094, Note_on_c, 0, 59, 0
1, 42096, Note_on_c, 0, 74, 0
1, 42120, Note_on_c, 0, 86, 54
1, 42135, Note_on_c, 0, 76, 0
1, 42144, Note_on_c, 0, 79, 0
1, 42147, Note_on_c, 0, 88, 58
1, 42174, Note_on_c, 0, 91, 81
1, 42175, Note_on_c, 0, 81, 0
1, 42185, Note_on_c, 0, 86, 0
1, 42196, Note_on_c, 0, 55, 71
1, 42216, Note_on_c, 0, 88, 0
1, 42217, Note_on_c, 0, 91, 0
1, 42222, Note_on_c, 0, 55, 0
1, 42222, Note_on_c, 0, 98, 69
1, 42248, Note_on_c, 0, 98, 0
1, 42252, Note_on_c, 0, 100, 74
1, 42276, Note_on_c, 0, 100, 0
1, 42282, Note_on_c, 0, 103, 49
1, 42298, Note_on_c, 0, 105, 79
1, 42307, Note_on_c, 0, 103, 0
1, 42310, Note_on_c, 0, 105, 0
1, 42332, Note_on_c, 0, 107, 92
1, 42334, Note_on_c, 0, 105, 91
1, 42343, Note_on_c, 0, 107, 0
1, 42391, Control_c, 0, 64, 0
1, 42393, Note_on_c, 0, 45, 57
1, 42415, Control_c, 0, 64, 127
1, 42428, Note_off_c, 0, 105, 0
1, 42456, Note_on_c, 0, 52, 54
1, 42460, Note_on_c, 0, 45, 0
1, 42513, Note_on_c, 0, 52, 0
1, 42520, Note_on_c, 0, 55, 66
1, 42529, Note_on_c, 0, 55, 0
1, 42582, Note_on_c, 0, 61, 63
1, 42649, Note_on_c, 0, 64, 46
1, 42714, Note_on_c, 0, 61, 0
1, 42742, Note_on_c, 0, 69, 2
1, 42794, Note_on_c, 0, 64, 42
1, 42808, Note_on_c, 0, 64, 0
1, 42836, Note_on_c, 0, 69, 0
1, 42900, Note_on_c, 0, 71, 93
1, 42971, Note_on_c, 0, 64, 65
1, 42991, Note_on_c, 0, 64, 0
1, 43005, Note_on_c, 0, 71, 0
1, 43015, Note_on_c, 0, 64, 0
1, 43038, Note_on_c, 0, 74, 97
1, 43092, Note_on_c, 0, 71, 73
1, 43099, Note_on_c, 0, 45, 74
1, 43100, Note_on_c, 0, 74, 0
1, 43147, Note_on_c, 0, 71, 0
1, 43158, Note_on_c, 0, 52, 73
1, 43159, Note_on_c, 0, 64, 86
1, 43160, Note_on_c, 0, 74, 85
1, 43160, Note_on_c, 0, 67, 80
1, 43167, Control_c, 0, 64, 0
1, 43167, Note_on_c, 0, 55, 64
1, 43211, Control_c, 0, 64, 127
1, 43237, Note_off_c, 0, 45, 0
1, 43238, Note_off_c, 0, 52, 0
1, 43245, Note_off_c, 0, 64, 0
1, 43259, Note_off_c, 0, 74, 0
1, 43283, Note_on_c, 0, 64, 60
1, 43348, Note_on_c, 0, 60, 88
1, 43368, Note_on_c, 0, 67, 0
1, 43373, Note_on_c, 0, 55, 0
1, 43406, Note_on_c, 0, 71, 77
1, 43420, Note_on_c, 0, 64, 0
1, 43425, Note_on_c, 0, 60, 0
1, 43430, Note_on_c, 0, 71, 0
1, 43467, Note_on_c, 0, 50, 83
1, 43535, Note_on_c, 0, 60, 61
1, 43536, Note_on_c, 0, 62, 66
1, 43538, Note_on_c, 0, 74, 68
1, 43540, Note_on_c, 0, 66, 62
1, 43543, Control_c, 0, 64, 0
1, 43597, Control_c, 0, 64, 127
1, 43618, Note_off_c, 0, 50, 0
1, 43656, Note_off_c, 0, 60, 0
1, 43680, Note_on_c, 0, 62, 24
1, 43713, Note_on_c, 0, 62, 0
1, 43716, Note_on_c, 0, 74, 0
1, 43728, Note_on_c, 0, 60, 57
1, 43732, Note_on_c, 0, 66, 0
1, 43738, Note_on_c, 0, 62, 0
1, 43759, Note_on_c, 0, 60, 0
1, 43786, Note_on_c, 0, 71, 64
1, 43788, Note_on_c, 0, 62, 52
1, 43795, Note_on_c, 0, 71, 0
1, 43801, Note_on_c, 0, 62, 0
1, 43843, Note_on_c, 0, 42, 61
1, 43903, Control_c, 0, 64, 0
1, 43911, Note_on_c, 0, 61, 69
1, 43912, Note_on_c, 0, 57, 67
1, 43912, Note_on_c, 0, 52, 61
1, 43915, Note_on_c, 0, 69, 62
1, 43960, Control_c, 0, 64, 127
1, 43969, Note_off_c, 0, 42, 0
1, 43976, Note_on_c, 0, 67, 58
1, 44008, Note_on_c, 0, 61, 0
1, 44043, Note_on_c, 0, 69, 82
1, 44050, Note_on_c, 0, 57, 0
1, 44105, Note_on_c, 0, 52, 0
1, 44114, Note_on_c, 0, 52, 31
1, 44141, Note_on_c, 0, 69, 0
1, 44164, Note_on_c, 0, 57, 67
1, 44192, Note_on_c, 0, 67, 0
1, 44204, Note_on_c, 0, 69, 0
1, 44208, Note_on_c, 0, 52, 0
1, 44221, Note_on_c, 0, 47, 58
1, 44291, Note_on_c, 0, 57, 59
1, 44291, Note_on_c, 0, 66, 54
1, 44295, Note_on_c, 0, 59, 47
1, 44296, Note_on_c, 0, 63, 53
1, 44300, Control_c, 0, 64, 0
1, 44350, Control_c, 0, 64, 127
1, 44363, Note_off_c, 0, 57, 0
1, 44405, Note_off_c, 0, 47, 0
1, 44408, Note_on_c, 0, 59, 54
1, 44471, Note_on_c, 0, 57, 0
1, 44476, Note_on_c, 0, 66, 0
1, 44479, Note_on_c, 0, 57, 83
1, 44490, Note_on_c, 0, 59, 0
1, 44493, Note_on_c, 0, 63, 0
1, 44505, Note_on_c, 0, 59, 0
1, 44537, Note_on_c, 0, 67, 71
1, 44538, Note_on_c, 0, 59, 61
1, 44546, Note_on_c, 0, 57, 0
1, 44546, Note_on_c, 0, 67, 0
1, 44560, Note_on_c, 0, 59, 0
1, 44603, Note_on_c, 0, 47, 85
1, 44651, Note_on_c, 0, 47, 0
1, 44664, Control_c, 0, 64, 0
1, 44670, Note_on_c, 0, 67, 80
1, 44670, Note_on_c, 0, 62, 83
1, 44671, Note_on_c, 0, 71, 78
1, 44672, Note_on_c, 0, 64, 82
1, 44675, Note_on_c, 0, 40, 82
1, 44719, Control_c, 0, 64, 127
1, 44726, Note_off_c, 0, 67, 0
1, 44739, Note_off_c, 0, 62, 0
1, 44795, Note_on_c, 0, 62, 73
1, 44861, Note_on_c, 0, 50, 82
1, 44871, Note_on_c, 0, 71, 0
1, 44876, Note_on_c, 0, 64, 0
1, 44878, Note_on_c, 0, 40, 0
1, 44919, Note_on_c, 0, 67, 71
1, 44920, Note_on_c, 0, 62, 0
1, 44921, Note_on_c, 0, 52, 73
1, 44921, Note_on_c, 0, 64, 68
1, 44922, Note_on_c, 0, 62, 73
1, 44943, Note_on_c, 0, 50, 0
1, 44945, Note_on_c, 0, 67, 0
1, 44957, Note_on_c, 0, 52, 0
1, 44967, Note_on_c, 0, 64, 0
1, 44986, Note_on_c, 0, 55, 76
1, 45045, Note_on_c, 0, 64, 90
1, 45045, Note_on_c, 0, 67, 83
1, 45047, Note_on_c, 0, 71, 80
1, 45047, Note_on_c, 0, 62, 84
1, 45049, Note_on_c, 0, 59, 66
1, 45104, Note_on_c, 0, 62, 0
1, 45106, Note_on_c, 0, 55, 0
1, 45147, Note_on_c, 0, 64, 0
1, 45155, Note_on_c, 0, 67, 0
1, 45168, Note_on_c, 0, 62, 74
1, 45186, Note_on_c, 0, 71, 0
1, 45222, Note_on_c, 0, 62, 0
1, 45232, Note_on_c, 0, 59, 0
1, 45236, Note_on_c, 0, 55, 75
1, 45237, Note_on_c, 0, 67, 56
1, 45242, Note_on_c, 0, 62, 0
1, 45246, Note_on_c, 0, 55, 0
1, 45255, Note_on_c, 0, 67, 0
1, 45362, Note_on_c, 0, 70, 85
1, 45363, Note_on_c, 0, 76, 73
1, 45365, Note_on_c, 0, 67, 77
1, 45365, Note_on_c, 0, 64, 83
1, 45367, Note_on_c, 0, 73, 81
1, 45393, Control_c, 0, 64, 0
1, 45443, Note_on_c, 0, 49, 71
1, 45480, Note_on_c, 0, 52, 74
1, 45496, Note_on_c, 0, 70, 0
1, 45502, Note_on_c, 0, 76, 0
1, 45502, Control_c, 0, 64, 127
1, 45504, Note_on_c, 0, 55, 65
1, 45513, Note_on_c, 0, 67, 0
1, 45523, Note_on_c, 0, 58, 77
1, 45534, Note_on_c, 0, 64, 0
1, 45537, Note_on_c, 0, 73, 0
1, 45541, Note_on_c, 0, 64, 51
1, 45559, Note_on_c, 0, 67, 51
1, 45573, Note_on_c, 0, 49, 0
1, 45577, Note_on_c, 0, 70, 66
1, 45583, Note_on_c, 0, 52, 0
1, 45592, Note_on_c, 0, 73, 60
1, 45598, Note_on_c, 0, 55, 0
1, 45601, Note_on_c, 0, 58, 0
1, 45622, Note_on_c, 0, 76, 74
1, 45648, Note_on_c, 0, 79, 59
1, 45649, Note_on_c, 0, 64, 0
1, 45664, Note_on_c, 0, 82, 58
1, 45670, Note_on_c, 0, 67, 0
1, 45676, Note_on_c, 0, 85, 69
1, 45681, Note_on_c, 0, 70, 0
1, 45684, Note_on_c, 0, 73, 0
1, 45707, Note_on_c, 0, 88, 63
1, 45727, Note_on_c, 0, 91, 88
1, 45731, Note_on_c, 0, 76, 0
1, 45735, Note_on_c, 0, 79, 0
1, 45738, Note_on_c, 0, 94, 63
1, 45751, Note_on_c, 0, 82, 0
1, 45751, Note_on_c, 0, 96, 54
1, 45759, Note_on_c, 0, 85, 0
1, 45777, Note_on_c, 0, 100, 74
1, 45785, Note_on_c, 0, 98, 38
1, 45794, Note_on_c, 0, 88, 0
1, 45799, Note_on_c, 0, 91, 0
1, 45802, Note_on_c, 0, 103, 55
1, 45813, Note_on_c, 0, 106, 92
1, 45817, Note_on_c, 0, 94, 0
1, 45829, Note_on_c, 0, 96, 0
1, 45901, Note_on_c, 0, 100, 0
1, 45962, Note_on_c, 0, 98, 0
1, 46001, Note_on_c, 0, 59, 71
1, 46042, Note_on_c, 0, 103, 0
1, 46046, Note_on_c, 0, 106, 0
1, 46047, Note_on_c, 0, 59, 0
1, 46064, Note_on_c, 0, 62, 87
1, 46120, Note_on_c, 0, 62, 0
1, 46122, Note_on_c, 0, 59, 75
1, 46140, Note_on_c, 0, 47, 60
1, 46157, Note_on_c, 0, 59, 0
1, 46159, Note_on_c, 0, 54, 70
1, 46169, Note_on_c, 0, 57, 71
1, 46178, Control_c, 0, 64, 0
1, 46187, Note_on_c, 0, 62, 81
1, 46190, Note_on_c, 0, 59, 69
1, 46220, Note_on_c, 0, 47, 0
1, 46232, Control_c, 0, 64, 127
1, 46265, Note_on_c, 0, 62, 77
1, 46287, Note_on_c, 0, 54, 0
1, 46296, Note_on_c, 0, 57, 0
1, 46331, Note_on_c, 0, 62, 81
1, 46390, Note_on_c, 0, 57, 71
1, 46399, Note_on_c, 0, 62, 0
1, 46415, Note_on_c, 0, 59, 0
1, 46427, Note_on_c, 0, 62, 0
1, 46443, Note_on_c, 0, 62, 0
1, 46464, Note_on_c, 0, 59, 46
1, 46478, Note_on_c, 0, 57, 0
1, 46533, Note_on_c, 0, 59, 51
1, 46575, Note_on_c, 0, 46, 74
1, 46575, Control_c, 0, 64, 0
1, 46577, Note_on_c, 0, 56, 76
1, 46607, Note_on_c, 0, 59, 0
1, 46629, Control_c, 0, 64, 127
1, 46652, Note_off_c, 0, 59, 0
1, 46694, Note_on_c, 0, 71, 100
1, 46707, Note_on_c, 0, 46, 0
1, 46768, Note_on_c, 0, 56, 84
1, 46796, Note_on_c, 0, 56, 0
1, 46825, Note_on_c, 0, 71, 0
1, 46828, Note_on_c, 0, 74, 102
1, 46859, Note_on_c, 0, 56, 0
1, 46883, Note_on_c, 0, 71, 85
1, 46885, Note_on_c, 0, 74, 0
1, 46893, Note_on_c, 0, 45, 77
1, 46928, Note_on_c, 0, 71, 0
1, 46948, Note_on_c, 0, 52, 67
1, 46949, Note_on_c, 0, 55, 82
1, 46951, Note_on_c, 0, 62, 81
1, 46952, Note_on_c, 0, 60, 77
1, 46956, Control_c, 0, 64, 0
1, 47009, Control_c, 0, 64, 127
1, 47039, Note_off_c, 0, 45, 0
1, 47045, Note_off_c, 0, 52, 0
1, 47047, Note_off_c, 0, 55, 0
1, 47067, Note_off_c, 0, 62, 0
1, 47077, Note_on_c, 0, 62, 81
1, 47078, Note_on_c, 0, 60, 81
1, 47079, Note_on_c, 0, 55, 71
1, 47155, Note_on_c, 0, 52, 58
1, 47162, Note_on_c, 0, 60, 0
1, 47181, Note_on_c, 0, 62, 0
1, 47190, Note_on_c, 0, 60, 0
1, 47206, Note_on_c, 0, 55, 55
1, 47237, Note_on_c, 0, 55, 0
1, 47266, Note_on_c, 0, 45, 66
1, 47335, Note_on_c, 0, 52, 0
1, 47339, Control_c, 0, 64, 0
1, 47339, Note_on_c, 0, 38, 59
1, 47340, Note_on_c, 0, 51, 69
1, 47388, Control_c, 0, 64, 127
1, 47390, Note_off_c, 0, 55, 0
1, 47398, Note_off_c, 0, 45, 0
1, 47408, Note_off_c, 0, 38, 0
1, 47533, Note_on_c, 0, 45, 70
1, 47543, Note_on_c, 0, 51, 0
1, 47545, Note_on_c, 0, 45, 0
1, 47580, Note_on_c, 0, 66, 81
1, 47580, Note_on_c, 0, 60, 84
1, 47581, Note_on_c, 0, 71, 61
1, 47581, Note_on_c, 0, 63, 84
1, 47591, Note_on_c, 0, 66, 0
1, 47593, Note_on_c, 0, 60, 0
1, 47597, Note_on_c, 0, 71, 0
1, 47607, Note_on_c, 0, 63, 0
1, 47645, Note_on_c, 0, 50, 74
1, 47703, Note_on_c, 0, 59, 82
1, 47703, Note_on_c, 0, 62, 82
1, 47704, Note_on_c, 0, 64, 82
1, 47705, Note_on_c, 0, 43, 66
1, 47707, Note_on_c, 0, 67, 78
1, 47709, Note_on_c, 0, 50, 0
1, 47714, Control_c, 0, 64, 0
1, 47762, Note_off_c, 0, 59, 0
1, 47763, Note_off_c, 0, 62, 0
1, 47764, Control_c, 0, 64, 127
1, 47770, Note_off_c, 0, 64, 0
1, 47776, Note_off_c, 0, 43, 0
1, 47830, Note_on_c, 0, 55, 60
1, 47844, Note_on_c, 0, 67, 0
1, 47905, Note_on_c, 0, 55, 61
1, 47908, Note_on_c, 0, 64, 56
1, 47908, Note_on_c, 0, 59, 64
1, 47910, Note_on_c, 0, 50, 61
1, 47936, Note_on_c, 0, 55, 0
1, 47957, Note_on_c, 0, 55, 0
1, 47961, Note_on_c, 0, 64, 0
1, 47970, Note_on_c, 0, 55, 66
1, 48000, Note_on_c, 0, 59, 0
1, 48025, Note_on_c, 0, 59, 73
1, 48026, Note_on_c, 0, 66, 72
1, 48028, Note_on_c, 0, 55, 49
1, 48092, Note_on_c, 0, 54, 65
1, 48125, Note_on_c, 0, 50, 0
1, 48128, Note_on_c, 0, 55, 0
1, 48130, Note_on_c, 0, 59, 0
1, 48153, Note_on_c, 0, 66, 0
1, 48203, Note_on_c, 0, 62, 53
1, 48205, Note_on_c, 0, 55, 40
1, 48206, Note_on_c, 0, 59, 49
1, 48208, Note_on_c, 0, 64, 52
1, 48275, Note_on_c, 0, 55, 0
1, 48275, Note_on_c, 0, 50, 64
1, 48286, Note_on_c, 0, 54, 0
1, 48307, Note_on_c, 0, 62, 0
1, 48339, Note_on_c, 0, 55, 47
1, 48342, Note_on_c, 0, 55, 0
1, 48345, Note_on_c, 0, 59, 0
1, 48351, Note_on_c, 0, 64, 0
1, 48359, Note_on_c, 0, 50, 0
1, 48375, Note_on_c, 0, 55, 0
1, 48400, Note_on_c, 0, 45, 61
1, 48452, Note_on_c, 0, 45, 0
1, 48466, Note_on_c, 0, 54, 67
1, 48467, Note_on_c, 0, 58, 71
1, 48469, Note_on_c, 0, 62, 61
1, 48471, Control_c, 0, 64, 0
1, 48472, Note_on_c, 0, 38, 54
1, 48529, Control_c, 0, 64, 127
1, 48539, Note_off_c, 0, 54, 0
1, 48579, Note_on_c, 0, 54, 51
1, 48606, Note_on_c, 0, 58, 0
1, 48610, Note_on_c, 0, 62, 0
1, 48651, Note_on_c, 0, 38, 0
1, 48657, Note_on_c, 0, 50, 41
1, 48666, Note_on_c, 0, 54, 0
1, 48721, Note_on_c, 0, 58, 67
1, 48725, Note_on_c, 0, 50, 0
1, 48741, Note_on_c, 0, 58, 0
1, 48780, Note_on_c, 0, 54, 62
1, 48842, Note_on_c, 0, 58, 68
1, 48898, Note_on_c, 0, 54, 0
1, 48958, Note_on_c, 0, 90, 101
1, 49039, Note_on_c, 0, 58, 78
1, 49058, Note_on_c, 0, 58, 0
1, 49062, Note_on_c, 0, 90, 0
1, 49159, Note_on_c, 0, 50, 60
1, 49204, Control_c, 0, 64, 0
1, 49220, Control_c, 0, 64, 127
1, 49236, Note_on_c, 0, 43, 59
1, 49237, Note_on_c, 0, 58, 0
1, 49265, Note_on_c, 0, 50, 0
1, 49314, Note_on_c, 0, 43, 0
1, 49417, Note_on_c, 0, 67, 54
1, 49418, Note_on_c, 0, 66, 57
1, 49422, Note_on_c, 0, 59, 52
1, 49425, Note_on_c, 0, 62, 44
1, 49427, Note_on_c, 0, 67, 0
1, 49438, Note_on_c, 0, 66, 0
1, 49441, Note_on_c, 0, 59, 0
1, 49446, Note_on_c, 0, 62, 0
1, 49483, Note_on_c, 0, 90, 87
1, 49505, Note_on_c, 0, 90, 0
1, 49523, Note_on_c, 0, 91, 102
1, 49545, Note_on_c, 0, 91, 0
1, 49558, Note_on_c, 0, 90, 82
1, 49585, Note_on_c, 0, 90, 0
1, 49592, Note_on_c, 0, 38, 52
1, 49596, Note_on_c, 0, 88, 64
1, 49603, Note_on_c, 0, 38, 0
1, 49628, Note_on_c, 0, 88, 0
1, 49635, Note_on_c, 0, 86, 74
1, 49658, Note_on_c, 0, 86, 0
1, 49668, Note_on_c, 0, 83, 74
1, 49676, Note_on_c, 0, 83, 0
1, 49698, Note_on_c, 0, 82, 83
1, 49714, Note_on_c, 0, 82, 0
1, 49741, Note_on_c, 0, 83, 72
1, 49773, Note_on_c, 0, 83, 0
1, 49785, Note_on_c, 0, 79, 62
1, 49792, Note_on_c, 0, 59, 47
1, 49794, Note_on_c, 0, 79, 0
1, 49801, Note_on_c, 0, 59, 0
1, 49843, Note_on_c, 0, 79, 69
1, 49904, Note_on_c, 0, 74, 59
1, 49907, Note_on_c, 0, 50, 59
1, 49978, Note_on_c, 0, 71, 59
1, 49980, Note_on_c, 0, 78, 74
1, 49984, Control_c, 0, 64, 0
1, 49985, Note_off_c, 0, 79, 0
1, 49987, Note_off_c, 0, 74, 0
1, 49988, Note_on_c, 0, 43, 58
1, 50018, Control_c, 0, 64, 127
1, 50032, Note_off_c, 0, 50, 0
1, 50062, Note_off_c, 0, 71, 0
1, 50107, Note_on_c, 0, 71, 50
1, 50179, Note_on_c, 0, 59, 41
1, 50182, Note_on_c, 0, 78, 0
1, 50190, Note_on_c, 0, 43, 0
1, 50243, Note_on_c, 0, 71, 46
1, 50305, Note_on_c, 0, 45, 43
1, 50333, Control_c, 0, 64, 0
1, 50350, Note_off_c, 0, 71, 0
1, 50357, Control_c, 0, 64, 127
1, 50366, Note_on_c, 0, 38, 51
1, 50385, Note_on_c, 0, 59, 0
1, 50408, Note_on_c, 0, 71, 0
1, 50413, Note_on_c, 0, 45, 0
1, 50438, Note_on_c, 0, 38, 0
1, 50495, Note_on_c, 0, 78, 97
1, 50496, Note_on_c, 0, 71, 87
1, 50497, Note_on_c, 0, 74, 93
1, 50564, Note_on_c, 0, 60, 63
1, 50572, Note_on_c, 0, 78, 0
1, 50597, Note_on_c, 0, 71, 0
1, 50659, Note_on_c, 0, 74, 0
1, 50664, Note_on_c, 0, 60, 0
1, 50679, Note_on_c, 0, 50, 61
1, 50702, Note_on_c, 0, 50, 0
1, 50744, Note_on_c, 0, 78, 79
1, 50745, Note_on_c, 0, 74, 75
1, 50746, Note_on_c, 0, 81, 78
1, 50747, Note_on_c, 0, 50, 69
1, 50748, Note_on_c, 0, 43, 70
1, 50750, Note_on_c, 0, 71, 77
1, 50750, Note_on_c, 0, 54, 74
1, 50756, Control_c, 0, 64, 0
1, 50783, Note_off_c, 0, 78, 0
1, 50787, Note_off_c, 0, 74, 0
1, 50797, Control_c, 0, 64, 127
1, 50804, Note_off_c, 0, 81, 0
1, 50817, Note_off_c, 0, 50, 0
1, 50823, Note_off_c, 0, 43, 0
1, 50826, Note_off_c, 0, 71, 0
1, 50832, Note_off_c, 0, 54, 0
1, 50859, Note_on_c, 0, 78, 78
1, 50860, Note_on_c, 0, 81, 83
1, 50861, Note_on_c, 0, 74, 75
1, 50862, Note_on_c, 0, 71, 71
1, 50934, Note_on_c, 0, 66, 49
1, 50939, Note_on_c, 0, 62, 49
1, 50939, Note_on_c, 0, 59, 45
1, 50946, Note_on_c, 0, 78, 0
1, 50948, Note_on_c, 0, 81, 0
1, 50951, Note_on_c, 0, 74, 0
1, 50952, Note_on_c, 0, 71, 0
1, 50953, Note_on_c, 0, 66, 0
1, 50963, Note_on_c, 0, 62, 0
1, 50966, Note_on_c, 0, 59, 0
1, 51006, Note_on_c, 0, 71, 64
1, 51007, Note_on_c, 0, 74, 64
1, 51008, Note_on_c, 0, 79, 61
1, 51018, Note_on_c, 0, 71, 0
1, 51027, Note_on_c, 0, 74, 0
1, 51030, Note_on_c, 0, 79, 0
1, 51061, Note_on_c, 0, 45, 58
1, 51116, Note_on_c, 0, 45, 0
1, 51117, Note_on_c, 0, 78, 53
1, 51122, Note_on_c, 0, 71, 60
1, 51126, Note_on_c, 0, 38, 60
1, 51129, Note_on_c, 0, 67, 42
1, 51132, Control_c, 0, 64, 0
1, 51161, Note_off_c, 0, 78, 0
1, 51175, Control_c, 0, 64, 127
1, 51207, Note_off_c, 0, 71, 0
1, 51213, Note_off_c, 0, 38, 0
1, 51213, Note_off_c, 0, 67, 0
1, 51241, Note_on_c, 0, 67, 34
1, 51242, Note_on_c, 0, 76, 59
1, 51302, Note_on_c, 0, 67, 0
1, 51304, Note_on_c, 0, 59, 54
1, 51311, Note_on_c, 0, 74, 61
1, 51312, Note_on_c, 0, 76, 0
1, 51327, Note_on_c, 0, 59, 0
1, 51373, Note_on_c, 0, 74, 0
1, 51374, Note_on_c, 0, 71, 49
1, 51423, Note_on_c, 0, 71, 0
1, 51428, Note_on_c, 0, 67, 66
1, 51430, Note_on_c, 0, 50, 63
1, 51436, Note_on_c, 0, 67, 0
1, 51463, Note_on_c, 0, 50, 0
1, 51503, Note_on_c, 0, 54, 58
1, 51504, Note_on_c, 0, 43, 58
1, 51507, Note_on_c, 0, 59, 51
1, 51508, Note_on_c, 0, 66, 59
1, 51508, Note_on_c, 0, 62, 60
1, 51522, Control_c, 0, 64, 0
1, 51573, Control_c, 0, 64, 127
1, 51579, Note_off_c, 0, 54, 0
1, 51622, Note_off_c, 0, 43, 0
1, 51630, Note_on_c, 0, 59, 66
1, 51699, Note_on_c, 0, 54, 71
1, 51705, Note_on_c, 0, 59, 0
1, 51711, Note_on_c, 0, 66, 0
1, 51711, Note_on_c, 0, 62, 0
1, 51730, Note_on_c, 0, 59, 0
1, 51758, Note_on_c, 0, 62, 63
1, 51767, Note_on_c, 0, 54, 0
1, 51780, Note_on_c, 0, 62, 0
1, 51825, Note_on_c, 0, 52, 69
1, 51858, Note_on_c, 0, 52, 0
1, 51884, Note_on_c, 0, 45, 69
1, 51887, Note_on_c, 0, 55, 71
1, 51888, Note_on_c, 0, 82, 95
1, 51890, Note_on_c, 0, 52, 65
1, 51893, Note_on_c, 0, 83, 102
1, 51897, Note_on_c, 0, 45, 0
1, 51899, Control_c, 0, 64, 0
1, 51950, Control_c, 0, 64, 127
1, 51985, Note_off_c, 0, 55, 0
1, 52006, Note_off_c, 0, 82, 0
1, 52010, Note_on_c, 0, 86, 105
1, 52080, Note_on_c, 0, 55, 52
1, 52109, Note_on_c, 0, 52, 0
1, 52118, Note_on_c, 0, 83, 0
1, 52118, Note_on_c, 0, 86, 0
1, 52121, Note_on_c, 0, 55, 0
1, 52142, Note_on_c, 0, 83, 74
1, 52199, Note_on_c, 0, 50, 60
1, 52212, Note_on_c, 0, 83, 0
1, 52247, Note_on_c, 0, 50, 0
1, 52259, Note_on_c, 0, 54, 60
1, 52263, Note_on_c, 0, 74, 74
1, 52265, Note_on_c, 0, 50, 61
1, 52265, Note_on_c, 0, 43, 51
1, 52283, Control_c, 0, 64, 0
1, 52329, Control_c, 0, 64, 127
1, 52337, Note_off_c, 0, 54, 0
1, 52383, Note_off_c, 0, 74, 0
1, 52387, Note_on_c, 0, 82, 96
1, 52394, Note_on_c, 0, 83, 95
1, 52395, Note_on_c, 0, 50, 0
1, 52417, Control_c, 0, 64, 0
1, 52451, Control_c, 0, 64, 127
1, 52459, Note_on_c, 0, 54, 72
1, 52492, Note_on_c, 0, 43, 0
1, 52493, Note_on_c, 0, 82, 0
1, 52503, Note_on_c, 0, 83, 0
1, 52504, Note_on_c, 0, 54, 0
1, 52526, Note_on_c, 0, 86, 95
1, 52586, Note_on_c, 0, 45, 69
1, 52590, Note_on_c, 0, 55, 74
1, 52590, Note_on_c, 0, 52, 70
1, 52634, Control_c, 0, 64, 0
1, 52660, Note_on_c, 0, 74, 82
1, 52698, Control_c, 0, 64, 127
1, 52745, Note_off_c, 0, 86, 0
1, 52754, Note_off_c, 0, 45, 0
1, 52776, Note_off_c, 0, 55, 0
1, 52776, Note_on_c, 0, 83, 92
1, 52851, Note_on_c, 0, 55, 52
1, 52886, Note_on_c, 0, 52, 0
1, 52887, Note_on_c, 0, 74, 0
1, 52907, Note_on_c, 0, 86, 95
1, 52913, Note_on_c, 0, 83, 0
1, 52915, Note_on_c, 0, 55, 0
1, 53016, Note_on_c, 0, 46, 71
1, 53019, Note_on_c, 0, 55, 71
1, 53020, Note_on_c, 0, 52, 68
1, 53021, Note_on_c, 0, 74, 74
1, 53026, Control_c, 0, 64, 0
1, 53092, Control_c, 0, 64, 127
1, 53122, Note_off_c, 0, 86, 0
1, 53123, Note_off_c, 0, 46, 0
1, 53143, Note_on_c, 0, 83, 83
1, 53147, Note_on_c, 0, 55, 0
1, 53219, Note_on_c, 0, 55, 68
1, 53262, Note_on_c, 0, 52, 0
1, 53290, Note_on_c, 0, 86, 105
1, 53314, Note_on_c, 0, 74, 0
1, 53315, Note_on_c, 0, 83, 0
1, 53353, Note_on_c, 0, 55, 67
1, 53380, Note_on_c, 0, 55, 0
1, 53385, Note_on_c, 0, 86, 0
1, 53403, Note_on_c, 0, 55, 0
1, 53410, Note_on_c, 0, 82, 87
1, 53411, Note_on_c, 0, 47, 60
1, 53414, Note_on_c, 0, 55, 74
1, 53415, Note_on_c, 0, 83, 97
1, 53420, Note_on_c, 0, 82, 0
1, 53427, Control_c, 0, 64, 0
1, 53472, Control_c, 0, 64, 127
1, 53511, Note_off_c, 0, 47, 0
1, 53528, Note_on_c, 0, 88, 98
1, 53540, Note_on_c, 0, 55, 0
1, 53589, Note_on_c, 0, 83, 0
1, 53597, Note_on_c, 0, 55, 65
1, 53602, Note_on_c, 0, 86, 77
1, 53633, Note_on_c, 0, 88, 0
1, 53659, Note_on_c, 0, 83, 77
1, 53664, Note_on_c, 0, 55, 0
1, 53686, Note_on_c, 0, 86, 0
1, 53707, Note_on_c, 0, 83, 0
1, 53711, Note_on_c, 0, 79, 71
1, 53718, Note_on_c, 0, 52, 63
1, 53738, Note_on_c, 0, 79, 0
1, 53780, Note_on_c, 0, 52, 0
1, 53780, Note_on_c, 0, 84, 77
1, 53781, Note_on_c, 0, 79, 66
1, 53781, Note_on_c, 0, 88, 69
1, 53783, Note_on_c, 0, 45, 77
1, 53800, Control_c, 0, 64, 0
1, 53841, Control_c, 0, 64, 127
1, 53845, Note_on_c, 0, 52, 58
1, 53866, Note_on_c, 0, 84, 0
1, 53874, Note_on_c, 0, 79, 0
1, 53875, Note_on_c, 0, 88, 0
1, 53876, Note_on_c, 0, 45, 0
1, 53891, Note_on_c, 0, 52, 0
1, 53906, Note_on_c, 0, 88, 71
1, 53909, Note_on_c, 0, 79, 52
1, 53909, Note_on_c, 0, 84, 63
1, 53971, Note_on_c, 0, 88, 0
1, 53974, Note_on_c, 0, 57, 84
1, 53976, Note_on_c, 0, 79, 0
1, 53986, Note_on_c, 0, 84, 0
1, 54033, Note_on_c, 0, 60, 61
1, 54090, Note_on_c, 0, 64, 65
1, 54159, Note_on_c, 0, 79, 62
1, 54162, Note_on_c, 0, 72, 48
1, 54163, Note_on_c, 0, 76, 57
1, 54164, Note_on_c, 0, 67, 39
1, 54196, Note_on_c, 0, 57, 0
1, 54196, Note_on_c, 0, 60, 0
1, 54227, Note_on_c, 0, 64, 0
1, 54288, Note_on_c, 0, 79, 0
1, 54289, Note_on_c, 0, 72, 55
1, 54342, Note_on_c, 0, 72, 0
1, 54351, Note_on_c, 0, 64, 64
1, 54361, Note_on_c, 0, 76, 0
1, 54368, Note_on_c, 0, 67, 0
1, 54376, Note_on_c, 0, 72, 0
1, 54420, Note_on_c, 0, 76, 53
1, 54433, Note_on_c, 0, 64, 0
1, 54445, Note_on_c, 0, 76, 0
1, 54478, Note_on_c, 0, 45, 57
1, 54526, Note_on_c, 0, 45, 0
1, 54537, Note_on_c, 0, 78, 69
1, 54539, Note_on_c, 0, 75, 69
1, 54540, Note_on_c, 0, 72, 64
1, 54541, Note_on_c, 0, 81, 62
1, 54542, Note_on_c, 0, 38, 64
1, 54548, Control_c, 0, 64, 0
1, 54585, Control_c, 0, 64, 127
1, 54587, Note_off_c, 0, 78, 0
1, 54620, Note_off_c, 0, 75, 0
1, 54665, Note_on_c, 0, 72, 71
1, 54726, Note_on_c, 0, 57, 82
1, 54727, Note_on_c, 0, 60, 64
1, 54727, Note_on_c, 0, 54, 76
1, 54729, Note_on_c, 0, 50, 74
1, 54732, Note_on_c, 0, 72, 0
1, 54733, Note_on_c, 0, 81, 0
1, 54737, Note_on_c, 0, 38, 0
1, 54740, Note_on_c, 0, 72, 0
1, 54788, Note_on_c, 0, 78, 81
1, 54789, Note_on_c, 0, 75, 80
1, 54790, Note_on_c, 0, 81, 81
1, 54790, Note_on_c, 0, 72, 72
1, 54794, Note_on_c, 0, 57, 0
1, 54798, Note_on_c, 0, 60, 0
1, 54807, Note_on_c, 0, 54, 0
1, 54812, Note_on_c, 0, 50, 0
1, 54814, Note_on_c, 0, 78, 0
1, 54849, Note_on_c, 0, 60, 69
1, 54864, Note_on_c, 0, 75, 0
1, 54869, Note_on_c, 0, 81, 0
1, 54870, Note_on_c, 0, 72, 0
1, 54873, Note_on_c, 0, 60, 0
1, 54920, Note_on_c, 0, 54, 91
1, 54920, Note_on_c, 0, 57, 100
1, 54921, Note_on_c, 0, 60, 93
1, 54921, Note_on_c, 0, 50, 92
1, 55036, Note_on_c, 0, 83, 98
1, 55036, Note_on_c, 0, 71, 94
1, 55049, Note_on_c, 0, 54, 0
1, 55049, Note_on_c, 0, 57, 0
1, 55056, Note_on_c, 0, 60, 0
1, 55057, Note_on_c, 0, 50, 0
1, 55063, Note_on_c, 0, 83, 0
1, 55065, Note_on_c, 0, 71, 0
1, 55116, Note_on_c, 0, 57, 77
1, 55117, Note_on_c, 0, 50, 77
1, 55119, Note_on_c, 0, 74, 114
1, 55120, Note_on_c, 0, 86, 102
1, 55121, Note_on_c, 0, 54, 68
1, 55123, Note_on_c, 0, 60, 43
1, 55131, Note_on_c, 0, 57, 0
1, 55131, Note_on_c, 0, 50, 0
1, 55132, Note_on_c, 0, 74, 0
1, 55132, Note_on_c, 0, 86, 0
1, 55144, Note_on_c, 0, 54, 0
1, 55144, Note_on_c, 0, 60, 0
1, 55212, Note_on_c, 0, 73, 115
1, 55213, Note_on_c, 0, 85, 107
1, 55224, Note_on_c, 0, 73, 0
1, 55227, Note_on_c, 0, 85, 0
1, 55307, Note_on_c, 0, 83, 98
1, 55307, Note_on_c, 0, 86, 94
1, 55308, Note_on_c, 0, 45, 78
1, 55309, Note_on_c, 0, 74, 90
1, 55310, Note_on_c, 0, 55, 83
1, 55310, Note_on_c, 0, 72, 93
1, 55314, Note_on_c, 0, 52, 77
1, 55315, Control_c, 0, 64, 0
1, 55344, Note_off_c, 0, 83, 0
1, 55350, Control_c, 0, 64, 127
1, 55370, Note_off_c, 0, 86, 0
1, 55374, Note_off_c, 0, 45, 0
1, 55375, Note_off_c, 0, 74, 0
1, 55386, Note_off_c, 0, 55, 0
1, 55418, Note_on_c, 0, 74, 77
1, 55462, Note_on_c, 0, 72, 0
1, 55463, Note_on_c, 0, 57, 86
1, 55469, Note_on_c, 0, 60, 82
1, 55481, Note_on_c, 0, 64, 75
1, 55495, Note_on_c, 0, 52, 0
1, 55503, Note_on_c, 0, 67, 74
1, 55515, Note_on_c, 0, 74, 77
1, 55524, Note_on_c, 0, 74, 0
1, 55535, Note_on_c, 0, 57, 0
1, 55543, Note_on_c, 0, 60, 0
1, 55545, Note_on_c, 0, 64, 0
1, 55548, Note_on_c, 0, 67, 0
1, 55550, Note_on_c, 0, 79, 77
1, 55555, Note_on_c, 0, 74, 0
1, 55561, Note_on_c, 0, 79, 0
1, 55590, Note_on_c, 0, 83, 90
1, 55613, Note_on_c, 0, 83, 0
1, 55623, Note_on_c, 0, 86, 91
1, 55639, Note_on_c, 0, 86, 0
1, 55673, Note_on_c, 0, 50, 77
1, 55674, Note_on_c, 0, 57, 83
1, 55675, Note_on_c, 0, 60, 73
1, 55676, Note_on_c, 0, 54, 76
1, 55691, Note_on_c, 0, 93, 91
1, 55691, Note_on_c, 0, 91, 93
1, 55700, Note_on_c, 0, 50, 0
1, 55701, Note_on_c, 0, 57, 0
1, 55703, Control_c, 0, 64, 0
1, 55727, Note_on_c, 0, 94, 89
1, 55741, Control_c, 0, 64, 127
1, 55744, Note_off_c, 0, 60, 0
1, 55765, Note_on_c, 0, 95, 95
1, 55780, Note_on_c, 0, 54, 0
1, 55797, Note_on_c, 0, 98, 105
1, 55823, Note_on_c, 0, 93, 0
1, 55825, Note_on_c, 0, 91, 0
1, 55832, Note_on_c, 0, 95, 91
1, 55862, Note_on_c, 0, 94, 0
1, 55870, Note_on_c, 0, 91, 105
1, 55871, Note_on_c, 0, 60, 58
1, 55882, Note_on_c, 0, 95, 0
1, 55883, Note_on_c, 0, 98, 0
1, 55889, Note_on_c, 0, 95, 0
1, 55892, Note_on_c, 0, 91, 0
1, 55895, Note_on_c, 0, 60, 0
1, 55908, Note_on_c, 0, 89, 59
1, 55919, Note_on_c, 0, 89, 0
1, 55948, Note_on_c, 0, 88, 65
1, 55971, Note_on_c, 0, 88, 0
1, 55990, Note_on_c, 0, 86, 60
1, 56006, Note_on_c, 0, 86, 0
1, 56024, Note_on_c, 0, 86, 56
1, 56027, Note_on_c, 0, 54, 81
1, 56031, Note_on_c, 0, 57, 79
1, 56037, Note_on_c, 0, 86, 0
1, 56060, Note_on_c, 0, 91, 93
1, 56070, Control_c, 0, 64, 0
1, 56074, Note_on_c, 0, 90, 88
1, 56083, Note_on_c, 0, 47, 70
1, 56085, Note_on_c, 0, 54, 0
1, 56090, Note_on_c, 0, 57, 0
1, 56091, Note_on_c, 0, 89, 87
1, 56099, Note_on_c, 0, 88, 77
1, 56100, Note_on_c, 0, 91, 0
1, 56114, Note_on_c, 0, 87, 86
1, 56120, Note_on_c, 0, 90, 0
1, 56121, Control_c, 0, 64, 127
1, 56128, Note_off_c, 0, 47, 0
1, 56131, Note_on_c, 0, 86, 82
1, 56140, Note_on_c, 0, 89, 0
1, 56159, Note_on_c, 0, 85, 81
1, 56184, Note_on_c, 0, 84, 77
1, 56193, Note_on_c, 0, 88, 0
1, 56196, Note_on_c, 0, 87, 0
1, 56201, Note_on_c, 0, 83, 88
1, 56216, Note_on_c, 0, 86, 0
1, 56228, Note_on_c, 0, 82, 82
1, 56245, Note_on_c, 0, 85, 0
1, 56251, Note_on_c, 0, 81, 78
1, 56263, Note_on_c, 0, 84, 0
1, 56276, Note_on_c, 0, 80, 77
1, 56292, Note_on_c, 0, 83, 0
1, 56299, Note_on_c, 0, 79, 61
1, 56302, Note_on_c, 0, 81, 56
1, 56311, Note_on_c, 0, 82, 0
1, 56311, Note_on_c, 0, 81, 0
1, 56318, Note_on_c, 0, 80, 0
1, 56322, Note_on_c, 0, 78, 79
1, 56335, Note_on_c, 0, 79, 0
1, 56339, Note_on_c, 0, 81, 0
1, 56347, Note_on_c, 0, 77, 67
1, 56348, Note_on_c, 0, 78, 0
1, 56361, Note_on_c, 0, 77, 0
1, 56368, Note_on_c, 0, 75, 83
1, 56382, Note_on_c, 0, 75, 0
1, 56393, Note_on_c, 0, 76, 44
1, 56401, Note_on_c, 0, 76, 0
1, 56409, Note_on_c, 0, 75, 79
1, 56426, Note_on_c, 0, 75, 0
1, 56435, Note_on_c, 0, 73, 70
1, 56438, Note_on_c, 0, 74, 98
1, 56443, Note_on_c, 0, 73, 0
1, 56448, Note_on_c, 0, 52, 74
1, 56464, Control_c, 0, 64, 0
1, 56498, Note_on_c, 0, 55, 56
1, 56507, Control_c, 0, 64, 127
1, 56539, Note_off_c, 0, 74, 0
1, 56551, Note_on_c, 0, 59, 55
1, 56561, Note_on_c, 0, 76, 67
1, 56622, Note_on_c, 0, 67, 58
1, 56624, Note_on_c, 0, 62, 65
1, 56628, Note_on_c, 0, 69, 40
1, 56636, Note_on_c, 0, 52, 0
1, 56642, Note_on_c, 0, 55, 0
1, 56650, Note_on_c, 0, 59, 0
1, 56651, Note_on_c, 0, 76, 0
1, 56652, Note_on_c, 0, 67, 0
1, 56658, Note_on_c, 0, 62, 0
1, 56662, Note_on_c, 0, 69, 0
1, 56687, Note_on_c, 0, 71, 47
1, 56703, Note_on_c, 0, 71, 0
1, 56721, Note_on_c, 0, 74, 71
1, 56750, Note_on_c, 0, 74, 0
1, 56769, Note_on_c, 0, 76, 57
1, 56771, Note_on_c, 0, 52, 50
1, 56778, Note_on_c, 0, 76, 0
1, 56803, Note_on_c, 0, 52, 0
1, 56822, Note_on_c, 0, 83, 82
1, 56824, Note_on_c, 0, 45, 69
1, 56832, Control_c, 0, 64, 0
1, 56865, Control_c, 0, 64, 127
1, 56871, Note_on_c, 0, 52, 62
1, 56901, Note_on_c, 0, 83, 0
1, 56919, Note_on_c, 0, 45, 0
1, 56924, Note_on_c, 0, 55, 53
1, 56931, Note_on_c, 0, 79, 56
1, 56933, Note_on_c, 0, 52, 0
1, 56935, Note_on_c, 0, 76, 52
1, 57026, Note_on_c, 0, 57, 80
1, 57040, Note_on_c, 0, 55, 0
1, 57085, Note_on_c, 0, 60, 65
1, 57112, Note_on_c, 0, 79, 0
1, 57136, Note_on_c, 0, 64, 69
1, 57161, Note_on_c, 0, 76, 0
1, 57196, Note_on_c, 0, 83, 80
1, 57197, Note_on_c, 0, 72, 69
1, 57198, Note_on_c, 0, 67, 66
1, 57199, Note_on_c, 0, 76, 66
1, 57256, Note_on_c, 0, 57, 0
1, 57275, Note_on_c, 0, 60, 0
1, 57290, Note_on_c, 0, 64, 0
1, 57303, Note_on_c, 0, 83, 0
1, 57308, Note_on_c, 0, 79, 82
1, 57315, Note_on_c, 0, 72, 0
1, 57389, Note_on_c, 0, 64, 74
1, 57392, Note_on_c, 0, 76, 80
1, 57399, Note_on_c, 0, 67, 0
1, 57404, Note_on_c, 0, 76, 0
1, 57412, Note_on_c, 0, 79, 0
1, 57477, Note_on_c, 0, 64, 0
1, 57482, Note_on_c, 0, 76, 0
1, 57486, Note_on_c, 0, 72, 77
1, 57535, Note_on_c, 0, 72, 0
1, 57572, Note_on_c, 0, 44, 77
1, 57573, Note_on_c, 0, 78, 87
1, 57575, Note_on_c, 0, 72, 84
1, 57575, Note_on_c, 0, 75, 87
1, 57577, Note_on_c, 0, 83, 87
1, 57579, Note_on_c, 0, 53, 75
1, 57584, Control_c, 0, 64, 0
1, 57634, Control_c, 0, 64, 127
1, 57657, Note_off_c, 0, 44, 0
1, 57659, Note_off_c, 0, 78, 0
1, 57660, Note_off_c, 0, 72, 0
1, 57673, Note_off_c, 0, 75, 0
1, 57674, Note_on_c, 0, 78, 63
1, 57687, Note_on_c, 0, 75, 21
1, 57754, Note_on_c, 0, 83, 0
1, 57754, Note_on_c, 0, 53, 0
1, 57763, Note_on_c, 0, 56, 84
1, 57764, Note_on_c, 0, 78, 0
1, 57773, Note_on_c, 0, 75, 0
1, 57843, Note_on_c, 0, 60, 56
1, 57941, Note_on_c, 0, 63, 77
1, 57944, Note_on_c, 0, 79, 73
1, 57944, Note_on_c, 0, 68, 83
1, 57945, Note_on_c, 0, 75, 78
1, 57946, Note_on_c, 0, 72, 77
1, 57956, Note_on_c, 0, 67, 48
1, 58002, Note_on_c, 0, 56, 0
1, 58016, Note_on_c, 0, 60, 0
1, 58018, Note_on_c, 0, 63, 0
1, 58033, Note_on_c, 0, 79, 0
1, 58045, Note_on_c, 0, 68, 0
1, 58060, Note_on_c, 0, 75, 0
1, 58065, Note_on_c, 0, 68, 90
1, 58065, Note_on_c, 0, 72, 86
1, 58066, Note_on_c, 0, 77, 82
1, 58140, Note_on_c, 0, 63, 79
1, 58152, Note_on_c, 0, 75, 86
1, 58161, Note_on_c, 0, 72, 0
1, 58163, Note_on_c, 0, 67, 0
1, 58165, Note_on_c, 0, 68, 0
1, 58168, Note_on_c, 0, 72, 0
1, 58168, Note_on_c, 0, 77, 0
1, 58196, Note_on_c, 0, 63, 0
1, 58213, Note_on_c, 0, 72, 77
1, 58260, Note_on_c, 0, 75, 0
1, 58266, Note_on_c, 0, 68, 80
1, 58267, Note_on_c, 0, 72, 0
1, 58274, Note_on_c, 0, 54, 74
1, 58286, Note_on_c, 0, 68, 0
1, 58316, Note_on_c, 0, 54, 0
1, 58335, Note_on_c, 0, 54, 78
1, 58336, Note_on_c, 0, 47, 66
1, 58337, Note_on_c, 0, 57, 83
1, 58339, Note_on_c, 0, 66, 98
1, 58339, Note_on_c, 0, 71, 91
1, 58341, Note_on_c, 0, 74, 95
1, 58347, Note_on_c, 0, 65, 64
1, 58351, Control_c, 0, 64, 0
1, 58355, Note_off_c, 0, 54, 0
1, 58392, Control_c, 0, 64, 127
1, 58394, Note_off_c, 0, 47, 0
1, 58402, Note_off_c, 0, 57, 0
1, 58405, Note_off_c, 0, 66, 0
1, 58446, Note_off_c, 0, 71, 0
1, 58469, Note_on_c, 0, 86, 88
1, 58469, Note_on_c, 0, 78, 91
1, 58470, Note_on_c, 0, 83, 86
1, 58530, Note_on_c, 0, 57, 78
1, 58548, Note_on_c, 0, 74, 0
1, 58557, Note_on_c, 0, 65, 0
1, 58568, Note_on_c, 0, 86, 0
1, 58571, Note_on_c, 0, 78, 0
1, 58588, Note_on_c, 0, 83, 0
1, 58593, Note_on_c, 0, 78, 85
1, 58623, Note_on_c, 0, 57, 0
1, 58627, Note_on_c, 0, 78, 0
1, 58644, Note_on_c, 0, 54, 80
1, 58665, Note_on_c, 0, 54, 0
1, 58714, Note_on_c, 0, 86, 94
1, 58715, Note_on_c, 0, 82, 98
1, 58716, Note_on_c, 0, 74, 102
1, 58716, Note_on_c, 0, 56, 88
1, 58718, Note_on_c, 0, 46, 79
1, 58738, Control_c, 0, 64, 0
1, 58784, Control_c, 0, 64, 127
1, 58795, Note_off_c, 0, 86, 0
1, 58798, Note_off_c, 0, 82, 0
1, 58807, Note_off_c, 0, 74, 0
1, 58841, Note_on_c, 0, 74, 105
1, 58841, Note_on_c, 0, 82, 96
1, 58842, Note_on_c, 0, 86, 94
1, 58855, Note_on_c, 0, 56, 0
1, 58861, Note_on_c, 0, 46, 0
1, 58861, Note_on_c, 0, 74, 0
1, 58862, Note_on_c, 0, 82, 0
1, 58863, Note_on_c, 0, 86, 0
1, 58911, Note_on_c, 0, 46, 94
1, 58912, Note_on_c, 0, 56, 100
1, 58967, Note_on_c, 0, 46, 0
1, 58971, Note_on_c, 0, 76, 95
1, 58971, Note_on_c, 0, 88, 88
1, 58976, Note_on_c, 0, 56, 0
1, 58977, Note_on_c, 0, 85, 61
1, 58979, Note_on_c, 0, 76, 0
1, 58985, Note_on_c, 0, 88, 0
1, 58986, Note_on_c, 0, 85, 0
1, 59029, Note_on_c, 0, 56, 84
1, 59059, Note_on_c, 0, 56, 0
1, 59095, Note_on_c, 0, 54, 94
1, 59096, Note_on_c, 0, 45, 84
1, 59098, Note_on_c, 0, 78, 103
1, 59098, Note_on_c, 0, 90, 92
1, 59111, Control_c, 0, 64, 0
1, 59151, Control_c, 0, 64, 127
1, 59172, Note_off_c, 0, 54, 0
1, 59172, Note_off_c, 0, 45, 0
1, 59222, Note_on_c, 0, 78, 91
1, 59222, Note_on_c, 0, 90, 94
1, 59232, Note_on_c, 0, 78, 0
1, 59238, Note_on_c, 0, 90, 0
1, 59240, Note_on_c, 0, 78, 0
1, 59242, Note_on_c, 0, 90, 0
1, 59286, Note_on_c, 0, 54, 87
1, 59289, Note_on_c, 0, 45, 60
1, 59321, Note_on_c, 0, 54, 0
1, 59326, Note_on_c, 0, 45, 0
1, 59352, Note_on_c, 0, 78, 89
1, 59353, Note_on_c, 0, 90, 95
1, 59371, Note_on_c, 0, 78, 0
1, 59378, Note_on_c, 0, 90, 0
1, 59406, Note_on_c, 0, 54, 66
1, 59437, Note_on_c, 0, 54, 0
1, 59476, Note_on_c, 0, 78, 85
1, 59476, Note_on_c, 0, 90, 89
1, 59478, Note_on_c, 0, 44, 62
1, 59481, Note_on_c, 0, 53, 66
1, 59484, Control_c, 0, 64, 0
1, 59525, Control_c, 0, 64, 127
1, 59544, Note_off_c, 0, 78, 0
1, 59580, Note_off_c, 0, 90, 0
1, 59595, Note_off_c, 0, 44, 0
1, 59595, Note_on_c, 0, 91, 97
1, 59596, Note_on_c, 0, 79, 68
1, 59630, Note_on_c, 0, 53, 0
1, 59634, Note_on_c, 0, 91, 0
1, 59665, Note_on_c, 0, 53, 61
1, 59682, Note_on_c, 0, 79, 0
1, 59694, Note_on_c, 0, 53, 0
1, 59782, Note_on_c, 0, 93, 102
1, 59782, Note_on_c, 0, 84, 83
1, 59784, Note_on_c, 0, 88, 81
1, 59785, Note_on_c, 0, 81, 82
1, 59786, Note_on_c, 0, 45, 67
1, 59809, Control_c, 0, 64, 0
1, 59862, Control_c, 0, 64, 127
1, 59863, Note_on_c, 0, 33, 77
1, 59891, Note_on_c, 0, 93, 0
1, 59898, Note_on_c, 0, 84, 0
1, 59901, Note_on_c, 0, 88, 0
1, 59906, Note_on_c, 0, 81, 0
1, 59911, Note_on_c, 0, 45, 0
1, 59916, Note_on_c, 0, 33, 0
1, 59983, Note_on_c, 0, 45, 87
1, 60014, Note_on_c, 0, 45, 0
1, 60066, Note_on_c, 0, 71, 54
1, 60102, Note_on_c, 0, 57, 83
1, 60115, Note_on_c, 0, 71, 0
1, 60161, Note_on_c, 0, 60, 69
1, 60213, Note_on_c, 0, 57, 0
1, 60227, Note_on_c, 0, 76, 88
1, 60227, Note_on_c, 0, 71, 97
1, 60228, Note_on_c, 0, 67, 82
1, 60228, Note_on_c, 0, 83, 93
1, 60231, Note_on_c, 0, 78, 62
1, 60232, Note_on_c, 0, 79, 74
1, 60234, Note_on_c, 0, 60, 33
1, 60275, Note_on_c, 0, 60, 0
1, 60279, Note_on_c, 0, 76, 0
1, 60279, Note_on_c, 0, 71, 0
1, 60280, Note_on_c, 0, 67, 0
1, 60289, Note_on_c, 0, 83, 0
1, 60295, Note_on_c, 0, 78, 0
1, 60312, Note_on_c, 0, 79, 86
1, 60315, Note_on_c, 0, 71, 77
1, 60318, Note_on_c, 0, 64, 78
1, 60325, Note_on_c, 0, 79, 0
1, 60361, Note_on_c, 0, 60, 0
1, 60397, Note_on_c, 0, 60, 66
1, 60398, Note_on_c, 0, 76, 76
1, 60405, Note_on_c, 0, 79, 0
1, 60408, Note_on_c, 0, 71, 0
1, 60414, Note_on_c, 0, 64, 0
1, 60483, Note_on_c, 0, 57, 77
1, 60484, Note_on_c, 0, 71, 68
1, 60486, Note_on_c, 0, 60, 0
1, 60489, Note_on_c, 0, 76, 0
1, 60498, Note_on_c, 0, 57, 0
1, 60501, Note_on_c, 0, 71, 0
1, 60595, Note_on_c, 0, 55, 67
1, 60598, Note_on_c, 0, 71, 61
1, 60599, Note_on_c, 0, 60, 62
1, 60600, Note_on_c, 0, 45, 58
1, 60602, Note_on_c, 0, 64, 66
1, 60620, Control_c, 0, 64, 0
1, 60661, Control_c, 0, 64, 127
1, 60695, Note_off_c, 0, 55, 0
1, 60699, Note_off_c, 0, 71, 0
1, 60701, Note_off_c, 0, 60, 0
1, 60703, Note_on_c, 0, 67, 63
1, 60712, Note_on_c, 0, 52, 50
1, 60713, Note_on_c, 0, 45, 0
1, 60792, Note_on_c, 0, 64, 69
1, 60805, Note_on_c, 0, 64, 0
1, 60814, Note_on_c, 0, 67, 0
1, 60885, Note_on_c, 0, 52, 0
1, 60886, Note_on_c, 0, 64, 0
1, 60889, Note_on_c, 0, 60, 60
1, 60898, Note_on_c, 0, 45, 64
1, 60902, Note_on_c, 0, 60, 0
1, 60986, Note_on_c, 0, 54, 66
1, 60988, Note_on_c, 0, 38, 51
1, 60991, Note_on_c, 0, 62, 61
1, 60993, Note_on_c, 0, 58, 59
1, 60999, Control_c, 0, 64, 0
1, 61004, Note_off_c, 0, 45, 0
1, 61053, Control_c, 0, 64, 127
1, 61095, Note_off_c, 0, 54, 0
1, 61099, Note_off_c, 0, 38, 0
1, 61099, Note_off_c, 0, 62, 0
1, 61105, Note_off_c, 0, 58, 0
1, 61178, Note_on_c, 0, 50, 71
1, 61178, Note_on_c, 0, 59, 68
1, 61226, Note_on_c, 0, 50, 0
1, 61239, Note_on_c, 0, 62, 91
1, 61253, Note_on_c, 0, 59, 0
1, 61295, Note_on_c, 0, 59, 76
1, 61297, Note_on_c, 0, 62, 0
1, 61299, Note_on_c, 0, 50, 77
1, 61304, Note_on_c, 0, 59, 0
1, 61364, Note_on_c, 0, 43, 67
1, 61368, Note_on_c, 0, 54, 86
1, 61369, Note_on_c, 0, 62, 71
1, 61371, Note_on_c, 0, 57, 82
1, 61371, Note_on_c, 0, 59, 71
1, 61384, Control_c, 0, 64, 0
1, 61401, Note_off_c, 0, 50, 0
1, 61427, Note_on_c, 0, 62, 69
1, 61429, Control_c, 0, 64, 127
1, 61459, Note_off_c, 0, 43, 0
1, 61495, Note_on_c, 0, 62, 79
1, 61496, Note_on_c, 0, 54, 0
1, 61516, Note_on_c, 0, 62, 0
1, 61570, Note_on_c, 0, 50, 66
1, 61586, Note_on_c, 0, 57, 0
1, 61597, Note_on_c, 0, 59, 0
1, 61622, Note_on_c, 0, 54, 53
1, 61677, Note_on_c, 0, 62, 0
1, 61678, Note_on_c, 0, 62, 0
1, 61684, Note_on_c, 0, 38, 52
1, 61692, Note_on_c, 0, 50, 0
1, 61748, Control_c, 0, 64, 0
1, 61753, Note_on_c, 0, 50, 59
1, 61792, Control_c, 0, 64, 127
1, 61808, Note_off_c, 0, 54, 0
1, 61872, Note_on_c, 0, 59, 44
1, 61874, Note_on_c, 0, 52, 49
1, 61876, Note_on_c, 0, 57, 57
1, 61943, Note_on_c, 0, 45, 54
1, 61950, Note_on_c, 0, 38, 0
1, 61953, Note_on_c, 0, 50, 0
1, 61964, Note_on_c, 0, 59, 0
1, 62003, Note_on_c, 0, 52, 53
1, 62025, Note_on_c, 0, 52, 0
1, 62037, Note_on_c, 0, 57, 0
1, 62038, Note_on_c, 0, 45, 0
1, 62060, Note_on_c, 0, 31, 56
1, 62119, Control_c, 0, 64, 0
1, 62124, Note_on_c, 0, 54, 58
1, 62130, Note_on_c, 0, 43, 57
1, 62130, Note_on_c, 0, 59, 53
1, 62131, Note_on_c, 0, 57, 60
1, 62174, Control_c, 0, 64, 127
1, 62240, Note_off_c, 0, 52, 0
1, 62305, Note_off_c, 0, 31, 0
1, 62321, Note_on_c, 0, 43, 55
1, 62346, Note_on_c, 0, 54, 0
1, 62380, Note_on_c, 0, 43, 0
1, 62382, Note_on_c, 0, 54, 59
1, 62405, Note_on_c, 0, 59, 0
1, 62408, Note_on_c, 0, 57, 0
1, 62440, Note_on_c, 0, 43, 57
1, 62472, Note_on_c, 0, 43, 0
1, 62499, Note_on_c, 0, 54, 0
1, 62500, Note_on_c, 0, 43, 0
1, 62516, Note_on_c, 0, 59, 87
1, 62519, Note_on_c, 0, 38, 70
1, 62520, Control_c, 0, 64, 0
1, 62560, Control_c, 0, 64, 127
1, 62599, Note_off_c, 0, 59, 0
1, 62637, Note_on_c, 0, 62, 87
1, 62712, Note_on_c, 0, 43, 62
1, 62757, Note_on_c, 0, 38, 0
1, 62769, Note_on_c, 0, 62, 0
1, 62770, Note_on_c, 0, 59, 77
1, 62784, Note_on_c, 0, 43, 0
1, 62826, Note_on_c, 0, 43, 59
1, 62869, Note_on_c, 0, 59, 0
1, 62882, Control_c, 0, 64, 0
1, 62895, Note_on_c, 0, 55, 68
1, 62898, Note_on_c, 0, 31, 67
1, 62898, Note_on_c, 0, 64, 64
1, 62899, Note_on_c, 0, 59, 58
1, 62942, Control_c, 0, 64, 127
1, 62965, Note_off_c, 0, 43, 0
1, 62986, Note_off_c, 0, 55, 0
1, 63013, Note_off_c, 0, 31, 0
1, 63018, Note_on_c, 0, 55, 71
1, 63022, Note_on_c, 0, 64, 0
1, 63084, Note_on_c, 0, 43, 55
1, 63117, Note_on_c, 0, 59, 0
1, 63143, Note_on_c, 0, 66, 70
1, 63144, Note_on_c, 0, 59, 50
1, 63191, Note_on_c, 0, 55, 0
1, 63204, Note_on_c, 0, 43, 0
1, 63205, Note_on_c, 0, 43, 60
1, 63211, Note_on_c, 0, 66, 0
1, 63233, Note_on_c, 0, 59, 0
1, 63266, Note_on_c, 0, 55, 64
1, 63267, Note_on_c, 0, 43, 0
1, 63268, Note_on_c, 0, 62, 58
1, 63268, Note_on_c, 0, 59, 61
1, 63269, Note_on_c, 0, 64, 63
1, 63275, Note_on_c, 0, 38, 63
1, 63290, Control_c, 0, 64, 0
1, 63311, Control_c, 0, 64, 127
1, 63338, Note_off_c, 0, 55, 0
1, 63389, Note_on_c, 0, 55, 54
1, 63427, Note_on_c, 0, 62, 0
1, 63463, Note_on_c, 0, 38, 45
1, 63466, Note_on_c, 0, 59, 0
1, 63491, Note_on_c, 0, 64, 0
1, 63526, Note_on_c, 0, 55, 44
1, 63585, Note_on_c, 0, 38, 43
1, 63660, Note_on_c, 0, 31, 53
1, 63665, Control_c, 0, 64, 0
1, 63669, Note_off_c, 0, 38, 0
1, 63682, Control_c, 0, 64, 127
1, 63686, Note_off_c, 0, 55, 0
1, 63776, Note_on_c, 0, 55, 59
1, 63842, Note_on_c, 0, 43, 34
1, 63845, Note_on_c, 0, 38, 0
1, 63897, Note_on_c, 0, 55, 0
1, 63898, Note_on_c, 0, 38, 0
1, 63906, Note_on_c, 0, 55, 57
1, 63929, Note_on_c, 0, 31, 0
1, 63940, Note_on_c, 0, 55, 0
1, 63940, Note_on_c, 0, 43, 0
1, 63946, Note_on_c, 0, 55, 0
1, 63959, Note_on_c, 0, 33, 92
1, 64002, Control_c, 0, 64, 0
1, 64029, Note_on_c, 0, 45, 88
1, 64030, Note_on_c, 0, 64, 93
1, 64030, Note_on_c, 0, 55, 93
1, 64032, Note_on_c, 0, 60, 85
1, 64086, Control_c, 0, 64, 127
1, 64105, Note_off_c, 0, 33, 0
1, 64122, Note_off_c, 0, 45, 0
1, 64127, Note_off_c, 0, 64, 0
1, 64151, Note_on_c, 0, 67, 100
1, 64159, Note_on_c, 0, 55, 0
1, 64218, Note_on_c, 0, 45, 84
1, 64260, Note_on_c, 0, 60, 0
1, 64286, Note_on_c, 0, 64, 87
1, 64315, Note_on_c, 0, 67, 0
1, 64318, Note_on_c, 0, 45, 0
1, 64333, Note_on_c, 0, 64, 0
1, 64352, Note_on_c, 0, 67, 93
1, 64353, Note_on_c, 0, 31, 83
1, 64417, Control_c, 0, 64, 0
1, 64422, Note_on_c, 0, 43, 64
1, 64423, Note_on_c, 0, 55, 71
1, 64428, Note_on_c, 0, 62, 62
1, 64430, Note_on_c, 0, 59, 59
1, 64480, Control_c, 0, 64, 127
1, 64494, Note_off_c, 0, 67, 0
1, 64534, Note_on_c, 0, 55, 71
1, 64541, Note_on_c, 0, 31, 0
1, 64549, Note_on_c, 0, 43, 0
1, 64559, Note_on_c, 0, 55, 0
1, 64562, Note_on_c, 0, 62, 0
1, 64575, Note_on_c, 0, 59, 0
1, 64606, Note_on_c, 0, 43, 87
1, 64612, Control_c, 0, 64, 0
1, 64667, Note_on_c, 0, 70, 104
1, 64675, Note_on_c, 0, 71, 114
1, 64676, Note_on_c, 0, 55, 0
1, 64681, Control_c, 0, 64, 127
1, 64690, Note_off_c, 0, 43, 0
1, 64703, Note_off_c, 0, 70, 0
1, 64705, Note_off_c, 0, 71, 0
1, 64733, Note_on_c, 0, 33, 77
1, 64734, Control_c, 0, 64, 0
1, 64792, Note_on_c, 0, 55, 91
1, 64793, Note_on_c, 0, 64, 83
1, 64793, Note_on_c, 0, 67, 77
1, 64795, Note_on_c, 0, 60, 83
1, 64795, Note_on_c, 0, 45, 77
1, 64866, Control_c, 0, 64, 127
1, 64904, Note_off_c, 0, 33, 0
1, 64987, Note_off_c, 0, 55, 0
1, 64988, Note_on_c, 0, 45, 81
1, 64996, Note_on_c, 0, 64, 0
1, 64998, Note_on_c, 0, 67, 0
1, 65040, Note_on_c, 0, 64, 82
1, 65041, Note_on_c, 0, 55, 69
1, 65047, Note_on_c, 0, 60, 0
1, 65051, Note_on_c, 0, 45, 0
1, 65056, Note_on_c, 0, 45, 0
1, 65074, Note_on_c, 0, 64, 0
1, 65078, Note_on_c, 0, 55, 0
1, 65105, Note_on_c, 0, 33, 84
1, 65137, Note_on_c, 0, 33, 0
1, 65172, Note_on_c, 0, 61, 87
1, 65173, Note_on_c, 0, 55, 92
1, 65173, Note_on_c, 0, 64, 86
1, 65176, Note_on_c, 0, 46, 89
1, 65176, Note_on_c, 0, 67, 77
1, 65178, Note_on_c, 0, 34, 74
1, 65182, Control_c, 0, 64, 0
1, 65259, Control_c, 0, 64, 127
1, 65313, Note_off_c, 0, 61, 0
1, 65314, Note_off_c, 0, 55, 0
1, 65316, Note_off_c, 0, 64, 0
1, 65359, Note_off_c, 0, 46, 0
1, 65361, Note_off_c, 0, 67, 0
1, 65363, Note_on_c, 0, 46, 97
1, 65364, Note_on_c, 0, 34, 94
1, 65413, Note_on_c, 0, 61, 84
1, 65415, Note_on_c, 0, 64, 77
1, 65416, Note_on_c, 0, 55, 85
1, 65419, Note_on_c, 0, 34, 0
1, 65420, Note_on_c, 0, 46, 0
1, 65471, Note_on_c, 0, 34, 0
1, 65477, Note_on_c, 0, 46, 103
1, 65478, Note_on_c, 0, 34, 98
1, 65489, Note_on_c, 0, 61, 0
1, 65491, Note_on_c, 0, 64, 0
1, 65500, Note_on_c, 0, 55, 0
1, 65502, Note_on_c, 0, 46, 0
1, 65503, Note_on_c, 0, 34, 0
1, 65557, Note_on_c, 0, 62, 95
1, 65558, Note_on_c, 0, 64, 97
1, 65559, Note_on_c, 0, 67, 88
1, 65559, Note_on_c, 0, 59, 94
1, 65562, Note_on_c, 0, 47, 86
1, 65562, Note_on_c, 0, 35, 80
1, 65569, Control_c, 0, 64, 0
1, 65630, Control_c, 0, 64, 127
1, 65641, Note_off_c, 0, 62, 0
1, 65643, Note_off_c, 0, 64, 0
1, 65644, Note_off_c, 0, 67, 0
1, 65651, Note_off_c, 0, 59, 0
1, 65671, Note_on_c, 0, 59, 85
1, 65671, Note_on_c, 0, 64, 93
1, 65672, Note_on_c, 0, 62, 85
1, 65683, Note_on_c, 0, 47, 0
1, 65739, Note_on_c, 0, 47, 84
1, 65755, Note_on_c, 0, 35, 0
1, 65760, Note_on_c, 0, 59, 0
1, 65764, Note_on_c, 0, 64, 0
1, 65768, Note_on_c, 0, 62, 0
1, 65775, Note_on_c, 0, 47, 0
1, 65802, Note_on_c, 0, 67, 94
1, 65802, Note_on_c, 0, 59, 88
1, 65803, Note_on_c, 0, 62, 85
1, 65804, Note_on_c, 0, 64, 93
1, 65818, Note_on_c, 0, 67, 0
1, 65822, Note_on_c, 0, 59, 0
1, 65827, Note_on_c, 0, 62, 0
1, 65830, Note_on_c, 0, 64, 0
1, 65865, Note_on_c, 0, 47, 64
1, 65868, Note_on_c, 0, 45, 69
1, 65877, Note_on_c, 0, 47, 0
1, 65903, Note_on_c, 0, 45, 0
1, 65926, Control_c, 0, 64, 0
1, 65928, Note_on_c, 0, 67, 90
1, 65929, Note_on_c, 0, 64, 84
1, 65931, Note_on_c, 0, 71, 82
1, 65931, Note_on_c, 0, 62, 85
1, 65935, Note_on_c, 0, 35, 75
1, 65972, Control_c, 0, 64, 127
1, 65982, Note_off_c, 0, 67, 0
1, 65993, Note_on_c, 0, 69, 83
1, 65994, Note_on_c, 0, 64, 0
1, 65995, Note_on_c, 0, 71, 0
1, 66003, Note_on_c, 0, 62, 0
1, 66009, Note_on_c, 0, 35, 0
1, 66027, Note_on_c, 0, 69, 0
1, 66047, Note_on_c, 0, 67, 95
1, 66048, Note_on_c, 0, 62, 95
1, 66048, Note_on_c, 0, 71, 93
1, 66049, Note_on_c, 0, 64, 87
1, 66085, Control_c, 0, 64, 0
1, 66115, Note_on_c, 0, 40, 77
1, 66151, Control_c, 0, 64, 127
1, 66172, Note_on_c, 0, 47, 68
1, 66219, Note_on_c, 0, 67, 0
1, 66220, Note_on_c, 0, 62, 0
1, 66227, Note_on_c, 0, 52, 71
1, 66236, Note_on_c, 0, 71, 0
1, 66273, Note_on_c, 0, 52, 80
1, 66292, Note_on_c, 0, 64, 0
1, 66310, Note_on_c, 0, 55, 76
1, 66330, Note_on_c, 0, 59, 73
1, 66346, Note_on_c, 0, 40, 0
1, 66350, Note_on_c, 0, 47, 0
1, 66362, Note_on_c, 0, 62, 75
1, 66386, Note_on_c, 0, 52, 0
1, 66389, Note_on_c, 0, 52, 0
1, 66392, Note_on_c, 0, 55, 0
1, 66392, Note_on_c, 0, 64, 69
1, 66409, Note_on_c, 0, 59, 0
1, 66424, Note_on_c, 0, 67, 51
1, 66444, Note_on_c, 0, 69, 82
1, 66447, Note_on_c, 0, 62, 0
1, 66452, Note_on_c, 0, 64, 0
1, 66481, Note_on_c, 0, 74, 71
1, 66507, Note_on_c, 0, 67, 0
1, 66507, Note_on_c, 0, 76, 56
1, 66519, Note_on_c, 0, 69, 0
1, 66525, Note_on_c, 0, 79, 55
1, 66525, Note_on_c, 0, 59, 43
1, 66533, Note_on_c, 0, 74, 0
1, 66543, Note_on_c, 0, 76, 0
1, 66554, Note_on_c, 0, 86, 81
1, 66565, Note_on_c, 0, 79, 0
1, 66572, Note_on_c, 0, 59, 0
1, 66576, Note_on_c, 0, 86, 0
1, 66577, Note_on_c, 0, 88, 51
1, 66586, Note_on_c, 0, 88, 0
1, 66588, Note_on_c, 0, 91, 82
1, 66594, Note_on_c, 0, 93, 61
1, 66597, Note_on_c, 0, 91, 0
1, 66602, Note_on_c, 0, 93, 0
1, 66624, Note_on_c, 0, 98, 79
1, 66647, Note_on_c, 0, 100, 71
1, 66652, Note_on_c, 0, 98, 0
1, 66653, Note_on_c, 0, 103, 83
1, 66656, Note_on_c, 0, 100, 0
1, 66679, Note_on_c, 0, 103, 0
1, 66680, Note_on_c, 0, 107, 105
1, 66688, Note_on_c, 0, 45, 67
1, 66695, Note_on_c, 0, 107, 0
1, 66712, Control_c, 0, 64, 0
1, 66736, Control_c, 0, 64, 127
1, 66756, Note_on_c, 0, 52, 59
1, 66777, Note_on_c, 0, 45, 0
1, 66814, Note_on_c, 0, 52, 0
1, 66822, Note_on_c, 0, 55, 51
1, 66831, Note_on_c, 0, 55, 0
1, 66881, Note_on_c, 0, 61, 61
1, 66946, Note_on_c, 0, 64, 55
1, 67005, Note_on_c, 0, 61, 0
1, 67019, Note_on_c, 0, 64, 43
1, 67035, Note_on_c, 0, 64, 0
1, 67089, Note_on_c, 0, 67, 31
1, 67098, Note_on_c, 0, 64, 0
1, 67194, Note_on_c, 0, 71, 91
1, 67269, Note_on_c, 0, 64, 56
1, 67295, Note_on_c, 0, 67, 0
1, 67310, Note_on_c, 0, 71, 0
1, 67311, Note_on_c, 0, 64, 0
1, 67329, Note_on_c, 0, 74, 94
1, 67386, Note_on_c, 0, 71, 74
1, 67392, Note_on_c, 0, 50, 71
1, 67396, Note_on_c, 0, 74, 0
1, 67441, Note_on_c, 0, 71, 0
1, 67456, Note_on_c, 0, 74, 76
1, 67459, Note_on_c, 0, 60, 61
1, 67464, Control_c, 0, 64, 0
1, 67512, Control_c, 0, 64, 127
1, 67572, Note_on_c, 0, 62, 55
1, 67578, Note_on_c, 0, 66, 50
1, 67592, Note_on_c, 0, 50, 0
1, 67651, Note_on_c, 0, 57, 76
1, 67663, Note_on_c, 0, 74, 0
1, 67697, Note_on_c, 0, 60, 0
1, 67711, Note_on_c, 0, 62, 80
1, 67766, Note_on_c, 0, 66, 84
1, 67776, Note_on_c, 0, 62, 0
1, 67794, Note_on_c, 0, 66, 0
1, 67813, Note_on_c, 0, 57, 0
1, 67830, Note_on_c, 0, 66, 83
1, 67831, Note_on_c, 0, 62, 87
1, 67833, Note_on_c, 0, 71, 87
1, 67833, Note_on_c, 0, 60, 74
1, 67882, Note_on_c, 0, 62, 0
1, 67897, Note_on_c, 0, 66, 0
1, 67898, Note_on_c, 0, 66, 0
1, 67921, Note_on_c, 0, 62, 0
1, 67941, Note_on_c, 0, 66, 90
1, 67942, Note_on_c, 0, 74, 93
1, 67943, Note_on_c, 0, 62, 92
1, 67947, Note_on_c, 0, 71, 0
1, 68019, Note_on_c, 0, 57, 90
1, 68036, Note_on_c, 0, 60, 0
1, 68042, Note_on_c, 0, 66, 0
1, 68071, Note_on_c, 0, 74, 0
1, 68090, Note_on_c, 0, 71, 65
1, 68091, Note_on_c, 0, 62, 0
1, 68103, Note_on_c, 0, 57, 0
1, 68107, Note_on_c, 0, 71, 0
1, 68147, Note_on_c, 0, 49, 66
1, 68200, Note_on_c, 0, 49, 0
1, 68207, Note_on_c, 0, 42, 69
1, 68208, Note_on_c, 0, 61, 85
1, 68209, Note_on_c, 0, 69, 88
1, 68209, Note_on_c, 0, 57, 92
1, 68213, Note_on_c, 0, 52, 67
1, 68217, Control_c, 0, 64, 0
1, 68266, Note_off_c, 0, 42, 0
1, 68273, Note_on_c, 0, 67, 56
1, 68284, Control_c, 0, 64, 127
1, 68315, Note_off_c, 0, 61, 0
1, 68333, Note_on_c, 0, 69, 78
1, 68337, Note_on_c, 0, 69, 0
1, 68358, Note_on_c, 0, 57, 0
1, 68396, Note_on_c, 0, 52, 67
1, 68417, Note_on_c, 0, 52, 0
1, 68434, Note_on_c, 0, 67, 0
1, 68456, Note_on_c, 0, 57, 74
1, 68493, Note_on_c, 0, 69, 0
1, 68496, Note_on_c, 0, 52, 0
1, 68520, Note_on_c, 0, 47, 67
1, 68583, Note_on_c, 0, 66, 71
1, 68584, Note_on_c, 0, 57, 82
1, 68584, Note_on_c, 0, 59, 71
1, 68586, Note_on_c, 0, 63, 72
1, 68601, Control_c, 0, 64, 0
1, 68657, Control_c, 0, 64, 127
1, 68679, Note_off_c, 0, 57, 0
1, 68707, Note_on_c, 0, 59, 74
1, 68711, Note_on_c, 0, 47, 0
1, 68771, Note_on_c, 0, 57, 102
1, 68783, Note_on_c, 0, 66, 0
1, 68785, Note_on_c, 0, 57, 0
1, 68787, Note_on_c, 0, 59, 0
1, 68795, Note_on_c, 0, 63, 0
1, 68796, Note_on_c, 0, 59, 0
1, 68807, Note_on_c, 0, 57, 0
1, 68834, Note_on_c, 0, 59, 81
1, 68836, Note_on_c, 0, 67, 91
1, 68837, Note_on_c, 0, 63, 77
1, 68845, Note_on_c, 0, 59, 0
1, 68850, Note_on_c, 0, 67, 0
1, 68856, Note_on_c, 0, 63, 0
1, 68898, Note_on_c, 0, 40, 91
1, 68945, Control_c, 0, 64, 0
1, 68957, Note_on_c, 0, 67, 86
1, 68958, Note_on_c, 0, 64, 87
1, 68959, Note_on_c, 0, 62, 86
1, 68959, Note_on_c, 0, 52, 84
1, 68961, Note_on_c, 0, 71, 78
1, 69027, Control_c, 0, 64, 127
1, 69034, Note_off_c, 0, 40, 0
1, 69047, Note_off_c, 0, 67, 0
1, 69061, Note_off_c, 0, 64, 0
1, 69082, Note_on_c, 0, 62, 72
1, 69154, Note_on_c, 0, 52, 87
1, 69210, Note_on_c, 0, 62, 0
1, 69216, Note_on_c, 0, 52, 0
1, 69216, Note_on_c, 0, 55, 82
1, 69220, Note_on_c, 0, 71, 0
1, 69241, Note_on_c, 0, 62, 0
1, 69280, Note_on_c, 0, 67, 71
1, 69280, Note_on_c, 0, 64, 72
1, 69282, Note_on_c, 0, 62, 66
1, 69302, Note_on_c, 0, 52, 0
1, 69324, Note_on_c, 0, 55, 0
1, 69345, Note_on_c, 0, 67, 0
1, 69347, Note_on_c, 0, 59, 69
1, 69355, Note_on_c, 0, 71, 84
1, 69356, Note_on_c, 0, 62, 82
1, 69357, Note_on_c, 0, 64, 74
1, 69365, Note_on_c, 0, 64, 0
1, 69370, Note_on_c, 0, 62, 0
1, 69374, Note_on_c, 0, 59, 0
1, 69412, Note_on_c, 0, 71, 0
1, 69456, Note_on_c, 0, 62, 79
1, 69457, Note_on_c, 0, 62, 0
1, 69557, Note_on_c, 0, 67, 81
1, 69566, Note_on_c, 0, 64, 0
1, 69570, Note_on_c, 0, 62, 0
1, 69629, Note_on_c, 0, 67, 0
1, 69680, Note_on_c, 0, 55, 54
1, 69783, Note_on_c, 0, 73, 77
1, 69783, Note_on_c, 0, 70, 83
1, 69785, Note_on_c, 0, 64, 78
1, 69785, Note_on_c, 0, 76, 73
1, 69786, Note_on_c, 0, 67, 65
1, 69806, Note_on_c, 0, 55, 0
1, 69828, Control_c, 0, 64, 0
1, 69860, Note_on_c, 0, 49, 71
1, 69919, Note_on_c, 0, 52, 71
1, 69930, Control_c, 0, 64, 127
1, 69967, Note_on_c, 0, 55, 61
1, 69988, Note_on_c, 0, 73, 0
1, 69991, Note_on_c, 0, 70, 0
1, 70000, Note_on_c, 0, 58, 81
1, 70015, Note_on_c, 0, 64, 0
1, 70032, Note_on_c, 0, 76, 0
1, 70036, Note_on_c, 0, 67, 0
1, 70036, Note_on_c, 0, 64, 69
1, 70074, Note_on_c, 0, 67, 44
1, 70076, Note_on_c, 0, 49, 0
1, 70097, Note_on_c, 0, 70, 71
1, 70099, Note_on_c, 0, 52, 0
1, 70117, Note_on_c, 0, 73, 74
1, 70121, Note_on_c, 0, 55, 0
1, 70125, Note_on_c, 0, 58, 0
1, 70144, Note_on_c, 0, 76, 76
1, 70176, Note_on_c, 0, 79, 68
1, 70184, Note_on_c, 0, 64, 0
1, 70199, Note_on_c, 0, 82, 53
1, 70208, Note_on_c, 0, 67, 0
1, 70216, Note_on_c, 0, 85, 72
1, 70222, Note_on_c, 0, 70, 0
1, 70225, Note_on_c, 0, 73, 0
1, 70249, Note_on_c, 0, 88, 67
1, 70286, Note_on_c, 0, 91, 88
1, 70287, Note_on_c, 0, 76, 0
1, 70312, Note_on_c, 0, 79, 0
1, 70325, Note_on_c, 0, 94, 68
1, 70341, Note_on_c, 0, 82, 0
1, 70374, Note_on_c, 0, 100, 69
1, 70427, Note_on_c, 0, 85, 0
1, 70436, Note_on_c, 0, 103, 50
1, 70458, Note_on_c, 0, 88, 0
1, 70506, Note_on_c, 0, 106, 68
1, 70514, Note_on_c, 0, 91, 0
1, 70668, Note_on_c, 0, 94, 0
1, 70670, Note_on_c, 0, 100, 0
1, 70671, Note_on_c, 0, 103, 0
1, 70671, Note_on_c, 0, 106, 0
1, 70863, Note_on_c, 0, 59, 90
1, 70909, Note_on_c, 0, 59, 0
1, 70921, Note_on_c, 0, 62, 92
1, 70972, Note_on_c, 0, 62, 0
1, 70980, Note_on_c, 0, 59, 83
1, 71014, Note_on_c, 0, 59, 0
1, 71037, Note_on_c, 0, 45, 57
1, 71044, Note_on_c, 0, 54, 59
1, 71051, Note_on_c, 0, 62, 80
1, 71052, Note_on_c, 0, 60, 74
1, 71057, Control_c, 0, 64, 0
1, 71091, Note_off_c, 0, 45, 0
1, 71108, Control_c, 0, 64, 127
1, 71126, Note_on_c, 0, 62, 73
1, 71166, Note_on_c, 0, 54, 0
1, 71192, Note_on_c, 0, 62, 72
1, 71207, Note_on_c, 0, 62, 0
1, 71267, Note_on_c, 0, 54, 57
1, 71290, Note_on_c, 0, 60, 0
1, 71297, Note_on_c, 0, 62, 0
1, 71350, Note_on_c, 0, 44, 70
1, 71354, Note_on_c, 0, 53, 65
1, 71372, Control_c, 0, 64, 0
1, 71430, Control_c, 0, 64, 127
1, 71430, Note_on_c, 0, 59, 69
1, 71433, Note_on_c, 0, 62, 0
1, 71442, Note_on_c, 0, 54, 0
1, 71515, Note_on_c, 0, 62, 75
1, 71517, Note_on_c, 0, 44, 0
1, 71594, Note_on_c, 0, 59, 67
1, 71597, Note_on_c, 0, 53, 0
1, 71600, Note_on_c, 0, 59, 0
1, 71609, Note_on_c, 0, 62, 0
1, 71628, Note_on_c, 0, 59, 0
1, 71643, Note_on_c, 0, 45, 63
1, 71668, Note_on_c, 0, 52, 65
1, 71688, Control_c, 0, 64, 0
1, 71689, Note_on_c, 0, 62, 69
1, 71691, Note_on_c, 0, 55, 54
1, 71693, Note_on_c, 0, 60, 66
1, 71744, Note_on_c, 0, 45, 0
1, 71746, Control_c, 0, 64, 127
1, 71780, Note_on_c, 0, 62, 69
1, 71812, Note_on_c, 0, 52, 0
1, 71853, Note_on_c, 0, 62, 0
1, 71882, Note_on_c, 0, 52, 59
1, 71891, Note_on_c, 0, 62, 69
1, 71937, Note_on_c, 0, 55, 0
1, 71945, Note_on_c, 0, 60, 0
1, 71960, Note_on_c, 0, 62, 0
1, 71992, Note_on_c, 0, 55, 63
1, 71993, Note_on_c, 0, 52, 0
1, 72016, Note_on_c, 0, 62, 0
1, 72114, Control_c, 0, 64, 0
1, 72115, Note_on_c, 0, 54, 56
1, 72118, Note_on_c, 0, 38, 57
1, 72150, Control_c, 0, 64, 127
1, 72169, Note_off_c, 0, 55, 0
1, 72188, Note_off_c, 0, 54, 0
1, 72268, Note_off_c, 0, 38, 0
1, 72273, Note_on_c, 0, 50, 53
1, 72288, Note_on_c, 0, 50, 0
1, 72744, Note_on_c, 0, 44, 60
1, 72763, Note_on_c, 0, 60, 64
1, 72764, Note_on_c, 0, 54, 62
1, 72776, Note_on_c, 0, 63, 60
1, 72780, Note_on_c, 0, 66, 58
1, 72787, Note_on_c, 0, 71, 64
1, 72799, Control_c, 0, 64, 0
1, 72871, Control_c, 0, 64, 127
1, 73048, Note_off_c, 0, 44, 0
1, 73068, Note_off_c, 0, 60, 0
1, 73098, Note_off_c, 0, 54, 0
1, 73120, Note_off_c, 0, 63, 0
1, 73121, Note_off_c, 0, 66, 0
1, 73129, Note_off_c, 0, 71, 0
1, 73199, Control_c, 0, 64, 0
1, 73241, Note_on_c, 0, 31, 87
1, 73242, Note_on_c, 0, 43, 88
1, 73243, Note_on_c, 0, 66, 86
1, 73245, Note_on_c, 0, 62, 86
1, 73245, Note_on_c, 0, 59, 92
1, 73247, Note_on_c, 0, 69, 87
1, 73289, Control_c, 0, 64, 127
1, 73306, Note_off_c, 0, 31, 0
1, 73323, Note_off_c, 0, 43, 0
1, 73361, Note_off_c, 0, 66, 0
1, 73370, Note_off_c, 0, 62, 0
1, 73381, Note_off_c, 0, 59, 0
1, 73388, Note_on_c, 0, 43, 71
1, 73400, Note_on_c, 0, 69, 0
1, 73440, Note_on_c, 0, 50, 70
1, 73486, Note_on_c, 0, 54, 80
1, 73534, Note_on_c, 0, 89, 48
1, 73553, Note_on_c, 0, 43, 0
1, 73575, Note_on_c, 0, 98, 85
1, 73609, Note_on_c, 0, 95, 69
1, 73610, Note_on_c, 0, 50, 0
1, 73633, Note_on_c, 0, 54, 0
1, 73642, Note_on_c, 0, 90, 79
1, 73655, Note_on_c, 0, 89, 0
1, 73680, Note_on_c, 0, 90, 53
1, 73689, Note_on_c, 0, 98, 0
1, 73723, Note_on_c, 0, 86, 42
1, 73742, Note_on_c, 0, 95, 0
1, 73752, Note_on_c, 0, 83, 63
1, 73761, Note_on_c, 0, 90, 0
1, 73787, Note_on_c, 0, 86, 57
1, 73811, Note_on_c, 0, 90, 0
1, 73861, Note_on_c, 0, 78, 49
1, 73869, Note_on_c, 0, 86, 0
1, 73891, Note_on_c, 0, 79, 69
1, 73921, Note_on_c, 0, 83, 0
1, 73926, Note_on_c, 0, 78, 61
1, 73942, Note_on_c, 0, 86, 0
1, 73947, Note_on_c, 0, 74, 64
1, 73964, Note_on_c, 0, 78, 0
1, 73971, Note_on_c, 0, 71, 49
1, 73984, Note_on_c, 0, 79, 0
1, 73985, Note_on_c, 0, 79, 52
1, 74006, Note_on_c, 0, 78, 0
1, 74006, Note_on_c, 0, 78, 70
1, 74036, Note_on_c, 0, 74, 57
1, 74040, Note_on_c, 0, 74, 0
1, 74045, Note_on_c, 0, 71, 0
1, 74051, Note_on_c, 0, 71, 55
1, 74060, Note_on_c, 0, 79, 0
1, 74077, Note_on_c, 0, 74, 64
1, 74101, Note_on_c, 0, 78, 0
1, 74104, Note_on_c, 0, 71, 57
1, 74126, Note_on_c, 0, 74, 0
1, 74135, Note_on_c, 0, 66, 65
1, 74143, Note_on_c, 0, 71, 0
1, 74166, Note_on_c, 0, 71, 67
1, 74199, Note_on_c, 0, 74, 0
1, 74202, Note_on_c, 0, 68, 34
1, 74217, Note_on_c, 0, 71, 0
1, 74222, Note_on_c, 0, 66, 20
1, 74233, Note_on_c, 0, 66, 0
1, 74241, Note_on_c, 0, 62, 68
1, 74249, Note_on_c, 0, 71, 0
1, 74276, Note_on_c, 0, 66, 65
1, 74313, Note_on_c, 0, 68, 0
1, 74315, Note_on_c, 0, 62, 54
1, 74334, Note_on_c, 0, 66, 0
1, 74352, Note_on_c, 0, 59, 60
1, 74360, Note_on_c, 0, 62, 0
1, 74392, Note_on_c, 0, 64, 67
1, 74412, Note_on_c, 0, 66, 0
1, 74420, Note_on_c, 0, 62, 0
1, 74445, Note_on_c, 0, 63, 66
1, 74454, Note_on_c, 0, 59, 0
1, 74495, Note_on_c, 0, 62, 60
1, 74516, Note_on_c, 0, 64, 0
1, 74533, Note_on_c, 0, 61, 70
1, 74550, Note_on_c, 0, 63, 0
1, 74574, Note_on_c, 0, 62, 0
1, 74578, Note_on_c, 0, 60, 55
1, 74595, Note_on_c, 0, 61, 0
1, 74611, Note_on_c, 0, 59, 24
1, 74618, Note_on_c, 0, 60, 0
1, 74629, Note_on_c, 0, 59, 0
1, 74647, Note_on_c, 0, 58, 69
1, 74657, Note_on_c, 0, 58, 0
1, 74688, Control_c, 0, 64, 0
1, 74692, Note_on_c, 0, 44, 56
1, 74697, Note_on_c, 0, 53, 56
1, 74700, Note_on_c, 0, 56, 76
1, 74738, Control_c, 0, 64, 127
1, 74748, Note_off_c, 0, 44, 0
1, 74753, Note_off_c, 0, 53, 0
1, 74755, Note_on_c, 0, 55, 75
1, 74767, Note_on_c, 0, 56, 0
1, 74795, Note_on_c, 0, 55, 0
1, 74816, Note_on_c, 0, 54, 69
1, 74881, Note_on_c, 0, 54, 0
1, 74910, Note_on_c, 0, 51, 88
1, 74950, Note_on_c, 0, 51, 0
1, 74980, Note_on_c, 0, 31, 87
1, 75043, Note_on_c, 0, 43, 42
1, 75054, Note_on_c, 0, 62, 66
1, 75055, Note_on_c, 0, 54, 66
1, 75058, Note_on_c, 0, 57, 74
1, 75058, Note_on_c, 0, 59, 62
1, 75063, Control_c, 0, 64, 0
1, 75187, Control_c, 0, 64, 127
1, 75563, Note_off_c, 0, 31, 0
1, 75589, Note_off_c, 0, 43, 0
1, 75605, Note_off_c, 0, 62, 0
1, 75696, Note_off_c, 0, 54, 0
1, 75701, Note_off_c, 0, 57, 0
1, 75704, Note_off_c, 0, 59, 0
1, 75704, End_track
0, 0, End_of_file
