0, 0, Header, 1, 2, 384
1, 0, Start_track
1, 0, Text_t, "{GNMIDI}Generated by  GNMIDI demo (http://www.gnmidi.com)\012"
1, 0, Tempo, 600000
1, 0, Time_signature, 4, 2, 24, 8
1, 117518, End_track
2, 0, Start_track
2, 0, Text_t, "{GNMIDI}Generated by  GNMIDI demo (http://www.gnmidi.com)\012"
2, 0, Title_t, "Acoustic Grand Piano"
2, 1152, Program_c, 0, 0
2, 1152, Control_c, 0, 7, 127
2, 1598, Control_c, 0, 64, 127
2, 1884, Control_c, 0, 64, 0
2, 2774, Note_on_c, 0, 76, 68
2, 2776, Note_on_c, 0, 66, 55
2, 2808, Note_on_c, 0, 76, 0
2, 2820, Note_on_c, 0, 77, 84
2, 2864, Note_on_c, 0, 76, 83
2, 2864, Note_on_c, 0, 67, 71
2, 2878, Note_on_c, 0, 66, 0
2, 2890, Note_on_c, 0, 77, 0
2, 3154, Note_on_c, 0, 76, 0
2, 3156, Note_on_c, 0, 74, 74
2, 3182, Note_on_c, 0, 74, 0
2, 3204, Note_on_c, 0, 76, 95
2, 3248, Note_on_c, 0, 68, 45
2, 3250, Note_on_c, 0, 74, 60
2, 3256, Note_on_c, 0, 76, 0
2, 3258, Note_on_c, 0, 67, 0
2, 3624, Note_on_c, 0, 74, 0
2, 3632, Note_on_c, 0, 68, 0
2, 3636, Note_on_c, 0, 72, 48
2, 3646, Note_on_c, 0, 69, 36
2, 3718, Control_c, 0, 64, 127
2, 3798, Note_off_c, 0, 69, 0
2, 3814, Note_off_c, 0, 72, 0
2, 4012, Note_on_c, 0, 69, 57
2, 4026, Control_c, 0, 64, 0
2, 4028, Note_on_c, 0, 66, 36
2, 4030, Note_on_c, 0, 62, 38
2, 4250, Note_on_c, 0, 72, 43
2, 4272, Control_c, 0, 64, 127
2, 4356, Note_off_c, 0, 72, 0
2, 4394, Note_on_c, 0, 76, 54
2, 4490, Note_on_c, 0, 69, 0
2, 4494, Note_on_c, 0, 62, 0
2, 4512, Note_on_c, 0, 66, 0
2, 4550, Note_on_c, 0, 76, 0
2, 4640, Note_on_c, 0, 74, 43
2, 4642, Note_on_c, 0, 67, 33
2, 4648, Note_on_c, 0, 72, 28
2, 4648, Note_on_c, 0, 65, 36
2, 4660, Note_on_c, 0, 69, 30
2, 4692, Control_c, 0, 64, 0
2, 4866, Control_c, 0, 64, 127
2, 4870, Note_off_c, 0, 65, 0
2, 4900, Note_off_c, 0, 67, 0
2, 5004, Note_off_c, 0, 74, 0
2, 5006, Note_off_c, 0, 69, 0
2, 5010, Note_off_c, 0, 72, 0
2, 5048, Note_on_c, 0, 65, 8
2, 5172, Note_on_c, 0, 55, 36
2, 5228, Note_on_c, 0, 55, 0
2, 5228, Note_on_c, 0, 65, 0
2, 5576, Note_on_c, 0, 67, 70
2, 5586, Note_on_c, 0, 62, 34
2, 5596, Note_on_c, 0, 52, 24
2, 5624, Control_c, 0, 64, 0
2, 5808, Note_on_c, 0, 71, 49
2, 5920, Note_on_c, 0, 62, 0
2, 5944, Note_on_c, 0, 74, 65
2, 5952, Note_on_c, 0, 52, 0
2, 5962, Control_c, 0, 64, 127
2, 5968, Note_off_c, 0, 71, 0
2, 5980, Note_off_c, 0, 74, 0
2, 6004, Note_off_c, 0, 67, 0
2, 6182, Note_on_c, 0, 70, 71
2, 6186, Note_on_c, 0, 67, 63
2, 6186, Note_on_c, 0, 62, 58
2, 6188, Note_on_c, 0, 46, 55
2, 6190, Note_on_c, 0, 56, 51
2, 6220, Control_c, 0, 64, 0
2, 6336, Note_off_c, 0, 67, 0
2, 6362, Note_off_c, 0, 62, 0
2, 6378, Note_off_c, 0, 70, 0
2, 6392, Control_c, 0, 64, 127
2, 6404, Note_off_c, 0, 56, 0
2, 6430, Note_off_c, 0, 46, 0
2, 6682, Note_on_c, 0, 55, 56
2, 6690, Note_on_c, 0, 61, 53
2, 6690, Note_on_c, 0, 72, 54
2, 6690, Note_on_c, 0, 65, 63
2, 6690, Control_c, 0, 64, 0
2, 6698, Note_on_c, 0, 45, 49
2, 6764, Note_on_c, 0, 72, 0
2, 6782, Control_c, 0, 64, 127
2, 6810, Note_off_c, 0, 45, 0
2, 6810, Note_off_c, 0, 65, 0
2, 6834, Note_off_c, 0, 55, 0
2, 6844, Note_off_c, 0, 61, 0
2, 6952, Note_on_c, 0, 64, 44
2, 6958, Note_on_c, 0, 69, 44
2, 6960, Note_on_c, 0, 60, 46
2, 6966, Note_on_c, 0, 50, 35
2, 6970, Note_on_c, 0, 66, 26
2, 6976, Control_c, 0, 64, 0
2, 7140, Control_c, 0, 64, 127
2, 7208, Note_off_c, 0, 69, 0
2, 7220, Note_off_c, 0, 50, 0
2, 7228, Note_off_c, 0, 60, 0
2, 7232, Note_off_c, 0, 66, 0
2, 7236, Note_off_c, 0, 64, 0
2, 7332, Note_on_c, 0, 51, 23
2, 7376, Note_on_c, 0, 51, 0
2, 7408, Control_c, 0, 64, 0
2, 7452, Note_on_c, 0, 70, 65
2, 7456, Note_on_c, 0, 60, 48
2, 7458, Note_on_c, 0, 65, 50
2, 7464, Note_on_c, 0, 54, 41
2, 7482, Note_on_c, 0, 44, 20
2, 7556, Note_on_c, 0, 44, 0
2, 7580, Note_on_c, 0, 60, 0
2, 7582, Control_c, 0, 64, 127
2, 7592, Note_off_c, 0, 54, 0
2, 7594, Note_off_c, 0, 65, 0
2, 7616, Note_off_c, 0, 70, 0
2, 7718, Note_on_c, 0, 67, 50
2, 7728, Note_on_c, 0, 59, 29
2, 7730, Note_on_c, 0, 64, 40
2, 7766, Control_c, 0, 64, 0
2, 7828, Note_on_c, 0, 53, 42
2, 7894, Note_on_c, 0, 59, 0
2, 7920, Control_c, 0, 64, 127
2, 7926, Note_off_c, 0, 67, 0
2, 7936, Note_off_c, 0, 64, 0
2, 8108, Note_on_c, 0, 79, 97
2, 8122, Note_on_c, 0, 76, 73
2, 8198, Note_on_c, 0, 53, 0
2, 8232, Note_on_c, 0, 43, 50
2, 8264, Note_on_c, 0, 43, 0
2, 8268, Note_on_c, 0, 76, 0
2, 8306, Note_on_c, 0, 79, 0
2, 8356, Note_on_c, 0, 75, 72
2, 8360, Note_on_c, 0, 78, 69
2, 8410, Note_on_c, 0, 75, 0
2, 8420, Note_on_c, 0, 36, 58
2, 8434, Note_on_c, 0, 78, 0
2, 8454, Note_on_c, 0, 77, 76
2, 8462, Note_on_c, 0, 74, 67
2, 8518, Note_on_c, 0, 74, 0
2, 8532, Control_c, 0, 64, 0
2, 8564, Note_off_c, 0, 77, 0
2, 8576, Note_on_c, 0, 43, 51
2, 8586, Note_on_c, 0, 76, 76
2, 8604, Note_on_c, 0, 52, 38
2, 8604, Note_on_c, 0, 72, 32
2, 8620, Note_on_c, 0, 36, 0
2, 8678, Note_on_c, 0, 43, 0
2, 8680, Control_c, 0, 64, 127
2, 8684, Note_off_c, 0, 76, 0
2, 8702, Note_off_c, 0, 72, 0
2, 8722, Note_off_c, 0, 52, 0
2, 8848, Note_on_c, 0, 83, 46
2, 8848, Note_on_c, 0, 75, 50
2, 8848, Note_on_c, 0, 79, 54
2, 8854, Note_on_c, 0, 71, 36
2, 8968, Note_on_c, 0, 65, 56
2, 8976, Note_on_c, 0, 63, 53
2, 8992, Note_on_c, 0, 59, 33
2, 8994, Note_on_c, 0, 57, 42
2, 8996, Control_c, 0, 64, 0
2, 8998, Note_off_c, 0, 65, 0
2, 9022, Note_off_c, 0, 63, 0
2, 9028, Note_off_c, 0, 57, 0
2, 9032, Note_off_c, 0, 59, 0
2, 9354, Note_on_c, 0, 31, 46
2, 9400, Note_on_c, 0, 31, 0
2, 9444, Control_c, 0, 64, 127
2, 9500, Note_off_c, 0, 83, 0
2, 9530, Note_off_c, 0, 75, 0
2, 9532, Note_off_c, 0, 79, 0
2, 9534, Note_off_c, 0, 71, 0
2, 9636, Note_on_c, 0, 77, 63
2, 9676, Note_on_c, 0, 77, 0
2, 9722, Control_c, 0, 64, 0
2, 9730, Note_on_c, 0, 65, 39
2, 9730, Note_on_c, 0, 81, 75
2, 9730, Note_on_c, 0, 75, 57
2, 9736, Note_on_c, 0, 57, 47
2, 9736, Note_on_c, 0, 63, 49
2, 9756, Note_on_c, 0, 69, 36
2, 9758, Note_on_c, 0, 59, 34
2, 9758, Note_on_c, 0, 71, 26
2, 9768, Note_on_c, 0, 77, 36
2, 9770, Note_on_c, 0, 65, 0
2, 9782, Note_on_c, 0, 63, 0
2, 9798, Note_on_c, 0, 59, 0
2, 9800, Note_on_c, 0, 57, 0
2, 9836, Control_c, 0, 64, 127
2, 9878, Note_off_c, 0, 81, 0
2, 9882, Note_off_c, 0, 77, 0
2, 9892, Note_off_c, 0, 71, 0
2, 9906, Note_off_c, 0, 69, 0
2, 9910, Note_off_c, 0, 75, 0
2, 10008, Note_on_c, 0, 72, 34
2, 10014, Note_on_c, 0, 79, 46
2, 10026, Note_on_c, 0, 76, 30
2, 10028, Note_on_c, 0, 74, 22
2, 10032, Note_on_c, 0, 67, 25
2, 10042, Note_on_c, 0, 69, 15
2, 10060, Control_c, 0, 64, 0
2, 10114, Note_on_c, 0, 40, 48
2, 10202, Control_c, 0, 64, 127
2, 10208, Note_off_c, 0, 40, 0
2, 10294, Note_off_c, 0, 69, 0
2, 10296, Note_off_c, 0, 67, 0
2, 10392, Note_on_c, 0, 67, 59
2, 10444, Note_on_c, 0, 79, 0
2, 10462, Note_on_c, 0, 76, 0
2, 10468, Note_on_c, 0, 74, 0
2, 10486, Note_on_c, 0, 64, 31
2, 10494, Note_on_c, 0, 55, 28
2, 10496, Note_on_c, 0, 60, 27
2, 10502, Note_on_c, 0, 72, 0
2, 10504, Note_on_c, 0, 67, 0
2, 10508, Note_on_c, 0, 57, 19
2, 10528, Note_on_c, 0, 64, 0
2, 10536, Note_on_c, 0, 55, 0
2, 10538, Note_on_c, 0, 60, 0
2, 10544, Note_on_c, 0, 57, 0
2, 10762, Note_on_c, 0, 78, 34
2, 10762, Note_on_c, 0, 66, 27
2, 10764, Note_on_c, 0, 72, 37
2, 10768, Note_on_c, 0, 75, 36
2, 10860, Control_c, 0, 64, 0
2, 10882, Note_on_c, 0, 54, 47
2, 10884, Note_on_c, 0, 39, 54
2, 10984, Note_on_c, 0, 39, 0
2, 11022, Control_c, 0, 64, 127
2, 11056, Note_off_c, 0, 54, 0
2, 11080, Note_off_c, 0, 66, 0
2, 11148, Note_on_c, 0, 66, 43
2, 11282, Note_on_c, 0, 63, 44
2, 11284, Note_on_c, 0, 54, 34
2, 11290, Note_on_c, 0, 60, 37
2, 11312, Note_on_c, 0, 66, 0
2, 11316, Note_on_c, 0, 63, 0
2, 11328, Note_on_c, 0, 54, 0
2, 11332, Note_on_c, 0, 60, 0
2, 11332, Note_on_c, 0, 72, 0
2, 11352, Note_on_c, 0, 75, 0
2, 11356, Note_on_c, 0, 78, 0
2, 11536, Note_on_c, 0, 65, 53
2, 11554, Note_on_c, 0, 57, 42
2, 11594, Note_on_c, 0, 57, 0
2, 11602, Note_on_c, 0, 65, 0
2, 11668, Control_c, 0, 64, 0
2, 11674, Note_on_c, 0, 77, 97
2, 11680, Note_on_c, 0, 60, 75
2, 11680, Note_on_c, 0, 65, 74
2, 11680, Note_on_c, 0, 72, 78
2, 11688, Note_on_c, 0, 74, 80
2, 11690, Note_on_c, 0, 50, 63
2, 11782, Note_on_c, 0, 50, 0
2, 11800, Note_on_c, 0, 60, 0
2, 11816, Note_on_c, 0, 65, 0
2, 11822, Note_on_c, 0, 77, 0
2, 11822, Control_c, 0, 64, 127
2, 11848, Note_off_c, 0, 74, 0
2, 11850, Note_off_c, 0, 72, 0
2, 11928, Note_on_c, 0, 76, 110
2, 11928, Note_on_c, 0, 58, 93
2, 11930, Note_on_c, 0, 67, 89
2, 11934, Note_on_c, 0, 70, 94
2, 11938, Note_on_c, 0, 49, 57
2, 11972, Note_on_c, 0, 49, 0
2, 11976, Note_on_c, 0, 58, 0
2, 11980, Note_on_c, 0, 67, 0
2, 12004, Note_on_c, 0, 70, 0
2, 12006, Note_on_c, 0, 76, 0
2, 12064, Note_on_c, 0, 77, 95
2, 12068, Control_c, 0, 64, 0
2, 12074, Note_on_c, 0, 72, 70
2, 12076, Note_on_c, 0, 60, 69
2, 12080, Note_on_c, 0, 69, 52
2, 12090, Note_on_c, 0, 50, 45
2, 12174, Note_on_c, 0, 50, 0
2, 12228, Note_on_c, 0, 60, 0
2, 12230, Note_on_c, 0, 69, 0
2, 12240, Note_on_c, 0, 72, 0
2, 12252, Control_c, 0, 64, 127
2, 12266, Note_off_c, 0, 77, 0
2, 12330, Note_on_c, 0, 76, 81
2, 12338, Note_on_c, 0, 67, 44
2, 12380, Note_on_c, 0, 67, 0
2, 12408, Note_on_c, 0, 76, 0
2, 12456, Control_c, 0, 64, 0
2, 12460, Note_on_c, 0, 77, 77
2, 12464, Note_on_c, 0, 72, 59
2, 12472, Note_on_c, 0, 69, 50
2, 12484, Note_on_c, 0, 62, 61
2, 12510, Note_on_c, 0, 55, 29
2, 12546, Note_on_c, 0, 62, 0
2, 12562, Note_on_c, 0, 55, 0
2, 12608, Note_on_c, 0, 77, 0
2, 12610, Note_on_c, 0, 69, 0
2, 12610, Control_c, 0, 64, 127
2, 12620, Note_off_c, 0, 72, 0
2, 12728, Note_on_c, 0, 74, 66
2, 12734, Note_on_c, 0, 69, 58
2, 12734, Control_c, 0, 64, 0
2, 12738, Note_on_c, 0, 65, 48
2, 12748, Note_on_c, 0, 71, 25
2, 12752, Note_on_c, 0, 53, 57
2, 12766, Note_on_c, 0, 69, 0
2, 12768, Note_on_c, 0, 74, 0
2, 12768, Note_on_c, 0, 43, 15
2, 12778, Note_on_c, 0, 65, 0
2, 12786, Note_on_c, 0, 71, 0
2, 12798, Note_on_c, 0, 53, 0
2, 12810, Note_on_c, 0, 43, 0
2, 13268, Note_on_c, 0, 60, 83
2, 13270, Note_on_c, 0, 65, 85
2, 13274, Note_on_c, 0, 57, 59
2, 13290, Note_on_c, 0, 50, 39
2, 13386, Note_on_c, 0, 50, 0
2, 13434, Note_on_c, 0, 65, 0
2, 13440, Note_on_c, 0, 60, 0
2, 13472, Note_on_c, 0, 57, 0
2, 13514, Note_on_c, 0, 58, 83
2, 13514, Note_on_c, 0, 64, 70
2, 13518, Note_on_c, 0, 49, 40
2, 13526, Note_on_c, 0, 55, 51
2, 13558, Note_on_c, 0, 49, 0
2, 13608, Note_on_c, 0, 55, 0
2, 13610, Note_on_c, 0, 58, 0
2, 13616, Note_on_c, 0, 64, 0
2, 13652, Note_on_c, 0, 60, 63
2, 13656, Note_on_c, 0, 65, 52
2, 13658, Note_on_c, 0, 50, 46
2, 13658, Note_on_c, 0, 57, 55
2, 13734, Note_on_c, 0, 50, 0
2, 13820, Note_on_c, 0, 60, 0
2, 13844, Note_on_c, 0, 65, 0
2, 13876, Note_on_c, 0, 57, 0
2, 13890, Note_on_c, 0, 58, 56
2, 13892, Note_on_c, 0, 49, 39
2, 13892, Note_on_c, 0, 64, 47
2, 13916, Note_on_c, 0, 55, 29
2, 13932, Note_on_c, 0, 49, 0
2, 13960, Note_on_c, 0, 58, 0
2, 13962, Note_on_c, 0, 64, 0
2, 13968, Note_on_c, 0, 55, 0
2, 14030, Note_on_c, 0, 65, 54
2, 14032, Note_on_c, 0, 60, 56
2, 14036, Note_on_c, 0, 57, 60
2, 14036, Note_on_c, 0, 50, 50
2, 14074, Note_on_c, 0, 57, 0
2, 14092, Note_on_c, 0, 50, 0
2, 14094, Note_on_c, 0, 60, 0
2, 14146, Control_c, 0, 64, 127
2, 14156, Note_off_c, 0, 65, 0
2, 14292, Control_c, 0, 64, 0
2, 14300, Note_on_c, 0, 53, 55
2, 14302, Note_on_c, 0, 59, 37
2, 14302, Note_on_c, 0, 62, 54
2, 14306, Note_on_c, 0, 57, 31
2, 14318, Note_on_c, 0, 43, 29
2, 14444, Note_on_c, 0, 53, 0
2, 14450, Note_on_c, 0, 62, 0
2, 14470, Note_on_c, 0, 57, 0
2, 14470, Note_on_c, 0, 59, 0
2, 14476, Note_on_c, 0, 43, 0
2, 14496, Control_c, 0, 64, 127
2, 14730, Note_on_c, 0, 45, 55
2, 14762, Control_c, 0, 64, 0
2, 14774, Note_off_c, 0, 45, 0
2, 14860, Note_on_c, 0, 38, 64
2, 14904, Note_on_c, 0, 38, 0
2, 14956, Control_c, 0, 64, 127
2, 15104, Note_on_c, 0, 85, 84
2, 15104, Note_on_c, 0, 78, 73
2, 15112, Note_on_c, 0, 80, 65
2, 15148, Note_on_c, 0, 80, 0
2, 15172, Note_on_c, 0, 78, 0
2, 15188, Note_on_c, 0, 85, 0
2, 15228, Note_on_c, 0, 65, 73
2, 15234, Note_on_c, 0, 86, 76
2, 15236, Note_on_c, 0, 81, 70
2, 15242, Control_c, 0, 64, 0
2, 15248, Note_on_c, 0, 77, 64
2, 15250, Note_on_c, 0, 62, 57
2, 15252, Note_on_c, 0, 57, 42
2, 15256, Note_on_c, 0, 65, 0
2, 15256, Note_on_c, 0, 60, 48
2, 15278, Note_on_c, 0, 62, 0
2, 15286, Note_on_c, 0, 57, 0
2, 15288, Note_on_c, 0, 60, 0
2, 15322, Note_on_c, 0, 77, 0
2, 15340, Note_on_c, 0, 86, 0
2, 15360, Note_on_c, 0, 81, 0
2, 15620, Note_on_c, 0, 31, 49
2, 15634, Note_on_c, 0, 86, 95
2, 15638, Note_on_c, 0, 83, 64
2, 15638, Note_on_c, 0, 81, 72
2, 15642, Note_on_c, 0, 77, 74
2, 15672, Note_on_c, 0, 31, 0
2, 15704, Control_c, 0, 64, 127
2, 15730, Note_off_c, 0, 86, 0
2, 15754, Note_off_c, 0, 81, 0
2, 15754, Note_off_c, 0, 83, 0
2, 15766, Note_off_c, 0, 77, 0
2, 15884, Note_on_c, 0, 83, 84
2, 15886, Note_on_c, 0, 79, 89
2, 15886, Note_on_c, 0, 77, 92
2, 15896, Note_on_c, 0, 74, 60
2, 15950, Control_c, 0, 64, 0
2, 15988, Note_on_c, 0, 69, 53
2, 16004, Note_on_c, 0, 62, 44
2, 16014, Note_on_c, 0, 65, 42
2, 16014, Note_on_c, 0, 59, 15
2, 16072, Control_c, 0, 64, 127
2, 16082, Note_off_c, 0, 69, 0
2, 16098, Note_off_c, 0, 59, 0
2, 16128, Note_off_c, 0, 62, 0
2, 16136, Note_off_c, 0, 79, 0
2, 16160, Note_off_c, 0, 77, 0
2, 16164, Note_off_c, 0, 65, 0
2, 16188, Note_off_c, 0, 74, 0
2, 16200, Note_off_c, 0, 83, 0
2, 16272, Note_on_c, 0, 81, 52
2, 16304, Note_on_c, 0, 81, 0
2, 16304, Note_on_c, 0, 83, 67
2, 16350, Control_c, 0, 64, 0
2, 16370, Note_on_c, 0, 81, 57
2, 16376, Note_on_c, 0, 69, 54
2, 16384, Note_on_c, 0, 83, 0
2, 16384, Note_on_c, 0, 77, 80
2, 16384, Note_on_c, 0, 60, 55
2, 16388, Note_on_c, 0, 62, 46
2, 16392, Note_on_c, 0, 65, 52
2, 16394, Note_on_c, 0, 72, 51
2, 16452, Note_on_c, 0, 69, 0
2, 16462, Note_on_c, 0, 65, 0
2, 16480, Note_on_c, 0, 62, 0
2, 16492, Note_on_c, 0, 60, 0
2, 16492, Control_c, 0, 64, 127
2, 16566, Note_off_c, 0, 72, 0
2, 16568, Note_off_c, 0, 77, 0
2, 16576, Note_off_c, 0, 81, 0
2, 16614, Note_on_c, 0, 60, 44
2, 16684, Note_on_c, 0, 60, 0
2, 16772, Note_on_c, 0, 50, 49
2, 16802, Note_on_c, 0, 50, 0
2, 17020, Note_on_c, 0, 75, 34
2, 17024, Note_on_c, 0, 71, 17
2, 17024, Note_on_c, 0, 83, 34
2, 17032, Note_on_c, 0, 69, 26
2, 17036, Note_on_c, 0, 79, 54
2, 17120, Control_c, 0, 64, 0
2, 17376, Note_on_c, 0, 53, 75
2, 17444, Note_on_c, 0, 53, 0
2, 17510, Note_on_c, 0, 43, 50
2, 17548, Note_on_c, 0, 43, 0
2, 17732, Note_on_c, 0, 83, 0
2, 17758, Note_on_c, 0, 43, 53
2, 17762, Control_c, 0, 64, 127
2, 17768, Note_off_c, 0, 79, 0
2, 17768, Note_off_c, 0, 71, 0
2, 17784, Note_off_c, 0, 69, 0
2, 17784, Note_off_c, 0, 75, 0
2, 17808, Note_off_c, 0, 43, 0
2, 17866, Control_c, 0, 64, 0
2, 17886, Note_on_c, 0, 36, 73
2, 17912, Note_on_c, 0, 36, 0
2, 17970, Control_c, 0, 64, 127
2, 18138, Note_on_c, 0, 60, 75
2, 18138, Note_on_c, 0, 69, 111
2, 18140, Note_on_c, 0, 64, 104
2, 18200, Note_on_c, 0, 64, 0
2, 18200, Note_on_c, 0, 60, 0
2, 18224, Control_c, 0, 64, 0
2, 18246, Note_on_c, 0, 68, 84
2, 18250, Note_on_c, 0, 59, 57
2, 18256, Note_on_c, 0, 69, 0
2, 18256, Note_on_c, 0, 63, 75
2, 18290, Note_on_c, 0, 63, 0
2, 18296, Note_on_c, 0, 59, 0
2, 18324, Note_on_c, 0, 68, 0
2, 18354, Note_on_c, 0, 69, 70
2, 18360, Note_on_c, 0, 64, 60
2, 18362, Note_on_c, 0, 60, 57
2, 18402, Note_on_c, 0, 60, 0
2, 18402, Note_on_c, 0, 64, 0
2, 18406, Note_on_c, 0, 69, 0
2, 18460, Note_on_c, 0, 68, 65
2, 18466, Note_on_c, 0, 63, 57
2, 18480, Note_on_c, 0, 59, 40
2, 18512, Note_on_c, 0, 63, 0
2, 18534, Note_on_c, 0, 59, 0
2, 18536, Note_on_c, 0, 68, 0
2, 18600, Note_on_c, 0, 69, 67
2, 18606, Note_on_c, 0, 60, 61
2, 18612, Note_on_c, 0, 64, 62
2, 18732, Note_on_c, 0, 69, 0
2, 18736, Control_c, 0, 64, 127
2, 18748, Note_off_c, 0, 64, 0
2, 18750, Note_off_c, 0, 60, 0
2, 18832, Note_on_c, 0, 67, 90
2, 18836, Note_on_c, 0, 55, 63
2, 18840, Note_on_c, 0, 62, 88
2, 18880, Note_on_c, 0, 62, 0
2, 18892, Note_on_c, 0, 55, 0
2, 18918, Note_on_c, 0, 67, 0
2, 18952, Control_c, 0, 64, 0
2, 18972, Note_on_c, 0, 52, 57
2, 18996, Note_on_c, 0, 64, 37
2, 19042, Note_on_c, 0, 64, 0
2, 19074, Note_on_c, 0, 52, 0
2, 19116, Control_c, 0, 64, 127
2, 19212, Note_on_c, 0, 48, 11
2, 19242, Note_on_c, 0, 48, 0
2, 19340, Control_c, 0, 64, 0
2, 19348, Note_on_c, 0, 81, 103
2, 19352, Note_on_c, 0, 76, 103
2, 19374, Note_on_c, 0, 72, 60
2, 19374, Note_on_c, 0, 74, 75
2, 19402, Note_on_c, 0, 74, 0
2, 19486, Note_on_c, 0, 76, 0
2, 19522, Note_on_c, 0, 81, 0
2, 19564, Note_on_c, 0, 80, 87
2, 19564, Note_on_c, 0, 75, 86
2, 19586, Note_on_c, 0, 71, 50
2, 19598, Note_on_c, 0, 72, 0
2, 19652, Note_on_c, 0, 71, 0
2, 19664, Note_on_c, 0, 75, 0
2, 19680, Note_on_c, 0, 80, 0
2, 19716, Note_on_c, 0, 81, 50
2, 19724, Note_on_c, 0, 76, 61
2, 19724, Note_on_c, 0, 72, 56
2, 19836, Note_on_c, 0, 76, 0
2, 19908, Note_on_c, 0, 72, 0
2, 19908, Note_on_c, 0, 81, 0
2, 19942, Note_on_c, 0, 80, 66
2, 19946, Note_on_c, 0, 75, 68
2, 19956, Note_on_c, 0, 71, 35
2, 20032, Note_on_c, 0, 71, 0
2, 20034, Note_on_c, 0, 75, 0
2, 20040, Note_on_c, 0, 80, 0
2, 20078, Note_on_c, 0, 81, 75
2, 20090, Note_on_c, 0, 72, 68
2, 20104, Note_on_c, 0, 76, 62
2, 20168, Note_on_c, 0, 72, 0
2, 20182, Control_c, 0, 64, 127
2, 20212, Note_off_c, 0, 76, 0
2, 20254, Note_off_c, 0, 81, 0
2, 20296, Note_on_c, 0, 79, 71
2, 20334, Note_on_c, 0, 79, 0
2, 20338, Note_on_c, 0, 81, 64
2, 20414, Note_on_c, 0, 79, 40
2, 20426, Note_on_c, 0, 81, 0
2, 20436, Control_c, 0, 64, 0
2, 20452, Note_on_c, 0, 43, 47
2, 20454, Note_on_c, 0, 52, 54
2, 20456, Note_on_c, 0, 76, 79
2, 20516, Note_on_c, 0, 43, 0
2, 20544, Note_on_c, 0, 79, 0
2, 20552, Note_on_c, 0, 76, 0
2, 20582, Note_on_c, 0, 72, 83
2, 20584, Note_on_c, 0, 52, 0
2, 20664, Control_c, 0, 64, 127
2, 20668, Note_off_c, 0, 72, 0
2, 20672, Note_on_c, 0, 50, 78
2, 20756, Control_c, 0, 64, 0
2, 20762, Note_off_c, 0, 50, 0
2, 20812, Note_on_c, 0, 45, 72
2, 20814, Note_on_c, 0, 55, 75
2, 20902, Note_on_c, 0, 45, 0
2, 20960, Control_c, 0, 64, 127
2, 20964, Note_off_c, 0, 55, 0
2, 21048, Note_on_c, 0, 73, 60
2, 21048, Note_on_c, 0, 78, 78
2, 21050, Note_on_c, 0, 81, 72
2, 21052, Note_on_c, 0, 69, 42
2, 21056, Note_on_c, 0, 67, 55
2, 21176, Note_on_c, 0, 64, 46
2, 21176, Note_on_c, 0, 61, 55
2, 21194, Control_c, 0, 64, 0
2, 21206, Note_on_c, 0, 55, 31
2, 21210, Note_on_c, 0, 64, 0
2, 21226, Note_on_c, 0, 61, 0
2, 21248, Note_on_c, 0, 55, 0
2, 21380, Control_c, 0, 64, 127
2, 21400, Note_off_c, 0, 81, 0
2, 21412, Note_off_c, 0, 67, 0
2, 21412, Note_off_c, 0, 69, 0
2, 21478, Note_off_c, 0, 73, 0
2, 21502, Note_off_c, 0, 78, 0
2, 21582, Note_on_c, 0, 68, 50
2, 21584, Note_on_c, 0, 80, 55
2, 21588, Note_on_c, 0, 40, 47
2, 21594, Control_c, 0, 64, 0
2, 21594, Note_on_c, 0, 77, 49
2, 21596, Note_on_c, 0, 74, 47
2, 21650, Note_on_c, 0, 40, 0
2, 21656, Note_on_c, 0, 77, 0
2, 21704, Note_on_c, 0, 74, 0
2, 21704, Note_on_c, 0, 68, 0
2, 21728, Control_c, 0, 64, 127
2, 21760, Note_off_c, 0, 80, 0
2, 21850, Note_on_c, 0, 81, 60
2, 21850, Note_on_c, 0, 73, 39
2, 21860, Note_on_c, 0, 69, 25
2, 21862, Note_on_c, 0, 76, 51
2, 21864, Note_on_c, 0, 67, 39
2, 21922, Control_c, 0, 64, 0
2, 21948, Note_on_c, 0, 64, 53
2, 21952, Note_on_c, 0, 61, 59
2, 21966, Note_on_c, 0, 55, 34
2, 21980, Note_on_c, 0, 64, 0
2, 21988, Note_on_c, 0, 57, 25
2, 22016, Note_on_c, 0, 55, 0
2, 22030, Note_on_c, 0, 57, 0
2, 22030, Note_on_c, 0, 61, 0
2, 22048, Note_on_c, 0, 76, 0
2, 22068, Note_on_c, 0, 81, 0
2, 22106, Control_c, 0, 64, 127
2, 22118, Note_off_c, 0, 67, 0
2, 22122, Note_off_c, 0, 69, 0
2, 22170, Note_off_c, 0, 73, 0
2, 22342, Control_c, 0, 64, 0
2, 22348, Note_on_c, 0, 82, 98
2, 22350, Note_on_c, 0, 70, 85
2, 22352, Note_on_c, 0, 79, 73
2, 22354, Note_on_c, 0, 74, 73
2, 22360, Note_on_c, 0, 33, 55
2, 22362, Note_on_c, 0, 77, 87
2, 22410, Note_on_c, 0, 33, 0
2, 22496, Control_c, 0, 64, 127
2, 22504, Note_off_c, 0, 74, 0
2, 22518, Note_off_c, 0, 77, 0
2, 22528, Note_off_c, 0, 70, 0
2, 22530, Note_off_c, 0, 79, 0
2, 22570, Note_off_c, 0, 82, 0
2, 22628, Note_on_c, 0, 73, 45
2, 22628, Note_on_c, 0, 81, 62
2, 22638, Note_on_c, 0, 77, 70
2, 22642, Note_on_c, 0, 69, 42
2, 22680, Control_c, 0, 64, 0
2, 22718, Note_on_c, 0, 65, 36
2, 22730, Note_on_c, 0, 55, 30
2, 22736, Note_on_c, 0, 61, 44
2, 22756, Note_on_c, 0, 57, 20
2, 22776, Note_on_c, 0, 65, 0
2, 22816, Note_on_c, 0, 57, 0
2, 22832, Note_on_c, 0, 61, 0
2, 22834, Note_on_c, 0, 77, 0
2, 22834, Control_c, 0, 64, 127
2, 22836, Note_off_c, 0, 55, 0
2, 22848, Note_off_c, 0, 81, 0
2, 22906, Note_off_c, 0, 73, 0
2, 22924, Note_off_c, 0, 69, 0
2, 23048, Note_on_c, 0, 52, 13
2, 23102, Control_c, 0, 64, 0
2, 23108, Note_off_c, 0, 52, 0
2, 23116, Note_on_c, 0, 45, 42
2, 23120, Note_on_c, 0, 79, 62
2, 23120, Note_on_c, 0, 55, 46
2, 23120, Note_on_c, 0, 76, 60
2, 23120, Note_on_c, 0, 73, 50
2, 23134, Note_on_c, 0, 67, 19
2, 23168, Note_on_c, 0, 79, 0
2, 23174, Note_on_c, 0, 45, 0
2, 23192, Note_on_c, 0, 55, 0
2, 23200, Note_on_c, 0, 76, 0
2, 23214, Control_c, 0, 64, 127
2, 23224, Note_off_c, 0, 73, 0
2, 23228, Note_off_c, 0, 67, 0
2, 23380, Note_on_c, 0, 64, 49
2, 23384, Note_on_c, 0, 73, 41
2, 23394, Note_on_c, 0, 67, 25
2, 23448, Control_c, 0, 64, 0
2, 23486, Note_on_c, 0, 61, 43
2, 23504, Note_on_c, 0, 58, 51
2, 23514, Note_on_c, 0, 55, 23
2, 23550, Note_on_c, 0, 61, 0
2, 23570, Note_on_c, 0, 55, 0
2, 23574, Note_on_c, 0, 58, 0
2, 23584, Control_c, 0, 64, 127
2, 23634, Note_off_c, 0, 73, 0
2, 23664, Note_off_c, 0, 67, 0
2, 23684, Note_off_c, 0, 64, 0
2, 23768, Note_on_c, 0, 38, 73
2, 23810, Note_on_c, 0, 38, 0
2, 23824, Note_on_c, 0, 45, 70
2, 23872, Note_on_c, 0, 60, 89
2, 23888, Note_on_c, 0, 62, 102
2, 23902, Note_on_c, 0, 54, 87
2, 23910, Note_on_c, 0, 63, 97
2, 23922, Note_on_c, 0, 60, 0
2, 23922, Control_c, 0, 64, 0
2, 23940, Note_on_c, 0, 64, 113
2, 23946, Note_on_c, 0, 62, 0
2, 23948, Note_on_c, 0, 63, 0
2, 24146, Note_on_c, 0, 69, 105
2, 24164, Note_on_c, 0, 64, 0
2, 24268, Note_on_c, 0, 69, 0
2, 24282, Note_on_c, 0, 45, 0
2, 24284, Note_on_c, 0, 63, 52
2, 24302, Note_on_c, 0, 64, 87
2, 24320, Note_on_c, 0, 63, 0
2, 24532, Note_on_c, 0, 64, 0
2, 24538, Note_on_c, 0, 69, 72
2, 24550, Note_on_c, 0, 54, 0
2, 24564, Control_c, 0, 64, 127
2, 24576, Note_off_c, 0, 69, 0
2, 24602, Note_on_c, 0, 64, 61
2, 24632, Note_on_c, 0, 64, 0
2, 24652, Note_on_c, 0, 69, 32
2, 24658, Control_c, 0, 64, 0
2, 24686, Note_on_c, 0, 64, 68
2, 24694, Note_on_c, 0, 55, 45
2, 24708, Note_on_c, 0, 45, 48
2, 24708, Note_on_c, 0, 60, 37
2, 24748, Note_on_c, 0, 69, 0
2, 24862, Control_c, 0, 64, 127
2, 24890, Note_off_c, 0, 45, 0
2, 24926, Note_off_c, 0, 64, 0
2, 24962, Note_off_c, 0, 55, 0
2, 25080, Note_off_c, 0, 60, 0
2, 25080, Note_on_c, 0, 55, 58
2, 25080, Note_on_c, 0, 61, 50
2, 25088, Note_on_c, 0, 63, 43
2, 25088, Control_c, 0, 64, 0
2, 25088, Note_on_c, 0, 46, 58
2, 25262, Control_c, 0, 64, 127
2, 25284, Note_off_c, 0, 55, 0
2, 25288, Note_off_c, 0, 46, 0
2, 25306, Note_off_c, 0, 61, 0
2, 25338, Note_off_c, 0, 63, 0
2, 25358, Note_on_c, 0, 62, 48
2, 25372, Note_on_c, 0, 60, 32
2, 25416, Control_c, 0, 64, 0
2, 25472, Note_on_c, 0, 54, 42
2, 25488, Note_on_c, 0, 45, 43
2, 25588, Control_c, 0, 64, 127
2, 25600, Note_off_c, 0, 45, 0
2, 25620, Note_off_c, 0, 62, 0
2, 25626, Note_off_c, 0, 60, 0
2, 25664, Note_off_c, 0, 54, 0
2, 25876, Note_on_c, 0, 66, 51
2, 25880, Note_on_c, 0, 74, 65
2, 25884, Note_on_c, 0, 64, 42
2, 25886, Note_on_c, 0, 71, 50
2, 25892, Note_on_c, 0, 60, 57
2, 25900, Note_on_c, 0, 54, 38
2, 25908, Control_c, 0, 64, 0
2, 25924, Note_off_c, 0, 60, 0
2, 25940, Note_off_c, 0, 54, 0
2, 26154, Control_c, 0, 64, 127
2, 26158, Note_off_c, 0, 64, 0
2, 26168, Note_on_c, 0, 57, 48
2, 26208, Note_on_c, 0, 57, 0
2, 26212, Note_on_c, 0, 66, 0
2, 26272, Note_on_c, 0, 60, 60
2, 26284, Note_on_c, 0, 67, 67
2, 26288, Note_on_c, 0, 52, 43
2, 26290, Note_on_c, 0, 64, 52
2, 26296, Control_c, 0, 64, 0
2, 26310, Note_off_c, 0, 71, 0
2, 26460, Control_c, 0, 64, 127
2, 26470, Note_off_c, 0, 52, 0
2, 26476, Note_off_c, 0, 64, 0
2, 26490, Note_off_c, 0, 67, 0
2, 26492, Note_off_c, 0, 60, 0
2, 26610, Note_off_c, 0, 74, 0
2, 26660, Note_on_c, 0, 68, 60
2, 26666, Note_on_c, 0, 63, 51
2, 26668, Note_on_c, 0, 53, 47
2, 26670, Note_on_c, 0, 59, 46
2, 26676, Control_c, 0, 64, 0
2, 26830, Control_c, 0, 64, 127
2, 26836, Note_off_c, 0, 53, 0
2, 26870, Note_off_c, 0, 59, 0
2, 26876, Note_off_c, 0, 63, 0
2, 26892, Note_on_c, 0, 74, 2
2, 26902, Note_on_c, 0, 68, 0
2, 27034, Control_c, 0, 64, 0
2, 27052, Note_on_c, 0, 64, 46
2, 27052, Note_on_c, 0, 60, 51
2, 27054, Note_on_c, 0, 69, 28
2, 27060, Note_on_c, 0, 54, 41
2, 27168, Note_on_c, 0, 54, 0
2, 27178, Note_on_c, 0, 74, 0
2, 27178, Control_c, 0, 64, 127
2, 27186, Note_off_c, 0, 64, 0
2, 27200, Note_off_c, 0, 60, 0
2, 27206, Note_off_c, 0, 69, 0
2, 27290, Note_on_c, 0, 64, 72
2, 27348, Note_on_c, 0, 64, 0
2, 27420, Note_on_c, 0, 66, 91
2, 27422, Note_on_c, 0, 74, 100
2, 27422, Note_on_c, 0, 64, 90
2, 27424, Note_on_c, 0, 69, 94
2, 27430, Note_on_c, 0, 62, 85
2, 27434, Control_c, 0, 64, 0
2, 27436, Note_on_c, 0, 60, 74
2, 27444, Note_on_c, 0, 57, 67
2, 27472, Note_on_c, 0, 60, 0
2, 27474, Note_on_c, 0, 62, 0
2, 27498, Note_on_c, 0, 57, 0
2, 27522, Note_on_c, 0, 64, 0
2, 27558, Note_on_c, 0, 74, 0
2, 27564, Note_on_c, 0, 69, 0
2, 27564, Note_on_c, 0, 66, 0
2, 27578, Control_c, 0, 64, 127
2, 27664, Note_on_c, 0, 66, 69
2, 27702, Note_on_c, 0, 66, 0
2, 27792, Control_c, 0, 64, 0
2, 27806, Note_on_c, 0, 66, 77
2, 27806, Note_on_c, 0, 78, 78
2, 27820, Note_on_c, 0, 72, 68
2, 27820, Note_on_c, 0, 54, 53
2, 27824, Note_on_c, 0, 74, 74
2, 27828, Note_on_c, 0, 45, 56
2, 27854, Note_on_c, 0, 72, 0
2, 27858, Note_on_c, 0, 74, 0
2, 27870, Note_on_c, 0, 45, 0
2, 27890, Note_on_c, 0, 66, 0
2, 27904, Note_on_c, 0, 54, 0
2, 27916, Control_c, 0, 64, 127
2, 27922, Note_off_c, 0, 78, 0
2, 28068, Note_on_c, 0, 72, 68
2, 28072, Note_on_c, 0, 81, 85
2, 28078, Note_on_c, 0, 69, 42
2, 28084, Note_on_c, 0, 76, 74
2, 28088, Note_on_c, 0, 67, 67
2, 28140, Control_c, 0, 64, 0
2, 28190, Note_on_c, 0, 64, 67
2, 28204, Note_on_c, 0, 60, 61
2, 28208, Note_on_c, 0, 55, 38
2, 28220, Note_on_c, 0, 67, 0
2, 28224, Note_on_c, 0, 57, 32
2, 28228, Note_on_c, 0, 64, 0
2, 28236, Note_on_c, 0, 69, 0
2, 28238, Note_on_c, 0, 60, 0
2, 28238, Note_on_c, 0, 76, 0
2, 28244, Note_on_c, 0, 72, 0
2, 28262, Note_on_c, 0, 57, 0
2, 28268, Note_on_c, 0, 55, 0
2, 28270, Note_on_c, 0, 81, 0
2, 28284, Control_c, 0, 64, 127
2, 28458, Note_on_c, 0, 38, 77
2, 28488, Note_on_c, 0, 38, 0
2, 28570, Control_c, 0, 64, 0
2, 28582, Note_on_c, 0, 86, 105
2, 28582, Note_on_c, 0, 45, 42
2, 28584, Note_on_c, 0, 78, 79
2, 28586, Note_on_c, 0, 83, 77
2, 28588, Note_on_c, 0, 72, 85
2, 28588, Note_on_c, 0, 74, 88
2, 28590, Note_on_c, 0, 54, 100
2, 28592, Note_on_c, 0, 81, 93
2, 28728, Note_on_c, 0, 54, 0
2, 28746, Control_c, 0, 64, 127
2, 28756, Note_off_c, 0, 45, 0
2, 28808, Note_on_c, 0, 40, 78
2, 28834, Note_on_c, 0, 40, 0
2, 28852, Note_on_c, 0, 86, 0
2, 28868, Note_on_c, 0, 74, 0
2, 28874, Note_on_c, 0, 72, 0
2, 28904, Note_on_c, 0, 83, 0
2, 28932, Note_on_c, 0, 81, 0
2, 28950, Note_on_c, 0, 78, 0
2, 28972, Note_on_c, 0, 55, 105
2, 29064, Note_on_c, 0, 55, 0
2, 29100, Note_on_c, 0, 73, 93
2, 29100, Note_on_c, 0, 85, 95
2, 29126, Note_on_c, 0, 85, 0
2, 29128, Note_on_c, 0, 73, 0
2, 29172, Note_on_c, 0, 41, 85
2, 29204, Note_on_c, 0, 86, 101
2, 29204, Note_on_c, 0, 80, 86
2, 29208, Note_on_c, 0, 74, 83
2, 29224, Note_on_c, 0, 86, 0
2, 29236, Note_on_c, 0, 74, 0
2, 29240, Note_on_c, 0, 80, 0
2, 29242, Note_on_c, 0, 41, 0
2, 29332, Note_on_c, 0, 56, 115
2, 29336, Note_on_c, 0, 50, 75
2, 29360, Note_on_c, 0, 48, 54
2, 29390, Control_c, 0, 64, 0
2, 29572, Note_on_c, 0, 83, 92
2, 29574, Note_on_c, 0, 78, 90
2, 29576, Note_on_c, 0, 71, 79
2, 29584, Note_on_c, 0, 56, 0
2, 29596, Control_c, 0, 64, 127
2, 29648, Note_off_c, 0, 48, 0
2, 29652, Note_on_c, 0, 42, 78
2, 29658, Note_on_c, 0, 50, 0
2, 29712, Note_on_c, 0, 42, 0
2, 29728, Control_c, 0, 64, 0
2, 29736, Note_on_c, 0, 50, 33
2, 29742, Note_on_c, 0, 57, 106
2, 29818, Note_on_c, 0, 71, 0
2, 29872, Control_c, 0, 64, 127
2, 29902, Note_off_c, 0, 57, 0
2, 29908, Note_off_c, 0, 83, 0
2, 29920, Note_off_c, 0, 50, 0
2, 29970, Note_on_c, 0, 74, 81
2, 29974, Note_on_c, 0, 71, 63
2, 29978, Note_on_c, 0, 43, 88
2, 29998, Note_on_c, 0, 74, 0
2, 30012, Note_on_c, 0, 71, 0
2, 30020, Note_on_c, 0, 78, 0
2, 30092, Note_on_c, 0, 43, 0
2, 30108, Note_on_c, 0, 57, 106
2, 30108, Note_on_c, 0, 72, 97
2, 30108, Note_on_c, 0, 81, 102
2, 30116, Note_on_c, 0, 77, 100
2, 30116, Note_on_c, 0, 69, 92
2, 30116, Control_c, 0, 64, 0
2, 30126, Note_on_c, 0, 50, 44
2, 30204, Note_on_c, 0, 50, 0
2, 30246, Note_on_c, 0, 57, 0
2, 30252, Control_c, 0, 64, 127
2, 30260, Note_off_c, 0, 81, 0
2, 30268, Note_off_c, 0, 69, 0
2, 30290, Note_off_c, 0, 77, 0
2, 30292, Note_off_c, 0, 72, 0
2, 30360, Note_on_c, 0, 79, 94
2, 30360, Note_on_c, 0, 67, 80
2, 30384, Note_on_c, 0, 67, 0
2, 30390, Note_on_c, 0, 79, 0
2, 30480, Note_on_c, 0, 65, 71
2, 30484, Note_on_c, 0, 60, 52
2, 30484, Note_on_c, 0, 81, 96
2, 30484, Note_on_c, 0, 72, 83
2, 30488, Note_on_c, 0, 77, 91
2, 30492, Note_on_c, 0, 57, 69
2, 30498, Control_c, 0, 64, 0
2, 30500, Note_on_c, 0, 62, 58
2, 30604, Note_on_c, 0, 57, 0
2, 30638, Note_on_c, 0, 81, 0
2, 30640, Control_c, 0, 64, 127
2, 30662, Note_off_c, 0, 77, 0
2, 30662, Note_off_c, 0, 72, 0
2, 30688, Note_off_c, 0, 65, 0
2, 30706, Note_off_c, 0, 60, 0
2, 30724, Note_off_c, 0, 62, 0
2, 30740, Note_on_c, 0, 67, 55
2, 30746, Note_on_c, 0, 79, 70
2, 30776, Note_on_c, 0, 79, 0
2, 30780, Note_on_c, 0, 67, 0
2, 30866, Note_on_c, 0, 81, 89
2, 30870, Note_on_c, 0, 73, 72
2, 30876, Note_on_c, 0, 64, 64
2, 30878, Note_on_c, 0, 58, 72
2, 30886, Control_c, 0, 64, 0
2, 30888, Note_on_c, 0, 61, 42
2, 30900, Note_on_c, 0, 69, 38
2, 31040, Note_on_c, 0, 69, 0
2, 31044, Note_on_c, 0, 61, 0
2, 31052, Control_c, 0, 64, 127
2, 31056, Note_off_c, 0, 81, 0
2, 31090, Note_off_c, 0, 58, 0
2, 31116, Note_on_c, 0, 61, 52
2, 31124, Note_on_c, 0, 64, 0
2, 31148, Note_on_c, 0, 73, 0
2, 31194, Note_on_c, 0, 61, 0
2, 31244, Control_c, 0, 64, 0
2, 31268, Note_on_c, 0, 73, 36
2, 31268, Note_on_c, 0, 67, 28
2, 31270, Note_on_c, 0, 64, 45
2, 31276, Note_on_c, 0, 58, 33
2, 31280, Note_on_c, 0, 61, 41
2, 31280, Note_on_c, 0, 55, 47
2, 31288, Note_on_c, 0, 76, 21
2, 31328, Note_on_c, 0, 76, 0
2, 31332, Note_on_c, 0, 61, 0
2, 31336, Note_on_c, 0, 58, 0
2, 31344, Note_on_c, 0, 55, 0
2, 31346, Note_on_c, 0, 73, 0
2, 31348, Control_c, 0, 64, 127
2, 31364, Note_off_c, 0, 64, 0
2, 31364, Note_off_c, 0, 67, 0
2, 31520, Control_c, 0, 64, 0
2, 31526, Note_on_c, 0, 79, 75
2, 31532, Note_on_c, 0, 72, 49
2, 31532, Note_on_c, 0, 74, 54
2, 31534, Note_on_c, 0, 65, 47
2, 31534, Note_on_c, 0, 69, 33
2, 31534, Note_on_c, 0, 55, 51
2, 31536, Note_on_c, 0, 67, 51
2, 31544, Note_on_c, 0, 60, 55
2, 31552, Note_on_c, 0, 62, 53
2, 31658, Note_on_c, 0, 67, 0
2, 31670, Note_on_c, 0, 65, 0
2, 31682, Note_on_c, 0, 69, 0
2, 31700, Note_on_c, 0, 62, 0
2, 31710, Note_on_c, 0, 60, 0
2, 31716, Control_c, 0, 64, 127
2, 31724, Note_off_c, 0, 72, 0
2, 31740, Note_off_c, 0, 74, 0
2, 31750, Note_off_c, 0, 55, 0
2, 31762, Note_off_c, 0, 79, 0
2, 31916, Note_on_c, 0, 79, 87
2, 31944, Note_on_c, 0, 79, 0
2, 32038, Note_on_c, 0, 43, 46
2, 32052, Note_on_c, 0, 91, 82
2, 32056, Note_on_c, 0, 84, 70
2, 32056, Note_on_c, 0, 86, 74
2, 32064, Note_on_c, 0, 88, 68
2, 32086, Note_on_c, 0, 91, 0
2, 32092, Note_on_c, 0, 88, 0
2, 32092, Note_on_c, 0, 86, 0
2, 32092, Note_on_c, 0, 84, 0
2, 32156, Note_on_c, 0, 43, 0
2, 32176, Note_on_c, 0, 79, 75
2, 32212, Note_on_c, 0, 79, 0
2, 32312, Note_on_c, 0, 91, 42
2, 32316, Note_on_c, 0, 84, 52
2, 32324, Note_on_c, 0, 86, 48
2, 32344, Note_on_c, 0, 88, 14
2, 32352, Note_on_c, 0, 84, 0
2, 32356, Note_on_c, 0, 86, 0
2, 32356, Note_on_c, 0, 91, 0
2, 32376, Note_on_c, 0, 88, 0
2, 32436, Note_on_c, 0, 90, 72
2, 32438, Note_on_c, 0, 54, 41
2, 32440, Note_on_c, 0, 87, 73
2, 32446, Note_on_c, 0, 45, 38
2, 32452, Control_c, 0, 64, 0
2, 32476, Note_off_c, 0, 87, 0
2, 32480, Note_off_c, 0, 90, 0
2, 32564, Note_off_c, 0, 45, 0
2, 32584, Note_on_c, 0, 78, 42
2, 32598, Control_c, 0, 64, 127
2, 32670, Note_off_c, 0, 54, 0
2, 32686, Note_on_c, 0, 90, 21
2, 32718, Note_on_c, 0, 78, 0
2, 32736, Note_on_c, 0, 90, 0
2, 32816, Note_on_c, 0, 55, 60
2, 32826, Note_on_c, 0, 89, 65
2, 32828, Note_on_c, 0, 47, 37
2, 32832, Control_c, 0, 64, 0
2, 32836, Note_on_c, 0, 86, 56
2, 32870, Note_on_c, 0, 55, 0
2, 32874, Note_on_c, 0, 89, 0
2, 32896, Note_on_c, 0, 47, 0
2, 32910, Note_on_c, 0, 86, 0
2, 32950, Note_on_c, 0, 77, 60
2, 32986, Control_c, 0, 64, 127
2, 33000, Note_off_c, 0, 77, 0
2, 33056, Note_on_c, 0, 36, 59
2, 33070, Note_on_c, 0, 89, 49
2, 33080, Note_on_c, 0, 86, 57
2, 33110, Note_on_c, 0, 86, 0
2, 33112, Note_on_c, 0, 89, 0
2, 33192, Control_c, 0, 64, 0
2, 33196, Note_on_c, 0, 43, 51
2, 33202, Note_on_c, 0, 52, 43
2, 33204, Note_on_c, 0, 88, 71
2, 33206, Note_on_c, 0, 84, 71
2, 33216, Note_on_c, 0, 36, 0
2, 33272, Note_on_c, 0, 84, 0
2, 33274, Note_on_c, 0, 88, 0
2, 33288, Note_on_c, 0, 43, 0
2, 33294, Control_c, 0, 64, 127
2, 33322, Note_off_c, 0, 52, 0
2, 33484, Note_on_c, 0, 87, 54
2, 33492, Note_on_c, 0, 83, 52
2, 33492, Note_on_c, 0, 95, 55
2, 33498, Note_on_c, 0, 91, 50
2, 33602, Note_on_c, 0, 65, 49
2, 33610, Control_c, 0, 64, 0
2, 33610, Note_on_c, 0, 63, 46
2, 33624, Note_on_c, 0, 57, 35
2, 33624, Note_on_c, 0, 59, 35
2, 33636, Note_on_c, 0, 65, 0
2, 33648, Note_on_c, 0, 63, 0
2, 33660, Note_on_c, 0, 57, 0
2, 33666, Note_on_c, 0, 59, 0
2, 33992, Note_on_c, 0, 31, 52
2, 34048, Note_on_c, 0, 31, 0
2, 34058, Note_on_c, 0, 95, 0
2, 34072, Control_c, 0, 64, 127
2, 34166, Note_off_c, 0, 91, 0
2, 34182, Note_off_c, 0, 83, 0
2, 34186, Note_off_c, 0, 87, 0
2, 34276, Note_on_c, 0, 89, 58
2, 34328, Note_on_c, 0, 89, 0
2, 34380, Note_on_c, 0, 65, 49
2, 34390, Control_c, 0, 64, 0
2, 34390, Note_on_c, 0, 93, 69
2, 34390, Note_on_c, 0, 81, 63
2, 34396, Note_on_c, 0, 87, 60
2, 34396, Note_on_c, 0, 57, 42
2, 34396, Note_on_c, 0, 63, 42
2, 34406, Note_on_c, 0, 59, 29
2, 34408, Note_on_c, 0, 89, 49
2, 34414, Note_on_c, 0, 65, 0
2, 34436, Note_on_c, 0, 63, 0
2, 34440, Note_on_c, 0, 57, 0
2, 34458, Note_on_c, 0, 59, 0
2, 34476, Note_on_c, 0, 93, 0
2, 34484, Control_c, 0, 64, 127
2, 34516, Note_off_c, 0, 89, 0
2, 34526, Note_off_c, 0, 81, 0
2, 34544, Note_off_c, 0, 87, 0
2, 34660, Note_on_c, 0, 90, 58
2, 34668, Note_on_c, 0, 87, 49
2, 34708, Note_on_c, 0, 87, 0
2, 34732, Note_on_c, 0, 90, 0
2, 34748, Control_c, 0, 64, 0
2, 34776, Note_on_c, 0, 40, 48
2, 34786, Note_on_c, 0, 91, 70
2, 34792, Note_on_c, 0, 88, 64
2, 34810, Note_on_c, 0, 79, 44
2, 34858, Note_on_c, 0, 40, 0
2, 34860, Control_c, 0, 64, 127
2, 34868, Note_off_c, 0, 79, 0
2, 34902, Note_off_c, 0, 88, 0
2, 34918, Note_off_c, 0, 91, 0
2, 35060, Note_on_c, 0, 84, 13
2, 35092, Note_on_c, 0, 84, 0
2, 35158, Note_on_c, 0, 55, 47
2, 35170, Note_on_c, 0, 84, 38
2, 35176, Note_on_c, 0, 79, 56
2, 35176, Note_on_c, 0, 57, 35
2, 35184, Note_on_c, 0, 91, 31
2, 35202, Note_on_c, 0, 55, 0
2, 35212, Note_on_c, 0, 57, 0
2, 35254, Note_on_c, 0, 79, 0
2, 35278, Note_on_c, 0, 91, 0
2, 35314, Note_on_c, 0, 84, 0
2, 35448, Note_on_c, 0, 90, 36
2, 35456, Note_on_c, 0, 78, 34
2, 35460, Note_on_c, 0, 84, 33
2, 35484, Control_c, 0, 64, 0
2, 35562, Note_on_c, 0, 54, 48
2, 35568, Note_on_c, 0, 39, 53
2, 35612, Note_on_c, 0, 78, 0
2, 35630, Control_c, 0, 64, 127
2, 35650, Note_off_c, 0, 39, 0
2, 35652, Note_off_c, 0, 84, 0
2, 35680, Note_off_c, 0, 54, 0
2, 35680, Note_off_c, 0, 90, 0
2, 35820, Note_on_c, 0, 84, 93
2, 35848, Note_on_c, 0, 84, 0
2, 35948, Note_on_c, 0, 66, 39
2, 35948, Note_on_c, 0, 78, 81
2, 35950, Note_on_c, 0, 63, 50
2, 35952, Note_on_c, 0, 90, 72
2, 35956, Note_on_c, 0, 57, 52
2, 35968, Note_on_c, 0, 60, 28
2, 35984, Note_on_c, 0, 57, 0
2, 35984, Note_on_c, 0, 63, 0
2, 35992, Note_on_c, 0, 66, 0
2, 36010, Note_on_c, 0, 60, 0
2, 36028, Note_on_c, 0, 90, 0
2, 36052, Note_on_c, 0, 78, 0
2, 36180, Note_on_c, 0, 38, 65
2, 36196, Note_on_c, 0, 89, 105
2, 36204, Note_on_c, 0, 86, 90
2, 36206, Note_on_c, 0, 77, 85
2, 36206, Note_on_c, 0, 84, 76
2, 36254, Control_c, 0, 64, 0
2, 36340, Note_on_c, 0, 45, 72
2, 36344, Note_on_c, 0, 53, 75
2, 36388, Note_on_c, 0, 38, 0
2, 36396, Control_c, 0, 64, 127
2, 36400, Note_off_c, 0, 89, 0
2, 36436, Note_off_c, 0, 84, 0
2, 36436, Note_off_c, 0, 77, 0
2, 36436, Note_off_c, 0, 86, 0
2, 36450, Note_off_c, 0, 45, 0
2, 36492, Note_off_c, 0, 53, 0
2, 36584, Note_on_c, 0, 88, 92
2, 36588, Note_on_c, 0, 76, 70
2, 36610, Note_on_c, 0, 88, 0
2, 36612, Note_on_c, 0, 76, 0
2, 36706, Note_on_c, 0, 89, 97
2, 36712, Note_on_c, 0, 81, 64
2, 36712, Note_on_c, 0, 65, 80
2, 36716, Note_on_c, 0, 84, 66
2, 36720, Note_on_c, 0, 77, 63
2, 36726, Control_c, 0, 64, 0
2, 36730, Note_on_c, 0, 62, 68
2, 36736, Note_on_c, 0, 57, 54
2, 36736, Note_on_c, 0, 60, 45
2, 36764, Note_on_c, 0, 65, 0
2, 36768, Note_on_c, 0, 62, 0
2, 36786, Note_on_c, 0, 60, 0
2, 36798, Note_on_c, 0, 57, 0
2, 36822, Note_on_c, 0, 77, 0
2, 36836, Note_on_c, 0, 89, 0
2, 36858, Note_on_c, 0, 81, 0
2, 36868, Control_c, 0, 64, 127
2, 36872, Note_off_c, 0, 84, 0
2, 36960, Note_on_c, 0, 88, 82
2, 36966, Note_on_c, 0, 76, 52
2, 36986, Note_on_c, 0, 88, 0
2, 36994, Note_on_c, 0, 76, 0
2, 37054, Control_c, 0, 64, 0
2, 37076, Note_on_c, 0, 43, 57
2, 37080, Note_on_c, 0, 89, 83
2, 37088, Note_on_c, 0, 53, 51
2, 37096, Note_on_c, 0, 83, 46
2, 37100, Note_on_c, 0, 77, 48
2, 37108, Note_on_c, 0, 43, 0
2, 37134, Note_on_c, 0, 53, 0
2, 37146, Note_on_c, 0, 77, 0
2, 37166, Control_c, 0, 64, 127
2, 37216, Note_off_c, 0, 83, 0
2, 37266, Note_off_c, 0, 89, 0
2, 37340, Note_on_c, 0, 86, 82
2, 37346, Note_on_c, 0, 77, 75
2, 37350, Note_on_c, 0, 71, 64
2, 37354, Note_on_c, 0, 65, 39
2, 37360, Note_on_c, 0, 67, 57
2, 37366, Note_on_c, 0, 83, 17
2, 37368, Note_on_c, 0, 86, 0
2, 37376, Note_on_c, 0, 71, 0
2, 37388, Note_on_c, 0, 65, 0
2, 37388, Note_on_c, 0, 77, 0
2, 37400, Note_on_c, 0, 83, 0
2, 37404, Note_on_c, 0, 67, 0
2, 37516, Control_c, 0, 64, 0
2, 37726, Note_on_c, 0, 76, 90
2, 37792, Control_c, 0, 64, 127
2, 37804, Note_off_c, 0, 76, 0
2, 37858, Note_on_c, 0, 77, 112
2, 37858, Note_on_c, 0, 72, 101
2, 37862, Note_on_c, 0, 65, 92
2, 37866, Note_on_c, 0, 60, 88
2, 37880, Note_on_c, 0, 50, 64
2, 37892, Control_c, 0, 64, 0
2, 38018, Note_off_c, 0, 50, 0
2, 38046, Control_c, 0, 64, 127
2, 38056, Note_off_c, 0, 65, 0
2, 38062, Note_off_c, 0, 77, 0
2, 38066, Note_off_c, 0, 72, 0
2, 38076, Note_off_c, 0, 60, 0
2, 38116, Note_on_c, 0, 76, 80
2, 38154, Note_on_c, 0, 76, 0
2, 38242, Note_on_c, 0, 77, 105
2, 38246, Note_on_c, 0, 61, 89
2, 38248, Note_on_c, 0, 73, 77
2, 38252, Note_on_c, 0, 65, 73
2, 38252, Note_on_c, 0, 67, 67
2, 38252, Note_on_c, 0, 52, 72
2, 38262, Control_c, 0, 64, 0
2, 38444, Note_off_c, 0, 77, 0
2, 38446, Note_off_c, 0, 52, 0
2, 38448, Note_off_c, 0, 67, 0
2, 38448, Note_off_c, 0, 73, 0
2, 38452, Note_off_c, 0, 65, 0
2, 38458, Control_c, 0, 64, 127
2, 38494, Note_off_c, 0, 61, 0
2, 38496, Note_on_c, 0, 76, 99
2, 38568, Note_on_c, 0, 76, 0
2, 38616, Note_on_c, 0, 77, 106
2, 38626, Note_on_c, 0, 72, 79
2, 38632, Control_c, 0, 64, 0
2, 38632, Note_on_c, 0, 62, 71
2, 38632, Note_on_c, 0, 65, 63
2, 38636, Note_on_c, 0, 53, 56
2, 38646, Note_on_c, 0, 60, 58
2, 38754, Control_c, 0, 64, 127
2, 38764, Note_off_c, 0, 77, 0
2, 38774, Note_off_c, 0, 53, 0
2, 38792, Note_off_c, 0, 72, 0
2, 38814, Note_off_c, 0, 65, 0
2, 38862, Note_on_c, 0, 74, 98
2, 38866, Note_on_c, 0, 62, 0
2, 38868, Note_on_c, 0, 69, 85
2, 38872, Note_on_c, 0, 71, 60
2, 38896, Note_on_c, 0, 60, 0
2, 38908, Note_on_c, 0, 71, 0
2, 38952, Note_on_c, 0, 71, 13
2, 39004, Note_on_c, 0, 62, 84
2, 39008, Control_c, 0, 64, 0
2, 39014, Note_on_c, 0, 65, 80
2, 39014, Note_on_c, 0, 59, 53
2, 39018, Note_on_c, 0, 55, 60
2, 39068, Note_on_c, 0, 62, 0
2, 39092, Note_on_c, 0, 59, 0
2, 39104, Note_on_c, 0, 55, 0
2, 39154, Control_c, 0, 64, 127
2, 39272, Note_on_c, 0, 50, 89
2, 39294, Note_on_c, 0, 65, 0
2, 39306, Note_on_c, 0, 69, 0
2, 39310, Note_on_c, 0, 71, 0
2, 39314, Note_on_c, 0, 74, 0
2, 39388, Control_c, 0, 64, 0
2, 39408, Note_on_c, 0, 38, 111
2, 39466, Note_on_c, 0, 38, 0
2, 39504, Note_on_c, 0, 50, 0
2, 39520, Control_c, 0, 64, 127
2, 39692, Note_on_c, 0, 60, 89
2, 39724, Note_on_c, 0, 62, 74
2, 39760, Note_on_c, 0, 65, 71
2, 39776, Note_on_c, 0, 74, 77
2, 39776, Note_on_c, 0, 72, 87
2, 39796, Note_on_c, 0, 69, 100
2, 39800, Note_on_c, 0, 77, 98
2, 39812, Note_on_c, 0, 81, 112
2, 39824, Note_on_c, 0, 86, 115
2, 39850, Control_c, 0, 64, 0
2, 39964, Note_off_c, 0, 60, 0
2, 39968, Note_off_c, 0, 62, 0
2, 39980, Note_off_c, 0, 65, 0
2, 39992, Control_c, 0, 64, 127
2, 39996, Note_off_c, 0, 72, 0
2, 40006, Note_off_c, 0, 81, 0
2, 40016, Note_off_c, 0, 69, 0
2, 40026, Note_off_c, 0, 86, 0
2, 40030, Note_off_c, 0, 77, 0
2, 40032, Note_off_c, 0, 74, 0
2, 40072, Note_on_c, 0, 62, 89
2, 40094, Note_on_c, 0, 65, 42
2, 40118, Note_on_c, 0, 67, 81
2, 40148, Note_on_c, 0, 74, 80
2, 40168, Note_on_c, 0, 77, 81
2, 40178, Note_on_c, 0, 71, 74
2, 40186, Note_on_c, 0, 79, 97
2, 40188, Control_c, 0, 64, 0
2, 40204, Note_on_c, 0, 83, 90
2, 40212, Note_on_c, 0, 86, 109
2, 40318, Note_on_c, 0, 71, 0
2, 40332, Note_on_c, 0, 67, 0
2, 40336, Note_on_c, 0, 62, 0
2, 40340, Control_c, 0, 64, 127
2, 40348, Note_off_c, 0, 86, 0
2, 40356, Note_off_c, 0, 65, 0
2, 40362, Note_off_c, 0, 83, 0
2, 40362, Note_off_c, 0, 74, 0
2, 40378, Note_off_c, 0, 79, 0
2, 40382, Note_off_c, 0, 77, 0
2, 40446, Note_on_c, 0, 59, 67
2, 40470, Note_on_c, 0, 62, 60
2, 40520, Note_on_c, 0, 65, 72
2, 40534, Note_on_c, 0, 71, 57
2, 40560, Note_on_c, 0, 67, 87
2, 40564, Note_on_c, 0, 74, 83
2, 40586, Note_on_c, 0, 77, 95
2, 40588, Control_c, 0, 64, 0
2, 40596, Note_on_c, 0, 79, 101
2, 40606, Note_on_c, 0, 83, 92
2, 40708, Note_on_c, 0, 62, 0
2, 40720, Note_on_c, 0, 65, 0
2, 40734, Note_on_c, 0, 67, 0
2, 40740, Control_c, 0, 64, 127
2, 40748, Note_off_c, 0, 83, 0
2, 40752, Note_off_c, 0, 59, 0
2, 40762, Note_off_c, 0, 79, 0
2, 40766, Note_off_c, 0, 77, 0
2, 40776, Note_off_c, 0, 71, 0
2, 40780, Note_off_c, 0, 74, 0
2, 40824, Note_on_c, 0, 57, 66
2, 40874, Note_on_c, 0, 60, 58
2, 40902, Note_on_c, 0, 62, 74
2, 40918, Note_on_c, 0, 69, 69
2, 40936, Note_on_c, 0, 65, 77
2, 40946, Control_c, 0, 64, 0
2, 40954, Note_on_c, 0, 72, 76
2, 40986, Note_on_c, 0, 77, 88
2, 41006, Note_on_c, 0, 81, 90
2, 41060, Note_on_c, 0, 65, 0
2, 41080, Note_on_c, 0, 62, 0
2, 41092, Note_on_c, 0, 60, 0
2, 41100, Control_c, 0, 64, 127
2, 41120, Note_off_c, 0, 81, 0
2, 41120, Note_off_c, 0, 57, 0
2, 41142, Note_off_c, 0, 77, 0
2, 41162, Note_off_c, 0, 72, 0
2, 41168, Note_off_c, 0, 69, 0
2, 41354, Note_on_c, 0, 60, 65
2, 41366, Note_on_c, 0, 43, 39
2, 41430, Note_on_c, 0, 60, 0
2, 41464, Note_on_c, 0, 62, 78
2, 41474, Note_on_c, 0, 43, 0
2, 41524, Note_on_c, 0, 62, 0
2, 41558, Note_on_c, 0, 65, 86
2, 41630, Note_on_c, 0, 69, 94
2, 41640, Note_on_c, 0, 65, 0
2, 41660, Note_on_c, 0, 69, 0
2, 41746, Note_on_c, 0, 59, 55
2, 41748, Note_on_c, 0, 71, 55
2, 41758, Note_on_c, 0, 63, 54
2, 41758, Note_on_c, 0, 42, 45
2, 41760, Note_on_c, 0, 57, 66
2, 41762, Note_on_c, 0, 51, 42
2, 41816, Control_c, 0, 64, 0
2, 42032, Control_c, 0, 64, 127
2, 42054, Note_off_c, 0, 42, 0
2, 42164, Note_on_c, 0, 41, 67
2, 42176, Control_c, 0, 64, 0
2, 42308, Note_off_c, 0, 41, 0
2, 42344, Note_off_c, 0, 51, 0
2, 42370, Control_c, 0, 64, 127
2, 42396, Note_off_c, 0, 57, 0
2, 42408, Note_off_c, 0, 71, 0
2, 42420, Note_off_c, 0, 59, 0
2, 42444, Note_on_c, 0, 47, 42
2, 42454, Note_on_c, 0, 63, 0
2, 42472, Note_on_c, 0, 68, 60
2, 42528, Note_on_c, 0, 68, 0
2, 42528, Note_on_c, 0, 71, 29
2, 42532, Note_on_c, 0, 47, 0
2, 42532, Control_c, 0, 64, 0
2, 42560, Note_on_c, 0, 68, 24
2, 42566, Note_on_c, 0, 40, 55
2, 42576, Note_on_c, 0, 59, 36
2, 42584, Note_on_c, 0, 52, 36
2, 42584, Note_on_c, 0, 64, 58
2, 42590, Note_on_c, 0, 71, 0
2, 42600, Note_on_c, 0, 40, 0
2, 42650, Note_on_c, 0, 52, 0
2, 42656, Note_on_c, 0, 68, 0
2, 42658, Note_on_c, 0, 64, 0
2, 42664, Note_on_c, 0, 59, 0
2, 42678, Control_c, 0, 64, 127
2, 42832, Note_on_c, 0, 56, 94
2, 42832, Note_on_c, 0, 59, 98
2, 42860, Control_c, 0, 64, 0
2, 43108, Note_off_c, 0, 59, 0
2, 43118, Note_off_c, 0, 56, 0
2, 43156, Note_on_c, 0, 57, 67
2, 43184, Note_on_c, 0, 54, 62
2, 43200, Note_on_c, 0, 57, 0
2, 43214, Note_on_c, 0, 59, 59
2, 43252, Note_on_c, 0, 59, 0
2, 43268, Note_on_c, 0, 54, 0
2, 43274, Note_on_c, 0, 57, 43
2, 43282, Control_c, 0, 64, 127
2, 43330, Note_on_c, 0, 56, 66
2, 43338, Note_on_c, 0, 57, 0
2, 43344, Control_c, 0, 64, 0
2, 43354, Note_on_c, 0, 52, 44
2, 43386, Note_on_c, 0, 52, 0
2, 43392, Note_on_c, 0, 56, 0
2, 43592, Note_on_c, 0, 69, 105
2, 43592, Note_on_c, 0, 66, 89
2, 43716, Note_on_c, 0, 69, 0
2, 43730, Note_on_c, 0, 66, 0
2, 43732, Note_on_c, 0, 68, 81
2, 43740, Note_on_c, 0, 71, 62
2, 43904, Note_on_c, 0, 71, 0
2, 43904, Note_on_c, 0, 68, 0
2, 43954, Note_on_c, 0, 69, 49
2, 43968, Note_on_c, 0, 66, 59
2, 43988, Note_on_c, 0, 71, 53
2, 43996, Note_on_c, 0, 69, 0
2, 44020, Note_on_c, 0, 66, 0
2, 44036, Note_on_c, 0, 71, 0
2, 44076, Note_on_c, 0, 69, 14
2, 44116, Note_on_c, 0, 68, 80
2, 44120, Note_on_c, 0, 64, 68
2, 44132, Note_on_c, 0, 69, 0
2, 44148, Note_on_c, 0, 68, 0
2, 44150, Note_on_c, 0, 64, 0
2, 44352, Note_on_c, 0, 81, 108
2, 44360, Note_on_c, 0, 78, 90
2, 44486, Note_on_c, 0, 81, 0
2, 44504, Note_on_c, 0, 80, 82
2, 44510, Note_on_c, 0, 78, 0
2, 44510, Note_on_c, 0, 83, 67
2, 44666, Note_on_c, 0, 83, 0
2, 44678, Note_on_c, 0, 80, 0
2, 44714, Note_on_c, 0, 81, 60
2, 44724, Note_on_c, 0, 78, 65
2, 44752, Note_on_c, 0, 81, 0
2, 44774, Note_on_c, 0, 83, 47
2, 44812, Note_on_c, 0, 83, 0
2, 44820, Note_on_c, 0, 78, 0
2, 44838, Note_on_c, 0, 81, 32
2, 44890, Note_on_c, 0, 76, 79
2, 44892, Note_on_c, 0, 81, 0
2, 44896, Note_on_c, 0, 80, 53
2, 44922, Note_on_c, 0, 76, 0
2, 44932, Note_on_c, 0, 80, 0
2, 45154, Note_on_c, 0, 76, 107
2, 45154, Note_on_c, 0, 74, 91
2, 45174, Note_on_c, 0, 56, 84
2, 45178, Note_on_c, 0, 54, 38
2, 45178, Note_on_c, 0, 46, 76
2, 45208, Note_on_c, 0, 54, 0
2, 45402, Control_c, 0, 64, 127
2, 45470, Note_off_c, 0, 76, 0
2, 45476, Note_off_c, 0, 74, 0
2, 45496, Note_off_c, 0, 56, 0
2, 45506, Note_off_c, 0, 46, 0
2, 45556, Note_on_c, 0, 52, 72
2, 45592, Note_on_c, 0, 52, 0
2, 45688, Note_on_c, 0, 73, 113
2, 45690, Note_on_c, 0, 67, 109
2, 45692, Note_on_c, 0, 81, 113
2, 45694, Note_on_c, 0, 69, 105
2, 45702, Note_on_c, 0, 55, 110
2, 45708, Note_on_c, 0, 45, 105
2, 45716, Note_on_c, 0, 79, 48
2, 45730, Control_c, 0, 64, 0
2, 45764, Note_off_c, 0, 79, 0
2, 45778, Note_off_c, 0, 81, 0
2, 45788, Note_off_c, 0, 45, 0
2, 45794, Note_off_c, 0, 69, 0
2, 45802, Note_off_c, 0, 55, 0
2, 45804, Note_off_c, 0, 73, 0
2, 45820, Note_off_c, 0, 67, 0
2, 46070, Note_on_c, 0, 67, 103
2, 46076, Note_on_c, 0, 70, 114
2, 46076, Note_on_c, 0, 62, 104
2, 46076, Note_on_c, 0, 56, 90
2, 46086, Note_on_c, 0, 46, 88
2, 46284, Control_c, 0, 64, 127
2, 46288, Note_off_c, 0, 67, 0
2, 46294, Note_off_c, 0, 70, 0
2, 46310, Note_off_c, 0, 56, 0
2, 46312, Note_off_c, 0, 62, 0
2, 46314, Note_off_c, 0, 46, 0
2, 46446, Control_c, 0, 64, 0
2, 46468, Note_on_c, 0, 61, 76
2, 46472, Note_on_c, 0, 69, 86
2, 46474, Note_on_c, 0, 59, 63
2, 46482, Note_on_c, 0, 55, 75
2, 46484, Note_on_c, 0, 45, 69
2, 46552, Note_on_c, 0, 45, 0
2, 46552, Note_on_c, 0, 59, 0
2, 46576, Note_on_c, 0, 55, 0
2, 46584, Note_on_c, 0, 61, 0
2, 46604, Note_on_c, 0, 69, 0
2, 46866, Note_on_c, 0, 82, 114
2, 46866, Note_on_c, 0, 79, 108
2, 46870, Note_on_c, 0, 74, 101
2, 46872, Note_on_c, 0, 68, 108
2, 46872, Note_on_c, 0, 72, 101
2, 46884, Note_on_c, 0, 58, 95
2, 47080, Control_c, 0, 64, 127
2, 47134, Note_off_c, 0, 58, 0
2, 47144, Note_off_c, 0, 74, 0
2, 47150, Note_off_c, 0, 72, 0
2, 47154, Note_off_c, 0, 68, 0
2, 47204, Note_off_c, 0, 79, 0
2, 47222, Note_off_c, 0, 82, 0
2, 47254, Note_on_c, 0, 73, 80
2, 47256, Note_on_c, 0, 79, 65
2, 47260, Note_on_c, 0, 81, 80
2, 47260, Note_on_c, 0, 67, 76
2, 47268, Note_on_c, 0, 57, 70
2, 47294, Note_on_c, 0, 81, 0
2, 47296, Note_on_c, 0, 67, 0
2, 47296, Control_c, 0, 64, 0
2, 47318, Note_off_c, 0, 79, 0
2, 47332, Note_off_c, 0, 57, 0
2, 47348, Note_off_c, 0, 73, 0
2, 47632, Note_on_c, 0, 67, 105
2, 47632, Note_on_c, 0, 70, 114
2, 47634, Note_on_c, 0, 56, 102
2, 47636, Note_on_c, 0, 62, 105
2, 47636, Note_on_c, 0, 60, 106
2, 47644, Note_on_c, 0, 46, 95
2, 47808, Control_c, 0, 64, 127
2, 47840, Note_off_c, 0, 67, 0
2, 47846, Note_off_c, 0, 70, 0
2, 47854, Note_off_c, 0, 62, 0
2, 47860, Note_off_c, 0, 60, 0
2, 47874, Note_off_c, 0, 56, 0
2, 47894, Note_off_c, 0, 46, 0
2, 48016, Control_c, 0, 64, 0
2, 48024, Note_on_c, 0, 69, 88
2, 48024, Note_on_c, 0, 61, 70
2, 48026, Note_on_c, 0, 66, 66
2, 48026, Note_on_c, 0, 55, 76
2, 48028, Note_on_c, 0, 59, 65
2, 48040, Note_on_c, 0, 45, 66
2, 48070, Note_on_c, 0, 55, 0
2, 48104, Note_on_c, 0, 45, 0
2, 48128, Note_on_c, 0, 69, 0
2, 48158, Control_c, 0, 64, 127
2, 48164, Note_off_c, 0, 59, 0
2, 48164, Note_off_c, 0, 66, 0
2, 48172, Note_off_c, 0, 61, 0
2, 48294, Note_on_c, 0, 65, 88
2, 48314, Note_on_c, 0, 55, 52
2, 48314, Note_on_c, 0, 57, 52
2, 48314, Note_on_c, 0, 64, 50
2, 48384, Control_c, 0, 64, 0
2, 48404, Note_off_c, 0, 64, 0
2, 48408, Note_off_c, 0, 65, 0
2, 48414, Note_on_c, 0, 33, 85
2, 48414, Note_on_c, 0, 45, 83
2, 48434, Note_on_c, 0, 57, 0
2, 48474, Note_on_c, 0, 45, 0
2, 48490, Note_on_c, 0, 64, 48
2, 48496, Note_on_c, 0, 33, 0
2, 48658, Note_on_c, 0, 38, 110
2, 48664, Note_on_c, 0, 55, 0
2, 48670, Control_c, 0, 64, 127
2, 48688, Note_off_c, 0, 64, 0
2, 48796, Note_on_c, 0, 26, 112
2, 48812, Control_c, 0, 64, 0
2, 48876, Note_off_c, 0, 26, 0
2, 48908, Note_off_c, 0, 38, 0
2, 48958, Control_c, 0, 64, 127
2, 49046, Note_on_c, 0, 66, 97
2, 49050, Note_on_c, 0, 74, 106
2, 49050, Note_on_c, 0, 62, 95
2, 49074, Note_on_c, 0, 62, 0
2, 49090, Note_on_c, 0, 66, 0
2, 49112, Note_on_c, 0, 74, 0
2, 49176, Note_on_c, 0, 62, 97
2, 49180, Note_on_c, 0, 54, 73
2, 49182, Note_on_c, 0, 60, 90
2, 49184, Note_on_c, 0, 78, 98
2, 49184, Note_on_c, 0, 66, 92
2, 49206, Note_on_c, 0, 62, 0
2, 49210, Note_on_c, 0, 60, 0
2, 49212, Control_c, 0, 64, 0
2, 49256, Note_off_c, 0, 54, 0
2, 49364, Note_off_c, 0, 66, 0
2, 49470, Control_c, 0, 64, 127
2, 49540, Control_c, 0, 64, 0
2, 49570, Note_on_c, 0, 33, 76
2, 49572, Note_on_c, 0, 81, 97
2, 49576, Note_on_c, 0, 69, 91
2, 49582, Note_on_c, 0, 74, 90
2, 49616, Note_on_c, 0, 33, 0
2, 49624, Note_on_c, 0, 69, 0
2, 49626, Note_on_c, 0, 74, 0
2, 49644, Control_c, 0, 64, 127
2, 49650, Note_off_c, 0, 78, 0
2, 49658, Note_off_c, 0, 81, 0
2, 49820, Note_on_c, 0, 84, 104
2, 49826, Note_on_c, 0, 72, 93
2, 49828, Note_on_c, 0, 76, 103
2, 49830, Note_on_c, 0, 79, 97
2, 49948, Note_on_c, 0, 64, 90
2, 49950, Control_c, 0, 64, 0
2, 49952, Note_on_c, 0, 55, 74
2, 49964, Note_on_c, 0, 57, 79
2, 49964, Note_on_c, 0, 60, 78
2, 49992, Note_on_c, 0, 64, 0
2, 49994, Note_on_c, 0, 60, 0
2, 50030, Note_on_c, 0, 57, 0
2, 50040, Note_on_c, 0, 55, 0
2, 50074, Control_c, 0, 64, 127
2, 50088, Note_off_c, 0, 72, 0
2, 50108, Note_off_c, 0, 79, 0
2, 50108, Note_off_c, 0, 76, 0
2, 50138, Note_off_c, 0, 84, 0
2, 50220, Note_on_c, 0, 38, 82
2, 50288, Note_on_c, 0, 38, 0
2, 50352, Note_on_c, 0, 78, 96
2, 50356, Note_on_c, 0, 81, 102
2, 50356, Note_on_c, 0, 86, 110
2, 50360, Note_on_c, 0, 45, 75
2, 50360, Note_on_c, 0, 74, 103
2, 50368, Note_on_c, 0, 54, 106
2, 50380, Control_c, 0, 64, 0
2, 50524, Control_c, 0, 64, 127
2, 50546, Note_off_c, 0, 54, 0
2, 50568, Note_off_c, 0, 74, 0
2, 50572, Note_off_c, 0, 81, 0
2, 50584, Note_off_c, 0, 45, 0
2, 50584, Note_off_c, 0, 78, 0
2, 50594, Note_off_c, 0, 86, 0
2, 50610, Note_on_c, 0, 40, 79
2, 50636, Note_on_c, 0, 40, 0
2, 50748, Note_on_c, 0, 88, 110
2, 50748, Note_on_c, 0, 55, 103
2, 50748, Note_on_c, 0, 79, 102
2, 50752, Note_on_c, 0, 76, 106
2, 50752, Note_on_c, 0, 84, 96
2, 50790, Control_c, 0, 64, 0
2, 50906, Note_off_c, 0, 55, 0
2, 50954, Control_c, 0, 64, 127
2, 50974, Note_off_c, 0, 88, 0
2, 50980, Note_on_c, 0, 41, 80
2, 50986, Note_on_c, 0, 76, 0
2, 51004, Note_on_c, 0, 79, 0
2, 51048, Note_on_c, 0, 41, 0
2, 51054, Note_on_c, 0, 48, 48
2, 51060, Note_on_c, 0, 84, 0
2, 51110, Note_on_c, 0, 48, 0
2, 51130, Note_on_c, 0, 56, 118
2, 51134, Note_on_c, 0, 50, 89
2, 51140, Note_on_c, 0, 86, 106
2, 51146, Note_on_c, 0, 80, 88
2, 51146, Note_on_c, 0, 48, 39
2, 51146, Note_on_c, 0, 74, 86
2, 51178, Control_c, 0, 64, 0
2, 51284, Note_off_c, 0, 86, 0
2, 51310, Note_off_c, 0, 80, 0
2, 51324, Control_c, 0, 64, 127
2, 51328, Note_off_c, 0, 74, 0
2, 51354, Note_off_c, 0, 56, 0
2, 51376, Note_off_c, 0, 50, 0
2, 51408, Note_on_c, 0, 42, 80
2, 51428, Note_on_c, 0, 48, 0
2, 51472, Note_on_c, 0, 42, 0
2, 51528, Note_on_c, 0, 78, 82
2, 51528, Note_on_c, 0, 84, 89
2, 51540, Note_on_c, 0, 72, 61
2, 51542, Note_on_c, 0, 57, 98
2, 51548, Control_c, 0, 64, 0
2, 51552, Note_on_c, 0, 51, 78
2, 51572, Note_on_c, 0, 49, 25
2, 51628, Note_on_c, 0, 49, 0
2, 51688, Note_on_c, 0, 57, 0
2, 51724, Control_c, 0, 64, 127
2, 51740, Note_off_c, 0, 51, 0
2, 51770, Note_off_c, 0, 72, 0
2, 51776, Note_on_c, 0, 50, 84
2, 51816, Note_on_c, 0, 84, 0
2, 51822, Note_on_c, 0, 78, 0
2, 51906, Note_on_c, 0, 52, 105
2, 51910, Note_on_c, 0, 43, 92
2, 51922, Note_on_c, 0, 50, 0
2, 51928, Control_c, 0, 64, 0
2, 52066, Note_off_c, 0, 43, 0
2, 52082, Control_c, 0, 64, 127
2, 52100, Note_off_c, 0, 52, 0
2, 52164, Note_on_c, 0, 88, 111
2, 52164, Note_on_c, 0, 79, 107
2, 52164, Note_on_c, 0, 84, 101
2, 52168, Note_on_c, 0, 76, 110
2, 52276, Control_c, 0, 64, 0
2, 52288, Note_on_c, 0, 64, 94
2, 52300, Note_on_c, 0, 55, 69
2, 52306, Note_on_c, 0, 60, 76
2, 52314, Note_on_c, 0, 57, 70
2, 52368, Note_on_c, 0, 64, 0
2, 52400, Note_on_c, 0, 60, 0
2, 52404, Note_on_c, 0, 57, 0
2, 52428, Control_c, 0, 64, 127
2, 52440, Note_off_c, 0, 55, 0
2, 52478, Note_off_c, 0, 88, 0
2, 52516, Note_off_c, 0, 79, 0
2, 52546, Note_off_c, 0, 84, 0
2, 52576, Note_off_c, 0, 76, 0
2, 52594, Note_on_c, 0, 83, 66
2, 52668, Note_on_c, 0, 83, 0
2, 52706, Note_on_c, 0, 44, 68
2, 52706, Control_c, 0, 64, 0
2, 52708, Note_on_c, 0, 80, 72
2, 52710, Note_on_c, 0, 83, 31
2, 52710, Note_on_c, 0, 86, 63
2, 52712, Note_on_c, 0, 53, 60
2, 52716, Note_on_c, 0, 74, 51
2, 52858, Note_on_c, 0, 86, 0
2, 52860, Control_c, 0, 64, 127
2, 52880, Note_off_c, 0, 44, 0
2, 52888, Note_off_c, 0, 74, 0
2, 52888, Note_off_c, 0, 83, 0
2, 52904, Note_off_c, 0, 80, 0
2, 52912, Note_off_c, 0, 53, 0
2, 52976, Note_on_c, 0, 84, 63
2, 52982, Note_on_c, 0, 79, 67
2, 52988, Note_on_c, 0, 72, 55
2, 52988, Note_on_c, 0, 81, 58
2, 53044, Control_c, 0, 64, 0
2, 53094, Note_on_c, 0, 55, 66
2, 53096, Note_on_c, 0, 45, 69
2, 53188, Note_on_c, 0, 55, 0
2, 53200, Note_on_c, 0, 84, 0
2, 53208, Control_c, 0, 64, 127
2, 53240, Note_off_c, 0, 45, 0
2, 53242, Note_off_c, 0, 81, 0
2, 53260, Note_off_c, 0, 79, 0
2, 53276, Note_off_c, 0, 72, 0
2, 53374, Note_on_c, 0, 45, 60
2, 53494, Control_c, 0, 64, 0
2, 53504, Note_on_c, 0, 81, 100
2, 53506, Note_on_c, 0, 78, 76
2, 53510, Note_on_c, 0, 38, 73
2, 53510, Note_on_c, 0, 76, 87
2, 53514, Note_on_c, 0, 72, 65
2, 53600, Note_on_c, 0, 45, 0
2, 53606, Note_on_c, 0, 38, 0
2, 53648, Control_c, 0, 64, 127
2, 53656, Note_off_c, 0, 76, 0
2, 53670, Note_off_c, 0, 72, 0
2, 53674, Note_off_c, 0, 78, 0
2, 53682, Note_off_c, 0, 81, 0
2, 53762, Note_on_c, 0, 80, 84
2, 53802, Note_on_c, 0, 80, 0
2, 53890, Note_on_c, 0, 75, 61
2, 53892, Note_on_c, 0, 78, 62
2, 53894, Note_on_c, 0, 81, 67
2, 53894, Control_c, 0, 64, 0
2, 53898, Note_on_c, 0, 72, 57
2, 53906, Note_on_c, 0, 54, 55
2, 53908, Note_on_c, 0, 60, 63
2, 53916, Note_on_c, 0, 64, 24
2, 53960, Note_on_c, 0, 64, 0
2, 53964, Note_on_c, 0, 60, 0
2, 53982, Note_on_c, 0, 54, 0
2, 54008, Note_on_c, 0, 81, 0
2, 54026, Note_on_c, 0, 72, 0
2, 54036, Control_c, 0, 64, 127
2, 54060, Note_off_c, 0, 75, 0
2, 54062, Note_off_c, 0, 78, 0
2, 54148, Note_on_c, 0, 70, 83
2, 54150, Note_on_c, 0, 82, 85
2, 54184, Note_on_c, 0, 82, 0
2, 54218, Note_on_c, 0, 70, 0
2, 54264, Note_on_c, 0, 43, 51
2, 54272, Control_c, 0, 64, 0
2, 54280, Note_on_c, 0, 83, 62
2, 54280, Note_on_c, 0, 53, 38
2, 54280, Note_on_c, 0, 71, 43
2, 54290, Note_on_c, 0, 77, 70
2, 54338, Note_on_c, 0, 43, 0
2, 54374, Note_on_c, 0, 53, 0
2, 54396, Control_c, 0, 64, 127
2, 54408, Note_off_c, 0, 71, 0
2, 54424, Note_off_c, 0, 77, 0
2, 54492, Note_off_c, 0, 83, 0
2, 54542, Note_on_c, 0, 71, 55
2, 54548, Note_on_c, 0, 77, 58
2, 54552, Note_on_c, 0, 79, 46
2, 54572, Control_c, 0, 64, 0
2, 54574, Note_on_c, 0, 55, 38
2, 54576, Note_on_c, 0, 59, 61
2, 54670, Note_on_c, 0, 71, 0
2, 54676, Note_on_c, 0, 55, 0
2, 54684, Note_on_c, 0, 59, 0
2, 54716, Note_on_c, 0, 79, 0
2, 54720, Note_on_c, 0, 77, 0
2, 54734, Control_c, 0, 64, 127
2, 54856, Control_c, 0, 64, 0
2, 54910, Note_on_c, 0, 64, 85
2, 54910, Note_on_c, 0, 84, 94
2, 54912, Note_on_c, 0, 79, 94
2, 54912, Note_on_c, 0, 74, 91
2, 54916, Note_on_c, 0, 70, 88
2, 54936, Note_on_c, 0, 84, 0
2, 54964, Note_on_c, 0, 74, 0
2, 54988, Note_on_c, 0, 79, 0
2, 54988, Note_on_c, 0, 64, 0
2, 55040, Note_on_c, 0, 70, 0
2, 55070, Note_on_c, 0, 83, 55
2, 55076, Note_on_c, 0, 73, 59
2, 55076, Note_on_c, 0, 63, 54
2, 55078, Note_on_c, 0, 78, 58
2, 55078, Note_on_c, 0, 69, 67
2, 55222, Note_on_c, 0, 63, 0
2, 55246, Control_c, 0, 64, 127
2, 55248, Note_off_c, 0, 73, 0
2, 55252, Note_off_c, 0, 83, 0
2, 55258, Note_off_c, 0, 78, 0
2, 55300, Note_on_c, 0, 62, 70
2, 55302, Note_on_c, 0, 69, 0
2, 55304, Note_on_c, 0, 68, 67
2, 55304, Note_on_c, 0, 82, 88
2, 55310, Note_on_c, 0, 72, 68
2, 55314, Note_on_c, 0, 77, 79
2, 55346, Note_on_c, 0, 77, 0
2, 55362, Note_on_c, 0, 72, 0
2, 55362, Note_on_c, 0, 62, 0
2, 55388, Note_on_c, 0, 82, 0
2, 55440, Control_c, 0, 64, 0
2, 55452, Note_on_c, 0, 81, 71
2, 55456, Note_on_c, 0, 68, 0
2, 55458, Note_on_c, 0, 61, 64
2, 55458, Note_on_c, 0, 71, 43
2, 55464, Note_on_c, 0, 67, 73
2, 55466, Note_on_c, 0, 76, 58
2, 55576, Note_on_c, 0, 76, 0
2, 55602, Note_on_c, 0, 81, 0
2, 55608, Note_on_c, 0, 71, 0
2, 55614, Note_on_c, 0, 61, 0
2, 55614, Control_c, 0, 64, 127
2, 55700, Note_on_c, 0, 70, 102
2, 55700, Note_on_c, 0, 60, 80
2, 55702, Note_on_c, 0, 80, 90
2, 55708, Note_on_c, 0, 75, 85
2, 55708, Note_on_c, 0, 66, 78
2, 55732, Note_on_c, 0, 67, 0
2, 55792, Note_on_c, 0, 80, 0
2, 55800, Note_on_c, 0, 75, 0
2, 55802, Control_c, 0, 64, 0
2, 55808, Note_off_c, 0, 70, 0
2, 55824, Note_off_c, 0, 60, 0
2, 55846, Note_off_c, 0, 66, 0
2, 56052, Note_on_c, 0, 79, 103
2, 56052, Note_on_c, 0, 65, 94
2, 56052, Note_on_c, 0, 69, 90
2, 56052, Note_on_c, 0, 74, 94
2, 56056, Note_on_c, 0, 59, 72
2, 56220, Note_on_c, 0, 79, 0
2, 56232, Note_on_c, 0, 74, 0
2, 56246, Note_on_c, 0, 59, 0
2, 56246, Note_on_c, 0, 69, 0
2, 56272, Note_on_c, 0, 65, 0
2, 56302, Control_c, 0, 64, 127
2, 56420, Note_on_c, 0, 68, 71
2, 56424, Note_on_c, 0, 78, 61
2, 56424, Note_on_c, 0, 58, 78
2, 56426, Note_on_c, 0, 64, 67
2, 56428, Note_on_c, 0, 73, 60
2, 56464, Note_on_c, 0, 58, 0
2, 56470, Note_on_c, 0, 64, 0
2, 56498, Note_on_c, 0, 78, 0
2, 56508, Note_on_c, 0, 73, 0
2, 56508, Note_on_c, 0, 68, 0
2, 56576, Note_on_c, 0, 77, 60
2, 56580, Note_on_c, 0, 63, 60
2, 56584, Note_on_c, 0, 72, 52
2, 56586, Note_on_c, 0, 57, 56
2, 56586, Note_on_c, 0, 67, 51
2, 56600, Control_c, 0, 64, 0
2, 56692, Note_off_c, 0, 77, 0
2, 56704, Note_off_c, 0, 57, 0
2, 56706, Note_off_c, 0, 72, 0
2, 56706, Note_off_c, 0, 63, 0
2, 56722, Note_off_c, 0, 67, 0
2, 56980, Note_on_c, 0, 66, 53
2, 56982, Note_on_c, 0, 56, 45
2, 56984, Note_on_c, 0, 60, 75
2, 56988, Note_on_c, 0, 75, 52
2, 57076, Note_on_c, 0, 60, 0
2, 57084, Note_on_c, 0, 56, 0
2, 57100, Note_on_c, 0, 75, 0
2, 57100, Control_c, 0, 64, 127
2, 57112, Note_off_c, 0, 66, 0
2, 57242, Note_on_c, 0, 76, 78
2, 57244, Control_c, 0, 64, 0
2, 57248, Note_on_c, 0, 69, 60
2, 57248, Note_on_c, 0, 65, 56
2, 57248, Note_on_c, 0, 55, 63
2, 57418, Note_on_c, 0, 55, 0
2, 57450, Control_c, 0, 64, 127
2, 57528, Note_off_c, 0, 76, 0
2, 57574, Note_off_c, 0, 65, 0
2, 57580, Note_off_c, 0, 69, 0
2, 57608, Note_on_c, 0, 53, 84
2, 57748, Note_on_c, 0, 43, 66
2, 57810, Note_on_c, 0, 53, 0
2, 57878, Note_on_c, 0, 43, 0
2, 58022, Note_on_c, 0, 55, 100
2, 58156, Control_c, 0, 64, 0
2, 58160, Note_on_c, 0, 36, 71
2, 58236, Note_on_c, 0, 36, 0
2, 58360, Control_c, 0, 64, 127
2, 58548, Note_on_c, 0, 52, 75
2, 58554, Control_c, 0, 64, 0
2, 58572, Note_off_c, 0, 52, 0
2, 58796, Note_on_c, 0, 57, 119
2, 58822, Control_c, 0, 64, 127
2, 58846, Note_off_c, 0, 55, 0
2, 58916, Note_on_c, 0, 31, 65
2, 58974, Note_on_c, 0, 58, 99
2, 58976, Control_c, 0, 64, 0
2, 59004, Note_off_c, 0, 57, 0
2, 59018, Note_off_c, 0, 31, 0
2, 59036, Note_off_c, 0, 58, 0
2, 59036, Note_on_c, 0, 59, 70
2, 59346, Note_on_c, 0, 53, 70
2, 59372, Note_on_c, 0, 53, 0
2, 59528, Control_c, 0, 64, 127
2, 59536, Note_off_c, 0, 59, 0
2, 59556, Note_on_c, 0, 57, 70
2, 59590, Note_on_c, 0, 57, 0
2, 59602, Note_on_c, 0, 59, 35
2, 59658, Note_on_c, 0, 57, 59
2, 59672, Note_on_c, 0, 59, 0
2, 59692, Control_c, 0, 64, 0
2, 59728, Note_on_c, 0, 36, 47
2, 59732, Note_on_c, 0, 57, 0
2, 59744, Note_on_c, 0, 55, 84
2, 59920, Note_on_c, 0, 36, 0
2, 59928, Control_c, 0, 64, 127
2, 59948, Note_off_c, 0, 55, 0
2, 59968, Note_on_c, 0, 60, 80
2, 60070, Control_c, 0, 64, 0
2, 60076, Note_off_c, 0, 60, 0
2, 60102, Note_on_c, 0, 64, 71
2, 60176, Note_on_c, 0, 64, 0
2, 60222, Note_on_c, 0, 67, 72
2, 60308, Control_c, 0, 64, 127
2, 60312, Note_off_c, 0, 67, 0
2, 60324, Note_on_c, 0, 66, 76
2, 60444, Note_on_c, 0, 66, 0
2, 60456, Note_on_c, 0, 63, 64
2, 60460, Note_on_c, 0, 51, 49
2, 60462, Control_c, 0, 64, 0
2, 60544, Note_off_c, 0, 63, 0
2, 60564, Note_on_c, 0, 60, 61
2, 60664, Note_on_c, 0, 60, 0
2, 60690, Note_on_c, 0, 51, 0
2, 60690, Note_on_c, 0, 57, 49
2, 60696, Control_c, 0, 64, 127
2, 60736, Note_off_c, 0, 57, 0
2, 60816, Note_on_c, 0, 54, 63
2, 60824, Note_on_c, 0, 39, 61
2, 60850, Control_c, 0, 64, 0
2, 60884, Note_off_c, 0, 54, 0
2, 60910, Note_off_c, 0, 39, 0
2, 60934, Note_on_c, 0, 51, 64
2, 60974, Control_c, 0, 64, 127
2, 61004, Note_off_c, 0, 51, 0
2, 61042, Note_on_c, 0, 48, 75
2, 61088, Note_on_c, 0, 48, 0
2, 61164, Note_on_c, 0, 38, 104
2, 61188, Control_c, 0, 64, 0
2, 61392, Control_c, 0, 64, 127
2, 61408, Note_on_c, 0, 65, 103
2, 61412, Note_on_c, 0, 38, 0
2, 61412, Note_on_c, 0, 62, 98
2, 61486, Note_on_c, 0, 65, 0
2, 61488, Note_on_c, 0, 62, 0
2, 61528, Note_on_c, 0, 64, 77
2, 61534, Note_on_c, 0, 61, 85
2, 61558, Control_c, 0, 64, 0
2, 61604, Note_off_c, 0, 64, 0
2, 61612, Note_off_c, 0, 61, 0
2, 61642, Note_on_c, 0, 65, 71
2, 61646, Note_on_c, 0, 62, 75
2, 61686, Note_on_c, 0, 62, 0
2, 61736, Note_on_c, 0, 65, 0
2, 61760, Note_on_c, 0, 64, 69
2, 61764, Note_on_c, 0, 61, 78
2, 61802, Control_c, 0, 64, 127
2, 61846, Note_off_c, 0, 64, 0
2, 61866, Note_off_c, 0, 61, 0
2, 61894, Note_on_c, 0, 65, 72
2, 61904, Note_on_c, 0, 62, 75
2, 61904, Control_c, 0, 64, 0
2, 61910, Note_on_c, 0, 43, 47
2, 62046, Note_on_c, 0, 62, 0
2, 62090, Control_c, 0, 64, 127
2, 62128, Note_off_c, 0, 65, 0
2, 62132, Control_c, 0, 64, 0
2, 62136, Note_on_c, 0, 59, 73
2, 62136, Note_on_c, 0, 62, 92
2, 62136, Note_on_c, 0, 31, 75
2, 62168, Note_on_c, 0, 59, 0
2, 62178, Note_on_c, 0, 31, 0
2, 62200, Note_on_c, 0, 62, 0
2, 62220, Note_on_c, 0, 43, 0
2, 62518, Note_on_c, 0, 61, 88
2, 62520, Note_on_c, 0, 67, 92
2, 62524, Note_on_c, 0, 76, 103
2, 62582, Control_c, 0, 64, 127
2, 62596, Note_off_c, 0, 67, 0
2, 62652, Note_on_c, 0, 62, 70
2, 62654, Note_on_c, 0, 61, 0
2, 62658, Note_on_c, 0, 77, 95
2, 62666, Note_on_c, 0, 76, 0
2, 62670, Note_on_c, 0, 69, 74
2, 62674, Control_c, 0, 64, 0
2, 62742, Note_off_c, 0, 69, 0
2, 62764, Note_off_c, 0, 62, 0
2, 62780, Note_on_c, 0, 61, 73
2, 62782, Note_on_c, 0, 76, 81
2, 62790, Note_on_c, 0, 77, 0
2, 62860, Note_on_c, 0, 76, 0
2, 62874, Note_on_c, 0, 61, 0
2, 62890, Note_on_c, 0, 77, 93
2, 62900, Note_on_c, 0, 62, 67
2, 62948, Note_on_c, 0, 62, 0
2, 62988, Note_on_c, 0, 77, 0
2, 63002, Note_on_c, 0, 61, 68
2, 63012, Note_on_c, 0, 76, 79
2, 63014, Note_on_c, 0, 69, 33
2, 63060, Note_on_c, 0, 69, 0
2, 63068, Note_on_c, 0, 76, 0
2, 63090, Note_on_c, 0, 61, 0
2, 63120, Note_on_c, 0, 77, 63
2, 63134, Note_on_c, 0, 62, 48
2, 63164, Note_on_c, 0, 77, 0
2, 63176, Note_on_c, 0, 62, 0
2, 63220, Note_on_c, 0, 61, 69
2, 63236, Note_on_c, 0, 76, 62
2, 63288, Control_c, 0, 64, 127
2, 63318, Note_off_c, 0, 61, 0
2, 63322, Note_off_c, 0, 76, 0
2, 63340, Control_c, 0, 64, 0
2, 63366, Note_on_c, 0, 77, 50
2, 63370, Note_on_c, 0, 62, 49
2, 63372, Note_on_c, 0, 72, 45
2, 63386, Note_on_c, 0, 69, 32
2, 63454, Note_on_c, 0, 77, 0
2, 63464, Note_on_c, 0, 69, 0
2, 63464, Note_on_c, 0, 72, 0
2, 63514, Control_c, 0, 64, 127
2, 63596, Note_off_c, 0, 62, 0
2, 63620, Note_on_c, 0, 74, 56
2, 63620, Note_on_c, 0, 69, 50
2, 63628, Note_on_c, 0, 59, 38
2, 63632, Note_on_c, 0, 55, 41
2, 63636, Note_on_c, 0, 65, 40
2, 63636, Control_c, 0, 64, 0
2, 63770, Note_off_c, 0, 59, 0
2, 63784, Note_off_c, 0, 55, 0
2, 63804, Note_off_c, 0, 74, 0
2, 63806, Note_off_c, 0, 65, 0
2, 63840, Control_c, 0, 64, 127
2, 63844, Note_off_c, 0, 69, 0
2, 63994, Note_on_c, 0, 50, 75
2, 64056, Control_c, 0, 64, 0
2, 64144, Note_on_c, 0, 38, 81
2, 64228, Note_on_c, 0, 38, 0
2, 64272, Control_c, 0, 64, 127
2, 64292, Note_off_c, 0, 50, 0
2, 64398, Note_on_c, 0, 62, 117
2, 64506, Control_c, 0, 64, 0
2, 64522, Note_on_c, 0, 57, 88
2, 64544, Note_on_c, 0, 53, 57
2, 64548, Note_on_c, 0, 57, 0
2, 64572, Note_on_c, 0, 53, 0
2, 64750, Note_on_c, 0, 62, 0
2, 64764, Note_on_c, 0, 61, 100
2, 64784, Control_c, 0, 64, 127
2, 64896, Control_c, 0, 64, 0
2, 64904, Note_off_c, 0, 61, 0
2, 64918, Note_on_c, 0, 31, 56
2, 64918, Note_on_c, 0, 62, 92
2, 64998, Note_on_c, 0, 31, 0
2, 65018, Control_c, 0, 64, 127
2, 65064, Note_off_c, 0, 62, 0
2, 65082, Note_on_c, 0, 59, 67
2, 65124, Note_on_c, 0, 59, 0
2, 65142, Note_on_c, 0, 62, 68
2, 65190, Note_on_c, 0, 62, 0
2, 65196, Note_on_c, 0, 59, 54
2, 65242, Note_on_c, 0, 59, 0
2, 65292, Note_on_c, 0, 55, 81
2, 65296, Note_on_c, 0, 53, 65
2, 65306, Control_c, 0, 64, 0
2, 65322, Note_off_c, 0, 53, 0
2, 65484, Note_off_c, 0, 55, 0
2, 65502, Control_c, 0, 64, 127
2, 65530, Note_on_c, 0, 56, 66
2, 65634, Note_on_c, 0, 56, 0
2, 65634, Control_c, 0, 64, 0
2, 65656, Note_on_c, 0, 38, 51
2, 65672, Note_on_c, 0, 57, 61
2, 65734, Note_on_c, 0, 38, 0
2, 65746, Control_c, 0, 64, 127
2, 65754, Note_off_c, 0, 57, 0
2, 65788, Note_on_c, 0, 60, 64
2, 65842, Note_on_c, 0, 60, 0
2, 65900, Note_on_c, 0, 65, 72
2, 66018, Note_on_c, 0, 69, 75
2, 66022, Note_on_c, 0, 53, 57
2, 66024, Note_on_c, 0, 65, 0
2, 66044, Control_c, 0, 64, 0
2, 66054, Note_off_c, 0, 53, 0
2, 66084, Note_off_c, 0, 69, 0
2, 66144, Note_on_c, 0, 57, 57
2, 66176, Control_c, 0, 64, 127
2, 66210, Note_off_c, 0, 57, 0
2, 66252, Note_on_c, 0, 58, 85
2, 66344, Note_on_c, 0, 58, 0
2, 66376, Note_on_c, 0, 59, 69
2, 66382, Control_c, 0, 64, 0
2, 66384, Note_on_c, 0, 43, 49
2, 66476, Note_on_c, 0, 59, 0
2, 66506, Note_on_c, 0, 64, 76
2, 66534, Control_c, 0, 64, 127
2, 66572, Note_off_c, 0, 64, 0
2, 66614, Note_on_c, 0, 67, 83
2, 66710, Note_on_c, 0, 67, 0
2, 66732, Note_on_c, 0, 43, 0
2, 66738, Note_on_c, 0, 63, 74
2, 66744, Note_on_c, 0, 71, 65
2, 66754, Note_on_c, 0, 53, 61
2, 66760, Control_c, 0, 64, 0
2, 66852, Note_off_c, 0, 53, 0
2, 66934, Control_c, 0, 64, 127
2, 66970, Note_off_c, 0, 71, 0
2, 66996, Note_on_c, 0, 43, 67
2, 67090, Note_on_c, 0, 63, 0
2, 67092, Note_on_c, 0, 43, 0
2, 67138, Note_on_c, 0, 69, 85
2, 67138, Note_on_c, 0, 64, 75
2, 67138, Control_c, 0, 64, 0
2, 67148, Note_on_c, 0, 60, 63
2, 67148, Note_on_c, 0, 36, 63
2, 67222, Note_on_c, 0, 36, 0
2, 67294, Control_c, 0, 64, 127
2, 67310, Note_off_c, 0, 60, 0
2, 67340, Note_off_c, 0, 64, 0
2, 67360, Note_off_c, 0, 69, 0
2, 67380, Note_on_c, 0, 67, 76
2, 67484, Note_on_c, 0, 67, 0
2, 67520, Note_on_c, 0, 69, 67
2, 67526, Note_on_c, 0, 60, 54
2, 67526, Note_on_c, 0, 55, 54
2, 67528, Note_on_c, 0, 64, 63
2, 67530, Control_c, 0, 64, 0
2, 67538, Note_on_c, 0, 57, 58
2, 67562, Note_on_c, 0, 55, 0
2, 67568, Note_on_c, 0, 57, 0
2, 67604, Note_on_c, 0, 60, 0
2, 67618, Note_on_c, 0, 64, 0
2, 67646, Note_on_c, 0, 69, 0
2, 67672, Control_c, 0, 64, 127
2, 67784, Note_on_c, 0, 79, 84
2, 67908, Control_c, 0, 64, 0
2, 67920, Note_off_c, 0, 79, 0
2, 67924, Note_on_c, 0, 81, 76
2, 67924, Note_on_c, 0, 43, 42
2, 67930, Note_on_c, 0, 76, 73
2, 67932, Note_on_c, 0, 52, 41
2, 67934, Note_on_c, 0, 72, 47
2, 68020, Note_on_c, 0, 43, 0
2, 68052, Note_on_c, 0, 52, 0
2, 68072, Control_c, 0, 64, 127
2, 68092, Note_off_c, 0, 76, 0
2, 68108, Note_off_c, 0, 72, 0
2, 68118, Note_off_c, 0, 81, 0
2, 68168, Note_on_c, 0, 79, 75
2, 68288, Control_c, 0, 64, 0
2, 68292, Note_on_c, 0, 55, 55
2, 68292, Note_on_c, 0, 64, 55
2, 68308, Note_on_c, 0, 76, 83
2, 68308, Note_on_c, 0, 60, 65
2, 68330, Note_on_c, 0, 79, 0
2, 68340, Note_on_c, 0, 60, 0
2, 68358, Note_on_c, 0, 55, 0
2, 68372, Note_on_c, 0, 64, 0
2, 68420, Control_c, 0, 64, 127
2, 68508, Note_off_c, 0, 76, 0
2, 68530, Note_on_c, 0, 72, 79
2, 68558, Note_on_c, 0, 72, 0
2, 68670, Note_on_c, 0, 93, 115
2, 68674, Note_on_c, 0, 72, 58
2, 68676, Note_on_c, 0, 88, 93
2, 68678, Note_on_c, 0, 64, 67
2, 68680, Note_on_c, 0, 84, 65
2, 68692, Note_on_c, 0, 69, 66
2, 68694, Note_on_c, 0, 67, 69
2, 68696, Control_c, 0, 64, 0
2, 68700, Note_on_c, 0, 89, 24
2, 68734, Note_on_c, 0, 89, 0
2, 68800, Note_on_c, 0, 67, 0
2, 68804, Note_on_c, 0, 69, 0
2, 68810, Note_on_c, 0, 64, 0
2, 68842, Control_c, 0, 64, 127
2, 68852, Note_off_c, 0, 88, 0
2, 68854, Note_off_c, 0, 72, 0
2, 68876, Note_off_c, 0, 93, 0
2, 68878, Note_off_c, 0, 84, 0
2, 68928, Note_on_c, 0, 91, 71
2, 68968, Note_on_c, 0, 91, 0
2, 69050, Note_on_c, 0, 67, 73
2, 69052, Note_on_c, 0, 93, 102
2, 69054, Note_on_c, 0, 76, 83
2, 69060, Note_on_c, 0, 72, 64
2, 69060, Note_on_c, 0, 84, 75
2, 69066, Control_c, 0, 64, 0
2, 69074, Note_on_c, 0, 69, 66
2, 69136, Note_on_c, 0, 67, 0
2, 69148, Note_on_c, 0, 72, 0
2, 69158, Note_on_c, 0, 69, 0
2, 69188, Control_c, 0, 64, 127
2, 69192, Note_off_c, 0, 76, 0
2, 69240, Note_off_c, 0, 84, 0
2, 69288, Note_off_c, 0, 93, 0
2, 69296, Note_on_c, 0, 91, 83
2, 69324, Note_on_c, 0, 91, 0
2, 69426, Note_on_c, 0, 105, 110
2, 69430, Note_on_c, 0, 96, 72
2, 69432, Note_on_c, 0, 79, 79
2, 69432, Note_on_c, 0, 100, 83
2, 69440, Note_on_c, 0, 69, 61
2, 69440, Note_on_c, 0, 72, 56
2, 69444, Note_on_c, 0, 76, 89
2, 69446, Control_c, 0, 64, 0
2, 69554, Note_off_c, 0, 76, 0
2, 69554, Note_off_c, 0, 79, 0
2, 69588, Control_c, 0, 64, 127
2, 69592, Note_off_c, 0, 72, 0
2, 69596, Note_off_c, 0, 69, 0
2, 69600, Note_off_c, 0, 100, 0
2, 69622, Note_off_c, 0, 96, 0
2, 69624, Note_off_c, 0, 105, 0
2, 69666, Note_on_c, 0, 103, 81
2, 69752, Note_on_c, 0, 103, 0
2, 69788, Note_on_c, 0, 67, 65
2, 69790, Note_on_c, 0, 76, 72
2, 69796, Note_on_c, 0, 100, 89
2, 69802, Note_on_c, 0, 72, 64
2, 69802, Note_on_c, 0, 69, 64
2, 69826, Note_on_c, 0, 76, 0
2, 69836, Note_on_c, 0, 72, 0
2, 69846, Note_on_c, 0, 69, 0
2, 69856, Note_on_c, 0, 67, 0
2, 69876, Note_on_c, 0, 100, 0
2, 70030, Note_on_c, 0, 96, 94
2, 70056, Note_on_c, 0, 96, 0
2, 70160, Note_on_c, 0, 57, 101
2, 70162, Control_c, 0, 64, 0
2, 70166, Note_on_c, 0, 67, 101
2, 70172, Note_on_c, 0, 61, 91
2, 70220, Note_on_c, 0, 57, 0
2, 70244, Note_on_c, 0, 61, 0
2, 70244, Note_on_c, 0, 67, 0
2, 70296, Control_c, 0, 64, 127
2, 70420, Note_on_c, 0, 85, 110
2, 70420, Note_on_c, 0, 93, 119
2, 70424, Note_on_c, 0, 81, 110
2, 70428, Note_on_c, 0, 67, 96
2, 70428, Note_on_c, 0, 76, 108
2, 70432, Note_on_c, 0, 69, 93
2, 70436, Note_on_c, 0, 73, 90
2, 70450, Control_c, 0, 64, 0
2, 70684, Control_c, 0, 64, 127
2, 70758, Note_off_c, 0, 76, 0
2, 70762, Note_off_c, 0, 69, 0
2, 70770, Note_off_c, 0, 93, 0
2, 70772, Note_off_c, 0, 73, 0
2, 70776, Note_off_c, 0, 67, 0
2, 70806, Note_off_c, 0, 81, 0
2, 70834, Note_off_c, 0, 85, 0
2, 70958, Note_on_c, 0, 92, 103
2, 70960, Note_on_c, 0, 80, 92
2, 70962, Note_on_c, 0, 74, 81
2, 70962, Note_on_c, 0, 86, 97
2, 70974, Note_on_c, 0, 68, 66
2, 70974, Note_on_c, 0, 70, 75
2, 70984, Note_on_c, 0, 65, 49
2, 71000, Control_c, 0, 64, 0
2, 71128, Note_off_c, 0, 65, 0
2, 71128, Note_off_c, 0, 68, 0
2, 71136, Control_c, 0, 64, 127
2, 71140, Note_off_c, 0, 74, 0
2, 71150, Note_off_c, 0, 70, 0
2, 71156, Note_off_c, 0, 80, 0
2, 71164, Note_off_c, 0, 86, 0
2, 71228, Note_off_c, 0, 92, 0
2, 71338, Note_on_c, 0, 93, 105
2, 71340, Note_on_c, 0, 85, 84
2, 71346, Note_on_c, 0, 81, 78
2, 71346, Note_on_c, 0, 73, 69
2, 71360, Note_on_c, 0, 64, 56
2, 71370, Control_c, 0, 64, 0
2, 71374, Note_on_c, 0, 69, 47
2, 71380, Note_on_c, 0, 67, 45
2, 71512, Note_on_c, 0, 69, 0
2, 71520, Note_on_c, 0, 64, 0
2, 71520, Note_on_c, 0, 93, 0
2, 71528, Note_on_c, 0, 81, 0
2, 71528, Control_c, 0, 64, 127
2, 71536, Note_off_c, 0, 67, 0
2, 71542, Note_off_c, 0, 73, 0
2, 71590, Note_off_c, 0, 85, 0
2, 71736, Note_on_c, 0, 94, 88
2, 71736, Note_on_c, 0, 70, 59
2, 71736, Note_on_c, 0, 86, 76
2, 71736, Note_on_c, 0, 82, 72
2, 71754, Note_on_c, 0, 62, 59
2, 71754, Note_on_c, 0, 68, 69
2, 71760, Control_c, 0, 64, 0
2, 71924, Control_c, 0, 64, 127
2, 71932, Note_off_c, 0, 62, 0
2, 71936, Note_off_c, 0, 68, 0
2, 71952, Note_off_c, 0, 82, 0
2, 71952, Note_off_c, 0, 86, 0
2, 71962, Note_off_c, 0, 94, 0
2, 71964, Note_off_c, 0, 70, 0
2, 72118, Note_on_c, 0, 93, 75
2, 72122, Note_on_c, 0, 85, 53
2, 72124, Note_on_c, 0, 61, 56
2, 72126, Note_on_c, 0, 81, 58
2, 72128, Control_c, 0, 64, 0
2, 72130, Note_on_c, 0, 69, 42
2, 72136, Note_on_c, 0, 67, 53
2, 72280, Note_on_c, 0, 67, 0
2, 72288, Note_on_c, 0, 69, 0
2, 72302, Note_on_c, 0, 93, 0
2, 72302, Control_c, 0, 64, 127
2, 72310, Note_off_c, 0, 61, 0
2, 72320, Note_off_c, 0, 81, 0
2, 72360, Note_off_c, 0, 85, 0
2, 72510, Note_on_c, 0, 68, 44
2, 72512, Note_on_c, 0, 91, 52
2, 72520, Note_on_c, 0, 79, 32
2, 72524, Note_on_c, 0, 86, 54
2, 72526, Note_on_c, 0, 58, 47
2, 72528, Control_c, 0, 64, 0
2, 72546, Note_on_c, 0, 64, 44
2, 72578, Note_on_c, 0, 62, 12
2, 72668, Note_on_c, 0, 91, 0
2, 72676, Note_on_c, 0, 86, 0
2, 72682, Control_c, 0, 64, 127
2, 72688, Note_off_c, 0, 62, 0
2, 72700, Note_off_c, 0, 64, 0
2, 72700, Note_off_c, 0, 79, 0
2, 72706, Note_off_c, 0, 58, 0
2, 72716, Note_off_c, 0, 68, 0
2, 72900, Note_on_c, 0, 67, 60
2, 72902, Note_on_c, 0, 85, 43
2, 72904, Note_on_c, 0, 76, 37
2, 72910, Note_on_c, 0, 79, 44
2, 72912, Note_on_c, 0, 57, 44
2, 72916, Control_c, 0, 64, 0
2, 72920, Note_on_c, 0, 61, 52
2, 72984, Note_on_c, 0, 67, 0
2, 73018, Note_on_c, 0, 61, 0
2, 73028, Note_on_c, 0, 57, 0
2, 73066, Control_c, 0, 64, 127
2, 73102, Note_off_c, 0, 79, 0
2, 73108, Note_off_c, 0, 85, 0
2, 73156, Note_on_c, 0, 38, 74
2, 73218, Note_on_c, 0, 38, 0
2, 73220, Note_on_c, 0, 45, 49
2, 73272, Note_on_c, 0, 76, 0
2, 73276, Control_c, 0, 64, 0
2, 73296, Note_on_c, 0, 54, 97
2, 73412, Note_on_c, 0, 45, 0
2, 73428, Control_c, 0, 64, 127
2, 73468, Note_off_c, 0, 54, 0
2, 73540, Note_on_c, 0, 88, 98
2, 73546, Note_on_c, 0, 84, 86
2, 73582, Note_on_c, 0, 88, 0
2, 73634, Note_on_c, 0, 84, 0
2, 73644, Note_on_c, 0, 64, 75
2, 73656, Note_on_c, 0, 60, 70
2, 73656, Control_c, 0, 64, 0
2, 73668, Note_off_c, 0, 64, 0
2, 73668, Note_on_c, 0, 54, 49
2, 73670, Note_on_c, 0, 76, 86
2, 73684, Note_on_c, 0, 60, 0
2, 73702, Note_on_c, 0, 54, 0
2, 73774, Note_on_c, 0, 76, 0
2, 73780, Note_on_c, 0, 75, 74
2, 73820, Control_c, 0, 64, 127
2, 73880, Note_off_c, 0, 75, 0
2, 73900, Note_on_c, 0, 74, 78
2, 73994, Control_c, 0, 64, 0
2, 74008, Note_off_c, 0, 74, 0
2, 74012, Note_on_c, 0, 86, 82
2, 74014, Note_on_c, 0, 33, 60
2, 74038, Note_on_c, 0, 83, 44
2, 74058, Note_on_c, 0, 33, 0
2, 74092, Note_on_c, 0, 86, 0
2, 74120, Note_on_c, 0, 83, 0
2, 74148, Note_on_c, 0, 74, 73
2, 74168, Control_c, 0, 64, 127
2, 74242, Note_off_c, 0, 74, 0
2, 74258, Note_on_c, 0, 73, 63
2, 74352, Note_on_c, 0, 73, 0
2, 74362, Control_c, 0, 64, 0
2, 74370, Note_on_c, 0, 64, 66
2, 74374, Note_on_c, 0, 54, 59
2, 74376, Note_on_c, 0, 72, 78
2, 74382, Note_on_c, 0, 60, 58
2, 74398, Note_on_c, 0, 64, 0
2, 74412, Note_on_c, 0, 60, 0
2, 74426, Note_on_c, 0, 54, 0
2, 74466, Note_on_c, 0, 72, 0
2, 74504, Note_on_c, 0, 84, 60
2, 74520, Note_on_c, 0, 81, 42
2, 74536, Note_on_c, 0, 84, 0
2, 74536, Control_c, 0, 64, 127
2, 74558, Note_off_c, 0, 81, 0
2, 74622, Note_on_c, 0, 71, 65
2, 74680, Note_on_c, 0, 38, 73
2, 74684, Note_on_c, 0, 71, 0
2, 74704, Note_on_c, 0, 38, 0
2, 74738, Note_on_c, 0, 69, 85
2, 74740, Control_c, 0, 64, 0
2, 74748, Note_on_c, 0, 45, 38
2, 74770, Note_on_c, 0, 54, 77
2, 74844, Note_on_c, 0, 69, 0
2, 74856, Note_on_c, 0, 45, 0
2, 74866, Note_on_c, 0, 81, 70
2, 74872, Note_on_c, 0, 78, 66
2, 74884, Control_c, 0, 64, 127
2, 74910, Note_off_c, 0, 54, 0
2, 74914, Note_off_c, 0, 81, 0
2, 74920, Note_off_c, 0, 78, 0
2, 74986, Note_on_c, 0, 69, 65
2, 75020, Note_on_c, 0, 69, 0
2, 75106, Note_on_c, 0, 64, 59
2, 75110, Note_on_c, 0, 67, 69
2, 75114, Note_on_c, 0, 60, 53
2, 75124, Note_on_c, 0, 54, 62
2, 75130, Control_c, 0, 64, 0
2, 75134, Note_off_c, 0, 64, 0
2, 75148, Note_off_c, 0, 60, 0
2, 75152, Note_off_c, 0, 54, 0
2, 75314, Control_c, 0, 64, 127
2, 75356, Note_on_c, 0, 79, 65
2, 75360, Note_on_c, 0, 76, 75
2, 75386, Note_on_c, 0, 76, 0
2, 75386, Note_on_c, 0, 79, 0
2, 75410, Note_on_c, 0, 67, 0
2, 75504, Note_on_c, 0, 66, 55
2, 75506, Note_on_c, 0, 54, 35
2, 75534, Note_on_c, 0, 45, 32
2, 75540, Control_c, 0, 64, 0
2, 75636, Note_off_c, 0, 45, 0
2, 75674, Control_c, 0, 64, 127
2, 75680, Note_off_c, 0, 54, 0
2, 75810, Note_off_c, 0, 66, 0
2, 75884, Note_on_c, 0, 60, 57
2, 75888, Note_on_c, 0, 64, 67
2, 75888, Control_c, 0, 64, 0
2, 75896, Note_on_c, 0, 54, 48
2, 75980, Note_on_c, 0, 60, 0
2, 76000, Note_on_c, 0, 54, 0
2, 76042, Control_c, 0, 64, 127
2, 76138, Note_on_c, 0, 76, 55
2, 76140, Note_on_c, 0, 72, 56
2, 76166, Note_on_c, 0, 76, 0
2, 76172, Note_on_c, 0, 72, 0
2, 76200, Note_on_c, 0, 64, 0
2, 76270, Note_on_c, 0, 62, 47
2, 76272, Note_on_c, 0, 45, 51
2, 76276, Note_on_c, 0, 38, 49
2, 76278, Control_c, 0, 64, 0
2, 76406, Note_off_c, 0, 38, 0
2, 76430, Note_off_c, 0, 45, 0
2, 76452, Control_c, 0, 64, 127
2, 76522, Note_on_c, 0, 74, 102
2, 76524, Note_on_c, 0, 66, 88
2, 76646, Control_c, 0, 64, 0
2, 76652, Note_on_c, 0, 60, 81
2, 76652, Note_on_c, 0, 54, 66
2, 76704, Note_on_c, 0, 60, 0
2, 76738, Note_on_c, 0, 54, 0
2, 76772, Note_on_c, 0, 74, 0
2, 76790, Control_c, 0, 64, 127
2, 76832, Note_off_c, 0, 66, 0
2, 76844, Note_off_c, 0, 62, 0
2, 77058, Note_on_c, 0, 66, 103
2, 77060, Note_on_c, 0, 60, 100
2, 77064, Note_on_c, 0, 62, 106
2, 77068, Note_on_c, 0, 54, 82
2, 77074, Note_on_c, 0, 45, 77
2, 77118, Control_c, 0, 64, 0
2, 77232, Note_off_c, 0, 62, 0
2, 77234, Note_off_c, 0, 45, 0
2, 77250, Control_c, 0, 64, 127
2, 77264, Note_off_c, 0, 60, 0
2, 77278, Note_off_c, 0, 66, 0
2, 77300, Note_off_c, 0, 54, 0
2, 77464, Note_on_c, 0, 55, 63
2, 77464, Note_on_c, 0, 69, 85
2, 77464, Note_on_c, 0, 65, 83
2, 77468, Note_on_c, 0, 46, 66
2, 77468, Control_c, 0, 64, 0
2, 77472, Note_on_c, 0, 61, 69
2, 77628, Control_c, 0, 64, 127
2, 77630, Note_off_c, 0, 65, 0
2, 77630, Note_off_c, 0, 69, 0
2, 77658, Note_off_c, 0, 61, 0
2, 77660, Note_off_c, 0, 55, 0
2, 77680, Note_off_c, 0, 46, 0
2, 77854, Note_on_c, 0, 74, 74
2, 77858, Note_on_c, 0, 66, 46
2, 77860, Note_on_c, 0, 54, 52
2, 77864, Note_on_c, 0, 62, 44
2, 77868, Note_on_c, 0, 60, 54
2, 77876, Control_c, 0, 64, 0
2, 77882, Note_on_c, 0, 45, 55
2, 78016, Note_on_c, 0, 74, 0
2, 78018, Note_on_c, 0, 45, 0
2, 78038, Control_c, 0, 64, 127
2, 78054, Note_off_c, 0, 60, 0
2, 78056, Note_off_c, 0, 62, 0
2, 78072, Note_off_c, 0, 66, 0
2, 78074, Note_off_c, 0, 54, 0
2, 78244, Note_on_c, 0, 71, 50
2, 78248, Note_on_c, 0, 56, 45
2, 78252, Note_on_c, 0, 62, 42
2, 78252, Note_on_c, 0, 68, 58
2, 78254, Note_on_c, 0, 65, 47
2, 78274, Note_on_c, 0, 47, 24
2, 78276, Control_c, 0, 64, 0
2, 78450, Note_off_c, 0, 47, 0
2, 78460, Control_c, 0, 64, 127
2, 78496, Note_off_c, 0, 56, 0
2, 78500, Note_off_c, 0, 65, 0
2, 78504, Note_off_c, 0, 62, 0
2, 78508, Note_off_c, 0, 68, 0
2, 78640, Note_on_c, 0, 64, 56
2, 78642, Note_on_c, 0, 57, 53
2, 78648, Note_on_c, 0, 48, 42
2, 78660, Note_on_c, 0, 60, 43
2, 78684, Control_c, 0, 64, 0
2, 78838, Note_off_c, 0, 48, 0
2, 78858, Control_c, 0, 64, 127
2, 78872, Note_off_c, 0, 64, 0
2, 78884, Note_off_c, 0, 60, 0
2, 79010, Note_off_c, 0, 57, 0
2, 79030, Note_on_c, 0, 66, 46
2, 79034, Control_c, 0, 64, 0
2, 79038, Note_on_c, 0, 60, 36
2, 79038, Note_on_c, 0, 63, 46
2, 79038, Note_on_c, 0, 54, 47
2, 79048, Note_on_c, 0, 50, 38
2, 79172, Note_on_c, 0, 54, 0
2, 79176, Note_on_c, 0, 50, 0
2, 79208, Control_c, 0, 64, 127
2, 79280, Note_off_c, 0, 71, 0
2, 79292, Note_off_c, 0, 66, 0
2, 79316, Note_off_c, 0, 60, 0
2, 79332, Note_off_c, 0, 63, 0
2, 79422, Control_c, 0, 64, 0
2, 79424, Note_on_c, 0, 43, 73
2, 79424, Note_on_c, 0, 53, 78
2, 79502, Note_on_c, 0, 43, 0
2, 79542, Note_on_c, 0, 53, 0
2, 79566, Control_c, 0, 64, 127
2, 79698, Note_on_c, 0, 69, 121
2, 79700, Note_on_c, 0, 65, 111
2, 79704, Note_on_c, 0, 62, 106
2, 79704, Note_on_c, 0, 60, 94
2, 79750, Control_c, 0, 64, 0
2, 79922, Note_off_c, 0, 65, 0
2, 79948, Note_on_c, 0, 67, 76
2, 79948, Note_on_c, 0, 64, 75
2, 79956, Note_on_c, 0, 69, 0
2, 79996, Control_c, 0, 64, 127
2, 79998, Note_off_c, 0, 64, 0
2, 79998, Note_off_c, 0, 62, 0
2, 80004, Note_on_c, 0, 69, 77
2, 80020, Note_on_c, 0, 67, 0
2, 80022, Note_on_c, 0, 65, 80
2, 80082, Note_on_c, 0, 65, 0
2, 80098, Note_on_c, 0, 67, 68
2, 80106, Note_on_c, 0, 64, 68
2, 80120, Note_on_c, 0, 60, 0
2, 80122, Note_on_c, 0, 69, 0
2, 80132, Note_on_c, 0, 64, 0
2, 80184, Note_on_c, 0, 69, 93
2, 80184, Note_on_c, 0, 64, 85
2, 80188, Note_on_c, 0, 61, 93
2, 80192, Note_on_c, 0, 67, 0
2, 80196, Note_on_c, 0, 58, 92
2, 80212, Control_c, 0, 64, 0
2, 80346, Note_off_c, 0, 64, 0
2, 80358, Note_off_c, 0, 69, 0
2, 80372, Note_off_c, 0, 61, 0
2, 80374, Note_off_c, 0, 58, 0
2, 80452, Note_on_c, 0, 61, 110
2, 80452, Note_on_c, 0, 69, 110
2, 80456, Note_on_c, 0, 64, 112
2, 80458, Note_on_c, 0, 58, 111
2, 80754, Control_c, 0, 64, 127
2, 80758, Note_off_c, 0, 61, 0
2, 80768, Note_off_c, 0, 64, 0
2, 80770, Note_off_c, 0, 58, 0
2, 80814, Note_off_c, 0, 69, 0
2, 80842, Note_on_c, 0, 61, 76
2, 80856, Note_on_c, 0, 64, 93
2, 80858, Note_on_c, 0, 58, 58
2, 80900, Note_on_c, 0, 58, 0
2, 80910, Note_on_c, 0, 64, 0
2, 80930, Note_on_c, 0, 61, 0
2, 80992, Note_on_c, 0, 67, 109
2, 80994, Note_on_c, 0, 65, 108
2, 80994, Note_on_c, 0, 60, 113
2, 80994, Note_on_c, 0, 57, 110
2, 81012, Control_c, 0, 64, 0
2, 81200, Note_off_c, 0, 65, 0
2, 81220, Note_off_c, 0, 67, 0
2, 81252, Note_on_c, 0, 65, 84
2, 81256, Control_c, 0, 64, 127
2, 81306, Note_off_c, 0, 57, 0
2, 81306, Note_off_c, 0, 60, 0
2, 81324, Note_off_c, 0, 65, 0
2, 81396, Note_on_c, 0, 60, 114
2, 81396, Note_on_c, 0, 67, 109
2, 81396, Note_on_c, 0, 65, 103
2, 81400, Note_on_c, 0, 57, 108
2, 81432, Control_c, 0, 64, 0
2, 81584, Note_off_c, 0, 60, 0
2, 81604, Note_off_c, 0, 65, 0
2, 81612, Note_off_c, 0, 57, 0
2, 81616, Control_c, 0, 64, 127
2, 81636, Note_off_c, 0, 67, 0
2, 81670, Note_on_c, 0, 65, 87
2, 81714, Note_on_c, 0, 65, 0
2, 81816, Note_on_c, 0, 67, 110
2, 81818, Note_on_c, 0, 62, 105
2, 81818, Note_on_c, 0, 56, 84
2, 81820, Note_on_c, 0, 60, 93
2, 81820, Note_on_c, 0, 46, 81
2, 81830, Control_c, 0, 64, 0
2, 82012, Note_off_c, 0, 60, 0
2, 82028, Note_off_c, 0, 62, 0
2, 82046, Control_c, 0, 64, 127
2, 82050, Note_off_c, 0, 67, 0
2, 82064, Note_off_c, 0, 46, 0
2, 82080, Note_on_c, 0, 62, 97
2, 82080, Note_on_c, 0, 65, 111
2, 82082, Note_on_c, 0, 60, 92
2, 82108, Note_on_c, 0, 56, 0
2, 82188, Control_c, 0, 64, 0
2, 82198, Note_on_c, 0, 56, 111
2, 82208, Note_on_c, 0, 46, 106
2, 82240, Note_on_c, 0, 60, 0
2, 82254, Note_on_c, 0, 62, 0
2, 82266, Note_on_c, 0, 65, 0
2, 82290, Control_c, 0, 64, 127
2, 82296, Note_off_c, 0, 56, 0
2, 82318, Note_off_c, 0, 46, 0
2, 82462, Note_on_c, 0, 39, 80
2, 82462, Note_on_c, 0, 78, 103
2, 82462, Note_on_c, 0, 66, 98
2, 82490, Note_on_c, 0, 39, 0
2, 82538, Note_on_c, 0, 66, 0
2, 82564, Note_on_c, 0, 78, 0
2, 82608, Note_on_c, 0, 46, 67
2, 82612, Note_on_c, 0, 55, 73
2, 82612, Note_on_c, 0, 75, 73
2, 82612, Note_on_c, 0, 79, 89
2, 82616, Note_on_c, 0, 67, 75
2, 82618, Note_on_c, 0, 72, 71
2, 82620, Control_c, 0, 64, 0
2, 82752, Note_off_c, 0, 46, 0
2, 82774, Control_c, 0, 64, 127
2, 82778, Note_off_c, 0, 55, 0
2, 82812, Note_off_c, 0, 67, 0
2, 82890, Note_off_c, 0, 79, 0
2, 82892, Note_off_c, 0, 72, 0
2, 82924, Note_off_c, 0, 75, 0
2, 82998, Note_on_c, 0, 67, 91
2, 83000, Note_on_c, 0, 58, 83
2, 83004, Note_on_c, 0, 63, 70
2, 83008, Note_on_c, 0, 60, 71
2, 83036, Note_on_c, 0, 67, 0
2, 83054, Note_on_c, 0, 60, 0
2, 83070, Note_on_c, 0, 63, 0
2, 83084, Note_on_c, 0, 58, 0
2, 83268, Note_on_c, 0, 78, 109
2, 83270, Note_on_c, 0, 86, 112
2, 83270, Note_on_c, 0, 82, 111
2, 83272, Note_on_c, 0, 74, 111
2, 83324, Control_c, 0, 64, 0
2, 83392, Note_on_c, 0, 34, 100
2, 83476, Note_on_c, 0, 34, 0
2, 83500, Control_c, 0, 64, 127
2, 83532, Note_off_c, 0, 86, 0
2, 83556, Note_off_c, 0, 74, 0
2, 83596, Note_off_c, 0, 78, 0
2, 83604, Note_off_c, 0, 82, 0
2, 83654, Note_on_c, 0, 85, 101
2, 83654, Note_on_c, 0, 73, 100
2, 83724, Note_on_c, 0, 73, 0
2, 83740, Note_on_c, 0, 85, 0
2, 83784, Note_on_c, 0, 72, 94
2, 83784, Note_on_c, 0, 78, 89
2, 83784, Note_on_c, 0, 84, 98
2, 83786, Note_on_c, 0, 66, 97
2, 83786, Note_on_c, 0, 82, 96
2, 83790, Note_on_c, 0, 56, 79
2, 83792, Note_on_c, 0, 62, 92
2, 83796, Control_c, 0, 64, 0
2, 83864, Note_off_c, 0, 62, 0
2, 83864, Note_off_c, 0, 66, 0
2, 83880, Note_off_c, 0, 56, 0
2, 83940, Control_c, 0, 64, 127
2, 83958, Note_off_c, 0, 84, 0
2, 83966, Note_off_c, 0, 72, 0
2, 83968, Note_off_c, 0, 82, 0
2, 83982, Note_off_c, 0, 78, 0
2, 84034, Note_on_c, 0, 43, 83
2, 84052, Note_on_c, 0, 83, 93
2, 84054, Note_on_c, 0, 71, 88
2, 84074, Note_on_c, 0, 83, 0
2, 84090, Note_on_c, 0, 43, 0
2, 84102, Note_on_c, 0, 71, 0
2, 84182, Note_on_c, 0, 82, 117
2, 84184, Note_on_c, 0, 70, 115
2, 84186, Control_c, 0, 64, 0
2, 84190, Note_on_c, 0, 58, 109
2, 84230, Note_on_c, 0, 74, 19
2, 84278, Note_on_c, 0, 74, 0
2, 84298, Control_c, 0, 64, 127
2, 84304, Note_off_c, 0, 70, 0
2, 84312, Note_off_c, 0, 58, 0
2, 84322, Note_off_c, 0, 82, 0
2, 84436, Note_on_c, 0, 87, 109
2, 84438, Note_on_c, 0, 75, 108
2, 84454, Note_on_c, 0, 87, 0
2, 84476, Note_on_c, 0, 75, 0
2, 84546, Note_on_c, 0, 67, 107
2, 84550, Note_on_c, 0, 63, 90
2, 84552, Note_on_c, 0, 58, 94
2, 84556, Note_on_c, 0, 60, 87
2, 84570, Note_on_c, 0, 67, 0
2, 84584, Note_on_c, 0, 60, 0
2, 84586, Control_c, 0, 64, 0
2, 84610, Note_off_c, 0, 58, 0
2, 84610, Note_off_c, 0, 63, 0
2, 84678, Control_c, 0, 64, 127
2, 84808, Note_on_c, 0, 42, 67
2, 84812, Note_on_c, 0, 82, 109
2, 84814, Note_on_c, 0, 70, 107
2, 84848, Note_on_c, 0, 42, 0
2, 84888, Note_on_c, 0, 70, 0
2, 84902, Note_on_c, 0, 82, 0
2, 84932, Control_c, 0, 64, 0
2, 84944, Note_on_c, 0, 57, 80
2, 84950, Note_on_c, 0, 81, 85
2, 84950, Note_on_c, 0, 69, 85
2, 84950, Note_on_c, 0, 51, 72
2, 84958, Note_on_c, 0, 75, 71
2, 84960, Note_on_c, 0, 78, 64
2, 85024, Note_on_c, 0, 69, 0
2, 85048, Note_on_c, 0, 57, 0
2, 85048, Control_c, 0, 64, 127
2, 85052, Note_off_c, 0, 51, 0
2, 85064, Note_off_c, 0, 78, 0
2, 85064, Note_off_c, 0, 75, 0
2, 85068, Note_off_c, 0, 81, 0
2, 85204, Note_on_c, 0, 87, 78
2, 85206, Note_on_c, 0, 75, 78
2, 85228, Note_on_c, 0, 87, 0
2, 85244, Note_on_c, 0, 75, 0
2, 85332, Note_on_c, 0, 66, 59
2, 85340, Note_on_c, 0, 63, 56
2, 85350, Note_on_c, 0, 57, 38
2, 85362, Note_on_c, 0, 60, 27
2, 85368, Note_on_c, 0, 66, 0
2, 85376, Note_on_c, 0, 63, 0
2, 85388, Note_on_c, 0, 57, 0
2, 85408, Note_on_c, 0, 60, 0
2, 85600, Note_on_c, 0, 69, 79
2, 85600, Note_on_c, 0, 78, 65
2, 85600, Note_on_c, 0, 81, 65
2, 85620, Note_on_c, 0, 75, 52
2, 85630, Note_on_c, 0, 81, 0
2, 85640, Note_on_c, 0, 69, 0
2, 85660, Note_on_c, 0, 75, 0
2, 85686, Note_on_c, 0, 78, 0
2, 85740, Note_on_c, 0, 80, 68
2, 85744, Control_c, 0, 64, 0
2, 85744, Note_on_c, 0, 75, 45
2, 85744, Note_on_c, 0, 68, 53
2, 85744, Note_on_c, 0, 51, 50
2, 85744, Note_on_c, 0, 41, 59
2, 85874, Note_on_c, 0, 41, 0
2, 85898, Control_c, 0, 64, 127
2, 85916, Note_off_c, 0, 80, 0
2, 85918, Note_off_c, 0, 68, 0
2, 85924, Note_off_c, 0, 51, 0
2, 85936, Note_off_c, 0, 75, 0
2, 85996, Note_on_c, 0, 67, 76
2, 86000, Note_on_c, 0, 79, 76
2, 86038, Note_on_c, 0, 79, 0
2, 86050, Note_on_c, 0, 67, 0
2, 86124, Note_on_c, 0, 80, 86
2, 86128, Note_on_c, 0, 75, 70
2, 86136, Note_on_c, 0, 65, 66
2, 86136, Note_on_c, 0, 63, 64
2, 86140, Note_on_c, 0, 68, 52
2, 86140, Note_on_c, 0, 56, 41
2, 86146, Note_on_c, 0, 60, 57
2, 86152, Control_c, 0, 64, 0
2, 86180, Note_off_c, 0, 65, 0
2, 86212, Note_off_c, 0, 63, 0
2, 86218, Note_off_c, 0, 60, 0
2, 86230, Note_off_c, 0, 56, 0
2, 86296, Control_c, 0, 64, 127
2, 86300, Note_off_c, 0, 68, 0
2, 86304, Note_off_c, 0, 75, 0
2, 86316, Note_off_c, 0, 80, 0
2, 86388, Note_on_c, 0, 67, 80
2, 86394, Note_on_c, 0, 79, 65
2, 86424, Note_on_c, 0, 79, 0
2, 86430, Note_on_c, 0, 67, 0
2, 86502, Control_c, 0, 64, 0
2, 86512, Note_on_c, 0, 80, 81
2, 86518, Note_on_c, 0, 34, 78
2, 86524, Note_on_c, 0, 68, 58
2, 86524, Note_on_c, 0, 74, 68
2, 86588, Note_on_c, 0, 34, 0
2, 86614, Note_on_c, 0, 80, 0
2, 86616, Note_on_c, 0, 74, 0
2, 86624, Control_c, 0, 64, 127
2, 86642, Note_off_c, 0, 68, 0
2, 86790, Note_on_c, 0, 77, 72
2, 86796, Note_on_c, 0, 72, 40
2, 86804, Note_on_c, 0, 74, 42
2, 86818, Note_on_c, 0, 65, 38
2, 86860, Control_c, 0, 64, 0
2, 86912, Note_on_c, 0, 56, 56
2, 86922, Note_on_c, 0, 60, 62
2, 86928, Note_on_c, 0, 62, 52
2, 86972, Note_on_c, 0, 77, 0
2, 86984, Note_on_c, 0, 74, 0
2, 87002, Control_c, 0, 64, 127
2, 87008, Note_off_c, 0, 72, 0
2, 87024, Note_off_c, 0, 65, 0
2, 87082, Note_off_c, 0, 60, 0
2, 87090, Note_off_c, 0, 56, 0
2, 87130, Note_off_c, 0, 62, 0
2, 87154, Note_on_c, 0, 67, 98
2, 87188, Note_on_c, 0, 67, 0
2, 87276, Note_on_c, 0, 63, 73
2, 87282, Note_on_c, 0, 56, 62
2, 87282, Note_on_c, 0, 60, 63
2, 87284, Note_on_c, 0, 68, 102
2, 87300, Control_c, 0, 64, 0
2, 87364, Note_off_c, 0, 68, 0
2, 87404, Note_on_c, 0, 65, 87
2, 87412, Note_on_c, 0, 60, 0
2, 87420, Note_on_c, 0, 56, 0
2, 87440, Note_on_c, 0, 63, 0
2, 87446, Note_on_c, 0, 65, 0
2, 87476, Control_c, 0, 64, 127
2, 87528, Note_on_c, 0, 68, 88
2, 87570, Note_on_c, 0, 68, 0
2, 87648, Note_on_c, 0, 70, 89
2, 87648, Note_on_c, 0, 65, 63
2, 87648, Control_c, 0, 64, 0
2, 87652, Note_on_c, 0, 60, 39
2, 87660, Note_on_c, 0, 63, 53
2, 87702, Note_on_c, 0, 70, 0
2, 87706, Note_on_c, 0, 60, 0
2, 87724, Note_on_c, 0, 65, 0
2, 87736, Note_on_c, 0, 63, 0
2, 87770, Note_on_c, 0, 72, 75
2, 87814, Control_c, 0, 64, 127
2, 87816, Note_off_c, 0, 72, 0
2, 87884, Note_on_c, 0, 75, 86
2, 87974, Note_on_c, 0, 75, 0
2, 87988, Control_c, 0, 64, 0
2, 87992, Note_on_c, 0, 68, 80
2, 88002, Note_on_c, 0, 58, 72
2, 88004, Note_on_c, 0, 74, 83
2, 88008, Note_on_c, 0, 72, 61
2, 88154, Note_on_c, 0, 68, 0
2, 88172, Control_c, 0, 64, 127
2, 88176, Note_off_c, 0, 58, 0
2, 88190, Note_off_c, 0, 74, 0
2, 88216, Note_off_c, 0, 72, 0
2, 88250, Note_on_c, 0, 77, 88
2, 88280, Note_on_c, 0, 77, 0
2, 88384, Note_on_c, 0, 62, 71
2, 88388, Note_on_c, 0, 80, 88
2, 88396, Note_on_c, 0, 58, 62
2, 88396, Note_on_c, 0, 53, 43
2, 88396, Control_c, 0, 64, 0
2, 88404, Note_on_c, 0, 56, 51
2, 88420, Note_on_c, 0, 62, 0
2, 88446, Note_on_c, 0, 56, 0
2, 88452, Note_on_c, 0, 53, 0
2, 88452, Note_on_c, 0, 58, 0
2, 88510, Control_c, 0, 64, 127
2, 88582, Note_off_c, 0, 80, 0
2, 88636, Note_on_c, 0, 82, 92
2, 88694, Note_on_c, 0, 82, 0
2, 88778, Note_on_c, 0, 80, 61
2, 88778, Note_on_c, 0, 86, 70
2, 88782, Note_on_c, 0, 41, 72
2, 88784, Control_c, 0, 64, 0
2, 88788, Note_on_c, 0, 82, 63
2, 88788, Note_on_c, 0, 74, 42
2, 88794, Note_on_c, 0, 50, 58
2, 88862, Note_on_c, 0, 41, 0
2, 88868, Note_on_c, 0, 74, 0
2, 88896, Note_on_c, 0, 82, 0
2, 88896, Note_on_c, 0, 80, 0
2, 88900, Note_on_c, 0, 50, 0
2, 88904, Note_on_c, 0, 86, 0
2, 88908, Control_c, 0, 64, 127
2, 89044, Note_on_c, 0, 84, 113
2, 89044, Note_on_c, 0, 89, 117
2, 89048, Note_on_c, 0, 77, 117
2, 89052, Note_on_c, 0, 86, 107
2, 89092, Note_on_c, 0, 77, 0
2, 89094, Note_on_c, 0, 84, 0
2, 89100, Note_on_c, 0, 89, 0
2, 89120, Note_on_c, 0, 86, 0
2, 89158, Note_on_c, 0, 65, 81
2, 89162, Note_on_c, 0, 56, 68
2, 89164, Control_c, 0, 64, 0
2, 89168, Note_on_c, 0, 62, 64
2, 89168, Note_on_c, 0, 60, 55
2, 89182, Note_on_c, 0, 65, 0
2, 89198, Note_on_c, 0, 62, 0
2, 89198, Note_on_c, 0, 56, 0
2, 89200, Note_on_c, 0, 60, 0
2, 89436, Note_on_c, 0, 86, 79
2, 89462, Control_c, 0, 64, 127
2, 89488, Note_off_c, 0, 86, 0
2, 89558, Note_on_c, 0, 89, 106
2, 89558, Note_on_c, 0, 34, 88
2, 89558, Note_on_c, 0, 86, 90
2, 89560, Note_on_c, 0, 84, 98
2, 89560, Note_on_c, 0, 77, 106
2, 89606, Note_on_c, 0, 34, 0
2, 89608, Note_on_c, 0, 86, 0
2, 89610, Note_on_c, 0, 89, 0
2, 89620, Note_on_c, 0, 77, 0
2, 89620, Note_on_c, 0, 84, 0
2, 89958, Note_on_c, 0, 65, 101
2, 89958, Note_on_c, 0, 56, 87
2, 89964, Note_on_c, 0, 60, 88
2, 90020, Note_on_c, 0, 65, 0
2, 90036, Note_on_c, 0, 56, 0
2, 90052, Note_on_c, 0, 60, 0
2, 90206, Note_on_c, 0, 86, 115
2, 90206, Note_on_c, 0, 82, 110
2, 90206, Note_on_c, 0, 80, 106
2, 90210, Note_on_c, 0, 74, 105
2, 90216, Note_on_c, 0, 41, 89
2, 90240, Note_on_c, 0, 74, 0
2, 90272, Note_on_c, 0, 86, 0
2, 90288, Note_on_c, 0, 80, 0
2, 90288, Note_on_c, 0, 82, 0
2, 90308, Note_on_c, 0, 48, 43
2, 90316, Note_on_c, 0, 41, 0
2, 90342, Note_on_c, 0, 84, 103
2, 90344, Note_on_c, 0, 80, 85
2, 90352, Note_on_c, 0, 77, 102
2, 90354, Control_c, 0, 64, 0
2, 90358, Note_on_c, 0, 56, 102
2, 90508, Control_c, 0, 64, 127
2, 90512, Note_off_c, 0, 48, 0
2, 90552, Note_off_c, 0, 56, 0
2, 90560, Note_off_c, 0, 77, 0
2, 90584, Note_on_c, 0, 72, 97
2, 90648, Note_on_c, 0, 80, 0
2, 90722, Note_on_c, 0, 65, 95
2, 90724, Note_on_c, 0, 77, 102
2, 90724, Note_on_c, 0, 63, 85
2, 90732, Note_on_c, 0, 56, 65
2, 90736, Note_on_c, 0, 60, 76
2, 90744, Note_on_c, 0, 65, 0
2, 90784, Note_on_c, 0, 60, 0
2, 90800, Note_on_c, 0, 63, 0
2, 90814, Note_on_c, 0, 56, 0
2, 90904, Note_on_c, 0, 77, 0
2, 90916, Note_on_c, 0, 84, 0
2, 90924, Note_on_c, 0, 72, 0
2, 90970, Note_on_c, 0, 38, 89
2, 90972, Note_on_c, 0, 80, 103
2, 91040, Note_on_c, 0, 38, 0
2, 91040, Note_on_c, 0, 45, 88
2, 91054, Note_on_c, 0, 80, 0
2, 91100, Note_on_c, 0, 78, 99
2, 91104, Note_on_c, 0, 54, 115
2, 91104, Note_on_c, 0, 81, 103
2, 91108, Note_on_c, 0, 74, 97
2, 91112, Note_on_c, 0, 72, 98
2, 91112, Note_on_c, 0, 86, 100
2, 91112, Control_c, 0, 64, 0
2, 91124, Note_on_c, 0, 84, 87
2, 91152, Note_on_c, 0, 84, 0
2, 91222, Note_on_c, 0, 86, 0
2, 91232, Note_on_c, 0, 45, 0
2, 91250, Note_on_c, 0, 74, 0
2, 91254, Control_c, 0, 64, 127
2, 91260, Note_off_c, 0, 72, 0
2, 91284, Note_off_c, 0, 54, 0
2, 91302, Note_off_c, 0, 81, 0
2, 91304, Note_off_c, 0, 78, 0
2, 91362, Note_on_c, 0, 73, 98
2, 91362, Note_on_c, 0, 85, 96
2, 91434, Note_on_c, 0, 73, 0
2, 91446, Note_on_c, 0, 85, 0
2, 91494, Note_on_c, 0, 64, 87
2, 91494, Note_on_c, 0, 78, 77
2, 91494, Note_on_c, 0, 84, 89
2, 91496, Note_on_c, 0, 60, 83
2, 91500, Control_c, 0, 64, 0
2, 91500, Note_on_c, 0, 72, 69
2, 91502, Note_on_c, 0, 54, 65
2, 91504, Note_on_c, 0, 81, 73
2, 91536, Note_on_c, 0, 64, 0
2, 91568, Note_on_c, 0, 60, 0
2, 91588, Note_on_c, 0, 81, 0
2, 91592, Note_on_c, 0, 54, 0
2, 91614, Note_on_c, 0, 84, 0
2, 91634, Control_c, 0, 64, 127
2, 91644, Note_off_c, 0, 78, 0
2, 91650, Note_off_c, 0, 72, 0
2, 91736, Note_on_c, 0, 50, 42
2, 91844, Note_on_c, 0, 50, 0
2, 91888, Note_on_c, 0, 43, 89
2, 91892, Note_on_c, 0, 83, 99
2, 91892, Note_on_c, 0, 53, 110
2, 91894, Note_on_c, 0, 71, 98
2, 91894, Note_on_c, 0, 79, 108
2, 91894, Note_on_c, 0, 77, 113
2, 91914, Note_on_c, 0, 43, 0
2, 91920, Control_c, 0, 64, 0
2, 91922, Note_off_c, 0, 77, 0
2, 91922, Note_off_c, 0, 83, 0
2, 91926, Note_off_c, 0, 79, 0
2, 91940, Note_off_c, 0, 53, 0
2, 91958, Note_off_c, 0, 71, 0
2, 92072, Note_on_c, 0, 61, 52
2, 92100, Note_on_c, 0, 63, 99
2, 92104, Note_on_c, 0, 61, 0
2, 92118, Note_on_c, 0, 63, 0
2, 92120, Note_on_c, 0, 64, 104
2, 92132, Note_on_c, 0, 74, 112
2, 92132, Note_on_c, 0, 67, 108
2, 92132, Note_on_c, 0, 71, 96
2, 92156, Note_on_c, 0, 64, 0
2, 92160, Note_on_c, 0, 65, 112
2, 92308, Note_on_c, 0, 74, 0
2, 92320, Note_on_c, 0, 71, 0
2, 92322, Note_on_c, 0, 65, 0
2, 92330, Note_on_c, 0, 67, 0
2, 92420, Note_on_c, 0, 72, 69
2, 92424, Note_on_c, 0, 63, 86
2, 92428, Note_on_c, 0, 69, 72
2, 92434, Note_on_c, 0, 66, 48
2, 92552, Note_on_c, 0, 63, 0
2, 92572, Note_on_c, 0, 66, 0
2, 92572, Note_on_c, 0, 69, 0
2, 92576, Note_on_c, 0, 72, 0
2, 92586, Control_c, 0, 64, 127
2, 92628, Control_c, 0, 64, 0
2, 92636, Note_on_c, 0, 62, 101
2, 92642, Note_on_c, 0, 65, 95
2, 92644, Note_on_c, 0, 71, 84
2, 92648, Note_on_c, 0, 67, 94
2, 92674, Note_on_c, 0, 65, 0
2, 92676, Note_on_c, 0, 67, 0
2, 92698, Note_on_c, 0, 62, 0
2, 92716, Note_on_c, 0, 71, 0
2, 92830, Note_on_c, 0, 75, 76
2, 92858, Note_on_c, 0, 75, 0
2, 92868, Note_on_c, 0, 76, 103
2, 92886, Note_on_c, 0, 76, 0
2, 92896, Note_on_c, 0, 86, 117
2, 92900, Note_on_c, 0, 83, 100
2, 92900, Note_on_c, 0, 79, 108
2, 92904, Note_on_c, 0, 77, 118
2, 93078, Note_on_c, 0, 77, 0
2, 93078, Note_on_c, 0, 86, 0
2, 93092, Note_on_c, 0, 83, 0
2, 93112, Note_on_c, 0, 79, 0
2, 93172, Note_on_c, 0, 75, 80
2, 93174, Note_on_c, 0, 84, 92
2, 93190, Note_on_c, 0, 81, 80
2, 93194, Note_on_c, 0, 78, 64
2, 93296, Note_on_c, 0, 75, 0
2, 93342, Note_on_c, 0, 78, 0
2, 93342, Note_on_c, 0, 81, 0
2, 93388, Note_on_c, 0, 79, 94
2, 93388, Note_on_c, 0, 74, 85
2, 93390, Note_on_c, 0, 83, 76
2, 93410, Note_on_c, 0, 74, 0
2, 93410, Note_on_c, 0, 79, 0
2, 93416, Note_on_c, 0, 83, 0
2, 93442, Note_on_c, 0, 84, 0
2, 93488, Control_c, 0, 64, 127
2, 93560, Note_on_c, 0, 87, 78
2, 93584, Note_on_c, 0, 87, 0
2, 93598, Note_on_c, 0, 88, 100
2, 93624, Note_on_c, 0, 98, 104
2, 93630, Note_on_c, 0, 95, 94
2, 93632, Control_c, 0, 64, 0
2, 93634, Note_on_c, 0, 91, 95
2, 93640, Note_on_c, 0, 89, 112
2, 93652, Note_on_c, 0, 88, 0
2, 93658, Note_on_c, 0, 87, 34
2, 93700, Note_on_c, 0, 87, 0
2, 93824, Note_on_c, 0, 95, 0
2, 93830, Note_on_c, 0, 91, 0
2, 93858, Note_on_c, 0, 89, 0
2, 93916, Note_on_c, 0, 98, 0
2, 93934, Note_on_c, 0, 96, 70
2, 93936, Note_on_c, 0, 87, 78
2, 93944, Note_on_c, 0, 93, 69
2, 93948, Note_on_c, 0, 90, 58
2, 94018, Note_on_c, 0, 93, 0
2, 94020, Note_on_c, 0, 87, 0
2, 94044, Note_on_c, 0, 90, 0
2, 94052, Control_c, 0, 64, 127
2, 94066, Note_off_c, 0, 96, 0
2, 94100, Note_on_c, 0, 95, 84
2, 94102, Note_on_c, 0, 89, 100
2, 94102, Note_on_c, 0, 86, 104
2, 94104, Note_on_c, 0, 91, 105
2, 94122, Note_on_c, 0, 86, 0
2, 94124, Note_on_c, 0, 91, 0
2, 94124, Control_c, 0, 64, 0
2, 94132, Note_off_c, 0, 95, 0
2, 94142, Note_off_c, 0, 89, 0
2, 94344, Note_on_c, 0, 53, 79
2, 94476, Note_on_c, 0, 43, 97
2, 94510, Note_on_c, 0, 53, 0
2, 94544, Note_on_c, 0, 43, 0
2, 94714, Note_on_c, 0, 43, 105
2, 94844, Note_on_c, 0, 43, 0
2, 94862, Note_on_c, 0, 84, 112
2, 94862, Note_on_c, 0, 76, 115
2, 94864, Note_on_c, 0, 81, 108
2, 94864, Note_on_c, 0, 74, 108
2, 94866, Note_on_c, 0, 72, 109
2, 94870, Note_on_c, 0, 36, 100
2, 94892, Note_on_c, 0, 36, 0
2, 94946, Note_on_c, 0, 76, 0
2, 94952, Note_on_c, 0, 84, 0
2, 94960, Note_on_c, 0, 74, 0
2, 94964, Note_on_c, 0, 72, 0
2, 94964, Note_on_c, 0, 81, 0
2, 95276, Note_on_c, 0, 77, 113
2, 95280, Note_on_c, 0, 75, 106
2, 95280, Note_on_c, 0, 85, 106
2, 95280, Note_on_c, 0, 82, 107
2, 95284, Note_on_c, 0, 61, 79
2, 95286, Note_on_c, 0, 71, 69
2, 95286, Note_on_c, 0, 80, 100
2, 95290, Note_on_c, 0, 65, 83
2, 95330, Note_on_c, 0, 61, 0
2, 95358, Note_on_c, 0, 61, 6
2, 95556, Control_c, 0, 64, 127
2, 95564, Note_off_c, 0, 61, 0
2, 95570, Note_off_c, 0, 71, 0
2, 95580, Note_off_c, 0, 77, 0
2, 95594, Note_off_c, 0, 75, 0
2, 95600, Note_off_c, 0, 85, 0
2, 95602, Note_off_c, 0, 65, 0
2, 95608, Note_off_c, 0, 80, 0
2, 95616, Note_off_c, 0, 82, 0
2, 95660, Control_c, 0, 64, 0
2, 95668, Note_on_c, 0, 84, 80
2, 95676, Note_on_c, 0, 70, 72
2, 95676, Note_on_c, 0, 60, 73
2, 95682, Note_on_c, 0, 81, 60
2, 95688, Note_on_c, 0, 76, 57
2, 95688, Note_on_c, 0, 74, 36
2, 95690, Note_on_c, 0, 79, 67
2, 95696, Note_on_c, 0, 84, 0
2, 95708, Note_on_c, 0, 70, 0
2, 95710, Note_on_c, 0, 60, 0
2, 95716, Note_on_c, 0, 81, 0
2, 95718, Note_on_c, 0, 79, 0
2, 95726, Note_on_c, 0, 76, 0
2, 95740, Note_on_c, 0, 74, 0
2, 96064, Note_on_c, 0, 73, 103
2, 96064, Note_on_c, 0, 63, 111
2, 96066, Note_on_c, 0, 65, 110
2, 96068, Note_on_c, 0, 70, 106
2, 96070, Note_on_c, 0, 68, 102
2, 96074, Note_on_c, 0, 49, 96
2, 96076, Note_on_c, 0, 59, 97
2, 96294, Note_on_c, 0, 59, 0
2, 96300, Note_on_c, 0, 49, 0
2, 96306, Control_c, 0, 64, 127
2, 96328, Note_off_c, 0, 65, 0
2, 96334, Note_off_c, 0, 68, 0
2, 96338, Note_off_c, 0, 73, 0
2, 96340, Note_off_c, 0, 63, 0
2, 96348, Note_off_c, 0, 70, 0
2, 96460, Note_on_c, 0, 58, 87
2, 96462, Note_on_c, 0, 72, 76
2, 96464, Note_on_c, 0, 64, 58
2, 96464, Note_on_c, 0, 69, 60
2, 96464, Note_on_c, 0, 62, 68
2, 96466, Note_on_c, 0, 48, 70
2, 96468, Control_c, 0, 64, 0
2, 96472, Note_on_c, 0, 67, 72
2, 96494, Note_on_c, 0, 72, 0
2, 96506, Note_on_c, 0, 67, 0
2, 96520, Note_on_c, 0, 62, 0
2, 96520, Note_on_c, 0, 69, 0
2, 96520, Note_on_c, 0, 58, 0
2, 96524, Note_on_c, 0, 64, 0
2, 96530, Note_on_c, 0, 48, 0
2, 96854, Note_on_c, 0, 58, 118
2, 96856, Note_on_c, 0, 53, 110
2, 96856, Note_on_c, 0, 61, 112
2, 96862, Note_on_c, 0, 47, 78
2, 96864, Note_on_c, 0, 37, 92
2, 97052, Control_c, 0, 64, 127
2, 97074, Note_off_c, 0, 47, 0
2, 97098, Note_off_c, 0, 37, 0
2, 97132, Note_off_c, 0, 61, 0
2, 97138, Note_off_c, 0, 53, 0
2, 97138, Note_off_c, 0, 58, 0
2, 97226, Control_c, 0, 64, 0
2, 97252, Note_on_c, 0, 57, 91
2, 97252, Note_on_c, 0, 36, 77
2, 97252, Note_on_c, 0, 52, 89
2, 97252, Note_on_c, 0, 60, 92
2, 97252, Note_on_c, 0, 46, 96
2, 97276, Note_on_c, 0, 36, 0
2, 97308, Note_on_c, 0, 52, 0
2, 97316, Note_on_c, 0, 46, 0
2, 97338, Note_on_c, 0, 57, 0
2, 97348, Control_c, 0, 64, 127
2, 97352, Note_off_c, 0, 60, 0
2, 97508, Note_on_c, 0, 62, 102
2, 97510, Note_on_c, 0, 67, 103
2, 97514, Note_on_c, 0, 64, 89
2, 97532, Note_on_c, 0, 62, 0
2, 97536, Note_on_c, 0, 64, 0
2, 97556, Note_on_c, 0, 67, 0
2, 97634, Note_on_c, 0, 58, 119
2, 97644, Note_on_c, 0, 48, 88
2, 97714, Note_on_c, 0, 58, 0
2, 97732, Note_on_c, 0, 48, 0
2, 97884, Note_on_c, 0, 79, 115
2, 97888, Note_on_c, 0, 74, 110
2, 97890, Note_on_c, 0, 76, 110
2, 97914, Note_on_c, 0, 76, 0
2, 97914, Note_on_c, 0, 79, 0
2, 97944, Note_on_c, 0, 74, 0
2, 98020, Note_on_c, 0, 77, 112
2, 98020, Note_on_c, 0, 75, 95
2, 98022, Note_on_c, 0, 72, 97
2, 98024, Note_on_c, 0, 51, 87
2, 98024, Note_on_c, 0, 69, 98
2, 98024, Note_on_c, 0, 41, 87
2, 98026, Control_c, 0, 64, 0
2, 98122, Note_off_c, 0, 41, 0
2, 98172, Note_off_c, 0, 51, 0
2, 98180, Note_off_c, 0, 77, 0
2, 98190, Control_c, 0, 64, 127
2, 98234, Note_off_c, 0, 75, 0
2, 98250, Note_off_c, 0, 69, 0
2, 98250, Note_off_c, 0, 72, 0
2, 98278, Note_on_c, 0, 77, 100
2, 98334, Note_on_c, 0, 77, 0
2, 98402, Note_on_c, 0, 81, 113
2, 98406, Note_on_c, 0, 75, 100
2, 98406, Note_on_c, 0, 65, 84
2, 98406, Note_on_c, 0, 69, 106
2, 98408, Note_on_c, 0, 57, 78
2, 98412, Note_on_c, 0, 63, 81
2, 98422, Note_on_c, 0, 60, 81
2, 98436, Control_c, 0, 64, 0
2, 98458, Note_off_c, 0, 65, 0
2, 98484, Note_off_c, 0, 63, 0
2, 98500, Note_off_c, 0, 60, 0
2, 98500, Note_off_c, 0, 57, 0
2, 98580, Control_c, 0, 64, 127
2, 98584, Note_off_c, 0, 81, 0
2, 98620, Note_off_c, 0, 69, 0
2, 98640, Note_off_c, 0, 75, 0
2, 98656, Note_on_c, 0, 81, 94
2, 98714, Note_on_c, 0, 81, 0
2, 98790, Note_on_c, 0, 84, 99
2, 98794, Control_c, 0, 64, 0
2, 98794, Note_on_c, 0, 72, 88
2, 98794, Note_on_c, 0, 42, 70
2, 98794, Note_on_c, 0, 76, 94
2, 98800, Note_on_c, 0, 80, 79
2, 98800, Note_on_c, 0, 52, 75
2, 98896, Note_on_c, 0, 42, 0
2, 98912, Note_on_c, 0, 52, 0
2, 98938, Control_c, 0, 64, 127
2, 98942, Note_off_c, 0, 76, 0
2, 98952, Note_off_c, 0, 84, 0
2, 98962, Note_off_c, 0, 72, 0
2, 98972, Note_off_c, 0, 80, 0
2, 99050, Note_on_c, 0, 84, 100
2, 99080, Note_on_c, 0, 84, 0
2, 99184, Note_on_c, 0, 68, 101
2, 99186, Note_on_c, 0, 75, 108
2, 99186, Note_on_c, 0, 87, 111
2, 99190, Note_on_c, 0, 82, 110
2, 99192, Note_on_c, 0, 58, 84
2, 99194, Note_on_c, 0, 64, 89
2, 99226, Note_on_c, 0, 68, 0
2, 99226, Control_c, 0, 64, 0
2, 99228, Note_off_c, 0, 64, 0
2, 99276, Note_off_c, 0, 58, 0
2, 99326, Control_c, 0, 64, 127
2, 99356, Note_off_c, 0, 87, 0
2, 99356, Note_off_c, 0, 75, 0
2, 99366, Note_off_c, 0, 82, 0
2, 99420, Note_on_c, 0, 87, 100
2, 99424, Note_on_c, 0, 75, 96
2, 99430, Note_on_c, 0, 82, 84
2, 99462, Note_on_c, 0, 82, 0
2, 99484, Note_on_c, 0, 75, 0
2, 99484, Note_on_c, 0, 87, 0
2, 99564, Note_on_c, 0, 51, 84
2, 99566, Note_on_c, 0, 41, 84
2, 99568, Note_on_c, 0, 89, 109
2, 99568, Note_on_c, 0, 81, 102
2, 99570, Note_on_c, 0, 86, 98
2, 99572, Control_c, 0, 64, 0
2, 99574, Note_on_c, 0, 77, 96
2, 99672, Note_on_c, 0, 41, 0
2, 99716, Control_c, 0, 64, 127
2, 99718, Note_off_c, 0, 51, 0
2, 99738, Note_off_c, 0, 77, 0
2, 99740, Note_off_c, 0, 81, 0
2, 99740, Note_off_c, 0, 89, 0
2, 99756, Note_off_c, 0, 86, 0
2, 99816, Note_on_c, 0, 86, 91
2, 99816, Note_on_c, 0, 81, 98
2, 99818, Note_on_c, 0, 89, 103
2, 99820, Note_on_c, 0, 77, 101
2, 99844, Note_on_c, 0, 77, 0
2, 99880, Note_on_c, 0, 81, 0
2, 99904, Note_on_c, 0, 86, 0
2, 99912, Note_on_c, 0, 89, 0
2, 99956, Note_on_c, 0, 67, 94
2, 99962, Note_on_c, 0, 57, 84
2, 99964, Note_on_c, 0, 63, 83
2, 99964, Note_on_c, 0, 91, 113
2, 99972, Note_on_c, 0, 81, 94
2, 99972, Note_on_c, 0, 87, 86
2, 99972, Note_on_c, 0, 84, 88
2, 99980, Note_on_c, 0, 60, 70
2, 99980, Note_on_c, 0, 79, 93
2, 99992, Control_c, 0, 64, 0
2, 100024, Note_off_c, 0, 67, 0
2, 100084, Note_off_c, 0, 63, 0
2, 100086, Note_off_c, 0, 60, 0
2, 100088, Note_off_c, 0, 57, 0
2, 100106, Control_c, 0, 64, 127
2, 100128, Note_off_c, 0, 79, 0
2, 100128, Note_off_c, 0, 81, 0
2, 100132, Note_off_c, 0, 91, 0
2, 100142, Note_off_c, 0, 84, 0
2, 100152, Note_off_c, 0, 87, 0
2, 100210, Note_on_c, 0, 87, 72
2, 100214, Note_on_c, 0, 91, 96
2, 100220, Note_on_c, 0, 84, 56
2, 100220, Note_on_c, 0, 79, 76
2, 100254, Note_on_c, 0, 91, 0
2, 100260, Note_on_c, 0, 84, 0
2, 100262, Note_on_c, 0, 79, 0
2, 100288, Note_on_c, 0, 87, 0
2, 100350, Control_c, 0, 64, 0
2, 100354, Note_on_c, 0, 44, 70
2, 100354, Note_on_c, 0, 53, 70
2, 100356, Note_on_c, 0, 89, 101
2, 100368, Note_on_c, 0, 83, 60
2, 100368, Note_on_c, 0, 77, 77
2, 100474, Note_on_c, 0, 83, 0
2, 100484, Control_c, 0, 64, 127
2, 100486, Note_off_c, 0, 77, 0
2, 100498, Note_off_c, 0, 89, 0
2, 100548, Note_off_c, 0, 44, 0
2, 100598, Note_on_c, 0, 75, 78
2, 100604, Note_on_c, 0, 53, 0
2, 100608, Note_on_c, 0, 87, 65
2, 100672, Note_on_c, 0, 75, 0
2, 100708, Note_on_c, 0, 87, 0
2, 100720, Note_on_c, 0, 89, 91
2, 100726, Note_on_c, 0, 54, 89
2, 100730, Note_on_c, 0, 45, 79
2, 100730, Note_on_c, 0, 77, 87
2, 100730, Control_c, 0, 64, 0
2, 100734, Note_on_c, 0, 84, 76
2, 100780, Note_on_c, 0, 77, 0
2, 100800, Note_on_c, 0, 89, 0
2, 100808, Note_on_c, 0, 84, 0
2, 100844, Note_on_c, 0, 45, 0
2, 100860, Note_on_c, 0, 75, 66
2, 100862, Note_on_c, 0, 87, 72
2, 100872, Control_c, 0, 64, 127
2, 100890, Note_off_c, 0, 75, 0
2, 100960, Note_on_c, 0, 78, 101
2, 100960, Note_on_c, 0, 90, 96
2, 100972, Note_on_c, 0, 84, 94
2, 100974, Note_on_c, 0, 54, 0
2, 101004, Note_on_c, 0, 90, 0
2, 101004, Note_on_c, 0, 78, 0
2, 101004, Note_on_c, 0, 91, 101
2, 101008, Control_c, 0, 64, 0
2, 101008, Note_on_c, 0, 79, 98
2, 101128, Note_on_c, 0, 46, 89
2, 101130, Note_on_c, 0, 55, 76
2, 101242, Control_c, 0, 64, 127
2, 101282, Note_off_c, 0, 46, 0
2, 101296, Note_off_c, 0, 55, 0
2, 101304, Note_off_c, 0, 79, 0
2, 101368, Note_off_c, 0, 91, 0
2, 101390, Note_on_c, 0, 79, 100
2, 101484, Note_on_c, 0, 84, 0
2, 101506, Note_on_c, 0, 67, 104
2, 101508, Note_on_c, 0, 60, 95
2, 101512, Note_on_c, 0, 58, 99
2, 101512, Note_on_c, 0, 63, 87
2, 101520, Note_on_c, 0, 87, 0
2, 101560, Note_on_c, 0, 67, 0
2, 101596, Note_on_c, 0, 63, 0
2, 101600, Note_on_c, 0, 60, 0
2, 101608, Note_on_c, 0, 58, 0
2, 101616, Note_on_c, 0, 79, 0
2, 101644, Note_on_c, 0, 84, 100
2, 101716, Note_on_c, 0, 84, 0
2, 101752, Note_on_c, 0, 84, 102
2, 101752, Note_on_c, 0, 91, 113
2, 101754, Note_on_c, 0, 79, 106
2, 101756, Note_on_c, 0, 87, 97
2, 101796, Note_on_c, 0, 47, 57
2, 101814, Note_on_c, 0, 91, 0
2, 101820, Note_on_c, 0, 53, 76
2, 101838, Note_on_c, 0, 79, 0
2, 101844, Note_on_c, 0, 84, 0
2, 101860, Note_on_c, 0, 47, 0
2, 101860, Note_on_c, 0, 87, 0
2, 101870, Note_on_c, 0, 56, 75
2, 101896, Note_on_c, 0, 89, 117
2, 101900, Note_on_c, 0, 83, 97
2, 101902, Note_on_c, 0, 77, 113
2, 101904, Note_on_c, 0, 86, 107
2, 101906, Note_on_c, 0, 62, 110
2, 101908, Control_c, 0, 64, 0
2, 102032, Control_c, 0, 64, 127
2, 102046, Note_off_c, 0, 62, 0
2, 102052, Note_off_c, 0, 89, 0
2, 102064, Note_off_c, 0, 86, 0
2, 102066, Note_off_c, 0, 83, 0
2, 102082, Note_off_c, 0, 53, 0
2, 102088, Note_off_c, 0, 77, 0
2, 102094, Note_off_c, 0, 56, 0
2, 102124, Note_on_c, 0, 48, 88
2, 102188, Note_on_c, 0, 55, 97
2, 102196, Note_on_c, 0, 48, 0
2, 102258, Note_on_c, 0, 75, 86
2, 102290, Note_on_c, 0, 79, 95
2, 102294, Note_on_c, 0, 63, 97
2, 102302, Note_on_c, 0, 82, 113
2, 102308, Control_c, 0, 64, 0
2, 102316, Note_on_c, 0, 87, 109
2, 102426, Note_on_c, 0, 63, 0
2, 102450, Control_c, 0, 64, 127
2, 102466, Note_off_c, 0, 55, 0
2, 102490, Note_off_c, 0, 87, 0
2, 102514, Note_off_c, 0, 75, 0
2, 102528, Note_off_c, 0, 79, 0
2, 102544, Note_off_c, 0, 82, 0
2, 102652, Note_on_c, 0, 72, 73
2, 102690, Note_on_c, 0, 79, 88
2, 102704, Note_on_c, 0, 81, 98
2, 102706, Note_on_c, 0, 41, 71
2, 102708, Control_c, 0, 64, 0
2, 102708, Note_on_c, 0, 51, 62
2, 102718, Note_on_c, 0, 84, 103
2, 102838, Note_on_c, 0, 41, 0
2, 102862, Control_c, 0, 64, 127
2, 102880, Note_off_c, 0, 51, 0
2, 102916, Note_off_c, 0, 72, 0
2, 102948, Note_off_c, 0, 79, 0
2, 102954, Note_off_c, 0, 81, 0
2, 102964, Note_off_c, 0, 84, 0
2, 103038, Note_on_c, 0, 74, 41
2, 103084, Note_on_c, 0, 79, 76
2, 103096, Control_c, 0, 64, 0
2, 103096, Note_on_c, 0, 65, 58
2, 103104, Note_on_c, 0, 56, 53
2, 103110, Note_on_c, 0, 82, 79
2, 103110, Note_on_c, 0, 58, 59
2, 103118, Note_on_c, 0, 62, 58
2, 103136, Note_on_c, 0, 86, 80
2, 103196, Note_on_c, 0, 65, 0
2, 103216, Note_on_c, 0, 62, 0
2, 103256, Note_on_c, 0, 58, 0
2, 103256, Note_on_c, 0, 56, 0
2, 103262, Control_c, 0, 64, 127
2, 103312, Note_off_c, 0, 86, 0
2, 103330, Note_off_c, 0, 74, 0
2, 103356, Note_off_c, 0, 79, 0
2, 103368, Note_off_c, 0, 82, 0
2, 103486, Note_on_c, 0, 34, 95
2, 103552, Note_on_c, 0, 34, 0
2, 103896, Control_c, 0, 64, 0
2, 103910, Note_on_c, 0, 82, 105
2, 103914, Note_on_c, 0, 70, 102
2, 103914, Note_on_c, 0, 67, 92
2, 103916, Note_on_c, 0, 74, 96
2, 103922, Note_on_c, 0, 79, 92
2, 103924, Note_on_c, 0, 56, 75
2, 103930, Note_on_c, 0, 62, 84
2, 103934, Note_on_c, 0, 58, 84
2, 104000, Note_on_c, 0, 67, 0
2, 104022, Note_on_c, 0, 62, 0
2, 104028, Note_on_c, 0, 70, 0
2, 104040, Note_on_c, 0, 74, 0
2, 104044, Note_on_c, 0, 79, 0
2, 104050, Control_c, 0, 64, 127
2, 104056, Note_off_c, 0, 58, 0
2, 104060, Note_off_c, 0, 56, 0
2, 104086, Note_off_c, 0, 82, 0
2, 104314, Note_on_c, 0, 91, 108
2, 104314, Note_on_c, 0, 43, 101
2, 104316, Note_on_c, 0, 79, 110
2, 104316, Note_on_c, 0, 83, 95
2, 104316, Note_on_c, 0, 88, 105
2, 104320, Note_on_c, 0, 53, 107
2, 104322, Note_on_c, 0, 50, 100
2, 104344, Note_on_c, 0, 43, 0
2, 104348, Control_c, 0, 64, 0
2, 104354, Note_off_c, 0, 50, 0
2, 104362, Note_off_c, 0, 88, 0
2, 104362, Note_off_c, 0, 91, 0
2, 104366, Note_off_c, 0, 79, 0
2, 104372, Note_off_c, 0, 53, 0
2, 104380, Note_off_c, 0, 83, 0
2, 104582, Note_on_c, 0, 67, 107
2, 104584, Note_on_c, 0, 71, 100
2, 104584, Note_on_c, 0, 79, 113
2, 104586, Note_on_c, 0, 76, 115
2, 104636, Note_on_c, 0, 67, 0
2, 104648, Note_on_c, 0, 71, 0
2, 104652, Note_on_c, 0, 76, 0
2, 104660, Note_on_c, 0, 79, 0
2, 104712, Note_on_c, 0, 79, 77
2, 104716, Note_on_c, 0, 71, 45
2, 104724, Note_on_c, 0, 67, 72
2, 104728, Note_on_c, 0, 76, 61
2, 104756, Note_on_c, 0, 76, 0
2, 104756, Note_on_c, 0, 67, 0
2, 104760, Note_on_c, 0, 71, 0
2, 104772, Note_on_c, 0, 79, 0
2, 104846, Note_on_c, 0, 79, 71
2, 104852, Note_on_c, 0, 67, 59
2, 104852, Note_on_c, 0, 71, 42
2, 104864, Note_on_c, 0, 76, 65
2, 104890, Note_on_c, 0, 76, 0
2, 104890, Note_on_c, 0, 67, 0
2, 104890, Note_on_c, 0, 79, 0
2, 104892, Note_on_c, 0, 71, 0
2, 104966, Note_on_c, 0, 79, 78
2, 104976, Note_on_c, 0, 71, 42
2, 104978, Note_on_c, 0, 67, 47
2, 104988, Note_on_c, 0, 76, 51
2, 105014, Note_on_c, 0, 76, 0
2, 105014, Note_on_c, 0, 67, 0
2, 105014, Note_on_c, 0, 79, 0
2, 105024, Note_on_c, 0, 71, 0
2, 105114, Note_on_c, 0, 66, 87
2, 105122, Note_on_c, 0, 75, 62
2, 105124, Note_on_c, 0, 69, 59
2, 105128, Note_on_c, 0, 78, 58
2, 105166, Note_on_c, 0, 69, 0
2, 105172, Note_on_c, 0, 78, 0
2, 105176, Note_on_c, 0, 66, 0
2, 105182, Note_on_c, 0, 75, 0
2, 105368, Note_on_c, 0, 78, 82
2, 105370, Note_on_c, 0, 75, 68
2, 105372, Note_on_c, 0, 66, 69
2, 105376, Note_on_c, 0, 69, 72
2, 105402, Note_on_c, 0, 66, 0
2, 105410, Note_on_c, 0, 75, 0
2, 105422, Note_on_c, 0, 69, 0
2, 105454, Note_on_c, 0, 78, 0
2, 105474, Control_c, 0, 64, 127
2, 105520, Note_on_c, 0, 69, 71
2, 105522, Note_on_c, 0, 65, 73
2, 105522, Note_on_c, 0, 77, 74
2, 105528, Note_on_c, 0, 55, 48
2, 105536, Control_c, 0, 64, 0
2, 105562, Note_off_c, 0, 69, 0
2, 105564, Note_off_c, 0, 55, 0
2, 105566, Note_off_c, 0, 77, 0
2, 105570, Note_off_c, 0, 65, 0
2, 105758, Note_on_c, 0, 65, 62
2, 105766, Note_on_c, 0, 55, 49
2, 105768, Note_on_c, 0, 77, 85
2, 105776, Note_on_c, 0, 74, 68
2, 105780, Note_on_c, 0, 69, 57
2, 105800, Note_on_c, 0, 77, 0
2, 105804, Note_on_c, 0, 65, 0
2, 105808, Note_on_c, 0, 74, 0
2, 105810, Note_on_c, 0, 55, 0
2, 105812, Control_c, 0, 64, 127
2, 105820, Note_off_c, 0, 69, 0
2, 105914, Control_c, 0, 64, 0
2, 105920, Note_on_c, 0, 67, 74
2, 105924, Note_on_c, 0, 64, 64
2, 105926, Note_on_c, 0, 76, 68
2, 105932, Note_on_c, 0, 70, 60
2, 105932, Note_on_c, 0, 60, 57
2, 105952, Note_on_c, 0, 72, 25
2, 105984, Note_on_c, 0, 64, 0
2, 106016, Note_on_c, 0, 60, 0
2, 106026, Control_c, 0, 64, 127
2, 106034, Note_off_c, 0, 67, 0
2, 106048, Note_off_c, 0, 72, 0
2, 106050, Note_off_c, 0, 70, 0
2, 106062, Note_off_c, 0, 76, 0
2, 106176, Note_on_c, 0, 79, 94
2, 106182, Note_on_c, 0, 56, 66
2, 106196, Note_on_c, 0, 79, 0
2, 106218, Note_on_c, 0, 56, 0
2, 106302, Control_c, 0, 64, 0
2, 106318, Note_on_c, 0, 49, 68
2, 106320, Note_on_c, 0, 59, 62
2, 106322, Note_on_c, 0, 73, 72
2, 106324, Note_on_c, 0, 65, 61
2, 106332, Note_on_c, 0, 70, 59
2, 106444, Note_on_c, 0, 49, 0
2, 106448, Control_c, 0, 64, 127
2, 106454, Note_off_c, 0, 59, 0
2, 106462, Note_off_c, 0, 73, 0
2, 106464, Note_off_c, 0, 70, 0
2, 106476, Note_off_c, 0, 65, 0
2, 106580, Note_on_c, 0, 72, 83
2, 106588, Note_on_c, 0, 69, 70
2, 106590, Note_on_c, 0, 64, 60
2, 106600, Note_on_c, 0, 58, 88
2, 106606, Note_on_c, 0, 48, 61
2, 106620, Control_c, 0, 64, 0
2, 106806, Note_off_c, 0, 58, 0
2, 106806, Control_c, 0, 64, 127
2, 106824, Note_off_c, 0, 72, 0
2, 106830, Note_off_c, 0, 69, 0
2, 106854, Note_off_c, 0, 48, 0
2, 106874, Note_off_c, 0, 64, 0
2, 106976, Note_on_c, 0, 71, 69
2, 106990, Note_on_c, 0, 49, 55
2, 107000, Note_on_c, 0, 71, 0
2, 107084, Note_on_c, 0, 49, 0
2, 107122, Note_on_c, 0, 64, 68
2, 107124, Note_on_c, 0, 70, 91
2, 107124, Note_on_c, 0, 42, 58
2, 107126, Note_on_c, 0, 52, 64
2, 107132, Control_c, 0, 64, 0
2, 107136, Note_on_c, 0, 58, 72
2, 107268, Note_on_c, 0, 42, 0
2, 107268, Control_c, 0, 64, 127
2, 107278, Note_off_c, 0, 64, 0
2, 107298, Note_off_c, 0, 58, 0
2, 107318, Note_off_c, 0, 70, 0
2, 107376, Note_off_c, 0, 52, 0
2, 107406, Note_on_c, 0, 68, 91
2, 107410, Note_on_c, 0, 56, 79
2, 107414, Note_on_c, 0, 63, 82
2, 107416, Note_on_c, 0, 41, 76
2, 107418, Note_on_c, 0, 48, 68
2, 107472, Control_c, 0, 64, 0
2, 107964, Control_c, 0, 64, 127
2, 108032, Note_off_c, 0, 56, 0
2, 108044, Note_off_c, 0, 41, 0
2, 108054, Note_off_c, 0, 48, 0
2, 108058, Note_off_c, 0, 63, 0
2, 108064, Note_off_c, 0, 68, 0
2, 108326, Note_on_c, 0, 72, 68
2, 108340, Note_on_c, 0, 67, 65
2, 108340, Note_on_c, 0, 60, 42
2, 108348, Note_on_c, 0, 51, 52
2, 108352, Note_on_c, 0, 44, 43
2, 108360, Control_c, 0, 64, 0
2, 108510, Note_off_c, 0, 44, 0
2, 108524, Note_off_c, 0, 60, 0
2, 108526, Control_c, 0, 64, 127
2, 108532, Note_off_c, 0, 72, 0
2, 108566, Note_off_c, 0, 67, 0
2, 108576, Note_off_c, 0, 51, 0
2, 108754, Note_on_c, 0, 56, 47
2, 108756, Note_on_c, 0, 75, 55
2, 108756, Note_on_c, 0, 70, 67
2, 108760, Control_c, 0, 64, 0
2, 108764, Note_on_c, 0, 63, 43
2, 108778, Note_on_c, 0, 47, 26
2, 108922, Note_on_c, 0, 63, 0
2, 108922, Control_c, 0, 64, 127
2, 108930, Note_off_c, 0, 70, 0
2, 108940, Note_off_c, 0, 75, 0
2, 108954, Note_off_c, 0, 47, 0
2, 109012, Note_off_c, 0, 56, 0
2, 109086, Note_on_c, 0, 53, 47
2, 109114, Note_on_c, 0, 66, 53
2, 109130, Note_on_c, 0, 53, 0
2, 109158, Note_on_c, 0, 75, 53
2, 109160, Note_on_c, 0, 72, 33
2, 109160, Control_c, 0, 64, 0
2, 109178, Note_on_c, 0, 46, 67
2, 109180, Note_on_c, 0, 66, 0
2, 109180, Note_on_c, 0, 56, 46
2, 109188, Note_on_c, 0, 67, 62
2, 109192, Note_on_c, 0, 79, 72
2, 109310, Note_on_c, 0, 46, 0
2, 109326, Control_c, 0, 64, 127
2, 109348, Note_off_c, 0, 67, 0
2, 109348, Note_off_c, 0, 56, 0
2, 109356, Note_off_c, 0, 79, 0
2, 109372, Note_off_c, 0, 75, 0
2, 109376, Note_off_c, 0, 72, 0
2, 109470, Note_on_c, 0, 68, 50
2, 109470, Note_on_c, 0, 75, 50
2, 109484, Note_on_c, 0, 72, 11
2, 109560, Control_c, 0, 64, 0
2, 109592, Note_on_c, 0, 67, 37
2, 109596, Note_on_c, 0, 63, 44
2, 109602, Note_on_c, 0, 56, 41
2, 109608, Note_on_c, 0, 60, 42
2, 109638, Note_on_c, 0, 67, 0
2, 109648, Note_on_c, 0, 60, 0
2, 109652, Note_on_c, 0, 63, 0
2, 109686, Note_on_c, 0, 56, 0
2, 109970, Control_c, 0, 64, 127
2, 110008, Note_on_c, 0, 56, 35
2, 110008, Note_on_c, 0, 46, 60
2, 110076, Note_on_c, 0, 75, 0
2, 110080, Note_on_c, 0, 72, 0
2, 110118, Note_on_c, 0, 68, 0
2, 110130, Note_on_c, 0, 46, 0
2, 110150, Note_on_c, 0, 56, 0
2, 110452, Note_on_c, 0, 66, 53
2, 110452, Note_on_c, 0, 70, 71
2, 110460, Note_on_c, 0, 62, 47
2, 110462, Control_c, 0, 64, 0
2, 110464, Note_on_c, 0, 58, 52
2, 110470, Note_on_c, 0, 56, 49
2, 110586, Note_on_c, 0, 58, 0
2, 110588, Note_on_c, 0, 56, 0
2, 110602, Note_on_c, 0, 62, 0
2, 110628, Note_on_c, 0, 70, 0
2, 110628, Note_on_c, 0, 66, 0
2, 110636, Control_c, 0, 64, 127
2, 110860, Note_on_c, 0, 75, 95
2, 110864, Note_on_c, 0, 70, 99
2, 110870, Note_on_c, 0, 61, 81
2, 110872, Control_c, 0, 64, 0
2, 110872, Note_on_c, 0, 67, 83
2, 111012, Note_on_c, 0, 61, 0
2, 111036, Note_on_c, 0, 75, 0
2, 111052, Note_on_c, 0, 67, 0
2, 111066, Note_on_c, 0, 70, 0
2, 111112, Note_on_c, 0, 74, 68
2, 111112, Note_on_c, 0, 69, 75
2, 111112, Note_on_c, 0, 60, 58
2, 111118, Note_on_c, 0, 66, 61
2, 111162, Note_on_c, 0, 60, 0
2, 111180, Control_c, 0, 64, 127
2, 111210, Note_off_c, 0, 66, 0
2, 111222, Note_off_c, 0, 74, 0
2, 111236, Note_off_c, 0, 69, 0
2, 111260, Control_c, 0, 64, 0
2, 111286, Note_on_c, 0, 65, 51
2, 111294, Note_on_c, 0, 68, 60
2, 111296, Note_on_c, 0, 59, 17
2, 111296, Note_on_c, 0, 73, 47
2, 111420, Note_on_c, 0, 59, 0
2, 111420, Note_on_c, 0, 65, 0
2, 111430, Note_on_c, 0, 73, 0
2, 111434, Control_c, 0, 64, 127
2, 111460, Note_off_c, 0, 68, 0
2, 111528, Control_c, 0, 64, 0
2, 111530, Note_on_c, 0, 58, 96
2, 111530, Note_on_c, 0, 64, 87
2, 111530, Note_on_c, 0, 72, 73
2, 111534, Note_on_c, 0, 67, 75
2, 111650, Note_on_c, 0, 72, 0
2, 111654, Note_on_c, 0, 58, 0
2, 111660, Note_on_c, 0, 64, 0
2, 111664, Note_on_c, 0, 67, 0
2, 111912, Note_on_c, 0, 71, 88
2, 111916, Note_on_c, 0, 63, 91
2, 111916, Note_on_c, 0, 66, 88
2, 111920, Note_on_c, 0, 57, 84
2, 112090, Note_on_c, 0, 57, 0
2, 112094, Note_on_c, 0, 66, 0
2, 112112, Note_on_c, 0, 63, 0
2, 112140, Note_on_c, 0, 71, 0
2, 112288, Note_on_c, 0, 70, 91
2, 112292, Note_on_c, 0, 56, 60
2, 112292, Note_on_c, 0, 62, 63
2, 112292, Note_on_c, 0, 65, 69
2, 112316, Control_c, 0, 64, 127
2, 112340, Note_off_c, 0, 56, 0
2, 112344, Note_off_c, 0, 62, 0
2, 112364, Note_off_c, 0, 65, 0
2, 112378, Note_off_c, 0, 70, 0
2, 112452, Note_on_c, 0, 69, 71
2, 112452, Note_on_c, 0, 64, 78
2, 112454, Note_on_c, 0, 61, 70
2, 112454, Note_on_c, 0, 55, 65
2, 112458, Control_c, 0, 64, 0
2, 112552, Note_off_c, 0, 55, 0
2, 112584, Note_off_c, 0, 64, 0
2, 112606, Note_off_c, 0, 61, 0
2, 112620, Note_off_c, 0, 69, 0
2, 112624, Control_c, 0, 64, 127
2, 112676, Note_on_c, 0, 60, 45
2, 112678, Note_on_c, 0, 54, 34
2, 112680, Note_on_c, 0, 68, 67
2, 112680, Note_on_c, 0, 63, 67
2, 112734, Note_on_c, 0, 68, 0
2, 112742, Note_on_c, 0, 60, 0
2, 112746, Note_on_c, 0, 54, 0
2, 112768, Note_on_c, 0, 63, 0
2, 112838, Control_c, 0, 64, 0
2, 112840, Note_on_c, 0, 67, 62
2, 112844, Note_on_c, 0, 53, 53
2, 112844, Note_on_c, 0, 59, 57
2, 112846, Note_on_c, 0, 62, 61
2, 112932, Note_on_c, 0, 53, 0
2, 112940, Note_on_c, 0, 59, 0
2, 112962, Note_on_c, 0, 67, 0
2, 112964, Note_on_c, 0, 62, 0
2, 113114, Note_on_c, 0, 66, 66
2, 113114, Note_on_c, 0, 61, 68
2, 113118, Note_on_c, 0, 58, 81
2, 113118, Note_on_c, 0, 52, 60
2, 113182, Note_on_c, 0, 66, 0
2, 113194, Note_on_c, 0, 52, 0
2, 113202, Note_on_c, 0, 58, 0
2, 113202, Note_on_c, 0, 61, 0
2, 113474, Note_on_c, 0, 51, 85
2, 113478, Note_on_c, 0, 57, 84
2, 113480, Note_on_c, 0, 65, 89
2, 113488, Note_on_c, 0, 60, 76
2, 113632, Note_on_c, 0, 65, 0
2, 113634, Note_on_c, 0, 51, 0
2, 113640, Note_on_c, 0, 60, 0
2, 113692, Note_on_c, 0, 57, 0
2, 113862, Note_on_c, 0, 56, 75
2, 113862, Note_on_c, 0, 50, 69
2, 113862, Note_on_c, 0, 64, 92
2, 113868, Note_on_c, 0, 59, 73
2, 113900, Note_on_c, 0, 50, 0
2, 113908, Note_on_c, 0, 59, 0
2, 113920, Note_on_c, 0, 64, 0
2, 113946, Note_on_c, 0, 56, 0
2, 113956, Control_c, 0, 64, 127
2, 114016, Control_c, 0, 64, 0
2, 114024, Note_on_c, 0, 63, 78
2, 114028, Note_on_c, 0, 58, 87
2, 114030, Note_on_c, 0, 55, 81
2, 114030, Note_on_c, 0, 49, 75
2, 114180, Note_on_c, 0, 58, 0
2, 114188, Note_on_c, 0, 63, 0
2, 114230, Note_on_c, 0, 49, 0
2, 114234, Note_on_c, 0, 55, 0
2, 114242, Control_c, 0, 64, 127
2, 114244, Note_on_c, 0, 57, 87
2, 114244, Note_on_c, 0, 62, 82
2, 114292, Note_on_c, 0, 57, 0
2, 114318, Note_on_c, 0, 62, 0
2, 114386, Control_c, 0, 64, 0
2, 114406, Note_on_c, 0, 61, 78
2, 114408, Note_on_c, 0, 47, 46
2, 114540, Note_on_c, 0, 61, 0
2, 114544, Note_on_c, 0, 47, 0
2, 114550, Control_c, 0, 64, 127
2, 114634, Note_on_c, 0, 60, 74
2, 114724, Note_on_c, 0, 60, 0
2, 114792, Note_on_c, 0, 46, 83
2, 114794, Note_on_c, 0, 58, 68
2, 114796, Control_c, 0, 64, 0
2, 114796, Note_on_c, 0, 56, 44
2, 114816, Note_on_c, 0, 50, 27
2, 114874, Note_on_c, 0, 46, 0
2, 114904, Note_on_c, 0, 50, 0
2, 114964, Note_on_c, 0, 58, 0
2, 114984, Note_on_c, 0, 56, 0
2, 115038, Note_on_c, 0, 54, 54
2, 115040, Note_on_c, 0, 60, 58
2, 115052, Control_c, 0, 64, 127
2, 115112, Note_off_c, 0, 54, 0
2, 115160, Note_off_c, 0, 60, 0
2, 115164, Control_c, 0, 64, 0
2, 115194, Note_on_c, 0, 54, 47
2, 115208, Note_on_c, 0, 58, 58
2, 115210, Note_on_c, 0, 38, 38
2, 115222, Note_on_c, 0, 45, 58
2, 115340, Note_on_c, 0, 38, 0
2, 115340, Control_c, 0, 64, 127
2, 115354, Note_off_c, 0, 45, 0
2, 115370, Note_off_c, 0, 54, 0
2, 115398, Note_off_c, 0, 58, 0
2, 115432, Control_c, 0, 64, 0
2, 115454, Note_on_c, 0, 63, 84
2, 115454, Note_on_c, 0, 58, 93
2, 115454, Note_on_c, 0, 55, 87
2, 115456, Note_on_c, 0, 53, 89
2, 115456, Note_on_c, 0, 39, 92
2, 115462, Note_on_c, 0, 46, 106
2, 115462, Note_on_c, 0, 60, 85
2, 115482, Note_on_c, 0, 39, 0
2, 115486, Note_on_c, 0, 55, 0
2, 115488, Note_on_c, 0, 53, 0
2, 115490, Note_on_c, 0, 60, 0
2, 115498, Note_on_c, 0, 46, 0
2, 115512, Note_on_c, 0, 58, 0
2, 115516, Note_on_c, 0, 63, 0
2, 115982, Control_c, 0, 64, 127
2, 116106, Control_c, 0, 64, 0
2, 116120, Note_on_c, 0, 84, 75
2, 116124, Note_on_c, 0, 78, 56
2, 116126, Note_on_c, 0, 74, 58
2, 116128, Note_on_c, 0, 68, 53
2, 116134, Note_on_c, 0, 64, 57
2, 116220, Control_c, 0, 64, 127
2, 116226, Note_off_c, 0, 84, 0
2, 116236, Note_off_c, 0, 64, 0
2, 116242, Note_off_c, 0, 74, 0
2, 116276, Note_off_c, 0, 68, 0
2, 116280, Note_off_c, 0, 78, 0
2, 116408, Note_on_c, 0, 73, 69
2, 116408, Note_on_c, 0, 87, 64
2, 116412, Note_on_c, 0, 79, 54
2, 116416, Note_on_c, 0, 63, 59
2, 116420, Note_on_c, 0, 84, 61
2, 116424, Note_on_c, 0, 82, 65
2, 116424, Control_c, 0, 64, 0
2, 116424, Note_on_c, 0, 67, 57
2, 116452, Note_on_c, 0, 84, 0
2, 116460, Note_on_c, 0, 82, 0
2, 116462, Note_on_c, 0, 67, 0
2, 116476, Note_on_c, 0, 79, 0
2, 116476, Note_on_c, 0, 73, 0
2, 116480, Note_on_c, 0, 87, 0
2, 116484, Note_on_c, 0, 63, 0
2, 117016, Note_on_c, 0, 27, 50
2, 117162, Control_c, 0, 64, 127
2, 117300, Note_off_c, 0, 27, 0
2, 117326, Control_c, 0, 64, 0
2, 117518, End_track
0, 0, End_of_file
