0, 0, Header, 1, 2, 384
1, 0, Start_track
1, 0, Text_t, "{GNMIDI}Generated by  GNMIDI demo (http://www.gnmidi.com)\012"
1, 0, Time_signature, 4, 2, 24, 8
1, 0, Tempo, 500000
1, 203000, End_track
2, 0, Start_track
2, 0, Text_t, "{GNMIDI}Generated by  GNMIDI demo (http://www.gnmidi.com)\012"
2, 0, Title_t, "Acoustic Grand Piano"
2, 1152, Program_c, 2, 0
2, 1152, Control_c, 2, 7, 127
2, 1152, Control_c, 2, 10, 64
2, 1536, Control_c, 2, 67, 127
2, 1880, Note_on_c, 2, 69, 50
2, 1884, Note_on_c, 2, 79, 59
2, 1892, Note_on_c, 2, 72, 42
2, 1904, Note_on_c, 2, 65, 29
2, 1908, Note_on_c, 2, 60, 21
2, 1916, Note_on_c, 2, 55, 22
2, 2064, Control_c, 2, 64, 127
2, 2236, Note_off_c, 2, 79, 0
2, 2244, Note_off_c, 2, 72, 0
2, 2316, Note_off_c, 2, 69, 0
2, 2524, Note_on_c, 2, 76, 73
2, 2528, Note_on_c, 2, 65, 0
2, 2552, Control_c, 2, 64, 0
2, 2984, Control_c, 2, 64, 127
2, 3080, Note_off_c, 2, 60, 0
2, 3120, Note_off_c, 2, 55, 0
2, 3204, Note_off_c, 2, 76, 0
2, 3320, Note_on_c, 2, 72, 68
2, 3384, Note_on_c, 2, 72, 0
2, 3484, Control_c, 2, 64, 0
2, 3484, Note_on_c, 2, 67, 52
2, 3504, Note_on_c, 2, 59, 30
2, 3544, Note_on_c, 2, 68, 61
2, 3592, Note_on_c, 2, 67, 0
2, 3948, Note_on_c, 2, 76, 62
2, 4268, Note_on_c, 2, 76, 0
2, 4268, Note_on_c, 2, 74, 72
2, 4444, Control_c, 2, 64, 127
2, 4624, Note_off_c, 2, 74, 0
2, 4684, Note_off_c, 2, 59, 0
2, 4728, Note_off_c, 2, 68, 0
2, 5196, Note_on_c, 2, 74, 18
2, 5204, Note_on_c, 2, 72, 51
2, 5244, Note_on_c, 2, 71, 56
2, 5248, Note_on_c, 2, 74, 0
2, 5288, Control_c, 2, 64, 0
2, 5288, Note_on_c, 2, 70, 64
2, 5296, Note_on_c, 2, 72, 0
2, 5332, Note_on_c, 2, 71, 0
2, 5352, Note_on_c, 2, 62, 18
2, 5356, Note_on_c, 2, 57, 42
2, 5356, Note_on_c, 2, 55, 26
2, 5356, Note_on_c, 2, 58, 45
2, 5364, Note_on_c, 2, 69, 48
2, 5368, Note_on_c, 2, 52, 45
2, 5376, Note_on_c, 2, 70, 0
2, 5636, Note_on_c, 2, 69, 0
2, 5708, Note_on_c, 2, 70, 76
2, 5788, Note_on_c, 2, 70, 0
2, 5844, Note_on_c, 2, 74, 55
2, 5892, Note_on_c, 2, 52, 0
2, 5896, Note_on_c, 2, 57, 0
2, 5904, Note_on_c, 2, 55, 0
2, 5916, Control_c, 2, 64, 127
2, 5928, Note_off_c, 2, 58, 0
2, 5952, Note_off_c, 2, 62, 0
2, 6144, Note_off_c, 2, 74, 0
2, 6156, Note_on_c, 2, 77, 61
2, 6216, Note_on_c, 2, 77, 0
2, 6304, Note_on_c, 2, 81, 80
2, 6308, Note_on_c, 2, 65, 32
2, 6316, Note_on_c, 2, 60, 39
2, 6316, Note_on_c, 2, 61, 49
2, 6320, Control_c, 2, 64, 0
2, 6324, Note_on_c, 2, 55, 35
2, 6408, Note_on_c, 2, 81, 0
2, 6628, Note_on_c, 2, 84, 85
2, 6804, Note_on_c, 2, 84, 0
2, 6828, Control_c, 2, 64, 127
2, 6848, Note_off_c, 2, 55, 0
2, 6888, Note_off_c, 2, 60, 0
2, 6920, Note_off_c, 2, 65, 0
2, 6928, Note_off_c, 2, 61, 0
2, 7148, Note_on_c, 2, 80, 70
2, 7280, Control_c, 2, 64, 0
2, 7304, Note_on_c, 2, 65, 23
2, 7308, Note_on_c, 2, 58, 64
2, 7308, Note_on_c, 2, 61, 45
2, 7308, Note_on_c, 2, 77, 57
2, 7312, Note_on_c, 2, 54, 32
2, 7380, Note_on_c, 2, 80, 0
2, 7640, Note_on_c, 2, 68, 72
2, 7768, Note_on_c, 2, 68, 0
2, 7788, Note_on_c, 2, 77, 0
2, 7792, Note_on_c, 2, 73, 80
2, 7848, Note_on_c, 2, 65, 0
2, 7852, Control_c, 2, 64, 127
2, 7872, Note_off_c, 2, 58, 0
2, 7880, Note_off_c, 2, 54, 0
2, 7896, Note_off_c, 2, 73, 0
2, 7904, Note_off_c, 2, 61, 0
2, 8108, Note_on_c, 2, 67, 57
2, 8112, Note_on_c, 2, 64, 45
2, 8120, Note_on_c, 2, 60, 37
2, 8120, Note_on_c, 2, 57, 38
2, 8124, Note_on_c, 2, 53, 36
2, 8140, Control_c, 2, 64, 0
2, 8224, Note_off_c, 2, 67, 0
2, 8320, Note_off_c, 2, 60, 0
2, 8436, Note_off_c, 2, 57, 0
2, 8564, Note_on_c, 2, 78, 83
2, 8576, Note_on_c, 2, 67, 79
2, 8584, Note_on_c, 2, 79, 84
2, 8632, Note_on_c, 2, 78, 0
2, 8740, Note_on_c, 2, 59, 69
2, 8756, Note_on_c, 2, 67, 0
2, 8760, Control_c, 2, 64, 127
2, 8784, Note_off_c, 2, 59, 0
2, 8788, Note_off_c, 2, 64, 0
2, 8800, Note_off_c, 2, 53, 0
2, 8904, Note_off_c, 2, 79, 0
2, 9088, Note_on_c, 2, 78, 64
2, 9188, Control_c, 2, 64, 0
2, 9208, Note_off_c, 2, 78, 0
2, 9220, Note_on_c, 2, 52, 28
2, 9224, Note_on_c, 2, 36, 46
2, 9228, Note_on_c, 2, 67, 49
2, 9228, Note_on_c, 2, 79, 48
2, 9292, Note_on_c, 2, 52, 0
2, 9296, Note_on_c, 2, 36, 0
2, 9332, Note_on_c, 2, 67, 0
2, 9380, Note_on_c, 2, 79, 0
2, 9704, Note_on_c, 2, 64, 32
2, 9708, Note_on_c, 2, 60, 33
2, 9708, Note_on_c, 2, 57, 29
2, 9712, Note_on_c, 2, 55, 37
2, 9780, Note_on_c, 2, 60, 0
2, 9784, Note_on_c, 2, 57, 0
2, 9784, Note_on_c, 2, 64, 0
2, 9792, Note_on_c, 2, 55, 0
2, 10164, Note_on_c, 2, 71, 61
2, 10168, Note_on_c, 2, 79, 52
2, 10168, Note_on_c, 2, 76, 57
2, 10172, Note_on_c, 2, 45, 42
2, 10172, Note_on_c, 2, 83, 57
2, 10172, Note_on_c, 2, 55, 35
2, 10248, Note_on_c, 2, 76, 0
2, 10252, Note_on_c, 2, 71, 0
2, 10260, Note_on_c, 2, 79, 0
2, 10272, Note_on_c, 2, 55, 0
2, 10280, Note_on_c, 2, 83, 0
2, 10284, Note_on_c, 2, 45, 0
2, 10664, Note_on_c, 2, 52, 38
2, 10676, Note_on_c, 2, 37, 55
2, 10740, Control_c, 2, 64, 127
2, 10752, Note_off_c, 2, 37, 0
2, 10756, Note_off_c, 2, 52, 0
2, 10996, Note_on_c, 2, 81, 64
2, 10996, Note_on_c, 2, 69, 57
2, 11000, Note_on_c, 2, 72, 65
2, 11000, Note_on_c, 2, 76, 69
2, 11040, Control_c, 2, 64, 0
2, 11092, Note_off_c, 2, 72, 0
2, 11100, Note_off_c, 2, 81, 0
2, 11108, Note_off_c, 2, 76, 0
2, 11112, Note_off_c, 2, 69, 0
2, 11128, Note_on_c, 2, 53, 29
2, 11132, Note_on_c, 2, 38, 33
2, 11196, Note_on_c, 2, 38, 0
2, 11464, Note_on_c, 2, 67, 51
2, 11464, Note_on_c, 2, 72, 57
2, 11468, Note_on_c, 2, 79, 56
2, 11468, Note_on_c, 2, 76, 57
2, 11532, Note_on_c, 2, 72, 0
2, 11536, Note_on_c, 2, 76, 0
2, 11552, Note_on_c, 2, 79, 0
2, 11576, Note_on_c, 2, 67, 0
2, 11604, Note_on_c, 2, 44, 43
2, 11664, Control_c, 2, 64, 127
2, 11708, Note_off_c, 2, 44, 0
2, 11892, Control_c, 2, 64, 0
2, 11932, Note_on_c, 2, 67, 57
2, 11932, Note_on_c, 2, 68, 66
2, 11944, Note_on_c, 2, 76, 55
2, 11944, Note_on_c, 2, 71, 64
2, 12000, Note_on_c, 2, 67, 0
2, 12020, Note_on_c, 2, 68, 0
2, 12044, Note_on_c, 2, 71, 0
2, 12052, Note_on_c, 2, 76, 0
2, 12092, Note_on_c, 2, 43, 29
2, 12404, Note_on_c, 2, 68, 61
2, 12408, Note_on_c, 2, 74, 60
2, 12412, Note_on_c, 2, 65, 56
2, 12476, Note_on_c, 2, 68, 0
2, 12512, Note_on_c, 2, 65, 0
2, 12512, Note_on_c, 2, 74, 0
2, 12600, Note_on_c, 2, 50, 30
2, 12652, Control_c, 2, 64, 127
2, 12676, Note_off_c, 2, 50, 0
2, 12680, Note_off_c, 2, 43, 0
2, 12680, Note_off_c, 2, 53, 0
2, 12888, Note_on_c, 2, 70, 64
2, 12896, Note_on_c, 2, 64, 54
2, 12900, Note_on_c, 2, 76, 54
2, 12936, Note_on_c, 2, 71, 44
2, 12940, Control_c, 2, 64, 0
2, 12944, Note_off_c, 2, 70, 0
2, 13044, Note_on_c, 2, 52, 30
2, 13060, Note_on_c, 2, 36, 39
2, 13136, Note_on_c, 2, 52, 0
2, 13144, Note_on_c, 2, 36, 0
2, 13144, Control_c, 2, 64, 127
2, 13408, Note_on_c, 2, 34, 45
2, 13432, Control_c, 2, 64, 0
2, 13488, Control_c, 2, 67, 0
2, 13544, Note_on_c, 2, 50, 55
2, 13556, Note_on_c, 2, 34, 0
2, 13592, Control_c, 2, 64, 127
2, 13636, Note_off_c, 2, 50, 0
2, 13996, Control_c, 2, 64, 0
2, 14016, Note_on_c, 2, 49, 54
2, 14028, Note_on_c, 2, 33, 44
2, 14104, Note_on_c, 2, 33, 0
2, 14112, Note_on_c, 2, 49, 0
2, 14112, Control_c, 2, 64, 127
2, 14448, Control_c, 2, 64, 0
2, 14488, Note_on_c, 2, 37, 64
2, 14496, Note_on_c, 2, 52, 32
2, 14524, Note_on_c, 2, 64, 0
2, 14536, Note_on_c, 2, 71, 0
2, 14560, Control_c, 2, 64, 127
2, 14576, Note_off_c, 2, 76, 0
2, 14588, Note_off_c, 2, 52, 0
2, 14600, Note_off_c, 2, 37, 0
2, 14844, Note_on_c, 2, 45, 38
2, 14852, Control_c, 2, 64, 0
2, 14980, Note_on_c, 2, 53, 51
2, 14984, Note_on_c, 2, 38, 58
2, 15028, Control_c, 2, 64, 127
2, 15032, Note_off_c, 2, 45, 0
2, 15052, Note_off_c, 2, 38, 0
2, 15052, Note_off_c, 2, 53, 0
2, 15300, Control_c, 2, 64, 0
2, 15316, Note_on_c, 2, 79, 93
2, 15316, Note_on_c, 2, 67, 97
2, 15320, Note_on_c, 2, 72, 97
2, 15320, Note_on_c, 2, 76, 90
2, 15380, Note_on_c, 2, 72, 0
2, 15388, Note_on_c, 2, 67, 0
2, 15400, Note_on_c, 2, 76, 0
2, 15428, Note_on_c, 2, 79, 0
2, 15476, Note_on_c, 2, 54, 44
2, 15476, Note_on_c, 2, 44, 54
2, 15756, Note_on_c, 2, 54, 0
2, 15788, Note_on_c, 2, 44, 0
2, 15812, Note_on_c, 2, 74, 90
2, 15816, Note_on_c, 2, 75, 98
2, 15844, Note_on_c, 2, 76, 68
2, 15864, Note_on_c, 2, 74, 0
2, 15892, Note_on_c, 2, 75, 0
2, 15972, Note_on_c, 2, 43, 36
2, 15976, Note_on_c, 2, 53, 33
2, 16012, Control_c, 2, 64, 127
2, 16044, Note_off_c, 2, 43, 0
2, 16056, Note_off_c, 2, 53, 0
2, 16236, Note_off_c, 2, 76, 0
2, 16428, Note_on_c, 2, 59, 44
2, 16428, Note_on_c, 2, 62, 39
2, 16432, Note_on_c, 2, 53, 33
2, 16500, Note_on_c, 2, 59, 0
2, 16504, Note_on_c, 2, 62, 0
2, 16508, Note_on_c, 2, 53, 0
2, 16752, Note_on_c, 2, 74, 115
2, 16800, Control_c, 2, 64, 0
2, 16864, Note_off_c, 2, 74, 0
2, 16884, Note_on_c, 2, 36, 44
2, 16908, Note_on_c, 2, 52, 12
2, 16956, Note_on_c, 2, 52, 0
2, 16960, Note_on_c, 2, 36, 0
2, 17036, Note_on_c, 2, 76, 45
2, 17140, Note_on_c, 2, 76, 0
2, 17360, Note_on_c, 2, 60, 28
2, 17360, Note_on_c, 2, 59, 34
2, 17360, Note_on_c, 2, 64, 33
2, 17360, Note_on_c, 2, 55, 30
2, 17444, Note_on_c, 2, 60, 0
2, 17448, Note_on_c, 2, 64, 0
2, 17448, Note_on_c, 2, 59, 0
2, 17452, Note_on_c, 2, 55, 0
2, 17724, Note_on_c, 2, 79, 65
2, 17852, Note_on_c, 2, 79, 0
2, 17872, Note_on_c, 2, 51, 28
2, 17872, Note_on_c, 2, 57, 31
2, 17876, Note_on_c, 2, 41, 35
2, 17892, Note_on_c, 2, 75, 62
2, 17948, Note_on_c, 2, 76, 50
2, 17952, Note_on_c, 2, 51, 0
2, 17956, Note_on_c, 2, 41, 0
2, 17964, Note_on_c, 2, 57, 0
2, 17984, Note_on_c, 2, 75, 0
2, 18332, Note_on_c, 2, 60, 38
2, 18332, Note_on_c, 2, 57, 45
2, 18336, Note_on_c, 2, 51, 47
2, 18412, Note_on_c, 2, 57, 0
2, 18416, Note_on_c, 2, 60, 0
2, 18424, Note_on_c, 2, 51, 0
2, 18668, Note_on_c, 2, 76, 0
2, 18696, Note_on_c, 2, 74, 22
2, 18812, Note_on_c, 2, 55, 32
2, 18828, Note_on_c, 2, 40, 41
2, 18828, Note_on_c, 2, 76, 47
2, 18832, Note_on_c, 2, 74, 0
2, 18884, Note_on_c, 2, 55, 0
2, 18888, Note_on_c, 2, 40, 0
2, 18888, Control_c, 2, 64, 127
2, 18900, Note_off_c, 2, 76, 0
2, 19296, Note_on_c, 2, 61, 67
2, 19304, Note_on_c, 2, 55, 56
2, 19308, Control_c, 2, 64, 0
2, 19368, Note_off_c, 2, 61, 0
2, 19388, Note_off_c, 2, 55, 0
2, 19632, Note_on_c, 2, 81, 17
2, 19664, Note_on_c, 2, 82, 56
2, 19708, Note_on_c, 2, 83, 47
2, 19716, Note_on_c, 2, 81, 0
2, 19768, Note_on_c, 2, 82, 0
2, 19788, Note_on_c, 2, 37, 58
2, 19792, Note_on_c, 2, 84, 73
2, 19800, Note_on_c, 2, 83, 0
2, 19844, Note_on_c, 2, 37, 0
2, 19872, Control_c, 2, 64, 127
2, 19900, Note_off_c, 2, 84, 0
2, 20252, Note_on_c, 2, 64, 40
2, 20252, Note_on_c, 2, 61, 48
2, 20260, Note_on_c, 2, 55, 33
2, 20268, Note_on_c, 2, 58, 64
2, 20304, Note_on_c, 2, 58, 0
2, 20316, Note_on_c, 2, 61, 0
2, 20320, Note_on_c, 2, 64, 0
2, 20328, Note_on_c, 2, 55, 0
2, 20588, Note_on_c, 2, 76, 35
2, 20632, Note_on_c, 2, 77, 48
2, 20656, Control_c, 2, 64, 0
2, 20672, Note_on_c, 2, 78, 63
2, 20676, Note_on_c, 2, 76, 0
2, 20728, Note_on_c, 2, 79, 78
2, 20752, Note_on_c, 2, 77, 0
2, 20752, Note_on_c, 2, 53, 21
2, 20756, Note_on_c, 2, 38, 36
2, 20764, Note_on_c, 2, 78, 0
2, 21028, Note_on_c, 2, 79, 0
2, 21212, Note_on_c, 2, 76, 83
2, 21360, Note_on_c, 2, 76, 0
2, 21376, Note_on_c, 2, 74, 34
2, 21484, Note_on_c, 2, 74, 0
2, 21532, Note_on_c, 2, 72, 42
2, 21688, Note_on_c, 2, 72, 0
2, 21716, Note_on_c, 2, 69, 28
2, 22032, Note_on_c, 2, 69, 0
2, 22044, Note_on_c, 2, 65, 42
2, 22152, Note_on_c, 2, 38, 0
2, 22156, Note_on_c, 2, 65, 0
2, 22172, Note_on_c, 2, 68, 69
2, 22228, Note_on_c, 2, 53, 0
2, 22232, Control_c, 2, 64, 127
2, 22300, Note_off_c, 2, 68, 0
2, 22500, Note_on_c, 2, 67, 71
2, 22512, Note_on_c, 2, 64, 58
2, 22540, Control_c, 2, 64, 0
2, 22708, Control_c, 2, 64, 127
2, 22716, Control_c, 2, 64, 0
2, 22796, Control_c, 2, 64, 127
2, 22980, Note_on_c, 2, 53, 64
2, 22984, Note_on_c, 2, 43, 61
2, 22992, Note_on_c, 2, 67, 0
2, 23048, Note_on_c, 2, 43, 0
2, 23048, Note_on_c, 2, 64, 0
2, 23076, Note_on_c, 2, 53, 0
2, 23628, Note_on_c, 2, 69, 81
2, 23632, Note_on_c, 2, 59, 56
2, 23640, Note_on_c, 2, 53, 57
2, 23640, Control_c, 2, 64, 0
2, 24124, Note_on_c, 2, 71, 104
2, 24152, Control_c, 2, 64, 127
2, 24160, Note_off_c, 2, 59, 0
2, 24172, Note_off_c, 2, 53, 0
2, 24172, Note_off_c, 2, 69, 0
2, 24308, Note_off_c, 2, 71, 0
2, 24448, Note_on_c, 2, 40, 51
2, 24504, Control_c, 2, 64, 0
2, 24592, Note_on_c, 2, 67, 55
2, 24596, Note_on_c, 2, 72, 63
2, 24596, Note_on_c, 2, 60, 60
2, 24604, Note_on_c, 2, 55, 40
2, 24636, Note_on_c, 2, 40, 0
2, 24648, Note_on_c, 2, 55, 0
2, 24680, Note_on_c, 2, 60, 0
2, 24692, Note_on_c, 2, 67, 0
2, 24720, Note_on_c, 2, 72, 0
2, 25072, Note_on_c, 2, 60, 40
2, 25076, Note_on_c, 2, 64, 37
2, 25080, Note_on_c, 2, 55, 35
2, 25080, Note_on_c, 2, 57, 44
2, 25148, Note_on_c, 2, 60, 0
2, 25156, Note_on_c, 2, 57, 0
2, 25156, Note_on_c, 2, 64, 0
2, 25164, Note_on_c, 2, 55, 0
2, 25548, Note_on_c, 2, 39, 62
2, 25552, Note_on_c, 2, 75, 62
2, 25552, Note_on_c, 2, 72, 56
2, 25556, Note_on_c, 2, 84, 60
2, 25556, Note_on_c, 2, 78, 71
2, 25564, Note_on_c, 2, 54, 27
2, 25608, Note_on_c, 2, 75, 0
2, 25616, Note_on_c, 2, 54, 0
2, 25616, Note_on_c, 2, 78, 0
2, 25620, Note_on_c, 2, 72, 0
2, 25624, Note_on_c, 2, 39, 0
2, 25632, Note_on_c, 2, 84, 0
2, 26044, Note_on_c, 2, 63, 59
2, 26044, Note_on_c, 2, 54, 51
2, 26048, Note_on_c, 2, 60, 53
2, 26112, Note_on_c, 2, 63, 0
2, 26116, Note_on_c, 2, 60, 0
2, 26124, Note_on_c, 2, 54, 0
2, 26360, Note_on_c, 2, 72, 66
2, 26360, Note_on_c, 2, 77, 58
2, 26364, Note_on_c, 2, 81, 59
2, 26364, Note_on_c, 2, 84, 61
2, 26432, Note_on_c, 2, 77, 0
2, 26448, Note_on_c, 2, 72, 0
2, 26460, Note_on_c, 2, 81, 0
2, 26476, Note_on_c, 2, 84, 0
2, 26500, Note_on_c, 2, 38, 45
2, 26504, Note_on_c, 2, 53, 34
2, 26572, Control_c, 2, 64, 127
2, 26580, Note_off_c, 2, 53, 0
2, 26580, Note_off_c, 2, 38, 0
2, 26952, Control_c, 2, 64, 0
2, 26976, Note_on_c, 2, 44, 58
2, 26980, Note_on_c, 2, 54, 42
2, 27240, Note_on_c, 2, 54, 0
2, 27304, Note_on_c, 2, 44, 0
2, 27312, Note_on_c, 2, 80, 86
2, 27312, Note_on_c, 2, 86, 88
2, 27312, Note_on_c, 2, 74, 80
2, 27316, Note_on_c, 2, 81, 67
2, 27368, Note_on_c, 2, 80, 0
2, 27412, Note_on_c, 2, 74, 0
2, 27440, Note_on_c, 2, 81, 0
2, 27440, Note_on_c, 2, 86, 0
2, 27464, Note_on_c, 2, 43, 40
2, 27472, Note_on_c, 2, 53, 36
2, 27536, Note_on_c, 2, 43, 0
2, 27544, Note_on_c, 2, 53, 0
2, 27552, Control_c, 2, 64, 127
2, 27804, Note_on_c, 2, 44, 49
2, 27896, Control_c, 2, 64, 0
2, 27952, Note_on_c, 2, 59, 50
2, 27960, Note_on_c, 2, 53, 54
2, 28016, Control_c, 2, 64, 127
2, 28048, Note_off_c, 2, 53, 0
2, 28048, Note_off_c, 2, 59, 0
2, 28052, Note_off_c, 2, 44, 0
2, 28268, Note_on_c, 2, 80, 95
2, 28268, Note_on_c, 2, 76, 95
2, 28272, Note_on_c, 2, 71, 91
2, 28272, Note_on_c, 2, 83, 84
2, 28344, Control_c, 2, 64, 0
2, 28368, Note_off_c, 2, 76, 0
2, 28376, Note_off_c, 2, 83, 0
2, 28384, Note_off_c, 2, 71, 0
2, 28392, Note_off_c, 2, 80, 0
2, 28408, Note_on_c, 2, 55, 47
2, 28412, Note_on_c, 2, 45, 57
2, 28480, Note_on_c, 2, 45, 0
2, 28512, Note_on_c, 2, 55, 0
2, 28516, Note_on_c, 2, 75, 32
2, 28520, Note_on_c, 2, 69, 23
2, 28532, Note_on_c, 2, 81, 18
2, 28616, Note_on_c, 2, 75, 0
2, 28648, Note_on_c, 2, 76, 5
2, 28700, Note_on_c, 2, 69, 0
2, 28740, Note_on_c, 2, 76, 0
2, 28740, Note_on_c, 2, 81, 0
2, 28908, Note_on_c, 2, 64, 29
2, 28912, Note_on_c, 2, 55, 31
2, 28916, Note_on_c, 2, 57, 36
2, 28916, Note_on_c, 2, 60, 39
2, 28924, Note_on_c, 2, 69, 42
2, 28924, Note_on_c, 2, 75, 52
2, 28928, Note_on_c, 2, 81, 42
2, 28996, Note_on_c, 2, 60, 0
2, 29004, Note_on_c, 2, 64, 0
2, 29012, Note_on_c, 2, 57, 0
2, 29012, Note_on_c, 2, 76, 41
2, 29016, Note_on_c, 2, 75, 0
2, 29016, Note_on_c, 2, 55, 0
2, 29176, Note_on_c, 2, 76, 0
2, 29220, Note_on_c, 2, 81, 0
2, 29228, Note_on_c, 2, 69, 0
2, 29256, Note_on_c, 2, 38, 45
2, 29372, Note_on_c, 2, 54, 55
2, 29384, Note_on_c, 2, 69, 40
2, 29392, Note_on_c, 2, 81, 29
2, 29396, Note_on_c, 2, 75, 38
2, 29404, Note_on_c, 2, 78, 64
2, 29424, Note_on_c, 2, 38, 0
2, 29444, Control_c, 2, 64, 127
2, 29500, Note_off_c, 2, 54, 0
2, 29508, Note_off_c, 2, 75, 0
2, 29524, Note_off_c, 2, 78, 0
2, 29528, Note_off_c, 2, 69, 0
2, 29540, Note_off_c, 2, 81, 0
2, 29596, Control_c, 2, 64, 0
2, 29708, Note_on_c, 2, 44, 49
2, 29844, Note_on_c, 2, 69, 44
2, 29848, Note_on_c, 2, 78, 46
2, 29848, Note_on_c, 2, 81, 44
2, 29852, Note_on_c, 2, 75, 53
2, 29852, Note_on_c, 2, 54, 32
2, 29884, Control_c, 2, 64, 127
2, 29916, Note_off_c, 2, 75, 0
2, 29916, Note_off_c, 2, 78, 0
2, 29920, Note_off_c, 2, 54, 0
2, 29940, Note_off_c, 2, 81, 0
2, 29952, Note_off_c, 2, 44, 0
2, 29960, Note_off_c, 2, 69, 0
2, 30160, Control_c, 2, 64, 0
2, 30160, Note_on_c, 2, 70, 72
2, 30164, Note_on_c, 2, 79, 55
2, 30164, Note_on_c, 2, 67, 44
2, 30168, Note_on_c, 2, 74, 64
2, 30220, Note_on_c, 2, 70, 0
2, 30228, Note_on_c, 2, 71, 50
2, 30304, Note_on_c, 2, 43, 41
2, 30308, Note_on_c, 2, 52, 35
2, 30380, Control_c, 2, 64, 127
2, 30396, Note_off_c, 2, 52, 0
2, 30408, Note_off_c, 2, 43, 0
2, 30784, Control_c, 2, 64, 0
2, 30796, Note_on_c, 2, 48, 84
2, 30880, Note_on_c, 2, 74, 0
2, 30884, Note_on_c, 2, 71, 0
2, 30892, Note_on_c, 2, 79, 0
2, 30896, Note_on_c, 2, 48, 0
2, 30900, Control_c, 2, 64, 127
2, 30924, Note_off_c, 2, 67, 0
2, 31264, Note_on_c, 2, 48, 72
2, 31268, Control_c, 2, 64, 0
2, 31272, Note_on_c, 2, 64, 86
2, 31416, Control_c, 2, 64, 127
2, 31608, Note_off_c, 2, 64, 0
2, 31612, Note_off_c, 2, 48, 0
2, 31612, Note_on_c, 2, 69, 82
2, 31724, Control_c, 2, 64, 0
2, 31764, Note_on_c, 2, 57, 58
2, 31772, Note_on_c, 2, 63, 77
2, 31784, Note_on_c, 2, 69, 0
2, 31848, Control_c, 2, 64, 127
2, 31912, Note_off_c, 2, 57, 0
2, 32076, Note_off_c, 2, 63, 0
2, 32212, Control_c, 2, 64, 0
2, 32236, Note_on_c, 2, 40, 50
2, 32240, Note_on_c, 2, 55, 12
2, 32248, Note_on_c, 2, 62, 51
2, 32324, Note_on_c, 2, 55, 0
2, 32324, Note_on_c, 2, 40, 0
2, 32352, Control_c, 2, 64, 127
2, 32380, Note_off_c, 2, 62, 0
2, 32716, Note_on_c, 2, 64, 42
2, 32724, Note_on_c, 2, 62, 46
2, 32724, Note_on_c, 2, 59, 50
2, 32728, Note_on_c, 2, 55, 43
2, 32748, Control_c, 2, 64, 0
2, 32784, Note_off_c, 2, 64, 0
2, 32788, Note_off_c, 2, 62, 0
2, 32796, Note_off_c, 2, 59, 0
2, 32808, Note_off_c, 2, 55, 0
2, 33064, Note_on_c, 2, 66, 99
2, 33068, Note_on_c, 2, 74, 82
2, 33068, Note_on_c, 2, 71, 81
2, 33124, Note_on_c, 2, 67, 73
2, 33128, Note_on_c, 2, 66, 0
2, 33188, Note_on_c, 2, 71, 0
2, 33192, Note_on_c, 2, 67, 0
2, 33204, Note_on_c, 2, 55, 41
2, 33212, Note_on_c, 2, 74, 0
2, 33536, Note_on_c, 2, 79, 84
2, 33540, Note_on_c, 2, 67, 80
2, 33540, Note_on_c, 2, 73, 95
2, 33664, Note_on_c, 2, 73, 0
2, 33688, Note_on_c, 2, 45, 61
2, 33732, Control_c, 2, 64, 127
2, 33764, Note_off_c, 2, 55, 0
2, 33772, Note_off_c, 2, 45, 0
2, 33788, Note_off_c, 2, 79, 0
2, 33820, Note_off_c, 2, 67, 0
2, 34056, Note_on_c, 2, 76, 61
2, 34156, Control_c, 2, 64, 0
2, 34180, Note_off_c, 2, 76, 0
2, 34180, Note_on_c, 2, 79, 65
2, 34184, Note_on_c, 2, 67, 49
2, 34188, Note_on_c, 2, 33, 44
2, 34216, Note_on_c, 2, 72, 33
2, 34236, Note_on_c, 2, 33, 0
2, 34260, Note_on_c, 2, 72, 0
2, 34284, Note_on_c, 2, 67, 0
2, 34332, Control_c, 2, 64, 127
2, 34340, Note_off_c, 2, 79, 0
2, 34656, Control_c, 2, 64, 0
2, 34672, Note_on_c, 2, 64, 43
2, 34672, Note_on_c, 2, 60, 43
2, 34672, Note_on_c, 2, 55, 36
2, 34744, Note_on_c, 2, 64, 0
2, 34748, Note_on_c, 2, 55, 0
2, 34752, Note_on_c, 2, 60, 0
2, 34996, Note_on_c, 2, 78, 66
2, 34996, Note_on_c, 2, 69, 50
2, 35000, Note_on_c, 2, 81, 51
2, 35004, Note_on_c, 2, 72, 51
2, 35008, Note_on_c, 2, 76, 57
2, 35104, Note_on_c, 2, 81, 0
2, 35112, Note_on_c, 2, 76, 0
2, 35120, Note_on_c, 2, 72, 0
2, 35120, Note_on_c, 2, 78, 0
2, 35136, Note_on_c, 2, 60, 38
2, 35136, Note_on_c, 2, 64, 27
2, 35140, Note_on_c, 2, 54, 37
2, 35144, Note_on_c, 2, 69, 0
2, 35168, Control_c, 2, 64, 127
2, 35204, Note_off_c, 2, 60, 0
2, 35208, Note_off_c, 2, 64, 0
2, 35220, Note_off_c, 2, 54, 0
2, 35464, Note_on_c, 2, 78, 54
2, 35468, Note_on_c, 2, 66, 46
2, 35472, Note_on_c, 2, 73, 65
2, 35472, Note_on_c, 2, 70, 55
2, 35504, Control_c, 2, 64, 0
2, 35524, Note_off_c, 2, 70, 0
2, 35552, Note_off_c, 2, 66, 0
2, 35564, Note_off_c, 2, 73, 0
2, 35592, Note_off_c, 2, 78, 0
2, 35616, Note_on_c, 2, 39, 44
2, 35620, Note_on_c, 2, 54, 16
2, 35636, Control_c, 2, 64, 127
2, 35724, Note_off_c, 2, 54, 0
2, 35732, Note_off_c, 2, 39, 0
2, 35940, Note_on_c, 2, 72, 42
2, 35940, Note_on_c, 2, 79, 47
2, 35940, Note_on_c, 2, 76, 45
2, 35944, Note_on_c, 2, 67, 41
2, 35988, Control_c, 2, 64, 0
2, 36040, Note_off_c, 2, 67, 0
2, 36052, Note_off_c, 2, 72, 0
2, 36064, Note_off_c, 2, 76, 0
2, 36080, Note_on_c, 2, 38, 43
2, 36080, Note_on_c, 2, 53, 32
2, 36084, Note_on_c, 2, 79, 0
2, 36136, Control_c, 2, 64, 127
2, 36184, Note_off_c, 2, 38, 0
2, 36192, Note_off_c, 2, 53, 0
2, 36532, Control_c, 2, 64, 0
2, 36552, Note_on_c, 2, 55, 36
2, 36560, Note_on_c, 2, 40, 42
2, 36564, Note_on_c, 2, 81, 102
2, 36648, Note_on_c, 2, 40, 0
2, 36680, Note_on_c, 2, 55, 0
2, 36768, Note_on_c, 2, 81, 0
2, 36904, Note_on_c, 2, 80, 91
2, 37044, Note_on_c, 2, 80, 0
2, 37044, Note_on_c, 2, 54, 32
2, 37056, Note_on_c, 2, 44, 53
2, 37056, Note_on_c, 2, 79, 51
2, 37116, Control_c, 2, 64, 127
2, 37160, Note_off_c, 2, 44, 0
2, 37168, Note_off_c, 2, 54, 0
2, 37244, Note_off_c, 2, 79, 0
2, 37400, Note_on_c, 2, 78, 88
2, 37468, Control_c, 2, 64, 0
2, 37532, Note_on_c, 2, 53, 41
2, 37536, Note_on_c, 2, 78, 0
2, 37540, Note_on_c, 2, 43, 40
2, 37540, Note_on_c, 2, 77, 59
2, 37600, Control_c, 2, 64, 127
2, 37624, Note_off_c, 2, 53, 0
2, 37636, Note_off_c, 2, 43, 0
2, 37668, Note_off_c, 2, 77, 0
2, 37880, Note_on_c, 2, 75, 53
2, 37944, Control_c, 2, 64, 0
2, 37992, Note_off_c, 2, 75, 0
2, 38012, Note_on_c, 2, 76, 68
2, 38020, Note_on_c, 2, 31, 19
2, 38060, Note_on_c, 2, 31, 0
2, 38064, Control_c, 2, 64, 127
2, 38088, Note_off_c, 2, 76, 0
2, 38348, Note_on_c, 2, 79, 78
2, 38460, Control_c, 2, 64, 0
2, 38464, Note_off_c, 2, 79, 0
2, 38492, Note_on_c, 2, 64, 29
2, 38492, Note_on_c, 2, 59, 41
2, 38500, Note_on_c, 2, 53, 28
2, 38500, Note_on_c, 2, 76, 60
2, 38808, Note_on_c, 2, 76, 0
2, 38832, Note_on_c, 2, 71, 54
2, 38952, Note_on_c, 2, 71, 0
2, 38964, Note_on_c, 2, 67, 45
2, 38972, Note_on_c, 2, 56, 40
2, 38988, Note_on_c, 2, 64, 0
2, 39008, Control_c, 2, 64, 127
2, 39028, Note_off_c, 2, 59, 0
2, 39040, Note_off_c, 2, 53, 0
2, 39064, Note_off_c, 2, 67, 0
2, 39068, Note_off_c, 2, 56, 0
2, 39468, Note_on_c, 2, 64, 99
2, 39484, Control_c, 2, 64, 0
2, 39752, Note_off_c, 2, 64, 0
2, 39796, Note_on_c, 2, 65, 57
2, 39928, Note_on_c, 2, 65, 0
2, 39956, Note_on_c, 2, 67, 50
2, 39968, Note_on_c, 2, 62, 38
2, 40256, Control_c, 2, 64, 127
2, 40260, Note_on_c, 2, 36, 48
2, 40264, Note_on_c, 2, 52, 44
2, 40388, Note_on_c, 2, 52, 0
2, 40388, Note_on_c, 2, 67, 0
2, 40392, Note_on_c, 2, 36, 0
2, 40456, Note_on_c, 2, 62, 0
2, 40884, Control_c, 2, 64, 0
2, 40912, Note_on_c, 2, 71, 59
2, 41224, Note_on_c, 2, 55, 31
2, 41232, Note_on_c, 2, 39, 32
2, 41232, Note_on_c, 2, 61, 52
2, 41236, Note_on_c, 2, 65, 44
2, 41348, Control_c, 2, 64, 127
2, 41408, Note_off_c, 2, 55, 0
2, 41420, Note_off_c, 2, 39, 0
2, 41456, Note_off_c, 2, 65, 0
2, 41460, Note_off_c, 2, 71, 0
2, 41476, Note_off_c, 2, 61, 0
2, 41760, Note_on_c, 2, 38, 57
2, 41800, Control_c, 2, 64, 0
2, 41852, Note_off_c, 2, 38, 0
2, 41868, Note_on_c, 2, 53, 49
2, 41876, Note_on_c, 2, 63, 80
2, 41884, Note_on_c, 2, 60, 53
2, 41888, Note_on_c, 2, 69, 51
2, 41944, Note_on_c, 2, 63, 0
2, 41944, Note_on_c, 2, 64, 58
2, 42044, Note_on_c, 2, 69, 0
2, 42048, Note_on_c, 2, 60, 0
2, 42084, Note_on_c, 2, 64, 0
2, 42324, Note_on_c, 2, 44, 51
2, 42328, Note_on_c, 2, 67, 54
2, 42328, Note_on_c, 2, 64, 50
2, 42332, Note_on_c, 2, 60, 42
2, 42372, Control_c, 2, 64, 127
2, 42424, Note_off_c, 2, 44, 0
2, 42444, Note_off_c, 2, 64, 0
2, 42460, Note_off_c, 2, 53, 0
2, 42468, Note_off_c, 2, 67, 0
2, 42476, Note_off_c, 2, 60, 0
2, 42652, Control_c, 2, 64, 0
2, 42664, Note_on_c, 2, 62, 37
2, 42664, Note_on_c, 2, 59, 47
2, 42672, Note_on_c, 2, 63, 70
2, 42676, Note_on_c, 2, 53, 34
2, 42680, Note_on_c, 2, 43, 41
2, 42724, Note_on_c, 2, 62, 0
2, 42728, Note_on_c, 2, 64, 34
2, 42748, Note_on_c, 2, 63, 0
2, 42908, Control_c, 2, 64, 127
2, 43036, Note_off_c, 2, 59, 0
2, 43136, Note_off_c, 2, 64, 0
2, 43164, Note_on_c, 2, 59, 65
2, 43280, Note_on_c, 2, 59, 0
2, 43300, Note_on_c, 2, 50, 78
2, 43304, Note_on_c, 2, 62, 88
2, 43340, Note_on_c, 2, 53, 0
2, 43348, Note_on_c, 2, 43, 0
2, 43356, Note_on_c, 2, 50, 0
2, 43408, Note_on_c, 2, 62, 0
2, 43728, Control_c, 2, 64, 0
2, 43760, Note_on_c, 2, 52, 37
2, 43760, Note_on_c, 2, 58, 69
2, 43760, Note_on_c, 2, 36, 44
2, 43768, Note_on_c, 2, 64, 63
2, 43796, Note_on_c, 2, 59, 43
2, 43824, Note_on_c, 2, 58, 0
2, 43884, Control_c, 2, 64, 127
2, 43896, Note_off_c, 2, 59, 0
2, 43924, Note_off_c, 2, 64, 0
2, 43952, Note_off_c, 2, 52, 0
2, 43996, Note_off_c, 2, 36, 0
2, 44228, Control_c, 2, 64, 0
2, 44244, Note_on_c, 2, 60, 46
2, 44252, Note_on_c, 2, 65, 54
2, 44256, Note_on_c, 2, 38, 43
2, 44368, Control_c, 2, 64, 127
2, 44416, Note_off_c, 2, 65, 0
2, 44420, Note_off_c, 2, 60, 0
2, 44500, Note_off_c, 2, 38, 0
2, 44688, Control_c, 2, 64, 0
2, 44728, Note_on_c, 2, 61, 41
2, 44736, Note_on_c, 2, 39, 39
2, 44740, Note_on_c, 2, 66, 66
2, 44744, Note_on_c, 2, 58, 39
2, 44812, Control_c, 2, 64, 127
2, 44836, Note_off_c, 2, 66, 0
2, 44856, Note_off_c, 2, 58, 0
2, 44856, Note_off_c, 2, 39, 0
2, 44864, Note_off_c, 2, 61, 0
2, 45144, Control_c, 2, 64, 0
2, 45184, Note_on_c, 2, 62, 40
2, 45184, Note_on_c, 2, 67, 48
2, 45188, Note_on_c, 2, 59, 52
2, 45196, Note_on_c, 2, 40, 43
2, 45284, Control_c, 2, 64, 127
2, 45288, Note_off_c, 2, 40, 0
2, 45308, Note_off_c, 2, 59, 0
2, 45316, Note_off_c, 2, 62, 0
2, 45340, Note_off_c, 2, 67, 0
2, 45692, Control_c, 2, 64, 0
2, 45700, Note_on_c, 2, 39, 66
2, 46024, Note_on_c, 2, 79, 98
2, 46024, Note_on_c, 2, 73, 100
2, 46024, Note_on_c, 2, 67, 88
2, 46028, Note_on_c, 2, 70, 100
2, 46156, Note_on_c, 2, 73, 0
2, 46156, Note_on_c, 2, 79, 0
2, 46168, Note_on_c, 2, 70, 0
2, 46176, Note_on_c, 2, 55, 64
2, 46204, Note_on_c, 2, 67, 0
2, 46212, Control_c, 2, 64, 127
2, 46224, Note_off_c, 2, 39, 0
2, 46264, Note_off_c, 2, 55, 0
2, 46500, Note_on_c, 2, 68, 79
2, 46504, Note_on_c, 2, 72, 71
2, 46508, Note_on_c, 2, 76, 69
2, 46508, Note_on_c, 2, 64, 64
2, 46528, Control_c, 2, 64, 0
2, 46556, Note_off_c, 2, 68, 0
2, 46568, Note_on_c, 2, 69, 28
2, 46640, Note_on_c, 2, 53, 45
2, 46648, Note_on_c, 2, 72, 0
2, 46656, Note_on_c, 2, 38, 32
2, 46660, Note_on_c, 2, 69, 0
2, 46660, Note_on_c, 2, 76, 0
2, 46664, Note_on_c, 2, 64, 0
2, 46704, Control_c, 2, 64, 127
2, 46720, Note_off_c, 2, 38, 0
2, 46728, Note_off_c, 2, 53, 0
2, 46972, Note_on_c, 2, 71, 47
2, 46972, Note_on_c, 2, 68, 44
2, 46976, Note_on_c, 2, 62, 42
2, 46976, Note_on_c, 2, 74, 52
2, 47040, Control_c, 2, 64, 0
2, 47112, Note_off_c, 2, 71, 0
2, 47116, Note_off_c, 2, 62, 0
2, 47124, Note_off_c, 2, 68, 0
2, 47132, Note_on_c, 2, 37, 50
2, 47136, Note_on_c, 2, 44, 56
2, 47140, Note_on_c, 2, 74, 0
2, 47180, Control_c, 2, 64, 127
2, 47208, Note_off_c, 2, 37, 0
2, 47224, Note_off_c, 2, 44, 0
2, 47448, Note_on_c, 2, 70, 53
2, 47452, Note_on_c, 2, 64, 54
2, 47456, Note_on_c, 2, 76, 49
2, 47476, Note_on_c, 2, 71, 52
2, 47488, Control_c, 2, 64, 0
2, 47512, Note_off_c, 2, 70, 0
2, 47560, Note_off_c, 2, 64, 0
2, 47604, Note_on_c, 2, 52, 28
2, 47608, Note_on_c, 2, 36, 39
2, 47612, Note_on_c, 2, 71, 0
2, 47636, Note_on_c, 2, 76, 0
2, 47656, Control_c, 2, 64, 127
2, 47672, Note_off_c, 2, 36, 0
2, 47680, Note_off_c, 2, 52, 0
2, 48096, Note_on_c, 2, 64, 46
2, 48096, Note_on_c, 2, 55, 43
2, 48096, Note_on_c, 2, 60, 52
2, 48120, Control_c, 2, 64, 0
2, 48160, Note_off_c, 2, 60, 0
2, 48160, Note_off_c, 2, 64, 0
2, 48168, Note_off_c, 2, 55, 0
2, 48432, Note_on_c, 2, 79, 103
2, 48580, Note_on_c, 2, 79, 0
2, 48580, Note_on_c, 2, 56, 36
2, 48588, Note_on_c, 2, 46, 61
2, 48608, Note_on_c, 2, 74, 35
2, 48628, Note_on_c, 2, 75, 48
2, 48668, Note_on_c, 2, 46, 0
2, 48700, Note_on_c, 2, 56, 0
2, 48704, Note_on_c, 2, 74, 0
2, 48724, Note_on_c, 2, 76, 41
2, 48732, Note_on_c, 2, 75, 0
2, 49056, Note_on_c, 2, 62, 47
2, 49056, Note_on_c, 2, 65, 30
2, 49060, Note_on_c, 2, 56, 44
2, 49116, Control_c, 2, 64, 127
2, 49144, Note_off_c, 2, 62, 0
2, 49148, Note_off_c, 2, 65, 0
2, 49156, Note_off_c, 2, 56, 0
2, 49404, Note_off_c, 2, 76, 0
2, 49412, Note_on_c, 2, 74, 41
2, 49476, Control_c, 2, 64, 0
2, 49516, Note_on_c, 2, 45, 36
2, 49520, Note_on_c, 2, 55, 34
2, 49540, Note_on_c, 2, 76, 52
2, 49544, Note_on_c, 2, 74, 0
2, 49608, Control_c, 2, 64, 127
2, 49628, Note_off_c, 2, 45, 0
2, 49632, Note_off_c, 2, 55, 0
2, 49728, Note_off_c, 2, 76, 0
2, 49944, Control_c, 2, 64, 0
2, 50004, Note_on_c, 2, 44, 53
2, 50004, Note_on_c, 2, 54, 34
2, 50048, Control_c, 2, 64, 127
2, 50088, Note_off_c, 2, 44, 0
2, 50112, Note_off_c, 2, 54, 0
2, 50296, Control_c, 2, 64, 0
2, 50340, Note_on_c, 2, 73, 63
2, 50344, Note_on_c, 2, 76, 54
2, 50344, Note_on_c, 2, 79, 52
2, 50348, Note_on_c, 2, 84, 60
2, 50436, Note_on_c, 2, 84, 0
2, 50440, Note_on_c, 2, 76, 0
2, 50444, Note_on_c, 2, 79, 0
2, 50476, Note_on_c, 2, 55, 28
2, 50484, Note_on_c, 2, 45, 25
2, 50488, Note_on_c, 2, 49, 51
2, 50492, Note_on_c, 2, 73, 0
2, 50584, Note_on_c, 2, 49, 0
2, 50584, Note_on_c, 2, 55, 0
2, 50596, Note_on_c, 2, 45, 0
2, 50804, Note_on_c, 2, 70, 61
2, 50804, Note_on_c, 2, 73, 69
2, 50812, Note_on_c, 2, 76, 64
2, 50868, Note_on_c, 2, 73, 0
2, 50904, Note_on_c, 2, 70, 0
2, 50924, Note_on_c, 2, 76, 0
2, 50964, Note_on_c, 2, 52, 28
2, 50984, Note_on_c, 2, 37, 39
2, 51000, Control_c, 2, 64, 127
2, 51068, Note_off_c, 2, 52, 0
2, 51072, Note_off_c, 2, 37, 0
2, 51288, Note_on_c, 2, 76, 47
2, 51288, Note_on_c, 2, 69, 55
2, 51288, Note_on_c, 2, 72, 52
2, 51292, Note_on_c, 2, 79, 55
2, 51328, Control_c, 2, 64, 0
2, 51408, Note_off_c, 2, 69, 0
2, 51416, Note_off_c, 2, 72, 0
2, 51436, Note_on_c, 2, 38, 28
2, 51440, Note_on_c, 2, 53, 31
2, 51452, Note_on_c, 2, 76, 0
2, 51476, Note_on_c, 2, 79, 0
2, 51476, Control_c, 2, 64, 127
2, 51660, Control_c, 2, 64, 0
2, 51708, Note_on_c, 2, 86, 47
2, 51752, Note_on_c, 2, 88, 53
2, 51756, Note_on_c, 2, 86, 0
2, 51804, Note_on_c, 2, 86, 61
2, 51828, Note_on_c, 2, 88, 0
2, 51904, Note_on_c, 2, 86, 0
2, 51936, Note_on_c, 2, 84, 65
2, 51988, Note_on_c, 2, 84, 0
2, 52056, Note_on_c, 2, 81, 61
2, 52120, Note_on_c, 2, 81, 0
2, 52176, Note_on_c, 2, 79, 59
2, 52228, Note_on_c, 2, 79, 0
2, 52296, Note_on_c, 2, 77, 61
2, 52416, Note_on_c, 2, 76, 73
2, 52440, Note_on_c, 2, 77, 0
2, 52524, Note_on_c, 2, 76, 0
2, 52576, Note_on_c, 2, 74, 75
2, 52876, Note_on_c, 2, 45, 68
2, 52916, Note_on_c, 2, 38, 0
2, 52924, Note_on_c, 2, 45, 0
2, 52936, Note_on_c, 2, 74, 0
2, 52936, Control_c, 2, 64, 127
2, 53100, Note_on_c, 2, 70, 47
2, 53160, Note_on_c, 2, 69, 21
2, 53168, Control_c, 2, 64, 0
2, 53212, Note_off_c, 2, 70, 0
2, 53216, Note_on_c, 2, 68, 66
2, 53224, Note_on_c, 2, 69, 0
2, 53332, Note_on_c, 2, 68, 0
2, 53356, Note_on_c, 2, 43, 54
2, 53360, Note_on_c, 2, 67, 57
2, 53408, Note_on_c, 2, 43, 0
2, 53412, Control_c, 2, 64, 127
2, 53444, Note_off_c, 2, 53, 0
2, 53640, Note_off_c, 2, 67, 0
2, 53680, Note_on_c, 2, 79, 88
2, 53784, Control_c, 2, 64, 0
2, 53848, Note_on_c, 2, 62, 38
2, 53852, Note_on_c, 2, 59, 54
2, 53852, Note_on_c, 2, 53, 41
2, 53916, Note_on_c, 2, 59, 0
2, 53916, Note_on_c, 2, 62, 0
2, 53916, Control_c, 2, 64, 127
2, 53940, Note_off_c, 2, 53, 0
2, 53992, Note_off_c, 2, 79, 0
2, 54172, Note_on_c, 2, 76, 87
2, 54172, Note_on_c, 2, 71, 88
2, 54284, Control_c, 2, 64, 0
2, 54304, Note_off_c, 2, 71, 0
2, 54316, Note_off_c, 2, 76, 0
2, 54316, Note_on_c, 2, 67, 60
2, 54320, Note_on_c, 2, 55, 64
2, 54416, Control_c, 2, 64, 127
2, 54468, Note_off_c, 2, 67, 0
2, 54668, Note_on_c, 2, 69, 101
2, 54796, Control_c, 2, 64, 0
2, 54812, Note_on_c, 2, 71, 99
2, 54816, Note_on_c, 2, 69, 0
2, 54816, Note_on_c, 2, 53, 82
2, 54856, Note_on_c, 2, 55, 0
2, 54872, Note_on_c, 2, 53, 0
2, 54928, Control_c, 2, 64, 127
2, 55116, Note_off_c, 2, 71, 0
2, 55160, Note_on_c, 2, 40, 37
2, 55244, Control_c, 2, 64, 0
2, 55304, Note_on_c, 2, 67, 65
2, 55304, Note_on_c, 2, 55, 56
2, 55304, Note_on_c, 2, 72, 79
2, 55344, Note_on_c, 2, 40, 0
2, 55388, Note_on_c, 2, 72, 0
2, 55388, Note_on_c, 2, 67, 0
2, 55392, Note_on_c, 2, 55, 0
2, 55776, Note_on_c, 2, 64, 49
2, 55784, Note_on_c, 2, 60, 50
2, 55788, Note_on_c, 2, 55, 40
2, 55788, Note_on_c, 2, 57, 50
2, 55864, Note_on_c, 2, 64, 0
2, 55868, Note_on_c, 2, 57, 0
2, 55868, Note_on_c, 2, 60, 0
2, 55872, Note_on_c, 2, 55, 0
2, 56168, Note_on_c, 2, 78, 25
2, 56220, Note_on_c, 2, 78, 0
2, 56272, Note_on_c, 2, 39, 65
2, 56276, Note_on_c, 2, 78, 70
2, 56280, Note_on_c, 2, 84, 72
2, 56284, Note_on_c, 2, 75, 67
2, 56284, Note_on_c, 2, 72, 62
2, 56284, Note_on_c, 2, 54, 38
2, 56332, Note_on_c, 2, 54, 0
2, 56344, Note_on_c, 2, 75, 0
2, 56348, Note_on_c, 2, 78, 0
2, 56348, Note_on_c, 2, 39, 0
2, 56348, Control_c, 2, 64, 127
2, 56360, Note_off_c, 2, 72, 0
2, 56392, Note_off_c, 2, 84, 0
2, 56732, Control_c, 2, 64, 0
2, 56748, Note_on_c, 2, 72, 58
2, 56748, Note_on_c, 2, 84, 63
2, 56748, Note_on_c, 2, 78, 71
2, 56752, Note_on_c, 2, 75, 69
2, 56752, Note_on_c, 2, 54, 55
2, 56756, Note_on_c, 2, 63, 53
2, 56760, Note_on_c, 2, 60, 55
2, 56832, Note_on_c, 2, 60, 0
2, 56832, Note_on_c, 2, 63, 0
2, 56848, Note_on_c, 2, 54, 0
2, 56880, Note_on_c, 2, 78, 0
2, 56884, Note_on_c, 2, 75, 0
2, 56904, Note_on_c, 2, 72, 0
2, 56920, Note_on_c, 2, 84, 0
2, 57228, Note_on_c, 2, 72, 65
2, 57232, Note_on_c, 2, 53, 47
2, 57232, Note_on_c, 2, 38, 57
2, 57236, Note_on_c, 2, 81, 49
2, 57236, Note_on_c, 2, 77, 51
2, 57240, Note_on_c, 2, 84, 58
2, 57296, Note_on_c, 2, 77, 0
2, 57296, Control_c, 2, 64, 127
2, 57304, Note_off_c, 2, 72, 0
2, 57312, Note_off_c, 2, 81, 0
2, 57312, Note_off_c, 2, 53, 0
2, 57316, Note_off_c, 2, 38, 0
2, 57324, Note_off_c, 2, 84, 0
2, 57692, Control_c, 2, 64, 0
2, 57712, Note_on_c, 2, 62, 45
2, 57716, Note_on_c, 2, 60, 54
2, 57716, Note_on_c, 2, 53, 49
2, 57720, Note_on_c, 2, 57, 50
2, 57784, Note_on_c, 2, 62, 0
2, 57788, Note_on_c, 2, 60, 0
2, 57792, Note_on_c, 2, 57, 0
2, 57812, Note_on_c, 2, 53, 0
2, 58048, Note_on_c, 2, 86, 95
2, 58048, Note_on_c, 2, 80, 91
2, 58052, Note_on_c, 2, 74, 90
2, 58052, Note_on_c, 2, 81, 80
2, 58112, Note_on_c, 2, 80, 0
2, 58136, Note_on_c, 2, 74, 0
2, 58180, Note_on_c, 2, 81, 0
2, 58180, Note_on_c, 2, 86, 0
2, 58188, Note_on_c, 2, 43, 52
2, 58192, Note_on_c, 2, 53, 44
2, 58240, Control_c, 2, 64, 127
2, 58248, Note_off_c, 2, 43, 0
2, 58268, Note_off_c, 2, 53, 0
2, 58672, Note_on_c, 2, 53, 86
2, 59076, Control_c, 2, 64, 0
2, 59140, Note_on_c, 2, 43, 69
2, 59216, Note_on_c, 2, 43, 0
2, 59224, Control_c, 2, 64, 127
2, 59248, Note_off_c, 2, 53, 0
2, 59464, Note_on_c, 2, 70, 101
2, 59468, Note_on_c, 2, 79, 75
2, 59468, Note_on_c, 2, 82, 87
2, 59472, Control_c, 2, 64, 0
2, 59472, Note_on_c, 2, 77, 75
2, 59556, Note_on_c, 2, 70, 0
2, 59568, Note_on_c, 2, 82, 0
2, 59572, Note_on_c, 2, 77, 0
2, 59588, Note_on_c, 2, 79, 0
2, 59628, Note_on_c, 2, 62, 36
2, 59632, Note_on_c, 2, 58, 58
2, 59632, Note_on_c, 2, 53, 43
2, 59636, Note_on_c, 2, 55, 40
2, 59636, Note_on_c, 2, 70, 53
2, 59640, Note_on_c, 2, 79, 47
2, 59648, Note_on_c, 2, 77, 35
2, 59652, Note_on_c, 2, 82, 39
2, 59712, Note_on_c, 2, 58, 0
2, 59716, Note_on_c, 2, 62, 0
2, 59720, Control_c, 2, 64, 127
2, 59724, Note_off_c, 2, 55, 0
2, 59732, Note_off_c, 2, 53, 0
2, 59752, Note_off_c, 2, 70, 0
2, 59780, Note_off_c, 2, 77, 0
2, 59788, Note_off_c, 2, 82, 0
2, 59792, Note_off_c, 2, 79, 0
2, 59956, Note_on_c, 2, 70, 95
2, 59960, Note_on_c, 2, 77, 74
2, 59960, Note_on_c, 2, 79, 69
2, 59960, Note_on_c, 2, 82, 76
2, 60036, Note_on_c, 2, 70, 0
2, 60044, Control_c, 2, 64, 0
2, 60048, Note_off_c, 2, 82, 0
2, 60048, Note_off_c, 2, 79, 0
2, 60052, Note_off_c, 2, 77, 0
2, 60100, Note_on_c, 2, 36, 59
2, 60116, Note_on_c, 2, 82, 49
2, 60116, Note_on_c, 2, 70, 66
2, 60120, Note_on_c, 2, 52, 19
2, 60128, Note_on_c, 2, 78, 78
2, 60180, Note_on_c, 2, 70, 0
2, 60188, Note_on_c, 2, 52, 0
2, 60192, Note_on_c, 2, 36, 0
2, 60200, Note_on_c, 2, 78, 0
2, 60212, Control_c, 2, 64, 127
2, 60236, Note_off_c, 2, 82, 0
2, 60528, Control_c, 2, 64, 0
2, 60560, Note_on_c, 2, 61, 62
2, 60564, Note_on_c, 2, 70, 71
2, 60568, Note_on_c, 2, 82, 68
2, 60568, Note_on_c, 2, 78, 77
2, 60572, Note_on_c, 2, 58, 71
2, 60576, Note_on_c, 2, 52, 54
2, 60652, Note_on_c, 2, 58, 0
2, 60652, Note_on_c, 2, 61, 0
2, 60660, Control_c, 2, 64, 127
2, 60672, Note_off_c, 2, 52, 0
2, 60740, Note_off_c, 2, 78, 0
2, 60748, Note_off_c, 2, 82, 0
2, 60756, Note_off_c, 2, 70, 0
2, 61032, Control_c, 2, 64, 0
2, 61044, Note_on_c, 2, 75, 71
2, 61044, Note_on_c, 2, 69, 61
2, 61044, Note_on_c, 2, 81, 63
2, 61048, Note_on_c, 2, 41, 48
2, 61052, Note_on_c, 2, 57, 45
2, 61092, Note_on_c, 2, 76, 24
2, 61112, Note_on_c, 2, 75, 0
2, 61180, Note_on_c, 2, 41, 0
2, 61188, Control_c, 2, 64, 127
2, 61504, Note_on_c, 2, 47, 85
2, 61532, Note_on_c, 2, 81, 0
2, 61536, Note_on_c, 2, 76, 0
2, 61556, Note_on_c, 2, 57, 0
2, 61568, Note_on_c, 2, 69, 0
2, 61592, Note_on_c, 2, 47, 0
2, 61900, Note_on_c, 2, 46, 73
2, 61972, Control_c, 2, 64, 0
2, 62000, Note_on_c, 2, 56, 64
2, 62004, Note_on_c, 2, 60, 76
2, 62004, Note_on_c, 2, 67, 76
2, 62008, Note_on_c, 2, 63, 84
2, 62240, Note_on_c, 2, 56, 0
2, 62448, Note_on_c, 2, 67, 0
2, 62452, Note_on_c, 2, 63, 0
2, 62476, Note_on_c, 2, 65, 75
2, 62480, Note_on_c, 2, 62, 76
2, 62484, Note_on_c, 2, 55, 60
2, 62520, Control_c, 2, 64, 127
2, 62568, Note_off_c, 2, 46, 0
2, 62572, Note_off_c, 2, 55, 0
2, 62600, Note_off_c, 2, 62, 0
2, 62612, Note_off_c, 2, 60, 0
2, 62624, Note_off_c, 2, 65, 0
2, 62840, Note_on_c, 2, 62, 57
2, 62840, Note_on_c, 2, 59, 66
2, 62844, Note_on_c, 2, 63, 84
2, 62844, Control_c, 2, 64, 0
2, 62852, Note_on_c, 2, 52, 54
2, 62868, Note_on_c, 2, 36, 41
2, 62900, Note_on_c, 2, 64, 45
2, 62904, Note_on_c, 2, 62, 0
2, 62944, Note_on_c, 2, 63, 0
2, 63328, Note_on_c, 2, 67, 92
2, 63336, Note_on_c, 2, 64, 0
2, 63392, Note_on_c, 2, 59, 0
2, 63440, Note_on_c, 2, 67, 0
2, 63488, Note_on_c, 2, 64, 67
2, 63532, Control_c, 2, 64, 127
2, 63548, Note_off_c, 2, 36, 0
2, 63580, Note_off_c, 2, 52, 0
2, 63648, Note_off_c, 2, 64, 0
2, 63920, Control_c, 2, 64, 0
2, 63944, Note_on_c, 2, 45, 39
2, 63944, Note_on_c, 2, 55, 33
2, 63944, Note_on_c, 2, 63, 61
2, 63944, Note_on_c, 2, 67, 48
2, 63956, Note_on_c, 2, 58, 53
2, 64236, Control_c, 2, 64, 127
2, 64376, Note_off_c, 2, 58, 0
2, 64424, Note_off_c, 2, 67, 0
2, 64432, Note_off_c, 2, 45, 0
2, 64456, Note_off_c, 2, 55, 0
2, 64484, Note_off_c, 2, 63, 0
2, 64756, Note_on_c, 2, 67, 7
2, 64764, Note_on_c, 2, 65, 61
2, 64800, Note_on_c, 2, 64, 56
2, 64824, Note_on_c, 2, 67, 0
2, 64836, Control_c, 2, 64, 0
2, 64852, Note_on_c, 2, 63, 66
2, 64872, Note_on_c, 2, 65, 0
2, 64900, Note_on_c, 2, 53, 43
2, 64904, Note_on_c, 2, 38, 42
2, 64912, Note_on_c, 2, 64, 0
2, 64916, Note_on_c, 2, 62, 55
2, 64932, Note_on_c, 2, 63, 0
2, 65224, Note_on_c, 2, 62, 0
2, 65240, Note_on_c, 2, 65, 87
2, 65360, Note_on_c, 2, 65, 0
2, 65400, Note_on_c, 2, 62, 49
2, 65436, Control_c, 2, 64, 127
2, 65440, Note_off_c, 2, 38, 0
2, 65488, Note_off_c, 2, 53, 0
2, 65500, Note_off_c, 2, 62, 0
2, 65716, Note_on_c, 2, 43, 40
2, 65716, Note_on_c, 2, 65, 67
2, 65716, Control_c, 2, 64, 0
2, 65728, Note_on_c, 2, 53, 28
2, 65812, Note_on_c, 2, 53, 0
2, 66160, Note_on_c, 2, 61, 46
2, 66164, Note_on_c, 2, 59, 44
2, 66184, Control_c, 2, 64, 127
2, 66184, Note_on_c, 2, 53, 38
2, 66316, Note_on_c, 2, 53, 0
2, 66332, Note_on_c, 2, 43, 0
2, 66340, Note_on_c, 2, 65, 0
2, 66348, Note_on_c, 2, 59, 0
2, 66360, Note_on_c, 2, 61, 0
2, 66660, Note_on_c, 2, 63, 86
2, 66720, Control_c, 2, 64, 0
2, 66752, Note_off_c, 2, 63, 0
2, 66812, Note_on_c, 2, 64, 50
2, 67128, Note_on_c, 2, 67, 73
2, 67160, Note_on_c, 2, 64, 0
2, 67184, Note_on_c, 2, 36, 44
2, 67184, Note_on_c, 2, 52, 35
2, 67192, Note_on_c, 2, 67, 0
2, 67284, Note_on_c, 2, 69, 74
2, 67416, Control_c, 2, 64, 127
2, 67436, Note_off_c, 2, 36, 0
2, 67476, Note_off_c, 2, 52, 0
2, 67576, Note_off_c, 2, 69, 0
2, 67752, Note_on_c, 2, 55, 44
2, 67756, Note_on_c, 2, 45, 47
2, 67764, Note_on_c, 2, 61, 86
2, 67768, Note_on_c, 2, 70, 83
2, 67768, Control_c, 2, 64, 0
2, 67884, Note_off_c, 2, 61, 0
2, 67896, Note_off_c, 2, 70, 0
2, 67940, Note_off_c, 2, 45, 0
2, 67956, Note_off_c, 2, 55, 0
2, 68224, Note_on_c, 2, 69, 68
2, 68232, Note_on_c, 2, 61, 71
2, 68232, Note_on_c, 2, 45, 42
2, 68232, Note_on_c, 2, 55, 39
2, 68268, Control_c, 2, 64, 127
2, 68344, Note_off_c, 2, 45, 0
2, 68348, Note_off_c, 2, 55, 0
2, 68372, Note_off_c, 2, 61, 0
2, 68384, Note_off_c, 2, 69, 0
2, 68700, Control_c, 2, 64, 0
2, 68708, Note_on_c, 2, 38, 50
2, 68712, Note_on_c, 2, 53, 50
2, 68720, Note_on_c, 2, 60, 51
2, 68724, Note_on_c, 2, 63, 75
2, 68772, Note_on_c, 2, 63, 0
2, 68776, Note_on_c, 2, 64, 57
2, 68800, Note_on_c, 2, 60, 0
2, 69036, Control_c, 2, 64, 127
2, 69080, Note_on_c, 2, 67, 62
2, 69124, Note_on_c, 2, 38, 0
2, 69144, Note_on_c, 2, 64, 0
2, 69164, Note_on_c, 2, 53, 0
2, 69212, Note_on_c, 2, 68, 90
2, 69224, Note_on_c, 2, 67, 0
2, 69512, Control_c, 2, 64, 0
2, 69524, Note_on_c, 2, 59, 67
2, 69528, Note_on_c, 2, 64, 69
2, 69536, Note_on_c, 2, 53, 69
2, 69628, Note_on_c, 2, 68, 0
2, 69632, Note_on_c, 2, 64, 0
2, 69660, Control_c, 2, 64, 127
2, 69676, Note_off_c, 2, 59, 0
2, 69796, Note_off_c, 2, 53, 0
2, 69988, Note_on_c, 2, 61, 83
2, 69992, Note_on_c, 2, 56, 81
2, 69992, Note_on_c, 2, 65, 80
2, 70004, Note_on_c, 2, 50, 81
2, 70048, Control_c, 2, 64, 0
2, 70160, Note_off_c, 2, 50, 0
2, 70188, Control_c, 2, 64, 127
2, 70216, Note_off_c, 2, 65, 0
2, 70224, Note_off_c, 2, 56, 0
2, 70264, Note_off_c, 2, 61, 0
2, 70488, Note_on_c, 2, 43, 64
2, 70496, Note_on_c, 2, 63, 109
2, 70552, Control_c, 2, 64, 0
2, 70624, Note_off_c, 2, 63, 0
2, 70652, Note_on_c, 2, 64, 72
2, 70968, Note_on_c, 2, 59, 66
2, 70968, Note_on_c, 2, 55, 61
2, 70972, Note_on_c, 2, 52, 51
2, 70976, Note_on_c, 2, 36, 50
2, 71088, Control_c, 2, 64, 127
2, 71112, Note_off_c, 2, 55, 0
2, 71132, Note_off_c, 2, 59, 0
2, 71132, Note_off_c, 2, 43, 0
2, 71144, Note_off_c, 2, 52, 0
2, 71148, Note_off_c, 2, 36, 0
2, 71156, Note_off_c, 2, 64, 0
2, 71468, Note_on_c, 2, 70, 103
2, 71564, Control_c, 2, 64, 0
2, 71632, Note_on_c, 2, 71, 74
2, 71636, Note_on_c, 2, 70, 0
2, 71936, Note_on_c, 2, 61, 64
2, 71936, Note_on_c, 2, 55, 54
2, 71940, Note_on_c, 2, 45, 59
2, 71940, Note_on_c, 2, 65, 68
2, 72040, Control_c, 2, 64, 127
2, 72124, Note_off_c, 2, 45, 0
2, 72148, Note_off_c, 2, 55, 0
2, 72148, Note_off_c, 2, 71, 0
2, 72168, Note_off_c, 2, 61, 0
2, 72204, Note_off_c, 2, 65, 0
2, 72424, Note_on_c, 2, 68, 94
2, 72532, Control_c, 2, 64, 0
2, 72580, Note_off_c, 2, 68, 0
2, 72584, Note_on_c, 2, 69, 66
2, 72876, Note_on_c, 2, 38, 57
2, 72880, Note_on_c, 2, 53, 53
2, 72880, Note_on_c, 2, 60, 61
2, 72884, Note_on_c, 2, 64, 57
2, 73004, Note_on_c, 2, 69, 0
2, 73016, Note_on_c, 2, 64, 0
2, 73024, Control_c, 2, 64, 127
2, 73072, Note_off_c, 2, 38, 0
2, 73092, Note_off_c, 2, 53, 0
2, 73104, Note_off_c, 2, 60, 0
2, 73368, Note_on_c, 2, 67, 88
2, 73488, Note_on_c, 2, 67, 0
2, 73492, Control_c, 2, 64, 0
2, 73516, Note_on_c, 2, 63, 65
2, 73516, Note_on_c, 2, 59, 43
2, 73592, Note_on_c, 2, 63, 0
2, 73604, Note_on_c, 2, 64, 56
2, 73844, Note_on_c, 2, 43, 42
2, 73984, Note_on_c, 2, 59, 0
2, 73988, Note_on_c, 2, 53, 58
2, 73992, Note_on_c, 2, 64, 0
2, 73992, Note_on_c, 2, 62, 75
2, 74020, Control_c, 2, 64, 127
2, 74052, Note_off_c, 2, 62, 0
2, 74056, Note_off_c, 2, 43, 0
2, 74064, Note_off_c, 2, 53, 0
2, 74460, Control_c, 2, 64, 0
2, 74476, Note_on_c, 2, 64, 51
2, 74476, Note_on_c, 2, 62, 51
2, 74476, Note_on_c, 2, 36, 41
2, 74480, Note_on_c, 2, 52, 40
2, 74576, Note_on_c, 2, 62, 0
2, 74580, Note_on_c, 2, 64, 0
2, 74592, Control_c, 2, 64, 127
2, 74960, Note_off_c, 2, 36, 0
2, 74968, Note_off_c, 2, 52, 0
2, 75236, Note_on_c, 2, 72, 101
2, 75320, Note_on_c, 2, 72, 0
2, 75352, Note_on_c, 2, 76, 79
2, 75392, Control_c, 2, 64, 0
2, 75456, Note_on_c, 2, 53, 44
2, 75460, Note_on_c, 2, 38, 49
2, 75468, Note_on_c, 2, 72, 69
2, 75500, Note_on_c, 2, 76, 0
2, 75560, Note_on_c, 2, 72, 0
2, 75608, Note_on_c, 2, 69, 33
2, 75696, Note_on_c, 2, 69, 0
2, 75712, Note_on_c, 2, 65, 58
2, 75804, Note_on_c, 2, 65, 0
2, 75836, Note_on_c, 2, 69, 68
2, 75940, Note_on_c, 2, 65, 66
2, 75956, Note_on_c, 2, 38, 0
2, 75964, Note_on_c, 2, 69, 0
2, 75976, Control_c, 2, 64, 127
2, 75980, Note_off_c, 2, 53, 0
2, 76048, Note_off_c, 2, 65, 0
2, 76048, Note_on_c, 2, 62, 44
2, 76132, Note_on_c, 2, 62, 0
2, 76168, Note_on_c, 2, 63, 53
2, 76276, Note_on_c, 2, 63, 0
2, 76292, Note_on_c, 2, 64, 48
2, 76380, Control_c, 2, 64, 0
2, 76392, Note_on_c, 2, 65, 62
2, 76392, Note_on_c, 2, 55, 35
2, 76392, Note_on_c, 2, 45, 44
2, 76428, Note_on_c, 2, 64, 0
2, 76460, Note_on_c, 2, 66, 75
2, 76500, Note_on_c, 2, 65, 0
2, 76520, Note_on_c, 2, 67, 53
2, 76540, Note_on_c, 2, 66, 0
2, 76804, Note_on_c, 2, 45, 0
2, 76804, Note_on_c, 2, 55, 0
2, 76888, Note_on_c, 2, 53, 64
2, 76908, Note_on_c, 2, 43, 48
2, 77032, Control_c, 2, 64, 127
2, 77240, Note_on_c, 2, 66, 49
2, 77276, Note_on_c, 2, 67, 0
2, 77288, Control_c, 2, 64, 0
2, 77288, Note_on_c, 2, 65, 53
2, 77336, Note_on_c, 2, 66, 0
2, 77416, Note_on_c, 2, 65, 0
2, 77416, Note_on_c, 2, 50, 71
2, 77416, Note_on_c, 2, 64, 62
2, 77460, Note_on_c, 2, 43, 0
2, 77480, Control_c, 2, 64, 127
2, 77500, Note_off_c, 2, 53, 0
2, 77552, Note_off_c, 2, 50, 0
2, 77652, Note_off_c, 2, 64, 0
2, 77876, Note_on_c, 2, 59, 61
2, 77880, Note_on_c, 2, 53, 58
2, 77960, Note_on_c, 2, 59, 0
2, 77980, Note_on_c, 2, 53, 0
2, 78328, Control_c, 2, 64, 0
2, 78332, Note_on_c, 2, 52, 52
2, 78332, Note_on_c, 2, 36, 50
2, 78672, Note_on_c, 2, 62, 101
2, 78784, Note_on_c, 2, 62, 0
2, 78816, Note_on_c, 2, 67, 67
2, 78824, Note_on_c, 2, 43, 64
2, 78852, Note_on_c, 2, 36, 0
2, 78860, Note_on_c, 2, 43, 0
2, 78864, Note_on_c, 2, 52, 0
2, 78908, Control_c, 2, 64, 127
2, 79072, Note_off_c, 2, 67, 0
2, 79168, Note_on_c, 2, 71, 68
2, 79224, Note_on_c, 2, 71, 0
2, 79276, Control_c, 2, 64, 0
2, 79304, Note_on_c, 2, 43, 56
2, 79304, Note_on_c, 2, 53, 48
2, 79304, Note_on_c, 2, 74, 80
2, 79412, Note_on_c, 2, 43, 0
2, 79452, Note_on_c, 2, 53, 0
2, 79624, Note_on_c, 2, 74, 0
2, 79636, Note_on_c, 2, 76, 42
2, 79756, Note_on_c, 2, 76, 0
2, 79768, Note_on_c, 2, 59, 67
2, 79772, Note_on_c, 2, 80, 94
2, 79772, Note_on_c, 2, 53, 51
2, 79836, Note_on_c, 2, 59, 0
2, 79840, Control_c, 2, 64, 127
2, 79844, Note_off_c, 2, 53, 0
2, 79904, Note_off_c, 2, 80, 0
2, 80100, Note_on_c, 2, 82, 100
2, 80212, Control_c, 2, 64, 0
2, 80224, Note_off_c, 2, 82, 0
2, 80236, Note_on_c, 2, 36, 61
2, 80236, Note_on_c, 2, 52, 55
2, 80240, Note_on_c, 2, 83, 76
2, 80320, Note_on_c, 2, 52, 0
2, 80320, Note_on_c, 2, 36, 0
2, 80352, Control_c, 2, 64, 127
2, 80464, Note_off_c, 2, 83, 0
2, 80572, Note_on_c, 2, 81, 80
2, 80712, Control_c, 2, 64, 0
2, 80712, Note_on_c, 2, 55, 51
2, 80716, Note_on_c, 2, 64, 56
2, 80716, Note_on_c, 2, 60, 63
2, 80724, Note_on_c, 2, 79, 64
2, 80748, Note_on_c, 2, 81, 0
2, 80780, Note_on_c, 2, 60, 0
2, 80780, Note_on_c, 2, 64, 0
2, 80804, Note_on_c, 2, 55, 0
2, 80816, Control_c, 2, 64, 127
2, 80968, Note_off_c, 2, 79, 0
2, 81044, Note_on_c, 2, 76, 55
2, 81152, Control_c, 2, 64, 0
2, 81180, Note_on_c, 2, 73, 71
2, 81188, Note_on_c, 2, 76, 0
2, 81188, Note_on_c, 2, 37, 57
2, 81192, Note_on_c, 2, 52, 35
2, 81272, Note_on_c, 2, 37, 0
2, 81284, Note_on_c, 2, 52, 0
2, 81284, Control_c, 2, 64, 127
2, 81384, Note_off_c, 2, 73, 0
2, 81544, Note_on_c, 2, 76, 33
2, 81664, Control_c, 2, 64, 0
2, 81672, Note_on_c, 2, 64, 53
2, 81672, Note_on_c, 2, 79, 65
2, 81676, Note_on_c, 2, 61, 59
2, 81680, Note_on_c, 2, 76, 0
2, 81684, Note_on_c, 2, 58, 76
2, 81684, Note_on_c, 2, 55, 40
2, 81732, Note_on_c, 2, 55, 0
2, 81732, Note_on_c, 2, 61, 0
2, 81736, Note_on_c, 2, 58, 0
2, 81740, Note_on_c, 2, 64, 0
2, 81772, Note_on_c, 2, 79, 0
2, 81788, Control_c, 2, 64, 127
2, 82020, Note_on_c, 2, 82, 102
2, 82020, Note_on_c, 2, 70, 104
2, 82104, Note_on_c, 2, 70, 0
2, 82120, Note_on_c, 2, 82, 0
2, 82120, Control_c, 2, 64, 0
2, 82160, Note_on_c, 2, 53, 44
2, 82164, Note_on_c, 2, 38, 57
2, 82164, Note_on_c, 2, 81, 58
2, 82168, Note_on_c, 2, 69, 54
2, 82244, Note_on_c, 2, 53, 0
2, 82252, Note_on_c, 2, 38, 0
2, 82448, Note_on_c, 2, 69, 0
2, 82460, Note_on_c, 2, 81, 0
2, 82532, Note_on_c, 2, 79, 51
2, 82644, Note_on_c, 2, 69, 73
2, 82648, Note_on_c, 2, 81, 76
2, 82648, Note_on_c, 2, 57, 57
2, 82648, Note_on_c, 2, 53, 48
2, 82648, Note_on_c, 2, 62, 50
2, 82652, Note_on_c, 2, 60, 61
2, 82660, Note_on_c, 2, 79, 0
2, 82748, Note_on_c, 2, 60, 0
2, 82748, Note_on_c, 2, 62, 0
2, 82756, Note_on_c, 2, 57, 0
2, 82768, Note_on_c, 2, 53, 0
2, 82800, Note_on_c, 2, 69, 0
2, 82880, Note_on_c, 2, 81, 0
2, 83124, Note_on_c, 2, 69, 56
2, 83124, Note_on_c, 2, 45, 40
2, 83128, Note_on_c, 2, 77, 59
2, 83128, Note_on_c, 2, 74, 64
2, 83128, Note_on_c, 2, 55, 39
2, 83204, Control_c, 2, 64, 127
2, 83208, Note_off_c, 2, 74, 0
2, 83216, Note_off_c, 2, 69, 0
2, 83236, Note_off_c, 2, 77, 0
2, 83236, Note_off_c, 2, 45, 0
2, 83240, Note_off_c, 2, 55, 0
2, 83608, Note_on_c, 2, 54, 70
2, 83608, Control_c, 2, 64, 0
2, 83612, Note_on_c, 2, 44, 74
2, 83928, Note_on_c, 2, 54, 0
2, 84000, Note_on_c, 2, 44, 0
2, 84112, Note_on_c, 2, 43, 51
2, 84116, Note_on_c, 2, 53, 51
2, 84148, Control_c, 2, 64, 127
2, 84180, Note_off_c, 2, 43, 0
2, 84188, Note_off_c, 2, 53, 0
2, 84572, Note_on_c, 2, 62, 51
2, 84576, Note_on_c, 2, 59, 59
2, 84576, Note_on_c, 2, 56, 68
2, 84580, Note_on_c, 2, 53, 56
2, 84604, Control_c, 2, 64, 0
2, 84652, Note_off_c, 2, 59, 0
2, 84660, Note_off_c, 2, 62, 0
2, 84668, Note_off_c, 2, 56, 0
2, 84676, Note_off_c, 2, 53, 0
2, 84928, Note_on_c, 2, 88, 99
2, 85052, Note_on_c, 2, 88, 0
2, 85064, Note_on_c, 2, 59, 60
2, 85068, Note_on_c, 2, 44, 66
2, 85068, Note_on_c, 2, 91, 88
2, 85072, Note_on_c, 2, 79, 69
2, 85132, Control_c, 2, 64, 127
2, 85140, Note_off_c, 2, 79, 0
2, 85152, Note_off_c, 2, 44, 0
2, 85152, Note_off_c, 2, 59, 0
2, 85176, Note_off_c, 2, 91, 0
2, 85400, Note_on_c, 2, 89, 96
2, 85520, Control_c, 2, 64, 0
2, 85540, Note_on_c, 2, 62, 49
2, 85544, Note_on_c, 2, 88, 77
2, 85548, Note_on_c, 2, 59, 56
2, 85548, Note_on_c, 2, 56, 62
2, 85548, Note_on_c, 2, 53, 50
2, 85576, Note_on_c, 2, 89, 0
2, 85604, Note_on_c, 2, 59, 0
2, 85608, Note_on_c, 2, 62, 0
2, 85620, Note_on_c, 2, 56, 0
2, 85624, Control_c, 2, 64, 127
2, 85628, Note_off_c, 2, 53, 0
2, 85796, Note_off_c, 2, 88, 0
2, 85884, Note_on_c, 2, 86, 98
2, 85960, Control_c, 2, 64, 0
2, 85984, Note_off_c, 2, 86, 0
2, 86012, Note_on_c, 2, 55, 45
2, 86020, Note_on_c, 2, 40, 55
2, 86024, Note_on_c, 2, 84, 72
2, 86092, Note_on_c, 2, 84, 0
2, 86092, Note_on_c, 2, 40, 0
2, 86092, Note_on_c, 2, 55, 0
2, 86100, Control_c, 2, 64, 127
2, 86492, Note_on_c, 2, 64, 58
2, 86500, Note_on_c, 2, 57, 48
2, 86500, Note_on_c, 2, 60, 56
2, 86500, Note_on_c, 2, 55, 48
2, 86532, Control_c, 2, 64, 0
2, 86560, Note_off_c, 2, 60, 0
2, 86560, Note_off_c, 2, 64, 0
2, 86564, Note_off_c, 2, 55, 0
2, 86564, Note_off_c, 2, 57, 0
2, 86856, Note_on_c, 2, 82, 85
2, 86952, Note_on_c, 2, 82, 0
2, 86972, Note_on_c, 2, 39, 69
2, 86976, Note_on_c, 2, 54, 55
2, 86980, Note_on_c, 2, 84, 82
2, 86980, Note_on_c, 2, 72, 76
2, 86988, Note_on_c, 2, 78, 84
2, 87036, Note_on_c, 2, 54, 0
2, 87040, Note_on_c, 2, 39, 0
2, 87048, Note_on_c, 2, 78, 0
2, 87052, Control_c, 2, 64, 127
2, 87068, Note_off_c, 2, 72, 0
2, 87184, Note_off_c, 2, 84, 0
2, 87456, Note_on_c, 2, 63, 70
2, 87456, Note_on_c, 2, 54, 66
2, 87464, Note_on_c, 2, 60, 65
2, 87524, Note_on_c, 2, 63, 0
2, 87532, Note_on_c, 2, 60, 0
2, 87548, Note_on_c, 2, 54, 0
2, 87824, Note_on_c, 2, 81, 58
2, 87852, Control_c, 2, 64, 0
2, 87928, Note_on_c, 2, 38, 63
2, 87932, Note_on_c, 2, 53, 44
2, 87936, Note_on_c, 2, 84, 82
2, 87936, Note_on_c, 2, 72, 77
2, 87936, Note_on_c, 2, 77, 74
2, 87952, Note_on_c, 2, 81, 0
2, 88032, Note_on_c, 2, 53, 0
2, 88032, Note_on_c, 2, 38, 0
2, 88180, Note_on_c, 2, 72, 0
2, 88204, Note_on_c, 2, 77, 0
2, 88220, Note_on_c, 2, 84, 0
2, 88272, Note_on_c, 2, 84, 71
2, 88276, Note_on_c, 2, 77, 68
2, 88280, Note_on_c, 2, 72, 65
2, 88340, Note_on_c, 2, 77, 0
2, 88344, Note_on_c, 2, 72, 0
2, 88384, Note_on_c, 2, 84, 0
2, 88408, Note_on_c, 2, 62, 57
2, 88416, Note_on_c, 2, 60, 55
2, 88420, Note_on_c, 2, 53, 51
2, 88420, Note_on_c, 2, 57, 57
2, 88480, Note_on_c, 2, 60, 0
2, 88480, Note_on_c, 2, 62, 0
2, 88488, Note_on_c, 2, 57, 0
2, 88504, Note_on_c, 2, 53, 0
2, 88756, Note_on_c, 2, 77, 89
2, 88756, Note_on_c, 2, 81, 79
2, 88756, Note_on_c, 2, 84, 84
2, 88756, Note_on_c, 2, 72, 93
2, 88824, Note_on_c, 2, 72, 0
2, 88824, Note_on_c, 2, 77, 0
2, 88856, Note_on_c, 2, 81, 0
2, 88892, Note_on_c, 2, 84, 0
2, 88900, Note_on_c, 2, 53, 47
2, 88904, Note_on_c, 2, 43, 49
2, 89244, Note_on_c, 2, 77, 95
2, 89248, Note_on_c, 2, 84, 93
2, 89248, Note_on_c, 2, 78, 101
2, 89300, Note_on_c, 2, 78, 0
2, 89332, Note_on_c, 2, 84, 0
2, 89400, Note_on_c, 2, 77, 0
2, 89400, Note_on_c, 2, 50, 73
2, 89400, Note_on_c, 2, 75, 90
2, 89464, Note_on_c, 2, 43, 0
2, 89528, Note_on_c, 2, 50, 0
2, 89552, Note_on_c, 2, 53, 0
2, 89688, Note_on_c, 2, 75, 0
2, 89720, Note_on_c, 2, 72, 91
2, 89868, Note_on_c, 2, 55, 51
2, 89868, Note_on_c, 2, 45, 57
2, 89896, Note_on_c, 2, 72, 0
2, 89936, Note_on_c, 2, 45, 0
2, 89940, Control_c, 2, 64, 127
2, 89948, Note_off_c, 2, 55, 0
2, 90192, Note_on_c, 2, 86, 102
2, 90192, Note_on_c, 2, 74, 108
2, 90256, Control_c, 2, 64, 0
2, 90272, Note_off_c, 2, 74, 0
2, 90304, Note_off_c, 2, 86, 0
2, 90328, Note_on_c, 2, 60, 73
2, 90328, Note_on_c, 2, 55, 64
2, 90392, Note_on_c, 2, 60, 0
2, 90416, Note_on_c, 2, 55, 0
2, 90672, Note_on_c, 2, 83, 97
2, 90788, Note_on_c, 2, 83, 0
2, 90804, Note_on_c, 2, 38, 55
2, 90808, Note_on_c, 2, 84, 82
2, 90812, Note_on_c, 2, 54, 38
2, 90816, Note_on_c, 2, 72, 65
2, 90824, Note_on_c, 2, 78, 78
2, 90872, Control_c, 2, 64, 127
2, 90876, Note_off_c, 2, 38, 0
2, 90900, Note_off_c, 2, 54, 0
2, 90920, Note_off_c, 2, 78, 0
2, 90928, Note_off_c, 2, 72, 0
2, 90936, Note_off_c, 2, 84, 0
2, 91236, Control_c, 2, 64, 0
2, 91260, Note_on_c, 2, 82, 80
2, 91260, Note_on_c, 2, 70, 80
2, 91264, Note_on_c, 2, 60, 57
2, 91264, Note_on_c, 2, 62, 49
2, 91264, Note_on_c, 2, 78, 75
2, 91268, Note_on_c, 2, 54, 57
2, 91380, Note_on_c, 2, 62, 0
2, 91380, Note_on_c, 2, 60, 0
2, 91412, Note_on_c, 2, 54, 0
2, 91468, Note_on_c, 2, 78, 0
2, 91480, Note_on_c, 2, 70, 0
2, 91496, Note_on_c, 2, 82, 0
2, 91688, Note_on_c, 2, 71, 37
2, 91704, Note_on_c, 2, 74, 62
2, 91724, Note_on_c, 2, 78, 78
2, 91744, Note_on_c, 2, 43, 63
2, 91756, Note_on_c, 2, 83, 68
2, 91816, Control_c, 2, 64, 127
2, 91836, Note_off_c, 2, 43, 0
2, 92148, Note_off_c, 2, 83, 0
2, 92180, Note_off_c, 2, 78, 0
2, 92184, Note_off_c, 2, 74, 0
2, 92204, Note_on_c, 2, 52, 86
2, 92212, Note_on_c, 2, 71, 0
2, 92276, Note_on_c, 2, 52, 0
2, 92560, Note_on_c, 2, 42, 84
2, 92644, Control_c, 2, 64, 0
2, 92692, Note_on_c, 2, 69, 76
2, 92692, Note_on_c, 2, 64, 81
2, 92696, Note_on_c, 2, 57, 44
2, 92708, Note_on_c, 2, 42, 0
2, 92792, Control_c, 2, 64, 127
2, 92852, Note_off_c, 2, 69, 0
2, 92864, Note_off_c, 2, 64, 0
2, 93172, Control_c, 2, 64, 0
2, 93172, Note_on_c, 2, 71, 71
2, 93176, Note_on_c, 2, 63, 77
2, 93176, Note_on_c, 2, 66, 87
2, 93188, Note_on_c, 2, 47, 64
2, 93284, Control_c, 2, 64, 127
2, 93292, Note_off_c, 2, 47, 0
2, 93292, Note_off_c, 2, 57, 0
2, 93380, Note_off_c, 2, 71, 0
2, 93396, Note_off_c, 2, 66, 0
2, 93396, Note_off_c, 2, 63, 0
2, 93640, Control_c, 2, 64, 0
2, 93660, Note_on_c, 2, 67, 66
2, 93664, Note_on_c, 2, 64, 72
2, 93668, Note_on_c, 2, 40, 61
2, 93668, Note_on_c, 2, 55, 54
2, 93752, Note_on_c, 2, 55, 0
2, 93760, Control_c, 2, 64, 127
2, 93764, Note_off_c, 2, 40, 0
2, 93776, Note_off_c, 2, 64, 0
2, 93784, Note_off_c, 2, 67, 0
2, 94160, Note_on_c, 2, 64, 50
2, 94164, Note_on_c, 2, 62, 58
2, 94164, Note_on_c, 2, 59, 60
2, 94164, Note_on_c, 2, 55, 48
2, 94228, Note_on_c, 2, 62, 0
2, 94232, Note_on_c, 2, 64, 0
2, 94236, Note_on_c, 2, 59, 0
2, 94244, Note_on_c, 2, 55, 0
2, 94500, Note_on_c, 2, 73, 112
2, 94608, Control_c, 2, 64, 0
2, 94644, Note_on_c, 2, 55, 52
2, 94648, Note_on_c, 2, 45, 56
2, 94664, Note_on_c, 2, 76, 76
2, 94684, Note_on_c, 2, 73, 0
2, 95020, Note_on_c, 2, 76, 0
2, 95028, Note_on_c, 2, 79, 27
2, 95136, Note_on_c, 2, 79, 0
2, 95136, Note_on_c, 2, 70, 104
2, 95136, Note_on_c, 2, 82, 95
2, 95144, Note_on_c, 2, 52, 76
2, 95188, Control_c, 2, 64, 127
2, 95204, Note_off_c, 2, 55, 0
2, 95208, Note_off_c, 2, 52, 0
2, 95240, Note_off_c, 2, 45, 0
2, 95248, Note_off_c, 2, 70, 0
2, 95260, Note_off_c, 2, 82, 0
2, 95468, Note_on_c, 2, 71, 78
2, 95468, Note_on_c, 2, 83, 78
2, 95472, Note_on_c, 2, 79, 73
2, 95472, Note_on_c, 2, 76, 73
2, 95508, Control_c, 2, 64, 0
2, 95632, Note_on_c, 2, 33, 55
2, 95636, Note_on_c, 2, 71, 0
2, 95648, Note_on_c, 2, 83, 0
2, 95668, Note_on_c, 2, 79, 0
2, 95672, Note_on_c, 2, 76, 0
2, 95684, Note_on_c, 2, 33, 0
2, 95684, Control_c, 2, 64, 127
2, 95952, Note_on_c, 2, 72, 54
2, 95952, Note_on_c, 2, 76, 72
2, 95956, Note_on_c, 2, 79, 81
2, 95968, Note_on_c, 2, 84, 88
2, 96108, Note_on_c, 2, 84, 0
2, 96116, Note_on_c, 2, 79, 0
2, 96120, Note_on_c, 2, 76, 0
2, 96128, Note_on_c, 2, 64, 46
2, 96132, Note_on_c, 2, 60, 45
2, 96132, Note_on_c, 2, 57, 47
2, 96132, Note_on_c, 2, 55, 36
2, 96140, Note_on_c, 2, 72, 0
2, 96180, Note_on_c, 2, 60, 0
2, 96184, Note_on_c, 2, 57, 0
2, 96188, Note_on_c, 2, 55, 0
2, 96188, Note_on_c, 2, 64, 0
2, 96412, Note_on_c, 2, 68, 53
2, 96432, Note_on_c, 2, 76, 76
2, 96444, Note_on_c, 2, 80, 95
2, 96476, Control_c, 2, 64, 0
2, 96592, Note_on_c, 2, 60, 44
2, 96592, Note_on_c, 2, 50, 52
2, 96592, Note_on_c, 2, 54, 55
2, 96608, Note_on_c, 2, 80, 0
2, 96624, Note_on_c, 2, 76, 0
2, 96624, Note_on_c, 2, 68, 0
2, 96644, Control_c, 2, 64, 127
2, 96664, Note_off_c, 2, 54, 0
2, 96664, Note_off_c, 2, 50, 0
2, 96696, Note_off_c, 2, 60, 0
2, 96912, Note_on_c, 2, 69, 65
2, 96916, Note_on_c, 2, 76, 80
2, 96928, Note_on_c, 2, 81, 81
2, 97044, Note_on_c, 2, 69, 0
2, 97056, Note_on_c, 2, 76, 0
2, 97076, Note_on_c, 2, 62, 56
2, 97076, Note_on_c, 2, 54, 59
2, 97076, Note_on_c, 2, 60, 65
2, 97092, Note_on_c, 2, 81, 0
2, 97136, Note_on_c, 2, 60, 0
2, 97148, Note_on_c, 2, 62, 0
2, 97164, Note_on_c, 2, 54, 0
2, 97392, Note_on_c, 2, 71, 62
2, 97392, Note_on_c, 2, 76, 73
2, 97400, Note_on_c, 2, 79, 79
2, 97412, Note_on_c, 2, 83, 83
2, 97444, Control_c, 2, 64, 0
2, 97532, Note_on_c, 2, 38, 64
2, 97536, Note_on_c, 2, 53, 47
2, 97560, Note_on_c, 2, 71, 0
2, 97584, Note_on_c, 2, 79, 0
2, 97588, Note_on_c, 2, 83, 0
2, 97592, Note_on_c, 2, 76, 0
2, 97608, Note_on_c, 2, 53, 0
2, 97612, Note_on_c, 2, 38, 0
2, 97612, Control_c, 2, 64, 127
2, 97872, Note_on_c, 2, 72, 66
2, 97880, Note_on_c, 2, 76, 75
2, 97880, Note_on_c, 2, 79, 80
2, 97896, Note_on_c, 2, 84, 92
2, 98024, Note_on_c, 2, 72, 0
2, 98028, Note_on_c, 2, 62, 55
2, 98036, Note_on_c, 2, 76, 0
2, 98036, Note_on_c, 2, 53, 49
2, 98036, Note_on_c, 2, 57, 53
2, 98036, Note_on_c, 2, 60, 61
2, 98048, Note_on_c, 2, 79, 0
2, 98080, Note_on_c, 2, 84, 0
2, 98092, Note_on_c, 2, 60, 0
2, 98100, Note_on_c, 2, 62, 0
2, 98104, Note_on_c, 2, 57, 0
2, 98120, Note_on_c, 2, 53, 0
2, 98364, Note_on_c, 2, 74, 77
2, 98368, Note_on_c, 2, 77, 86
2, 98372, Note_on_c, 2, 81, 84
2, 98380, Note_on_c, 2, 86, 88
2, 98428, Control_c, 2, 64, 0
2, 98504, Note_on_c, 2, 53, 54
2, 98516, Note_on_c, 2, 74, 0
2, 98516, Note_on_c, 2, 38, 54
2, 98532, Note_on_c, 2, 77, 0
2, 98540, Note_on_c, 2, 81, 0
2, 98568, Note_on_c, 2, 86, 0
2, 98572, Control_c, 2, 64, 127
2, 98584, Note_off_c, 2, 38, 0
2, 98584, Note_off_c, 2, 53, 0
2, 98836, Note_on_c, 2, 76, 81
2, 98840, Note_on_c, 2, 83, 90
2, 98844, Note_on_c, 2, 88, 95
2, 98968, Note_on_c, 2, 76, 0
2, 98980, Note_on_c, 2, 83, 0
2, 98980, Note_on_c, 2, 44, 72
2, 98984, Note_on_c, 2, 54, 49
2, 99004, Note_on_c, 2, 51, 56
2, 99020, Note_on_c, 2, 88, 0
2, 99164, Note_on_c, 2, 54, 0
2, 99188, Note_on_c, 2, 44, 0
2, 99192, Note_on_c, 2, 51, 0
2, 99312, Note_on_c, 2, 77, 68
2, 99312, Note_on_c, 2, 81, 77
2, 99316, Note_on_c, 2, 84, 85
2, 99320, Note_on_c, 2, 89, 89
2, 99364, Control_c, 2, 64, 0
2, 99448, Note_on_c, 2, 53, 64
2, 99452, Note_on_c, 2, 43, 63
2, 99520, Control_c, 2, 64, 127
2, 99540, Note_off_c, 2, 53, 0
2, 99548, Note_off_c, 2, 43, 0
2, 99916, Control_c, 2, 64, 0
2, 99944, Note_on_c, 2, 36, 71
2, 99948, Note_on_c, 2, 52, 66
2, 100016, Note_on_c, 2, 81, 0
2, 100016, Control_c, 2, 64, 127
2, 100032, Note_off_c, 2, 77, 0
2, 100048, Note_off_c, 2, 84, 0
2, 100064, Note_off_c, 2, 52, 0
2, 100064, Note_off_c, 2, 36, 0
2, 100100, Note_off_c, 2, 89, 0
2, 100412, Control_c, 2, 64, 0
2, 100424, Note_on_c, 2, 35, 70
2, 100424, Note_on_c, 2, 50, 69
2, 100512, Note_on_c, 2, 50, 0
2, 100516, Control_c, 2, 64, 127
2, 100524, Note_off_c, 2, 35, 0
2, 100760, Note_on_c, 2, 91, 107
2, 100876, Control_c, 2, 64, 0
2, 100904, Note_on_c, 2, 51, 86
2, 100908, Note_on_c, 2, 88, 84
2, 100944, Note_on_c, 2, 91, 0
2, 100992, Control_c, 2, 64, 127
2, 101044, Note_off_c, 2, 51, 0
2, 101180, Note_off_c, 2, 88, 0
2, 101204, Note_on_c, 2, 43, 57
2, 101216, Note_on_c, 2, 83, 88
2, 101256, Control_c, 2, 64, 0
2, 101328, Note_off_c, 2, 83, 0
2, 101372, Note_on_c, 2, 52, 61
2, 101380, Note_on_c, 2, 79, 44
2, 101380, Note_on_c, 2, 36, 61
2, 101432, Note_on_c, 2, 43, 0
2, 101440, Control_c, 2, 64, 127
2, 101452, Note_off_c, 2, 52, 0
2, 101456, Note_off_c, 2, 36, 0
2, 101616, Note_off_c, 2, 79, 0
2, 101728, Note_on_c, 2, 81, 57
2, 101836, Control_c, 2, 64, 0
2, 101848, Note_on_c, 2, 55, 63
2, 101848, Note_on_c, 2, 64, 67
2, 101848, Note_on_c, 2, 60, 68
2, 101864, Note_on_c, 2, 84, 94
2, 101916, Note_on_c, 2, 60, 0
2, 101916, Note_on_c, 2, 64, 0
2, 101916, Note_on_c, 2, 81, 0
2, 101936, Note_on_c, 2, 55, 0
2, 102176, Note_on_c, 2, 84, 0
2, 102184, Note_on_c, 2, 86, 86
2, 102320, Note_on_c, 2, 86, 0
2, 102324, Note_on_c, 2, 45, 62
2, 102324, Note_on_c, 2, 55, 48
2, 102328, Note_on_c, 2, 87, 67
2, 102332, Note_on_c, 2, 75, 75
2, 102352, Note_on_c, 2, 84, 42
2, 102356, Note_on_c, 2, 81, 49
2, 102384, Note_on_c, 2, 88, 72
2, 102404, Note_on_c, 2, 87, 0
2, 102416, Note_on_c, 2, 75, 0
2, 102416, Note_on_c, 2, 76, 62
2, 102428, Note_on_c, 2, 45, 0
2, 102460, Note_on_c, 2, 55, 0
2, 102516, Note_on_c, 2, 81, 0
2, 102524, Note_on_c, 2, 76, 0
2, 102536, Note_on_c, 2, 84, 0
2, 102548, Note_on_c, 2, 88, 0
2, 102796, Note_on_c, 2, 61, 71
2, 102796, Note_on_c, 2, 55, 61
2, 102800, Note_on_c, 2, 79, 76
2, 102896, Note_on_c, 2, 61, 0
2, 102916, Note_on_c, 2, 55, 0
2, 103160, Note_on_c, 2, 81, 61
2, 103172, Note_on_c, 2, 79, 0
2, 103276, Note_on_c, 2, 38, 73
2, 103276, Note_on_c, 2, 53, 58
2, 103284, Note_on_c, 2, 84, 91
2, 103340, Note_on_c, 2, 81, 0
2, 103364, Note_on_c, 2, 53, 0
2, 103364, Note_on_c, 2, 38, 0
2, 103544, Note_on_c, 2, 84, 0
2, 103772, Note_on_c, 2, 62, 65
2, 103776, Note_on_c, 2, 60, 74
2, 103776, Note_on_c, 2, 55, 61
2, 103780, Note_on_c, 2, 86, 90
2, 103836, Note_on_c, 2, 62, 0
2, 103840, Note_on_c, 2, 60, 0
2, 103864, Note_on_c, 2, 55, 0
2, 104092, Note_on_c, 2, 86, 0
2, 104128, Note_on_c, 2, 50, 65
2, 104140, Note_on_c, 2, 84, 57
2, 104216, Note_on_c, 2, 84, 0
2, 104220, Note_on_c, 2, 50, 0
2, 104256, Note_on_c, 2, 72, 68
2, 104256, Note_on_c, 2, 43, 74
2, 104260, Note_on_c, 2, 53, 70
2, 104264, Note_on_c, 2, 87, 85
2, 104340, Note_on_c, 2, 43, 0
2, 104364, Note_on_c, 2, 53, 0
2, 104512, Note_on_c, 2, 72, 0
2, 104548, Note_on_c, 2, 87, 0
2, 104732, Note_on_c, 2, 62, 53
2, 104736, Note_on_c, 2, 59, 67
2, 104736, Note_on_c, 2, 53, 58
2, 104740, Note_on_c, 2, 72, 90
2, 104744, Note_on_c, 2, 86, 96
2, 104836, Note_on_c, 2, 59, 0
2, 104840, Note_on_c, 2, 62, 0
2, 104864, Note_on_c, 2, 53, 0
2, 104996, Note_on_c, 2, 86, 0
2, 105028, Note_on_c, 2, 72, 0
2, 105212, Note_on_c, 2, 78, 89
2, 105212, Note_on_c, 2, 84, 82
2, 105212, Note_on_c, 2, 36, 61
2, 105216, Note_on_c, 2, 74, 77
2, 105220, Note_on_c, 2, 52, 34
2, 105280, Note_on_c, 2, 78, 0
2, 105280, Note_on_c, 2, 79, 60
2, 105296, Note_on_c, 2, 36, 0
2, 105300, Note_on_c, 2, 52, 0
2, 105676, Note_on_c, 2, 84, 0
2, 105688, Note_on_c, 2, 60, 58
2, 105692, Note_on_c, 2, 64, 64
2, 105692, Note_on_c, 2, 55, 57
2, 105692, Note_on_c, 2, 81, 74
2, 105700, Note_on_c, 2, 79, 0
2, 105700, Note_on_c, 2, 74, 0
2, 105776, Note_on_c, 2, 64, 0
2, 105788, Note_on_c, 2, 60, 0
2, 105816, Note_on_c, 2, 55, 0
2, 106004, Note_on_c, 2, 81, 0
2, 106036, Note_on_c, 2, 84, 86
2, 106036, Note_on_c, 2, 72, 80
2, 106036, Note_on_c, 2, 78, 96
2, 106092, Note_on_c, 2, 79, 68
2, 106096, Note_on_c, 2, 78, 0
2, 106148, Note_on_c, 2, 79, 0
2, 106164, Note_on_c, 2, 55, 71
2, 106168, Note_on_c, 2, 72, 0
2, 106204, Note_on_c, 2, 84, 0
2, 106248, Control_c, 2, 64, 127
2, 106256, Note_off_c, 2, 55, 0
2, 106520, Note_on_c, 2, 37, 84
2, 106576, Control_c, 2, 64, 0
2, 106672, Note_on_c, 2, 52, 66
2, 106720, Note_on_c, 2, 37, 0
2, 106732, Control_c, 2, 64, 127
2, 106740, Note_off_c, 2, 52, 0
2, 107076, Control_c, 2, 64, 0
2, 107128, Note_on_c, 2, 38, 64
2, 107132, Note_on_c, 2, 53, 66
2, 107384, Note_on_c, 2, 81, 107
2, 107476, Note_on_c, 2, 81, 0
2, 107512, Note_on_c, 2, 79, 84
2, 107576, Note_on_c, 2, 79, 0
2, 107616, Note_on_c, 2, 45, 65
2, 107616, Note_on_c, 2, 77, 69
2, 107644, Note_on_c, 2, 38, 0
2, 107672, Note_on_c, 2, 45, 0
2, 107680, Note_on_c, 2, 77, 0
2, 107748, Note_on_c, 2, 74, 81
2, 107828, Note_on_c, 2, 74, 0
2, 107844, Note_on_c, 2, 72, 56
2, 107928, Note_on_c, 2, 72, 0
2, 107968, Note_on_c, 2, 69, 50
2, 108056, Note_on_c, 2, 69, 0
2, 108072, Note_on_c, 2, 43, 65
2, 108080, Note_on_c, 2, 68, 68
2, 108128, Note_on_c, 2, 43, 0
2, 108168, Note_on_c, 2, 53, 0
2, 108192, Note_on_c, 2, 68, 0
2, 108208, Note_on_c, 2, 67, 46
2, 108308, Note_on_c, 2, 67, 0
2, 108360, Note_on_c, 2, 66, 7
2, 108408, Note_on_c, 2, 66, 0
2, 108440, Note_on_c, 2, 70, 103
2, 108560, Note_on_c, 2, 59, 67
2, 108568, Note_on_c, 2, 70, 0
2, 108572, Note_on_c, 2, 68, 82
2, 108572, Note_on_c, 2, 53, 46
2, 108620, Note_on_c, 2, 59, 0
2, 108648, Note_on_c, 2, 53, 0
2, 108664, Note_on_c, 2, 68, 0
2, 108696, Note_on_c, 2, 63, 71
2, 108784, Note_on_c, 2, 63, 0
2, 108812, Note_on_c, 2, 59, 44
2, 108904, Note_on_c, 2, 59, 0
2, 108936, Note_on_c, 2, 61, 72
2, 109020, Note_on_c, 2, 61, 0
2, 109024, Note_on_c, 2, 62, 74
2, 109028, Note_on_c, 2, 52, 58
2, 109032, Note_on_c, 2, 36, 57
2, 109108, Note_on_c, 2, 52, 0
2, 109112, Note_on_c, 2, 36, 0
2, 109112, Note_on_c, 2, 62, 0
2, 109156, Control_c, 2, 64, 127
2, 109552, Note_on_c, 2, 60, 67
2, 109552, Note_on_c, 2, 55, 60
2, 109576, Control_c, 2, 64, 0
2, 109612, Note_off_c, 2, 60, 0
2, 109636, Note_off_c, 2, 55, 0
2, 109708, Note_on_c, 2, 63, 65
2, 109788, Note_on_c, 2, 63, 0
2, 109788, Note_on_c, 2, 64, 69
2, 109844, Note_on_c, 2, 67, 48
2, 109876, Note_on_c, 2, 64, 0
2, 109908, Note_on_c, 2, 71, 61
2, 109964, Note_on_c, 2, 67, 0
2, 109992, Note_on_c, 2, 43, 61
2, 109996, Note_on_c, 2, 53, 57
2, 110024, Note_on_c, 2, 74, 108
2, 110044, Note_on_c, 2, 71, 0
2, 110172, Note_on_c, 2, 71, 85
2, 110200, Note_on_c, 2, 74, 0
2, 110292, Note_on_c, 2, 71, 0
2, 110400, Note_on_c, 2, 74, 97
2, 110480, Note_on_c, 2, 74, 0
2, 110512, Note_on_c, 2, 71, 91
2, 110516, Note_on_c, 2, 50, 81
2, 110580, Note_on_c, 2, 50, 0
2, 110592, Note_on_c, 2, 43, 0
2, 110596, Note_on_c, 2, 53, 0
2, 110616, Control_c, 2, 64, 127
2, 110688, Note_off_c, 2, 71, 0
2, 110984, Note_on_c, 2, 36, 74
2, 110988, Note_on_c, 2, 52, 69
2, 110996, Control_c, 2, 64, 0
2, 111060, Note_off_c, 2, 36, 0
2, 111064, Note_off_c, 2, 52, 0
2, 111156, Note_on_c, 2, 59, 55
2, 111252, Note_on_c, 2, 60, 41
2, 111260, Note_on_c, 2, 59, 0
2, 111360, Note_on_c, 2, 64, 68
2, 111376, Note_on_c, 2, 60, 0
2, 111432, Note_on_c, 2, 55, 71
2, 111448, Note_on_c, 2, 67, 101
2, 111456, Note_on_c, 2, 64, 0
2, 111572, Note_on_c, 2, 55, 0
2, 111592, Note_on_c, 2, 64, 81
2, 111608, Note_on_c, 2, 67, 0
2, 111732, Note_on_c, 2, 64, 0
2, 111808, Note_on_c, 2, 67, 76
2, 111920, Note_on_c, 2, 37, 71
2, 111920, Note_on_c, 2, 52, 59
2, 111924, Note_on_c, 2, 64, 83
2, 111956, Note_on_c, 2, 67, 0
2, 112404, Note_on_c, 2, 61, 90
2, 112404, Note_on_c, 2, 58, 87
2, 112408, Note_on_c, 2, 44, 72
2, 112416, Note_on_c, 2, 64, 0
2, 112436, Note_on_c, 2, 37, 0
2, 112448, Note_on_c, 2, 52, 0
2, 112448, Control_c, 2, 64, 127
2, 112456, Note_off_c, 2, 44, 0
2, 112480, Note_off_c, 2, 58, 0
2, 112496, Note_off_c, 2, 61, 0
2, 112728, Note_on_c, 2, 60, 81
2, 112728, Note_on_c, 2, 57, 68
2, 112756, Control_c, 2, 64, 0
2, 112884, Note_on_c, 2, 53, 55
2, 112888, Note_on_c, 2, 38, 58
2, 112908, Note_on_c, 2, 57, 0
2, 112908, Note_on_c, 2, 60, 0
2, 112932, Control_c, 2, 64, 127
2, 112960, Note_off_c, 2, 38, 0
2, 112960, Note_off_c, 2, 53, 0
2, 113200, Note_on_c, 2, 60, 91
2, 113200, Note_on_c, 2, 64, 88
2, 113200, Note_on_c, 2, 67, 82
2, 113272, Note_on_c, 2, 60, 0
2, 113296, Note_on_c, 2, 64, 0
2, 113320, Note_on_c, 2, 67, 0
2, 113712, Note_on_c, 2, 79, 99
2, 113712, Note_on_c, 2, 72, 106
2, 113720, Note_on_c, 2, 60, 69
2, 113796, Control_c, 2, 64, 0
2, 113856, Note_off_c, 2, 72, 0
2, 113864, Note_off_c, 2, 79, 0
2, 113868, Note_on_c, 2, 57, 67
2, 113880, Note_on_c, 2, 69, 67
2, 113892, Note_on_c, 2, 76, 72
2, 113964, Control_c, 2, 64, 127
2, 114016, Note_off_c, 2, 76, 0
2, 114024, Note_off_c, 2, 69, 0
2, 114336, Note_on_c, 2, 53, 67
2, 114348, Note_on_c, 2, 72, 82
2, 114416, Note_on_c, 2, 60, 0
2, 114420, Note_on_c, 2, 57, 0
2, 114448, Note_on_c, 2, 53, 0
2, 114456, Note_on_c, 2, 72, 0
2, 114800, Control_c, 2, 64, 0
2, 114812, Note_on_c, 2, 68, 77
2, 114812, Note_on_c, 2, 53, 54
2, 114816, Note_on_c, 2, 64, 68
2, 114816, Note_on_c, 2, 59, 62
2, 114816, Note_on_c, 2, 43, 51
2, 114940, Control_c, 2, 64, 127
2, 115096, Note_off_c, 2, 68, 0
2, 115164, Note_on_c, 2, 71, 72
2, 115236, Note_on_c, 2, 64, 0
2, 115260, Note_on_c, 2, 59, 0
2, 115308, Note_on_c, 2, 68, 75
2, 115328, Note_on_c, 2, 71, 0
2, 115384, Note_on_c, 2, 43, 0
2, 115392, Note_on_c, 2, 53, 0
2, 115420, Note_on_c, 2, 68, 0
2, 115636, Note_on_c, 2, 64, 95
2, 115636, Note_on_c, 2, 59, 88
2, 115644, Note_on_c, 2, 53, 76
2, 115656, Control_c, 2, 64, 0
2, 115736, Note_off_c, 2, 59, 0
2, 115752, Note_off_c, 2, 64, 0
2, 115752, Control_c, 2, 64, 127
2, 115812, Note_off_c, 2, 53, 0
2, 116116, Note_on_c, 2, 83, 102
2, 116120, Note_on_c, 2, 71, 106
2, 116148, Control_c, 2, 64, 0
2, 116256, Note_on_c, 2, 53, 68
2, 116256, Note_on_c, 2, 44, 80
2, 116288, Note_on_c, 2, 71, 0
2, 116296, Control_c, 2, 64, 127
2, 116304, Note_off_c, 2, 83, 0
2, 116340, Note_off_c, 2, 53, 0
2, 116348, Note_off_c, 2, 44, 0
2, 116580, Control_c, 2, 64, 0
2, 116580, Note_on_c, 2, 75, 90
2, 116584, Note_on_c, 2, 79, 70
2, 116584, Note_on_c, 2, 84, 78
2, 116588, Note_on_c, 2, 72, 68
2, 116644, Note_on_c, 2, 76, 66
2, 116648, Note_on_c, 2, 75, 0
2, 116700, Note_on_c, 2, 72, 0
2, 116712, Note_on_c, 2, 76, 0
2, 116724, Note_on_c, 2, 79, 0
2, 116728, Note_on_c, 2, 84, 0
2, 116744, Note_on_c, 2, 55, 35
2, 116752, Note_on_c, 2, 40, 41
2, 116800, Control_c, 2, 64, 127
2, 116812, Note_off_c, 2, 40, 0
2, 116820, Note_off_c, 2, 55, 0
2, 117120, Note_on_c, 2, 81, 54
2, 117232, Control_c, 2, 64, 0
2, 117232, Note_on_c, 2, 64, 61
2, 117236, Note_on_c, 2, 55, 55
2, 117236, Note_on_c, 2, 60, 61
2, 117236, Note_on_c, 2, 57, 54
2, 117240, Note_on_c, 2, 84, 81
2, 117240, Note_on_c, 2, 76, 75
2, 117240, Note_on_c, 2, 72, 76
2, 117244, Note_on_c, 2, 81, 0
2, 117308, Note_on_c, 2, 60, 0
2, 117312, Note_on_c, 2, 64, 0
2, 117320, Note_on_c, 2, 57, 0
2, 117328, Note_on_c, 2, 55, 0
2, 117356, Note_on_c, 2, 76, 0
2, 117360, Note_on_c, 2, 72, 0
2, 117388, Note_on_c, 2, 84, 0
2, 117708, Note_on_c, 2, 39, 67
2, 117708, Note_on_c, 2, 54, 55
2, 117716, Note_on_c, 2, 72, 61
2, 117716, Note_on_c, 2, 75, 71
2, 117720, Note_on_c, 2, 78, 71
2, 117724, Note_on_c, 2, 84, 50
2, 117752, Control_c, 2, 64, 127
2, 117772, Note_off_c, 2, 75, 0
2, 117772, Note_off_c, 2, 54, 0
2, 117776, Note_off_c, 2, 78, 0
2, 117776, Note_off_c, 2, 39, 0
2, 117780, Note_off_c, 2, 72, 0
2, 117792, Note_off_c, 2, 84, 0
2, 118044, Note_on_c, 2, 75, 103
2, 118044, Note_on_c, 2, 87, 99
2, 118044, Note_on_c, 2, 82, 92
2, 118048, Note_on_c, 2, 80, 94
2, 118128, Control_c, 2, 64, 0
2, 118144, Note_off_c, 2, 80, 0
2, 118148, Note_off_c, 2, 75, 0
2, 118156, Note_off_c, 2, 87, 0
2, 118176, Note_on_c, 2, 63, 73
2, 118180, Note_on_c, 2, 54, 73
2, 118184, Note_on_c, 2, 80, 76
2, 118188, Note_on_c, 2, 60, 63
2, 118192, Note_on_c, 2, 86, 67
2, 118196, Note_on_c, 2, 74, 61
2, 118236, Note_on_c, 2, 60, 0
2, 118240, Note_on_c, 2, 63, 0
2, 118260, Control_c, 2, 64, 127
2, 118268, Note_off_c, 2, 54, 0
2, 118272, Note_off_c, 2, 80, 0
2, 118284, Note_off_c, 2, 82, 0
2, 118292, Note_off_c, 2, 86, 0
2, 118316, Note_off_c, 2, 74, 0
2, 118508, Note_on_c, 2, 72, 69
2, 118508, Note_on_c, 2, 81, 63
2, 118512, Note_on_c, 2, 77, 68
2, 118516, Note_on_c, 2, 84, 72
2, 118532, Control_c, 2, 64, 0
2, 118584, Note_off_c, 2, 77, 0
2, 118616, Note_off_c, 2, 72, 0
2, 118624, Note_off_c, 2, 81, 0
2, 118636, Note_off_c, 2, 84, 0
2, 118648, Note_on_c, 2, 38, 59
2, 118652, Note_on_c, 2, 53, 43
2, 118712, Control_c, 2, 64, 127
2, 118728, Note_off_c, 2, 53, 0
2, 118728, Note_off_c, 2, 38, 0
2, 119140, Note_on_c, 2, 54, 80
2, 119144, Note_on_c, 2, 44, 80
2, 119284, Note_on_c, 2, 44, 0
2, 119304, Note_on_c, 2, 54, 0
2, 119468, Note_on_c, 2, 88, 74
2, 119468, Note_on_c, 2, 50, 68
2, 119548, Control_c, 2, 64, 0
2, 119584, Note_off_c, 2, 88, 0
2, 119604, Note_off_c, 2, 50, 0
2, 119604, Note_on_c, 2, 43, 72
2, 119604, Note_on_c, 2, 53, 79
2, 119608, Note_on_c, 2, 88, 75
2, 119608, Note_on_c, 2, 84, 91
2, 119612, Note_on_c, 2, 81, 86
2, 119612, Note_on_c, 2, 93, 95
2, 119664, Note_on_c, 2, 43, 0
2, 119680, Note_on_c, 2, 53, 0
2, 119688, Control_c, 2, 64, 127
2, 119736, Note_off_c, 2, 93, 0
2, 119752, Note_off_c, 2, 81, 0
2, 119780, Note_off_c, 2, 84, 0
2, 119840, Note_off_c, 2, 88, 0
2, 119920, Note_on_c, 2, 84, 85
2, 119920, Note_on_c, 2, 88, 78
2, 119924, Note_on_c, 2, 79, 80
2, 119924, Note_on_c, 2, 91, 79
2, 119960, Note_on_c, 2, 91, 0
2, 119984, Note_on_c, 2, 88, 0
2, 119988, Note_on_c, 2, 79, 0
2, 119996, Note_on_c, 2, 84, 0
2, 120060, Note_on_c, 2, 62, 67
2, 120060, Note_on_c, 2, 59, 74
2, 120064, Note_on_c, 2, 53, 64
2, 120076, Note_on_c, 2, 75, 93
2, 120084, Note_on_c, 2, 87, 85
2, 120096, Note_on_c, 2, 75, 0
2, 120112, Note_on_c, 2, 74, 55
2, 120116, Note_on_c, 2, 59, 0
2, 120120, Note_on_c, 2, 87, 0
2, 120120, Note_on_c, 2, 62, 0
2, 120128, Note_on_c, 2, 86, 63
2, 120144, Note_on_c, 2, 53, 0
2, 120244, Note_on_c, 2, 86, 0
2, 120256, Note_on_c, 2, 74, 0
2, 120396, Note_on_c, 2, 72, 79
2, 120396, Note_on_c, 2, 84, 79
2, 120452, Note_on_c, 2, 72, 0
2, 120456, Note_on_c, 2, 84, 0
2, 120508, Control_c, 2, 64, 0
2, 120540, Note_on_c, 2, 84, 91
2, 120544, Note_on_c, 2, 72, 89
2, 120548, Note_on_c, 2, 36, 82
2, 120608, Note_on_c, 2, 72, 0
2, 120612, Note_on_c, 2, 36, 0
2, 120640, Control_c, 2, 64, 127
2, 120660, Note_off_c, 2, 84, 0
2, 120676, Note_on_c, 2, 72, 52
2, 120736, Note_on_c, 2, 72, 0
2, 120764, Note_on_c, 2, 84, 28
2, 120804, Note_on_c, 2, 84, 0
2, 120820, Note_on_c, 2, 72, 51
2, 120872, Note_on_c, 2, 72, 0
2, 120876, Note_on_c, 2, 84, 55
2, 120932, Note_on_c, 2, 84, 0
2, 120948, Note_on_c, 2, 72, 56
2, 121004, Note_on_c, 2, 84, 64
2, 121008, Note_on_c, 2, 72, 0
2, 121036, Note_on_c, 2, 65, 66
2, 121040, Note_on_c, 2, 60, 61
2, 121040, Note_on_c, 2, 55, 54
2, 121040, Note_on_c, 2, 58, 83
2, 121064, Note_on_c, 2, 72, 51
2, 121072, Note_on_c, 2, 84, 0
2, 121104, Note_on_c, 2, 60, 0
2, 121104, Note_on_c, 2, 65, 0
2, 121116, Note_on_c, 2, 58, 0
2, 121124, Note_on_c, 2, 55, 0
2, 121132, Note_on_c, 2, 84, 51
2, 121140, Note_on_c, 2, 72, 0
2, 121196, Note_on_c, 2, 84, 0
2, 121216, Note_on_c, 2, 72, 46
2, 121264, Note_on_c, 2, 72, 0
2, 121280, Note_on_c, 2, 84, 64
2, 121328, Note_on_c, 2, 84, 0
2, 121344, Note_on_c, 2, 72, 56
2, 121408, Note_on_c, 2, 72, 0
2, 121412, Note_on_c, 2, 84, 69
2, 121464, Note_on_c, 2, 72, 54
2, 121492, Note_on_c, 2, 84, 0
2, 121500, Note_on_c, 2, 43, 73
2, 121548, Note_on_c, 2, 43, 0
2, 121548, Note_on_c, 2, 72, 0
2, 121932, Control_c, 2, 64, 0
2, 121976, Note_on_c, 2, 63, 83
2, 121980, Note_on_c, 2, 52, 71
2, 121984, Note_on_c, 2, 82, 101
2, 121984, Note_on_c, 2, 58, 84
2, 121984, Note_on_c, 2, 70, 111
2, 121988, Note_on_c, 2, 78, 94
2, 121988, Note_on_c, 2, 75, 96
2, 122052, Note_on_c, 2, 58, 0
2, 122052, Note_on_c, 2, 63, 0
2, 122064, Control_c, 2, 64, 127
2, 122076, Note_off_c, 2, 52, 0
2, 122084, Note_off_c, 2, 75, 0
2, 122100, Note_off_c, 2, 82, 0
2, 122108, Note_off_c, 2, 78, 0
2, 122132, Note_off_c, 2, 70, 0
2, 122304, Control_c, 2, 64, 0
2, 122316, Note_on_c, 2, 68, 81
2, 122316, Note_on_c, 2, 76, 75
2, 122324, Note_on_c, 2, 74, 68
2, 122332, Note_on_c, 2, 81, 52
2, 122356, Note_on_c, 2, 69, 71
2, 122360, Note_on_c, 2, 68, 0
2, 122452, Note_on_c, 2, 69, 0
2, 122464, Note_on_c, 2, 41, 51
2, 122464, Note_on_c, 2, 57, 35
2, 122468, Note_on_c, 2, 74, 0
2, 122472, Note_on_c, 2, 76, 0
2, 122492, Note_on_c, 2, 81, 0
2, 122504, Control_c, 2, 64, 127
2, 122516, Note_off_c, 2, 57, 0
2, 122520, Note_off_c, 2, 41, 0
2, 122792, Note_on_c, 2, 68, 86
2, 122800, Note_on_c, 2, 76, 71
2, 122804, Note_on_c, 2, 81, 61
2, 122808, Note_on_c, 2, 74, 71
2, 122824, Note_on_c, 2, 69, 88
2, 122836, Note_on_c, 2, 68, 0
2, 122876, Control_c, 2, 64, 0
2, 122924, Note_off_c, 2, 69, 0
2, 122940, Note_off_c, 2, 74, 0
2, 122940, Note_off_c, 2, 76, 0
2, 122952, Note_on_c, 2, 62, 57
2, 122952, Note_on_c, 2, 53, 61
2, 122956, Note_on_c, 2, 81, 0
2, 122956, Note_on_c, 2, 60, 57
2, 122956, Note_on_c, 2, 57, 60
2, 123000, Control_c, 2, 64, 127
2, 123008, Note_off_c, 2, 60, 0
2, 123012, Note_off_c, 2, 62, 0
2, 123016, Note_off_c, 2, 57, 0
2, 123024, Note_off_c, 2, 53, 0
2, 123260, Note_on_c, 2, 79, 64
2, 123344, Control_c, 2, 64, 0
2, 123384, Note_off_c, 2, 79, 0
2, 123424, Note_on_c, 2, 80, 104
2, 123424, Note_on_c, 2, 56, 71
2, 123428, Note_on_c, 2, 41, 67
2, 123500, Note_on_c, 2, 80, 0
2, 123520, Note_on_c, 2, 41, 0
2, 123556, Note_on_c, 2, 79, 69
2, 123664, Note_on_c, 2, 79, 0
2, 123672, Note_on_c, 2, 75, 69
2, 123784, Note_on_c, 2, 75, 0
2, 123792, Note_on_c, 2, 72, 69
2, 123856, Note_on_c, 2, 72, 0
2, 123896, Note_on_c, 2, 70, 90
2, 123900, Note_on_c, 2, 46, 81
2, 123976, Note_on_c, 2, 70, 0
2, 123992, Note_on_c, 2, 46, 0
2, 124016, Note_on_c, 2, 56, 0
2, 124020, Note_on_c, 2, 68, 77
2, 124092, Note_on_c, 2, 68, 0
2, 124128, Note_on_c, 2, 67, 73
2, 124228, Note_on_c, 2, 67, 0
2, 124252, Note_on_c, 2, 65, 72
2, 124340, Note_on_c, 2, 65, 0
2, 124372, Note_on_c, 2, 64, 78
2, 124384, Note_on_c, 2, 40, 54
2, 124384, Note_on_c, 2, 55, 41
2, 124472, Control_c, 2, 64, 127
2, 124844, Note_off_c, 2, 64, 0
2, 124872, Note_on_c, 2, 47, 69
2, 124900, Note_on_c, 2, 40, 0
2, 124908, Note_on_c, 2, 47, 0
2, 124916, Note_on_c, 2, 55, 0
2, 125156, Note_on_c, 2, 64, 44
2, 125232, Note_on_c, 2, 65, 45
2, 125272, Note_on_c, 2, 64, 0
2, 125288, Note_on_c, 2, 66, 64
2, 125288, Control_c, 2, 64, 0
2, 125344, Note_on_c, 2, 45, 43
2, 125348, Note_on_c, 2, 55, 35
2, 125372, Note_on_c, 2, 67, 68
2, 125376, Note_on_c, 2, 65, 0
2, 125396, Note_on_c, 2, 66, 0
2, 125632, Control_c, 2, 64, 127
2, 125844, Note_on_c, 2, 52, 68
2, 125880, Note_on_c, 2, 52, 0
2, 125884, Note_on_c, 2, 45, 0
2, 125892, Note_on_c, 2, 55, 0
2, 126168, Note_on_c, 2, 65, 64
2, 126208, Note_on_c, 2, 64, 53
2, 126224, Note_on_c, 2, 67, 0
2, 126232, Control_c, 2, 64, 0
2, 126268, Note_off_c, 2, 65, 0
2, 126276, Note_on_c, 2, 63, 67
2, 126324, Note_on_c, 2, 64, 0
2, 126324, Note_on_c, 2, 38, 47
2, 126328, Note_on_c, 2, 53, 37
2, 126352, Note_on_c, 2, 62, 68
2, 126364, Note_on_c, 2, 63, 0
2, 126576, Note_on_c, 2, 62, 0
2, 126836, Note_on_c, 2, 72, 108
2, 126860, Note_on_c, 2, 38, 0
2, 126864, Control_c, 2, 64, 127
2, 126896, Note_off_c, 2, 53, 0
2, 127160, Note_on_c, 2, 43, 66
2, 127172, Note_on_c, 2, 72, 0
2, 127208, Control_c, 2, 64, 0
2, 127312, Note_on_c, 2, 53, 47
2, 127340, Note_on_c, 2, 43, 0
2, 127624, Note_on_c, 2, 71, 71
2, 127628, Note_on_c, 2, 65, 73
2, 127628, Note_on_c, 2, 62, 64
2, 127628, Note_on_c, 2, 68, 73
2, 127644, Note_on_c, 2, 50, 68
2, 127724, Note_on_c, 2, 65, 0
2, 127748, Note_on_c, 2, 68, 0
2, 127752, Note_on_c, 2, 62, 0
2, 127752, Note_on_c, 2, 71, 0
2, 127764, Note_on_c, 2, 50, 0
2, 127952, Note_on_c, 2, 53, 0
2, 128092, Note_on_c, 2, 55, 66
2, 128096, Note_on_c, 2, 66, 95
2, 128100, Note_on_c, 2, 54, 86
2, 128100, Note_on_c, 2, 60, 79
2, 128104, Note_on_c, 2, 72, 75
2, 128120, Note_on_c, 2, 54, 0
2, 128128, Note_on_c, 2, 67, 49
2, 128164, Note_on_c, 2, 66, 0
2, 128572, Note_on_c, 2, 43, 62
2, 128612, Note_on_c, 2, 55, 0
2, 128616, Note_on_c, 2, 43, 0
2, 129064, Note_on_c, 2, 54, 78
2, 129200, Note_on_c, 2, 54, 0
2, 129216, Note_on_c, 2, 55, 60
2, 129408, Control_c, 2, 64, 127
2, 129444, Note_off_c, 2, 60, 0
2, 129480, Note_off_c, 2, 67, 0
2, 129508, Note_off_c, 2, 72, 0
2, 129540, Note_on_c, 2, 43, 54
2, 129576, Note_on_c, 2, 43, 0
2, 129616, Note_on_c, 2, 55, 0
2, 130016, Note_on_c, 2, 54, 91
2, 130020, Note_on_c, 2, 78, 102
2, 130024, Note_on_c, 2, 75, 102
2, 130044, Control_c, 2, 64, 0
2, 130096, Note_off_c, 2, 75, 0
2, 130108, Note_off_c, 2, 54, 0
2, 130140, Note_off_c, 2, 78, 0
2, 130156, Note_on_c, 2, 55, 70
2, 130172, Note_on_c, 2, 79, 68
2, 130172, Note_on_c, 2, 76, 72
2, 130320, Note_on_c, 2, 76, 0
2, 130344, Note_on_c, 2, 79, 0
2, 130504, Note_on_c, 2, 81, 90
2, 130508, Note_on_c, 2, 77, 99
2, 130576, Note_on_c, 2, 81, 0
2, 130600, Note_on_c, 2, 77, 0
2, 130664, Note_on_c, 2, 75, 72
2, 130668, Note_on_c, 2, 78, 65
2, 130900, Note_on_c, 2, 78, 0
2, 130904, Note_on_c, 2, 75, 0
2, 130988, Note_on_c, 2, 50, 64
2, 131108, Note_on_c, 2, 50, 0
2, 131136, Note_on_c, 2, 43, 63
2, 131144, Note_on_c, 2, 79, 77
2, 131144, Note_on_c, 2, 76, 80
2, 131184, Note_on_c, 2, 43, 0
2, 131196, Control_c, 2, 64, 127
2, 131216, Note_off_c, 2, 55, 0
2, 131220, Note_off_c, 2, 76, 0
2, 131248, Note_off_c, 2, 79, 0
2, 131464, Note_on_c, 2, 65, 82
2, 131604, Control_c, 2, 64, 0
2, 131612, Note_on_c, 2, 63, 69
2, 131612, Note_on_c, 2, 68, 69
2, 131620, Note_on_c, 2, 65, 0
2, 131620, Note_on_c, 2, 59, 64
2, 131636, Note_on_c, 2, 53, 35
2, 131664, Note_on_c, 2, 59, 0
2, 131668, Note_on_c, 2, 63, 0
2, 131684, Note_on_c, 2, 53, 0
2, 131748, Note_on_c, 2, 68, 0
2, 131768, Note_on_c, 2, 71, 63
2, 131900, Note_on_c, 2, 71, 0
2, 131936, Note_on_c, 2, 76, 75
2, 132060, Note_on_c, 2, 76, 0
2, 132096, Note_on_c, 2, 52, 47
2, 132096, Note_on_c, 2, 67, 47
2, 132104, Note_on_c, 2, 36, 28
2, 132148, Note_on_c, 2, 52, 0
2, 132156, Note_on_c, 2, 36, 0
2, 132176, Control_c, 2, 64, 127
2, 132216, Note_off_c, 2, 67, 0
2, 132552, Note_on_c, 2, 64, 72
2, 132556, Note_on_c, 2, 55, 58
2, 132560, Note_on_c, 2, 60, 69
2, 132560, Control_c, 2, 64, 0
2, 132564, Note_on_c, 2, 79, 90
2, 132616, Note_on_c, 2, 60, 0
2, 132616, Note_on_c, 2, 64, 0
2, 132640, Note_on_c, 2, 55, 0
2, 132672, Note_on_c, 2, 79, 0
2, 133044, Note_on_c, 2, 78, 68
2, 133044, Note_on_c, 2, 71, 61
2, 133048, Note_on_c, 2, 75, 72
2, 133048, Note_on_c, 2, 83, 67
2, 133048, Note_on_c, 2, 55, 21
2, 133048, Note_on_c, 2, 39, 35
2, 133092, Note_on_c, 2, 39, 0
2, 133092, Note_on_c, 2, 75, 0
2, 133100, Note_on_c, 2, 78, 0
2, 133104, Note_on_c, 2, 55, 0
2, 133104, Note_on_c, 2, 71, 0
2, 133108, Control_c, 2, 64, 127
2, 133116, Note_off_c, 2, 83, 0
2, 133532, Note_on_c, 2, 65, 45
2, 133536, Note_on_c, 2, 55, 35
2, 133536, Note_on_c, 2, 61, 64
2, 133556, Control_c, 2, 64, 0
2, 133596, Note_off_c, 2, 61, 0
2, 133604, Note_off_c, 2, 65, 0
2, 133612, Note_off_c, 2, 55, 0
2, 133864, Note_on_c, 2, 81, 76
2, 133864, Note_on_c, 2, 72, 72
2, 133864, Note_on_c, 2, 69, 70
2, 133872, Note_on_c, 2, 76, 76
2, 133972, Note_on_c, 2, 72, 0
2, 133992, Note_on_c, 2, 69, 0
2, 133996, Note_on_c, 2, 76, 0
2, 133996, Note_on_c, 2, 81, 0
2, 134008, Note_on_c, 2, 53, 39
2, 134012, Note_on_c, 2, 38, 44
2, 134072, Note_on_c, 2, 38, 0
2, 134076, Note_on_c, 2, 53, 0
2, 134084, Control_c, 2, 64, 127
2, 134340, Control_c, 2, 64, 0
2, 134352, Note_on_c, 2, 72, 44
2, 134352, Note_on_c, 2, 67, 40
2, 134360, Note_on_c, 2, 76, 47
2, 134376, Note_on_c, 2, 79, 62
2, 134452, Note_on_c, 2, 76, 0
2, 134452, Note_on_c, 2, 72, 0
2, 134464, Note_on_c, 2, 79, 0
2, 134476, Note_on_c, 2, 67, 0
2, 134524, Note_on_c, 2, 54, 32
2, 134532, Note_on_c, 2, 44, 45
2, 134780, Note_on_c, 2, 54, 0
2, 134804, Note_on_c, 2, 44, 0
2, 134828, Note_on_c, 2, 68, 57
2, 134836, Note_on_c, 2, 64, 57
2, 134840, Note_on_c, 2, 71, 61
2, 134852, Note_on_c, 2, 76, 65
2, 134920, Note_on_c, 2, 64, 0
2, 134928, Note_on_c, 2, 68, 0
2, 134956, Note_on_c, 2, 71, 0
2, 134980, Note_on_c, 2, 76, 0
2, 134992, Note_on_c, 2, 43, 28
2, 134992, Note_on_c, 2, 53, 31
2, 135036, Control_c, 2, 64, 127
2, 135064, Note_off_c, 2, 43, 0
2, 135072, Note_off_c, 2, 53, 0
2, 135304, Note_on_c, 2, 62, 54
2, 135308, Note_on_c, 2, 68, 56
2, 135312, Note_on_c, 2, 71, 58
2, 135324, Note_on_c, 2, 74, 62
2, 135372, Control_c, 2, 64, 0
2, 135400, Note_off_c, 2, 68, 0
2, 135420, Note_off_c, 2, 71, 0
2, 135456, Note_off_c, 2, 74, 0
2, 135456, Note_on_c, 2, 37, 46
2, 135456, Note_on_c, 2, 53, 37
2, 135464, Note_on_c, 2, 62, 0
2, 135512, Control_c, 2, 64, 127
2, 135536, Note_off_c, 2, 53, 0
2, 135540, Note_off_c, 2, 37, 0
2, 135796, Note_on_c, 2, 67, 35
2, 135796, Note_on_c, 2, 63, 81
2, 135804, Control_c, 2, 64, 0
2, 135824, Note_on_c, 2, 71, 29
2, 135832, Note_on_c, 2, 75, 2
2, 135836, Note_on_c, 2, 63, 0
2, 135840, Note_on_c, 2, 64, 68
2, 135848, Note_on_c, 2, 76, 28
2, 135880, Note_on_c, 2, 75, 0
2, 135928, Note_on_c, 2, 52, 48
2, 135936, Note_on_c, 2, 36, 51
2, 135988, Control_c, 2, 64, 127
2, 136008, Note_off_c, 2, 52, 0
2, 136020, Note_off_c, 2, 36, 0
2, 136364, Control_c, 2, 64, 0
2, 136408, Note_on_c, 2, 34, 68
2, 136408, Note_on_c, 2, 50, 46
2, 136496, Control_c, 2, 64, 127
2, 136504, Note_off_c, 2, 50, 0
2, 136508, Note_off_c, 2, 34, 0
2, 136876, Control_c, 2, 64, 0
2, 136896, Note_on_c, 2, 49, 67
2, 136900, Note_on_c, 2, 33, 57
2, 136984, Note_on_c, 2, 33, 0
2, 136984, Note_on_c, 2, 49, 0
2, 137000, Control_c, 2, 64, 127
2, 137060, Note_off_c, 2, 67, 0
2, 137076, Note_off_c, 2, 71, 0
2, 137100, Note_off_c, 2, 64, 0
2, 137132, Note_off_c, 2, 76, 0
2, 137344, Control_c, 2, 64, 0
2, 137372, Note_on_c, 2, 39, 69
2, 137372, Note_on_c, 2, 54, 62
2, 137456, Control_c, 2, 64, 127
2, 137520, Note_off_c, 2, 54, 0
2, 137548, Note_off_c, 2, 39, 0
2, 137724, Note_on_c, 2, 72, 82
2, 137748, Control_c, 2, 64, 0
2, 137808, Note_off_c, 2, 72, 0
2, 137828, Note_on_c, 2, 38, 58
2, 137836, Note_on_c, 2, 53, 44
2, 137848, Note_on_c, 2, 84, 68
2, 137852, Note_on_c, 2, 75, 86
2, 137908, Note_on_c, 2, 38, 0
2, 137964, Note_on_c, 2, 75, 0
2, 137976, Note_on_c, 2, 76, 39
2, 138204, Note_on_c, 2, 72, 56
2, 138224, Note_on_c, 2, 76, 0
2, 138236, Note_on_c, 2, 84, 0
2, 138276, Note_on_c, 2, 72, 0
2, 138308, Note_on_c, 2, 44, 73
2, 138316, Note_on_c, 2, 81, 86
2, 138364, Control_c, 2, 64, 127
2, 138416, Note_off_c, 2, 44, 0
2, 138448, Note_off_c, 2, 53, 0
2, 138512, Note_off_c, 2, 81, 0
2, 138640, Note_on_c, 2, 80, 100
2, 138700, Control_c, 2, 64, 0
2, 138784, Note_on_c, 2, 53, 28
2, 138784, Note_on_c, 2, 43, 39
2, 138800, Note_on_c, 2, 81, 65
2, 138812, Note_on_c, 2, 80, 0
2, 139044, Note_on_c, 2, 81, 0
2, 139124, Note_on_c, 2, 79, 97
2, 139204, Note_on_c, 2, 79, 0
2, 139296, Note_on_c, 2, 75, 55
2, 139304, Note_on_c, 2, 50, 52
2, 139360, Note_on_c, 2, 50, 0
2, 139364, Note_on_c, 2, 43, 0
2, 139368, Control_c, 2, 64, 127
2, 139384, Note_off_c, 2, 53, 0
2, 139396, Note_off_c, 2, 75, 0
2, 139432, Note_on_c, 2, 76, 2
2, 139572, Note_on_c, 2, 76, 0
2, 139652, Note_on_c, 2, 72, 56
2, 139728, Control_c, 2, 64, 0
2, 139736, Note_off_c, 2, 72, 0
2, 139772, Note_on_c, 2, 52, 35
2, 139772, Note_on_c, 2, 36, 50
2, 139776, Note_on_c, 2, 74, 76
2, 139844, Note_on_c, 2, 52, 0
2, 139848, Note_on_c, 2, 36, 0
2, 139880, Control_c, 2, 64, 127
2, 140084, Note_off_c, 2, 74, 0
2, 140132, Note_on_c, 2, 69, 25
2, 140232, Note_on_c, 2, 69, 0
2, 140244, Note_on_c, 2, 55, 57
2, 140244, Note_on_c, 2, 64, 63
2, 140248, Note_on_c, 2, 60, 56
2, 140248, Note_on_c, 2, 72, 90
2, 140256, Control_c, 2, 64, 0
2, 140308, Note_off_c, 2, 60, 0
2, 140308, Note_off_c, 2, 64, 0
2, 140332, Note_off_c, 2, 55, 0
2, 140516, Note_off_c, 2, 72, 0
2, 140592, Note_on_c, 2, 74, 93
2, 140668, Note_on_c, 2, 74, 0
2, 140704, Note_on_c, 2, 74, 50
2, 140720, Note_on_c, 2, 57, 53
2, 140720, Note_on_c, 2, 51, 57
2, 140728, Note_on_c, 2, 41, 52
2, 140776, Note_on_c, 2, 74, 0
2, 140776, Note_on_c, 2, 75, 62
2, 140800, Note_on_c, 2, 51, 0
2, 140804, Note_on_c, 2, 41, 0
2, 140816, Note_on_c, 2, 57, 0
2, 140820, Control_c, 2, 64, 127
2, 141100, Note_off_c, 2, 75, 0
2, 141104, Note_on_c, 2, 72, 42
2, 141220, Note_on_c, 2, 72, 0
2, 141224, Note_on_c, 2, 57, 58
2, 141224, Note_on_c, 2, 60, 52
2, 141224, Note_on_c, 2, 51, 68
2, 141236, Control_c, 2, 64, 0
2, 141236, Note_on_c, 2, 74, 90
2, 141308, Note_on_c, 2, 57, 0
2, 141316, Note_on_c, 2, 60, 0
2, 141324, Note_on_c, 2, 51, 0
2, 141600, Note_on_c, 2, 69, 29
2, 141608, Note_on_c, 2, 74, 0
2, 141684, Note_on_c, 2, 69, 0
2, 141696, Note_on_c, 2, 55, 31
2, 141704, Note_on_c, 2, 40, 51
2, 141724, Note_on_c, 2, 72, 47
2, 141764, Control_c, 2, 64, 127
2, 141776, Note_off_c, 2, 40, 0
2, 141780, Note_off_c, 2, 55, 0
2, 141800, Note_off_c, 2, 72, 0
2, 142180, Note_on_c, 2, 61, 81
2, 142184, Note_on_c, 2, 55, 63
2, 142196, Control_c, 2, 64, 0
2, 142256, Note_off_c, 2, 61, 0
2, 142276, Note_off_c, 2, 55, 0
2, 142508, Note_on_c, 2, 78, 102
2, 142508, Note_on_c, 2, 84, 96
2, 142512, Note_on_c, 2, 75, 102
2, 142512, Note_on_c, 2, 72, 90
2, 142588, Note_on_c, 2, 75, 0
2, 142600, Note_on_c, 2, 78, 0
2, 142608, Note_on_c, 2, 72, 0
2, 142628, Note_on_c, 2, 84, 0
2, 142644, Note_on_c, 2, 55, 62
2, 142716, Control_c, 2, 64, 127
2, 142736, Note_off_c, 2, 55, 0
2, 142980, Note_on_c, 2, 37, 80
2, 143104, Control_c, 2, 64, 0
2, 143132, Note_on_c, 2, 52, 56
2, 143304, Note_on_c, 2, 37, 0
2, 143388, Note_on_c, 2, 52, 0
2, 143456, Note_on_c, 2, 70, 99
2, 143456, Note_on_c, 2, 73, 96
2, 143464, Note_on_c, 2, 76, 81
2, 143568, Note_on_c, 2, 70, 0
2, 143572, Note_on_c, 2, 73, 0
2, 143580, Note_on_c, 2, 76, 0
2, 143604, Note_on_c, 2, 38, 70
2, 143612, Note_on_c, 2, 53, 48
2, 143624, Note_on_c, 2, 72, 64
2, 143628, Note_on_c, 2, 79, 59
2, 143652, Note_on_c, 2, 69, 34
2, 143688, Note_on_c, 2, 53, 0
2, 143688, Note_on_c, 2, 38, 0
2, 143720, Control_c, 2, 64, 127
2, 143812, Note_off_c, 2, 69, 0
2, 143848, Note_off_c, 2, 72, 0
2, 143864, Note_off_c, 2, 79, 0
2, 143944, Note_on_c, 2, 79, 72
2, 143944, Note_on_c, 2, 72, 79
2, 143952, Note_on_c, 2, 69, 67
2, 144012, Note_on_c, 2, 72, 0
2, 144032, Note_on_c, 2, 79, 0
2, 144040, Note_on_c, 2, 69, 0
2, 144064, Control_c, 2, 64, 0
2, 144076, Note_on_c, 2, 62, 61
2, 144080, Note_on_c, 2, 57, 66
2, 144080, Note_on_c, 2, 60, 68
2, 144156, Note_on_c, 2, 60, 0
2, 144156, Note_on_c, 2, 62, 0
2, 144168, Note_on_c, 2, 57, 0
2, 144380, Note_on_c, 2, 72, 84
2, 144380, Note_on_c, 2, 69, 81
2, 144384, Note_on_c, 2, 65, 79
2, 144536, Note_on_c, 2, 45, 62
2, 144616, Note_on_c, 2, 46, 73
2, 144620, Note_on_c, 2, 45, 0
2, 144696, Note_on_c, 2, 49, 82
2, 144724, Note_on_c, 2, 46, 0
2, 144748, Note_on_c, 2, 49, 0
2, 144756, Note_on_c, 2, 52, 65
2, 144816, Note_on_c, 2, 52, 0
2, 144828, Note_on_c, 2, 65, 0
2, 144836, Note_on_c, 2, 72, 0
2, 144852, Note_on_c, 2, 69, 0
2, 144856, Note_on_c, 2, 53, 71
2, 144932, Note_on_c, 2, 53, 0
2, 144964, Note_on_c, 2, 57, 82
2, 145028, Note_on_c, 2, 57, 0
2, 145092, Note_on_c, 2, 65, 49
2, 145092, Note_on_c, 2, 61, 86
2, 145120, Note_on_c, 2, 62, 41
2, 145124, Note_on_c, 2, 61, 0
2, 145140, Note_on_c, 2, 70, 83
2, 145160, Note_on_c, 2, 62, 0
2, 145164, Note_on_c, 2, 65, 0
2, 145200, Note_on_c, 2, 73, 74
2, 145208, Note_on_c, 2, 70, 0
2, 145244, Note_on_c, 2, 75, 81
2, 145260, Note_on_c, 2, 73, 0
2, 145268, Note_on_c, 2, 75, 0
2, 145304, Note_on_c, 2, 77, 82
2, 145384, Note_on_c, 2, 77, 0
2, 145384, Note_on_c, 2, 82, 68
2, 145432, Note_on_c, 2, 85, 85
2, 145460, Note_on_c, 2, 82, 0
2, 145520, Note_on_c, 2, 89, 107
2, 145528, Note_on_c, 2, 85, 0
2, 145580, Note_on_c, 2, 89, 0
2, 145808, Note_on_c, 2, 38, 93
2, 146028, Control_c, 2, 64, 127
2, 146128, Note_off_c, 2, 38, 0
2, 146292, Note_on_c, 2, 67, 100
2, 146292, Note_on_c, 2, 60, 107
2, 146352, Control_c, 2, 64, 0
2, 146392, Note_off_c, 2, 60, 0
2, 146400, Note_on_c, 2, 53, 23
2, 146444, Note_on_c, 2, 57, 58
2, 146732, Note_on_c, 2, 57, 0
2, 146776, Note_on_c, 2, 58, 91
2, 146924, Note_on_c, 2, 50, 88
2, 146924, Note_on_c, 2, 59, 80
2, 146944, Note_on_c, 2, 58, 0
2, 146960, Note_on_c, 2, 67, 0
2, 146964, Note_on_c, 2, 50, 0
2, 146976, Note_on_c, 2, 53, 0
2, 146988, Control_c, 2, 64, 127
2, 147008, Note_off_c, 2, 59, 0
2, 147296, Note_on_c, 2, 40, 65
2, 147400, Control_c, 2, 64, 0
2, 147424, Note_on_c, 2, 55, 63
2, 147428, Note_on_c, 2, 72, 87
2, 147428, Note_on_c, 2, 67, 84
2, 147428, Note_on_c, 2, 60, 87
2, 147452, Note_on_c, 2, 40, 0
2, 147496, Note_on_c, 2, 60, 0
2, 147504, Note_on_c, 2, 67, 0
2, 147532, Note_on_c, 2, 72, 0
2, 147912, Note_on_c, 2, 72, 102
2, 147916, Note_on_c, 2, 84, 101
2, 147916, Note_on_c, 2, 79, 103
2, 147916, Note_on_c, 2, 40, 85
2, 147972, Note_on_c, 2, 55, 0
2, 147972, Control_c, 2, 64, 127
2, 147992, Note_off_c, 2, 72, 0
2, 147996, Note_off_c, 2, 40, 0
2, 148096, Note_off_c, 2, 79, 0
2, 148140, Note_off_c, 2, 84, 0
2, 148244, Note_on_c, 2, 39, 73
2, 148260, Note_on_c, 2, 81, 70
2, 148316, Control_c, 2, 64, 0
2, 148360, Note_off_c, 2, 81, 0
2, 148396, Note_on_c, 2, 54, 74
2, 148396, Note_on_c, 2, 84, 77
2, 148396, Note_on_c, 2, 78, 87
2, 148400, Note_on_c, 2, 72, 67
2, 148448, Note_on_c, 2, 39, 0
2, 148480, Note_on_c, 2, 54, 0
2, 148500, Note_on_c, 2, 78, 0
2, 148504, Note_on_c, 2, 72, 0
2, 148544, Note_on_c, 2, 84, 0
2, 148876, Note_on_c, 2, 63, 75
2, 148880, Note_on_c, 2, 60, 70
2, 148884, Note_on_c, 2, 54, 69
2, 148924, Control_c, 2, 64, 127
2, 148940, Note_off_c, 2, 63, 0
2, 148944, Note_off_c, 2, 60, 0
2, 148948, Note_off_c, 2, 54, 0
2, 149232, Note_on_c, 2, 81, 56
2, 149312, Control_c, 2, 64, 0
2, 149356, Note_off_c, 2, 81, 0
2, 149360, Note_on_c, 2, 53, 60
2, 149364, Note_on_c, 2, 72, 88
2, 149368, Note_on_c, 2, 84, 88
2, 149372, Note_on_c, 2, 77, 82
2, 149376, Note_on_c, 2, 38, 38
2, 149488, Note_on_c, 2, 38, 0
2, 149520, Note_on_c, 2, 84, 0
2, 149528, Note_on_c, 2, 77, 0
2, 149528, Note_on_c, 2, 72, 0
2, 149528, Note_on_c, 2, 53, 0
2, 149840, Note_on_c, 2, 54, 69
2, 149840, Note_on_c, 2, 85, 91
2, 149840, Note_on_c, 2, 73, 90
2, 149840, Note_on_c, 2, 80, 85
2, 149844, Note_on_c, 2, 78, 86
2, 149844, Note_on_c, 2, 44, 75
2, 149884, Control_c, 2, 64, 127
2, 149912, Note_off_c, 2, 78, 0
2, 149928, Note_off_c, 2, 73, 0
2, 149944, Note_off_c, 2, 80, 0
2, 149948, Note_off_c, 2, 44, 0
2, 149948, Note_off_c, 2, 85, 0
2, 149964, Note_off_c, 2, 54, 0
2, 150156, Note_on_c, 2, 80, 79
2, 150156, Note_on_c, 2, 86, 83
2, 150160, Note_on_c, 2, 74, 73
2, 150176, Control_c, 2, 64, 0
2, 150292, Note_off_c, 2, 80, 0
2, 150312, Note_off_c, 2, 86, 0
2, 150312, Note_on_c, 2, 53, 55
2, 150328, Note_on_c, 2, 43, 47
2, 150352, Note_on_c, 2, 74, 0
2, 150368, Control_c, 2, 64, 127
2, 150388, Note_off_c, 2, 43, 0
2, 150420, Note_off_c, 2, 53, 0
2, 150644, Note_on_c, 2, 80, 81
2, 150644, Note_on_c, 2, 71, 81
2, 150648, Note_on_c, 2, 76, 79
2, 150648, Note_on_c, 2, 83, 79
2, 150712, Control_c, 2, 64, 0
2, 150800, Note_on_c, 2, 44, 59
2, 150804, Note_on_c, 2, 59, 52
2, 150816, Note_on_c, 2, 53, 56
2, 150820, Note_on_c, 2, 76, 0
2, 150824, Note_on_c, 2, 83, 0
2, 150824, Note_on_c, 2, 80, 0
2, 150860, Control_c, 2, 64, 127
2, 150872, Note_off_c, 2, 71, 0
2, 150884, Note_off_c, 2, 59, 0
2, 150892, Note_off_c, 2, 53, 0
2, 150896, Note_off_c, 2, 44, 0
2, 151136, Note_on_c, 2, 69, 64
2, 151136, Note_on_c, 2, 72, 58
2, 151140, Note_on_c, 2, 81, 63
2, 151144, Note_on_c, 2, 76, 64
2, 151188, Control_c, 2, 64, 0
2, 151288, Note_on_c, 2, 45, 56
2, 151288, Note_on_c, 2, 55, 51
2, 151348, Control_c, 2, 64, 127
2, 151376, Note_off_c, 2, 45, 0
2, 151384, Note_off_c, 2, 55, 0
2, 151624, Note_on_c, 2, 39, 70
2, 151680, Control_c, 2, 64, 0
2, 151780, Note_on_c, 2, 55, 66
2, 151796, Note_on_c, 2, 39, 0
2, 151824, Note_on_c, 2, 76, 0
2, 151840, Control_c, 2, 64, 127
2, 151844, Note_off_c, 2, 81, 0
2, 151852, Note_off_c, 2, 72, 0
2, 151852, Note_off_c, 2, 69, 0
2, 151872, Note_off_c, 2, 55, 0
2, 152104, Control_c, 2, 64, 0
2, 152104, Note_on_c, 2, 72, 62
2, 152104, Note_on_c, 2, 75, 71
2, 152108, Note_on_c, 2, 78, 78
2, 152108, Note_on_c, 2, 81, 64
2, 152108, Note_on_c, 2, 69, 54
2, 152252, Note_on_c, 2, 38, 46
2, 152256, Note_on_c, 2, 54, 43
2, 152288, Note_on_c, 2, 75, 0
2, 152288, Control_c, 2, 64, 127
2, 152300, Note_off_c, 2, 78, 0
2, 152304, Note_off_c, 2, 81, 0
2, 152308, Note_off_c, 2, 72, 0
2, 152324, Note_off_c, 2, 69, 0
2, 152332, Note_off_c, 2, 38, 0
2, 152396, Note_off_c, 2, 54, 0
2, 152592, Note_on_c, 2, 44, 82
2, 152668, Control_c, 2, 64, 0
2, 152752, Note_on_c, 2, 54, 77
2, 152800, Control_c, 2, 64, 127
2, 152852, Note_off_c, 2, 54, 0
2, 152864, Note_off_c, 2, 44, 0
2, 153052, Note_on_c, 2, 70, 88
2, 153056, Control_c, 2, 64, 0
2, 153056, Note_on_c, 2, 67, 64
2, 153060, Note_on_c, 2, 79, 74
2, 153060, Note_on_c, 2, 74, 71
2, 153092, Note_on_c, 2, 71, 85
2, 153108, Note_on_c, 2, 70, 0
2, 153204, Note_on_c, 2, 43, 59
2, 153204, Note_on_c, 2, 50, 63
2, 153232, Note_on_c, 2, 74, 0
2, 153244, Note_on_c, 2, 79, 0
2, 153256, Note_on_c, 2, 71, 0
2, 153256, Control_c, 2, 64, 127
2, 153260, Note_off_c, 2, 43, 0
2, 153264, Note_off_c, 2, 50, 0
2, 153268, Note_off_c, 2, 67, 0
2, 153680, Note_on_c, 2, 57, 97
2, 153696, Control_c, 2, 64, 0
2, 154004, Note_on_c, 2, 55, 71
2, 154028, Note_on_c, 2, 57, 0
2, 154144, Note_on_c, 2, 48, 70
2, 154156, Note_on_c, 2, 58, 77
2, 154160, Note_on_c, 2, 64, 79
2, 154252, Control_c, 2, 64, 127
2, 154308, Note_off_c, 2, 48, 0
2, 154316, Note_off_c, 2, 55, 0
2, 154332, Note_off_c, 2, 58, 0
2, 154368, Note_off_c, 2, 64, 0
2, 154620, Control_c, 2, 64, 0
2, 154632, Note_on_c, 2, 66, 72
2, 154632, Note_on_c, 2, 63, 72
2, 154636, Note_on_c, 2, 57, 58
2, 154644, Note_on_c, 2, 47, 54
2, 154744, Note_on_c, 2, 47, 0
2, 154752, Control_c, 2, 64, 127
2, 154796, Note_off_c, 2, 57, 0
2, 154800, Note_off_c, 2, 66, 0
2, 154804, Note_off_c, 2, 63, 0
2, 155080, Control_c, 2, 64, 0
2, 155108, Note_on_c, 2, 55, 45
2, 155112, Note_on_c, 2, 64, 68
2, 155112, Note_on_c, 2, 40, 49
2, 155116, Note_on_c, 2, 59, 66
2, 155116, Note_on_c, 2, 67, 67
2, 155332, Note_on_c, 2, 59, 0
2, 155380, Note_on_c, 2, 63, 81
2, 155404, Note_on_c, 2, 64, 0
2, 155584, Note_on_c, 2, 40, 0
2, 155608, Note_on_c, 2, 62, 61
2, 155628, Note_on_c, 2, 63, 0
2, 155628, Note_on_c, 2, 55, 0
2, 155840, Note_on_c, 2, 62, 0
2, 155840, Note_on_c, 2, 61, 69
2, 156064, Note_on_c, 2, 55, 45
2, 156068, Note_on_c, 2, 45, 42
2, 156076, Note_on_c, 2, 60, 42
2, 156084, Note_on_c, 2, 61, 0
2, 156144, Control_c, 2, 64, 127
2, 156568, Note_on_c, 2, 52, 90
2, 156588, Note_on_c, 2, 55, 0
2, 156608, Note_on_c, 2, 52, 0
2, 156612, Note_on_c, 2, 45, 0
2, 156620, Note_on_c, 2, 60, 0
2, 156652, Note_on_c, 2, 67, 0
2, 156888, Note_on_c, 2, 40, 80
2, 156972, Control_c, 2, 64, 0
2, 157048, Note_on_c, 2, 33, 81
2, 157072, Note_on_c, 2, 40, 0
2, 157112, Note_on_c, 2, 33, 0
2, 157380, Note_on_c, 2, 66, 99
2, 157380, Note_on_c, 2, 71, 88
2, 157380, Note_on_c, 2, 64, 97
2, 157384, Note_on_c, 2, 60, 95
2, 157384, Note_on_c, 2, 58, 101
2, 157396, Note_on_c, 2, 59, 66
2, 157404, Note_on_c, 2, 58, 0
2, 157404, Note_on_c, 2, 57, 85
2, 157432, Note_on_c, 2, 57, 0
2, 157624, Control_c, 2, 64, 127
2, 157776, Note_off_c, 2, 71, 0
2, 157792, Note_off_c, 2, 59, 0
2, 157796, Note_off_c, 2, 64, 0
2, 157804, Note_off_c, 2, 60, 0
2, 157840, Note_off_c, 2, 66, 0
2, 158004, Control_c, 2, 64, 0
2, 158064, Note_on_c, 2, 68, 57
2, 158064, Note_on_c, 2, 56, 54
2, 158068, Note_on_c, 2, 64, 42
2, 158072, Note_on_c, 2, 60, 34
2, 158152, Note_on_c, 2, 56, 0
2, 158152, Control_c, 2, 64, 127
2, 158188, Note_off_c, 2, 60, 0
2, 158188, Note_off_c, 2, 64, 0
2, 158196, Note_off_c, 2, 68, 0
2, 158356, Control_c, 2, 64, 0
2, 158364, Note_on_c, 2, 69, 42
2, 158372, Note_on_c, 2, 57, 56
2, 158372, Note_on_c, 2, 60, 35
2, 158376, Note_on_c, 2, 64, 40
2, 158380, Note_on_c, 2, 66, 58
2, 158480, Note_on_c, 2, 57, 0
2, 158480, Note_on_c, 2, 69, 0
2, 158496, Note_on_c, 2, 66, 0
2, 158496, Note_on_c, 2, 64, 0
2, 158504, Note_on_c, 2, 60, 0
2, 158516, Control_c, 2, 64, 127
2, 158668, Note_on_c, 2, 66, 62
2, 158668, Note_on_c, 2, 71, 63
2, 158672, Note_on_c, 2, 59, 61
2, 158672, Note_on_c, 2, 60, 58
2, 158672, Note_on_c, 2, 64, 62
2, 158732, Note_on_c, 2, 64, 0
2, 158740, Note_on_c, 2, 66, 0
2, 158744, Note_on_c, 2, 59, 0
2, 158752, Note_on_c, 2, 71, 0
2, 158756, Note_on_c, 2, 60, 0
2, 158956, Control_c, 2, 64, 0
2, 158976, Note_on_c, 2, 72, 73
2, 158976, Note_on_c, 2, 68, 69
2, 158980, Note_on_c, 2, 58, 61
2, 158980, Note_on_c, 2, 51, 63
2, 158980, Note_on_c, 2, 65, 67
2, 158980, Note_on_c, 2, 61, 72
2, 159072, Note_on_c, 2, 61, 0
2, 159076, Control_c, 2, 64, 127
2, 159084, Note_off_c, 2, 65, 0
2, 159084, Note_off_c, 2, 58, 0
2, 159092, Note_off_c, 2, 72, 0
2, 159104, Note_off_c, 2, 51, 0
2, 159104, Note_off_c, 2, 68, 0
2, 159272, Note_on_c, 2, 73, 98
2, 159276, Note_on_c, 2, 70, 98
2, 159276, Note_on_c, 2, 66, 99
2, 159276, Note_on_c, 2, 61, 88
2, 159276, Note_on_c, 2, 65, 83
2, 159332, Control_c, 2, 64, 0
2, 159428, Control_c, 2, 64, 127
2, 159500, Note_off_c, 2, 73, 0
2, 159512, Note_off_c, 2, 70, 0
2, 159516, Note_off_c, 2, 65, 0
2, 159520, Note_off_c, 2, 66, 0
2, 159532, Note_off_c, 2, 61, 0
2, 159896, Control_c, 2, 64, 0
2, 159940, Note_on_c, 2, 61, 58
2, 159940, Note_on_c, 2, 70, 73
2, 159944, Note_on_c, 2, 63, 71
2, 159944, Note_on_c, 2, 66, 72
2, 159952, Note_on_c, 2, 58, 72
2, 160076, Note_on_c, 2, 58, 0
2, 160080, Note_on_c, 2, 66, 0
2, 160088, Note_on_c, 2, 70, 0
2, 160112, Note_on_c, 2, 63, 0
2, 160128, Note_on_c, 2, 61, 0
2, 160408, Note_on_c, 2, 68, 59
2, 160412, Note_on_c, 2, 60, 49
2, 160412, Note_on_c, 2, 65, 67
2, 160424, Note_on_c, 2, 56, 62
2, 160468, Control_c, 2, 64, 127
2, 160496, Note_off_c, 2, 56, 0
2, 160536, Note_off_c, 2, 65, 0
2, 160540, Note_off_c, 2, 68, 0
2, 160572, Note_off_c, 2, 60, 0
2, 160784, Note_on_c, 2, 44, 57
2, 160848, Control_c, 2, 64, 0
2, 160904, Note_on_c, 2, 65, 52
2, 160904, Note_on_c, 2, 56, 49
2, 160908, Note_on_c, 2, 60, 58
2, 160920, Note_on_c, 2, 54, 45
2, 160980, Control_c, 2, 64, 127
2, 161020, Note_off_c, 2, 65, 0
2, 161160, Note_off_c, 2, 56, 0
2, 161236, Note_on_c, 2, 68, 67
2, 161264, Note_on_c, 2, 56, 11
2, 161352, Note_on_c, 2, 44, 0
2, 161364, Note_on_c, 2, 54, 0
2, 161380, Note_on_c, 2, 56, 0
2, 161396, Note_on_c, 2, 68, 0
2, 161408, Note_on_c, 2, 60, 0
2, 161720, Note_on_c, 2, 43, 30
2, 161756, Control_c, 2, 64, 0
2, 161832, Note_on_c, 2, 67, 56
2, 161832, Note_on_c, 2, 57, 52
2, 161836, Note_on_c, 2, 60, 43
2, 161856, Note_on_c, 2, 53, 39
2, 161908, Control_c, 2, 64, 127
2, 161928, Note_off_c, 2, 60, 0
2, 161944, Note_off_c, 2, 57, 0
2, 162164, Note_on_c, 2, 59, 43
2, 162168, Note_on_c, 2, 56, 43
2, 162176, Note_on_c, 2, 50, 42
2, 162272, Note_on_c, 2, 56, 0
2, 162276, Note_on_c, 2, 50, 0
2, 162296, Note_on_c, 2, 43, 0
2, 162300, Note_on_c, 2, 53, 0
2, 162304, Note_on_c, 2, 59, 0
2, 162380, Note_on_c, 2, 67, 0
2, 162676, Note_on_c, 2, 43, 33
2, 162752, Control_c, 2, 64, 0
2, 162812, Note_on_c, 2, 74, 67
2, 162820, Note_on_c, 2, 75, 71
2, 162820, Note_on_c, 2, 52, 46
2, 162824, Note_on_c, 2, 36, 38
2, 162864, Note_on_c, 2, 76, 58
2, 162872, Note_on_c, 2, 74, 0
2, 162876, Note_on_c, 2, 75, 0
2, 163084, Note_on_c, 2, 76, 0
2, 163164, Note_on_c, 2, 79, 68
2, 163284, Note_on_c, 2, 79, 0
2, 163304, Note_on_c, 2, 76, 63
2, 163316, Note_on_c, 2, 36, 0
2, 163316, Note_on_c, 2, 43, 0
2, 163320, Note_on_c, 2, 52, 0
2, 163332, Control_c, 2, 64, 127
2, 163376, Note_off_c, 2, 76, 0
2, 163728, Control_c, 2, 64, 0
2, 163768, Note_on_c, 2, 55, 42
2, 163772, Note_on_c, 2, 75, 48
2, 163776, Note_on_c, 2, 71, 38
2, 163776, Note_on_c, 2, 78, 53
2, 163776, Note_on_c, 2, 83, 41
2, 164100, Control_c, 2, 64, 127
2, 164292, Note_off_c, 2, 55, 0
2, 164308, Note_off_c, 2, 83, 0
2, 164352, Note_off_c, 2, 78, 0
2, 164364, Note_off_c, 2, 75, 0
2, 164372, Note_off_c, 2, 71, 0
2, 164600, Note_on_c, 2, 38, 53
2, 164652, Control_c, 2, 64, 0
2, 164728, Note_on_c, 2, 53, 55
2, 164748, Note_on_c, 2, 80, 84
2, 164808, Note_on_c, 2, 81, 65
2, 164820, Note_on_c, 2, 80, 0
2, 165140, Control_c, 2, 64, 127
2, 165192, Note_off_c, 2, 38, 0
2, 165228, Note_off_c, 2, 53, 0
2, 165388, Note_off_c, 2, 81, 0
2, 165528, Note_on_c, 2, 79, 93
2, 165612, Note_on_c, 2, 79, 0
2, 165616, Control_c, 2, 64, 0
2, 165680, Note_on_c, 2, 43, 34
2, 165684, Note_on_c, 2, 53, 33
2, 165700, Note_on_c, 2, 75, 33
2, 165768, Note_on_c, 2, 75, 0
2, 165768, Note_on_c, 2, 76, 43
2, 165956, Control_c, 2, 64, 127
2, 166148, Note_off_c, 2, 43, 0
2, 166168, Note_on_c, 2, 74, 84
2, 166172, Note_on_c, 2, 76, 0
2, 166188, Note_on_c, 2, 53, 0
2, 166460, Note_on_c, 2, 74, 0
2, 166620, Control_c, 2, 64, 0
2, 166652, Note_on_c, 2, 43, 36
2, 166652, Note_on_c, 2, 36, 37
2, 166652, Note_on_c, 2, 52, 37
2, 166656, Note_on_c, 2, 74, 77
2, 166660, Note_on_c, 2, 75, 72
2, 166716, Note_on_c, 2, 74, 0
2, 166716, Note_on_c, 2, 76, 63
2, 166724, Note_on_c, 2, 75, 0
2, 166968, Note_on_c, 2, 76, 0
2, 167004, Note_on_c, 2, 79, 70
2, 167128, Note_on_c, 2, 79, 0
2, 167148, Note_on_c, 2, 76, 55
2, 167392, Control_c, 2, 64, 127
2, 167408, Note_off_c, 2, 76, 0
2, 167480, Note_on_c, 2, 76, 79
2, 167556, Note_on_c, 2, 76, 0
2, 167636, Note_on_c, 2, 36, 0
2, 167644, Note_on_c, 2, 43, 0
2, 167692, Note_on_c, 2, 52, 0
2, 168548, Control_c, 2, 64, 0
2, 168564, Note_on_c, 2, 43, 42
2, 168568, Note_on_c, 2, 53, 38
2, 168700, Note_on_c, 2, 55, 46
2, 168792, Note_on_c, 2, 55, 0
2, 168800, Note_on_c, 2, 57, 56
2, 168876, Note_on_c, 2, 57, 0
2, 168928, Note_on_c, 2, 59, 54
2, 169016, Note_on_c, 2, 59, 0
2, 169028, Note_on_c, 2, 60, 61
2, 169152, Note_on_c, 2, 60, 0
2, 169164, Note_on_c, 2, 62, 50
2, 169276, Note_on_c, 2, 64, 59
2, 169280, Note_on_c, 2, 62, 0
2, 169360, Note_on_c, 2, 64, 0
2, 169416, Note_on_c, 2, 65, 55
2, 169512, Note_on_c, 2, 67, 81
2, 169532, Note_on_c, 2, 65, 0
2, 169612, Note_on_c, 2, 67, 0
2, 169644, Note_on_c, 2, 63, 76
2, 169704, Note_on_c, 2, 63, 0
2, 169876, Note_on_c, 2, 67, 73
2, 169964, Note_on_c, 2, 67, 0
2, 169992, Note_on_c, 2, 62, 59
2, 170032, Note_on_c, 2, 43, 0
2, 170044, Control_c, 2, 64, 127
2, 170068, Note_off_c, 2, 53, 0
2, 170312, Note_off_c, 2, 62, 0
2, 170348, Note_on_c, 2, 67, 57
2, 170440, Note_on_c, 2, 67, 0
2, 170440, Control_c, 2, 64, 0
2, 170472, Note_on_c, 2, 52, 40
2, 170472, Note_on_c, 2, 60, 57
2, 170476, Note_on_c, 2, 36, 39
2, 170680, Control_c, 2, 64, 127
2, 170948, Note_on_c, 2, 43, 50
2, 170976, Note_on_c, 2, 36, 0
2, 170980, Note_on_c, 2, 52, 0
2, 170988, Note_on_c, 2, 43, 0
2, 171156, Note_on_c, 2, 60, 0
2, 171288, Note_on_c, 2, 62, 95
2, 171316, Note_on_c, 2, 60, 76
2, 171356, Control_c, 2, 64, 0
2, 171368, Note_off_c, 2, 62, 0
2, 171444, Note_on_c, 2, 51, 46
2, 171448, Note_on_c, 2, 41, 41
2, 171448, Note_on_c, 2, 59, 47
2, 171464, Note_on_c, 2, 60, 0
2, 171728, Note_on_c, 2, 59, 0
2, 171788, Note_on_c, 2, 60, 74
2, 171896, Note_on_c, 2, 60, 0
2, 171936, Note_on_c, 2, 62, 58
2, 172000, Control_c, 2, 64, 127
2, 172020, Note_off_c, 2, 41, 0
2, 172036, Note_off_c, 2, 51, 0
2, 172188, Note_off_c, 2, 62, 0
2, 172272, Note_on_c, 2, 63, 64
2, 172368, Control_c, 2, 64, 0
2, 172392, Note_off_c, 2, 63, 0
2, 172396, Note_on_c, 2, 55, 46
2, 172408, Note_on_c, 2, 40, 50
2, 172420, Note_on_c, 2, 64, 70
2, 172728, Note_on_c, 2, 69, 36
2, 172784, Note_on_c, 2, 70, 65
2, 172804, Note_on_c, 2, 64, 0
2, 172848, Note_on_c, 2, 71, 66
2, 172852, Note_on_c, 2, 69, 0
2, 172912, Note_on_c, 2, 70, 0
2, 172916, Note_on_c, 2, 40, 0
2, 172916, Note_on_c, 2, 72, 99
2, 172948, Note_on_c, 2, 71, 0
2, 172964, Note_on_c, 2, 55, 0
2, 172976, Control_c, 2, 64, 127
2, 173160, Control_c, 2, 64, 0
2, 173228, Note_on_c, 2, 45, 81
2, 173300, Note_on_c, 2, 45, 0
2, 173672, Note_on_c, 2, 69, 69
2, 173676, Note_on_c, 2, 61, 88
2, 173676, Note_on_c, 2, 65, 80
2, 173684, Note_on_c, 2, 57, 81
2, 173856, Control_c, 2, 64, 127
2, 173940, Note_off_c, 2, 69, 0
2, 173952, Note_off_c, 2, 72, 0
2, 173972, Note_off_c, 2, 65, 0
2, 173976, Note_off_c, 2, 57, 0
2, 174008, Note_off_c, 2, 61, 0
2, 174192, Note_on_c, 2, 54, 50
2, 174280, Control_c, 2, 64, 0
2, 174316, Note_off_c, 2, 54, 0
2, 174328, Note_on_c, 2, 57, 61
2, 174328, Note_on_c, 2, 55, 73
2, 174328, Note_on_c, 2, 67, 64
2, 174328, Note_on_c, 2, 60, 64
2, 174336, Note_on_c, 2, 64, 68
2, 174412, Note_on_c, 2, 55, 0
2, 174672, Note_on_c, 2, 51, 53
2, 174816, Note_on_c, 2, 51, 0
2, 174824, Note_on_c, 2, 52, 57
2, 174960, Note_on_c, 2, 52, 0
2, 175140, Note_on_c, 2, 47, 50
2, 175300, Note_on_c, 2, 47, 0
2, 175300, Note_on_c, 2, 48, 60
2, 175420, Note_on_c, 2, 48, 0
2, 175616, Note_on_c, 2, 44, 63
2, 175756, Note_on_c, 2, 44, 0
2, 175768, Note_on_c, 2, 45, 55
2, 175880, Note_on_c, 2, 45, 0
2, 176092, Note_on_c, 2, 42, 71
2, 176152, Note_on_c, 2, 67, 0
2, 176164, Note_on_c, 2, 60, 0
2, 176176, Note_on_c, 2, 57, 0
2, 176208, Note_on_c, 2, 64, 0
2, 176224, Note_on_c, 2, 42, 0
2, 176244, Note_on_c, 2, 43, 61
2, 176568, Note_on_c, 2, 31, 99
2, 176612, Control_c, 2, 64, 127
2, 176664, Note_off_c, 2, 31, 0
2, 176696, Note_off_c, 2, 43, 0
2, 177092, Note_on_c, 2, 77, 61
2, 177188, Note_on_c, 2, 77, 0
2, 177204, Control_c, 2, 64, 0
2, 177212, Note_on_c, 2, 81, 91
2, 177216, Note_on_c, 2, 69, 101
2, 177220, Note_on_c, 2, 57, 90
2, 177384, Note_on_c, 2, 69, 0
2, 177404, Note_on_c, 2, 81, 0
2, 177700, Note_on_c, 2, 47, 90
2, 177700, Note_on_c, 2, 80, 87
2, 177700, Note_on_c, 2, 83, 84
2, 177700, Note_on_c, 2, 71, 88
2, 177704, Note_on_c, 2, 77, 82
2, 177768, Control_c, 2, 64, 127
2, 177820, Note_off_c, 2, 47, 0
2, 177820, Note_off_c, 2, 57, 0
2, 177844, Note_off_c, 2, 71, 0
2, 177848, Note_off_c, 2, 77, 0
2, 177848, Note_off_c, 2, 80, 0
2, 177880, Note_off_c, 2, 83, 0
2, 178080, Note_on_c, 2, 45, 45
2, 178144, Control_c, 2, 64, 0
2, 178196, Note_on_c, 2, 79, 91
2, 178196, Note_on_c, 2, 72, 91
2, 178196, Note_on_c, 2, 84, 91
2, 178200, Note_on_c, 2, 55, 73
2, 178268, Note_on_c, 2, 45, 0
2, 178296, Note_on_c, 2, 55, 0
2, 178320, Note_on_c, 2, 72, 0
2, 178332, Note_on_c, 2, 79, 0
2, 178356, Note_on_c, 2, 84, 0
2, 178640, Note_on_c, 2, 64, 57
2, 178644, Note_on_c, 2, 60, 60
2, 178648, Note_on_c, 2, 57, 59
2, 178648, Note_on_c, 2, 55, 46
2, 178752, Note_on_c, 2, 60, 0
2, 178764, Note_on_c, 2, 55, 0
2, 178768, Note_on_c, 2, 64, 0
2, 178776, Note_on_c, 2, 57, 0
2, 178968, Note_on_c, 2, 78, 102
2, 178968, Note_on_c, 2, 75, 101
2, 178968, Note_on_c, 2, 72, 91
2, 178972, Note_on_c, 2, 84, 94
2, 179088, Note_on_c, 2, 72, 0
2, 179088, Note_on_c, 2, 75, 0
2, 179096, Note_on_c, 2, 78, 0
2, 179112, Note_on_c, 2, 84, 0
2, 179136, Note_on_c, 2, 39, 57
2, 179140, Note_on_c, 2, 54, 38
2, 179160, Note_on_c, 2, 84, 43
2, 179160, Note_on_c, 2, 72, 31
2, 179164, Note_on_c, 2, 75, 54
2, 179164, Note_on_c, 2, 78, 50
2, 179260, Note_on_c, 2, 39, 0
2, 179296, Note_on_c, 2, 54, 0
2, 179408, Note_on_c, 2, 72, 0
2, 179420, Note_on_c, 2, 78, 0
2, 179424, Note_on_c, 2, 75, 0
2, 179444, Note_on_c, 2, 84, 0
2, 179604, Note_on_c, 2, 54, 58
2, 179608, Note_on_c, 2, 63, 58
2, 179608, Note_on_c, 2, 72, 48
2, 179612, Note_on_c, 2, 60, 64
2, 179612, Note_on_c, 2, 75, 70
2, 179616, Note_on_c, 2, 78, 78
2, 179632, Note_on_c, 2, 84, 80
2, 179720, Note_on_c, 2, 60, 0
2, 179728, Note_on_c, 2, 63, 0
2, 179744, Note_on_c, 2, 54, 0
2, 179860, Note_on_c, 2, 75, 0
2, 179880, Note_on_c, 2, 78, 0
2, 179892, Note_on_c, 2, 84, 0
2, 179920, Note_on_c, 2, 72, 0
2, 180076, Note_on_c, 2, 72, 67
2, 180076, Note_on_c, 2, 53, 59
2, 180080, Note_on_c, 2, 38, 59
2, 180084, Note_on_c, 2, 77, 67
2, 180088, Note_on_c, 2, 81, 63
2, 180096, Note_on_c, 2, 84, 80
2, 180188, Note_on_c, 2, 38, 0
2, 180308, Note_on_c, 2, 53, 0
2, 180552, Note_on_c, 2, 54, 84
2, 180552, Note_on_c, 2, 44, 90
2, 180620, Note_on_c, 2, 72, 0
2, 180640, Note_on_c, 2, 77, 0
2, 180644, Note_on_c, 2, 81, 0
2, 180676, Note_on_c, 2, 84, 0
2, 180816, Note_on_c, 2, 54, 0
2, 180828, Note_on_c, 2, 44, 0
2, 180888, Note_on_c, 2, 80, 105
2, 180892, Note_on_c, 2, 74, 96
2, 180892, Note_on_c, 2, 86, 100
2, 180924, Note_on_c, 2, 81, 43
2, 180968, Note_on_c, 2, 80, 0
2, 181048, Note_on_c, 2, 86, 0
2, 181052, Note_on_c, 2, 53, 53
2, 181056, Note_on_c, 2, 43, 57
2, 181060, Note_on_c, 2, 81, 0
2, 181064, Note_on_c, 2, 74, 0
2, 181180, Note_on_c, 2, 43, 0
2, 181220, Note_on_c, 2, 53, 0
2, 181520, Note_on_c, 2, 59, 66
2, 181520, Note_on_c, 2, 62, 57
2, 181524, Note_on_c, 2, 53, 58
2, 181528, Note_on_c, 2, 56, 81
2, 181588, Control_c, 2, 64, 127
2, 181620, Note_off_c, 2, 59, 0
2, 181624, Note_off_c, 2, 56, 0
2, 181624, Note_off_c, 2, 62, 0
2, 181644, Note_off_c, 2, 53, 0
2, 181836, Note_on_c, 2, 76, 104
2, 181836, Note_on_c, 2, 80, 98
2, 181840, Note_on_c, 2, 83, 91
2, 181840, Note_on_c, 2, 71, 103
2, 181900, Note_on_c, 2, 71, 0
2, 181916, Note_on_c, 2, 83, 0
2, 181928, Note_on_c, 2, 76, 0
2, 181932, Note_on_c, 2, 80, 0
2, 181948, Control_c, 2, 64, 0
2, 182004, Note_on_c, 2, 53, 39
2, 182008, Note_on_c, 2, 43, 44
2, 182016, Note_on_c, 2, 70, 79
2, 182036, Note_on_c, 2, 82, 42
2, 182116, Note_on_c, 2, 43, 0
2, 182148, Note_on_c, 2, 53, 0
2, 182204, Note_on_c, 2, 70, 0
2, 182220, Note_on_c, 2, 82, 0
2, 182340, Note_on_c, 2, 84, 85
2, 182340, Note_on_c, 2, 72, 87
2, 182408, Note_on_c, 2, 72, 0
2, 182424, Note_on_c, 2, 84, 0
2, 182480, Note_on_c, 2, 53, 55
2, 182484, Note_on_c, 2, 58, 69
2, 182484, Note_on_c, 2, 62, 42
2, 182500, Note_on_c, 2, 70, 78
2, 182504, Note_on_c, 2, 82, 58
2, 182564, Control_c, 2, 64, 127
2, 182568, Note_off_c, 2, 62, 0
2, 182576, Note_off_c, 2, 58, 0
2, 182588, Note_off_c, 2, 53, 0
2, 182656, Note_off_c, 2, 82, 0
2, 182660, Note_off_c, 2, 70, 0
2, 182936, Control_c, 2, 64, 0
2, 182960, Note_on_c, 2, 58, 71
2, 182968, Note_on_c, 2, 75, 83
2, 182968, Note_on_c, 2, 81, 73
2, 182972, Note_on_c, 2, 48, 48
2, 182972, Note_on_c, 2, 52, 58
2, 182976, Note_on_c, 2, 69, 68
2, 183056, Note_on_c, 2, 58, 0
2, 183060, Note_on_c, 2, 76, 52
2, 183064, Note_on_c, 2, 52, 0
2, 183064, Note_on_c, 2, 75, 0
2, 183068, Note_on_c, 2, 48, 0
2, 183168, Note_on_c, 2, 81, 0
2, 183180, Note_on_c, 2, 76, 0
2, 183196, Note_on_c, 2, 69, 0
2, 183432, Note_on_c, 2, 52, 66
2, 183432, Note_on_c, 2, 36, 65
2, 183436, Note_on_c, 2, 79, 86
2, 183436, Note_on_c, 2, 67, 85
2, 183500, Control_c, 2, 64, 127
2, 183516, Note_off_c, 2, 67, 0
2, 183524, Note_off_c, 2, 52, 0
2, 183528, Note_off_c, 2, 36, 0
2, 183552, Note_off_c, 2, 79, 0
2, 183892, Note_on_c, 2, 72, 54
2, 183896, Control_c, 2, 64, 0
2, 183920, Note_on_c, 2, 76, 40
2, 183924, Note_on_c, 2, 41, 65
2, 183924, Note_on_c, 2, 57, 44
2, 183936, Note_on_c, 2, 79, 72
2, 183948, Note_on_c, 2, 81, 78
2, 183960, Note_on_c, 2, 84, 91
2, 184008, Note_on_c, 2, 57, 0
2, 184008, Note_on_c, 2, 41, 0
2, 184228, Control_c, 2, 64, 127
2, 184276, Note_off_c, 2, 72, 0
2, 184296, Note_off_c, 2, 76, 0
2, 184312, Note_off_c, 2, 79, 0
2, 184324, Note_off_c, 2, 81, 0
2, 184340, Note_off_c, 2, 84, 0
2, 184412, Note_on_c, 2, 62, 61
2, 184412, Note_on_c, 2, 60, 63
2, 184420, Note_on_c, 2, 57, 62
2, 184420, Note_on_c, 2, 53, 50
2, 184464, Note_on_c, 2, 57, 0
2, 184464, Note_on_c, 2, 60, 0
2, 184468, Note_on_c, 2, 53, 0
2, 184468, Note_on_c, 2, 62, 0
2, 184584, Control_c, 2, 64, 0
2, 184596, Note_on_c, 2, 89, 59
2, 184628, Note_on_c, 2, 91, 67
2, 184644, Note_on_c, 2, 89, 0
2, 184676, Note_on_c, 2, 89, 57
2, 184744, Note_on_c, 2, 91, 0
2, 184752, Note_on_c, 2, 86, 82
2, 184780, Note_on_c, 2, 89, 0
2, 184816, Note_on_c, 2, 86, 0
2, 184816, Note_on_c, 2, 84, 68
2, 184860, Note_on_c, 2, 84, 0
2, 184864, Note_on_c, 2, 46, 72
2, 184868, Note_on_c, 2, 83, 33
2, 184872, Note_on_c, 2, 56, 68
2, 184892, Note_on_c, 2, 82, 78
2, 184908, Note_on_c, 2, 83, 0
2, 184940, Note_on_c, 2, 80, 82
2, 184968, Note_on_c, 2, 82, 0
2, 185016, Note_on_c, 2, 80, 0
2, 185020, Note_on_c, 2, 77, 72
2, 185060, Note_on_c, 2, 77, 0
2, 185072, Note_on_c, 2, 76, 58
2, 185092, Note_on_c, 2, 74, 79
2, 185120, Note_on_c, 2, 76, 0
2, 185156, Note_on_c, 2, 72, 37
2, 185184, Note_on_c, 2, 74, 0
2, 185224, Note_on_c, 2, 72, 0
2, 185252, Note_on_c, 2, 70, 78
2, 185324, Note_on_c, 2, 69, 73
2, 185336, Note_on_c, 2, 53, 74
2, 185372, Note_on_c, 2, 53, 0
2, 185376, Note_on_c, 2, 70, 0
2, 185384, Note_on_c, 2, 56, 0
2, 185384, Note_on_c, 2, 68, 73
2, 185396, Note_on_c, 2, 46, 0
2, 185404, Note_on_c, 2, 69, 0
2, 185440, Note_on_c, 2, 67, 70
2, 185452, Note_on_c, 2, 68, 0
2, 185508, Note_on_c, 2, 67, 0
2, 185520, Note_on_c, 2, 66, 85
2, 185584, Note_on_c, 2, 65, 67
2, 185588, Note_on_c, 2, 66, 0
2, 185632, Note_on_c, 2, 65, 0
2, 185656, Note_on_c, 2, 64, 35
2, 185672, Note_on_c, 2, 63, 63
2, 185688, Note_on_c, 2, 64, 0
2, 185732, Note_on_c, 2, 62, 47
2, 185752, Note_on_c, 2, 64, 42
2, 185792, Note_on_c, 2, 64, 0
2, 185792, Note_on_c, 2, 63, 0
2, 185796, Note_on_c, 2, 61, 83
2, 185828, Note_on_c, 2, 62, 0
2, 185836, Note_on_c, 2, 55, 68
2, 185844, Note_on_c, 2, 60, 87
2, 185844, Note_on_c, 2, 40, 73
2, 185876, Note_on_c, 2, 61, 0
2, 186300, Note_on_c, 2, 47, 93
2, 186340, Note_on_c, 2, 40, 0
2, 186352, Note_on_c, 2, 55, 0
2, 186352, Control_c, 2, 64, 127
2, 186360, Note_off_c, 2, 47, 0
2, 186500, Note_off_c, 2, 60, 0
2, 186652, Note_on_c, 2, 63, 119
2, 186752, Note_on_c, 2, 63, 0
2, 186768, Control_c, 2, 64, 0
2, 186800, Note_on_c, 2, 64, 82
2, 186812, Note_on_c, 2, 52, 37
2, 186816, Note_on_c, 2, 53, 31
2, 186816, Note_on_c, 2, 37, 48
2, 186880, Note_on_c, 2, 53, 0
2, 187160, Note_on_c, 2, 67, 101
2, 187172, Note_on_c, 2, 64, 0
2, 187292, Note_on_c, 2, 64, 86
2, 187300, Note_on_c, 2, 44, 88
2, 187320, Note_on_c, 2, 37, 0
2, 187320, Note_on_c, 2, 52, 0
2, 187336, Note_on_c, 2, 67, 0
2, 187348, Note_on_c, 2, 44, 0
2, 187376, Control_c, 2, 64, 127
2, 187760, Control_c, 2, 64, 0
2, 187780, Note_off_c, 2, 64, 0
2, 187780, Note_on_c, 2, 38, 60
2, 187784, Note_on_c, 2, 53, 54
2, 187800, Note_on_c, 2, 67, 103
2, 187956, Note_on_c, 2, 67, 0
2, 188260, Note_on_c, 2, 45, 85
2, 188264, Note_on_c, 2, 79, 103
2, 188264, Note_on_c, 2, 69, 99
2, 188268, Note_on_c, 2, 72, 106
2, 188300, Note_on_c, 2, 38, 0
2, 188316, Note_on_c, 2, 45, 0
2, 188332, Note_on_c, 2, 53, 0
2, 188332, Control_c, 2, 64, 127
2, 188364, Note_off_c, 2, 72, 0
2, 188388, Note_off_c, 2, 69, 0
2, 188392, Note_off_c, 2, 79, 0
2, 188608, Note_on_c, 2, 70, 108
2, 188608, Note_on_c, 2, 75, 103
2, 188612, Note_on_c, 2, 67, 85
2, 188676, Control_c, 2, 64, 0
2, 188752, Note_on_c, 2, 53, 62
2, 188752, Note_on_c, 2, 43, 61
2, 188756, Note_on_c, 2, 75, 0
2, 188760, Note_on_c, 2, 70, 0
2, 188760, Note_on_c, 2, 71, 66
2, 188760, Note_on_c, 2, 76, 69
2, 188820, Note_on_c, 2, 43, 0
2, 188836, Note_on_c, 2, 53, 0
2, 189068, Note_on_c, 2, 76, 0
2, 189092, Note_on_c, 2, 79, 91
2, 189224, Note_on_c, 2, 62, 64
2, 189228, Note_on_c, 2, 53, 65
2, 189232, Note_on_c, 2, 76, 82
2, 189232, Note_on_c, 2, 59, 83
2, 189268, Note_on_c, 2, 71, 0
2, 189280, Note_on_c, 2, 79, 0
2, 189292, Note_on_c, 2, 59, 0
2, 189296, Note_on_c, 2, 62, 0
2, 189296, Note_on_c, 2, 67, 0
2, 189312, Note_on_c, 2, 53, 0
2, 189312, Control_c, 2, 64, 127
2, 189348, Note_off_c, 2, 76, 0
2, 189680, Control_c, 2, 64, 0
2, 189696, Note_on_c, 2, 70, 97
2, 189696, Note_on_c, 2, 79, 88
2, 189696, Note_on_c, 2, 67, 88
2, 189696, Note_on_c, 2, 74, 86
2, 189700, Note_on_c, 2, 55, 61
2, 189704, Note_on_c, 2, 40, 66
2, 189784, Note_on_c, 2, 55, 0
2, 189788, Note_on_c, 2, 40, 0
2, 189804, Note_on_c, 2, 67, 0
2, 189812, Note_on_c, 2, 70, 0
2, 189832, Note_on_c, 2, 74, 0
2, 189864, Note_on_c, 2, 79, 0
2, 190180, Note_on_c, 2, 62, 71
2, 190180, Note_on_c, 2, 55, 46
2, 190180, Note_on_c, 2, 58, 85
2, 190184, Note_on_c, 2, 52, 69
2, 190264, Note_on_c, 2, 58, 0
2, 190276, Note_on_c, 2, 62, 0
2, 190280, Note_on_c, 2, 55, 0
2, 190284, Note_on_c, 2, 52, 0
2, 190512, Note_on_c, 2, 78, 119
2, 190516, Note_on_c, 2, 82, 110
2, 190516, Note_on_c, 2, 86, 106
2, 190516, Note_on_c, 2, 74, 111
2, 190612, Note_on_c, 2, 79, 69
2, 190632, Note_on_c, 2, 78, 0
2, 190640, Note_on_c, 2, 74, 0
2, 190664, Note_on_c, 2, 82, 0
2, 190668, Note_on_c, 2, 86, 0
2, 190668, Note_on_c, 2, 74, 27
2, 190684, Note_on_c, 2, 40, 57
2, 190728, Note_on_c, 2, 82, 74
2, 190736, Note_on_c, 2, 74, 0
2, 190748, Note_on_c, 2, 86, 63
2, 190760, Note_on_c, 2, 40, 0
2, 190788, Note_on_c, 2, 86, 0
2, 190788, Note_on_c, 2, 82, 0
2, 190800, Note_on_c, 2, 79, 0
2, 190812, Note_on_c, 2, 74, 64
2, 190860, Note_on_c, 2, 74, 0
2, 190868, Note_on_c, 2, 82, 80
2, 190880, Note_on_c, 2, 79, 18
2, 190884, Note_on_c, 2, 86, 42
2, 190908, Note_on_c, 2, 82, 0
2, 190928, Note_on_c, 2, 86, 0
2, 190936, Note_on_c, 2, 74, 59
2, 190940, Note_on_c, 2, 79, 0
2, 190984, Note_on_c, 2, 74, 0
2, 190992, Note_on_c, 2, 82, 87
2, 191004, Note_on_c, 2, 86, 49
2, 191004, Note_on_c, 2, 79, 12
2, 191048, Note_on_c, 2, 82, 0
2, 191052, Note_on_c, 2, 86, 0
2, 191064, Note_on_c, 2, 74, 73
2, 191124, Note_on_c, 2, 82, 71
2, 191132, Note_on_c, 2, 86, 57
2, 191136, Note_on_c, 2, 74, 0
2, 191152, Note_on_c, 2, 62, 71
2, 191152, Note_on_c, 2, 58, 90
2, 191156, Note_on_c, 2, 55, 64
2, 191160, Note_on_c, 2, 52, 72
2, 191176, Note_on_c, 2, 74, 77
2, 191200, Note_on_c, 2, 86, 0
2, 191220, Note_on_c, 2, 58, 0
2, 191220, Note_on_c, 2, 62, 0
2, 191228, Note_on_c, 2, 55, 0
2, 191232, Note_on_c, 2, 82, 0
2, 191232, Note_on_c, 2, 79, 0
2, 191244, Note_on_c, 2, 74, 0
2, 191244, Note_on_c, 2, 52, 0
2, 191480, Note_on_c, 2, 73, 109
2, 191484, Note_on_c, 2, 82, 94
2, 191484, Note_on_c, 2, 78, 96
2, 191484, Note_on_c, 2, 85, 99
2, 191620, Note_on_c, 2, 33, 64
2, 191624, Note_on_c, 2, 49, 67
2, 191652, Note_on_c, 2, 78, 0
2, 191672, Note_on_c, 2, 73, 0
2, 191680, Control_c, 2, 64, 127
2, 191688, Note_off_c, 2, 82, 0
2, 191696, Note_off_c, 2, 85, 0
2, 191708, Note_off_c, 2, 49, 0
2, 191724, Note_off_c, 2, 33, 0
2, 192076, Control_c, 2, 64, 0
2, 192084, Note_on_c, 2, 50, 75
2, 192088, Note_on_c, 2, 35, 75
2, 192192, Control_c, 2, 64, 127
2, 192208, Note_off_c, 2, 50, 0
2, 192224, Note_off_c, 2, 35, 0
2, 192572, Control_c, 2, 64, 0
2, 192572, Note_on_c, 2, 51, 96
2, 192576, Note_on_c, 2, 36, 84
2, 192804, Note_on_c, 2, 36, 0
2, 192840, Note_on_c, 2, 51, 0
2, 192892, Note_on_c, 2, 93, 99
2, 192900, Note_on_c, 2, 99, 106
2, 192900, Note_on_c, 2, 87, 111
2, 192988, Note_on_c, 2, 87, 0
2, 193012, Note_on_c, 2, 93, 0
2, 193016, Note_on_c, 2, 99, 0
2, 193048, Note_on_c, 2, 93, 82
2, 193048, Note_on_c, 2, 37, 88
2, 193052, Note_on_c, 2, 87, 94
2, 193052, Note_on_c, 2, 99, 98
2, 193056, Note_on_c, 2, 52, 62
2, 193108, Control_c, 2, 64, 127
2, 193148, Note_off_c, 2, 52, 0
2, 193160, Note_off_c, 2, 37, 0
2, 193184, Note_off_c, 2, 87, 0
2, 193224, Note_off_c, 2, 99, 0
2, 193232, Note_off_c, 2, 93, 0
2, 193368, Note_on_c, 2, 93, 96
2, 193368, Note_on_c, 2, 87, 108
2, 193372, Note_on_c, 2, 99, 107
2, 193452, Control_c, 2, 64, 0
2, 193472, Note_off_c, 2, 87, 0
2, 193504, Note_off_c, 2, 93, 0
2, 193520, Note_off_c, 2, 99, 0
2, 193520, Note_on_c, 2, 87, 72
2, 193528, Note_on_c, 2, 38, 64
2, 193532, Note_on_c, 2, 54, 55
2, 193584, Note_on_c, 2, 87, 0
2, 193584, Note_on_c, 2, 99, 55
2, 193584, Note_on_c, 2, 93, 48
2, 193592, Control_c, 2, 64, 127
2, 193612, Note_off_c, 2, 54, 0
2, 193624, Note_off_c, 2, 38, 0
2, 193636, Note_off_c, 2, 99, 0
2, 193640, Note_off_c, 2, 93, 0
2, 193644, Note_on_c, 2, 87, 59
2, 193700, Note_on_c, 2, 87, 0
2, 193716, Note_on_c, 2, 93, 44
2, 193760, Note_on_c, 2, 87, 66
2, 193772, Note_on_c, 2, 93, 0
2, 193812, Note_on_c, 2, 87, 0
2, 193832, Note_on_c, 2, 93, 32
2, 193840, Note_on_c, 2, 99, 53
2, 193872, Note_on_c, 2, 87, 80
2, 193876, Note_on_c, 2, 99, 0
2, 193936, Note_on_c, 2, 93, 0
2, 193944, Note_on_c, 2, 87, 0
2, 193980, Control_c, 2, 64, 0
2, 193996, Note_on_c, 2, 55, 77
2, 194000, Note_on_c, 2, 86, 90
2, 194000, Note_on_c, 2, 40, 75
2, 194000, Note_on_c, 2, 98, 95
2, 194104, Control_c, 2, 64, 127
2, 194128, Note_off_c, 2, 55, 0
2, 194136, Note_off_c, 2, 40, 0
2, 194152, Note_off_c, 2, 98, 0
2, 194196, Note_off_c, 2, 86, 0
2, 194448, Control_c, 2, 64, 0
2, 194464, Note_on_c, 2, 41, 76
2, 194464, Note_on_c, 2, 56, 72
2, 194468, Note_on_c, 2, 89, 80
2, 194472, Note_on_c, 2, 96, 90
2, 194472, Note_on_c, 2, 84, 82
2, 194580, Control_c, 2, 64, 127
2, 194584, Note_off_c, 2, 41, 0
2, 194608, Note_off_c, 2, 96, 0
2, 194608, Note_off_c, 2, 89, 0
2, 194612, Note_off_c, 2, 56, 0
2, 194640, Note_off_c, 2, 84, 0
2, 194904, Control_c, 2, 64, 0
2, 194932, Note_on_c, 2, 54, 71
2, 194936, Note_on_c, 2, 87, 104
2, 194936, Note_on_c, 2, 81, 90
2, 194936, Note_on_c, 2, 93, 93
2, 194936, Note_on_c, 2, 44, 78
2, 194960, Note_on_c, 2, 88, 71
2, 194996, Note_on_c, 2, 87, 0
2, 195044, Control_c, 2, 64, 127
2, 195076, Note_off_c, 2, 93, 0
2, 195092, Note_off_c, 2, 88, 0
2, 195104, Note_off_c, 2, 44, 0
2, 195104, Note_off_c, 2, 54, 0
2, 195108, Note_off_c, 2, 81, 0
2, 195316, Control_c, 2, 64, 0
2, 195384, Note_on_c, 2, 53, 67
2, 195388, Note_on_c, 2, 43, 69
2, 195400, Note_on_c, 2, 91, 106
2, 195400, Note_on_c, 2, 79, 108
2, 195400, Note_on_c, 2, 86, 108
2, 195508, Note_on_c, 2, 79, 0
2, 195508, Note_on_c, 2, 43, 0
2, 195508, Note_on_c, 2, 53, 0
2, 195524, Note_on_c, 2, 86, 0
2, 195548, Note_on_c, 2, 91, 0
2, 195716, Note_on_c, 2, 91, 98
2, 195720, Note_on_c, 2, 96, 92
2, 195720, Note_on_c, 2, 84, 89
2, 195788, Note_on_c, 2, 96, 0
2, 195788, Note_on_c, 2, 91, 0
2, 195792, Note_on_c, 2, 84, 0
2, 195900, Note_on_c, 2, 86, 77
2, 195904, Note_on_c, 2, 79, 47
2, 195912, Note_on_c, 2, 93, 51
2, 195912, Note_on_c, 2, 91, 56
2, 195916, Note_on_c, 2, 81, 42
2, 195964, Note_on_c, 2, 81, 0
2, 195972, Note_on_c, 2, 93, 0
2, 195980, Note_on_c, 2, 86, 0
2, 195988, Note_on_c, 2, 91, 0
2, 196000, Note_on_c, 2, 79, 0
2, 196224, Note_on_c, 2, 78, 103
2, 196228, Note_on_c, 2, 82, 99
2, 196228, Note_on_c, 2, 90, 104
2, 196228, Note_on_c, 2, 85, 99
2, 196312, Note_on_c, 2, 78, 0
2, 196316, Note_on_c, 2, 82, 0
2, 196332, Note_on_c, 2, 90, 0
2, 196380, Note_on_c, 2, 82, 43
2, 196388, Note_on_c, 2, 77, 59
2, 196388, Note_on_c, 2, 89, 70
2, 196500, Note_on_c, 2, 89, 0
2, 196500, Note_on_c, 2, 77, 0
2, 196504, Note_on_c, 2, 85, 0
2, 196516, Note_on_c, 2, 82, 0
2, 196704, Note_on_c, 2, 82, 109
2, 196708, Note_on_c, 2, 75, 101
2, 196716, Note_on_c, 2, 87, 89
2, 196808, Note_on_c, 2, 87, 0
2, 196828, Note_on_c, 2, 75, 0
2, 196832, Note_on_c, 2, 82, 0
2, 196884, Note_on_c, 2, 83, 50
2, 196888, Note_on_c, 2, 76, 63
2, 196888, Note_on_c, 2, 88, 67
2, 196948, Control_c, 2, 64, 127
2, 196988, Note_off_c, 2, 83, 0
2, 196996, Note_off_c, 2, 88, 0
2, 197004, Note_off_c, 2, 76, 0
2, 197200, Note_on_c, 2, 72, 95
2, 197200, Note_on_c, 2, 84, 94
2, 197200, Note_on_c, 2, 79, 93
2, 197240, Control_c, 2, 64, 0
2, 197332, Note_off_c, 2, 84, 0
2, 197336, Note_off_c, 2, 79, 0
2, 197352, Control_c, 2, 64, 127
2, 197364, Note_off_c, 2, 72, 0
2, 197668, Note_on_c, 2, 42, 83
2, 197668, Note_on_c, 2, 58, 82
2, 197680, Note_on_c, 2, 68, 104
2, 197680, Note_on_c, 2, 72, 99
2, 197684, Note_on_c, 2, 52, 62
2, 197688, Note_on_c, 2, 64, 91
2, 197696, Note_on_c, 2, 62, 49
2, 197744, Note_on_c, 2, 62, 0
2, 197764, Note_on_c, 2, 52, 0
2, 197772, Note_on_c, 2, 58, 0
2, 197788, Note_on_c, 2, 72, 0
2, 197788, Note_on_c, 2, 42, 0
2, 197792, Note_on_c, 2, 64, 0
2, 197800, Note_on_c, 2, 68, 0
2, 197828, Control_c, 2, 64, 0
2, 197868, Note_on_c, 2, 51, 75
2, 197876, Note_on_c, 2, 62, 71
2, 197876, Note_on_c, 2, 71, 75
2, 197880, Note_on_c, 2, 57, 54
2, 197884, Note_on_c, 2, 41, 54
2, 197888, Note_on_c, 2, 67, 51
2, 198000, Note_on_c, 2, 51, 0
2, 198004, Note_on_c, 2, 57, 0
2, 198008, Note_on_c, 2, 67, 0
2, 198012, Note_on_c, 2, 41, 0
2, 198012, Note_on_c, 2, 71, 0
2, 198044, Note_on_c, 2, 62, 0
2, 198216, Note_on_c, 2, 40, 70
2, 198324, Note_on_c, 2, 56, 83
2, 198328, Note_on_c, 2, 70, 96
2, 198332, Note_on_c, 2, 66, 97
2, 198332, Note_on_c, 2, 61, 98
2, 198364, Control_c, 2, 64, 127
2, 198408, Note_off_c, 2, 40, 0
2, 198424, Note_off_c, 2, 56, 0
2, 198464, Note_off_c, 2, 66, 0
2, 198468, Note_off_c, 2, 61, 0
2, 198476, Note_off_c, 2, 70, 0
2, 198640, Control_c, 2, 64, 0
2, 198660, Note_on_c, 2, 69, 86
2, 198660, Note_on_c, 2, 55, 45
2, 198660, Note_on_c, 2, 65, 94
2, 198660, Note_on_c, 2, 39, 72
2, 198664, Note_on_c, 2, 60, 84
2, 198800, Note_on_c, 2, 55, 0
2, 198812, Note_on_c, 2, 39, 0
2, 198812, Note_on_c, 2, 65, 0
2, 198820, Note_on_c, 2, 69, 0
2, 198836, Note_on_c, 2, 60, 0
2, 199132, Note_on_c, 2, 38, 66
2, 199228, Note_on_c, 2, 45, 76
2, 199312, Note_on_c, 2, 54, 95
2, 199316, Note_on_c, 2, 64, 92
2, 199316, Note_on_c, 2, 68, 105
2, 199320, Note_on_c, 2, 60, 95
2, 199320, Note_on_c, 2, 57, 105
2, 199408, Note_on_c, 2, 38, 0
2, 199436, Note_on_c, 2, 45, 0
2, 199464, Note_on_c, 2, 54, 0
2, 199480, Note_on_c, 2, 68, 0
2, 199488, Note_on_c, 2, 60, 0
2, 199488, Note_on_c, 2, 64, 0
2, 199524, Note_on_c, 2, 57, 0
2, 199640, Note_on_c, 2, 37, 74
2, 199784, Note_on_c, 2, 37, 0
2, 199788, Note_on_c, 2, 53, 76
2, 199788, Note_on_c, 2, 67, 82
2, 199792, Note_on_c, 2, 59, 80
2, 199792, Note_on_c, 2, 56, 95
2, 199796, Note_on_c, 2, 63, 92
2, 199828, Control_c, 2, 64, 127
2, 199884, Note_off_c, 2, 53, 0
2, 199920, Note_off_c, 2, 67, 0
2, 199948, Note_off_c, 2, 63, 0
2, 199952, Note_off_c, 2, 59, 0
2, 199964, Note_off_c, 2, 56, 0
2, 200120, Control_c, 2, 64, 0
2, 200120, Note_on_c, 2, 62, 87
2, 200120, Note_on_c, 2, 58, 102
2, 200120, Note_on_c, 2, 57, 92
2, 200120, Note_on_c, 2, 66, 102
2, 200124, Note_on_c, 2, 52, 83
2, 200128, Note_on_c, 2, 36, 84
2, 200276, Control_c, 2, 64, 127
2, 200368, Note_off_c, 2, 57, 0
2, 200368, Note_off_c, 2, 58, 0
2, 200376, Note_off_c, 2, 62, 0
2, 200412, Note_off_c, 2, 66, 0
2, 200736, Note_on_c, 2, 74, 45
2, 200788, Note_on_c, 2, 74, 0
2, 200808, Note_on_c, 2, 78, 85
2, 200848, Note_on_c, 2, 78, 0
2, 200880, Note_on_c, 2, 81, 81
2, 200968, Note_on_c, 2, 81, 0
2, 200968, Note_on_c, 2, 86, 83
2, 201044, Note_on_c, 2, 86, 0
2, 201048, Note_on_c, 2, 90, 94
2, 201100, Note_on_c, 2, 90, 0
2, 201140, Note_on_c, 2, 93, 44
2, 201208, Note_on_c, 2, 93, 0
2, 201212, Note_on_c, 2, 98, 61
2, 201264, Note_on_c, 2, 102, 90
2, 201300, Note_on_c, 2, 52, 0
2, 201304, Note_on_c, 2, 98, 0
2, 201320, Note_on_c, 2, 36, 0
2, 201324, Note_on_c, 2, 105, 101
2, 201332, Note_on_c, 2, 102, 0
2, 201384, Note_on_c, 2, 105, 0
2, 202416, Note_on_c, 2, 31, 61
2, 202420, Note_on_c, 2, 60, 46
2, 202452, Note_on_c, 2, 58, 79
2, 202452, Note_on_c, 2, 24, 42
2, 202476, Note_on_c, 2, 36, 53
2, 202496, Note_on_c, 2, 28, 78
2, 202500, Note_on_c, 2, 60, 0
2, 202504, Note_on_c, 2, 24, 0
2, 202504, Control_c, 2, 64, 0
2, 202548, Note_off_c, 2, 31, 0
2, 202552, Note_on_c, 2, 56, 62
2, 202556, Note_on_c, 2, 58, 0
2, 202580, Note_on_c, 2, 36, 0
2, 202596, Note_on_c, 2, 55, 54
2, 202616, Note_on_c, 2, 56, 0
2, 202628, Note_on_c, 2, 24, 75
2, 202644, Note_on_c, 2, 28, 0
2, 202792, Note_on_c, 2, 55, 0
2, 202808, Note_on_c, 2, 24, 0
2, 203000, End_track
0, 0, End_of_file
