0, 0, Header, 1, 2, 384
1, 0, Start_track
1, 0, Text_t, "{GNMIDI}Generated by  GNMIDI demo (http://www.gnmidi.com)\012"
1, 0, Time_signature, 4, 2, 24, 8
1, 0, Tempo, 500000
1, 154912, End_track
2, 0, Start_track
2, 0, Text_t, "{GNMIDI}Generated by  GNMIDI demo (http://www.gnmidi.com)\012"
2, 0, Title_t, "Acoustic Grand Piano"
2, 1152, Program_c, 2, 0
2, 1152, Control_c, 2, 7, 127
2, 1152, Control_c, 2, 10, 64
2, 2944, Control_c, 2, 64, 127
2, 3032, Note_on_c, 2, 60, 44
2, 3532, Note_on_c, 2, 64, 56
2, 3612, Note_on_c, 2, 60, 0
2, 3748, Note_on_c, 2, 67, 70
2, 3760, Note_on_c, 2, 64, 0
2, 3952, Note_on_c, 2, 67, 0
2, 3956, Control_c, 2, 123, 0
2, 3984, Control_c, 2, 64, 0
2, 4004, Note_on_c, 2, 71, 65
2, 4004, Note_on_c, 2, 67, 56
2, 4016, Note_on_c, 2, 64, 63
2, 4016, Note_on_c, 2, 52, 52
2, 4020, Note_on_c, 2, 62, 60
2, 4028, Note_on_c, 2, 36, 51
2, 4088, Control_c, 2, 64, 127
2, 4184, Note_off_c, 2, 36, 0
2, 4184, Note_off_c, 2, 71, 0
2, 4264, Note_off_c, 2, 62, 0
2, 4284, Note_off_c, 2, 52, 0
2, 4296, Note_on_c, 2, 72, 63
2, 4320, Note_on_c, 2, 64, 0
2, 4328, Note_on_c, 2, 67, 0
2, 4416, Note_on_c, 2, 72, 0
2, 4416, Control_c, 2, 123, 0
2, 4620, Note_on_c, 2, 69, 55
2, 4620, Note_on_c, 2, 45, 50
2, 4620, Control_c, 2, 64, 0
2, 4628, Note_on_c, 2, 64, 50
2, 4632, Note_on_c, 2, 60, 33
2, 4748, Control_c, 2, 64, 127
2, 4848, Note_off_c, 2, 64, 0
2, 4896, Note_on_c, 2, 55, 50
2, 4992, Note_on_c, 2, 69, 0
2, 5004, Note_on_c, 2, 55, 0
2, 5024, Note_on_c, 2, 60, 0
2, 5100, Note_on_c, 2, 45, 0
2, 5104, Control_c, 2, 123, 0
2, 5200, Note_on_c, 2, 64, 55
2, 5288, Note_on_c, 2, 64, 0
2, 5288, Control_c, 2, 123, 0
2, 5320, Note_on_c, 2, 65, 64
2, 5428, Note_on_c, 2, 65, 0
2, 5428, Control_c, 2, 123, 0
2, 5440, Control_c, 2, 64, 0
2, 5468, Note_on_c, 2, 38, 55
2, 5476, Note_on_c, 2, 67, 45
2, 5688, Control_c, 2, 64, 127
2, 5796, Note_on_c, 2, 60, 46
2, 5796, Note_on_c, 2, 64, 46
2, 5808, Note_on_c, 2, 53, 53
2, 5808, Note_on_c, 2, 57, 40
2, 5864, Note_on_c, 2, 57, 0
2, 5876, Note_on_c, 2, 53, 0
2, 5876, Note_on_c, 2, 64, 0
2, 5876, Note_on_c, 2, 60, 0
2, 5956, Note_on_c, 2, 38, 0
2, 6200, Note_on_c, 2, 59, 44
2, 6200, Note_on_c, 2, 64, 41
2, 6200, Note_on_c, 2, 53, 35
2, 6200, Note_on_c, 2, 43, 40
2, 6204, Control_c, 2, 64, 0
2, 6372, Control_c, 2, 64, 127
2, 6464, Note_off_c, 2, 53, 0
2, 6524, Note_off_c, 2, 59, 0
2, 6556, Note_off_c, 2, 64, 0
2, 6564, Note_off_c, 2, 67, 0
2, 6720, Note_off_c, 2, 43, 0
2, 6720, Control_c, 2, 123, 0
2, 7208, Note_on_c, 2, 71, 63
2, 7316, Note_on_c, 2, 71, 0
2, 7316, Control_c, 2, 123, 0
2, 7336, Note_on_c, 2, 72, 55
2, 7416, Note_on_c, 2, 72, 0
2, 7416, Control_c, 2, 123, 0
2, 7504, Note_on_c, 2, 74, 74
2, 7504, Note_on_c, 2, 68, 79
2, 7504, Note_on_c, 2, 56, 60
2, 7508, Control_c, 2, 64, 0
2, 7520, Note_on_c, 2, 65, 71
2, 7520, Note_on_c, 2, 47, 62
2, 7520, Note_on_c, 2, 62, 64
2, 7704, Control_c, 2, 64, 127
2, 7976, Note_off_c, 2, 62, 0
2, 8048, Note_off_c, 2, 56, 0
2, 8056, Note_off_c, 2, 65, 0
2, 8060, Note_off_c, 2, 47, 0
2, 8060, Note_on_c, 2, 76, 56
2, 8092, Note_on_c, 2, 68, 0
2, 8100, Note_on_c, 2, 74, 0
2, 8152, Note_on_c, 2, 76, 0
2, 8152, Control_c, 2, 123, 0
2, 8260, Note_on_c, 2, 72, 40
2, 8260, Control_c, 2, 64, 0
2, 8272, Note_on_c, 2, 64, 53
2, 8272, Note_on_c, 2, 69, 56
2, 8272, Note_on_c, 2, 45, 53
2, 8400, Control_c, 2, 64, 127
2, 8528, Note_on_c, 2, 55, 46
2, 8528, Note_on_c, 2, 60, 41
2, 8692, Note_on_c, 2, 72, 0
2, 8720, Note_on_c, 2, 74, 60
2, 8756, Note_on_c, 2, 60, 0
2, 8768, Note_on_c, 2, 69, 0
2, 8808, Note_on_c, 2, 74, 0
2, 8808, Note_on_c, 2, 55, 0
2, 8832, Note_on_c, 2, 64, 0
2, 8880, Note_on_c, 2, 72, 51
2, 8912, Note_on_c, 2, 45, 0
2, 8952, Note_on_c, 2, 72, 0
2, 8952, Control_c, 2, 123, 0
2, 9068, Control_c, 2, 64, 0
2, 9076, Note_on_c, 2, 71, 63
2, 9100, Note_on_c, 2, 50, 50
2, 9376, Control_c, 2, 64, 127
2, 9512, Note_on_c, 2, 60, 34
2, 9524, Note_on_c, 2, 54, 34
2, 9536, Note_on_c, 2, 64, 35
2, 9816, Note_on_c, 2, 64, 0
2, 9816, Note_on_c, 2, 54, 0
2, 9836, Note_on_c, 2, 60, 0
2, 9836, Note_on_c, 2, 71, 0
2, 9848, Note_on_c, 2, 50, 0
2, 9848, Control_c, 2, 123, 0
2, 10524, Note_on_c, 2, 60, 60
2, 10668, Note_on_c, 2, 60, 0
2, 10736, Control_c, 2, 64, 0
2, 10744, Note_on_c, 2, 64, 74
2, 10744, Note_on_c, 2, 53, 70
2, 10744, Note_on_c, 2, 43, 53
2, 10744, Note_on_c, 2, 60, 68
2, 10744, Note_on_c, 2, 57, 71
2, 10824, Control_c, 2, 64, 127
2, 10864, Note_off_c, 2, 53, 0
2, 10896, Note_off_c, 2, 57, 0
2, 10920, Note_off_c, 2, 60, 0
2, 10948, Note_off_c, 2, 64, 0
2, 11304, Note_on_c, 2, 67, 76
2, 11336, Note_on_c, 2, 43, 0
2, 11464, Note_on_c, 2, 69, 80
2, 11492, Note_on_c, 2, 67, 0
2, 11632, Note_on_c, 2, 69, 0
2, 11632, Control_c, 2, 123, 0
2, 11644, Control_c, 2, 64, 0
2, 11652, Note_on_c, 2, 36, 68
2, 11652, Note_on_c, 2, 62, 71
2, 11656, Note_on_c, 2, 71, 74
2, 11656, Note_on_c, 2, 64, 71
2, 11656, Note_on_c, 2, 67, 74
2, 11756, Control_c, 2, 64, 127
2, 11888, Note_off_c, 2, 71, 0
2, 12028, Note_off_c, 2, 36, 0
2, 12028, Note_on_c, 2, 52, 71
2, 12092, Note_on_c, 2, 52, 0
2, 12124, Note_on_c, 2, 62, 0
2, 12172, Note_on_c, 2, 64, 0
2, 12192, Note_on_c, 2, 72, 54
2, 12216, Note_on_c, 2, 67, 0
2, 12292, Note_on_c, 2, 72, 0
2, 12296, Control_c, 2, 123, 0
2, 12428, Note_on_c, 2, 69, 59
2, 12440, Note_on_c, 2, 55, 56
2, 12440, Note_on_c, 2, 64, 60
2, 12440, Note_on_c, 2, 60, 42
2, 12440, Control_c, 2, 64, 0
2, 12456, Note_on_c, 2, 45, 45
2, 12572, Control_c, 2, 64, 127
2, 12644, Note_off_c, 2, 64, 0
2, 12696, Note_off_c, 2, 69, 0
2, 12796, Note_off_c, 2, 55, 0
2, 12816, Note_on_c, 2, 64, 63
2, 12848, Note_on_c, 2, 60, 0
2, 12868, Note_on_c, 2, 45, 0
2, 12984, Note_on_c, 2, 64, 0
2, 12984, Control_c, 2, 123, 0
2, 12996, Note_on_c, 2, 65, 62
2, 13144, Note_on_c, 2, 65, 0
2, 13144, Control_c, 2, 123, 0
2, 13176, Control_c, 2, 64, 0
2, 13204, Note_on_c, 2, 67, 49
2, 13204, Note_on_c, 2, 38, 48
2, 13316, Control_c, 2, 64, 127
2, 13372, Note_off_c, 2, 67, 0
2, 13584, Note_on_c, 2, 64, 58
2, 13596, Note_on_c, 2, 57, 34
2, 13596, Note_on_c, 2, 60, 41
2, 13596, Note_on_c, 2, 53, 47
2, 13652, Note_on_c, 2, 38, 0
2, 13656, Note_on_c, 2, 60, 0
2, 13664, Note_on_c, 2, 57, 0
2, 13676, Note_on_c, 2, 64, 0
2, 13728, Note_on_c, 2, 53, 0
2, 13728, Control_c, 2, 123, 0
2, 13812, Note_on_c, 2, 67, 65
2, 13864, Note_on_c, 2, 67, 0
2, 13864, Control_c, 2, 123, 0
2, 14056, Note_on_c, 2, 68, 57
2, 14060, Control_c, 2, 64, 0
2, 14068, Note_on_c, 2, 43, 48
2, 14068, Note_on_c, 2, 53, 44
2, 14080, Note_on_c, 2, 59, 36
2, 14080, Note_on_c, 2, 63, 47
2, 14220, Control_c, 2, 64, 127
2, 14516, Note_off_c, 2, 59, 0
2, 14536, Note_off_c, 2, 63, 0
2, 14580, Note_off_c, 2, 68, 0
2, 14812, Note_off_c, 2, 43, 0
2, 14880, Note_off_c, 2, 53, 0
2, 14880, Control_c, 2, 123, 0
2, 15072, Note_on_c, 2, 72, 38
2, 15200, Note_on_c, 2, 72, 0
2, 15200, Control_c, 2, 123, 0
2, 15212, Note_on_c, 2, 74, 57
2, 15312, Note_on_c, 2, 74, 0
2, 15312, Control_c, 2, 123, 0
2, 15332, Control_c, 2, 64, 0
2, 15352, Note_on_c, 2, 56, 58
2, 15352, Note_on_c, 2, 76, 44
2, 15464, Control_c, 2, 64, 127
2, 15648, Note_on_c, 2, 72, 33
2, 15660, Note_on_c, 2, 67, 50
2, 15672, Note_on_c, 2, 62, 54
2, 15672, Note_on_c, 2, 60, 45
2, 15716, Note_on_c, 2, 60, 0
2, 15716, Note_on_c, 2, 62, 0
2, 15716, Note_on_c, 2, 67, 0
2, 15728, Note_on_c, 2, 72, 0
2, 15728, Note_on_c, 2, 76, 0
2, 15740, Note_on_c, 2, 56, 0
2, 15740, Control_c, 2, 123, 0
2, 16020, Note_on_c, 2, 72, 31
2, 16040, Note_on_c, 2, 55, 53
2, 16040, Note_on_c, 2, 65, 54
2, 16044, Control_c, 2, 64, 0
2, 16052, Note_on_c, 2, 61, 18
2, 16052, Note_on_c, 2, 67, 46
2, 16052, Note_on_c, 2, 45, 42
2, 16156, Control_c, 2, 64, 127
2, 16604, Note_off_c, 2, 55, 0
2, 16860, Note_off_c, 2, 45, 0
2, 16872, Note_off_c, 2, 72, 0
2, 16904, Note_on_c, 2, 70, 61
2, 16912, Note_on_c, 2, 65, 0
2, 16924, Note_on_c, 2, 67, 0
2, 16956, Note_on_c, 2, 70, 0
2, 16964, Note_on_c, 2, 61, 0
2, 16968, Control_c, 2, 123, 0
2, 17236, Note_on_c, 2, 38, 56
2, 17236, Note_on_c, 2, 65, 61
2, 17236, Control_c, 2, 64, 0
2, 17248, Note_on_c, 2, 54, 40
2, 17248, Note_on_c, 2, 60, 54
2, 17248, Note_on_c, 2, 58, 53
2, 17348, Control_c, 2, 64, 127
2, 17420, Note_off_c, 2, 54, 0
2, 17428, Note_off_c, 2, 38, 0
2, 17492, Note_off_c, 2, 65, 0
2, 17532, Note_on_c, 2, 63, 84
2, 17532, Note_on_c, 2, 54, 33
2, 17556, Note_on_c, 2, 58, 0
2, 17576, Note_on_c, 2, 54, 0
2, 17588, Note_on_c, 2, 60, 0
2, 17608, Note_on_c, 2, 63, 0
2, 17608, Control_c, 2, 123, 0
2, 17820, Note_on_c, 2, 43, 49
2, 17848, Note_on_c, 2, 59, 51
2, 17872, Note_on_c, 2, 53, 52
2, 17880, Note_on_c, 2, 63, 54
2, 17896, Control_c, 2, 64, 0
2, 17904, Note_on_c, 2, 65, 46
2, 17928, Note_on_c, 2, 70, 64
2, 18160, Control_c, 2, 64, 127
2, 18304, Note_off_c, 2, 53, 0
2, 18308, Note_on_c, 2, 68, 74
2, 18340, Note_on_c, 2, 70, 0
2, 18364, Note_on_c, 2, 65, 0
2, 18364, Note_on_c, 2, 43, 0
2, 18376, Note_on_c, 2, 63, 0
2, 18396, Note_on_c, 2, 59, 0
2, 18416, Note_on_c, 2, 68, 0
2, 18416, Control_c, 2, 123, 0
2, 18704, Note_on_c, 2, 36, 51
2, 18752, Note_on_c, 2, 59, 53
2, 18752, Note_on_c, 2, 52, 64
2, 18756, Control_c, 2, 64, 0
2, 18776, Note_on_c, 2, 62, 61
2, 18788, Note_on_c, 2, 64, 60
2, 18812, Note_on_c, 2, 67, 63
2, 18820, Note_on_c, 2, 71, 76
2, 18892, Control_c, 2, 64, 127
2, 18944, Note_off_c, 2, 36, 0
2, 19016, Note_off_c, 2, 52, 0
2, 19080, Note_off_c, 2, 59, 0
2, 19152, Note_off_c, 2, 71, 0
2, 19184, Note_off_c, 2, 67, 0
2, 19204, Note_off_c, 2, 62, 0
2, 19340, Note_on_c, 2, 59, 53
2, 19460, Note_on_c, 2, 59, 0
2, 19496, Note_on_c, 2, 64, 0
2, 19500, Control_c, 2, 123, 0
2, 19508, Note_on_c, 2, 72, 63
2, 19580, Note_on_c, 2, 72, 0
2, 19580, Control_c, 2, 123, 0
2, 19792, Note_on_c, 2, 69, 63
2, 19800, Note_on_c, 2, 64, 64
2, 19800, Note_on_c, 2, 60, 50
2, 19804, Note_on_c, 2, 59, 52
2, 19816, Note_on_c, 2, 55, 44
2, 19816, Note_on_c, 2, 45, 46
2, 19820, Control_c, 2, 64, 0
2, 20000, Control_c, 2, 64, 127
2, 20300, Note_off_c, 2, 64, 0
2, 20436, Note_off_c, 2, 55, 0
2, 20536, Note_off_c, 2, 60, 0
2, 20540, Note_off_c, 2, 45, 0
2, 20548, Note_off_c, 2, 69, 0
2, 20568, Note_on_c, 2, 64, 48
2, 20608, Note_on_c, 2, 59, 0
2, 20660, Note_on_c, 2, 64, 0
2, 20660, Control_c, 2, 123, 0
2, 20700, Note_on_c, 2, 65, 52
2, 20828, Note_on_c, 2, 65, 0
2, 20828, Control_c, 2, 123, 0
2, 20868, Control_c, 2, 64, 0
2, 20888, Note_on_c, 2, 64, 49
2, 20888, Note_on_c, 2, 60, 43
2, 20888, Note_on_c, 2, 67, 55
2, 20888, Note_on_c, 2, 38, 48
2, 20900, Note_on_c, 2, 57, 35
2, 20988, Control_c, 2, 64, 127
2, 21048, Note_off_c, 2, 64, 0
2, 21060, Note_off_c, 2, 67, 0
2, 21072, Note_off_c, 2, 60, 0
2, 21104, Note_off_c, 2, 57, 0
2, 21124, Note_on_c, 2, 53, 54
2, 21172, Note_on_c, 2, 53, 0
2, 21340, Note_on_c, 2, 60, 47
2, 21352, Note_on_c, 2, 53, 47
2, 21352, Note_on_c, 2, 57, 44
2, 21556, Note_on_c, 2, 45, 53
2, 21568, Note_on_c, 2, 62, 55
2, 21592, Note_on_c, 2, 57, 0
2, 21592, Note_on_c, 2, 60, 0
2, 21624, Note_on_c, 2, 53, 0
2, 21664, Note_on_c, 2, 62, 0
2, 21796, Note_on_c, 2, 45, 0
2, 21804, Control_c, 2, 64, 0
2, 21816, Note_off_c, 2, 38, 0
2, 21816, Note_on_c, 2, 43, 48
2, 21824, Note_on_c, 2, 59, 47
2, 21828, Note_on_c, 2, 53, 35
2, 21828, Note_on_c, 2, 56, 39
2, 21828, Note_on_c, 2, 64, 47
2, 21968, Control_c, 2, 64, 127
2, 22196, Note_off_c, 2, 53, 0
2, 22236, Note_off_c, 2, 56, 0
2, 22296, Note_off_c, 2, 59, 0
2, 22344, Note_off_c, 2, 64, 0
2, 22684, Note_off_c, 2, 43, 0
2, 22684, Control_c, 2, 123, 0
2, 22996, Note_on_c, 2, 71, 54
2, 23164, Note_on_c, 2, 71, 0
2, 23164, Control_c, 2, 123, 0
2, 23184, Note_on_c, 2, 72, 57
2, 23324, Note_on_c, 2, 72, 0
2, 23324, Control_c, 2, 123, 0
2, 23364, Note_on_c, 2, 44, 65
2, 23372, Note_on_c, 2, 74, 74
2, 23372, Note_on_c, 2, 68, 76
2, 23388, Note_on_c, 2, 65, 65
2, 23388, Control_c, 2, 64, 0
2, 23524, Control_c, 2, 64, 127
2, 23704, Note_on_c, 2, 53, 65
2, 23860, Note_on_c, 2, 65, 0
2, 23872, Note_on_c, 2, 44, 0
2, 23872, Note_on_c, 2, 76, 62
2, 23884, Note_on_c, 2, 59, 64
2, 23916, Note_on_c, 2, 68, 0
2, 23916, Note_on_c, 2, 74, 0
2, 23980, Note_on_c, 2, 53, 0
2, 23988, Note_on_c, 2, 76, 0
2, 24048, Note_on_c, 2, 59, 0
2, 24048, Control_c, 2, 123, 0
2, 24068, Note_on_c, 2, 72, 70
2, 24080, Note_on_c, 2, 64, 53
2, 24080, Note_on_c, 2, 45, 53
2, 24080, Note_on_c, 2, 69, 58
2, 24092, Control_c, 2, 64, 0
2, 24208, Control_c, 2, 64, 127
2, 24280, Note_on_c, 2, 55, 47
2, 24376, Note_on_c, 2, 45, 0
2, 24448, Note_on_c, 2, 74, 62
2, 24468, Note_on_c, 2, 72, 0
2, 24468, Note_on_c, 2, 60, 42
2, 24512, Note_on_c, 2, 69, 0
2, 24556, Note_on_c, 2, 74, 0
2, 24556, Note_on_c, 2, 55, 0
2, 24596, Note_on_c, 2, 64, 0
2, 24624, Note_on_c, 2, 60, 0
2, 24628, Note_on_c, 2, 72, 53
2, 24696, Note_on_c, 2, 72, 0
2, 24696, Control_c, 2, 123, 0
2, 24840, Note_on_c, 2, 66, 50
2, 24840, Note_on_c, 2, 71, 58
2, 24844, Note_on_c, 2, 50, 46
2, 24844, Control_c, 2, 64, 0
2, 24852, Note_on_c, 2, 60, 38
2, 24852, Note_on_c, 2, 64, 44
2, 24868, Note_on_c, 2, 54, 42
2, 25064, Control_c, 2, 64, 127
2, 25448, Note_off_c, 2, 64, 0
2, 25468, Note_off_c, 2, 50, 0
2, 25468, Note_off_c, 2, 66, 0
2, 25796, Note_on_c, 2, 51, 34
2, 25808, Note_on_c, 2, 63, 13
2, 25824, Control_c, 2, 64, 0
2, 25988, Control_c, 2, 64, 127
2, 26324, Note_off_c, 2, 60, 0
2, 26348, Note_off_c, 2, 63, 0
2, 26348, Note_off_c, 2, 51, 0
2, 26348, Note_off_c, 2, 54, 0
2, 26400, Note_off_c, 2, 71, 0
2, 26400, Control_c, 2, 123, 0
2, 26572, Note_on_c, 2, 60, 40
2, 26644, Control_c, 2, 64, 0
2, 26760, Control_c, 2, 64, 127
2, 26824, Note_on_c, 2, 64, 73
2, 26972, Note_on_c, 2, 60, 0
2, 27004, Note_on_c, 2, 67, 82
2, 27024, Note_on_c, 2, 64, 0
2, 27172, Note_on_c, 2, 67, 0
2, 27172, Control_c, 2, 123, 0
2, 27172, Control_c, 2, 64, 0
2, 27192, Note_on_c, 2, 67, 66
2, 27204, Note_on_c, 2, 71, 77
2, 27204, Note_on_c, 2, 52, 61
2, 27208, Note_on_c, 2, 64, 74
2, 27208, Note_on_c, 2, 36, 63
2, 27208, Note_on_c, 2, 62, 73
2, 27276, Control_c, 2, 64, 127
2, 27320, Note_off_c, 2, 52, 0
2, 27396, Note_off_c, 2, 36, 0
2, 27512, Note_off_c, 2, 71, 0
2, 27552, Note_off_c, 2, 62, 0
2, 27580, Note_on_c, 2, 55, 65
2, 27740, Note_on_c, 2, 64, 0
2, 27744, Note_on_c, 2, 72, 60
2, 27776, Note_on_c, 2, 67, 0
2, 27904, Note_on_c, 2, 72, 0
2, 27956, Control_c, 2, 64, 0
2, 27964, Note_on_c, 2, 69, 64
2, 27964, Note_on_c, 2, 45, 58
2, 27976, Note_on_c, 2, 55, 0
2, 27976, Note_on_c, 2, 60, 47
2, 27980, Note_on_c, 2, 64, 64
2, 28064, Control_c, 2, 64, 127
2, 28144, Note_off_c, 2, 64, 0
2, 28172, Note_on_c, 2, 55, 68
2, 28184, Note_on_c, 2, 69, 0
2, 28256, Note_on_c, 2, 60, 0
2, 28384, Note_on_c, 2, 64, 66
2, 28424, Note_on_c, 2, 55, 0
2, 28508, Note_on_c, 2, 45, 0
2, 28576, Note_on_c, 2, 65, 71
2, 28584, Note_on_c, 2, 64, 0
2, 28732, Note_on_c, 2, 65, 0
2, 28732, Control_c, 2, 123, 0
2, 28812, Note_on_c, 2, 67, 66
2, 28812, Control_c, 2, 64, 0
2, 28824, Note_on_c, 2, 38, 55
2, 28824, Note_on_c, 2, 60, 51
2, 28824, Note_on_c, 2, 57, 39
2, 28836, Note_on_c, 2, 64, 54
2, 28944, Control_c, 2, 64, 127
2, 29036, Note_off_c, 2, 67, 0
2, 29228, Note_on_c, 2, 53, 64
2, 29260, Note_on_c, 2, 38, 0
2, 29292, Note_on_c, 2, 57, 0
2, 29344, Note_on_c, 2, 53, 0
2, 29392, Note_on_c, 2, 60, 0
2, 29392, Note_on_c, 2, 67, 74
2, 29416, Note_on_c, 2, 64, 0
2, 29476, Note_on_c, 2, 67, 0
2, 29476, Control_c, 2, 123, 0
2, 29648, Note_on_c, 2, 68, 54
2, 29648, Control_c, 2, 64, 0
2, 29660, Note_on_c, 2, 59, 46
2, 29660, Note_on_c, 2, 63, 53
2, 29660, Note_on_c, 2, 43, 44
2, 29672, Note_on_c, 2, 53, 47
2, 29760, Control_c, 2, 64, 127
2, 29840, Note_off_c, 2, 63, 0
2, 29840, Note_off_c, 2, 59, 0
2, 29864, Note_off_c, 2, 68, 0
2, 30548, Note_off_c, 2, 43, 0
2, 30576, Note_off_c, 2, 53, 0
2, 30576, Note_on_c, 2, 72, 46
2, 30688, Note_on_c, 2, 72, 0
2, 30688, Control_c, 2, 123, 0
2, 30696, Note_on_c, 2, 74, 74
2, 30788, Note_on_c, 2, 74, 0
2, 30788, Control_c, 2, 123, 0
2, 30820, Note_on_c, 2, 52, 63
2, 30828, Note_on_c, 2, 72, 55
2, 30844, Control_c, 2, 64, 0
2, 30972, Control_c, 2, 64, 127
2, 31300, Note_on_c, 2, 62, 63
2, 31312, Note_on_c, 2, 57, 58
2, 31396, Note_on_c, 2, 72, 0
2, 31604, Note_on_c, 2, 62, 0
2, 31608, Note_on_c, 2, 72, 53
2, 31828, Note_on_c, 2, 71, 73
2, 31840, Note_on_c, 2, 72, 0
2, 31840, Note_on_c, 2, 55, 54
2, 31848, Note_on_c, 2, 57, 0
2, 31864, Note_on_c, 2, 55, 0
2, 31864, Note_on_c, 2, 52, 0
2, 31892, Note_on_c, 2, 71, 0
2, 31892, Control_c, 2, 123, 0
2, 32040, Note_on_c, 2, 70, 65
2, 32060, Note_on_c, 2, 59, 28
2, 32060, Note_on_c, 2, 53, 66
2, 32072, Note_on_c, 2, 63, 32
2, 32096, Control_c, 2, 64, 0
2, 32220, Control_c, 2, 64, 127
2, 32228, Note_off_c, 2, 70, 0
2, 32300, Note_on_c, 2, 43, 53
2, 32300, Note_on_c, 2, 68, 64
2, 32444, Note_on_c, 2, 68, 0
2, 32568, Note_on_c, 2, 67, 57
2, 32684, Note_on_c, 2, 53, 0
2, 32756, Note_on_c, 2, 43, 0
2, 32836, Note_on_c, 2, 67, 0
2, 32856, Note_on_c, 2, 65, 49
2, 32868, Note_on_c, 2, 63, 0
2, 32888, Note_on_c, 2, 65, 0
2, 32900, Note_on_c, 2, 59, 0
2, 32900, Control_c, 2, 123, 0
2, 33196, Note_on_c, 2, 36, 36
2, 33244, Note_on_c, 2, 43, 29
2, 33268, Note_on_c, 2, 57, 32
2, 33280, Note_on_c, 2, 59, 41
2, 33292, Note_on_c, 2, 52, 40
2, 33292, Control_c, 2, 64, 0
2, 33312, Note_on_c, 2, 62, 44
2, 33336, Note_on_c, 2, 64, 21
2, 33348, Note_on_c, 2, 67, 48
2, 34084, Control_c, 2, 64, 127
2, 34480, Note_on_c, 2, 60, 61
2, 34604, Note_on_c, 2, 60, 0
2, 35072, Note_on_c, 2, 64, 76
2, 35604, Note_on_c, 2, 52, 43
2, 35884, Note_on_c, 2, 52, 0
2, 35916, Note_on_c, 2, 67, 66
2, 35928, Note_on_c, 2, 59, 0
2, 35932, Note_on_c, 2, 57, 0
2, 35936, Note_on_c, 2, 64, 0
2, 35940, Note_on_c, 2, 62, 0
2, 35940, Note_on_c, 2, 43, 0
2, 35952, Note_on_c, 2, 67, 0
2, 35952, Note_on_c, 2, 36, 0
2, 35956, Control_c, 2, 123, 0
2, 36124, Control_c, 2, 123, 0
2, 36204, Note_on_c, 2, 40, 53
2, 36224, Note_on_c, 2, 69, 46
2, 36224, Note_on_c, 2, 62, 56
2, 36224, Note_on_c, 2, 59, 40
2, 36224, Note_on_c, 2, 66, 57
2, 36228, Control_c, 2, 64, 0
2, 36436, Control_c, 2, 64, 127
2, 36500, Note_on_c, 2, 47, 64
2, 36544, Note_on_c, 2, 59, 0
2, 36564, Note_on_c, 2, 66, 0
2, 36584, Note_on_c, 2, 62, 0
2, 36776, Note_on_c, 2, 54, 63
2, 36808, Note_on_c, 2, 64, 0
2, 36960, Note_on_c, 2, 69, 0
2, 37024, Note_on_c, 2, 55, 65
2, 37296, Note_on_c, 2, 57, 63
2, 37300, Control_c, 2, 64, 0
2, 37424, Control_c, 2, 64, 127
2, 37568, Note_on_c, 2, 59, 65
2, 37708, Note_on_c, 2, 57, 0
2, 37864, Note_on_c, 2, 62, 71
2, 37884, Note_on_c, 2, 59, 0
2, 37884, Note_on_c, 2, 55, 0
2, 37916, Note_on_c, 2, 62, 0
2, 37916, Note_on_c, 2, 52, 0
2, 38088, Note_on_c, 2, 54, 0
2, 38128, Note_on_c, 2, 40, 0
2, 38128, Note_on_c, 2, 66, 68
2, 38152, Note_on_c, 2, 47, 0
2, 38260, Note_on_c, 2, 67, 84
2, 38272, Note_on_c, 2, 66, 0
2, 38388, Note_on_c, 2, 67, 0
2, 38392, Control_c, 2, 123, 0
2, 38420, Note_on_c, 2, 66, 73
2, 38432, Note_on_c, 2, 59, 61
2, 38432, Note_on_c, 2, 47, 54
2, 38432, Note_on_c, 2, 62, 74
2, 38444, Note_on_c, 2, 55, 46
2, 38444, Note_on_c, 2, 40, 46
2, 38472, Control_c, 2, 64, 0
2, 38484, Note_off_c, 2, 67, 0
2, 38652, Control_c, 2, 64, 127
2, 38808, Note_off_c, 2, 55, 0
2, 38984, Note_off_c, 2, 62, 0
2, 38984, Note_off_c, 2, 66, 0
2, 39044, Note_on_c, 2, 55, 34
2, 39160, Note_on_c, 2, 40, 0
2, 39180, Note_on_c, 2, 47, 0
2, 39356, Note_on_c, 2, 55, 0
2, 39356, Note_on_c, 2, 59, 0
2, 39356, Note_on_c, 2, 66, 74
2, 39440, Note_on_c, 2, 66, 0
2, 39440, Control_c, 2, 123, 0
2, 39640, Control_c, 2, 64, 0
2, 39648, Note_on_c, 2, 61, 58
2, 39664, Note_on_c, 2, 45, 44
2, 39664, Note_on_c, 2, 66, 64
2, 39664, Note_on_c, 2, 55, 53
2, 39664, Note_on_c, 2, 58, 53
2, 39776, Control_c, 2, 64, 127
2, 39884, Note_off_c, 2, 66, 0
2, 40232, Note_on_c, 2, 64, 71
2, 40272, Note_on_c, 2, 61, 0
2, 40304, Note_on_c, 2, 58, 0
2, 40356, Note_on_c, 2, 64, 0
2, 40396, Note_on_c, 2, 55, 0
2, 40516, Note_on_c, 2, 52, 55
2, 40544, Note_on_c, 2, 52, 0
2, 40584, Note_on_c, 2, 45, 0
2, 40584, Control_c, 2, 123, 0
2, 40816, Note_on_c, 2, 66, 47
2, 40816, Note_on_c, 2, 38, 53
2, 40828, Note_on_c, 2, 61, 38
2, 40828, Note_on_c, 2, 64, 53
2, 40828, Note_on_c, 2, 59, 39
2, 40832, Note_on_c, 2, 69, 57
2, 40832, Control_c, 2, 64, 0
2, 40996, Control_c, 2, 64, 127
2, 41320, Note_off_c, 2, 38, 0
2, 41352, Note_off_c, 2, 59, 0
2, 41380, Note_on_c, 2, 54, 49
2, 41404, Note_on_c, 2, 64, 0
2, 41404, Note_on_c, 2, 61, 0
2, 41428, Note_on_c, 2, 66, 0
2, 41440, Note_on_c, 2, 54, 0
2, 41952, Note_on_c, 2, 66, 49
2, 41952, Control_c, 2, 64, 0
2, 41964, Note_on_c, 2, 59, 40
2, 41964, Note_on_c, 2, 43, 48
2, 41964, Note_on_c, 2, 62, 54
2, 41976, Note_on_c, 2, 54, 34
2, 42080, Control_c, 2, 64, 127
2, 42316, Note_off_c, 2, 54, 0
2, 42328, Note_off_c, 2, 59, 0
2, 42500, Note_off_c, 2, 62, 0
2, 42532, Note_off_c, 2, 66, 0
2, 42552, Note_off_c, 2, 69, 0
2, 42572, Note_on_c, 2, 54, 42
2, 42644, Note_on_c, 2, 54, 0
2, 42656, Note_on_c, 2, 43, 0
2, 42656, Control_c, 2, 123, 0
2, 43084, Note_on_c, 2, 42, 40
2, 43108, Note_on_c, 2, 64, 55
2, 43108, Note_on_c, 2, 52, 55
2, 43116, Note_on_c, 2, 57, 49
2, 43132, Note_on_c, 2, 69, 59
2, 43136, Control_c, 2, 64, 0
2, 43156, Note_on_c, 2, 73, 63
2, 43180, Note_on_c, 2, 76, 63
2, 43248, Control_c, 2, 64, 127
2, 43300, Note_off_c, 2, 42, 0
2, 43340, Note_off_c, 2, 52, 0
2, 43416, Note_off_c, 2, 57, 0
2, 43424, Note_off_c, 2, 76, 0
2, 43488, Note_off_c, 2, 64, 0
2, 43508, Note_off_c, 2, 73, 0
2, 43556, Note_off_c, 2, 69, 0
2, 43556, Control_c, 2, 123, 0
2, 43568, Note_on_c, 2, 76, 66
2, 43756, Note_on_c, 2, 61, 60
2, 43796, Note_on_c, 2, 76, 0
2, 43936, Note_on_c, 2, 76, 56
2, 43956, Note_on_c, 2, 61, 0
2, 44004, Note_on_c, 2, 76, 0
2, 44004, Control_c, 2, 123, 0
2, 44292, Note_on_c, 2, 76, 45
2, 44304, Note_on_c, 2, 62, 53
2, 44304, Note_on_c, 2, 71, 49
2, 44304, Note_on_c, 2, 52, 47
2, 44308, Note_on_c, 2, 67, 56
2, 44308, Control_c, 2, 64, 0
2, 44320, Note_on_c, 2, 59, 52
2, 44432, Control_c, 2, 64, 127
2, 44804, Note_off_c, 2, 76, 0
2, 44880, Note_on_c, 2, 74, 58
2, 44892, Note_on_c, 2, 55, 47
2, 44936, Note_on_c, 2, 52, 0
2, 44960, Note_on_c, 2, 59, 0
2, 44968, Note_on_c, 2, 67, 0
2, 44968, Note_on_c, 2, 71, 0
2, 44980, Note_on_c, 2, 55, 0
2, 45012, Note_on_c, 2, 62, 0
2, 45460, Control_c, 2, 64, 0
2, 45468, Note_on_c, 2, 69, 31
2, 45480, Note_on_c, 2, 38, 41
2, 45480, Note_on_c, 2, 60, 26
2, 45492, Note_on_c, 2, 65, 35
2, 45492, Note_on_c, 2, 53, 39
2, 45592, Control_c, 2, 64, 127
2, 45632, Note_off_c, 2, 38, 0
2, 45708, Note_off_c, 2, 60, 0
2, 45728, Note_off_c, 2, 53, 0
2, 45808, Note_off_c, 2, 65, 0
2, 45836, Note_off_c, 2, 69, 0
2, 45860, Note_off_c, 2, 74, 0
2, 45860, Control_c, 2, 123, 0
2, 46084, Note_on_c, 2, 57, 52
2, 46152, Note_on_c, 2, 57, 0
2, 46152, Control_c, 2, 123, 0
2, 46580, Note_on_c, 2, 50, 48
2, 46604, Note_on_c, 2, 58, 48
2, 46624, Note_on_c, 2, 69, 45
2, 46636, Note_on_c, 2, 61, 53
2, 46648, Note_on_c, 2, 73, 51
2, 46660, Control_c, 2, 64, 0
2, 46684, Note_on_c, 2, 81, 77
2, 46824, Control_c, 2, 64, 127
2, 46968, Note_off_c, 2, 61, 0
2, 47228, Note_on_c, 2, 61, 34
2, 47260, Note_on_c, 2, 81, 0
2, 47272, Note_on_c, 2, 58, 0
2, 47280, Note_on_c, 2, 61, 0
2, 47292, Note_on_c, 2, 50, 0
2, 47304, Note_on_c, 2, 73, 0
2, 47344, Note_on_c, 2, 69, 0
2, 47344, Control_c, 2, 123, 0
2, 47680, Note_on_c, 2, 50, 42
2, 47708, Note_on_c, 2, 57, 49
2, 47740, Note_on_c, 2, 65, 19
2, 47752, Note_on_c, 2, 60, 39
2, 47768, Control_c, 2, 64, 0
2, 47788, Note_on_c, 2, 69, 40
2, 47796, Note_on_c, 2, 72, 36
2, 47812, Note_on_c, 2, 76, 56
2, 47892, Control_c, 2, 64, 127
2, 48004, Note_off_c, 2, 60, 0
2, 48080, Note_off_c, 2, 65, 0
2, 48132, Note_off_c, 2, 69, 0
2, 48164, Note_off_c, 2, 72, 0
2, 48172, Note_off_c, 2, 76, 0
2, 48392, Note_on_c, 2, 60, 52
2, 48604, Note_on_c, 2, 50, 0
2, 48616, Note_on_c, 2, 64, 53
2, 48676, Note_on_c, 2, 64, 0
2, 48676, Note_on_c, 2, 57, 0
2, 48708, Note_on_c, 2, 60, 0
2, 48708, Control_c, 2, 123, 0
2, 48740, Note_on_c, 2, 76, 55
2, 48820, Note_on_c, 2, 79, 79
2, 48848, Note_on_c, 2, 76, 0
2, 48900, Note_on_c, 2, 74, 73
2, 48924, Note_on_c, 2, 79, 0
2, 48932, Note_on_c, 2, 53, 34
2, 48932, Note_on_c, 2, 64, 45
2, 48944, Note_on_c, 2, 59, 49
2, 48956, Note_on_c, 2, 75, 69
2, 48960, Control_c, 2, 64, 0
2, 48992, Note_off_c, 2, 74, 0
2, 49032, Note_on_c, 2, 76, 53
2, 49044, Note_on_c, 2, 75, 0
2, 49188, Note_on_c, 2, 74, 55
2, 49200, Note_on_c, 2, 76, 0
2, 49244, Control_c, 2, 64, 127
2, 49508, Note_off_c, 2, 64, 0
2, 49528, Note_off_c, 2, 74, 0
2, 49528, Note_off_c, 2, 59, 0
2, 49560, Note_off_c, 2, 53, 0
2, 49560, Control_c, 2, 123, 0
2, 49988, Note_on_c, 2, 40, 40
2, 50040, Note_on_c, 2, 47, 51
2, 50052, Note_on_c, 2, 59, 50
2, 50076, Note_on_c, 2, 62, 49
2, 50076, Note_on_c, 2, 55, 60
2, 50100, Note_on_c, 2, 66, 61
2, 50100, Control_c, 2, 64, 0
2, 50108, Note_on_c, 2, 69, 76
2, 50272, Control_c, 2, 64, 127
2, 50368, Note_off_c, 2, 55, 0
2, 50676, Note_on_c, 2, 55, 63
2, 50708, Note_on_c, 2, 62, 0
2, 50708, Note_on_c, 2, 40, 0
2, 50728, Note_on_c, 2, 47, 0
2, 50764, Note_on_c, 2, 59, 0
2, 50792, Note_on_c, 2, 66, 0
2, 50960, Note_on_c, 2, 59, 77
2, 51252, Note_on_c, 2, 45, 52
2, 51252, Note_on_c, 2, 63, 69
2, 51252, Note_on_c, 2, 66, 69
2, 51268, Control_c, 2, 64, 0
2, 51408, Control_c, 2, 64, 127
2, 51520, Note_off_c, 2, 55, 0
2, 51624, Note_off_c, 2, 69, 0
2, 51776, Note_off_c, 2, 59, 0
2, 51808, Note_on_c, 2, 55, 45
2, 51880, Note_on_c, 2, 55, 0
2, 51880, Note_on_c, 2, 45, 0
2, 52012, Note_on_c, 2, 71, 71
2, 52032, Note_on_c, 2, 63, 0
2, 52044, Note_on_c, 2, 66, 0
2, 52084, Note_on_c, 2, 71, 0
2, 52084, Control_c, 2, 123, 0
2, 52340, Note_on_c, 2, 74, 48
2, 52356, Note_on_c, 2, 60, 49
2, 52356, Note_on_c, 2, 71, 54
2, 52356, Note_on_c, 2, 64, 41
2, 52356, Note_on_c, 2, 55, 49
2, 52356, Note_on_c, 2, 45, 49
2, 52356, Note_on_c, 2, 67, 62
2, 52368, Control_c, 2, 64, 0
2, 52508, Control_c, 2, 64, 127
2, 52528, Note_off_c, 2, 74, 0
2, 52540, Note_off_c, 2, 71, 0
2, 52548, Note_off_c, 2, 67, 0
2, 52572, Note_off_c, 2, 64, 0
2, 52572, Note_off_c, 2, 60, 0
2, 52580, Note_off_c, 2, 55, 0
2, 52824, Note_off_c, 2, 45, 0
2, 52824, Control_c, 2, 123, 0
2, 52948, Note_on_c, 2, 71, 53
2, 52964, Note_on_c, 2, 54, 50
2, 52964, Note_on_c, 2, 50, 47
2, 52972, Note_on_c, 2, 60, 32
2, 52976, Note_on_c, 2, 66, 49
2, 52976, Note_on_c, 2, 64, 49
2, 52976, Control_c, 2, 64, 0
2, 53076, Control_c, 2, 64, 127
2, 53108, Note_off_c, 2, 64, 0
2, 53108, Note_off_c, 2, 66, 0
2, 53120, Note_off_c, 2, 54, 0
2, 53132, Note_off_c, 2, 71, 0
2, 53140, Note_off_c, 2, 50, 0
2, 53152, Note_off_c, 2, 60, 0
2, 53152, Control_c, 2, 123, 0
2, 53536, Control_c, 2, 64, 0
2, 53548, Note_on_c, 2, 64, 46
2, 53548, Note_on_c, 2, 43, 40
2, 53548, Note_on_c, 2, 60, 38
2, 53548, Note_on_c, 2, 67, 47
2, 53560, Note_on_c, 2, 53, 42
2, 53560, Note_on_c, 2, 57, 27
2, 53652, Control_c, 2, 64, 127
2, 53756, Note_off_c, 2, 60, 0
2, 53816, Note_off_c, 2, 67, 0
2, 53816, Note_off_c, 2, 64, 0
2, 53848, Note_on_c, 2, 60, 55
2, 53908, Note_on_c, 2, 53, 0
2, 53944, Note_on_c, 2, 57, 0
2, 54132, Note_on_c, 2, 53, 30
2, 54152, Note_on_c, 2, 64, 59
2, 54164, Note_on_c, 2, 53, 0
2, 54244, Note_on_c, 2, 60, 0
2, 54256, Note_on_c, 2, 43, 0
2, 54412, Note_on_c, 2, 67, 70
2, 54424, Note_on_c, 2, 64, 0
2, 54472, Note_on_c, 2, 67, 0
2, 54472, Control_c, 2, 123, 0
2, 54704, Note_on_c, 2, 71, 60
2, 54716, Note_on_c, 2, 59, 40
2, 54720, Note_on_c, 2, 66, 49
2, 54720, Note_on_c, 2, 63, 45
2, 54720, Note_on_c, 2, 36, 47
2, 54720, Note_on_c, 2, 52, 37
2, 54732, Control_c, 2, 64, 0
2, 54876, Control_c, 2, 64, 127
2, 54944, Note_off_c, 2, 59, 0
2, 54956, Note_off_c, 2, 71, 0
2, 55000, Note_off_c, 2, 63, 0
2, 55000, Note_off_c, 2, 66, 0
2, 55284, Note_on_c, 2, 67, 49
2, 55288, Note_on_c, 2, 72, 36
2, 55296, Note_on_c, 2, 60, 25
2, 55300, Note_on_c, 2, 64, 43
2, 55312, Control_c, 2, 64, 0
2, 55400, Control_c, 2, 64, 127
2, 55420, Note_off_c, 2, 36, 0
2, 55460, Note_off_c, 2, 64, 0
2, 55460, Note_off_c, 2, 72, 0
2, 55472, Note_off_c, 2, 67, 0
2, 55492, Note_off_c, 2, 52, 0
2, 55504, Note_off_c, 2, 60, 0
2, 55504, Control_c, 2, 123, 0
2, 55848, Note_on_c, 2, 59, 32
2, 55852, Note_on_c, 2, 64, 46
2, 55852, Note_on_c, 2, 60, 34
2, 55852, Note_on_c, 2, 69, 46
2, 55852, Control_c, 2, 64, 0
2, 55864, Note_on_c, 2, 55, 38
2, 55864, Note_on_c, 2, 45, 36
2, 55988, Control_c, 2, 64, 127
2, 56224, Note_off_c, 2, 59, 0
2, 56288, Note_off_c, 2, 55, 0
2, 56360, Note_off_c, 2, 64, 0
2, 56452, Note_off_c, 2, 60, 0
2, 56472, Note_on_c, 2, 55, 51
2, 56564, Note_on_c, 2, 55, 0
2, 56568, Note_on_c, 2, 69, 0
2, 56624, Note_on_c, 2, 64, 79
2, 56664, Note_on_c, 2, 45, 0
2, 56820, Note_on_c, 2, 65, 82
2, 56852, Note_on_c, 2, 64, 0
2, 56992, Note_on_c, 2, 65, 0
2, 56992, Control_c, 2, 123, 0
2, 56992, Control_c, 2, 64, 0
2, 57032, Note_on_c, 2, 67, 64
2, 57044, Note_on_c, 2, 60, 46
2, 57044, Note_on_c, 2, 38, 49
2, 57044, Note_on_c, 2, 53, 44
2, 57044, Note_on_c, 2, 57, 34
2, 57044, Note_on_c, 2, 64, 53
2, 57104, Control_c, 2, 64, 127
2, 57148, Note_off_c, 2, 57, 0
2, 57160, Note_off_c, 2, 60, 0
2, 57172, Note_off_c, 2, 64, 0
2, 57180, Note_off_c, 2, 38, 0
2, 57200, Note_off_c, 2, 67, 0
2, 57260, Note_off_c, 2, 53, 0
2, 57260, Control_c, 2, 123, 0
2, 57576, Note_on_c, 2, 72, 33
2, 57588, Note_on_c, 2, 65, 45
2, 57600, Note_on_c, 2, 60, 24
2, 57600, Note_on_c, 2, 69, 44
2, 57600, Note_on_c, 2, 57, 53
2, 57676, Note_on_c, 2, 57, 0
2, 57676, Note_on_c, 2, 65, 0
2, 57700, Note_on_c, 2, 69, 0
2, 57708, Note_on_c, 2, 72, 0
2, 57728, Note_on_c, 2, 60, 0
2, 57732, Control_c, 2, 123, 0
2, 58152, Control_c, 2, 64, 0
2, 58160, Note_on_c, 2, 60, 44
2, 58172, Note_on_c, 2, 43, 44
2, 58172, Note_on_c, 2, 53, 39
2, 58172, Note_on_c, 2, 64, 49
2, 58172, Note_on_c, 2, 57, 48
2, 58264, Control_c, 2, 64, 127
2, 58332, Note_off_c, 2, 53, 0
2, 58384, Note_off_c, 2, 57, 0
2, 58416, Note_off_c, 2, 60, 0
2, 58428, Note_off_c, 2, 64, 0
2, 58756, Note_on_c, 2, 55, 44
2, 58808, Note_on_c, 2, 55, 0
2, 58840, Note_on_c, 2, 43, 0
2, 58840, Control_c, 2, 123, 0
2, 58896, Note_on_c, 2, 64, 68
2, 59008, Note_on_c, 2, 64, 0
2, 59008, Control_c, 2, 123, 0
2, 59036, Note_on_c, 2, 67, 77
2, 59136, Note_on_c, 2, 67, 0
2, 59136, Control_c, 2, 123, 0
2, 59168, Note_on_c, 2, 71, 86
2, 59292, Note_on_c, 2, 71, 0
2, 59296, Control_c, 2, 123, 0
2, 59328, Note_on_c, 2, 59, 51
2, 59328, Note_on_c, 2, 68, 79
2, 59328, Note_on_c, 2, 74, 52
2, 59340, Note_on_c, 2, 65, 64
2, 59340, Note_on_c, 2, 44, 56
2, 59340, Note_on_c, 2, 53, 57
2, 59344, Control_c, 2, 64, 0
2, 59588, Control_c, 2, 64, 127
2, 59724, Note_off_c, 2, 59, 0
2, 59900, Note_on_c, 2, 59, 55
2, 59912, Note_on_c, 2, 74, 0
2, 59936, Note_on_c, 2, 44, 0
2, 60008, Note_on_c, 2, 53, 0
2, 60068, Note_on_c, 2, 74, 76
2, 60080, Note_on_c, 2, 59, 0
2, 60140, Note_on_c, 2, 65, 0
2, 60192, Note_on_c, 2, 74, 0
2, 60200, Note_on_c, 2, 68, 0
2, 60204, Control_c, 2, 123, 0
2, 60232, Note_on_c, 2, 76, 52
2, 60332, Note_on_c, 2, 76, 0
2, 60332, Control_c, 2, 123, 0
2, 60436, Note_on_c, 2, 72, 35
2, 60440, Control_c, 2, 64, 0
2, 60448, Note_on_c, 2, 64, 35
2, 60452, Note_on_c, 2, 69, 47
2, 60452, Note_on_c, 2, 60, 44
2, 60468, Note_on_c, 2, 45, 31
2, 60468, Note_on_c, 2, 55, 42
2, 60640, Control_c, 2, 64, 127
2, 60784, Note_off_c, 2, 69, 0
2, 60828, Note_off_c, 2, 60, 0
2, 60880, Note_off_c, 2, 72, 0
2, 60940, Note_off_c, 2, 64, 0
2, 61052, Note_on_c, 2, 60, 34
2, 61240, Note_on_c, 2, 67, 66
2, 61260, Note_on_c, 2, 60, 0
2, 61364, Note_on_c, 2, 55, 0
2, 61404, Note_on_c, 2, 67, 0
2, 61404, Note_on_c, 2, 69, 60
2, 61484, Note_on_c, 2, 45, 0
2, 61524, Note_on_c, 2, 69, 0
2, 61528, Control_c, 2, 123, 0
2, 61596, Control_c, 2, 64, 0
2, 61604, Note_on_c, 2, 54, 54
2, 61620, Note_on_c, 2, 71, 53
2, 61620, Note_on_c, 2, 66, 50
2, 61620, Note_on_c, 2, 60, 39
2, 61620, Note_on_c, 2, 64, 42
2, 61716, Control_c, 2, 64, 127
2, 62212, Note_on_c, 2, 50, 40
2, 62224, Note_on_c, 2, 71, 0
2, 62256, Note_on_c, 2, 64, 0
2, 62256, Note_on_c, 2, 54, 0
2, 62264, Note_on_c, 2, 66, 0
2, 62296, Note_on_c, 2, 50, 0
2, 62336, Note_on_c, 2, 60, 0
2, 62340, Control_c, 2, 123, 0
2, 62780, Control_c, 2, 64, 0
2, 62796, Note_on_c, 2, 43, 76
2, 62916, Control_c, 2, 64, 127
2, 63184, Note_on_c, 2, 60, 68
2, 63188, Note_on_c, 2, 57, 70
2, 63188, Note_on_c, 2, 64, 74
2, 63196, Note_on_c, 2, 53, 73
2, 63252, Note_on_c, 2, 53, 0
2, 63264, Note_on_c, 2, 57, 0
2, 63296, Note_on_c, 2, 60, 0
2, 63328, Note_on_c, 2, 64, 0
2, 63532, Note_on_c, 2, 43, 0
2, 63532, Control_c, 2, 123, 0
2, 63572, Note_on_c, 2, 67, 64
2, 63672, Note_on_c, 2, 67, 0
2, 63672, Control_c, 2, 123, 0
2, 63912, Control_c, 2, 64, 0
2, 63924, Note_on_c, 2, 52, 56
2, 63924, Note_on_c, 2, 64, 70
2, 63924, Note_on_c, 2, 71, 76
2, 63924, Note_on_c, 2, 67, 76
2, 63940, Note_on_c, 2, 62, 65
2, 63940, Note_on_c, 2, 36, 62
2, 64040, Control_c, 2, 64, 127
2, 64132, Note_off_c, 2, 71, 0
2, 64152, Note_off_c, 2, 36, 0
2, 64236, Note_off_c, 2, 52, 0
2, 64284, Note_off_c, 2, 62, 0
2, 64444, Note_off_c, 2, 64, 0
2, 64512, Note_on_c, 2, 72, 59
2, 64552, Note_on_c, 2, 67, 0
2, 64632, Note_on_c, 2, 72, 0
2, 64632, Control_c, 2, 123, 0
2, 64884, Control_c, 2, 64, 0
2, 64892, Note_on_c, 2, 65, 69
2, 64892, Note_on_c, 2, 69, 63
2, 64904, Note_on_c, 2, 61, 50
2, 64908, Note_on_c, 2, 55, 63
2, 64908, Note_on_c, 2, 45, 55
2, 65004, Control_c, 2, 64, 127
2, 65036, Note_off_c, 2, 61, 0
2, 65044, Note_off_c, 2, 45, 0
2, 65044, Note_off_c, 2, 65, 0
2, 65068, Note_off_c, 2, 69, 0
2, 65088, Note_off_c, 2, 55, 0
2, 65088, Control_c, 2, 123, 0
2, 65464, Note_on_c, 2, 65, 82
2, 65552, Note_on_c, 2, 65, 0
2, 65552, Control_c, 2, 123, 0
2, 65680, Note_on_c, 2, 61, 70
2, 65748, Note_on_c, 2, 61, 0
2, 65748, Control_c, 2, 123, 0
2, 65852, Note_on_c, 2, 69, 63
2, 65980, Note_on_c, 2, 69, 0
2, 65984, Control_c, 2, 123, 0
2, 66032, Note_on_c, 2, 73, 70
2, 66112, Note_on_c, 2, 73, 0
2, 66112, Control_c, 2, 123, 0
2, 66228, Note_on_c, 2, 72, 53
2, 66228, Note_on_c, 2, 76, 57
2, 66228, Note_on_c, 2, 60, 53
2, 66232, Control_c, 2, 64, 0
2, 66240, Note_on_c, 2, 50, 59
2, 66240, Note_on_c, 2, 65, 65
2, 66240, Note_on_c, 2, 57, 54
2, 66244, Note_on_c, 2, 69, 64
2, 66380, Control_c, 2, 64, 127
2, 66476, Note_off_c, 2, 76, 0
2, 66548, Note_off_c, 2, 60, 0
2, 66664, Note_off_c, 2, 57, 0
2, 66756, Note_off_c, 2, 50, 0
2, 66804, Note_off_c, 2, 65, 0
2, 66828, Note_on_c, 2, 77, 60
2, 66836, Note_on_c, 2, 69, 0
2, 66868, Note_on_c, 2, 77, 0
2, 66868, Note_on_c, 2, 72, 0
2, 66872, Control_c, 2, 123, 0
2, 67204, Note_on_c, 2, 43, 53
2, 67208, Note_on_c, 2, 69, 48
2, 67208, Note_on_c, 2, 74, 46
2, 67220, Note_on_c, 2, 60, 44
2, 67220, Note_on_c, 2, 55, 52
2, 67220, Note_on_c, 2, 65, 57
2, 67248, Control_c, 2, 64, 0
2, 67396, Control_c, 2, 64, 127
2, 67680, Note_off_c, 2, 55, 0
2, 67812, Note_off_c, 2, 69, 0
2, 67836, Note_off_c, 2, 74, 0
2, 67976, Note_on_c, 2, 55, 65
2, 68060, Note_on_c, 2, 43, 0
2, 68068, Note_on_c, 2, 55, 0
2, 68092, Note_on_c, 2, 60, 0
2, 68112, Note_on_c, 2, 65, 0
2, 68112, Control_c, 2, 123, 0
2, 68152, Note_on_c, 2, 69, 64
2, 68316, Note_on_c, 2, 69, 0
2, 68320, Control_c, 2, 123, 0
2, 68328, Note_on_c, 2, 71, 63
2, 68428, Note_on_c, 2, 71, 0
2, 68428, Control_c, 2, 123, 0
2, 68536, Note_on_c, 2, 52, 51
2, 68536, Note_on_c, 2, 72, 40
2, 68536, Note_on_c, 2, 67, 53
2, 68540, Control_c, 2, 64, 0
2, 68552, Note_on_c, 2, 57, 54
2, 68552, Note_on_c, 2, 62, 39
2, 68552, Note_on_c, 2, 64, 42
2, 68672, Control_c, 2, 64, 127
2, 68736, Note_off_c, 2, 57, 0
2, 68756, Note_off_c, 2, 64, 0
2, 68756, Note_off_c, 2, 52, 0
2, 68768, Note_off_c, 2, 62, 0
2, 68800, Note_off_c, 2, 67, 0
2, 68936, Note_off_c, 2, 72, 0
2, 68936, Control_c, 2, 123, 0
2, 69476, Note_on_c, 2, 71, 71
2, 69480, Note_on_c, 2, 44, 44
2, 69484, Note_on_c, 2, 53, 56
2, 69484, Note_on_c, 2, 62, 64
2, 69484, Note_on_c, 2, 65, 69
2, 69484, Note_on_c, 2, 59, 47
2, 69544, Note_on_c, 2, 65, 0
2, 69544, Note_on_c, 2, 62, 0
2, 69544, Note_on_c, 2, 44, 0
2, 69556, Note_on_c, 2, 53, 0
2, 69564, Note_on_c, 2, 71, 0
2, 69568, Note_on_c, 2, 59, 0
2, 69568, Control_c, 2, 123, 0
2, 69716, Control_c, 2, 64, 0
2, 69724, Note_on_c, 2, 69, 56
2, 69736, Note_on_c, 2, 60, 40
2, 69736, Note_on_c, 2, 67, 53
2, 69736, Note_on_c, 2, 64, 53
2, 69752, Note_on_c, 2, 55, 53
2, 69752, Note_on_c, 2, 45, 49
2, 69860, Control_c, 2, 64, 127
2, 69944, Note_off_c, 2, 67, 0
2, 69964, Note_off_c, 2, 64, 0
2, 69964, Note_off_c, 2, 60, 0
2, 69996, Note_off_c, 2, 69, 0
2, 70124, Note_off_c, 2, 45, 0
2, 70312, Note_on_c, 2, 60, 53
2, 70332, Note_on_c, 2, 55, 0
2, 70352, Note_on_c, 2, 60, 0
2, 70352, Control_c, 2, 123, 0
2, 70688, Note_on_c, 2, 76, 62
2, 70760, Note_on_c, 2, 76, 0
2, 70760, Control_c, 2, 123, 0
2, 70908, Control_c, 2, 64, 0
2, 70916, Note_on_c, 2, 50, 50
2, 70916, Note_on_c, 2, 79, 70
2, 70920, Note_on_c, 2, 60, 46
2, 70920, Note_on_c, 2, 76, 53
2, 70928, Note_on_c, 2, 57, 42
2, 70932, Note_on_c, 2, 69, 46
2, 70932, Note_on_c, 2, 64, 46
2, 70932, Note_on_c, 2, 72, 40
2, 71052, Control_c, 2, 64, 127
2, 71224, Note_off_c, 2, 64, 0
2, 71224, Note_off_c, 2, 60, 0
2, 71224, Note_off_c, 2, 79, 0
2, 71264, Note_off_c, 2, 57, 0
2, 71268, Note_off_c, 2, 76, 0
2, 71276, Note_off_c, 2, 72, 0
2, 71276, Note_off_c, 2, 69, 0
2, 71484, Note_on_c, 2, 60, 39
2, 71488, Note_on_c, 2, 79, 61
2, 71520, Note_on_c, 2, 79, 0
2, 71520, Note_on_c, 2, 60, 0
2, 71540, Note_on_c, 2, 50, 0
2, 71540, Control_c, 2, 123, 0
2, 71868, Note_on_c, 2, 71, 49
2, 71868, Note_on_c, 2, 76, 34
2, 71876, Note_on_c, 2, 64, 32
2, 71876, Note_on_c, 2, 68, 42
2, 71976, Control_c, 2, 64, 0
2, 72048, Note_on_c, 2, 43, 31
2, 72048, Note_on_c, 2, 53, 39
2, 72072, Note_on_c, 2, 59, 33
2, 72116, Control_c, 2, 64, 127
2, 72372, Note_off_c, 2, 59, 0
2, 72636, Note_on_c, 2, 59, 62
2, 72652, Note_on_c, 2, 76, 0
2, 72684, Note_on_c, 2, 59, 0
2, 72692, Note_on_c, 2, 53, 0
2, 72716, Note_on_c, 2, 64, 0
2, 72748, Note_on_c, 2, 43, 0
2, 72748, Note_on_c, 2, 68, 0
2, 72748, Note_on_c, 2, 71, 0
2, 72748, Control_c, 2, 123, 0
2, 72892, Note_on_c, 2, 71, 13
2, 72932, Note_on_c, 2, 71, 0
2, 72932, Control_c, 2, 123, 0
2, 72976, Note_on_c, 2, 76, 60
2, 73064, Note_on_c, 2, 76, 0
2, 73064, Control_c, 2, 123, 0
2, 73200, Note_on_c, 2, 71, 76
2, 73200, Note_on_c, 2, 52, 53
2, 73204, Control_c, 2, 64, 0
2, 73212, Note_on_c, 2, 62, 71
2, 73216, Note_on_c, 2, 36, 49
2, 73216, Note_on_c, 2, 67, 69
2, 73356, Control_c, 2, 64, 127
2, 73528, Note_off_c, 2, 52, 0
2, 73700, Note_off_c, 2, 62, 0
2, 73740, Note_off_c, 2, 67, 0
2, 73752, Note_off_c, 2, 71, 0
2, 73776, Note_on_c, 2, 52, 55
2, 73816, Note_on_c, 2, 36, 0
2, 73864, Note_on_c, 2, 52, 0
2, 73864, Control_c, 2, 123, 0
2, 74104, Note_on_c, 2, 72, 61
2, 74192, Note_on_c, 2, 72, 0
2, 74196, Control_c, 2, 123, 0
2, 74332, Note_on_c, 2, 71, 80
2, 74332, Note_on_c, 2, 60, 52
2, 74340, Note_on_c, 2, 76, 51
2, 74340, Note_on_c, 2, 74, 65
2, 74344, Note_on_c, 2, 55, 49
2, 74344, Note_on_c, 2, 64, 64
2, 74360, Note_on_c, 2, 45, 40
2, 74360, Control_c, 2, 64, 0
2, 74396, Note_off_c, 2, 76, 0
2, 74660, Control_c, 2, 64, 127
2, 74700, Note_off_c, 2, 74, 0
2, 74700, Note_off_c, 2, 60, 0
2, 74700, Note_on_c, 2, 69, 62
2, 74712, Note_on_c, 2, 71, 0
2, 74712, Note_on_c, 2, 72, 38
2, 74852, Note_on_c, 2, 64, 0
2, 74892, Note_on_c, 2, 69, 0
2, 74936, Note_on_c, 2, 72, 0
2, 74956, Note_on_c, 2, 60, 55
2, 75000, Note_on_c, 2, 45, 0
2, 75000, Note_on_c, 2, 55, 0
2, 75008, Note_on_c, 2, 60, 0
2, 75008, Control_c, 2, 123, 0
2, 75288, Note_on_c, 2, 69, 84
2, 75488, Control_c, 2, 64, 0
2, 75504, Note_on_c, 2, 76, 65
2, 75504, Note_on_c, 2, 60, 52
2, 75516, Note_on_c, 2, 50, 53
2, 75516, Note_on_c, 2, 79, 74
2, 75516, Note_on_c, 2, 64, 55
2, 75516, Note_on_c, 2, 57, 55
2, 75844, Note_on_c, 2, 79, 0
2, 75868, Note_on_c, 2, 76, 0
2, 75880, Note_on_c, 2, 74, 56
2, 75880, Control_c, 2, 64, 127
2, 75892, Note_off_c, 2, 60, 0
2, 75892, Note_on_c, 2, 77, 48
2, 76096, Note_on_c, 2, 74, 0
2, 76108, Note_on_c, 2, 77, 0
2, 76108, Note_on_c, 2, 60, 54
2, 76132, Note_on_c, 2, 64, 0
2, 76152, Note_on_c, 2, 69, 0
2, 76172, Note_on_c, 2, 60, 0
2, 76172, Note_on_c, 2, 57, 0
2, 76232, Note_on_c, 2, 50, 0
2, 76236, Control_c, 2, 123, 0
2, 76452, Note_on_c, 2, 60, 61
2, 76644, Control_c, 2, 64, 0
2, 76652, Note_on_c, 2, 72, 39
2, 76652, Note_on_c, 2, 69, 58
2, 76652, Note_on_c, 2, 43, 35
2, 76652, Note_on_c, 2, 53, 55
2, 76664, Note_on_c, 2, 65, 59
2, 76776, Control_c, 2, 64, 127
2, 76796, Note_off_c, 2, 43, 0
2, 76820, Note_off_c, 2, 53, 0
2, 76860, Note_off_c, 2, 69, 0
2, 76872, Note_off_c, 2, 65, 0
2, 76880, Note_off_c, 2, 72, 0
2, 76900, Note_off_c, 2, 60, 0
2, 76904, Control_c, 2, 123, 0
2, 77200, Control_c, 2, 64, 0
2, 77208, Note_on_c, 2, 44, 49
2, 77212, Note_on_c, 2, 71, 53
2, 77212, Note_on_c, 2, 68, 54
2, 77212, Note_on_c, 2, 64, 54
2, 77224, Note_on_c, 2, 59, 41
2, 77224, Note_on_c, 2, 53, 46
2, 77328, Control_c, 2, 64, 127
2, 77388, Note_off_c, 2, 59, 0
2, 77420, Note_off_c, 2, 64, 0
2, 77440, Note_off_c, 2, 53, 0
2, 77440, Note_off_c, 2, 68, 0
2, 77452, Note_off_c, 2, 71, 0
2, 77804, Note_on_c, 2, 71, 57
2, 77804, Note_on_c, 2, 74, 54
2, 77804, Note_on_c, 2, 59, 48
2, 77804, Control_c, 2, 64, 0
2, 77816, Note_on_c, 2, 68, 51
2, 77816, Note_on_c, 2, 65, 47
2, 77816, Note_on_c, 2, 53, 46
2, 77920, Control_c, 2, 64, 127
2, 77932, Note_off_c, 2, 44, 0
2, 77960, Note_off_c, 2, 53, 0
2, 78024, Note_off_c, 2, 59, 0
2, 78076, Note_off_c, 2, 74, 0
2, 78116, Note_off_c, 2, 65, 0
2, 78136, Note_off_c, 2, 68, 0
2, 78148, Note_off_c, 2, 71, 0
2, 78148, Control_c, 2, 123, 0
2, 78348, Note_on_c, 2, 62, 52
2, 78380, Note_on_c, 2, 62, 0
2, 78384, Control_c, 2, 123, 0
2, 78508, Note_on_c, 2, 76, 53
2, 78616, Note_on_c, 2, 76, 0
2, 78616, Control_c, 2, 123, 0
2, 78684, Note_on_c, 2, 74, 65
2, 78752, Note_on_c, 2, 74, 0
2, 78756, Control_c, 2, 123, 0
2, 78880, Note_on_c, 2, 67, 64
2, 78880, Note_on_c, 2, 72, 41
2, 78884, Control_c, 2, 64, 0
2, 78892, Note_on_c, 2, 60, 40
2, 78892, Note_on_c, 2, 55, 44
2, 78892, Note_on_c, 2, 64, 51
2, 78908, Note_on_c, 2, 45, 34
2, 79052, Control_c, 2, 64, 127
2, 79216, Note_off_c, 2, 60, 0
2, 79484, Note_on_c, 2, 60, 52
2, 79540, Note_on_c, 2, 60, 0
2, 79540, Note_on_c, 2, 55, 0
2, 79612, Note_on_c, 2, 45, 0
2, 79644, Note_on_c, 2, 72, 0
2, 79692, Note_on_c, 2, 74, 49
2, 79788, Note_on_c, 2, 74, 0
2, 79816, Note_on_c, 2, 67, 0
2, 79828, Note_on_c, 2, 64, 0
2, 79828, Control_c, 2, 123, 0
2, 79856, Note_on_c, 2, 72, 45
2, 79928, Note_on_c, 2, 72, 0
2, 79928, Control_c, 2, 123, 0
2, 80060, Note_on_c, 2, 71, 55
2, 80076, Note_on_c, 2, 60, 33
2, 80076, Note_on_c, 2, 64, 46
2, 80076, Note_on_c, 2, 38, 39
2, 80076, Note_on_c, 2, 54, 17
2, 80076, Note_on_c, 2, 66, 53
2, 80076, Control_c, 2, 64, 0
2, 80232, Control_c, 2, 64, 127
2, 80452, Note_off_c, 2, 54, 0
2, 80740, Note_off_c, 2, 64, 0
2, 80764, Note_off_c, 2, 66, 0
2, 80764, Note_off_c, 2, 71, 0
2, 80776, Note_off_c, 2, 38, 0
2, 80804, Note_off_c, 2, 60, 0
2, 80804, Control_c, 2, 123, 0
2, 81160, Note_on_c, 2, 39, 63
2, 81220, Control_c, 2, 64, 0
2, 81228, Note_on_c, 2, 54, 64
2, 81260, Note_on_c, 2, 66, 80
2, 81272, Note_on_c, 2, 60, 74
2, 81272, Note_on_c, 2, 63, 79
2, 81272, Note_on_c, 2, 57, 73
2, 81344, Control_c, 2, 64, 127
2, 81364, Note_off_c, 2, 39, 0
2, 81424, Note_off_c, 2, 60, 0
2, 81436, Note_off_c, 2, 54, 0
2, 81456, Note_off_c, 2, 63, 0
2, 81516, Note_off_c, 2, 66, 0
2, 81528, Note_off_c, 2, 57, 0
2, 81528, Control_c, 2, 123, 0
2, 81636, Note_on_c, 2, 67, 86
2, 81860, Note_on_c, 2, 57, 65
2, 81920, Note_on_c, 2, 57, 0
2, 82008, Note_on_c, 2, 67, 0
2, 82012, Control_c, 2, 123, 0
2, 82032, Note_on_c, 2, 69, 73
2, 82120, Note_on_c, 2, 69, 0
2, 82120, Control_c, 2, 123, 0
2, 82400, Note_on_c, 2, 71, 62
2, 82400, Note_on_c, 2, 52, 49
2, 82412, Note_on_c, 2, 66, 60
2, 82412, Note_on_c, 2, 63, 58
2, 82412, Note_on_c, 2, 36, 52
2, 82428, Note_on_c, 2, 59, 44
2, 82428, Control_c, 2, 64, 0
2, 82556, Control_c, 2, 64, 127
2, 82628, Note_off_c, 2, 59, 0
2, 82648, Note_off_c, 2, 71, 0
2, 82692, Note_off_c, 2, 63, 0
2, 82692, Note_off_c, 2, 66, 0
2, 83000, Note_on_c, 2, 72, 60
2, 83008, Note_on_c, 2, 36, 0
2, 83080, Note_on_c, 2, 52, 0
2, 83236, Note_on_c, 2, 72, 0
2, 83236, Control_c, 2, 123, 0
2, 83380, Note_on_c, 2, 69, 46
2, 83380, Note_on_c, 2, 45, 53
2, 83392, Note_on_c, 2, 60, 33
2, 83396, Note_on_c, 2, 55, 54
2, 83396, Note_on_c, 2, 64, 44
2, 83396, Note_on_c, 2, 67, 52
2, 83424, Control_c, 2, 64, 0
2, 83548, Control_c, 2, 64, 127
2, 83664, Note_off_c, 2, 60, 0
2, 83780, Note_off_c, 2, 45, 0
2, 83952, Note_on_c, 2, 60, 64
2, 83992, Note_on_c, 2, 55, 0
2, 84004, Note_on_c, 2, 60, 0
2, 84240, Note_on_c, 2, 69, 0
2, 84248, Note_on_c, 2, 67, 0
2, 84412, Note_on_c, 2, 64, 0
2, 84416, Control_c, 2, 123, 0
2, 84512, Note_on_c, 2, 50, 71
2, 84708, Control_c, 2, 64, 0
2, 84728, Note_on_c, 2, 43, 59
2, 84740, Note_on_c, 2, 50, 0
2, 85120, Note_on_c, 2, 64, 71
2, 85120, Note_on_c, 2, 60, 61
2, 85120, Note_on_c, 2, 53, 62
2, 85128, Note_on_c, 2, 57, 58
2, 85248, Control_c, 2, 64, 127
2, 85292, Note_off_c, 2, 53, 0
2, 85312, Note_off_c, 2, 57, 0
2, 85324, Note_off_c, 2, 60, 0
2, 85336, Note_off_c, 2, 64, 0
2, 85508, Note_on_c, 2, 67, 79
2, 85568, Note_on_c, 2, 67, 0
2, 85852, Note_on_c, 2, 63, 64
2, 85852, Note_on_c, 2, 68, 64
2, 85864, Note_on_c, 2, 59, 47
2, 85864, Note_on_c, 2, 53, 64
2, 85884, Control_c, 2, 64, 0
2, 85976, Control_c, 2, 64, 127
2, 85984, Note_off_c, 2, 53, 0
2, 86036, Note_off_c, 2, 63, 0
2, 86036, Note_off_c, 2, 43, 0
2, 86068, Note_off_c, 2, 68, 0
2, 86076, Note_off_c, 2, 59, 0
2, 86080, Control_c, 2, 123, 0
2, 86404, Note_on_c, 2, 68, 57
2, 86404, Control_c, 2, 64, 0
2, 86416, Note_on_c, 2, 41, 48
2, 86416, Note_on_c, 2, 60, 47
2, 86416, Note_on_c, 2, 63, 53
2, 86416, Note_on_c, 2, 56, 31
2, 86416, Note_on_c, 2, 51, 51
2, 86512, Control_c, 2, 64, 127
2, 86572, Note_off_c, 2, 51, 0
2, 86596, Note_off_c, 2, 56, 0
2, 86616, Note_off_c, 2, 63, 0
2, 86616, Note_off_c, 2, 60, 0
2, 86636, Note_off_c, 2, 41, 0
2, 86648, Note_off_c, 2, 68, 0
2, 86648, Control_c, 2, 123, 0
2, 86984, Control_c, 2, 64, 0
2, 87004, Note_on_c, 2, 59, 49
2, 87004, Note_on_c, 2, 64, 49
2, 87004, Note_on_c, 2, 67, 49
2, 87004, Note_on_c, 2, 62, 57
2, 87020, Note_on_c, 2, 40, 54
2, 87020, Note_on_c, 2, 55, 36
2, 87100, Control_c, 2, 64, 127
2, 87152, Note_off_c, 2, 55, 0
2, 87244, Note_off_c, 2, 59, 0
2, 87316, Note_off_c, 2, 62, 0
2, 87316, Note_off_c, 2, 64, 0
2, 87348, Note_off_c, 2, 67, 0
2, 87588, Note_on_c, 2, 55, 54
2, 87620, Note_on_c, 2, 40, 0
2, 87640, Note_on_c, 2, 55, 0
2, 87640, Control_c, 2, 123, 0
2, 87968, Note_on_c, 2, 65, 64
2, 88164, Control_c, 2, 64, 0
2, 88172, Note_on_c, 2, 71, 71
2, 88172, Note_on_c, 2, 68, 73
2, 88188, Note_on_c, 2, 53, 63
2, 88188, Note_on_c, 2, 59, 51
2, 88188, Note_on_c, 2, 44, 54
2, 88264, Note_on_c, 2, 65, 0
2, 88280, Control_c, 2, 64, 127
2, 88288, Note_off_c, 2, 44, 0
2, 88300, Note_off_c, 2, 53, 0
2, 88328, Note_off_c, 2, 59, 0
2, 88340, Note_off_c, 2, 68, 0
2, 88380, Note_off_c, 2, 71, 0
2, 88380, Note_on_c, 2, 65, 40
2, 88412, Note_on_c, 2, 65, 0
2, 88412, Control_c, 2, 123, 0
2, 88540, Note_on_c, 2, 69, 64
2, 88540, Note_on_c, 2, 72, 45
2, 88720, Control_c, 2, 64, 0
2, 88772, Note_on_c, 2, 45, 49
2, 88772, Note_on_c, 2, 60, 46
2, 88784, Note_on_c, 2, 55, 53
2, 88836, Control_c, 2, 64, 127
2, 88860, Note_off_c, 2, 69, 0
2, 88880, Note_off_c, 2, 72, 0
2, 88920, Note_off_c, 2, 45, 0
2, 88952, Note_off_c, 2, 55, 0
2, 88960, Note_off_c, 2, 60, 0
2, 88964, Control_c, 2, 123, 0
2, 89152, Note_on_c, 2, 67, 65
2, 89320, Control_c, 2, 64, 0
2, 89364, Note_on_c, 2, 76, 53
2, 89364, Note_on_c, 2, 70, 65
2, 89364, Note_on_c, 2, 61, 43
2, 89364, Note_on_c, 2, 49, 56
2, 89376, Note_on_c, 2, 57, 49
2, 89388, Note_on_c, 2, 67, 0
2, 89448, Control_c, 2, 64, 127
2, 89528, Note_off_c, 2, 70, 0
2, 89548, Note_off_c, 2, 76, 0
2, 89560, Note_on_c, 2, 65, 64
2, 89580, Note_on_c, 2, 61, 0
2, 89592, Note_on_c, 2, 65, 0
2, 89624, Note_on_c, 2, 57, 0
2, 89656, Note_on_c, 2, 49, 0
2, 89656, Control_c, 2, 123, 0
2, 89732, Note_on_c, 2, 69, 60
2, 89744, Note_on_c, 2, 74, 54
2, 89744, Note_on_c, 2, 77, 53
2, 89856, Control_c, 2, 64, 0
2, 89940, Note_on_c, 2, 57, 56
2, 89940, Note_on_c, 2, 50, 57
2, 89940, Note_on_c, 2, 60, 48
2, 89976, Control_c, 2, 64, 127
2, 90016, Note_off_c, 2, 77, 0
2, 90040, Note_off_c, 2, 74, 0
2, 90052, Note_off_c, 2, 60, 0
2, 90052, Note_off_c, 2, 69, 0
2, 90064, Note_off_c, 2, 57, 0
2, 90104, Note_off_c, 2, 50, 0
2, 90104, Control_c, 2, 123, 0
2, 90524, Control_c, 2, 64, 0
2, 90544, Note_on_c, 2, 67, 46
2, 90556, Note_on_c, 2, 64, 44
2, 90556, Note_on_c, 2, 59, 54
2, 90568, Note_on_c, 2, 53, 46
2, 90568, Note_on_c, 2, 62, 60
2, 90568, Note_on_c, 2, 43, 39
2, 90584, Note_on_c, 2, 56, 25
2, 90704, Control_c, 2, 64, 127
2, 90788, Note_off_c, 2, 56, 0
2, 90852, Note_off_c, 2, 62, 0
2, 90864, Note_off_c, 2, 67, 0
2, 90896, Note_off_c, 2, 59, 0
2, 90896, Note_off_c, 2, 64, 0
2, 91104, Note_on_c, 2, 59, 62
2, 91168, Note_on_c, 2, 59, 0
2, 91176, Note_on_c, 2, 53, 0
2, 91248, Note_on_c, 2, 43, 0
2, 91248, Control_c, 2, 123, 0
2, 91468, Note_on_c, 2, 67, 73
2, 91616, Note_on_c, 2, 67, 0
2, 91616, Control_c, 2, 123, 0
2, 91676, Note_on_c, 2, 36, 62
2, 91676, Note_on_c, 2, 52, 54
2, 91676, Control_c, 2, 64, 0
2, 91688, Note_on_c, 2, 67, 71
2, 91688, Note_on_c, 2, 71, 74
2, 91688, Note_on_c, 2, 62, 65
2, 91700, Note_on_c, 2, 64, 68
2, 91792, Control_c, 2, 64, 127
2, 91976, Note_off_c, 2, 52, 0
2, 92060, Note_off_c, 2, 71, 0
2, 92236, Note_off_c, 2, 62, 0
2, 92236, Note_on_c, 2, 52, 66
2, 92256, Note_on_c, 2, 36, 0
2, 92280, Note_on_c, 2, 52, 0
2, 92516, Note_on_c, 2, 64, 0
2, 92584, Note_on_c, 2, 67, 0
2, 92584, Note_on_c, 2, 72, 49
2, 92636, Note_on_c, 2, 72, 0
2, 92636, Control_c, 2, 123, 0
2, 92812, Control_c, 2, 64, 0
2, 92820, Note_on_c, 2, 60, 50
2, 92820, Note_on_c, 2, 67, 61
2, 92820, Note_on_c, 2, 74, 61
2, 92824, Note_on_c, 2, 71, 56
2, 92832, Note_on_c, 2, 64, 47
2, 92832, Note_on_c, 2, 55, 44
2, 92832, Note_on_c, 2, 45, 42
2, 92920, Control_c, 2, 64, 127
2, 92928, Note_off_c, 2, 64, 0
2, 92952, Note_off_c, 2, 45, 0
2, 92952, Note_off_c, 2, 67, 0
2, 92972, Note_off_c, 2, 55, 0
2, 92984, Note_off_c, 2, 71, 0
2, 93004, Note_off_c, 2, 74, 0
2, 93016, Note_off_c, 2, 60, 0
2, 93016, Control_c, 2, 123, 0
2, 93392, Note_on_c, 2, 64, 70
2, 93440, Note_on_c, 2, 64, 0
2, 93440, Control_c, 2, 123, 0
2, 93576, Note_on_c, 2, 86, 71
2, 93596, Note_on_c, 2, 79, 45
2, 93596, Note_on_c, 2, 74, 52
2, 93620, Note_on_c, 2, 79, 0
2, 93628, Note_on_c, 2, 74, 0
2, 93652, Note_on_c, 2, 86, 0
2, 93652, Control_c, 2, 123, 0
2, 93748, Note_on_c, 2, 87, 68
2, 93748, Note_on_c, 2, 75, 68
2, 93812, Note_on_c, 2, 75, 0
2, 93832, Note_on_c, 2, 87, 0
2, 93832, Control_c, 2, 123, 0
2, 93940, Control_c, 2, 64, 0
2, 93952, Note_on_c, 2, 76, 56
2, 93952, Note_on_c, 2, 50, 62
2, 93952, Note_on_c, 2, 57, 54
2, 93952, Note_on_c, 2, 81, 66
2, 93952, Note_on_c, 2, 60, 53
2, 93952, Note_on_c, 2, 84, 65
2, 93952, Note_on_c, 2, 88, 71
2, 93956, Note_on_c, 2, 64, 56
2, 94096, Control_c, 2, 64, 127
2, 94216, Note_off_c, 2, 88, 0
2, 94228, Note_off_c, 2, 81, 0
2, 94248, Note_off_c, 2, 84, 0
2, 94260, Note_off_c, 2, 76, 0
2, 94272, Note_off_c, 2, 64, 0
2, 94352, Note_on_c, 2, 83, 61
2, 94364, Note_on_c, 2, 86, 61
2, 94364, Note_on_c, 2, 74, 53
2, 94420, Note_on_c, 2, 74, 0
2, 94420, Note_on_c, 2, 86, 0
2, 94420, Note_on_c, 2, 83, 0
2, 94552, Note_on_c, 2, 64, 71
2, 94624, Note_on_c, 2, 50, 0
2, 94648, Note_on_c, 2, 64, 0
2, 94688, Note_on_c, 2, 60, 0
2, 94708, Note_on_c, 2, 57, 0
2, 94708, Control_c, 2, 123, 0
2, 94720, Note_on_c, 2, 72, 58
2, 94732, Note_on_c, 2, 81, 56
2, 94732, Note_on_c, 2, 84, 54
2, 94756, Note_on_c, 2, 84, 0
2, 94764, Note_on_c, 2, 81, 0
2, 94784, Note_on_c, 2, 72, 0
2, 94784, Control_c, 2, 123, 0
2, 95064, Note_on_c, 2, 74, 49
2, 95064, Control_c, 2, 64, 0
2, 95076, Note_on_c, 2, 83, 39
2, 95076, Note_on_c, 2, 53, 43
2, 95076, Note_on_c, 2, 64, 48
2, 95076, Note_on_c, 2, 71, 34
2, 95076, Note_on_c, 2, 79, 51
2, 95076, Note_on_c, 2, 59, 55
2, 95184, Control_c, 2, 64, 127
2, 95300, Note_off_c, 2, 83, 0
2, 95376, Note_off_c, 2, 79, 0
2, 95384, Note_off_c, 2, 59, 0
2, 95396, Note_off_c, 2, 74, 0
2, 95448, Note_off_c, 2, 71, 0
2, 95500, Note_off_c, 2, 64, 0
2, 95692, Note_on_c, 2, 59, 49
2, 95724, Note_on_c, 2, 59, 0
2, 95752, Note_on_c, 2, 53, 0
2, 95756, Control_c, 2, 123, 0
2, 96264, Note_on_c, 2, 57, 56
2, 96264, Note_on_c, 2, 47, 53
2, 96264, Note_on_c, 2, 73, 69
2, 96264, Note_on_c, 2, 76, 58
2, 96264, Note_on_c, 2, 62, 62
2, 96264, Note_on_c, 2, 69, 68
2, 96276, Note_on_c, 2, 64, 63
2, 96276, Control_c, 2, 64, 0
2, 96448, Control_c, 2, 64, 127
2, 96520, Note_off_c, 2, 73, 0
2, 96532, Note_off_c, 2, 69, 0
2, 96544, Note_off_c, 2, 76, 0
2, 96552, Note_off_c, 2, 62, 0
2, 96564, Note_off_c, 2, 64, 0
2, 96564, Note_off_c, 2, 57, 0
2, 96836, Note_on_c, 2, 56, 65
2, 96836, Note_on_c, 2, 70, 69
2, 96836, Note_on_c, 2, 65, 62
2, 96852, Note_on_c, 2, 62, 59
2, 96868, Control_c, 2, 64, 0
2, 96992, Control_c, 2, 64, 127
2, 97032, Note_off_c, 2, 47, 0
2, 97040, Note_on_c, 2, 52, 65
2, 97084, Note_on_c, 2, 62, 0
2, 97096, Note_on_c, 2, 56, 0
2, 97116, Note_on_c, 2, 70, 0
2, 97136, Note_on_c, 2, 65, 0
2, 97168, Note_on_c, 2, 52, 0
2, 97168, Control_c, 2, 123, 0
2, 97216, Note_on_c, 2, 71, 73
2, 97276, Note_on_c, 2, 71, 0
2, 97276, Control_c, 2, 123, 0
2, 97432, Note_on_c, 2, 68, 64
2, 97436, Note_on_c, 2, 65, 52
2, 97436, Note_on_c, 2, 56, 61
2, 97436, Note_on_c, 2, 75, 69
2, 97436, Note_on_c, 2, 61, 51
2, 97448, Note_on_c, 2, 46, 54
2, 97452, Control_c, 2, 64, 0
2, 97616, Control_c, 2, 64, 127
2, 97632, Note_off_c, 2, 75, 0
2, 97644, Note_off_c, 2, 68, 0
2, 97676, Note_off_c, 2, 65, 0
2, 97708, Note_off_c, 2, 61, 0
2, 97804, Note_off_c, 2, 56, 0
2, 97980, Note_on_c, 2, 65, 63
2, 97980, Note_on_c, 2, 69, 52
2, 97992, Note_on_c, 2, 55, 58
2, 97992, Note_on_c, 2, 61, 35
2, 97996, Control_c, 2, 64, 0
2, 98124, Control_c, 2, 64, 127
2, 98184, Note_on_c, 2, 51, 79
2, 98208, Note_on_c, 2, 46, 0
2, 98240, Note_on_c, 2, 55, 0
2, 98304, Note_on_c, 2, 61, 0
2, 98324, Note_on_c, 2, 69, 0
2, 98364, Note_on_c, 2, 70, 79
2, 98372, Note_on_c, 2, 65, 0
2, 98444, Note_on_c, 2, 70, 0
2, 98532, Note_on_c, 2, 51, 0
2, 98536, Control_c, 2, 123, 0
2, 98556, Control_c, 2, 64, 0
2, 98564, Note_on_c, 2, 74, 63
2, 98568, Note_on_c, 2, 45, 61
2, 98568, Note_on_c, 2, 71, 56
2, 98580, Note_on_c, 2, 67, 63
2, 98580, Note_on_c, 2, 64, 53
2, 98720, Control_c, 2, 64, 127
2, 98760, Note_on_c, 2, 55, 54
2, 98784, Note_on_c, 2, 71, 0
2, 98804, Note_on_c, 2, 67, 0
2, 98804, Note_on_c, 2, 74, 0
2, 98816, Note_on_c, 2, 45, 0
2, 98836, Note_on_c, 2, 64, 0
2, 98956, Note_on_c, 2, 60, 64
2, 98976, Note_on_c, 2, 55, 0
2, 99016, Note_on_c, 2, 60, 0
2, 99016, Control_c, 2, 123, 0
2, 99132, Note_on_c, 2, 68, 64
2, 99132, Note_on_c, 2, 60, 44
2, 99144, Note_on_c, 2, 54, 63
2, 99144, Note_on_c, 2, 64, 48
2, 99172, Control_c, 2, 64, 0
2, 99316, Control_c, 2, 64, 127
2, 99336, Note_on_c, 2, 50, 66
2, 99356, Note_on_c, 2, 54, 0
2, 99480, Note_on_c, 2, 60, 0
2, 99492, Note_on_c, 2, 64, 0
2, 99512, Note_on_c, 2, 69, 69
2, 99536, Note_on_c, 2, 68, 0
2, 99564, Note_on_c, 2, 69, 0
2, 99644, Note_on_c, 2, 50, 0
2, 99644, Control_c, 2, 123, 0
2, 99704, Note_on_c, 2, 44, 61
2, 99712, Control_c, 2, 64, 0
2, 99724, Note_on_c, 2, 73, 65
2, 99848, Control_c, 2, 64, 127
2, 99904, Note_on_c, 2, 54, 69
2, 99904, Note_on_c, 2, 63, 65
2, 100032, Note_on_c, 2, 63, 0
2, 100100, Note_on_c, 2, 59, 46
2, 100112, Note_on_c, 2, 66, 73
2, 100184, Note_on_c, 2, 54, 0
2, 100240, Note_on_c, 2, 66, 0
2, 100272, Control_c, 2, 64, 0
2, 100292, Note_on_c, 2, 63, 56
2, 100292, Note_on_c, 2, 67, 63
2, 100292, Note_on_c, 2, 53, 64
2, 100424, Control_c, 2, 64, 127
2, 100476, Note_off_c, 2, 73, 0
2, 100488, Note_on_c, 2, 49, 61
2, 100512, Note_on_c, 2, 67, 0
2, 100512, Note_on_c, 2, 44, 0
2, 100520, Note_on_c, 2, 59, 0
2, 100532, Note_on_c, 2, 53, 0
2, 100552, Note_on_c, 2, 49, 0
2, 100584, Note_on_c, 2, 63, 0
2, 100588, Control_c, 2, 123, 0
2, 100672, Note_on_c, 2, 68, 56
2, 100692, Note_on_c, 2, 68, 0
2, 100696, Control_c, 2, 123, 0
2, 100860, Control_c, 2, 64, 0
2, 100868, Note_on_c, 2, 69, 55
2, 100880, Note_on_c, 2, 62, 46
2, 100892, Note_on_c, 2, 36, 52
2, 100892, Note_on_c, 2, 52, 41
2, 100892, Note_on_c, 2, 64, 54
2, 101024, Control_c, 2, 64, 127
2, 101052, Note_off_c, 2, 36, 0
2, 101124, Note_off_c, 2, 52, 0
2, 101204, Note_off_c, 2, 62, 0
2, 101224, Note_off_c, 2, 64, 0
2, 101252, Note_off_c, 2, 69, 0
2, 101256, Control_c, 2, 123, 0
2, 101468, Note_on_c, 2, 55, 62
2, 101488, Note_on_c, 2, 55, 0
2, 101488, Control_c, 2, 123, 0
2, 101652, Note_on_c, 2, 68, 68
2, 101652, Note_on_c, 2, 71, 64
2, 101764, Note_on_c, 2, 71, 0
2, 101764, Note_on_c, 2, 68, 0
2, 101764, Control_c, 2, 123, 0
2, 101824, Note_on_c, 2, 74, 66
2, 101924, Note_on_c, 2, 74, 0
2, 101924, Control_c, 2, 123, 0
2, 101992, Control_c, 2, 64, 0
2, 102012, Note_on_c, 2, 72, 38
2, 102024, Note_on_c, 2, 60, 41
2, 102024, Note_on_c, 2, 55, 44
2, 102024, Note_on_c, 2, 67, 53
2, 102036, Note_on_c, 2, 64, 44
2, 102052, Note_on_c, 2, 45, 25
2, 102148, Control_c, 2, 64, 127
2, 102272, Note_off_c, 2, 64, 0
2, 102336, Note_off_c, 2, 60, 0
2, 102356, Note_off_c, 2, 67, 0
2, 102436, Note_off_c, 2, 72, 0
2, 102616, Note_on_c, 2, 60, 46
2, 102656, Note_on_c, 2, 55, 0
2, 102668, Note_on_c, 2, 45, 0
2, 102716, Note_on_c, 2, 60, 0
2, 102720, Control_c, 2, 123, 0
2, 103012, Note_on_c, 2, 76, 53
2, 103092, Note_on_c, 2, 76, 0
2, 103092, Control_c, 2, 123, 0
2, 103220, Note_on_c, 2, 50, 62
2, 103224, Note_on_c, 2, 76, 62
2, 103224, Note_on_c, 2, 60, 59
2, 103224, Note_on_c, 2, 64, 59
2, 103224, Note_on_c, 2, 79, 77
2, 103224, Control_c, 2, 64, 0
2, 103236, Note_on_c, 2, 72, 54
2, 103236, Note_on_c, 2, 69, 61
2, 103236, Note_on_c, 2, 57, 48
2, 103408, Control_c, 2, 64, 127
2, 103560, Note_off_c, 2, 64, 0
2, 103644, Note_off_c, 2, 76, 0
2, 103656, Note_off_c, 2, 72, 0
2, 103816, Note_on_c, 2, 64, 56
2, 103840, Note_on_c, 2, 60, 0
2, 103848, Note_on_c, 2, 64, 0
2, 103848, Note_on_c, 2, 57, 0
2, 103880, Note_on_c, 2, 50, 0
2, 103952, Note_on_c, 2, 79, 0
2, 104116, Note_on_c, 2, 69, 0
2, 104116, Control_c, 2, 123, 0
2, 104164, Note_on_c, 2, 78, 74
2, 104216, Note_on_c, 2, 78, 0
2, 104216, Control_c, 2, 123, 0
2, 104392, Note_on_c, 2, 77, 64
2, 104392, Note_on_c, 2, 72, 41
2, 104404, Note_on_c, 2, 69, 62
2, 104404, Note_on_c, 2, 60, 53
2, 104404, Note_on_c, 2, 50, 57
2, 104404, Control_c, 2, 64, 0
2, 104416, Note_on_c, 2, 65, 54
2, 104528, Control_c, 2, 64, 127
2, 104568, Note_off_c, 2, 60, 0
2, 104592, Note_off_c, 2, 77, 0
2, 104600, Note_off_c, 2, 50, 0
2, 104612, Note_off_c, 2, 69, 0
2, 104624, Note_off_c, 2, 72, 0
2, 104632, Note_off_c, 2, 65, 0
2, 104632, Control_c, 2, 123, 0
2, 104900, Note_on_c, 2, 43, 47
2, 104944, Note_on_c, 2, 59, 31
2, 104944, Note_on_c, 2, 53, 47
2, 104968, Note_on_c, 2, 64, 43
2, 104968, Control_c, 2, 64, 0
2, 104980, Note_on_c, 2, 68, 64
2, 104992, Note_on_c, 2, 71, 71
2, 105100, Control_c, 2, 64, 127
2, 105140, Note_off_c, 2, 53, 0
2, 105184, Note_off_c, 2, 59, 0
2, 105196, Note_off_c, 2, 43, 0
2, 105204, Note_off_c, 2, 64, 0
2, 105224, Note_off_c, 2, 71, 0
2, 105224, Note_off_c, 2, 68, 0
2, 105228, Control_c, 2, 123, 0
2, 105496, Control_c, 2, 64, 0
2, 105524, Note_on_c, 2, 72, 25
2, 105536, Note_on_c, 2, 36, 53
2, 105536, Note_on_c, 2, 62, 40
2, 105536, Note_on_c, 2, 52, 40
2, 105536, Note_on_c, 2, 67, 53
2, 105552, Note_on_c, 2, 64, 45
2, 105620, Control_c, 2, 64, 127
2, 105672, Note_off_c, 2, 36, 0
2, 105776, Note_off_c, 2, 52, 0
2, 105828, Note_off_c, 2, 62, 0
2, 105848, Note_off_c, 2, 64, 0
2, 105876, Note_off_c, 2, 67, 0
2, 105956, Note_off_c, 2, 72, 0
2, 105956, Control_c, 2, 123, 0
2, 106100, Note_on_c, 2, 57, 52
2, 106152, Note_on_c, 2, 57, 0
2, 106152, Control_c, 2, 123, 0
2, 106660, Note_on_c, 2, 63, 65
2, 106660, Note_on_c, 2, 70, 63
2, 106672, Note_on_c, 2, 53, 52
2, 106672, Note_on_c, 2, 43, 43
2, 106672, Note_on_c, 2, 59, 44
2, 106700, Control_c, 2, 64, 0
2, 106832, Control_c, 2, 64, 127
2, 107016, Note_off_c, 2, 53, 0
2, 107028, Note_off_c, 2, 70, 0
2, 107060, Note_on_c, 2, 68, 63
2, 107192, Note_on_c, 2, 68, 0
2, 107192, Note_on_c, 2, 63, 0
2, 107264, Note_on_c, 2, 53, 53
2, 107328, Note_on_c, 2, 53, 0
2, 107396, Note_on_c, 2, 59, 0
2, 107408, Note_on_c, 2, 43, 0
2, 107408, Control_c, 2, 123, 0
2, 107448, Note_on_c, 2, 67, 61
2, 107556, Note_on_c, 2, 67, 0
2, 107556, Control_c, 2, 123, 0
2, 107616, Note_on_c, 2, 65, 65
2, 107664, Note_on_c, 2, 65, 0
2, 107664, Control_c, 2, 123, 0
2, 107812, Note_on_c, 2, 64, 60
2, 107812, Control_c, 2, 64, 0
2, 107824, Note_on_c, 2, 57, 42
2, 107824, Note_on_c, 2, 62, 56
2, 107824, Note_on_c, 2, 36, 53
2, 107824, Note_on_c, 2, 59, 54
2, 107840, Note_on_c, 2, 52, 39
2, 107972, Control_c, 2, 64, 127
2, 108156, Note_off_c, 2, 52, 0
2, 108404, Note_on_c, 2, 52, 57
2, 108416, Note_on_c, 2, 57, 0
2, 108504, Note_on_c, 2, 36, 0
2, 108676, Note_on_c, 2, 59, 0
2, 108696, Note_on_c, 2, 62, 0
2, 108716, Note_on_c, 2, 64, 0
2, 108716, Note_on_c, 2, 57, 66
2, 108808, Note_on_c, 2, 52, 0
2, 108976, Note_on_c, 2, 41, 53
2, 108976, Control_c, 2, 64, 0
2, 109004, Note_on_c, 2, 64, 63
2, 109008, Note_on_c, 2, 60, 59
2, 109072, Control_c, 2, 64, 127
2, 109092, Note_off_c, 2, 57, 0
2, 109124, Note_off_c, 2, 60, 0
2, 109124, Note_on_c, 2, 48, 57
2, 109144, Note_on_c, 2, 64, 0
2, 109184, Note_on_c, 2, 41, 0
2, 109276, Note_on_c, 2, 48, 0
2, 109276, Note_on_c, 2, 57, 59
2, 109324, Note_on_c, 2, 57, 0
2, 109324, Control_c, 2, 123, 0
2, 109412, Note_on_c, 2, 64, 77
2, 109424, Note_on_c, 2, 60, 66
2, 109496, Note_on_c, 2, 64, 0
2, 109536, Note_on_c, 2, 60, 0
2, 109536, Control_c, 2, 123, 0
2, 109568, Note_on_c, 2, 64, 69
2, 109568, Note_on_c, 2, 67, 80
2, 109648, Note_on_c, 2, 64, 0
2, 109668, Note_on_c, 2, 67, 0
2, 109672, Control_c, 2, 123, 0
2, 109692, Note_on_c, 2, 60, 68
2, 109712, Note_on_c, 2, 72, 66
2, 109812, Note_on_c, 2, 60, 0
2, 109824, Note_on_c, 2, 72, 0
2, 109824, Note_on_c, 2, 57, 63
2, 109832, Note_on_c, 2, 76, 74
2, 109848, Note_on_c, 2, 57, 0
2, 109944, Note_on_c, 2, 76, 0
2, 109948, Control_c, 2, 123, 0
2, 109976, Note_on_c, 2, 74, 76
2, 110084, Control_c, 2, 64, 0
2, 110112, Note_on_c, 2, 40, 65
2, 110208, Control_c, 2, 64, 127
2, 110236, Note_on_c, 2, 47, 64
2, 110328, Note_on_c, 2, 40, 0
2, 110388, Note_on_c, 2, 47, 0
2, 110388, Note_on_c, 2, 55, 73
2, 110440, Note_on_c, 2, 55, 0
2, 110540, Note_on_c, 2, 59, 76
2, 110660, Note_on_c, 2, 59, 0
2, 110688, Note_on_c, 2, 62, 88
2, 110720, Note_on_c, 2, 62, 0
2, 110792, Note_on_c, 2, 74, 0
2, 110792, Control_c, 2, 123, 0
2, 110820, Note_on_c, 2, 67, 77
2, 110920, Note_on_c, 2, 67, 0
2, 110920, Control_c, 2, 123, 0
2, 110948, Note_on_c, 2, 59, 70
2, 110972, Note_on_c, 2, 71, 86
2, 111000, Note_on_c, 2, 59, 0
2, 111060, Note_on_c, 2, 71, 0
2, 111064, Control_c, 2, 123, 0
2, 111092, Note_on_c, 2, 74, 74
2, 111160, Note_on_c, 2, 74, 0
2, 111160, Control_c, 2, 123, 0
2, 111240, Note_on_c, 2, 61, 63
2, 111240, Note_on_c, 2, 55, 64
2, 111244, Control_c, 2, 64, 0
2, 111252, Note_on_c, 2, 73, 68
2, 111252, Note_on_c, 2, 76, 58
2, 111268, Note_on_c, 2, 67, 73
2, 111268, Note_on_c, 2, 71, 57
2, 111368, Control_c, 2, 64, 127
2, 111432, Note_off_c, 2, 73, 0
2, 111452, Note_off_c, 2, 71, 0
2, 111464, Note_off_c, 2, 67, 0
2, 111472, Note_off_c, 2, 76, 0
2, 111532, Note_on_c, 2, 78, 88
2, 111584, Note_on_c, 2, 78, 0
2, 111784, Note_on_c, 2, 59, 64
2, 111812, Note_on_c, 2, 79, 77
2, 111880, Note_on_c, 2, 79, 0
2, 111900, Note_on_c, 2, 61, 0
2, 111940, Note_on_c, 2, 59, 0
2, 111952, Note_on_c, 2, 55, 0
2, 111952, Control_c, 2, 123, 0
2, 112084, Note_on_c, 2, 83, 53
2, 112108, Note_on_c, 2, 83, 0
2, 112108, Control_c, 2, 123, 0
2, 112384, Note_on_c, 2, 78, 65
2, 112384, Note_on_c, 2, 74, 54
2, 112388, Note_on_c, 2, 81, 59
2, 112388, Control_c, 2, 64, 0
2, 112400, Note_on_c, 2, 40, 40
2, 112400, Note_on_c, 2, 69, 33
2, 112400, Note_on_c, 2, 55, 42
2, 112400, Note_on_c, 2, 47, 54
2, 112496, Control_c, 2, 64, 127
2, 112548, Note_off_c, 2, 47, 0
2, 112548, Note_off_c, 2, 40, 0
2, 112612, Note_off_c, 2, 55, 0
2, 112652, Note_off_c, 2, 81, 0
2, 112684, Note_off_c, 2, 78, 0
2, 112696, Note_off_c, 2, 74, 0
2, 112764, Note_off_c, 2, 69, 0
2, 112764, Control_c, 2, 123, 0
2, 112992, Note_on_c, 2, 59, 59
2, 113168, Note_on_c, 2, 59, 0
2, 113172, Control_c, 2, 123, 0
2, 113248, Note_on_c, 2, 76, 61
2, 113328, Note_on_c, 2, 76, 0
2, 113328, Control_c, 2, 123, 0
2, 113548, Control_c, 2, 64, 0
2, 113556, Note_on_c, 2, 71, 58
2, 113560, Note_on_c, 2, 78, 57
2, 113568, Note_on_c, 2, 66, 40
2, 113572, Note_on_c, 2, 55, 54
2, 113572, Note_on_c, 2, 75, 53
2, 113572, Note_on_c, 2, 45, 46
2, 113656, Control_c, 2, 64, 127
2, 113684, Note_off_c, 2, 45, 0
2, 113708, Note_off_c, 2, 75, 0
2, 113720, Note_off_c, 2, 55, 0
2, 113720, Note_off_c, 2, 66, 0
2, 113720, Note_off_c, 2, 71, 0
2, 113752, Note_off_c, 2, 78, 0
2, 113752, Control_c, 2, 123, 0
2, 114164, Note_on_c, 2, 55, 39
2, 114164, Note_on_c, 2, 76, 36
2, 114172, Note_on_c, 2, 61, 54
2, 114176, Note_on_c, 2, 73, 53
2, 114176, Note_on_c, 2, 71, 50
2, 114176, Note_on_c, 2, 67, 44
2, 114264, Note_on_c, 2, 61, 0
2, 114268, Note_on_c, 2, 67, 0
2, 114276, Note_on_c, 2, 71, 0
2, 114288, Note_on_c, 2, 73, 0
2, 114300, Note_on_c, 2, 55, 0
2, 114312, Note_on_c, 2, 76, 0
2, 114312, Control_c, 2, 123, 0
2, 114752, Note_on_c, 2, 42, 74
2, 114760, Note_on_c, 2, 76, 52
2, 114760, Note_on_c, 2, 81, 68
2, 114764, Control_c, 2, 64, 0
2, 114776, Note_on_c, 2, 73, 57
2, 114776, Note_on_c, 2, 69, 46
2, 114948, Control_c, 2, 64, 127
2, 115060, Note_on_c, 2, 49, 73
2, 115220, Note_on_c, 2, 81, 0
2, 115324, Note_on_c, 2, 73, 0
2, 115324, Note_on_c, 2, 76, 0
2, 115336, Note_on_c, 2, 49, 0
2, 115336, Note_on_c, 2, 50, 74
2, 115360, Note_on_c, 2, 42, 0
2, 115380, Note_on_c, 2, 69, 0
2, 115612, Note_on_c, 2, 57, 76
2, 115644, Note_on_c, 2, 50, 0
2, 115692, Note_on_c, 2, 57, 0
2, 115692, Control_c, 2, 123, 0
2, 115904, Note_on_c, 2, 43, 59
2, 115908, Control_c, 2, 64, 0
2, 115916, Note_on_c, 2, 66, 68
2, 115916, Note_on_c, 2, 59, 53
2, 115928, Note_on_c, 2, 62, 66
2, 116036, Control_c, 2, 64, 127
2, 116076, Note_off_c, 2, 62, 0
2, 116076, Note_off_c, 2, 59, 0
2, 116096, Note_off_c, 2, 66, 0
2, 116204, Note_on_c, 2, 50, 63
2, 116344, Note_on_c, 2, 43, 0
2, 116480, Note_on_c, 2, 50, 0
2, 116480, Note_on_c, 2, 69, 68
2, 116480, Note_on_c, 2, 59, 73
2, 116740, Note_on_c, 2, 50, 66
2, 116752, Note_on_c, 2, 81, 76
2, 116764, Note_on_c, 2, 78, 86
2, 116776, Note_on_c, 2, 50, 0
2, 116796, Note_on_c, 2, 59, 0
2, 116936, Note_on_c, 2, 78, 0
2, 117056, Note_on_c, 2, 76, 61
2, 117060, Note_on_c, 2, 54, 70
2, 117072, Control_c, 2, 64, 0
2, 117196, Control_c, 2, 64, 127
2, 117324, Note_on_c, 2, 59, 61
2, 117408, Note_on_c, 2, 69, 0
2, 117600, Note_on_c, 2, 76, 0
2, 117600, Note_on_c, 2, 61, 69
2, 117624, Note_on_c, 2, 73, 73
2, 117668, Note_on_c, 2, 81, 0
2, 117864, Note_on_c, 2, 73, 0
2, 117884, Note_on_c, 2, 59, 0
2, 117884, Note_on_c, 2, 76, 59
2, 117896, Note_on_c, 2, 64, 68
2, 117948, Note_on_c, 2, 54, 0
2, 117960, Note_on_c, 2, 61, 0
2, 117972, Note_on_c, 2, 64, 0
2, 118116, Note_on_c, 2, 76, 0
2, 118120, Control_c, 2, 123, 0
2, 118168, Note_on_c, 2, 52, 64
2, 118176, Note_on_c, 2, 79, 60
2, 118176, Note_on_c, 2, 74, 55
2, 118180, Control_c, 2, 64, 0
2, 118284, Control_c, 2, 64, 127
2, 118332, Note_off_c, 2, 74, 0
2, 118344, Note_off_c, 2, 79, 0
2, 118364, Note_on_c, 2, 76, 53
2, 118376, Note_on_c, 2, 59, 64
2, 118376, Note_on_c, 2, 71, 54
2, 118420, Note_on_c, 2, 71, 0
2, 118440, Note_on_c, 2, 76, 0
2, 118580, Note_on_c, 2, 76, 53
2, 118580, Note_on_c, 2, 71, 65
2, 118724, Note_on_c, 2, 71, 0
2, 118736, Note_on_c, 2, 76, 0
2, 118776, Note_on_c, 2, 59, 0
2, 118776, Note_on_c, 2, 67, 69
2, 118776, Note_on_c, 2, 62, 74
2, 118792, Note_on_c, 2, 72, 22
2, 118792, Note_on_c, 2, 74, 25
2, 118824, Note_on_c, 2, 74, 0
2, 118836, Note_on_c, 2, 72, 0
2, 118836, Note_on_c, 2, 67, 0
2, 118888, Note_on_c, 2, 62, 0
2, 118956, Note_on_c, 2, 59, 68
2, 118980, Note_on_c, 2, 71, 59
2, 119044, Note_on_c, 2, 71, 0
2, 119144, Note_on_c, 2, 59, 0
2, 119144, Note_on_c, 2, 55, 66
2, 119152, Note_on_c, 2, 52, 0
2, 119164, Note_on_c, 2, 55, 0
2, 119164, Note_on_c, 2, 64, 55
2, 119188, Note_on_c, 2, 64, 0
2, 119188, Control_c, 2, 123, 0
2, 119352, Note_on_c, 2, 69, 56
2, 119352, Note_on_c, 2, 38, 62
2, 119368, Note_on_c, 2, 65, 60
2, 119372, Control_c, 2, 64, 0
2, 119500, Control_c, 2, 64, 127
2, 119520, Note_off_c, 2, 65, 0
2, 119540, Note_on_c, 2, 67, 68
2, 119540, Note_on_c, 2, 60, 53
2, 119552, Note_on_c, 2, 69, 0
2, 119564, Note_on_c, 2, 45, 53
2, 119588, Note_on_c, 2, 60, 0
2, 119588, Note_on_c, 2, 38, 0
2, 119608, Note_on_c, 2, 67, 0
2, 119716, Note_on_c, 2, 45, 0
2, 119716, Control_c, 2, 123, 0
2, 119748, Note_on_c, 2, 53, 63
2, 119796, Note_on_c, 2, 53, 0
2, 119800, Control_c, 2, 123, 0
2, 119924, Note_on_c, 2, 57, 64
2, 119956, Note_on_c, 2, 64, 64
2, 120084, Note_on_c, 2, 64, 0
2, 120096, Note_on_c, 2, 57, 0
2, 120096, Control_c, 2, 123, 0
2, 120116, Note_on_c, 2, 60, 63
2, 120128, Note_on_c, 2, 65, 77
2, 120268, Note_on_c, 2, 65, 0
2, 120300, Note_on_c, 2, 57, 64
2, 120300, Note_on_c, 2, 69, 71
2, 120320, Note_on_c, 2, 60, 0
2, 120352, Note_on_c, 2, 57, 0
2, 120360, Note_on_c, 2, 69, 0
2, 120360, Control_c, 2, 123, 0
2, 120508, Note_on_c, 2, 50, 60
2, 120508, Note_on_c, 2, 73, 73
2, 120524, Note_on_c, 2, 70, 61
2, 120524, Note_on_c, 2, 67, 64
2, 120524, Note_on_c, 2, 58, 63
2, 120524, Note_on_c, 2, 61, 63
2, 120552, Control_c, 2, 64, 0
2, 120720, Control_c, 2, 64, 127
2, 120824, Note_off_c, 2, 67, 0
2, 120836, Note_off_c, 2, 70, 0
2, 120864, Note_off_c, 2, 73, 0
2, 120868, Note_off_c, 2, 61, 0
2, 121104, Note_on_c, 2, 61, 61
2, 121164, Note_on_c, 2, 58, 0
2, 121164, Note_on_c, 2, 50, 0
2, 121176, Note_on_c, 2, 61, 0
2, 121176, Control_c, 2, 123, 0
2, 121352, Note_on_c, 2, 79, 65
2, 121352, Note_on_c, 2, 70, 60
2, 121352, Note_on_c, 2, 73, 57
2, 121364, Note_on_c, 2, 76, 38
2, 121408, Note_on_c, 2, 76, 0
2, 121408, Note_on_c, 2, 73, 0
2, 121408, Note_on_c, 2, 70, 0
2, 121420, Note_on_c, 2, 79, 0
2, 121420, Control_c, 2, 123, 0
2, 121660, Note_on_c, 2, 76, 42
2, 121672, Note_on_c, 2, 72, 34
2, 121676, Control_c, 2, 64, 0
2, 121684, Note_on_c, 2, 50, 49
2, 121688, Note_on_c, 2, 65, 34
2, 121688, Note_on_c, 2, 60, 46
2, 121688, Note_on_c, 2, 69, 44
2, 121704, Note_on_c, 2, 64, 39
2, 121704, Note_on_c, 2, 57, 52
2, 121840, Control_c, 2, 64, 127
2, 122000, Note_off_c, 2, 60, 0
2, 122076, Note_off_c, 2, 64, 0
2, 122232, Note_off_c, 2, 57, 0
2, 122248, Note_on_c, 2, 60, 58
2, 122332, Note_on_c, 2, 65, 0
2, 122428, Note_on_c, 2, 76, 0
2, 122528, Note_on_c, 2, 69, 0
2, 122540, Note_on_c, 2, 72, 0
2, 122540, Note_on_c, 2, 65, 79
2, 122632, Note_on_c, 2, 65, 0
2, 122820, Note_on_c, 2, 76, 54
2, 122820, Note_on_c, 2, 72, 51
2, 122832, Note_on_c, 2, 69, 62
2, 122832, Note_on_c, 2, 57, 57
2, 122848, Note_on_c, 2, 65, 53
2, 122880, Note_on_c, 2, 60, 0
2, 122892, Note_on_c, 2, 69, 0
2, 122904, Note_on_c, 2, 50, 0
2, 122916, Note_on_c, 2, 65, 0
2, 122916, Note_on_c, 2, 57, 0
2, 122916, Note_on_c, 2, 72, 0
2, 122928, Note_on_c, 2, 76, 0
2, 122928, Control_c, 2, 123, 0
2, 123388, Control_c, 2, 64, 0
2, 123408, Note_on_c, 2, 41, 47
2, 123408, Note_on_c, 2, 74, 53
2, 123420, Note_on_c, 2, 57, 43
2, 123420, Note_on_c, 2, 67, 55
2, 123420, Note_on_c, 2, 71, 51
2, 123420, Note_on_c, 2, 62, 46
2, 123504, Control_c, 2, 64, 127
2, 123544, Note_off_c, 2, 62, 0
2, 123564, Note_off_c, 2, 57, 0
2, 123564, Note_off_c, 2, 41, 0
2, 123576, Note_off_c, 2, 67, 0
2, 123596, Note_off_c, 2, 71, 0
2, 123620, Note_off_c, 2, 74, 0
2, 123620, Control_c, 2, 123, 0
2, 124004, Control_c, 2, 64, 0
2, 124012, Note_on_c, 2, 40, 53
2, 124012, Note_on_c, 2, 81, 48
2, 124012, Note_on_c, 2, 78, 51
2, 124012, Note_on_c, 2, 69, 45
2, 124016, Note_on_c, 2, 55, 46
2, 124016, Note_on_c, 2, 74, 53
2, 124120, Control_c, 2, 64, 127
2, 124200, Note_off_c, 2, 40, 0
2, 124284, Note_off_c, 2, 81, 0
2, 124292, Note_off_c, 2, 55, 0
2, 124304, Note_off_c, 2, 78, 0
2, 124336, Note_off_c, 2, 74, 0
2, 124396, Note_off_c, 2, 69, 0
2, 124396, Control_c, 2, 123, 0
2, 124616, Note_on_c, 2, 59, 25
2, 124676, Note_on_c, 2, 59, 0
2, 124676, Control_c, 2, 123, 0
2, 125096, Note_on_c, 2, 45, 54
2, 125148, Note_on_c, 2, 55, 76
2, 125160, Note_on_c, 2, 61, 35
2, 125172, Note_on_c, 2, 63, 68
2, 125172, Control_c, 2, 64, 0
2, 125184, Note_on_c, 2, 66, 79
2, 125208, Note_on_c, 2, 71, 77
2, 125408, Control_c, 2, 64, 127
2, 125536, Note_off_c, 2, 55, 0
2, 125616, Note_off_c, 2, 61, 0
2, 125772, Note_off_c, 2, 71, 0
2, 125792, Note_on_c, 2, 55, 41
2, 125836, Note_on_c, 2, 45, 0
2, 125896, Note_on_c, 2, 63, 0
2, 125948, Note_on_c, 2, 55, 0
2, 126092, Note_on_c, 2, 66, 0
2, 126092, Control_c, 2, 123, 0
2, 126132, Note_on_c, 2, 71, 64
2, 126172, Note_on_c, 2, 71, 0
2, 126172, Control_c, 2, 123, 0
2, 126348, Control_c, 2, 64, 0
2, 126360, Note_on_c, 2, 69, 60
2, 126360, Note_on_c, 2, 74, 65
2, 126372, Note_on_c, 2, 52, 46
2, 126372, Note_on_c, 2, 42, 51
2, 126372, Note_on_c, 2, 57, 42
2, 126372, Note_on_c, 2, 66, 58
2, 126384, Note_on_c, 2, 64, 57
2, 126520, Control_c, 2, 64, 127
2, 126656, Note_off_c, 2, 57, 0
2, 126720, Note_off_c, 2, 42, 0
2, 126732, Note_off_c, 2, 74, 0
2, 126888, Note_off_c, 2, 64, 0
2, 126888, Note_off_c, 2, 66, 0
2, 126908, Note_on_c, 2, 74, 62
2, 126920, Note_on_c, 2, 57, 42
2, 126932, Note_on_c, 2, 69, 0
2, 126932, Note_on_c, 2, 64, 17
2, 126944, Note_on_c, 2, 52, 0
2, 126956, Note_on_c, 2, 74, 0
2, 126968, Note_on_c, 2, 57, 0
2, 126988, Note_on_c, 2, 64, 0
2, 126988, Control_c, 2, 123, 0
2, 127468, Control_c, 2, 64, 0
2, 127480, Note_on_c, 2, 53, 46
2, 127480, Note_on_c, 2, 43, 44
2, 127480, Note_on_c, 2, 67, 51
2, 127492, Note_on_c, 2, 57, 28
2, 127492, Note_on_c, 2, 60, 45
2, 127492, Note_on_c, 2, 65, 53
2, 127644, Control_c, 2, 64, 127
2, 127760, Note_off_c, 2, 60, 0
2, 127852, Note_off_c, 2, 53, 0
2, 127884, Note_off_c, 2, 65, 0
2, 127924, Note_off_c, 2, 67, 0
2, 128048, Note_off_c, 2, 57, 0
2, 128048, Note_on_c, 2, 60, 39
2, 128164, Note_on_c, 2, 43, 0
2, 128224, Note_on_c, 2, 64, 71
2, 128296, Note_on_c, 2, 60, 0
2, 128404, Note_on_c, 2, 67, 76
2, 128424, Note_on_c, 2, 64, 0
2, 128456, Note_on_c, 2, 67, 0
2, 128456, Control_c, 2, 123, 0
2, 128600, Note_on_c, 2, 71, 79
2, 128604, Control_c, 2, 64, 0
2, 128612, Note_on_c, 2, 62, 69
2, 128616, Note_on_c, 2, 36, 63
2, 128616, Note_on_c, 2, 52, 53
2, 128616, Note_on_c, 2, 67, 76
2, 128744, Control_c, 2, 64, 127
2, 128764, Note_off_c, 2, 36, 0
2, 128868, Note_off_c, 2, 67, 0
2, 128868, Note_off_c, 2, 52, 0
2, 128916, Note_off_c, 2, 71, 0
2, 129024, Note_off_c, 2, 62, 0
2, 129024, Control_c, 2, 123, 0
2, 129188, Note_on_c, 2, 55, 64
2, 129548, Note_on_c, 2, 72, 48
2, 129696, Note_on_c, 2, 72, 0
2, 129768, Note_on_c, 2, 69, 60
2, 129768, Control_c, 2, 64, 0
2, 129780, Note_on_c, 2, 45, 54
2, 129780, Note_on_c, 2, 60, 41
2, 129780, Note_on_c, 2, 64, 53
2, 129908, Control_c, 2, 64, 127
2, 130020, Note_off_c, 2, 55, 0
2, 130032, Note_off_c, 2, 64, 0
2, 130044, Note_off_c, 2, 69, 0
2, 130072, Note_off_c, 2, 60, 0
2, 130228, Note_on_c, 2, 47, 33
2, 130268, Note_on_c, 2, 45, 0
2, 130268, Note_on_c, 2, 48, 45
2, 130312, Note_on_c, 2, 47, 0
2, 130352, Note_on_c, 2, 61, 58
2, 130352, Note_on_c, 2, 49, 64
2, 130352, Note_on_c, 2, 64, 59
2, 130364, Note_on_c, 2, 48, 0
2, 130364, Note_on_c, 2, 58, 47
2, 130364, Note_on_c, 2, 55, 44
2, 130384, Control_c, 2, 64, 0
2, 130612, Control_c, 2, 64, 127
2, 130704, Note_off_c, 2, 55, 0
2, 130712, Note_off_c, 2, 49, 0
2, 130712, Note_on_c, 2, 50, 64
2, 130724, Note_on_c, 2, 65, 61
2, 130748, Note_on_c, 2, 58, 0
2, 130760, Note_on_c, 2, 61, 0
2, 130772, Note_on_c, 2, 64, 0
2, 130792, Note_on_c, 2, 65, 0
2, 130800, Note_on_c, 2, 50, 0
2, 130804, Control_c, 2, 123, 0
2, 130880, Note_on_c, 2, 51, 48
2, 130936, Control_c, 2, 64, 0
2, 130944, Note_off_c, 2, 51, 0
2, 130944, Note_on_c, 2, 57, 42
2, 130956, Note_on_c, 2, 67, 53
2, 130956, Note_on_c, 2, 62, 46
2, 130956, Note_on_c, 2, 60, 40
2, 130968, Note_on_c, 2, 52, 46
2, 131172, Control_c, 2, 64, 127
2, 131528, Note_on_c, 2, 38, 50
2, 131628, Note_on_c, 2, 38, 0
2, 131648, Note_on_c, 2, 52, 0
2, 131660, Note_on_c, 2, 57, 0
2, 131672, Note_on_c, 2, 60, 0
2, 131672, Note_on_c, 2, 62, 0
2, 132068, Note_on_c, 2, 64, 46
2, 132068, Note_on_c, 2, 43, 53
2, 132080, Note_on_c, 2, 59, 54
2, 132080, Note_on_c, 2, 53, 47
2, 132084, Control_c, 2, 64, 0
2, 132200, Control_c, 2, 64, 127
2, 132284, Note_off_c, 2, 53, 0
2, 132412, Note_off_c, 2, 59, 0
2, 132456, Note_off_c, 2, 64, 0
2, 132476, Note_off_c, 2, 67, 0
2, 132484, Note_off_c, 2, 43, 0
2, 132488, Control_c, 2, 123, 0
2, 132680, Note_on_c, 2, 59, 51
2, 132712, Note_on_c, 2, 59, 0
2, 132712, Control_c, 2, 123, 0
2, 132856, Note_on_c, 2, 72, 49
2, 132956, Note_on_c, 2, 72, 0
2, 132956, Control_c, 2, 123, 0
2, 133024, Note_on_c, 2, 73, 68
2, 133112, Note_on_c, 2, 73, 0
2, 133116, Control_c, 2, 123, 0
2, 133192, Control_c, 2, 64, 0
2, 133212, Note_on_c, 2, 74, 63
2, 133224, Note_on_c, 2, 69, 63
2, 133224, Note_on_c, 2, 57, 42
2, 133224, Note_on_c, 2, 65, 58
2, 133224, Note_on_c, 2, 62, 46
2, 133224, Note_on_c, 2, 47, 44
2, 133308, Control_c, 2, 64, 127
2, 133320, Note_off_c, 2, 62, 0
2, 133320, Note_off_c, 2, 57, 0
2, 133328, Note_off_c, 2, 47, 0
2, 133340, Note_off_c, 2, 69, 0
2, 133360, Note_off_c, 2, 65, 0
2, 133372, Note_off_c, 2, 74, 0
2, 133372, Control_c, 2, 123, 0
2, 133804, Control_c, 2, 64, 0
2, 133812, Note_on_c, 2, 76, 53
2, 133812, Note_on_c, 2, 40, 53
2, 133828, Note_on_c, 2, 67, 58
2, 133828, Note_on_c, 2, 72, 40
2, 133840, Note_on_c, 2, 62, 53
2, 133840, Note_on_c, 2, 56, 40
2, 133896, Note_on_c, 2, 40, 0
2, 133896, Control_c, 2, 64, 127
2, 133908, Note_off_c, 2, 72, 0
2, 133908, Note_off_c, 2, 67, 0
2, 133908, Note_off_c, 2, 76, 0
2, 133920, Note_off_c, 2, 56, 0
2, 133932, Note_off_c, 2, 62, 0
2, 133932, Control_c, 2, 123, 0
2, 134200, Note_on_c, 2, 72, 75
2, 134208, Note_on_c, 2, 61, 26
2, 134212, Note_on_c, 2, 46, 64
2, 134212, Note_on_c, 2, 56, 50
2, 134212, Note_on_c, 2, 68, 53
2, 134224, Note_on_c, 2, 65, 49
2, 134240, Control_c, 2, 64, 0
2, 134488, Control_c, 2, 64, 127
2, 134716, Note_off_c, 2, 68, 0
2, 134768, Note_off_c, 2, 61, 0
2, 134868, Note_off_c, 2, 65, 0
2, 134928, Note_off_c, 2, 72, 0
2, 134960, Note_off_c, 2, 56, 0
2, 134972, Note_on_c, 2, 55, 74
2, 134996, Control_c, 2, 64, 0
2, 135104, Control_c, 2, 64, 127
2, 135152, Note_on_c, 2, 61, 63
2, 135152, Note_on_c, 2, 67, 73
2, 135164, Note_on_c, 2, 65, 65
2, 135248, Note_on_c, 2, 46, 0
2, 135260, Note_on_c, 2, 55, 0
2, 135272, Note_on_c, 2, 61, 0
2, 135320, Note_on_c, 2, 69, 70
2, 135332, Note_on_c, 2, 65, 0
2, 135352, Note_on_c, 2, 67, 0
2, 135492, Note_on_c, 2, 69, 0
2, 135492, Control_c, 2, 123, 0
2, 135512, Control_c, 2, 64, 0
2, 135532, Note_on_c, 2, 71, 69
2, 135544, Note_on_c, 2, 64, 68
2, 135544, Note_on_c, 2, 55, 53
2, 135544, Note_on_c, 2, 60, 52
2, 135544, Note_on_c, 2, 45, 55
2, 135636, Control_c, 2, 64, 127
2, 135664, Note_off_c, 2, 60, 0
2, 135756, Note_off_c, 2, 55, 0
2, 135784, Note_off_c, 2, 64, 0
2, 135816, Note_off_c, 2, 71, 0
2, 136132, Note_on_c, 2, 71, 53
2, 136136, Note_on_c, 2, 74, 58
2, 136136, Control_c, 2, 64, 0
2, 136144, Note_on_c, 2, 66, 53
2, 136148, Note_on_c, 2, 54, 64
2, 136148, Note_on_c, 2, 64, 44
2, 136232, Control_c, 2, 64, 127
2, 136240, Note_off_c, 2, 54, 0
2, 136240, Note_off_c, 2, 45, 0
2, 136240, Control_c, 2, 123, 0
2, 136336, Note_off_c, 2, 66, 0
2, 136336, Note_off_c, 2, 74, 0
2, 136336, Note_off_c, 2, 71, 0
2, 136348, Note_off_c, 2, 64, 0
2, 136528, Note_on_c, 2, 68, 63
2, 136540, Note_on_c, 2, 54, 58
2, 136540, Note_on_c, 2, 71, 46
2, 136540, Note_on_c, 2, 59, 47
2, 136540, Note_on_c, 2, 44, 65
2, 136556, Note_on_c, 2, 63, 53
2, 136568, Control_c, 2, 64, 0
2, 136740, Control_c, 2, 64, 127
2, 136824, Note_off_c, 2, 59, 0
2, 136856, Note_off_c, 2, 63, 0
2, 136868, Note_off_c, 2, 71, 0
2, 136876, Note_off_c, 2, 68, 0
2, 136888, Note_off_c, 2, 44, 0
2, 136920, Note_off_c, 2, 54, 0
2, 136920, Control_c, 2, 123, 0
2, 137236, Control_c, 2, 64, 0
2, 137256, Note_on_c, 2, 53, 58
2, 137256, Note_on_c, 2, 43, 57
2, 137268, Note_on_c, 2, 72, 54
2, 137280, Note_on_c, 2, 60, 63
2, 137280, Note_on_c, 2, 65, 66
2, 137280, Note_on_c, 2, 69, 62
2, 137328, Note_on_c, 2, 65, 0
2, 137328, Note_on_c, 2, 60, 0
2, 137332, Control_c, 2, 64, 127
2, 137340, Note_off_c, 2, 69, 0
2, 137364, Note_off_c, 2, 72, 0
2, 137404, Control_c, 2, 123, 0
2, 137460, Note_off_c, 2, 53, 0
2, 137472, Note_on_c, 2, 76, 54
2, 137512, Note_on_c, 2, 76, 0
2, 137512, Control_c, 2, 123, 0
2, 137524, Note_off_c, 2, 43, 0
2, 137648, Note_on_c, 2, 79, 70
2, 137656, Note_on_c, 2, 67, 56
2, 137668, Note_on_c, 2, 67, 0
2, 137680, Note_on_c, 2, 79, 0
2, 137680, Control_c, 2, 123, 0
2, 137848, Note_on_c, 2, 74, 77
2, 137848, Control_c, 2, 64, 0
2, 137860, Note_on_c, 2, 83, 74
2, 137860, Note_on_c, 2, 71, 61
2, 137860, Note_on_c, 2, 52, 60
2, 137860, Note_on_c, 2, 36, 65
2, 137860, Note_on_c, 2, 79, 66
2, 137952, Control_c, 2, 64, 127
2, 137972, Note_off_c, 2, 36, 0
2, 138036, Note_off_c, 2, 52, 0
2, 138068, Note_off_c, 2, 71, 0
2, 138068, Note_off_c, 2, 74, 0
2, 138088, Note_off_c, 2, 79, 0
2, 138100, Note_off_c, 2, 83, 0
2, 138100, Control_c, 2, 123, 0
2, 138436, Note_on_c, 2, 55, 76
2, 138496, Note_on_c, 2, 55, 0
2, 138496, Control_c, 2, 123, 0
2, 138680, Note_on_c, 2, 84, 64
2, 138680, Note_on_c, 2, 72, 65
2, 138720, Note_on_c, 2, 84, 0
2, 138728, Note_on_c, 2, 72, 0
2, 138732, Control_c, 2, 123, 0
2, 138972, Control_c, 2, 64, 0
2, 138992, Note_on_c, 2, 65, 63
2, 138992, Note_on_c, 2, 81, 77
2, 138992, Note_on_c, 2, 69, 66
2, 138996, Note_on_c, 2, 61, 54
2, 138996, Note_on_c, 2, 55, 62
2, 138996, Note_on_c, 2, 77, 66
2, 138996, Note_on_c, 2, 73, 68
2, 139080, Control_c, 2, 64, 127
2, 139100, Note_off_c, 2, 81, 0
2, 139112, Note_off_c, 2, 73, 0
2, 139112, Note_off_c, 2, 77, 0
2, 139136, Note_off_c, 2, 69, 0
2, 139168, Note_off_c, 2, 65, 0
2, 139296, Note_on_c, 2, 65, 82
2, 139356, Note_on_c, 2, 65, 0
2, 139396, Note_on_c, 2, 61, 0
2, 139612, Note_on_c, 2, 61, 80
2, 139624, Note_on_c, 2, 69, 84
2, 139924, Note_on_c, 2, 73, 86
2, 139944, Note_on_c, 2, 61, 0
2, 139964, Note_on_c, 2, 55, 0
2, 139976, Note_on_c, 2, 69, 0
2, 140016, Note_on_c, 2, 73, 0
2, 140016, Control_c, 2, 123, 0
2, 140140, Note_on_c, 2, 50, 65
2, 140184, Note_on_c, 2, 57, 54
2, 140216, Note_on_c, 2, 65, 31
2, 140224, Note_on_c, 2, 60, 64
2, 140236, Note_on_c, 2, 69, 74
2, 140248, Note_on_c, 2, 72, 63
2, 140252, Control_c, 2, 64, 0
2, 140264, Note_on_c, 2, 76, 63
2, 140428, Control_c, 2, 64, 127
2, 140576, Note_off_c, 2, 60, 0
2, 140660, Note_off_c, 2, 76, 0
2, 140860, Note_on_c, 2, 60, 61
2, 140880, Note_on_c, 2, 57, 0
2, 140912, Note_on_c, 2, 60, 0
2, 140984, Note_on_c, 2, 50, 0
2, 141144, Note_on_c, 2, 77, 64
2, 141196, Note_on_c, 2, 72, 0
2, 141196, Note_on_c, 2, 69, 0
2, 141208, Note_on_c, 2, 77, 0
2, 141208, Note_on_c, 2, 65, 0
2, 141208, Control_c, 2, 123, 0
2, 141436, Note_on_c, 2, 44, 53
2, 141484, Note_on_c, 2, 54, 63
2, 141504, Note_on_c, 2, 60, 38
2, 141536, Note_on_c, 2, 66, 43
2, 141540, Control_c, 2, 64, 0
2, 141560, Note_on_c, 2, 70, 54
2, 141584, Note_on_c, 2, 74, 62
2, 141700, Control_c, 2, 64, 127
2, 141880, Note_off_c, 2, 44, 0
2, 141900, Note_off_c, 2, 74, 0
2, 141900, Note_off_c, 2, 66, 0
2, 141900, Note_off_c, 2, 60, 0
2, 141912, Note_off_c, 2, 70, 0
2, 141912, Note_off_c, 2, 54, 0
2, 141912, Control_c, 2, 123, 0
2, 142172, Note_on_c, 2, 43, 46
2, 142232, Note_on_c, 2, 53, 62
2, 142232, Note_on_c, 2, 60, 46
2, 142256, Note_on_c, 2, 65, 56
2, 142268, Control_c, 2, 64, 0
2, 142292, Note_on_c, 2, 69, 61
2, 142428, Control_c, 2, 64, 127
2, 142488, Note_off_c, 2, 53, 0
2, 142512, Note_off_c, 2, 69, 0
2, 142512, Note_off_c, 2, 43, 0
2, 142524, Note_off_c, 2, 65, 0
2, 142564, Note_off_c, 2, 60, 0
2, 142564, Control_c, 2, 123, 0
2, 142840, Note_on_c, 2, 41, 33
2, 142860, Note_on_c, 2, 48, 46
2, 142872, Note_on_c, 2, 63, 49
2, 142884, Note_on_c, 2, 57, 39
2, 142908, Note_on_c, 2, 67, 47
2, 142908, Control_c, 2, 64, 0
2, 142980, Note_on_c, 2, 71, 64
2, 143104, Control_c, 2, 64, 127
2, 143404, Note_off_c, 2, 57, 0
2, 143436, Note_off_c, 2, 41, 0
2, 143456, Note_off_c, 2, 63, 0
2, 143464, Note_off_c, 2, 48, 0
2, 143468, Note_off_c, 2, 71, 0
2, 143468, Note_off_c, 2, 67, 0
2, 143468, Control_c, 2, 123, 0
2, 143832, Note_on_c, 2, 40, 66
2, 143844, Control_c, 2, 64, 0
2, 143876, Note_on_c, 2, 72, 44
2, 143884, Note_on_c, 2, 62, 59
2, 143888, Note_on_c, 2, 67, 68
2, 143952, Control_c, 2, 64, 127
2, 144064, Note_on_c, 2, 56, 68
2, 144076, Note_on_c, 2, 67, 0
2, 144168, Note_on_c, 2, 62, 0
2, 144192, Note_on_c, 2, 40, 0
2, 144208, Note_on_c, 2, 72, 0
2, 144208, Control_c, 2, 123, 0
2, 144236, Note_on_c, 2, 67, 74
2, 144244, Note_on_c, 2, 56, 0
2, 144376, Note_on_c, 2, 62, 73
2, 144396, Note_on_c, 2, 69, 73
2, 144420, Note_on_c, 2, 67, 0
2, 144460, Note_on_c, 2, 69, 0
2, 144528, Note_on_c, 2, 62, 0
2, 144532, Control_c, 2, 123, 0
2, 144548, Note_on_c, 2, 72, 64
2, 144572, Note_on_c, 2, 69, 77
2, 144572, Note_on_c, 2, 55, 70
2, 144584, Control_c, 2, 64, 0
2, 144704, Note_off_c, 2, 69, 0
2, 144704, Control_c, 2, 64, 127
2, 144716, Note_on_c, 2, 70, 79
2, 144728, Note_on_c, 2, 72, 0
2, 144728, Note_on_c, 2, 61, 73
2, 144728, Note_on_c, 2, 65, 64
2, 144740, Note_on_c, 2, 67, 65
2, 144776, Note_on_c, 2, 67, 0
2, 144796, Note_on_c, 2, 65, 0
2, 144808, Note_on_c, 2, 70, 0
2, 144868, Note_on_c, 2, 69, 77
2, 144880, Note_on_c, 2, 65, 68
2, 144984, Note_on_c, 2, 65, 0
2, 145004, Note_on_c, 2, 58, 69
2, 145016, Note_on_c, 2, 61, 0
2, 145016, Note_on_c, 2, 55, 0
2, 145016, Note_on_c, 2, 67, 82
2, 145040, Note_on_c, 2, 69, 0
2, 145072, Note_on_c, 2, 67, 0
2, 145072, Note_on_c, 2, 58, 0
2, 145072, Control_c, 2, 123, 0
2, 145188, Note_on_c, 2, 74, 70
2, 145192, Note_on_c, 2, 77, 71
2, 145192, Note_on_c, 2, 54, 79
2, 145192, Control_c, 2, 64, 0
2, 145328, Control_c, 2, 64, 127
2, 145336, Note_off_c, 2, 74, 0
2, 145356, Note_on_c, 2, 72, 48
2, 145360, Note_on_c, 2, 75, 76
2, 145360, Note_on_c, 2, 60, 62
2, 145372, Note_on_c, 2, 77, 0
2, 145436, Note_on_c, 2, 72, 0
2, 145444, Note_on_c, 2, 75, 0
2, 145536, Note_on_c, 2, 74, 64
2, 145548, Note_on_c, 2, 71, 62
2, 145560, Note_on_c, 2, 65, 55
2, 145604, Note_on_c, 2, 65, 0
2, 145624, Note_on_c, 2, 60, 0
2, 145644, Note_on_c, 2, 54, 0
2, 145656, Note_on_c, 2, 71, 0
2, 145656, Note_on_c, 2, 74, 0
2, 145656, Control_c, 2, 123, 0
2, 145708, Note_on_c, 2, 72, 47
2, 145716, Note_on_c, 2, 69, 63
2, 145760, Note_on_c, 2, 69, 0
2, 145768, Note_on_c, 2, 72, 0
2, 145768, Control_c, 2, 123, 0
2, 145876, Control_c, 2, 64, 0
2, 145904, Note_on_c, 2, 67, 65
2, 145908, Note_on_c, 2, 43, 56
2, 145908, Note_on_c, 2, 70, 63
2, 146012, Control_c, 2, 64, 127
2, 146112, Note_off_c, 2, 67, 0
2, 146120, Note_on_c, 2, 68, 74
2, 146132, Note_on_c, 2, 53, 63
2, 146156, Note_on_c, 2, 70, 0
2, 146188, Note_on_c, 2, 68, 0
2, 146200, Note_on_c, 2, 43, 0
2, 146376, Note_on_c, 2, 67, 59
2, 146376, Note_on_c, 2, 59, 49
2, 146468, Note_on_c, 2, 59, 0
2, 146548, Note_on_c, 2, 53, 0
2, 146608, Note_on_c, 2, 67, 0
2, 146608, Note_on_c, 2, 65, 73
2, 146668, Note_on_c, 2, 65, 0
2, 146668, Control_c, 2, 123, 0
2, 147072, Note_on_c, 2, 36, 47
2, 147132, Note_on_c, 2, 43, 37
2, 147156, Control_c, 2, 64, 0
2, 147164, Note_on_c, 2, 52, 47
2, 147164, Note_on_c, 2, 57, 40
2, 147208, Note_on_c, 2, 59, 27
2, 147240, Note_on_c, 2, 62, 47
2, 147276, Note_on_c, 2, 67, 56
2, 147276, Note_on_c, 2, 64, 34
2, 147344, Control_c, 2, 64, 127
2, 147420, Note_off_c, 2, 36, 0
2, 147432, Note_off_c, 2, 43, 0
2, 147464, Note_off_c, 2, 57, 0
2, 147508, Note_off_c, 2, 52, 0
2, 147600, Note_off_c, 2, 59, 0
2, 147672, Note_off_c, 2, 64, 0
2, 147672, Note_off_c, 2, 62, 0
2, 147700, Note_off_c, 2, 67, 0
2, 147704, Control_c, 2, 123, 0
2, 148152, Note_on_c, 2, 57, 32
2, 148252, Note_on_c, 2, 57, 0
2, 148252, Note_on_c, 2, 62, 40
2, 148272, Note_on_c, 2, 62, 0
2, 148272, Control_c, 2, 123, 0
2, 148292, Note_on_c, 2, 67, 56
2, 148376, Note_on_c, 2, 67, 0
2, 148376, Note_on_c, 2, 74, 46
2, 148416, Note_on_c, 2, 74, 0
2, 148416, Control_c, 2, 123, 0
2, 148444, Note_on_c, 2, 79, 61
2, 148488, Note_on_c, 2, 79, 0
2, 148488, Control_c, 2, 123, 0
2, 148528, Note_on_c, 2, 79, 73
2, 148584, Note_on_c, 2, 79, 0
2, 148588, Control_c, 2, 123, 0
2, 148596, Note_on_c, 2, 86, 53
2, 148628, Note_on_c, 2, 86, 0
2, 148632, Control_c, 2, 123, 0
2, 148672, Note_on_c, 2, 91, 43
2, 148680, Note_on_c, 2, 91, 0
2, 148684, Control_c, 2, 123, 0
2, 148720, Note_on_c, 2, 91, 64
2, 148792, Note_on_c, 2, 91, 0
2, 148792, Control_c, 2, 123, 0
2, 148816, Note_on_c, 2, 98, 44
2, 148836, Note_on_c, 2, 103, 62
2, 148844, Note_on_c, 2, 98, 0
2, 148916, Note_on_c, 2, 98, 53
2, 148928, Note_on_c, 2, 103, 0
2, 148948, Note_on_c, 2, 98, 0
2, 148948, Control_c, 2, 123, 0
2, 148988, Note_on_c, 2, 100, 62
2, 149068, Note_on_c, 2, 100, 0
2, 149068, Control_c, 2, 123, 0
2, 149528, Note_on_c, 2, 24, 29
2, 149608, Note_on_c, 2, 24, 0
2, 149608, Control_c, 2, 123, 0
2, 153764, Control_c, 2, 64, 0
2, 154720, Control_c, 2, 64, 127
2, 154912, End_track
0, 0, End_of_file
