0, 0, Header, 1, 2, 384
1, 0, Start_track
1, 0, Text_t, "{GNMIDI}Generated by  GNMIDI demo (http://www.gnmidi.com)\012"
1, 0, Time_signature, 4, 2, 24, 8
1, 0, Tempo, 500000
1, 159460, End_track
2, 0, Start_track
2, 0, Text_t, "{GNMIDI}Generated by  GNMIDI demo (http://www.gnmidi.com)\012"
2, 0, Title_t, "Acoustic Grand Piano"
2, 1152, Program_c, 2, 0
2, 1152, Control_c, 2, 7, 127
2, 1152, Control_c, 2, 10, 64
2, 1556, Note_on_c, 2, 46, 74
2, 1568, Control_c, 2, 64, 127
2, 1876, Note_on_c, 2, 56, 43
2, 1876, Note_on_c, 2, 63, 70
2, 1876, Note_on_c, 2, 53, 46
2, 1884, Note_on_c, 2, 60, 50
2, 1976, Note_on_c, 2, 56, 0
2, 1988, Note_on_c, 2, 60, 0
2, 1988, Note_on_c, 2, 53, 0
2, 2000, Note_on_c, 2, 63, 0
2, 2060, Note_on_c, 2, 63, 40
2, 2072, Note_on_c, 2, 60, 43
2, 2072, Note_on_c, 2, 56, 42
2, 2088, Note_on_c, 2, 53, 42
2, 2184, Note_on_c, 2, 56, 0
2, 2216, Note_on_c, 2, 53, 0
2, 2216, Note_on_c, 2, 63, 0
2, 2228, Note_on_c, 2, 60, 0
2, 2396, Note_on_c, 2, 60, 56
2, 2396, Note_on_c, 2, 53, 61
2, 2400, Note_on_c, 2, 56, 54
2, 2400, Note_on_c, 2, 63, 69
2, 2488, Note_on_c, 2, 56, 0
2, 2500, Note_on_c, 2, 53, 0
2, 2512, Note_on_c, 2, 63, 0
2, 2512, Note_on_c, 2, 60, 0
2, 2584, Note_on_c, 2, 63, 70
2, 2584, Note_on_c, 2, 53, 54
2, 2584, Note_on_c, 2, 60, 58
2, 2588, Note_on_c, 2, 56, 50
2, 2588, Control_c, 2, 64, 0
2, 2716, Note_off_c, 2, 56, 0
2, 2728, Note_off_c, 2, 60, 0
2, 2728, Note_off_c, 2, 53, 0
2, 2740, Note_off_c, 2, 63, 0
2, 3040, Control_c, 2, 64, 127
2, 3072, Note_on_c, 2, 56, 56
2, 3072, Note_on_c, 2, 63, 61
2, 3084, Note_on_c, 2, 53, 55
2, 3084, Note_on_c, 2, 60, 51
2, 3128, Note_on_c, 2, 53, 0
2, 3128, Note_on_c, 2, 56, 0
2, 3140, Note_on_c, 2, 60, 0
2, 3152, Note_on_c, 2, 46, 0
2, 3164, Note_on_c, 2, 63, 0
2, 3408, Note_on_c, 2, 67, 80
2, 3408, Note_on_c, 2, 62, 62
2, 3420, Note_on_c, 2, 58, 51
2, 3420, Note_on_c, 2, 55, 46
2, 3508, Control_c, 2, 64, 0
2, 3604, Note_on_c, 2, 39, 42
2, 3660, Control_c, 2, 64, 127
2, 3868, Note_off_c, 2, 58, 0
2, 3920, Note_on_c, 2, 44, 74
2, 3944, Note_on_c, 2, 55, 0
2, 3956, Note_on_c, 2, 39, 0
2, 4048, Note_on_c, 2, 62, 0
2, 4060, Note_on_c, 2, 44, 0
2, 4064, Control_c, 2, 64, 0
2, 4084, Note_on_c, 2, 45, 63
2, 4084, Note_on_c, 2, 61, 65
2, 4096, Note_on_c, 2, 55, 50
2, 4216, Control_c, 2, 64, 127
2, 4296, Note_off_c, 2, 45, 0
2, 4348, Note_off_c, 2, 55, 0
2, 4408, Note_off_c, 2, 61, 0
2, 4568, Note_on_c, 2, 44, 54
2, 4568, Note_on_c, 2, 60, 63
2, 4568, Note_on_c, 2, 55, 54
2, 4572, Control_c, 2, 64, 0
2, 4692, Control_c, 2, 64, 127
2, 5048, Note_off_c, 2, 60, 0
2, 5048, Note_on_c, 2, 51, 61
2, 5084, Note_on_c, 2, 55, 0
2, 5136, Note_on_c, 2, 51, 0
2, 5148, Note_on_c, 2, 44, 0
2, 5356, Note_on_c, 2, 67, 0
2, 5388, Note_on_c, 2, 60, 62
2, 5448, Note_on_c, 2, 60, 0
2, 5548, Control_c, 2, 64, 0
2, 5568, Note_on_c, 2, 58, 68
2, 5568, Note_on_c, 2, 43, 53
2, 5568, Note_on_c, 2, 53, 61
2, 5676, Control_c, 2, 64, 127
2, 5788, Note_off_c, 2, 53, 0
2, 5848, Note_off_c, 2, 58, 0
2, 6056, Note_on_c, 2, 53, 63
2, 6120, Note_on_c, 2, 53, 0
2, 6212, Note_on_c, 2, 43, 0
2, 6212, Note_on_c, 2, 63, 95
2, 6292, Note_on_c, 2, 63, 0
2, 6372, Note_on_c, 2, 63, 84
2, 6452, Note_on_c, 2, 63, 0
2, 6524, Control_c, 2, 64, 0
2, 6552, Note_on_c, 2, 42, 54
2, 6552, Note_on_c, 2, 51, 63
2, 6552, Note_on_c, 2, 63, 73
2, 6556, Note_on_c, 2, 61, 60
2, 6564, Note_on_c, 2, 57, 56
2, 6700, Control_c, 2, 64, 127
2, 6824, Note_off_c, 2, 51, 0
2, 6828, Note_off_c, 2, 63, 0
2, 6848, Note_off_c, 2, 61, 0
2, 6888, Note_off_c, 2, 57, 0
2, 7080, Note_on_c, 2, 63, 73
2, 7108, Note_on_c, 2, 63, 0
2, 7164, Note_on_c, 2, 42, 0
2, 7404, Note_on_c, 2, 58, 60
2, 7404, Note_on_c, 2, 51, 54
2, 7408, Note_on_c, 2, 56, 53
2, 7484, Control_c, 2, 64, 0
2, 7584, Note_on_c, 2, 41, 45
2, 7596, Control_c, 2, 64, 127
2, 7692, Note_off_c, 2, 51, 0
2, 7744, Note_off_c, 2, 56, 0
2, 7756, Note_off_c, 2, 58, 0
2, 8084, Note_on_c, 2, 51, 61
2, 8084, Note_on_c, 2, 56, 49
2, 8148, Note_on_c, 2, 56, 0
2, 8148, Note_on_c, 2, 41, 0
2, 8156, Note_on_c, 2, 51, 0
2, 8552, Control_c, 2, 64, 0
2, 8568, Note_on_c, 2, 70, 64
2, 8568, Note_on_c, 2, 58, 53
2, 8584, Note_on_c, 2, 53, 56
2, 8584, Note_on_c, 2, 43, 56
2, 8584, Note_on_c, 2, 65, 61
2, 8688, Control_c, 2, 64, 127
2, 8812, Note_off_c, 2, 58, 0
2, 8852, Note_off_c, 2, 65, 0
2, 8872, Note_off_c, 2, 70, 0
2, 8984, Note_off_c, 2, 43, 0
2, 9096, Note_on_c, 2, 58, 57
2, 9136, Note_on_c, 2, 53, 0
2, 9140, Note_on_c, 2, 58, 0
2, 9568, Control_c, 2, 64, 0
2, 9588, Note_on_c, 2, 72, 44
2, 9600, Note_on_c, 2, 51, 57
2, 9600, Note_on_c, 2, 60, 44
2, 9600, Note_on_c, 2, 56, 49
2, 9604, Note_on_c, 2, 68, 64
2, 9604, Note_on_c, 2, 41, 47
2, 9620, Note_on_c, 2, 63, 54
2, 9680, Control_c, 2, 64, 127
2, 9776, Note_off_c, 2, 63, 0
2, 9808, Note_off_c, 2, 68, 0
2, 9820, Note_off_c, 2, 72, 0
2, 9864, Note_off_c, 2, 60, 0
2, 9904, Note_off_c, 2, 56, 0
2, 9936, Note_on_c, 2, 63, 80
2, 10008, Note_on_c, 2, 63, 0
2, 10112, Note_on_c, 2, 63, 70
2, 10124, Note_on_c, 2, 56, 42
2, 10144, Note_on_c, 2, 41, 0
2, 10156, Note_on_c, 2, 63, 0
2, 10180, Note_on_c, 2, 56, 0
2, 10180, Note_on_c, 2, 51, 0
2, 10436, Note_on_c, 2, 63, 68
2, 10516, Note_on_c, 2, 63, 0
2, 10616, Note_on_c, 2, 63, 73
2, 10616, Control_c, 2, 64, 0
2, 10628, Note_on_c, 2, 60, 62
2, 10628, Note_on_c, 2, 56, 65
2, 10628, Note_on_c, 2, 53, 62
2, 10640, Note_on_c, 2, 46, 63
2, 10752, Control_c, 2, 64, 127
2, 10844, Note_off_c, 2, 63, 0
2, 10856, Note_off_c, 2, 56, 0
2, 10868, Note_off_c, 2, 53, 0
2, 10888, Note_off_c, 2, 60, 0
2, 11116, Note_on_c, 2, 63, 80
2, 11180, Note_on_c, 2, 63, 0
2, 11200, Note_on_c, 2, 46, 0
2, 11424, Note_on_c, 2, 70, 79
2, 11436, Note_on_c, 2, 65, 76
2, 11440, Note_on_c, 2, 61, 60
2, 11584, Control_c, 2, 64, 0
2, 11604, Note_on_c, 2, 46, 61
2, 11692, Control_c, 2, 64, 127
2, 11868, Note_off_c, 2, 46, 0
2, 11868, Note_off_c, 2, 65, 0
2, 11888, Note_off_c, 2, 61, 0
2, 12088, Note_on_c, 2, 63, 70
2, 12100, Note_on_c, 2, 48, 56
2, 12100, Note_on_c, 2, 60, 53
2, 12100, Note_on_c, 2, 55, 63
2, 12112, Control_c, 2, 64, 0
2, 12200, Control_c, 2, 64, 127
2, 12232, Note_off_c, 2, 48, 0
2, 12244, Note_off_c, 2, 55, 0
2, 12256, Note_off_c, 2, 60, 0
2, 12276, Note_off_c, 2, 63, 0
2, 12592, Note_on_c, 2, 61, 46
2, 12604, Note_on_c, 2, 65, 63
2, 12604, Note_on_c, 2, 49, 57
2, 12604, Control_c, 2, 64, 0
2, 12620, Note_on_c, 2, 56, 51
2, 12708, Control_c, 2, 64, 127
2, 12748, Note_off_c, 2, 49, 0
2, 12760, Note_off_c, 2, 56, 0
2, 12772, Note_off_c, 2, 65, 0
2, 12780, Note_off_c, 2, 61, 0
2, 13088, Note_on_c, 2, 66, 65
2, 13088, Note_on_c, 2, 60, 46
2, 13100, Note_on_c, 2, 50, 55
2, 13100, Note_on_c, 2, 54, 58
2, 13100, Control_c, 2, 64, 0
2, 13204, Control_c, 2, 64, 127
2, 13244, Note_off_c, 2, 50, 0
2, 13244, Note_off_c, 2, 60, 0
2, 13256, Note_off_c, 2, 54, 0
2, 13268, Note_off_c, 2, 66, 0
2, 13596, Control_c, 2, 64, 0
2, 13604, Note_on_c, 2, 61, 56
2, 13604, Note_on_c, 2, 67, 66
2, 13616, Note_on_c, 2, 55, 55
2, 13620, Note_on_c, 2, 51, 54
2, 13700, Control_c, 2, 64, 127
2, 13740, Note_off_c, 2, 55, 0
2, 13740, Note_off_c, 2, 67, 0
2, 13752, Note_off_c, 2, 51, 0
2, 13764, Note_off_c, 2, 61, 0
2, 13804, Note_off_c, 2, 70, 0
2, 14096, Note_on_c, 2, 72, 70
2, 14108, Note_on_c, 2, 61, 54
2, 14108, Note_on_c, 2, 65, 66
2, 14108, Note_on_c, 2, 68, 69
2, 14108, Note_on_c, 2, 56, 61
2, 14112, Control_c, 2, 64, 0
2, 14128, Note_on_c, 2, 46, 68
2, 14228, Control_c, 2, 64, 127
2, 14260, Note_off_c, 2, 56, 0
2, 14268, Note_off_c, 2, 46, 0
2, 14280, Note_off_c, 2, 68, 0
2, 14280, Note_off_c, 2, 65, 0
2, 14304, Note_off_c, 2, 61, 0
2, 14304, Note_off_c, 2, 72, 0
2, 14636, Note_on_c, 2, 72, 70
2, 14640, Control_c, 2, 64, 0
2, 14648, Note_on_c, 2, 55, 59
2, 14652, Note_on_c, 2, 67, 62
2, 14652, Note_on_c, 2, 61, 50
2, 14652, Note_on_c, 2, 64, 66
2, 14664, Note_on_c, 2, 45, 49
2, 14776, Control_c, 2, 64, 127
2, 14884, Note_off_c, 2, 72, 0
2, 14924, Note_off_c, 2, 61, 0
2, 14948, Note_off_c, 2, 55, 0
2, 15120, Note_off_c, 2, 67, 0
2, 15124, Note_off_c, 2, 64, 0
2, 15152, Note_on_c, 2, 72, 70
2, 15176, Note_on_c, 2, 55, 54
2, 15228, Note_on_c, 2, 55, 0
2, 15228, Note_on_c, 2, 72, 0
2, 15236, Note_on_c, 2, 45, 0
2, 15624, Control_c, 2, 64, 0
2, 15632, Note_on_c, 2, 58, 56
2, 15632, Note_on_c, 2, 75, 80
2, 15632, Note_on_c, 2, 44, 54
2, 15648, Note_on_c, 2, 67, 68
2, 15648, Note_on_c, 2, 63, 53
2, 15648, Note_on_c, 2, 51, 63
2, 15752, Control_c, 2, 64, 127
2, 15868, Note_off_c, 2, 63, 0
2, 15888, Note_off_c, 2, 75, 0
2, 15920, Note_off_c, 2, 51, 0
2, 15920, Note_off_c, 2, 67, 0
2, 15964, Note_on_c, 2, 72, 70
2, 16140, Note_on_c, 2, 72, 0
2, 16152, Note_on_c, 2, 58, 0
2, 16152, Note_on_c, 2, 70, 70
2, 16152, Note_on_c, 2, 51, 54
2, 16176, Note_on_c, 2, 51, 0
2, 16196, Note_on_c, 2, 44, 0
2, 16444, Note_on_c, 2, 68, 73
2, 16456, Note_on_c, 2, 70, 0
2, 16480, Note_on_c, 2, 68, 0
2, 16648, Note_on_c, 2, 64, 64
2, 16648, Note_on_c, 2, 70, 80
2, 16648, Note_on_c, 2, 52, 53
2, 16648, Note_on_c, 2, 58, 53
2, 16652, Control_c, 2, 64, 0
2, 16660, Note_on_c, 2, 36, 58
2, 16804, Control_c, 2, 64, 127
2, 16908, Note_off_c, 2, 70, 0
2, 16932, Note_off_c, 2, 64, 0
2, 16952, Note_off_c, 2, 52, 0
2, 16964, Note_off_c, 2, 58, 0
2, 17160, Note_on_c, 2, 52, 46
2, 17212, Note_on_c, 2, 36, 0
2, 17256, Note_on_c, 2, 52, 0
2, 17316, Note_on_c, 2, 67, 76
2, 17396, Note_on_c, 2, 67, 0
2, 17604, Control_c, 2, 64, 0
2, 17612, Note_on_c, 2, 56, 40
2, 17612, Note_on_c, 2, 65, 70
2, 17624, Note_on_c, 2, 41, 44
2, 17624, Note_on_c, 2, 63, 53
2, 17624, Note_on_c, 2, 60, 49
2, 17624, Note_on_c, 2, 51, 47
2, 17708, Note_on_c, 2, 63, 0
2, 17712, Control_c, 2, 64, 127
2, 17732, Note_off_c, 2, 51, 0
2, 17732, Note_off_c, 2, 60, 0
2, 17732, Note_off_c, 2, 65, 0
2, 17744, Note_off_c, 2, 56, 0
2, 17796, Note_off_c, 2, 41, 0
2, 17952, Note_on_c, 2, 56, 61
2, 17952, Note_on_c, 2, 63, 68
2, 17968, Note_on_c, 2, 60, 53
2, 17968, Note_on_c, 2, 53, 60
2, 18040, Note_on_c, 2, 56, 0
2, 18044, Note_on_c, 2, 53, 0
2, 18052, Note_on_c, 2, 60, 0
2, 18064, Note_on_c, 2, 63, 0
2, 18164, Note_on_c, 2, 63, 48
2, 18176, Note_on_c, 2, 56, 44
2, 18176, Note_on_c, 2, 60, 44
2, 18192, Note_on_c, 2, 53, 30
2, 18264, Note_on_c, 2, 56, 0
2, 18268, Note_on_c, 2, 53, 0
2, 18288, Note_on_c, 2, 63, 0
2, 18296, Note_on_c, 2, 60, 0
2, 18456, Note_on_c, 2, 63, 73
2, 18456, Note_on_c, 2, 60, 66
2, 18468, Note_on_c, 2, 53, 70
2, 18468, Note_on_c, 2, 56, 74
2, 18544, Note_on_c, 2, 56, 0
2, 18544, Note_on_c, 2, 53, 0
2, 18564, Note_on_c, 2, 63, 0
2, 18568, Note_on_c, 2, 60, 0
2, 18648, Note_on_c, 2, 60, 55
2, 18648, Note_on_c, 2, 63, 63
2, 18648, Note_on_c, 2, 56, 54
2, 18660, Note_on_c, 2, 53, 48
2, 18660, Control_c, 2, 64, 0
2, 18832, Note_off_c, 2, 56, 0
2, 18840, Note_off_c, 2, 53, 0
2, 18852, Note_off_c, 2, 63, 0
2, 18852, Note_off_c, 2, 60, 0
2, 18964, Note_on_c, 2, 34, 65
2, 19144, Note_on_c, 2, 56, 56
2, 19144, Note_on_c, 2, 63, 63
2, 19148, Control_c, 2, 64, 127
2, 19156, Note_on_c, 2, 53, 49
2, 19156, Note_on_c, 2, 60, 52
2, 19204, Note_on_c, 2, 53, 0
2, 19204, Note_on_c, 2, 56, 0
2, 19212, Note_on_c, 2, 60, 0
2, 19236, Note_on_c, 2, 63, 0
2, 19248, Note_on_c, 2, 34, 0
2, 19472, Note_on_c, 2, 58, 49
2, 19472, Note_on_c, 2, 62, 60
2, 19484, Note_on_c, 2, 67, 65
2, 19484, Note_on_c, 2, 53, 45
2, 19576, Control_c, 2, 64, 0
2, 19668, Note_on_c, 2, 39, 53
2, 19768, Control_c, 2, 64, 127
2, 19988, Note_on_c, 2, 51, 84
2, 20032, Note_on_c, 2, 53, 0
2, 20032, Note_on_c, 2, 62, 0
2, 20064, Note_on_c, 2, 58, 0
2, 20076, Note_on_c, 2, 51, 0
2, 20096, Note_on_c, 2, 39, 0
2, 20160, Note_on_c, 2, 55, 57
2, 20160, Note_on_c, 2, 45, 64
2, 20160, Note_on_c, 2, 61, 68
2, 20172, Control_c, 2, 64, 0
2, 20312, Control_c, 2, 64, 127
2, 20372, Note_off_c, 2, 45, 0
2, 20424, Note_off_c, 2, 55, 0
2, 20576, Note_off_c, 2, 61, 0
2, 20636, Note_on_c, 2, 60, 52
2, 20636, Note_on_c, 2, 44, 57
2, 20636, Control_c, 2, 64, 0
2, 20648, Note_on_c, 2, 55, 40
2, 20768, Control_c, 2, 64, 127
2, 21136, Note_on_c, 2, 51, 61
2, 21236, Note_on_c, 2, 51, 0
2, 21288, Note_on_c, 2, 44, 0
2, 21320, Note_on_c, 2, 67, 0
2, 21332, Note_on_c, 2, 60, 0
2, 21352, Note_on_c, 2, 55, 0
2, 21616, Control_c, 2, 64, 0
2, 21656, Note_on_c, 2, 43, 63
2, 21728, Control_c, 2, 64, 127
2, 21964, Note_on_c, 2, 63, 86
2, 21964, Note_on_c, 2, 60, 77
2, 21976, Note_on_c, 2, 55, 84
2, 21976, Note_on_c, 2, 58, 84
2, 22068, Note_on_c, 2, 58, 0
2, 22088, Note_on_c, 2, 55, 0
2, 22088, Note_on_c, 2, 60, 0
2, 22088, Note_on_c, 2, 63, 0
2, 22160, Note_on_c, 2, 51, 43
2, 22184, Note_on_c, 2, 55, 33
2, 22184, Note_on_c, 2, 58, 39
2, 22184, Note_on_c, 2, 60, 36
2, 22184, Note_on_c, 2, 63, 25
2, 22212, Note_on_c, 2, 51, 0
2, 22296, Note_on_c, 2, 58, 0
2, 22296, Note_on_c, 2, 43, 0
2, 22312, Note_on_c, 2, 63, 0
2, 22312, Note_on_c, 2, 60, 0
2, 22312, Note_on_c, 2, 55, 0
2, 22480, Note_on_c, 2, 55, 71
2, 22480, Note_on_c, 2, 58, 76
2, 22480, Note_on_c, 2, 63, 65
2, 22492, Note_on_c, 2, 60, 46
2, 22524, Note_on_c, 2, 60, 0
2, 22536, Note_on_c, 2, 55, 0
2, 22556, Note_on_c, 2, 63, 0
2, 22556, Note_on_c, 2, 58, 0
2, 22668, Note_on_c, 2, 42, 60
2, 22672, Control_c, 2, 64, 0
2, 22680, Note_on_c, 2, 63, 50
2, 22680, Note_on_c, 2, 57, 53
2, 22680, Note_on_c, 2, 51, 48
2, 22692, Note_on_c, 2, 61, 53
2, 22816, Note_on_c, 2, 61, 0
2, 22816, Note_on_c, 2, 51, 0
2, 22828, Note_on_c, 2, 63, 0
2, 22848, Note_on_c, 2, 57, 0
2, 23168, Note_on_c, 2, 63, 57
2, 23168, Note_on_c, 2, 57, 63
2, 23168, Note_on_c, 2, 51, 57
2, 23168, Note_on_c, 2, 61, 47
2, 23184, Control_c, 2, 64, 127
2, 23216, Note_off_c, 2, 61, 0
2, 23236, Note_off_c, 2, 57, 0
2, 23236, Note_off_c, 2, 63, 0
2, 23272, Note_off_c, 2, 51, 0
2, 23480, Note_off_c, 2, 42, 0
2, 23480, Note_on_c, 2, 58, 65
2, 23488, Note_on_c, 2, 56, 53
2, 23492, Note_on_c, 2, 51, 68
2, 23600, Control_c, 2, 64, 0
2, 23660, Note_on_c, 2, 41, 45
2, 23756, Control_c, 2, 64, 127
2, 24148, Control_c, 2, 64, 0
2, 24160, Note_on_c, 2, 43, 54
2, 24184, Note_on_c, 2, 41, 0
2, 24652, Note_on_c, 2, 44, 53
2, 24664, Note_on_c, 2, 43, 0
2, 25164, Note_on_c, 2, 44, 0
2, 25164, Note_on_c, 2, 45, 53
2, 25176, Control_c, 2, 64, 127
2, 25200, Note_off_c, 2, 51, 0
2, 25424, Control_c, 2, 64, 0
2, 25444, Note_off_c, 2, 56, 0
2, 25496, Note_on_c, 2, 50, 31
2, 25496, Note_on_c, 2, 46, 73
2, 25496, Note_on_c, 2, 53, 62
2, 25512, Note_on_c, 2, 45, 0
2, 25628, Control_c, 2, 64, 127
2, 25668, Note_off_c, 2, 50, 0
2, 25680, Note_off_c, 2, 53, 0
2, 25692, Note_off_c, 2, 58, 0
2, 25972, Note_on_c, 2, 63, 84
2, 25972, Note_on_c, 2, 56, 79
2, 25980, Note_on_c, 2, 53, 73
2, 25984, Note_on_c, 2, 60, 66
2, 26092, Note_on_c, 2, 56, 0
2, 26104, Note_on_c, 2, 53, 0
2, 26116, Note_on_c, 2, 60, 0
2, 26116, Note_on_c, 2, 63, 0
2, 26156, Note_on_c, 2, 34, 58
2, 26160, Control_c, 2, 64, 0
2, 26172, Note_on_c, 2, 63, 48
2, 26172, Note_on_c, 2, 56, 53
2, 26184, Note_on_c, 2, 53, 52
2, 26184, Note_on_c, 2, 60, 42
2, 26332, Control_c, 2, 64, 127
2, 26404, Note_off_c, 2, 56, 0
2, 26416, Note_off_c, 2, 53, 0
2, 26416, Note_off_c, 2, 63, 0
2, 26436, Note_off_c, 2, 60, 0
2, 26508, Note_on_c, 2, 60, 36
2, 26508, Note_on_c, 2, 63, 50
2, 26512, Note_on_c, 2, 56, 50
2, 26512, Note_on_c, 2, 53, 48
2, 26600, Note_on_c, 2, 56, 0
2, 26612, Note_on_c, 2, 53, 0
2, 26624, Note_on_c, 2, 63, 0
2, 26636, Note_on_c, 2, 60, 0
2, 26692, Control_c, 2, 64, 0
2, 26700, Note_on_c, 2, 60, 42
2, 26700, Note_on_c, 2, 56, 54
2, 26700, Note_on_c, 2, 63, 61
2, 26712, Note_on_c, 2, 53, 53
2, 26804, Control_c, 2, 64, 127
2, 26868, Note_off_c, 2, 56, 0
2, 26888, Note_off_c, 2, 63, 0
2, 26900, Note_off_c, 2, 53, 0
2, 26900, Note_off_c, 2, 60, 0
2, 27044, Control_c, 2, 64, 0
2, 27164, Note_on_c, 2, 56, 60
2, 27164, Note_on_c, 2, 63, 68
2, 27164, Note_on_c, 2, 60, 54
2, 27164, Note_on_c, 2, 53, 57
2, 27192, Control_c, 2, 64, 127
2, 27224, Note_off_c, 2, 53, 0
2, 27236, Note_off_c, 2, 56, 0
2, 27248, Note_off_c, 2, 60, 0
2, 27260, Note_off_c, 2, 63, 0
2, 27512, Note_on_c, 2, 70, 69
2, 27524, Note_on_c, 2, 61, 64
2, 27524, Note_on_c, 2, 56, 45
2, 27524, Note_on_c, 2, 65, 62
2, 27540, Note_on_c, 2, 34, 0
2, 27572, Control_c, 2, 64, 0
2, 27624, Note_off_c, 2, 46, 0
2, 27676, Note_on_c, 2, 34, 64
2, 28040, Note_on_c, 2, 46, 69
2, 28104, Note_on_c, 2, 34, 0
2, 28192, Note_on_c, 2, 46, 0
2, 28204, Note_on_c, 2, 36, 64
2, 28700, Note_on_c, 2, 36, 0
2, 28704, Note_on_c, 2, 37, 57
2, 29180, Note_on_c, 2, 37, 0
2, 29204, Note_on_c, 2, 38, 65
2, 29560, Note_on_c, 2, 56, 0
2, 29616, Note_on_c, 2, 65, 0
2, 29616, Note_on_c, 2, 61, 0
2, 29648, Note_on_c, 2, 70, 0
2, 29700, Note_on_c, 2, 39, 70
2, 29732, Note_on_c, 2, 38, 0
2, 30020, Note_on_c, 2, 61, 73
2, 30020, Note_on_c, 2, 72, 70
2, 30020, Note_on_c, 2, 69, 68
2, 30032, Note_on_c, 2, 67, 76
2, 30032, Note_on_c, 2, 64, 79
2, 30224, Control_c, 2, 64, 127
2, 30448, Note_off_c, 2, 61, 0
2, 30468, Note_off_c, 2, 64, 0
2, 30480, Note_off_c, 2, 67, 0
2, 30492, Note_off_c, 2, 69, 0
2, 30492, Note_off_c, 2, 72, 0
2, 30536, Note_on_c, 2, 51, 65
2, 30576, Control_c, 2, 64, 0
2, 30700, Note_on_c, 2, 61, 57
2, 30700, Note_on_c, 2, 64, 63
2, 30700, Note_on_c, 2, 72, 70
2, 30700, Note_on_c, 2, 69, 47
2, 30700, Note_on_c, 2, 67, 55
2, 30828, Note_on_c, 2, 61, 0
2, 30840, Note_on_c, 2, 64, 0
2, 30848, Note_on_c, 2, 67, 0
2, 30860, Note_on_c, 2, 69, 0
2, 30872, Note_on_c, 2, 72, 0
2, 31208, Note_on_c, 2, 61, 53
2, 31208, Note_on_c, 2, 72, 70
2, 31208, Control_c, 2, 64, 127
2, 31220, Note_on_c, 2, 67, 62
2, 31220, Note_on_c, 2, 69, 39
2, 31220, Note_on_c, 2, 64, 65
2, 31304, Note_on_c, 2, 61, 0
2, 31304, Note_on_c, 2, 39, 0
2, 31316, Note_on_c, 2, 64, 0
2, 31316, Note_on_c, 2, 51, 0
2, 31324, Note_on_c, 2, 67, 0
2, 31336, Note_on_c, 2, 69, 0
2, 31360, Note_on_c, 2, 72, 0
2, 31672, Control_c, 2, 64, 0
2, 31692, Note_on_c, 2, 75, 73
2, 31692, Note_on_c, 2, 70, 79
2, 31704, Note_on_c, 2, 44, 63
2, 31704, Note_on_c, 2, 58, 63
2, 31704, Note_on_c, 2, 63, 69
2, 31708, Note_on_c, 2, 51, 68
2, 31708, Note_on_c, 2, 67, 74
2, 31848, Control_c, 2, 64, 127
2, 31956, Note_off_c, 2, 70, 0
2, 31956, Note_off_c, 2, 75, 0
2, 31980, Note_off_c, 2, 67, 0
2, 32020, Note_off_c, 2, 63, 0
2, 32024, Note_on_c, 2, 72, 70
2, 32148, Note_on_c, 2, 72, 0
2, 32160, Note_on_c, 2, 58, 0
2, 32180, Note_on_c, 2, 51, 0
2, 32204, Note_on_c, 2, 70, 70
2, 32212, Note_on_c, 2, 44, 0
2, 32452, Note_on_c, 2, 70, 0
2, 32476, Note_on_c, 2, 68, 70
2, 32524, Note_on_c, 2, 68, 0
2, 32664, Control_c, 2, 64, 0
2, 32696, Note_on_c, 2, 70, 76
2, 32696, Note_on_c, 2, 60, 62
2, 32696, Note_on_c, 2, 56, 65
2, 32696, Note_on_c, 2, 51, 70
2, 32696, Note_on_c, 2, 67, 74
2, 32696, Note_on_c, 2, 63, 79
2, 32708, Note_on_c, 2, 41, 60
2, 32828, Control_c, 2, 64, 127
2, 32836, Note_off_c, 2, 67, 0
2, 32840, Note_off_c, 2, 41, 0
2, 32852, Note_off_c, 2, 63, 0
2, 32860, Note_off_c, 2, 51, 0
2, 32860, Note_off_c, 2, 70, 0
2, 32876, Note_off_c, 2, 56, 0
2, 32884, Note_off_c, 2, 60, 0
2, 33092, Control_c, 2, 64, 0
2, 33160, Note_on_c, 2, 59, 64
2, 33160, Note_on_c, 2, 56, 56
2, 33160, Note_on_c, 2, 67, 57
2, 33160, Note_on_c, 2, 64, 55
2, 33164, Note_on_c, 2, 62, 65
2, 33172, Note_on_c, 2, 46, 63
2, 33216, Control_c, 2, 64, 127
2, 33224, Note_off_c, 2, 64, 0
2, 33224, Note_off_c, 2, 56, 0
2, 33228, Note_off_c, 2, 62, 0
2, 33236, Note_off_c, 2, 67, 0
2, 33236, Note_off_c, 2, 59, 0
2, 33248, Note_off_c, 2, 46, 0
2, 33504, Note_on_c, 2, 60, 53
2, 33504, Note_on_c, 2, 63, 58
2, 33508, Note_on_c, 2, 58, 47
2, 33508, Control_c, 2, 64, 0
2, 33520, Note_on_c, 2, 55, 44
2, 33520, Note_on_c, 2, 46, 68
2, 34012, Note_on_c, 2, 39, 74
2, 34044, Note_on_c, 2, 46, 0
2, 34068, Control_c, 2, 64, 127
2, 34100, Note_off_c, 2, 39, 0
2, 34372, Note_on_c, 2, 48, 77
2, 34396, Note_on_c, 2, 58, 0
2, 34404, Note_on_c, 2, 60, 0
2, 34428, Note_on_c, 2, 55, 0
2, 34448, Note_on_c, 2, 63, 0
2, 34500, Control_c, 2, 64, 0
2, 34512, Note_on_c, 2, 49, 84
2, 34540, Note_on_c, 2, 48, 0
2, 34652, Note_on_c, 2, 49, 0
2, 34672, Note_on_c, 2, 50, 84
2, 34836, Note_on_c, 2, 60, 73
2, 34836, Note_on_c, 2, 67, 77
2, 34836, Note_on_c, 2, 55, 73
2, 34836, Note_on_c, 2, 63, 79
2, 34884, Note_on_c, 2, 63, 0
2, 34884, Note_on_c, 2, 55, 0
2, 34892, Note_on_c, 2, 60, 0
2, 34916, Note_on_c, 2, 67, 0
2, 35164, Note_on_c, 2, 60, 63
2, 35164, Note_on_c, 2, 57, 64
2, 35164, Note_on_c, 2, 66, 65
2, 35168, Note_on_c, 2, 38, 65
2, 35168, Note_on_c, 2, 69, 69
2, 35168, Note_on_c, 2, 63, 68
2, 35220, Control_c, 2, 64, 127
2, 35244, Note_off_c, 2, 60, 0
2, 35252, Note_off_c, 2, 57, 0
2, 35256, Note_off_c, 2, 63, 0
2, 35256, Note_off_c, 2, 38, 0
2, 35276, Note_off_c, 2, 69, 0
2, 35276, Note_off_c, 2, 66, 0
2, 35312, Note_off_c, 2, 50, 0
2, 35496, Note_on_c, 2, 58, 63
2, 35496, Note_on_c, 2, 70, 74
2, 35512, Note_on_c, 2, 62, 76
2, 35512, Note_on_c, 2, 65, 71
2, 35588, Control_c, 2, 64, 0
2, 35668, Note_on_c, 2, 43, 59
2, 35668, Note_on_c, 2, 53, 53
2, 35740, Control_c, 2, 64, 127
2, 35804, Note_off_c, 2, 58, 0
2, 35816, Note_off_c, 2, 62, 0
2, 35868, Note_off_c, 2, 43, 0
2, 35912, Note_off_c, 2, 65, 0
2, 35912, Note_off_c, 2, 70, 0
2, 36196, Note_on_c, 2, 58, 79
2, 36200, Note_on_c, 2, 67, 63
2, 36252, Note_on_c, 2, 67, 0
2, 36252, Note_on_c, 2, 53, 0
2, 36296, Note_on_c, 2, 58, 0
2, 36520, Note_on_c, 2, 74, 73
2, 36528, Note_on_c, 2, 60, 64
2, 36532, Note_on_c, 2, 67, 76
2, 36640, Control_c, 2, 64, 0
2, 36700, Note_on_c, 2, 55, 68
2, 36712, Note_on_c, 2, 45, 64
2, 36768, Control_c, 2, 64, 127
2, 36840, Note_off_c, 2, 55, 0
2, 36844, Note_off_c, 2, 45, 0
2, 36852, Note_off_c, 2, 67, 0
2, 36868, Note_off_c, 2, 60, 0
2, 36884, Note_off_c, 2, 74, 0
2, 37208, Control_c, 2, 64, 0
2, 37216, Note_on_c, 2, 72, 44
2, 37232, Note_on_c, 2, 60, 45
2, 37232, Note_on_c, 2, 66, 68
2, 37232, Note_on_c, 2, 44, 57
2, 37232, Note_on_c, 2, 54, 68
2, 37324, Control_c, 2, 64, 127
2, 37388, Note_off_c, 2, 66, 0
2, 37408, Note_off_c, 2, 54, 0
2, 37408, Note_off_c, 2, 60, 0
2, 37408, Note_off_c, 2, 72, 0
2, 37420, Note_off_c, 2, 44, 0
2, 37724, Control_c, 2, 64, 0
2, 37732, Note_on_c, 2, 70, 64
2, 37748, Note_on_c, 2, 62, 53
2, 37748, Note_on_c, 2, 53, 54
2, 37748, Note_on_c, 2, 65, 59
2, 37748, Note_on_c, 2, 43, 51
2, 37860, Control_c, 2, 64, 127
2, 37964, Note_off_c, 2, 43, 0
2, 38232, Note_off_c, 2, 65, 0
2, 38256, Note_on_c, 2, 67, 54
2, 38256, Note_on_c, 2, 58, 56
2, 38268, Note_on_c, 2, 62, 0
2, 38280, Note_on_c, 2, 67, 0
2, 38280, Note_on_c, 2, 70, 0
2, 38304, Note_on_c, 2, 53, 0
2, 38324, Note_on_c, 2, 58, 0
2, 38568, Note_on_c, 2, 67, 69
2, 38568, Note_on_c, 2, 74, 64
2, 38580, Note_on_c, 2, 60, 49
2, 38708, Control_c, 2, 64, 0
2, 38760, Note_on_c, 2, 55, 62
2, 38772, Note_on_c, 2, 45, 60
2, 38840, Control_c, 2, 64, 127
2, 38956, Note_off_c, 2, 74, 0
2, 38984, Note_off_c, 2, 60, 0
2, 39068, Note_off_c, 2, 55, 0
2, 39080, Note_off_c, 2, 67, 0
2, 39088, Note_on_c, 2, 60, 82
2, 39236, Control_c, 2, 64, 0
2, 39256, Note_on_c, 2, 72, 54
2, 39268, Note_on_c, 2, 54, 76
2, 39268, Note_on_c, 2, 66, 80
2, 39376, Control_c, 2, 64, 127
2, 39448, Note_off_c, 2, 45, 0
2, 39492, Note_off_c, 2, 54, 0
2, 39492, Note_off_c, 2, 72, 0
2, 39564, Note_on_c, 2, 70, 74
2, 39576, Note_on_c, 2, 66, 0
2, 39608, Note_on_c, 2, 70, 0
2, 39616, Note_on_c, 2, 60, 0
2, 39740, Control_c, 2, 64, 0
2, 39760, Note_on_c, 2, 67, 70
2, 39760, Note_on_c, 2, 53, 58
2, 39760, Note_on_c, 2, 43, 54
2, 39772, Note_on_c, 2, 62, 71
2, 39776, Note_on_c, 2, 58, 60
2, 39884, Control_c, 2, 64, 127
2, 39904, Note_off_c, 2, 53, 0
2, 39936, Note_off_c, 2, 43, 0
2, 39948, Note_off_c, 2, 62, 0
2, 39948, Note_off_c, 2, 67, 0
2, 39956, Note_off_c, 2, 58, 0
2, 40224, Note_on_c, 2, 61, 69
2, 40232, Note_on_c, 2, 41, 55
2, 40232, Note_on_c, 2, 57, 54
2, 40236, Note_on_c, 2, 67, 65
2, 40236, Note_on_c, 2, 51, 61
2, 40236, Control_c, 2, 64, 0
2, 40296, Note_off_c, 2, 61, 0
2, 40308, Note_on_c, 2, 62, 68
2, 40404, Control_c, 2, 64, 127
2, 40436, Note_off_c, 2, 62, 0
2, 40448, Note_off_c, 2, 51, 0
2, 40448, Note_off_c, 2, 67, 0
2, 40456, Note_off_c, 2, 57, 0
2, 40468, Note_off_c, 2, 41, 0
2, 40724, Note_on_c, 2, 67, 64
2, 40724, Note_on_c, 2, 40, 58
2, 40724, Note_on_c, 2, 58, 53
2, 40728, Control_c, 2, 64, 0
2, 40736, Note_on_c, 2, 55, 46
2, 40736, Note_on_c, 2, 62, 65
2, 40884, Control_c, 2, 64, 127
2, 41196, Note_off_c, 2, 67, 0
2, 41228, Note_on_c, 2, 46, 46
2, 41228, Note_on_c, 2, 65, 64
2, 41264, Note_on_c, 2, 58, 0
2, 41276, Note_on_c, 2, 62, 0
2, 41296, Note_on_c, 2, 65, 0
2, 41296, Note_on_c, 2, 46, 0
2, 41308, Note_on_c, 2, 55, 0
2, 41364, Note_on_c, 2, 40, 0
2, 41568, Note_on_c, 2, 55, 61
2, 41568, Note_on_c, 2, 62, 68
2, 41580, Note_on_c, 2, 60, 58
2, 41676, Control_c, 2, 64, 0
2, 41736, Note_on_c, 2, 50, 60
2, 41856, Control_c, 2, 64, 127
2, 42236, Control_c, 2, 64, 0
2, 42244, Note_on_c, 2, 49, 65
2, 42256, Note_on_c, 2, 50, 0
2, 42376, Control_c, 2, 64, 127
2, 42488, Note_off_c, 2, 55, 0
2, 42500, Note_off_c, 2, 60, 0
2, 42720, Control_c, 2, 64, 0
2, 42732, Note_off_c, 2, 49, 0
2, 42732, Note_on_c, 2, 58, 65
2, 42744, Note_on_c, 2, 50, 64
2, 42744, Note_on_c, 2, 60, 62
2, 42744, Note_on_c, 2, 54, 64
2, 42836, Control_c, 2, 64, 127
2, 42856, Note_off_c, 2, 54, 0
2, 42876, Note_off_c, 2, 60, 0
2, 42876, Note_off_c, 2, 58, 0
2, 42900, Note_off_c, 2, 62, 0
2, 43256, Note_on_c, 2, 38, 76
2, 43260, Control_c, 2, 64, 0
2, 43268, Note_on_c, 2, 67, 79
2, 43268, Note_on_c, 2, 55, 74
2, 43272, Note_on_c, 2, 60, 76
2, 43272, Note_on_c, 2, 63, 79
2, 43296, Note_on_c, 2, 50, 0
2, 43384, Control_c, 2, 64, 127
2, 43404, Note_off_c, 2, 67, 0
2, 43436, Note_off_c, 2, 55, 0
2, 43468, Note_off_c, 2, 38, 0
2, 43540, Note_off_c, 2, 60, 0
2, 43548, Note_off_c, 2, 63, 0
2, 43588, Note_on_c, 2, 57, 55
2, 43592, Note_on_c, 2, 69, 73
2, 43636, Note_on_c, 2, 57, 0
2, 43656, Note_on_c, 2, 69, 0
2, 43768, Control_c, 2, 64, 0
2, 43780, Note_on_c, 2, 53, 59
2, 43780, Note_on_c, 2, 70, 74
2, 43780, Note_on_c, 2, 58, 63
2, 43792, Note_on_c, 2, 43, 60
2, 43792, Note_on_c, 2, 62, 73
2, 43792, Note_on_c, 2, 65, 65
2, 43896, Control_c, 2, 64, 127
2, 43972, Note_off_c, 2, 58, 0
2, 43980, Note_off_c, 2, 62, 0
2, 43992, Note_off_c, 2, 65, 0
2, 44044, Note_off_c, 2, 70, 0
2, 44104, Note_off_c, 2, 43, 0
2, 44296, Note_on_c, 2, 58, 76
2, 44308, Note_on_c, 2, 53, 0
2, 44328, Note_on_c, 2, 58, 0
2, 44448, Note_on_c, 2, 67, 74
2, 44540, Note_on_c, 2, 67, 0
2, 44716, Control_c, 2, 64, 0
2, 44744, Note_on_c, 2, 55, 55
2, 44744, Note_on_c, 2, 74, 73
2, 44744, Note_on_c, 2, 67, 74
2, 44756, Note_on_c, 2, 45, 53
2, 44756, Note_on_c, 2, 62, 62
2, 44880, Control_c, 2, 64, 127
2, 44956, Note_off_c, 2, 67, 0
2, 44976, Note_off_c, 2, 62, 0
2, 44988, Note_off_c, 2, 55, 0
2, 45076, Note_off_c, 2, 74, 0
2, 45248, Note_on_c, 2, 72, 40
2, 45248, Control_c, 2, 64, 0
2, 45256, Note_on_c, 2, 54, 70
2, 45260, Note_on_c, 2, 66, 69
2, 45272, Note_on_c, 2, 60, 45
2, 45360, Control_c, 2, 64, 127
2, 45380, Note_off_c, 2, 66, 0
2, 45404, Note_off_c, 2, 60, 0
2, 45404, Note_off_c, 2, 72, 0
2, 45412, Note_off_c, 2, 45, 0
2, 45428, Note_off_c, 2, 54, 0
2, 45748, Control_c, 2, 64, 0
2, 45760, Note_on_c, 2, 70, 64
2, 45760, Note_on_c, 2, 53, 59
2, 45760, Note_on_c, 2, 43, 56
2, 45760, Note_on_c, 2, 62, 64
2, 45760, Note_on_c, 2, 65, 60
2, 45896, Control_c, 2, 64, 127
2, 46104, Note_off_c, 2, 43, 0
2, 46252, Note_off_c, 2, 70, 0
2, 46252, Note_on_c, 2, 67, 74
2, 46276, Note_on_c, 2, 58, 61
2, 46284, Note_on_c, 2, 65, 0
2, 46296, Note_on_c, 2, 62, 0
2, 46308, Note_on_c, 2, 53, 0
2, 46320, Note_on_c, 2, 67, 0
2, 46332, Note_on_c, 2, 58, 0
2, 46596, Note_on_c, 2, 56, 61
2, 46596, Note_on_c, 2, 65, 65
2, 46596, Note_on_c, 2, 72, 70
2, 46596, Note_on_c, 2, 61, 56
2, 46600, Note_on_c, 2, 46, 69
2, 46628, Control_c, 2, 64, 0
2, 46740, Note_off_c, 2, 65, 0
2, 46744, Control_c, 2, 64, 127
2, 46764, Note_off_c, 2, 61, 0
2, 46828, Note_off_c, 2, 72, 0
2, 46828, Note_off_c, 2, 56, 0
2, 46860, Note_off_c, 2, 46, 0
2, 47084, Note_on_c, 2, 72, 70
2, 47096, Note_on_c, 2, 55, 62
2, 47096, Note_on_c, 2, 64, 68
2, 47100, Note_on_c, 2, 61, 54
2, 47100, Note_on_c, 2, 52, 53
2, 47100, Control_c, 2, 64, 0
2, 47108, Note_on_c, 2, 67, 59
2, 47216, Control_c, 2, 64, 127
2, 47268, Note_off_c, 2, 55, 0
2, 47280, Note_off_c, 2, 67, 0
2, 47280, Note_off_c, 2, 72, 0
2, 47292, Note_off_c, 2, 52, 0
2, 47292, Note_off_c, 2, 64, 0
2, 47312, Note_off_c, 2, 61, 0
2, 47600, Note_on_c, 2, 47, 71
2, 47728, Note_on_c, 2, 47, 0
2, 47732, Control_c, 2, 64, 0
2, 47760, Note_on_c, 2, 48, 55
2, 47760, Note_on_c, 2, 63, 64
2, 47760, Note_on_c, 2, 55, 55
2, 47760, Note_on_c, 2, 58, 60
2, 47772, Note_on_c, 2, 65, 70
2, 47888, Control_c, 2, 64, 127
2, 48000, Note_off_c, 2, 55, 0
2, 48116, Note_off_c, 2, 63, 0
2, 48116, Note_on_c, 2, 55, 56
2, 48128, Note_on_c, 2, 58, 0
2, 48232, Note_on_c, 2, 55, 0
2, 48284, Note_on_c, 2, 56, 65
2, 48472, Note_on_c, 2, 56, 0
2, 48620, Note_on_c, 2, 51, 69
2, 48624, Note_on_c, 2, 57, 61
2, 48636, Control_c, 2, 64, 0
2, 48656, Note_off_c, 2, 48, 0
2, 48792, Control_c, 2, 64, 127
2, 49272, Note_on_c, 2, 41, 55
2, 49304, Note_on_c, 2, 51, 0
2, 49316, Note_on_c, 2, 65, 0
2, 49324, Note_on_c, 2, 57, 0
2, 49336, Note_on_c, 2, 41, 0
2, 49604, Note_on_c, 2, 60, 63
2, 49604, Note_on_c, 2, 56, 64
2, 49604, Note_on_c, 2, 63, 73
2, 49604, Note_on_c, 2, 53, 64
2, 49604, Note_on_c, 2, 46, 80
2, 49632, Control_c, 2, 64, 0
2, 49780, Control_c, 2, 64, 127
2, 49856, Note_off_c, 2, 56, 0
2, 49876, Note_off_c, 2, 53, 0
2, 49888, Note_off_c, 2, 63, 0
2, 49888, Note_off_c, 2, 60, 0
2, 50116, Note_on_c, 2, 63, 80
2, 50128, Note_on_c, 2, 60, 65
2, 50128, Note_on_c, 2, 53, 82
2, 50128, Note_on_c, 2, 56, 84
2, 50188, Note_on_c, 2, 56, 0
2, 50196, Note_on_c, 2, 53, 0
2, 50232, Note_on_c, 2, 60, 0
2, 50240, Note_on_c, 2, 63, 0
2, 50284, Control_c, 2, 64, 0
2, 50304, Note_on_c, 2, 60, 46
2, 50304, Note_on_c, 2, 63, 46
2, 50316, Note_on_c, 2, 56, 47
2, 50316, Note_on_c, 2, 53, 40
2, 50520, Note_on_c, 2, 56, 0
2, 50532, Note_on_c, 2, 53, 0
2, 50532, Note_on_c, 2, 63, 0
2, 50532, Note_on_c, 2, 60, 0
2, 50624, Note_on_c, 2, 63, 54
2, 50636, Note_on_c, 2, 56, 46
2, 50636, Note_on_c, 2, 60, 40
2, 50636, Note_on_c, 2, 53, 53
2, 50648, Note_on_c, 2, 34, 76
2, 50716, Note_on_c, 2, 56, 0
2, 50740, Note_on_c, 2, 53, 0
2, 50752, Note_on_c, 2, 60, 0
2, 50752, Note_on_c, 2, 63, 0
2, 50824, Note_on_c, 2, 63, 39
2, 50828, Note_on_c, 2, 60, 41
2, 50836, Note_on_c, 2, 56, 39
2, 50836, Note_on_c, 2, 53, 39
2, 50940, Note_on_c, 2, 56, 0
2, 50972, Note_on_c, 2, 53, 0
2, 50972, Note_on_c, 2, 60, 0
2, 50972, Note_on_c, 2, 63, 0
2, 51296, Note_on_c, 2, 60, 47
2, 51296, Note_on_c, 2, 56, 50
2, 51296, Note_on_c, 2, 63, 57
2, 51308, Note_on_c, 2, 53, 49
2, 51312, Control_c, 2, 64, 127
2, 51356, Note_off_c, 2, 53, 0
2, 51356, Note_off_c, 2, 56, 0
2, 51356, Note_off_c, 2, 60, 0
2, 51392, Note_off_c, 2, 63, 0
2, 51512, Note_off_c, 2, 46, 0
2, 51624, Note_on_c, 2, 67, 69
2, 51624, Note_on_c, 2, 63, 51
2, 51624, Note_on_c, 2, 59, 54
2, 51636, Note_on_c, 2, 55, 39
2, 51636, Note_on_c, 2, 61, 53
2, 51704, Note_on_c, 2, 34, 0
2, 51728, Control_c, 2, 64, 0
2, 51880, Control_c, 2, 64, 127
2, 52292, Control_c, 2, 64, 0
2, 52304, Note_on_c, 2, 45, 57
2, 52308, Note_on_c, 2, 61, 69
2, 52308, Note_on_c, 2, 55, 64
2, 52308, Note_on_c, 2, 67, 71
2, 52468, Note_on_c, 2, 55, 0
2, 52468, Note_on_c, 2, 59, 0
2, 52496, Control_c, 2, 64, 127
2, 52500, Note_off_c, 2, 61, 0
2, 52532, Note_off_c, 2, 63, 0
2, 52600, Note_off_c, 2, 45, 0
2, 52820, Note_on_c, 2, 58, 56
2, 52820, Control_c, 2, 64, 0
2, 52832, Note_on_c, 2, 60, 70
2, 52832, Note_on_c, 2, 44, 50
2, 52832, Note_on_c, 2, 51, 63
2, 52980, Note_on_c, 2, 61, 0
2, 52980, Note_on_c, 2, 55, 0
2, 52988, Control_c, 2, 64, 127
2, 52992, Note_off_c, 2, 67, 0
2, 53136, Note_off_c, 2, 58, 0
2, 53308, Note_on_c, 2, 56, 63
2, 53388, Note_on_c, 2, 60, 0
2, 53400, Note_on_c, 2, 51, 0
2, 53420, Note_on_c, 2, 56, 0
2, 53432, Note_on_c, 2, 44, 0
2, 53724, Note_on_c, 2, 67, 0
2, 53776, Control_c, 2, 64, 0
2, 53796, Note_on_c, 2, 58, 68
2, 53808, Note_on_c, 2, 55, 58
2, 53808, Note_on_c, 2, 43, 53
2, 53808, Note_on_c, 2, 53, 57
2, 53936, Control_c, 2, 64, 127
2, 54124, Note_on_c, 2, 63, 92
2, 54160, Note_on_c, 2, 58, 0
2, 54236, Note_on_c, 2, 53, 0
2, 54236, Note_on_c, 2, 55, 0
2, 54260, Note_on_c, 2, 63, 0
2, 54324, Note_on_c, 2, 63, 79
2, 54428, Note_on_c, 2, 43, 0
2, 54460, Note_on_c, 2, 63, 0
2, 54616, Note_on_c, 2, 63, 74
2, 54700, Note_on_c, 2, 63, 0
2, 54792, Note_on_c, 2, 63, 68
2, 54792, Control_c, 2, 64, 0
2, 54804, Note_on_c, 2, 51, 64
2, 54804, Note_on_c, 2, 42, 68
2, 54804, Note_on_c, 2, 57, 62
2, 54804, Note_on_c, 2, 61, 69
2, 55020, Control_c, 2, 64, 127
2, 55148, Note_off_c, 2, 63, 0
2, 55212, Note_off_c, 2, 51, 0
2, 55264, Note_off_c, 2, 61, 0
2, 55264, Note_off_c, 2, 42, 0
2, 55308, Note_on_c, 2, 63, 73
2, 55320, Note_on_c, 2, 57, 0
2, 55352, Note_on_c, 2, 63, 0
2, 55640, Note_on_c, 2, 51, 60
2, 55640, Note_on_c, 2, 58, 56
2, 55644, Note_on_c, 2, 56, 53
2, 55700, Control_c, 2, 64, 0
2, 55804, Note_on_c, 2, 41, 52
2, 55832, Control_c, 2, 64, 127
2, 55936, Note_off_c, 2, 51, 0
2, 55976, Note_off_c, 2, 56, 0
2, 55988, Note_off_c, 2, 58, 0
2, 56324, Note_on_c, 2, 51, 69
2, 56324, Note_on_c, 2, 56, 56
2, 56388, Note_on_c, 2, 56, 0
2, 56400, Note_on_c, 2, 51, 0
2, 56412, Note_on_c, 2, 41, 0
2, 56644, Note_on_c, 2, 58, 79
2, 56816, Note_on_c, 2, 70, 74
2, 56828, Note_on_c, 2, 65, 74
2, 56828, Note_on_c, 2, 53, 58
2, 56844, Note_on_c, 2, 43, 53
2, 56848, Control_c, 2, 64, 0
2, 57012, Control_c, 2, 64, 127
2, 57148, Note_off_c, 2, 58, 0
2, 57224, Note_off_c, 2, 43, 0
2, 57284, Note_off_c, 2, 65, 0
2, 57352, Note_on_c, 2, 58, 53
2, 57372, Note_on_c, 2, 70, 0
2, 57392, Note_on_c, 2, 53, 0
2, 57404, Note_on_c, 2, 58, 0
2, 57784, Control_c, 2, 64, 0
2, 57816, Note_on_c, 2, 58, 63
2, 57828, Note_on_c, 2, 70, 63
2, 57828, Note_on_c, 2, 68, 63
2, 57828, Note_on_c, 2, 46, 63
2, 57828, Note_on_c, 2, 63, 56
2, 57844, Note_on_c, 2, 60, 44
2, 57904, Control_c, 2, 64, 127
2, 57912, Note_off_c, 2, 68, 0
2, 57928, Note_off_c, 2, 63, 0
2, 57928, Note_off_c, 2, 70, 0
2, 57928, Note_off_c, 2, 58, 0
2, 57952, Note_off_c, 2, 60, 0
2, 58084, Note_off_c, 2, 46, 0
2, 58144, Note_on_c, 2, 63, 79
2, 58236, Note_on_c, 2, 63, 0
2, 58340, Note_on_c, 2, 63, 65
2, 58452, Note_on_c, 2, 63, 0
2, 58660, Note_on_c, 2, 63, 65
2, 58736, Note_on_c, 2, 63, 0
2, 58848, Note_on_c, 2, 56, 61
2, 58848, Note_on_c, 2, 63, 70
2, 58848, Note_on_c, 2, 51, 74
2, 58852, Control_c, 2, 64, 0
2, 58860, Note_on_c, 2, 53, 59
2, 58860, Note_on_c, 2, 60, 61
2, 58944, Control_c, 2, 64, 127
2, 59052, Note_off_c, 2, 51, 0
2, 59084, Note_off_c, 2, 63, 0
2, 59104, Note_off_c, 2, 53, 0
2, 59332, Note_off_c, 2, 56, 0
2, 59352, Note_on_c, 2, 63, 68
2, 59384, Note_on_c, 2, 60, 0
2, 59412, Note_on_c, 2, 63, 0
2, 59640, Note_on_c, 2, 65, 68
2, 59640, Note_on_c, 2, 72, 80
2, 59640, Note_on_c, 2, 61, 65
2, 59640, Note_on_c, 2, 68, 65
2, 59688, Note_on_c, 2, 56, 49
2, 59704, Note_on_c, 2, 46, 56
2, 59728, Control_c, 2, 64, 0
2, 59736, Control_c, 2, 64, 0
2, 59808, Note_on_c, 2, 34, 53
2, 60156, Note_on_c, 2, 46, 79
2, 60244, Note_on_c, 2, 34, 0
2, 60308, Note_on_c, 2, 46, 0
2, 60332, Note_on_c, 2, 36, 59
2, 60608, Note_on_c, 2, 46, 0
2, 60840, Note_on_c, 2, 36, 0
2, 60840, Note_on_c, 2, 37, 53
2, 61128, Note_on_c, 2, 56, 0
2, 61304, Note_on_c, 2, 37, 0
2, 61328, Note_on_c, 2, 38, 57
2, 61608, Note_on_c, 2, 61, 0
2, 61608, Note_on_c, 2, 65, 0
2, 61708, Note_on_c, 2, 68, 0
2, 61720, Note_on_c, 2, 72, 0
2, 61832, Note_on_c, 2, 39, 70
2, 61864, Note_on_c, 2, 38, 0
2, 62172, Note_on_c, 2, 75, 76
2, 62184, Note_on_c, 2, 68, 79
2, 62184, Note_on_c, 2, 72, 46
2, 62184, Note_on_c, 2, 61, 86
2, 62316, Control_c, 2, 64, 127
2, 62404, Note_off_c, 2, 39, 0
2, 62444, Note_off_c, 2, 68, 0
2, 62456, Note_off_c, 2, 75, 0
2, 62468, Note_off_c, 2, 61, 0
2, 62488, Note_off_c, 2, 72, 0
2, 62840, Control_c, 2, 64, 0
2, 62860, Note_on_c, 2, 45, 63
2, 62864, Note_on_c, 2, 61, 68
2, 62864, Note_on_c, 2, 55, 73
2, 62864, Note_on_c, 2, 75, 74
2, 62876, Note_on_c, 2, 66, 74
2, 62876, Note_on_c, 2, 71, 69
2, 63236, Control_c, 2, 64, 127
2, 63256, Note_off_c, 2, 75, 0
2, 63340, Note_off_c, 2, 71, 0
2, 63384, Note_off_c, 2, 61, 0
2, 63396, Note_on_c, 2, 75, 65
2, 63420, Note_on_c, 2, 45, 0
2, 63432, Note_on_c, 2, 66, 0
2, 63432, Note_on_c, 2, 55, 0
2, 63460, Note_on_c, 2, 75, 0
2, 63688, Note_on_c, 2, 58, 70
2, 63688, Note_on_c, 2, 75, 80
2, 63692, Control_c, 2, 64, 0
2, 63700, Note_on_c, 2, 67, 84
2, 63700, Note_on_c, 2, 63, 73
2, 63700, Note_on_c, 2, 44, 69
2, 63700, Note_on_c, 2, 51, 73
2, 63840, Control_c, 2, 64, 127
2, 64076, Note_off_c, 2, 63, 0
2, 64096, Note_off_c, 2, 75, 0
2, 64108, Note_off_c, 2, 67, 0
2, 64192, Note_on_c, 2, 72, 70
2, 64340, Note_on_c, 2, 72, 0
2, 64404, Note_on_c, 2, 70, 70
2, 64500, Note_on_c, 2, 44, 0
2, 64580, Note_on_c, 2, 51, 0
2, 64580, Note_on_c, 2, 58, 0
2, 64692, Note_on_c, 2, 68, 70
2, 64712, Note_on_c, 2, 70, 0
2, 64752, Note_on_c, 2, 68, 0
2, 64844, Control_c, 2, 64, 0
2, 64864, Note_on_c, 2, 46, 73
2, 64864, Note_on_c, 2, 56, 70
2, 64876, Note_on_c, 2, 67, 79
2, 64876, Note_on_c, 2, 62, 76
2, 64892, Note_on_c, 2, 70, 74
2, 64980, Control_c, 2, 64, 127
2, 65000, Note_off_c, 2, 67, 0
2, 65012, Note_off_c, 2, 46, 0
2, 65020, Note_off_c, 2, 70, 0
2, 65032, Note_off_c, 2, 56, 0
2, 65056, Note_off_c, 2, 62, 0
2, 65328, Control_c, 2, 64, 0
2, 65336, Note_on_c, 2, 58, 84
2, 65336, Note_on_c, 2, 67, 74
2, 65348, Note_on_c, 2, 56, 73
2, 65360, Note_on_c, 2, 47, 74
2, 65376, Note_on_c, 2, 58, 0
2, 65376, Note_on_c, 2, 59, 86
2, 65452, Note_on_c, 2, 56, 0
2, 65472, Note_on_c, 2, 59, 0
2, 65476, Control_c, 2, 64, 127
2, 65496, Note_off_c, 2, 67, 0
2, 65584, Note_off_c, 2, 47, 0
2, 65664, Control_c, 2, 64, 0
2, 65672, Note_on_c, 2, 58, 76
2, 65676, Note_on_c, 2, 63, 76
2, 65684, Note_on_c, 2, 48, 71
2, 65688, Note_on_c, 2, 55, 63
2, 65900, Control_c, 2, 64, 127
2, 66492, Note_off_c, 2, 55, 0
2, 66524, Note_off_c, 2, 58, 0
2, 66532, Note_off_c, 2, 48, 0
2, 66536, Note_off_c, 2, 63, 0
2, 66556, Note_on_c, 2, 46, 53
2, 66668, Note_on_c, 2, 46, 0
2, 66668, Note_on_c, 2, 45, 82
2, 66692, Control_c, 2, 64, 0
2, 66848, Note_on_c, 2, 44, 86
2, 66860, Note_on_c, 2, 45, 0
2, 67168, Note_on_c, 2, 70, 80
2, 67180, Note_on_c, 2, 59, 77
2, 67180, Note_on_c, 2, 63, 84
2, 67180, Note_on_c, 2, 65, 77
2, 67300, Note_on_c, 2, 70, 0
2, 67344, Note_on_c, 2, 68, 76
2, 67404, Control_c, 2, 64, 127
2, 67476, Note_off_c, 2, 65, 0
2, 67476, Note_off_c, 2, 63, 0
2, 67496, Note_off_c, 2, 59, 0
2, 67520, Note_off_c, 2, 68, 0
2, 67668, Note_on_c, 2, 62, 74
2, 67668, Note_on_c, 2, 67, 76
2, 67668, Note_on_c, 2, 58, 79
2, 67680, Note_on_c, 2, 65, 66
2, 67736, Note_on_c, 2, 44, 0
2, 67760, Control_c, 2, 64, 0
2, 67844, Note_on_c, 2, 39, 53
2, 68008, Control_c, 2, 64, 127
2, 68268, Note_off_c, 2, 67, 0
2, 68328, Note_off_c, 2, 65, 0
2, 68328, Note_on_c, 2, 68, 80
2, 68364, Note_on_c, 2, 62, 0
2, 68396, Note_on_c, 2, 39, 0
2, 68408, Note_on_c, 2, 58, 0
2, 68428, Note_on_c, 2, 68, 0
2, 68664, Note_on_c, 2, 67, 80
2, 68664, Note_on_c, 2, 58, 69
2, 68664, Note_on_c, 2, 61, 65
2, 68676, Note_on_c, 2, 64, 64
2, 68768, Control_c, 2, 64, 0
2, 68836, Note_on_c, 2, 40, 57
2, 68940, Control_c, 2, 64, 127
2, 69240, Note_off_c, 2, 67, 0
2, 69324, Note_on_c, 2, 70, 70
2, 69336, Note_on_c, 2, 52, 48
2, 69348, Note_on_c, 2, 64, 0
2, 69348, Note_on_c, 2, 61, 0
2, 69396, Note_on_c, 2, 70, 0
2, 69408, Note_on_c, 2, 58, 0
2, 69628, Note_on_c, 2, 40, 0
2, 69680, Note_on_c, 2, 65, 55
2, 69680, Note_on_c, 2, 63, 54
2, 69680, Note_on_c, 2, 56, 45
2, 69680, Note_on_c, 2, 60, 49
2, 69780, Note_on_c, 2, 52, 0
2, 69784, Control_c, 2, 64, 0
2, 69844, Note_on_c, 2, 41, 46
2, 70204, Note_on_c, 2, 53, 64
2, 70316, Note_on_c, 2, 53, 0
2, 70356, Note_on_c, 2, 41, 0
2, 70360, Note_on_c, 2, 45, 68
2, 70440, Control_c, 2, 64, 127
2, 70468, Note_off_c, 2, 63, 0
2, 70492, Note_off_c, 2, 60, 0
2, 70492, Note_off_c, 2, 65, 0
2, 70524, Note_off_c, 2, 56, 0
2, 70832, Control_c, 2, 64, 0
2, 70852, Note_off_c, 2, 45, 0
2, 70852, Note_on_c, 2, 67, 57
2, 70852, Note_on_c, 2, 59, 65
2, 70864, Note_on_c, 2, 64, 54
2, 70864, Note_on_c, 2, 56, 53
2, 70864, Note_on_c, 2, 62, 62
2, 70880, Note_on_c, 2, 46, 61
2, 71336, Note_on_c, 2, 67, 0
2, 71368, Note_on_c, 2, 64, 0
2, 71380, Note_on_c, 2, 34, 60
2, 71404, Note_on_c, 2, 46, 0
2, 71404, Control_c, 2, 64, 127
2, 71416, Note_off_c, 2, 62, 0
2, 71436, Note_off_c, 2, 59, 0
2, 71456, Note_off_c, 2, 56, 0
2, 71588, Note_off_c, 2, 34, 0
2, 71716, Note_on_c, 2, 63, 80
2, 71716, Note_on_c, 2, 39, 65
2, 71716, Control_c, 2, 64, 0
2, 71880, Control_c, 2, 64, 127
2, 72044, Note_off_c, 2, 39, 0
2, 72240, Note_on_c, 2, 60, 76
2, 72240, Note_on_c, 2, 44, 80
2, 72244, Note_on_c, 2, 55, 76
2, 72308, Control_c, 2, 64, 0
2, 72368, Note_off_c, 2, 55, 0
2, 72392, Note_off_c, 2, 44, 0
2, 72392, Note_off_c, 2, 60, 0
2, 72536, Control_c, 2, 64, 127
2, 72740, Note_on_c, 2, 60, 61
2, 72752, Note_on_c, 2, 44, 68
2, 72752, Note_on_c, 2, 55, 56
2, 72808, Note_on_c, 2, 55, 0
2, 72880, Note_on_c, 2, 44, 0
2, 72884, Control_c, 2, 64, 0
2, 72892, Note_off_c, 2, 60, 0
2, 72924, Note_on_c, 2, 43, 49
2, 72924, Note_on_c, 2, 58, 57
2, 72948, Note_on_c, 2, 53, 31
2, 73128, Note_on_c, 2, 53, 0
2, 73128, Note_on_c, 2, 58, 0
2, 73240, Note_on_c, 2, 43, 0
2, 73260, Note_on_c, 2, 39, 50
2, 73372, Note_on_c, 2, 39, 0
2, 73392, Note_on_c, 2, 56, 53
2, 73392, Note_on_c, 2, 51, 51
2, 73396, Note_on_c, 2, 41, 48
2, 73616, Note_on_c, 2, 51, 0
2, 73628, Note_on_c, 2, 56, 0
2, 73880, Note_on_c, 2, 41, 0
2, 73880, Note_on_c, 2, 58, 54
2, 73880, Note_on_c, 2, 51, 53
2, 73884, Note_on_c, 2, 39, 61
2, 73892, Note_on_c, 2, 55, 54
2, 73956, Control_c, 2, 64, 127
2, 74028, Note_off_c, 2, 51, 0
2, 74040, Note_off_c, 2, 55, 0
2, 74040, Note_off_c, 2, 58, 0
2, 74072, Note_off_c, 2, 63, 0
2, 74084, Note_off_c, 2, 39, 0
2, 74368, Control_c, 2, 64, 0
2, 74388, Note_on_c, 2, 56, 64
2, 74388, Note_on_c, 2, 63, 73
2, 74388, Note_on_c, 2, 53, 63
2, 74388, Note_on_c, 2, 60, 64
2, 74400, Note_on_c, 2, 34, 64
2, 74400, Note_on_c, 2, 46, 68
2, 74472, Control_c, 2, 64, 127
2, 74496, Note_off_c, 2, 53, 0
2, 74508, Note_off_c, 2, 56, 0
2, 74528, Note_off_c, 2, 60, 0
2, 74560, Note_off_c, 2, 63, 0
2, 74932, Note_on_c, 2, 65, 76
2, 74944, Note_on_c, 2, 60, 61
2, 74944, Note_on_c, 2, 63, 65
2, 74948, Note_on_c, 2, 56, 65
2, 75012, Note_on_c, 2, 34, 0
2, 75036, Note_on_c, 2, 46, 0
2, 75060, Note_on_c, 2, 56, 0
2, 75180, Note_on_c, 2, 65, 0
2, 75260, Note_on_c, 2, 63, 0
2, 75264, Note_on_c, 2, 67, 68
2, 75276, Note_on_c, 2, 60, 0
2, 75316, Note_on_c, 2, 67, 0
2, 75424, Note_on_c, 2, 68, 80
2, 75508, Note_on_c, 2, 68, 0
2, 75740, Note_on_c, 2, 70, 70
2, 75744, Note_on_c, 2, 60, 57
2, 75752, Note_on_c, 2, 65, 66
2, 75852, Control_c, 2, 64, 0
2, 75920, Note_on_c, 2, 39, 64
2, 75968, Control_c, 2, 64, 127
2, 75976, Note_off_c, 2, 65, 0
2, 76008, Note_off_c, 2, 70, 0
2, 76072, Note_off_c, 2, 39, 0
2, 76100, Note_off_c, 2, 60, 0
2, 76268, Note_on_c, 2, 60, 63
2, 76336, Note_on_c, 2, 60, 0
2, 76440, Note_on_c, 2, 55, 62
2, 76468, Note_on_c, 2, 55, 0
2, 76580, Note_on_c, 2, 70, 70
2, 76588, Note_on_c, 2, 65, 74
2, 76652, Note_on_c, 2, 65, 0
2, 76672, Note_on_c, 2, 70, 0
2, 76724, Note_on_c, 2, 72, 53
2, 76824, Note_on_c, 2, 72, 0
2, 76856, Control_c, 2, 64, 0
2, 76884, Note_on_c, 2, 51, 65
2, 76884, Note_on_c, 2, 58, 64
2, 76896, Note_on_c, 2, 70, 65
2, 76896, Note_on_c, 2, 74, 66
2, 76896, Note_on_c, 2, 44, 61
2, 76900, Note_on_c, 2, 65, 77
2, 76916, Note_on_c, 2, 60, 62
2, 76976, Control_c, 2, 64, 127
2, 76996, Note_off_c, 2, 60, 0
2, 76996, Note_off_c, 2, 65, 0
2, 77032, Note_off_c, 2, 70, 0
2, 77040, Note_off_c, 2, 74, 0
2, 77196, Note_off_c, 2, 58, 0
2, 77408, Note_on_c, 2, 56, 79
2, 77440, Note_on_c, 2, 51, 0
2, 77460, Note_on_c, 2, 56, 0
2, 77460, Note_on_c, 2, 44, 0
2, 77564, Note_on_c, 2, 77, 76
2, 77572, Note_on_c, 2, 65, 79
2, 77624, Note_on_c, 2, 65, 0
2, 77656, Note_on_c, 2, 77, 0
2, 77728, Note_on_c, 2, 74, 69
2, 77848, Note_on_c, 2, 74, 0
2, 77896, Control_c, 2, 64, 0
2, 77908, Note_on_c, 2, 70, 63
2, 77908, Note_on_c, 2, 58, 46
2, 77908, Note_on_c, 2, 53, 57
2, 77908, Note_on_c, 2, 65, 55
2, 77920, Note_on_c, 2, 43, 38
2, 78056, Control_c, 2, 64, 127
2, 78212, Note_off_c, 2, 58, 0
2, 78376, Note_off_c, 2, 70, 0
2, 78440, Note_on_c, 2, 58, 42
2, 78492, Note_on_c, 2, 58, 0
2, 78504, Note_on_c, 2, 53, 0
2, 78516, Note_on_c, 2, 65, 0
2, 78588, Note_on_c, 2, 43, 0
2, 78588, Note_on_c, 2, 74, 74
2, 78708, Note_on_c, 2, 74, 0
2, 78740, Note_on_c, 2, 70, 88
2, 78860, Note_on_c, 2, 70, 0
2, 78908, Note_on_c, 2, 51, 56
2, 78920, Note_on_c, 2, 57, 46
2, 78920, Note_on_c, 2, 42, 58
2, 78920, Note_on_c, 2, 69, 70
2, 78924, Control_c, 2, 64, 0
2, 79084, Control_c, 2, 64, 127
2, 79248, Note_off_c, 2, 57, 0
2, 79380, Note_off_c, 2, 42, 0
2, 79432, Note_on_c, 2, 57, 65
2, 79488, Note_on_c, 2, 57, 0
2, 79496, Note_on_c, 2, 51, 0
2, 79560, Note_on_c, 2, 69, 0
2, 79572, Note_on_c, 2, 75, 65
2, 79584, Note_on_c, 2, 63, 74
2, 79644, Note_on_c, 2, 63, 0
2, 79704, Note_on_c, 2, 75, 0
2, 79736, Note_on_c, 2, 69, 68
2, 79816, Note_on_c, 2, 69, 0
2, 79896, Control_c, 2, 64, 0
2, 79916, Note_on_c, 2, 51, 54
2, 79928, Note_on_c, 2, 41, 48
2, 79928, Note_on_c, 2, 68, 65
2, 79928, Note_on_c, 2, 56, 42
2, 80020, Control_c, 2, 64, 127
2, 80060, Note_off_c, 2, 41, 0
2, 80080, Note_off_c, 2, 51, 0
2, 80100, Note_off_c, 2, 56, 0
2, 80180, Note_off_c, 2, 68, 0
2, 80424, Note_on_c, 2, 60, 56
2, 80436, Note_on_c, 2, 56, 53
2, 80448, Note_on_c, 2, 63, 29
2, 80464, Note_on_c, 2, 63, 0
2, 80484, Note_on_c, 2, 60, 0
2, 80492, Note_on_c, 2, 56, 0
2, 80604, Note_on_c, 2, 72, 48
2, 80744, Note_on_c, 2, 72, 0
2, 80756, Note_on_c, 2, 75, 65
2, 80844, Note_on_c, 2, 75, 0
2, 80916, Control_c, 2, 64, 0
2, 80924, Note_on_c, 2, 77, 65
2, 80924, Note_on_c, 2, 69, 55
2, 80940, Note_on_c, 2, 47, 62
2, 80940, Note_on_c, 2, 57, 57
2, 80940, Note_on_c, 2, 63, 45
2, 80964, Note_on_c, 2, 73, 27
2, 81076, Control_c, 2, 64, 127
2, 81204, Note_off_c, 2, 57, 0
2, 81424, Note_off_c, 2, 63, 0
2, 81448, Note_off_c, 2, 77, 0
2, 81448, Note_on_c, 2, 57, 60
2, 81460, Note_on_c, 2, 73, 0
2, 81460, Note_on_c, 2, 69, 0
2, 81500, Note_on_c, 2, 57, 0
2, 81512, Note_on_c, 2, 47, 0
2, 81780, Note_on_c, 2, 75, 63
2, 81788, Note_on_c, 2, 72, 40
2, 81788, Note_on_c, 2, 68, 64
2, 81788, Note_on_c, 2, 46, 65
2, 81792, Note_on_c, 2, 63, 45
2, 81792, Note_on_c, 2, 58, 54
2, 81792, Control_c, 2, 64, 0
2, 81928, Control_c, 2, 64, 127
2, 82036, Note_off_c, 2, 75, 0
2, 82080, Note_off_c, 2, 68, 0
2, 82080, Note_off_c, 2, 72, 0
2, 82112, Note_off_c, 2, 58, 0
2, 82112, Note_off_c, 2, 63, 0
2, 82472, Note_on_c, 2, 58, 84
2, 82524, Note_on_c, 2, 58, 0
2, 82564, Note_on_c, 2, 46, 0
2, 82816, Note_on_c, 2, 63, 84
2, 82888, Note_on_c, 2, 63, 0
2, 82980, Note_on_c, 2, 63, 84
2, 82980, Control_c, 2, 64, 0
2, 82992, Note_on_c, 2, 46, 76
2, 82992, Note_on_c, 2, 56, 74
2, 83004, Note_on_c, 2, 60, 66
2, 83100, Control_c, 2, 64, 127
2, 83140, Note_on_c, 2, 65, 74
2, 83164, Note_on_c, 2, 56, 0
2, 83476, Note_on_c, 2, 34, 79
2, 83488, Note_on_c, 2, 60, 0
2, 83500, Note_on_c, 2, 63, 0
2, 83500, Note_on_c, 2, 67, 71
2, 83512, Note_on_c, 2, 65, 0
2, 83536, Note_on_c, 2, 34, 0
2, 83556, Note_on_c, 2, 46, 0
2, 83568, Note_on_c, 2, 67, 0
2, 83648, Note_on_c, 2, 68, 80
2, 83700, Note_on_c, 2, 68, 0
2, 83952, Note_on_c, 2, 70, 64
2, 83968, Note_on_c, 2, 56, 53
2, 83968, Note_on_c, 2, 65, 65
2, 83968, Note_on_c, 2, 61, 50
2, 83968, Note_on_c, 2, 46, 64
2, 83972, Control_c, 2, 64, 0
2, 84092, Control_c, 2, 64, 127
2, 84176, Note_off_c, 2, 61, 0
2, 84412, Note_off_c, 2, 65, 0
2, 84456, Note_on_c, 2, 61, 68
2, 84488, Note_on_c, 2, 46, 0
2, 84488, Note_on_c, 2, 70, 0
2, 84500, Note_on_c, 2, 56, 0
2, 84512, Note_on_c, 2, 61, 0
2, 84932, Note_on_c, 2, 75, 57
2, 84940, Note_on_c, 2, 72, 35
2, 84944, Control_c, 2, 64, 0
2, 84956, Note_on_c, 2, 63, 51
2, 84956, Note_on_c, 2, 70, 53
2, 84956, Note_on_c, 2, 48, 53
2, 84956, Note_on_c, 2, 67, 59
2, 84976, Note_on_c, 2, 58, 46
2, 85064, Control_c, 2, 64, 127
2, 85160, Note_off_c, 2, 63, 0
2, 85236, Note_off_c, 2, 67, 0
2, 85300, Note_off_c, 2, 75, 0
2, 85324, Note_off_c, 2, 72, 0
2, 85396, Note_off_c, 2, 70, 0
2, 85468, Note_on_c, 2, 63, 68
2, 85492, Note_on_c, 2, 48, 0
2, 85512, Note_on_c, 2, 63, 0
2, 85512, Note_on_c, 2, 58, 0
2, 85964, Control_c, 2, 64, 0
2, 85972, Note_on_c, 2, 77, 74
2, 85972, Note_on_c, 2, 46, 65
2, 85976, Note_on_c, 2, 68, 76
2, 85976, Note_on_c, 2, 61, 60
2, 85976, Note_on_c, 2, 56, 63
2, 85976, Note_on_c, 2, 73, 74
2, 86080, Control_c, 2, 64, 127
2, 86228, Note_off_c, 2, 77, 0
2, 86252, Note_off_c, 2, 73, 0
2, 86304, Note_on_c, 2, 75, 73
2, 86368, Note_on_c, 2, 68, 0
2, 86392, Note_on_c, 2, 46, 0
2, 86444, Note_on_c, 2, 56, 0
2, 86464, Note_on_c, 2, 61, 0
2, 86476, Note_on_c, 2, 75, 0
2, 86508, Note_on_c, 2, 73, 60
2, 86600, Note_on_c, 2, 73, 0
2, 86824, Note_on_c, 2, 72, 70
2, 86832, Note_on_c, 2, 55, 65
2, 86836, Note_on_c, 2, 69, 65
2, 86836, Note_on_c, 2, 61, 68
2, 86836, Note_on_c, 2, 64, 54
2, 86864, Control_c, 2, 64, 0
2, 86960, Control_c, 2, 64, 127
2, 87032, Note_off_c, 2, 72, 0
2, 87312, Note_on_c, 2, 73, 84
2, 87356, Note_on_c, 2, 69, 0
2, 87380, Note_on_c, 2, 64, 0
2, 87392, Note_on_c, 2, 61, 0
2, 87404, Note_on_c, 2, 73, 0
2, 87424, Note_on_c, 2, 55, 0
2, 87804, Note_on_c, 2, 58, 53
2, 87804, Note_on_c, 2, 75, 70
2, 87808, Note_on_c, 2, 68, 64
2, 87820, Note_on_c, 2, 65, 50
2, 87820, Note_on_c, 2, 51, 56
2, 87824, Note_on_c, 2, 44, 48
2, 87840, Control_c, 2, 64, 0
2, 87948, Control_c, 2, 64, 127
2, 88064, Note_off_c, 2, 75, 0
2, 88236, Note_off_c, 2, 68, 0
2, 88308, Note_on_c, 2, 72, 70
2, 88384, Note_on_c, 2, 65, 0
2, 88456, Note_on_c, 2, 72, 0
2, 88520, Note_on_c, 2, 44, 0
2, 88532, Note_on_c, 2, 70, 70
2, 88544, Note_on_c, 2, 51, 0
2, 88544, Note_on_c, 2, 58, 0
2, 88792, Note_on_c, 2, 68, 70
2, 88804, Note_on_c, 2, 70, 0
2, 88852, Note_on_c, 2, 68, 0
2, 88996, Note_on_c, 2, 52, 54
2, 88996, Note_on_c, 2, 63, 80
2, 88996, Note_on_c, 2, 58, 50
2, 88996, Note_on_c, 2, 70, 68
2, 89000, Control_c, 2, 64, 0
2, 89084, Note_off_c, 2, 63, 0
2, 89096, Note_on_c, 2, 64, 66
2, 89192, Control_c, 2, 64, 127
2, 89232, Note_off_c, 2, 70, 0
2, 89252, Note_off_c, 2, 64, 0
2, 89464, Note_off_c, 2, 58, 0
2, 89516, Note_on_c, 2, 67, 61
2, 89528, Note_on_c, 2, 52, 0
2, 89588, Note_on_c, 2, 67, 0
2, 89832, Note_on_c, 2, 63, 54
2, 89836, Control_c, 2, 64, 0
2, 89844, Note_on_c, 2, 56, 39
2, 89844, Note_on_c, 2, 60, 51
2, 89848, Note_on_c, 2, 65, 53
2, 89848, Note_on_c, 2, 46, 63
2, 89968, Control_c, 2, 64, 127
2, 89980, Note_off_c, 2, 63, 0
2, 89992, Note_off_c, 2, 65, 0
2, 89992, Note_off_c, 2, 60, 0
2, 90012, Note_off_c, 2, 56, 0
2, 90312, Note_on_c, 2, 34, 70
2, 90428, Control_c, 2, 64, 0
2, 90484, Note_on_c, 2, 60, 52
2, 90496, Note_on_c, 2, 53, 54
2, 90500, Note_on_c, 2, 63, 57
2, 90500, Note_on_c, 2, 56, 50
2, 90684, Note_on_c, 2, 56, 0
2, 90708, Note_on_c, 2, 53, 0
2, 90708, Note_on_c, 2, 60, 0
2, 90720, Note_on_c, 2, 63, 0
2, 90992, Note_on_c, 2, 60, 49
2, 90996, Note_on_c, 2, 56, 50
2, 90996, Note_on_c, 2, 63, 54
2, 90996, Note_on_c, 2, 53, 48
2, 91100, Control_c, 2, 64, 127
2, 91172, Note_off_c, 2, 56, 0
2, 91216, Note_off_c, 2, 53, 0
2, 91216, Note_off_c, 2, 60, 0
2, 91228, Note_off_c, 2, 63, 0
2, 91488, Note_on_c, 2, 56, 60
2, 91500, Note_on_c, 2, 63, 60
2, 91500, Note_on_c, 2, 53, 54
2, 91500, Note_on_c, 2, 60, 48
2, 91548, Note_on_c, 2, 60, 0
2, 91548, Note_on_c, 2, 53, 0
2, 91548, Note_on_c, 2, 56, 0
2, 91584, Note_on_c, 2, 63, 0
2, 91636, Note_on_c, 2, 46, 0
2, 91824, Note_on_c, 2, 67, 77
2, 91904, Note_on_c, 2, 34, 0
2, 91988, Control_c, 2, 64, 0
2, 92008, Note_on_c, 2, 33, 56
2, 92260, Control_c, 2, 64, 127
2, 92312, Control_c, 2, 64, 0
2, 92332, Note_on_c, 2, 61, 60
2, 92344, Note_on_c, 2, 55, 56
2, 92344, Note_on_c, 2, 59, 61
2, 92432, Control_c, 2, 64, 127
2, 92516, Note_on_c, 2, 45, 61
2, 92552, Note_on_c, 2, 33, 0
2, 92700, Note_on_c, 2, 59, 0
2, 92720, Note_on_c, 2, 55, 0
2, 92720, Note_on_c, 2, 61, 0
2, 92964, Note_on_c, 2, 45, 0
2, 92976, Control_c, 2, 64, 0
2, 92984, Note_on_c, 2, 44, 64
2, 92984, Note_on_c, 2, 63, 64
2, 93000, Note_on_c, 2, 60, 57
2, 93000, Note_on_c, 2, 55, 52
2, 93112, Control_c, 2, 64, 127
2, 93256, Note_off_c, 2, 55, 0
2, 93444, Note_off_c, 2, 60, 0
2, 93452, Note_off_c, 2, 63, 0
2, 93504, Note_on_c, 2, 51, 64
2, 93568, Note_on_c, 2, 51, 0
2, 93592, Note_on_c, 2, 44, 0
2, 93876, Note_on_c, 2, 67, 0
2, 93996, Note_on_c, 2, 63, 65
2, 93996, Note_on_c, 2, 43, 54
2, 94000, Control_c, 2, 64, 0
2, 94008, Note_on_c, 2, 53, 50
2, 94012, Note_on_c, 2, 58, 53
2, 94012, Note_on_c, 2, 55, 42
2, 94112, Control_c, 2, 64, 127
2, 94152, Note_off_c, 2, 55, 0
2, 94204, Note_off_c, 2, 58, 0
2, 94228, Note_off_c, 2, 63, 0
2, 94288, Note_off_c, 2, 43, 0
2, 94516, Note_on_c, 2, 58, 53
2, 94560, Note_on_c, 2, 58, 0
2, 94568, Note_on_c, 2, 53, 0
2, 94832, Note_on_c, 2, 75, 86
2, 94944, Note_on_c, 2, 75, 0
2, 95004, Note_on_c, 2, 42, 53
2, 95028, Note_on_c, 2, 51, 68
2, 95036, Note_on_c, 2, 57, 63
2, 95052, Note_on_c, 2, 63, 53
2, 95052, Note_on_c, 2, 66, 76
2, 95052, Control_c, 2, 64, 0
2, 95076, Note_on_c, 2, 71, 70
2, 95076, Note_on_c, 2, 69, 52
2, 95088, Note_on_c, 2, 75, 70
2, 95228, Control_c, 2, 64, 127
2, 95316, Note_off_c, 2, 75, 0
2, 95328, Note_off_c, 2, 51, 0
2, 95448, Note_off_c, 2, 71, 0
2, 95448, Note_off_c, 2, 63, 0
2, 95500, Note_off_c, 2, 69, 0
2, 95508, Note_off_c, 2, 66, 0
2, 95508, Note_off_c, 2, 57, 0
2, 95524, Note_on_c, 2, 75, 74
2, 95544, Note_on_c, 2, 42, 0
2, 95556, Note_on_c, 2, 51, 29
2, 95576, Note_on_c, 2, 51, 0
2, 95588, Note_on_c, 2, 75, 0
2, 95864, Note_on_c, 2, 70, 61
2, 95884, Note_on_c, 2, 60, 42
2, 95884, Note_on_c, 2, 63, 53
2, 95896, Note_on_c, 2, 67, 34
2, 95976, Control_c, 2, 64, 0
2, 96048, Note_on_c, 2, 51, 51
2, 96052, Note_on_c, 2, 41, 44
2, 96052, Note_on_c, 2, 56, 39
2, 96100, Control_c, 2, 64, 127
2, 96164, Note_off_c, 2, 41, 0
2, 96176, Note_off_c, 2, 51, 0
2, 96208, Note_off_c, 2, 56, 0
2, 96260, Note_off_c, 2, 60, 0
2, 96272, Note_off_c, 2, 63, 0
2, 96312, Note_off_c, 2, 67, 0
2, 96532, Note_on_c, 2, 60, 59
2, 96592, Note_on_c, 2, 60, 0
2, 96852, Note_on_c, 2, 63, 68
2, 96984, Note_on_c, 2, 63, 0
2, 97016, Control_c, 2, 64, 0
2, 97028, Note_on_c, 2, 56, 53
2, 97028, Note_on_c, 2, 64, 69
2, 97040, Note_on_c, 2, 60, 50
2, 97040, Note_on_c, 2, 46, 64
2, 97140, Control_c, 2, 64, 127
2, 97380, Note_off_c, 2, 56, 0
2, 97548, Note_on_c, 2, 56, 44
2, 97592, Note_on_c, 2, 46, 0
2, 97604, Note_on_c, 2, 56, 0
2, 97648, Note_on_c, 2, 64, 0
2, 97696, Note_on_c, 2, 70, 0
2, 97728, Note_on_c, 2, 60, 0
2, 98008, Note_on_c, 2, 58, 51
2, 98012, Control_c, 2, 64, 0
2, 98024, Note_on_c, 2, 60, 39
2, 98024, Note_on_c, 2, 62, 59
2, 98024, Note_on_c, 2, 50, 55
2, 98024, Note_on_c, 2, 65, 62
2, 98128, Control_c, 2, 64, 127
2, 98296, Note_off_c, 2, 58, 0
2, 98440, Note_off_c, 2, 65, 0
2, 98452, Note_off_c, 2, 62, 0
2, 98492, Note_off_c, 2, 60, 0
2, 98544, Note_on_c, 2, 58, 58
2, 98584, Note_on_c, 2, 58, 0
2, 98648, Note_on_c, 2, 50, 0
2, 98880, Note_on_c, 2, 45, 63
2, 99032, Control_c, 2, 64, 0
2, 99044, Note_off_c, 2, 45, 0
2, 99044, Note_on_c, 2, 63, 73
2, 99052, Note_on_c, 2, 56, 61
2, 99056, Note_on_c, 2, 53, 62
2, 99056, Note_on_c, 2, 60, 57
2, 99056, Note_on_c, 2, 46, 68
2, 99188, Control_c, 2, 64, 127
2, 99304, Note_off_c, 2, 63, 0
2, 99316, Note_off_c, 2, 56, 0
2, 99348, Note_off_c, 2, 60, 0
2, 99408, Note_off_c, 2, 53, 0
2, 99560, Note_on_c, 2, 63, 64
2, 99580, Note_on_c, 2, 46, 0
2, 99612, Note_on_c, 2, 63, 0
2, 99864, Note_on_c, 2, 70, 64
2, 99876, Note_on_c, 2, 61, 54
2, 99876, Note_on_c, 2, 68, 51
2, 99888, Note_on_c, 2, 65, 53
2, 100020, Control_c, 2, 64, 0
2, 100052, Note_on_c, 2, 46, 49
2, 100180, Control_c, 2, 64, 127
2, 100484, Note_off_c, 2, 46, 0
2, 100524, Note_on_c, 2, 48, 61
2, 100564, Control_c, 2, 64, 0
2, 101028, Note_on_c, 2, 49, 53
2, 101068, Note_on_c, 2, 48, 0
2, 101484, Note_on_c, 2, 49, 0
2, 101548, Note_on_c, 2, 50, 66
2, 101960, Note_on_c, 2, 65, 0
2, 101972, Note_on_c, 2, 68, 0
2, 101980, Note_on_c, 2, 70, 0
2, 102024, Note_on_c, 2, 61, 0
2, 102024, Note_on_c, 2, 51, 70
2, 102048, Note_on_c, 2, 50, 0
2, 102364, Note_on_c, 2, 72, 54
2, 102368, Note_on_c, 2, 69, 64
2, 102376, Note_on_c, 2, 61, 73
2, 102380, Note_on_c, 2, 64, 77
2, 102380, Note_on_c, 2, 67, 73
2, 102604, Control_c, 2, 64, 127
2, 102636, Note_off_c, 2, 51, 0
2, 102708, Note_off_c, 2, 64, 0
2, 102720, Note_off_c, 2, 67, 0
2, 102720, Note_off_c, 2, 61, 0
2, 102732, Note_off_c, 2, 69, 0
2, 102744, Note_off_c, 2, 72, 0
2, 103048, Note_on_c, 2, 55, 71
2, 103048, Note_on_c, 2, 72, 56
2, 103048, Control_c, 2, 64, 0
2, 103064, Note_on_c, 2, 61, 70
2, 103064, Note_on_c, 2, 67, 74
2, 103064, Note_on_c, 2, 45, 62
2, 103064, Note_on_c, 2, 63, 84
2, 103200, Control_c, 2, 64, 127
2, 103388, Note_off_c, 2, 72, 0
2, 103400, Note_off_c, 2, 61, 0
2, 103472, Note_off_c, 2, 45, 0
2, 103496, Note_off_c, 2, 55, 0
2, 103608, Note_on_c, 2, 72, 55
2, 103620, Note_on_c, 2, 63, 0
2, 103632, Note_on_c, 2, 67, 0
2, 103672, Note_on_c, 2, 72, 0
2, 103900, Note_on_c, 2, 75, 79
2, 103908, Note_on_c, 2, 58, 73
2, 103912, Note_on_c, 2, 63, 79
2, 103924, Note_on_c, 2, 44, 68
2, 103924, Note_on_c, 2, 67, 77
2, 103924, Note_on_c, 2, 51, 68
2, 103940, Control_c, 2, 64, 0
2, 104084, Control_c, 2, 64, 127
2, 104284, Note_off_c, 2, 63, 0
2, 104284, Note_off_c, 2, 75, 0
2, 104328, Note_off_c, 2, 67, 0
2, 104372, Note_on_c, 2, 72, 64
2, 104528, Note_on_c, 2, 72, 0
2, 104560, Note_on_c, 2, 70, 60
2, 104572, Note_on_c, 2, 44, 0
2, 104584, Note_on_c, 2, 58, 0
2, 104616, Note_on_c, 2, 51, 0
2, 104836, Note_on_c, 2, 70, 0
2, 104856, Note_on_c, 2, 68, 84
2, 104924, Note_on_c, 2, 68, 0
2, 105028, Control_c, 2, 64, 0
2, 105036, Note_on_c, 2, 56, 63
2, 105048, Note_on_c, 2, 67, 77
2, 105048, Note_on_c, 2, 46, 64
2, 105048, Note_on_c, 2, 70, 76
2, 105048, Note_on_c, 2, 62, 69
2, 105204, Control_c, 2, 64, 127
2, 105236, Note_off_c, 2, 70, 0
2, 105248, Note_off_c, 2, 67, 0
2, 105300, Note_off_c, 2, 62, 0
2, 105400, Note_off_c, 2, 56, 0
2, 105536, Note_off_c, 2, 46, 0
2, 105572, Note_on_c, 2, 67, 64
2, 105616, Note_on_c, 2, 67, 0
2, 105868, Note_on_c, 2, 46, 74
2, 105880, Note_on_c, 2, 63, 68
2, 105904, Control_c, 2, 64, 0
2, 106376, Note_on_c, 2, 39, 50
2, 106376, Note_on_c, 2, 58, 64
2, 106392, Note_on_c, 2, 60, 55
2, 106392, Note_on_c, 2, 53, 58
2, 106480, Note_on_c, 2, 46, 0
2, 106504, Control_c, 2, 64, 127
2, 106576, Note_off_c, 2, 39, 0
2, 106628, Note_off_c, 2, 53, 0
2, 106652, Note_off_c, 2, 60, 0
2, 106664, Note_off_c, 2, 58, 0
2, 106692, Note_off_c, 2, 63, 0
2, 106888, Note_on_c, 2, 49, 74
2, 107020, Control_c, 2, 64, 0
2, 107028, Note_off_c, 2, 49, 0
2, 107064, Note_on_c, 2, 50, 79
2, 107064, Note_on_c, 2, 55, 64
2, 107064, Note_on_c, 2, 67, 70
2, 107064, Note_on_c, 2, 60, 61
2, 107064, Note_on_c, 2, 63, 68
2, 107240, Note_on_c, 2, 55, 0
2, 107252, Note_on_c, 2, 63, 0
2, 107260, Note_on_c, 2, 60, 0
2, 107272, Note_on_c, 2, 67, 0
2, 107592, Note_on_c, 2, 57, 59
2, 107592, Note_on_c, 2, 69, 59
2, 107592, Note_on_c, 2, 60, 56
2, 107608, Note_on_c, 2, 66, 53
2, 107608, Note_on_c, 2, 63, 54
2, 107632, Control_c, 2, 64, 127
2, 107676, Note_off_c, 2, 63, 0
2, 107676, Note_off_c, 2, 60, 0
2, 107688, Note_off_c, 2, 66, 0
2, 107688, Note_off_c, 2, 57, 0
2, 107712, Note_off_c, 2, 69, 0
2, 107780, Note_off_c, 2, 50, 0
2, 107920, Note_on_c, 2, 67, 65
2, 107920, Note_on_c, 2, 62, 73
2, 107920, Note_on_c, 2, 70, 64
2, 107920, Note_on_c, 2, 58, 64
2, 107924, Control_c, 2, 64, 0
2, 107932, Note_on_c, 2, 43, 53
2, 107932, Note_on_c, 2, 53, 62
2, 108140, Control_c, 2, 64, 127
2, 108212, Note_off_c, 2, 58, 0
2, 108256, Note_off_c, 2, 67, 0
2, 108264, Note_off_c, 2, 43, 0
2, 108264, Note_off_c, 2, 62, 0
2, 108328, Note_off_c, 2, 70, 0
2, 108596, Note_off_c, 2, 53, 0
2, 108596, Note_on_c, 2, 58, 73
2, 108648, Note_on_c, 2, 58, 0
2, 108912, Note_on_c, 2, 67, 77
2, 108972, Note_on_c, 2, 67, 0
2, 109072, Note_on_c, 2, 60, 49
2, 109072, Control_c, 2, 64, 0
2, 109084, Note_on_c, 2, 55, 55
2, 109088, Note_on_c, 2, 74, 74
2, 109088, Note_on_c, 2, 45, 45
2, 109088, Note_on_c, 2, 67, 82
2, 109100, Note_on_c, 2, 62, 66
2, 109256, Control_c, 2, 64, 127
2, 109328, Note_off_c, 2, 67, 0
2, 109340, Note_off_c, 2, 62, 0
2, 109352, Note_off_c, 2, 55, 0
2, 109364, Note_off_c, 2, 60, 0
2, 109396, Note_off_c, 2, 74, 0
2, 109564, Note_on_c, 2, 72, 44
2, 109568, Control_c, 2, 64, 0
2, 109576, Note_on_c, 2, 66, 70
2, 109588, Note_on_c, 2, 60, 47
2, 109588, Note_on_c, 2, 54, 70
2, 109700, Control_c, 2, 64, 127
2, 109740, Note_off_c, 2, 45, 0
2, 109752, Note_off_c, 2, 66, 0
2, 109764, Note_off_c, 2, 54, 0
2, 109764, Note_off_c, 2, 60, 0
2, 109764, Note_off_c, 2, 72, 0
2, 110048, Control_c, 2, 64, 0
2, 110068, Note_on_c, 2, 53, 43
2, 110068, Note_on_c, 2, 43, 51
2, 110068, Note_on_c, 2, 70, 61
2, 110080, Note_on_c, 2, 65, 57
2, 110080, Note_on_c, 2, 62, 53
2, 110196, Control_c, 2, 64, 127
2, 110332, Note_off_c, 2, 43, 0
2, 110516, Note_off_c, 2, 62, 0
2, 110536, Note_off_c, 2, 65, 0
2, 110568, Note_off_c, 2, 70, 0
2, 110572, Note_on_c, 2, 67, 49
2, 110580, Note_on_c, 2, 58, 54
2, 110604, Note_on_c, 2, 67, 0
2, 110616, Note_on_c, 2, 53, 0
2, 110628, Note_on_c, 2, 58, 0
2, 110912, Note_on_c, 2, 60, 66
2, 110912, Note_on_c, 2, 74, 74
2, 110912, Note_on_c, 2, 67, 79
2, 110924, Note_on_c, 2, 55, 66
2, 110924, Note_on_c, 2, 45, 62
2, 110940, Control_c, 2, 64, 0
2, 111092, Control_c, 2, 64, 127
2, 111176, Note_off_c, 2, 67, 0
2, 111176, Note_off_c, 2, 74, 0
2, 111240, Note_off_c, 2, 55, 0
2, 111420, Note_on_c, 2, 72, 56
2, 111420, Note_on_c, 2, 54, 79
2, 111432, Note_on_c, 2, 66, 84
2, 111468, Control_c, 2, 64, 0
2, 111584, Note_off_c, 2, 72, 0
2, 111620, Note_on_c, 2, 70, 73
2, 111628, Control_c, 2, 64, 127
2, 111660, Note_off_c, 2, 66, 0
2, 111692, Note_off_c, 2, 70, 0
2, 111716, Note_off_c, 2, 60, 0
2, 111728, Note_off_c, 2, 45, 0
2, 111748, Note_off_c, 2, 54, 0
2, 111932, Note_on_c, 2, 53, 69
2, 112048, Control_c, 2, 64, 0
2, 112104, Note_on_c, 2, 67, 71
2, 112108, Note_on_c, 2, 58, 64
2, 112108, Note_on_c, 2, 62, 71
2, 112184, Note_on_c, 2, 53, 0
2, 112208, Control_c, 2, 64, 127
2, 112388, Note_off_c, 2, 62, 0
2, 112400, Note_off_c, 2, 58, 0
2, 112420, Note_off_c, 2, 67, 0
2, 112440, Note_on_c, 2, 43, 74
2, 112564, Control_c, 2, 64, 0
2, 112612, Note_on_c, 2, 58, 61
2, 112624, Note_on_c, 2, 67, 64
2, 112624, Note_on_c, 2, 62, 64
2, 112764, Note_on_c, 2, 62, 0
2, 112764, Note_on_c, 2, 58, 0
2, 112776, Note_on_c, 2, 42, 79
2, 112796, Note_on_c, 2, 43, 0
2, 112868, Note_on_c, 2, 67, 0
2, 112928, Note_on_c, 2, 41, 71
2, 112952, Note_on_c, 2, 42, 0
2, 113092, Note_on_c, 2, 58, 65
2, 113092, Note_on_c, 2, 40, 76
2, 113092, Note_on_c, 2, 67, 69
2, 113104, Note_on_c, 2, 41, 0
2, 113104, Note_on_c, 2, 55, 57
2, 113104, Note_on_c, 2, 62, 66
2, 113512, Note_on_c, 2, 67, 0
2, 113596, Note_on_c, 2, 65, 64
2, 113640, Note_on_c, 2, 62, 0
2, 113644, Control_c, 2, 64, 127
2, 113676, Note_off_c, 2, 65, 0
2, 113676, Note_off_c, 2, 58, 0
2, 113708, Note_off_c, 2, 55, 0
2, 113844, Note_off_c, 2, 40, 0
2, 113916, Note_on_c, 2, 62, 64
2, 113916, Note_on_c, 2, 60, 53
2, 113916, Note_on_c, 2, 55, 54
2, 113992, Control_c, 2, 64, 0
2, 114084, Note_on_c, 2, 38, 43
2, 114148, Control_c, 2, 64, 127
2, 114180, Note_off_c, 2, 38, 0
2, 114456, Note_on_c, 2, 48, 73
2, 114552, Control_c, 2, 64, 0
2, 114584, Note_off_c, 2, 48, 0
2, 114624, Note_on_c, 2, 49, 58
2, 114784, Note_on_c, 2, 55, 0
2, 114928, Note_on_c, 2, 49, 0
2, 114948, Note_on_c, 2, 50, 63
2, 114948, Note_on_c, 2, 58, 65
2, 114948, Note_on_c, 2, 54, 60
2, 115124, Control_c, 2, 64, 127
2, 115220, Note_off_c, 2, 54, 0
2, 115272, Note_off_c, 2, 58, 0
2, 115272, Note_off_c, 2, 60, 0
2, 115312, Note_off_c, 2, 62, 0
2, 115620, Note_on_c, 2, 38, 54
2, 115664, Note_on_c, 2, 38, 0
2, 115696, Note_on_c, 2, 50, 0
2, 115792, Note_on_c, 2, 67, 76
2, 115884, Note_on_c, 2, 67, 0
2, 115944, Note_on_c, 2, 69, 77
2, 116024, Note_on_c, 2, 69, 0
2, 116096, Control_c, 2, 64, 0
2, 116104, Note_on_c, 2, 70, 80
2, 116104, Note_on_c, 2, 58, 61
2, 116108, Note_on_c, 2, 53, 65
2, 116108, Note_on_c, 2, 43, 53
2, 116116, Note_on_c, 2, 62, 84
2, 116324, Control_c, 2, 64, 127
2, 116464, Note_off_c, 2, 58, 0
2, 116584, Note_off_c, 2, 62, 0
2, 116616, Note_on_c, 2, 67, 65
2, 116632, Note_on_c, 2, 58, 54
2, 116644, Note_on_c, 2, 43, 0
2, 116644, Note_on_c, 2, 70, 0
2, 116664, Note_on_c, 2, 67, 0
2, 116668, Note_on_c, 2, 53, 0
2, 116688, Note_on_c, 2, 58, 0
2, 116944, Note_on_c, 2, 67, 84
2, 116944, Note_on_c, 2, 55, 71
2, 116944, Note_on_c, 2, 74, 77
2, 116944, Note_on_c, 2, 60, 71
2, 116956, Note_on_c, 2, 45, 73
2, 116956, Control_c, 2, 64, 0
2, 117156, Control_c, 2, 64, 127
2, 117208, Note_off_c, 2, 67, 0
2, 117260, Note_off_c, 2, 55, 0
2, 117312, Note_off_c, 2, 74, 0
2, 117432, Note_on_c, 2, 66, 84
2, 117432, Note_on_c, 2, 72, 56
2, 117444, Note_on_c, 2, 54, 95
2, 117448, Control_c, 2, 64, 0
2, 117608, Control_c, 2, 64, 127
2, 117704, Note_off_c, 2, 45, 0
2, 117736, Note_off_c, 2, 54, 0
2, 117736, Note_off_c, 2, 72, 0
2, 117736, Note_off_c, 2, 66, 0
2, 117748, Note_off_c, 2, 60, 0
2, 118128, Note_on_c, 2, 43, 60
2, 118128, Note_on_c, 2, 70, 70
2, 118132, Note_on_c, 2, 53, 64
2, 118132, Control_c, 2, 64, 0
2, 118144, Note_on_c, 2, 65, 71
2, 118144, Note_on_c, 2, 62, 71
2, 118288, Control_c, 2, 64, 127
2, 118620, Note_on_c, 2, 67, 74
2, 118636, Note_on_c, 2, 58, 64
2, 118680, Note_on_c, 2, 62, 0
2, 118692, Note_on_c, 2, 58, 0
2, 118692, Note_on_c, 2, 65, 0
2, 118704, Note_on_c, 2, 67, 0
2, 118704, Note_on_c, 2, 70, 0
2, 118788, Note_on_c, 2, 43, 0
2, 118840, Note_on_c, 2, 53, 0
2, 119112, Note_on_c, 2, 72, 53
2, 119124, Note_on_c, 2, 61, 70
2, 119124, Note_on_c, 2, 65, 71
2, 119124, Note_on_c, 2, 46, 69
2, 119124, Note_on_c, 2, 56, 60
2, 119124, Note_on_c, 2, 68, 70
2, 119156, Control_c, 2, 64, 0
2, 119308, Control_c, 2, 64, 127
2, 119436, Note_off_c, 2, 65, 0
2, 119456, Note_off_c, 2, 68, 0
2, 119488, Note_off_c, 2, 61, 0
2, 119508, Note_off_c, 2, 72, 0
2, 119560, Note_off_c, 2, 56, 0
2, 119612, Note_on_c, 2, 72, 49
2, 119612, Note_on_c, 2, 55, 64
2, 119624, Note_on_c, 2, 64, 76
2, 119624, Note_on_c, 2, 61, 63
2, 119628, Control_c, 2, 64, 0
2, 119736, Control_c, 2, 64, 127
2, 119756, Note_off_c, 2, 55, 0
2, 119756, Note_off_c, 2, 72, 0
2, 119768, Note_off_c, 2, 64, 0
2, 119792, Note_off_c, 2, 61, 0
2, 119792, Note_off_c, 2, 46, 0
2, 120024, Note_on_c, 2, 46, 42
2, 120048, Note_on_c, 2, 46, 0
2, 120116, Note_on_c, 2, 48, 66
2, 120120, Control_c, 2, 64, 0
2, 120128, Note_on_c, 2, 65, 63
2, 120128, Note_on_c, 2, 58, 65
2, 120144, Note_on_c, 2, 55, 57
2, 120144, Note_on_c, 2, 63, 54
2, 120392, Control_c, 2, 64, 127
2, 121044, Note_off_c, 2, 58, 0
2, 121064, Note_off_c, 2, 55, 0
2, 121116, Note_on_c, 2, 57, 71
2, 121120, Control_c, 2, 64, 0
2, 121308, Control_c, 2, 64, 127
2, 121608, Note_on_c, 2, 41, 57
2, 121628, Note_on_c, 2, 57, 0
2, 121628, Note_on_c, 2, 48, 0
2, 121916, Note_on_c, 2, 56, 64
2, 121928, Note_on_c, 2, 53, 66
2, 121932, Note_on_c, 2, 60, 64
2, 121932, Note_on_c, 2, 46, 80
2, 121944, Control_c, 2, 64, 0
2, 121956, Note_off_c, 2, 41, 0
2, 122176, Control_c, 2, 64, 127
2, 122420, Note_off_c, 2, 56, 0
2, 122432, Note_off_c, 2, 60, 0
2, 122476, Note_off_c, 2, 53, 0
2, 122508, Note_off_c, 2, 63, 0
2, 122516, Note_off_c, 2, 65, 0
2, 122608, Note_on_c, 2, 34, 73
2, 122628, Note_on_c, 2, 63, 86
2, 122640, Note_on_c, 2, 56, 86
2, 122640, Note_on_c, 2, 60, 73
2, 122640, Note_on_c, 2, 53, 86
2, 122644, Control_c, 2, 64, 0
2, 122780, Control_c, 2, 64, 127
2, 122884, Note_off_c, 2, 53, 0
2, 122884, Note_off_c, 2, 56, 0
2, 122896, Note_off_c, 2, 63, 0
2, 122908, Note_off_c, 2, 60, 0
2, 123000, Note_on_c, 2, 60, 46
2, 123000, Note_on_c, 2, 53, 56
2, 123000, Note_on_c, 2, 63, 63
2, 123000, Note_on_c, 2, 56, 50
2, 123092, Note_on_c, 2, 56, 0
2, 123112, Note_on_c, 2, 53, 0
2, 123112, Note_on_c, 2, 60, 0
2, 123116, Note_on_c, 2, 63, 0
2, 123160, Control_c, 2, 64, 0
2, 123180, Note_on_c, 2, 63, 64
2, 123180, Note_on_c, 2, 60, 49
2, 123180, Note_on_c, 2, 56, 54
2, 123196, Note_on_c, 2, 53, 50
2, 123432, Note_on_c, 2, 56, 0
2, 123444, Note_on_c, 2, 53, 0
2, 123444, Note_on_c, 2, 63, 0
2, 123456, Note_on_c, 2, 60, 0
2, 123516, Note_on_c, 2, 60, 46
2, 123520, Note_on_c, 2, 53, 62
2, 123520, Note_on_c, 2, 56, 64
2, 123520, Note_on_c, 2, 63, 61
2, 123620, Note_on_c, 2, 53, 0
2, 123620, Note_on_c, 2, 60, 0
2, 123632, Note_on_c, 2, 56, 0
2, 123664, Note_on_c, 2, 63, 0
2, 123680, Control_c, 2, 64, 127
2, 123968, Note_off_c, 2, 46, 0
2, 123980, Note_on_c, 2, 64, 56
2, 123980, Note_on_c, 2, 61, 44
2, 123980, Note_on_c, 2, 67, 63
2, 123980, Note_on_c, 2, 59, 59
2, 123980, Note_on_c, 2, 55, 56
2, 124040, Note_on_c, 2, 34, 0
2, 124064, Control_c, 2, 64, 0
2, 124148, Note_on_c, 2, 33, 45
2, 124284, Control_c, 2, 64, 127
2, 124644, Note_on_c, 2, 45, 63
2, 124668, Note_on_c, 2, 33, 0
2, 124736, Note_on_c, 2, 55, 0
2, 124744, Note_on_c, 2, 59, 0
2, 124756, Note_on_c, 2, 61, 0
2, 124780, Note_on_c, 2, 45, 0
2, 124820, Note_on_c, 2, 64, 0
2, 125120, Control_c, 2, 64, 0
2, 125128, Note_on_c, 2, 63, 63
2, 125140, Note_on_c, 2, 51, 69
2, 125140, Note_on_c, 2, 60, 53
2, 125140, Note_on_c, 2, 55, 46
2, 125252, Control_c, 2, 64, 127
2, 125452, Note_off_c, 2, 55, 0
2, 125628, Note_on_c, 2, 44, 64
2, 125636, Note_on_c, 2, 60, 0
2, 125652, Note_on_c, 2, 63, 0
2, 125672, Note_on_c, 2, 51, 0
2, 125672, Note_on_c, 2, 67, 0
2, 125696, Note_on_c, 2, 44, 0
2, 126124, Control_c, 2, 64, 0
2, 126136, Note_on_c, 2, 43, 65
2, 126136, Note_on_c, 2, 58, 69
2, 126136, Note_on_c, 2, 72, 51
2, 126136, Note_on_c, 2, 75, 76
2, 126136, Note_on_c, 2, 63, 80
2, 126148, Note_on_c, 2, 70, 74
2, 126148, Note_on_c, 2, 67, 74
2, 126260, Control_c, 2, 64, 127
2, 126476, Note_off_c, 2, 72, 0
2, 126540, Note_off_c, 2, 67, 0
2, 126540, Note_off_c, 2, 70, 0
2, 126572, Note_off_c, 2, 63, 0
2, 126604, Note_off_c, 2, 75, 0
2, 126680, Note_off_c, 2, 58, 0
2, 126680, Note_on_c, 2, 51, 68
2, 126732, Note_on_c, 2, 51, 0
2, 126752, Note_on_c, 2, 43, 0
2, 126988, Note_on_c, 2, 75, 80
2, 127088, Note_on_c, 2, 75, 0
2, 127168, Note_on_c, 2, 51, 69
2, 127168, Note_on_c, 2, 75, 79
2, 127172, Control_c, 2, 64, 0
2, 127180, Note_on_c, 2, 57, 54
2, 127184, Note_on_c, 2, 63, 79
2, 127184, Note_on_c, 2, 72, 53
2, 127184, Note_on_c, 2, 42, 68
2, 127184, Note_on_c, 2, 69, 68
2, 127332, Control_c, 2, 64, 127
2, 127432, Note_off_c, 2, 75, 0
2, 127440, Note_off_c, 2, 51, 0
2, 127536, Note_off_c, 2, 63, 0
2, 127632, Note_off_c, 2, 69, 0
2, 127632, Note_off_c, 2, 72, 0
2, 127676, Note_on_c, 2, 75, 69
2, 127696, Note_on_c, 2, 51, 54
2, 127708, Note_on_c, 2, 57, 0
2, 127720, Note_on_c, 2, 75, 0
2, 127752, Note_on_c, 2, 51, 0
2, 127752, Note_on_c, 2, 42, 0
2, 127988, Note_on_c, 2, 70, 47
2, 128000, Note_on_c, 2, 68, 49
2, 128012, Note_on_c, 2, 63, 42
2, 128012, Note_on_c, 2, 60, 24
2, 128120, Control_c, 2, 64, 0
2, 128172, Note_on_c, 2, 51, 51
2, 128184, Note_on_c, 2, 41, 39
2, 128184, Note_on_c, 2, 56, 42
2, 128256, Control_c, 2, 64, 127
2, 128452, Note_off_c, 2, 51, 0
2, 128644, Note_off_c, 2, 68, 0
2, 128668, Note_off_c, 2, 63, 0
2, 128668, Note_off_c, 2, 70, 0
2, 128680, Note_off_c, 2, 56, 0
2, 128692, Note_on_c, 2, 51, 49
2, 128712, Note_on_c, 2, 60, 0
2, 128744, Note_on_c, 2, 51, 0
2, 128744, Note_on_c, 2, 41, 0
2, 129136, Note_on_c, 2, 58, 53
2, 129136, Note_on_c, 2, 43, 44
2, 129148, Note_on_c, 2, 62, 63
2, 129152, Note_on_c, 2, 50, 51
2, 129152, Note_on_c, 2, 53, 48
2, 129176, Control_c, 2, 64, 0
2, 129296, Control_c, 2, 64, 127
2, 129432, Note_off_c, 2, 50, 0
2, 129676, Note_off_c, 2, 62, 0
2, 129692, Note_off_c, 2, 58, 0
2, 129700, Note_on_c, 2, 50, 54
2, 129712, Note_on_c, 2, 53, 0
2, 129776, Note_on_c, 2, 50, 0
2, 129816, Note_on_c, 2, 43, 0
2, 130040, Note_on_c, 2, 60, 61
2, 130044, Note_on_c, 2, 63, 69
2, 130052, Note_on_c, 2, 56, 60
2, 130052, Note_on_c, 2, 53, 57
2, 130052, Note_on_c, 2, 46, 74
2, 130080, Control_c, 2, 64, 0
2, 130220, Control_c, 2, 64, 127
2, 130304, Note_off_c, 2, 56, 0
2, 130316, Note_off_c, 2, 53, 0
2, 130316, Note_off_c, 2, 63, 0
2, 130328, Note_off_c, 2, 60, 0
2, 130544, Note_on_c, 2, 63, 79
2, 130560, Note_on_c, 2, 60, 63
2, 130560, Note_on_c, 2, 53, 82
2, 130560, Note_on_c, 2, 56, 79
2, 130660, Note_on_c, 2, 56, 0
2, 130680, Note_on_c, 2, 53, 0
2, 130680, Note_on_c, 2, 60, 0
2, 130680, Note_on_c, 2, 63, 0
2, 130744, Note_on_c, 2, 63, 48
2, 130756, Note_on_c, 2, 60, 38
2, 130760, Control_c, 2, 64, 0
2, 130768, Note_on_c, 2, 56, 39
2, 130768, Note_on_c, 2, 53, 37
2, 130900, Control_c, 2, 64, 127
2, 130972, Note_off_c, 2, 53, 0
2, 130972, Note_off_c, 2, 56, 0
2, 130972, Note_off_c, 2, 63, 0
2, 130996, Note_off_c, 2, 60, 0
2, 131056, Note_on_c, 2, 53, 58
2, 131056, Note_on_c, 2, 63, 65
2, 131056, Note_on_c, 2, 56, 61
2, 131060, Note_on_c, 2, 34, 73
2, 131060, Note_on_c, 2, 60, 49
2, 131172, Note_on_c, 2, 56, 0
2, 131184, Note_on_c, 2, 60, 0
2, 131184, Note_on_c, 2, 63, 0
2, 131184, Note_on_c, 2, 53, 0
2, 131220, Control_c, 2, 64, 0
2, 131280, Note_on_c, 2, 60, 39
2, 131280, Note_on_c, 2, 63, 34
2, 131280, Note_on_c, 2, 56, 33
2, 131280, Note_on_c, 2, 53, 32
2, 131352, Control_c, 2, 64, 127
2, 131384, Note_off_c, 2, 56, 0
2, 131416, Note_off_c, 2, 63, 0
2, 131428, Note_off_c, 2, 53, 0
2, 131428, Note_off_c, 2, 60, 0
2, 131712, Note_on_c, 2, 63, 65
2, 131712, Note_on_c, 2, 56, 63
2, 131724, Note_on_c, 2, 60, 53
2, 131724, Note_on_c, 2, 53, 63
2, 131740, Note_on_c, 2, 34, 0
2, 131760, Note_on_c, 2, 53, 0
2, 131760, Note_on_c, 2, 56, 0
2, 131772, Note_on_c, 2, 60, 0
2, 131784, Note_on_c, 2, 46, 0
2, 131792, Note_on_c, 2, 63, 0
2, 132196, Note_on_c, 2, 56, 64
2, 132196, Note_on_c, 2, 61, 58
2, 132196, Note_on_c, 2, 72, 80
2, 132196, Note_on_c, 2, 68, 68
2, 132196, Note_on_c, 2, 65, 64
2, 132200, Control_c, 2, 64, 0
2, 132216, Note_on_c, 2, 46, 63
2, 132328, Control_c, 2, 64, 127
2, 132420, Note_off_c, 2, 61, 0
2, 132696, Note_on_c, 2, 61, 65
2, 132732, Note_on_c, 2, 65, 0
2, 132732, Note_on_c, 2, 68, 0
2, 132752, Note_on_c, 2, 61, 0
2, 132764, Note_on_c, 2, 56, 0
2, 132776, Note_on_c, 2, 46, 0
2, 133172, Note_on_c, 2, 69, 55
2, 133184, Note_on_c, 2, 54, 64
2, 133184, Note_on_c, 2, 50, 66
2, 133184, Note_on_c, 2, 60, 53
2, 133184, Note_on_c, 2, 66, 65
2, 133184, Note_on_c, 2, 64, 63
2, 133216, Control_c, 2, 64, 0
2, 133360, Control_c, 2, 64, 127
2, 133400, Note_off_c, 2, 54, 0
2, 133724, Note_off_c, 2, 60, 0
2, 133724, Note_on_c, 2, 54, 68
2, 133772, Note_on_c, 2, 64, 0
2, 133780, Note_on_c, 2, 54, 0
2, 133780, Note_on_c, 2, 66, 0
2, 133780, Note_on_c, 2, 50, 0
2, 133792, Note_on_c, 2, 69, 0
2, 134172, Control_c, 2, 64, 0
2, 134180, Note_on_c, 2, 68, 73
2, 134180, Note_on_c, 2, 56, 64
2, 134180, Note_on_c, 2, 61, 63
2, 134192, Note_on_c, 2, 46, 68
2, 134192, Note_on_c, 2, 65, 71
2, 134288, Control_c, 2, 64, 127
2, 134332, Note_off_c, 2, 61, 0
2, 134352, Note_off_c, 2, 65, 0
2, 134364, Note_off_c, 2, 68, 0
2, 134384, Note_off_c, 2, 72, 0
2, 134676, Note_on_c, 2, 61, 79
2, 134728, Note_on_c, 2, 61, 0
2, 134740, Note_on_c, 2, 46, 0
2, 134760, Note_on_c, 2, 56, 0
2, 135008, Note_on_c, 2, 75, 86
2, 135116, Note_on_c, 2, 75, 0
2, 135188, Note_on_c, 2, 45, 51
2, 135188, Note_on_c, 2, 55, 60
2, 135188, Note_on_c, 2, 75, 76
2, 135188, Control_c, 2, 64, 0
2, 135200, Note_on_c, 2, 71, 76
2, 135212, Note_on_c, 2, 66, 76
2, 135212, Note_on_c, 2, 61, 68
2, 135328, Control_c, 2, 64, 127
2, 135496, Note_off_c, 2, 61, 0
2, 135496, Note_off_c, 2, 75, 0
2, 135552, Note_off_c, 2, 45, 0
2, 135604, Note_off_c, 2, 71, 0
2, 135612, Note_off_c, 2, 55, 0
2, 135676, Note_on_c, 2, 75, 65
2, 135716, Note_on_c, 2, 66, 0
2, 135740, Note_on_c, 2, 75, 0
2, 135936, Note_on_c, 2, 60, 44
2, 135944, Note_on_c, 2, 61, 51
2, 135988, Note_on_c, 2, 63, 73
2, 136012, Note_on_c, 2, 61, 0
2, 136012, Note_on_c, 2, 75, 84
2, 136012, Note_on_c, 2, 68, 80
2, 136024, Note_on_c, 2, 67, 79
2, 136036, Note_on_c, 2, 60, 0
2, 136048, Note_on_c, 2, 63, 0
2, 136072, Control_c, 2, 64, 0
2, 136224, Control_c, 2, 64, 127
2, 136460, Note_off_c, 2, 68, 0
2, 136500, Note_on_c, 2, 63, 79
2, 136524, Note_on_c, 2, 72, 70
2, 136564, Note_on_c, 2, 75, 0
2, 136632, Control_c, 2, 64, 0
2, 136692, Note_on_c, 2, 60, 61
2, 136700, Note_on_c, 2, 70, 70
2, 136760, Control_c, 2, 64, 127
2, 136772, Note_off_c, 2, 72, 0
2, 136904, Note_off_c, 2, 67, 0
2, 136968, Note_off_c, 2, 63, 0
2, 137000, Note_on_c, 2, 58, 69
2, 137008, Note_on_c, 2, 60, 0
2, 137020, Note_on_c, 2, 70, 0
2, 137020, Note_on_c, 2, 68, 70
2, 137044, Note_on_c, 2, 58, 0
2, 137056, Note_on_c, 2, 68, 0
2, 137196, Control_c, 2, 64, 0
2, 137204, Note_on_c, 2, 62, 73
2, 137204, Note_on_c, 2, 70, 79
2, 137216, Note_on_c, 2, 56, 63
2, 137220, Note_on_c, 2, 67, 79
2, 137232, Note_on_c, 2, 47, 53
2, 137264, Note_on_c, 2, 47, 0
2, 137380, Note_on_c, 2, 67, 0
2, 137392, Note_on_c, 2, 70, 0
2, 137396, Control_c, 2, 64, 127
2, 137424, Note_off_c, 2, 56, 0
2, 137436, Note_off_c, 2, 62, 0
2, 137620, Note_on_c, 2, 47, 74
2, 137664, Control_c, 2, 64, 0
2, 137704, Note_on_c, 2, 59, 76
2, 137704, Note_on_c, 2, 67, 79
2, 137712, Note_on_c, 2, 62, 84
2, 137824, Control_c, 2, 64, 127
2, 137844, Note_off_c, 2, 62, 0
2, 137844, Note_off_c, 2, 59, 0
2, 137856, Note_off_c, 2, 67, 0
2, 137996, Note_off_c, 2, 47, 0
2, 138028, Control_c, 2, 64, 0
2, 138036, Note_on_c, 2, 63, 69
2, 138036, Note_on_c, 2, 48, 68
2, 138036, Note_on_c, 2, 58, 61
2, 138052, Note_on_c, 2, 55, 51
2, 138208, Control_c, 2, 64, 127
2, 138400, Control_c, 2, 64, 0
2, 138408, Note_off_c, 2, 48, 0
2, 138420, Note_on_c, 2, 46, 68
2, 138492, Note_on_c, 2, 55, 0
2, 138504, Note_on_c, 2, 58, 0
2, 138524, Note_on_c, 2, 46, 0
2, 138524, Note_on_c, 2, 63, 0
2, 138548, Note_on_c, 2, 45, 77
2, 138708, Note_on_c, 2, 63, 68
2, 138720, Note_on_c, 2, 70, 74
2, 138720, Note_on_c, 2, 59, 65
2, 138720, Note_on_c, 2, 65, 71
2, 138720, Note_on_c, 2, 44, 86
2, 138732, Note_on_c, 2, 45, 0
2, 139236, Control_c, 2, 64, 127
2, 139592, Note_off_c, 2, 70, 0
2, 139708, Note_on_c, 2, 68, 74
2, 139744, Note_on_c, 2, 44, 0
2, 139744, Note_on_c, 2, 65, 0
2, 139752, Note_on_c, 2, 63, 0
2, 139768, Note_on_c, 2, 59, 0
2, 139788, Note_on_c, 2, 68, 0
2, 140024, Note_on_c, 2, 67, 76
2, 140024, Note_on_c, 2, 62, 79
2, 140024, Note_on_c, 2, 63, 80
2, 140024, Note_on_c, 2, 58, 70
2, 140024, Note_on_c, 2, 46, 79
2, 140052, Control_c, 2, 64, 0
2, 140212, Control_c, 2, 64, 127
2, 140644, Note_off_c, 2, 67, 0
2, 140696, Note_off_c, 2, 63, 0
2, 140708, Note_on_c, 2, 68, 69
2, 140728, Note_on_c, 2, 62, 0
2, 140784, Note_on_c, 2, 46, 0
2, 140804, Note_on_c, 2, 58, 0
2, 140864, Note_on_c, 2, 68, 0
2, 141020, Note_on_c, 2, 58, 76
2, 141020, Note_on_c, 2, 67, 73
2, 141032, Note_on_c, 2, 64, 69
2, 141036, Note_on_c, 2, 61, 70
2, 141036, Note_on_c, 2, 36, 68
2, 141052, Control_c, 2, 64, 0
2, 141180, Control_c, 2, 64, 127
2, 141328, Note_off_c, 2, 67, 0
2, 141452, Note_off_c, 2, 58, 0
2, 141688, Note_off_c, 2, 64, 0
2, 141728, Note_on_c, 2, 70, 76
2, 141740, Note_on_c, 2, 61, 0
2, 141784, Note_on_c, 2, 70, 0
2, 142032, Note_on_c, 2, 61, 68
2, 142044, Note_on_c, 2, 36, 0
2, 142044, Note_on_c, 2, 65, 74
2, 142044, Note_on_c, 2, 63, 73
2, 142044, Note_on_c, 2, 47, 77
2, 142044, Note_on_c, 2, 57, 65
2, 142084, Control_c, 2, 64, 0
2, 142644, Control_c, 2, 64, 127
2, 142716, Note_off_c, 2, 63, 0
2, 142728, Note_on_c, 2, 35, 54
2, 142740, Note_on_c, 2, 65, 0
2, 142740, Note_on_c, 2, 61, 0
2, 142776, Note_on_c, 2, 57, 0
2, 142824, Note_on_c, 2, 47, 0
2, 142836, Note_on_c, 2, 35, 0
2, 143044, Note_on_c, 2, 34, 86
2, 143052, Control_c, 2, 64, 0
2, 143532, Note_on_c, 2, 67, 84
2, 143532, Note_on_c, 2, 56, 86
2, 143532, Note_on_c, 2, 59, 82
2, 143544, Note_on_c, 2, 62, 74
2, 143544, Note_on_c, 2, 64, 73
2, 143560, Note_on_c, 2, 46, 86
2, 143648, Note_on_c, 2, 34, 0
2, 143660, Note_on_c, 2, 56, 0
2, 143672, Note_on_c, 2, 62, 0
2, 143672, Note_on_c, 2, 67, 0
2, 143684, Note_on_c, 2, 59, 0
2, 143696, Note_on_c, 2, 64, 0
2, 143708, Note_on_c, 2, 46, 0
2, 143728, Note_on_c, 2, 32, 84
2, 144076, Note_on_c, 2, 44, 79
2, 144140, Note_on_c, 2, 32, 0
2, 144200, Note_on_c, 2, 44, 0
2, 144240, Note_on_c, 2, 31, 73
2, 144252, Note_on_c, 2, 59, 74
2, 144252, Note_on_c, 2, 67, 77
2, 144264, Note_on_c, 2, 53, 69
2, 144264, Note_on_c, 2, 63, 74
2, 144396, Note_on_c, 2, 53, 0
2, 144408, Note_on_c, 2, 67, 0
2, 144420, Note_on_c, 2, 59, 0
2, 144432, Note_on_c, 2, 63, 0
2, 144748, Note_on_c, 2, 37, 86
2, 144748, Note_on_c, 2, 68, 80
2, 144772, Note_on_c, 2, 31, 0
2, 144884, Note_on_c, 2, 68, 0
2, 145252, Note_on_c, 2, 37, 0
2, 145276, Note_on_c, 2, 61, 65
2, 145276, Note_on_c, 2, 58, 73
2, 145276, Note_on_c, 2, 36, 62
2, 145276, Note_on_c, 2, 67, 70
2, 145288, Note_on_c, 2, 64, 62
2, 145288, Note_on_c, 2, 55, 56
2, 145392, Note_on_c, 2, 55, 0
2, 145404, Note_on_c, 2, 58, 0
2, 145404, Note_on_c, 2, 61, 0
2, 145416, Note_on_c, 2, 64, 0
2, 145436, Note_on_c, 2, 67, 0
2, 145776, Note_on_c, 2, 70, 70
2, 145776, Note_on_c, 2, 61, 56
2, 145776, Note_on_c, 2, 64, 71
2, 145788, Note_on_c, 2, 40, 74
2, 145788, Note_on_c, 2, 67, 70
2, 145824, Note_on_c, 2, 36, 0
2, 145912, Note_on_c, 2, 67, 0
2, 145924, Note_on_c, 2, 64, 0
2, 145924, Note_on_c, 2, 70, 0
2, 145932, Note_on_c, 2, 61, 0
2, 146272, Note_on_c, 2, 56, 58
2, 146288, Note_on_c, 2, 40, 0
2, 146288, Note_on_c, 2, 65, 62
2, 146288, Note_on_c, 2, 63, 68
2, 146288, Note_on_c, 2, 60, 57
2, 146288, Note_on_c, 2, 41, 62
2, 146768, Note_on_c, 2, 35, 61
2, 146780, Note_on_c, 2, 41, 0
2, 146804, Control_c, 2, 64, 127
2, 146824, Note_off_c, 2, 63, 0
2, 146860, Note_off_c, 2, 60, 0
2, 146860, Note_off_c, 2, 65, 0
2, 146868, Note_off_c, 2, 56, 0
2, 147088, Control_c, 2, 64, 0
2, 147100, Note_on_c, 2, 34, 84
2, 147120, Note_on_c, 2, 35, 0
2, 147588, Note_on_c, 2, 60, 71
2, 147588, Note_on_c, 2, 56, 74
2, 147588, Note_on_c, 2, 64, 66
2, 147592, Note_on_c, 2, 67, 77
2, 147592, Note_on_c, 2, 62, 77
2, 147716, Note_on_c, 2, 62, 0
2, 147724, Note_on_c, 2, 56, 0
2, 147736, Note_on_c, 2, 67, 0
2, 147736, Note_on_c, 2, 60, 0
2, 147740, Note_on_c, 2, 32, 73
2, 147748, Note_on_c, 2, 64, 0
2, 147772, Note_on_c, 2, 34, 0
2, 147848, Control_c, 2, 64, 127
2, 148092, Note_on_c, 2, 39, 44
2, 148124, Note_on_c, 2, 32, 0
2, 148164, Note_on_c, 2, 39, 0
2, 148180, Control_c, 2, 64, 0
2, 148228, Note_on_c, 2, 67, 77
2, 148228, Note_on_c, 2, 31, 71
2, 148236, Note_on_c, 2, 63, 74
2, 148236, Note_on_c, 2, 59, 76
2, 148240, Note_on_c, 2, 53, 74
2, 148416, Control_c, 2, 64, 127
2, 148468, Note_off_c, 2, 67, 0
2, 148500, Note_off_c, 2, 53, 0
2, 148724, Note_off_c, 2, 63, 0
2, 148744, Note_off_c, 2, 59, 0
2, 148764, Note_on_c, 2, 68, 76
2, 148776, Note_on_c, 2, 43, 62
2, 148832, Note_on_c, 2, 68, 0
2, 148840, Note_on_c, 2, 31, 0
2, 149052, Note_on_c, 2, 43, 0
2, 149072, Note_on_c, 2, 58, 73
2, 149072, Note_on_c, 2, 61, 76
2, 149072, Note_on_c, 2, 67, 74
2, 149072, Note_on_c, 2, 64, 73
2, 149084, Note_on_c, 2, 40, 82
2, 149084, Control_c, 2, 64, 0
2, 149252, Control_c, 2, 64, 127
2, 149440, Note_off_c, 2, 67, 0
2, 149576, Note_off_c, 2, 58, 0
2, 149728, Note_off_c, 2, 61, 0
2, 149740, Note_off_c, 2, 40, 0
2, 149740, Note_off_c, 2, 64, 0
2, 149772, Note_on_c, 2, 70, 63
2, 149816, Note_on_c, 2, 70, 0
2, 150080, Note_on_c, 2, 56, 65
2, 150080, Note_on_c, 2, 65, 70
2, 150092, Note_on_c, 2, 63, 64
2, 150092, Note_on_c, 2, 60, 61
2, 150092, Control_c, 2, 64, 0
2, 150104, Note_on_c, 2, 41, 56
2, 150236, Control_c, 2, 64, 127
2, 150520, Note_off_c, 2, 41, 0
2, 150584, Note_on_c, 2, 43, 82
2, 150628, Control_c, 2, 64, 0
2, 150784, Note_off_c, 2, 43, 0
2, 150784, Note_on_c, 2, 44, 70
2, 151072, Note_on_c, 2, 44, 0
2, 151096, Note_on_c, 2, 45, 77
2, 151140, Note_on_c, 2, 63, 0
2, 151152, Note_on_c, 2, 60, 0
2, 151152, Note_on_c, 2, 65, 0
2, 151172, Note_on_c, 2, 56, 0
2, 151264, Note_on_c, 2, 45, 0
2, 151284, Note_on_c, 2, 46, 79
2, 151636, Note_on_c, 2, 67, 76
2, 151636, Note_on_c, 2, 34, 84
2, 151636, Note_on_c, 2, 59, 76
2, 151636, Note_on_c, 2, 64, 60
2, 151636, Note_on_c, 2, 56, 68
2, 151636, Note_on_c, 2, 62, 74
2, 151768, Control_c, 2, 64, 127
2, 151900, Note_off_c, 2, 67, 0
2, 151932, Note_off_c, 2, 64, 0
2, 151964, Note_off_c, 2, 34, 0
2, 151976, Note_off_c, 2, 56, 0
2, 152008, Note_off_c, 2, 59, 0
2, 152036, Note_off_c, 2, 62, 0
2, 152068, Note_off_c, 2, 46, 0
2, 152344, Control_c, 2, 64, 0
2, 152588, Note_on_c, 2, 63, 86
2, 152588, Note_on_c, 2, 51, 79
2, 152588, Note_on_c, 2, 44, 76
2, 152592, Note_on_c, 2, 60, 77
2, 152592, Control_c, 2, 64, 127
2, 152604, Note_on_c, 2, 55, 80
2, 152724, Note_on_c, 2, 55, 0
2, 152724, Note_on_c, 2, 44, 0
2, 152724, Note_on_c, 2, 51, 0
2, 152748, Note_on_c, 2, 60, 0
2, 152748, Note_on_c, 2, 63, 0
2, 152820, Note_on_c, 2, 44, 43
2, 152840, Note_on_c, 2, 63, 25
2, 152840, Note_on_c, 2, 60, 36
2, 152884, Note_on_c, 2, 44, 0
2, 152928, Note_on_c, 2, 63, 0
2, 152936, Note_on_c, 2, 60, 0
2, 153116, Note_on_c, 2, 51, 79
2, 153116, Note_on_c, 2, 63, 79
2, 153116, Note_on_c, 2, 60, 73
2, 153116, Note_on_c, 2, 44, 74
2, 153116, Note_on_c, 2, 55, 76
2, 153172, Note_on_c, 2, 51, 0
2, 153176, Note_on_c, 2, 55, 0
2, 153184, Note_on_c, 2, 44, 0
2, 153184, Note_on_c, 2, 60, 0
2, 153196, Note_on_c, 2, 63, 0
2, 153320, Control_c, 2, 64, 0
2, 153340, Note_on_c, 2, 63, 65
2, 153340, Note_on_c, 2, 49, 70
2, 153340, Note_on_c, 2, 54, 53
2, 153340, Note_on_c, 2, 58, 69
2, 153340, Note_on_c, 2, 42, 69
2, 153484, Note_on_c, 2, 58, 0
2, 153496, Note_on_c, 2, 42, 0
2, 153496, Note_on_c, 2, 54, 0
2, 153496, Note_on_c, 2, 49, 0
2, 153520, Note_on_c, 2, 63, 0
2, 153776, Control_c, 2, 64, 127
2, 153804, Note_on_c, 2, 40, 62
2, 153804, Note_on_c, 2, 56, 64
2, 153816, Note_on_c, 2, 47, 53
2, 153816, Note_on_c, 2, 52, 63
2, 153816, Note_on_c, 2, 61, 64
2, 153820, Note_on_c, 2, 63, 65
2, 153856, Note_on_c, 2, 52, 0
2, 153868, Note_on_c, 2, 56, 0
2, 153880, Note_on_c, 2, 61, 0
2, 153892, Note_on_c, 2, 63, 0
2, 153892, Note_on_c, 2, 47, 0
2, 153892, Note_on_c, 2, 40, 0
2, 154120, Control_c, 2, 64, 0
2, 154140, Note_on_c, 2, 62, 64
2, 154140, Note_on_c, 2, 70, 63
2, 154140, Note_on_c, 2, 46, 63
2, 154140, Note_on_c, 2, 58, 48
2, 154144, Note_on_c, 2, 67, 58
2, 154144, Note_on_c, 2, 39, 58
2, 154152, Note_on_c, 2, 65, 62
2, 154272, Control_c, 2, 64, 127
2, 154348, Note_off_c, 2, 58, 0
2, 154352, Note_off_c, 2, 65, 0
2, 154360, Note_off_c, 2, 62, 0
2, 154364, Note_off_c, 2, 39, 0
2, 154376, Note_off_c, 2, 67, 0
2, 154376, Note_off_c, 2, 46, 0
2, 154408, Note_off_c, 2, 70, 0
2, 155284, Note_on_c, 2, 86, 44
2, 155284, Note_on_c, 2, 82, 40
2, 155296, Note_on_c, 2, 77, 29
2, 155296, Note_on_c, 2, 58, 40
2, 155296, Note_on_c, 2, 72, 18
2, 155296, Note_on_c, 2, 60, 38
2, 155312, Note_on_c, 2, 55, 39
2, 155312, Note_on_c, 2, 65, 43
2, 155376, Note_on_c, 2, 82, 0
2, 155388, Note_on_c, 2, 65, 0
2, 155388, Note_on_c, 2, 60, 0
2, 155388, Note_on_c, 2, 58, 0
2, 155388, Note_on_c, 2, 77, 0
2, 155400, Note_on_c, 2, 55, 0
2, 155400, Note_on_c, 2, 86, 0
2, 155404, Note_on_c, 2, 72, 0
2, 159268, Control_c, 2, 64, 0
2, 159460, End_track
0, 0, End_of_file
