0, 0, Header, 1, 2, 384
1, 0, Start_track
1, 0, Text_t, "{GNMIDI}Generated by  GNMIDI demo (http://www.gnmidi.com)\012"
1, 0, Time_signature, 4, 2, 24, 8
1, 0, Tempo, 500000
1, 222720, End_track
2, 0, Start_track
2, 0, Text_t, "{GNMIDI}Generated by  GNMIDI demo (http://www.gnmidi.com)\012"
2, 0, Title_t, "Acoustic Grand Piano"
2, 1152, Program_c, 2, 0
2, 1152, Control_c, 2, 7, 127
2, 1152, Control_c, 2, 10, 64
2, 1536, Note_on_c, 2, 44, 59
2, 1536, Note_on_c, 2, 45, 58
2, 1536, Note_on_c, 2, 46, 88
2, 1537, Note_on_c, 2, 45, 0
2, 1537, Note_on_c, 2, 44, 0
2, 1544, Note_on_c, 2, 47, 68
2, 1572, Note_on_c, 2, 46, 0
2, 1888, Note_on_c, 2, 73, 113
2, 2040, Note_on_c, 2, 73, 0
2, 2244, Note_on_c, 2, 67, 91
2, 2252, Note_on_c, 2, 68, 88
2, 2312, Note_on_c, 2, 67, 0
2, 2488, Note_on_c, 2, 68, 0
2, 2500, Note_on_c, 2, 64, 77
2, 2580, Note_on_c, 2, 64, 0
2, 2592, Note_on_c, 2, 61, 77
2, 2848, Note_on_c, 2, 59, 45
2, 2856, Note_on_c, 2, 61, 0
2, 2928, Note_on_c, 2, 64, 86
2, 2932, Note_on_c, 2, 59, 0
2, 3048, Control_c, 2, 64, 127
2, 3268, Note_off_c, 2, 64, 0
2, 3472, Control_c, 2, 64, 0
2, 3492, Note_on_c, 2, 66, 104
2, 3508, Note_on_c, 2, 67, 85
2, 3544, Note_on_c, 2, 68, 84
2, 3552, Note_on_c, 2, 66, 0
2, 3592, Note_on_c, 2, 67, 0
2, 3620, Note_on_c, 2, 68, 0
2, 3700, Note_on_c, 2, 47, 0
2, 3836, Note_on_c, 2, 47, 90
2, 3852, Note_on_c, 2, 46, 84
2, 3880, Note_on_c, 2, 46, 0
2, 3904, Note_on_c, 2, 47, 0
2, 3940, Note_on_c, 2, 47, 85
2, 3956, Note_on_c, 2, 46, 90
2, 4040, Note_on_c, 2, 46, 0
2, 4132, Note_on_c, 2, 47, 0
2, 4196, Note_on_c, 2, 47, 77
2, 4196, Note_on_c, 2, 46, 94
2, 4232, Note_on_c, 2, 46, 0
2, 4528, Note_on_c, 2, 73, 110
2, 4604, Note_on_c, 2, 73, 0
2, 4888, Note_on_c, 2, 67, 95
2, 4968, Note_on_c, 2, 67, 0
2, 4988, Note_on_c, 2, 68, 82
2, 5232, Note_on_c, 2, 64, 80
2, 5240, Note_on_c, 2, 68, 0
2, 5332, Note_on_c, 2, 64, 0
2, 5332, Note_on_c, 2, 61, 72
2, 5596, Note_on_c, 2, 59, 47
2, 5616, Note_on_c, 2, 61, 0
2, 5664, Note_on_c, 2, 59, 0
2, 5672, Note_on_c, 2, 64, 79
2, 5912, Note_on_c, 2, 64, 0
2, 6016, Note_on_c, 2, 64, 99
2, 6264, Note_on_c, 2, 64, 0
2, 6280, Note_on_c, 2, 61, 99
2, 6376, Note_on_c, 2, 61, 0
2, 6496, Note_on_c, 2, 47, 0
2, 6608, Note_on_c, 2, 47, 82
2, 6620, Note_on_c, 2, 46, 95
2, 6652, Note_on_c, 2, 46, 0
2, 6948, Note_on_c, 2, 35, 80
2, 7008, Note_on_c, 2, 35, 0
2, 7316, Note_on_c, 2, 73, 112
2, 7380, Note_on_c, 2, 73, 0
2, 7668, Note_on_c, 2, 67, 93
2, 7672, Note_on_c, 2, 73, 97
2, 7752, Note_on_c, 2, 67, 0
2, 7768, Note_on_c, 2, 68, 71
2, 7812, Note_on_c, 2, 73, 0
2, 8012, Note_on_c, 2, 68, 0
2, 8012, Note_on_c, 2, 64, 82
2, 8100, Note_on_c, 2, 64, 0
2, 8108, Note_on_c, 2, 61, 74
2, 8372, Note_on_c, 2, 59, 55
2, 8396, Note_on_c, 2, 61, 0
2, 8444, Note_on_c, 2, 59, 0
2, 8448, Note_on_c, 2, 64, 82
2, 8652, Note_on_c, 2, 64, 0
2, 8784, Note_on_c, 2, 64, 101
2, 8808, Note_on_c, 2, 47, 0
2, 8824, Control_c, 2, 64, 127
2, 9100, Control_c, 2, 64, 0
2, 9124, Note_off_c, 2, 64, 0
2, 9136, Note_on_c, 2, 66, 96
2, 9364, Note_on_c, 2, 59, 67
2, 9364, Note_on_c, 2, 55, 62
2, 9368, Note_on_c, 2, 45, 65
2, 9368, Note_on_c, 2, 64, 80
2, 9436, Control_c, 2, 64, 127
2, 9452, Note_off_c, 2, 55, 0
2, 9460, Note_off_c, 2, 45, 0
2, 9492, Note_off_c, 2, 64, 0
2, 9496, Note_off_c, 2, 59, 0
2, 9524, Note_off_c, 2, 66, 0
2, 9800, Control_c, 2, 64, 0
2, 9836, Note_on_c, 2, 68, 82
2, 10056, Note_on_c, 2, 63, 71
2, 10060, Note_on_c, 2, 59, 62
2, 10068, Note_on_c, 2, 44, 59
2, 10072, Note_on_c, 2, 54, 49
2, 10120, Note_on_c, 2, 63, 0
2, 10128, Control_c, 2, 64, 127
2, 10136, Note_off_c, 2, 54, 0
2, 10140, Note_off_c, 2, 44, 0
2, 10140, Note_off_c, 2, 68, 0
2, 10144, Note_off_c, 2, 59, 0
2, 10504, Note_on_c, 2, 69, 67
2, 10508, Control_c, 2, 64, 0
2, 10732, Note_on_c, 2, 62, 51
2, 10736, Note_on_c, 2, 59, 46
2, 10736, Note_on_c, 2, 53, 35
2, 10740, Note_on_c, 2, 49, 57
2, 10800, Control_c, 2, 64, 127
2, 10832, Note_off_c, 2, 49, 0
2, 10836, Note_off_c, 2, 53, 0
2, 10856, Note_off_c, 2, 62, 0
2, 10880, Note_off_c, 2, 69, 0
2, 10900, Note_off_c, 2, 59, 0
2, 11200, Control_c, 2, 64, 0
2, 11204, Note_on_c, 2, 66, 58
2, 11416, Note_on_c, 2, 61, 54
2, 11428, Note_on_c, 2, 57, 47
2, 11440, Note_on_c, 2, 42, 48
2, 11440, Note_on_c, 2, 52, 33
2, 11500, Control_c, 2, 64, 127
2, 11512, Note_off_c, 2, 42, 0
2, 11524, Note_off_c, 2, 61, 0
2, 11544, Note_off_c, 2, 52, 0
2, 11544, Note_off_c, 2, 57, 0
2, 11560, Note_off_c, 2, 66, 0
2, 11872, Control_c, 2, 64, 0
2, 11880, Note_on_c, 2, 68, 62
2, 12112, Note_on_c, 2, 63, 55
2, 12112, Note_on_c, 2, 57, 50
2, 12116, Note_on_c, 2, 51, 59
2, 12116, Note_on_c, 2, 47, 42
2, 12120, Note_on_c, 2, 60, 49
2, 12148, Control_c, 2, 64, 127
2, 12168, Note_off_c, 2, 60, 0
2, 12180, Note_off_c, 2, 51, 0
2, 12180, Note_off_c, 2, 57, 0
2, 12188, Note_off_c, 2, 63, 0
2, 12200, Note_off_c, 2, 47, 0
2, 12232, Note_off_c, 2, 68, 0
2, 12436, Note_on_c, 2, 68, 64
2, 12476, Note_on_c, 2, 69, 46
2, 12504, Note_on_c, 2, 70, 83
2, 12516, Note_on_c, 2, 68, 0
2, 12528, Control_c, 2, 64, 0
2, 12580, Note_on_c, 2, 71, 84
2, 12592, Note_on_c, 2, 69, 0
2, 12612, Note_on_c, 2, 70, 0
2, 12796, Note_on_c, 2, 40, 55
2, 12928, Control_c, 2, 64, 127
2, 13240, Note_off_c, 2, 71, 0
2, 13260, Note_on_c, 2, 47, 71
2, 13296, Note_on_c, 2, 40, 0
2, 13312, Note_on_c, 2, 47, 0
2, 13612, Note_on_c, 2, 69, 88
2, 13724, Note_on_c, 2, 69, 0
2, 13900, Note_on_c, 2, 57, 46
2, 13936, Control_c, 2, 64, 0
2, 13944, Note_on_c, 2, 61, 68
2, 14004, Note_on_c, 2, 68, 77
2, 14224, Note_on_c, 2, 47, 44
2, 14228, Note_on_c, 2, 54, 51
2, 14264, Control_c, 2, 64, 127
2, 14376, Note_off_c, 2, 68, 0
2, 14404, Note_off_c, 2, 57, 0
2, 14476, Note_off_c, 2, 61, 0
2, 14560, Note_on_c, 2, 64, 79
2, 14600, Control_c, 2, 64, 0
2, 14668, Note_on_c, 2, 66, 76
2, 14684, Note_on_c, 2, 64, 0
2, 14796, Note_on_c, 2, 66, 0
2, 14876, Control_c, 2, 64, 127
2, 15004, Note_on_c, 2, 68, 94
2, 15012, Note_on_c, 2, 54, 0
2, 15016, Note_on_c, 2, 47, 0
2, 15088, Note_on_c, 2, 68, 0
2, 15224, Note_on_c, 2, 61, 78
2, 15276, Control_c, 2, 64, 0
2, 15292, Note_on_c, 2, 60, 73
2, 15336, Note_on_c, 2, 61, 0
2, 15364, Note_on_c, 2, 59, 71
2, 15380, Note_on_c, 2, 60, 0
2, 15584, Note_on_c, 2, 40, 57
2, 15584, Note_on_c, 2, 47, 61
2, 15612, Control_c, 2, 64, 127
2, 15632, Note_off_c, 2, 59, 0
2, 15656, Note_off_c, 2, 47, 0
2, 15688, Note_off_c, 2, 40, 0
2, 15992, Control_c, 2, 64, 0
2, 16016, Note_on_c, 2, 59, 57
2, 16020, Note_on_c, 2, 53, 61
2, 16020, Note_on_c, 2, 37, 57
2, 16020, Note_on_c, 2, 44, 49
2, 16024, Note_on_c, 2, 64, 61
2, 16152, Control_c, 2, 64, 127
2, 16232, Note_off_c, 2, 37, 0
2, 16236, Note_off_c, 2, 64, 0
2, 16248, Note_off_c, 2, 44, 0
2, 16252, Note_off_c, 2, 59, 0
2, 16296, Note_off_c, 2, 53, 0
2, 16380, Note_on_c, 2, 61, 92
2, 16380, Control_c, 2, 64, 0
2, 16608, Note_on_c, 2, 57, 70
2, 16616, Note_on_c, 2, 52, 68
2, 16896, Control_c, 2, 64, 127
2, 16944, Note_on_c, 2, 42, 78
2, 16948, Note_on_c, 2, 49, 78
2, 16984, Note_on_c, 2, 52, 0
2, 17000, Note_on_c, 2, 49, 0
2, 17016, Note_on_c, 2, 42, 0
2, 17020, Note_on_c, 2, 57, 0
2, 17032, Note_on_c, 2, 61, 0
2, 17308, Note_on_c, 2, 35, 48
2, 17312, Note_on_c, 2, 42, 71
2, 17348, Control_c, 2, 64, 0
2, 17352, Note_off_c, 2, 42, 0
2, 17356, Note_off_c, 2, 35, 0
2, 17400, Note_on_c, 2, 58, 86
2, 17400, Note_on_c, 2, 55, 73
2, 17400, Note_on_c, 2, 62, 82
2, 17468, Note_on_c, 2, 59, 70
2, 17472, Note_on_c, 2, 58, 0
2, 17520, Note_on_c, 2, 55, 0
2, 17552, Note_on_c, 2, 62, 0
2, 17648, Note_on_c, 2, 59, 0
2, 17756, Note_on_c, 2, 60, 80
2, 18016, Note_on_c, 2, 47, 45
2, 18060, Note_on_c, 2, 60, 0
2, 18088, Note_on_c, 2, 47, 0
2, 18104, Note_on_c, 2, 40, 60
2, 18112, Note_on_c, 2, 59, 73
2, 18156, Control_c, 2, 64, 127
2, 18192, Note_off_c, 2, 59, 0
2, 18512, Note_off_c, 2, 40, 0
2, 18692, Note_on_c, 2, 59, 70
2, 18772, Note_on_c, 2, 59, 0
2, 18784, Control_c, 2, 64, 0
2, 18824, Note_on_c, 2, 64, 97
2, 19008, Note_on_c, 2, 64, 0
2, 19144, Note_on_c, 2, 45, 55
2, 19144, Note_on_c, 2, 55, 45
2, 19148, Note_on_c, 2, 66, 104
2, 19220, Control_c, 2, 64, 127
2, 19292, Note_off_c, 2, 55, 0
2, 19296, Note_off_c, 2, 45, 0
2, 19360, Note_off_c, 2, 66, 0
2, 19468, Control_c, 2, 64, 0
2, 19512, Note_on_c, 2, 68, 101
2, 19716, Note_on_c, 2, 68, 0
2, 19732, Note_on_c, 2, 54, 65
2, 19736, Note_on_c, 2, 44, 68
2, 19856, Control_c, 2, 64, 127
2, 19856, Note_on_c, 2, 69, 75
2, 19868, Note_on_c, 2, 54, 0
2, 19892, Note_on_c, 2, 44, 0
2, 20000, Note_on_c, 2, 69, 0
2, 20068, Control_c, 2, 64, 0
2, 20084, Note_on_c, 2, 69, 77
2, 20084, Note_on_c, 2, 53, 54
2, 20088, Note_on_c, 2, 49, 65
2, 20096, Note_on_c, 2, 70, 96
2, 20116, Note_on_c, 2, 71, 78
2, 20152, Note_on_c, 2, 70, 0
2, 20152, Note_on_c, 2, 69, 0
2, 20504, Control_c, 2, 64, 127
2, 20524, Note_off_c, 2, 71, 0
2, 20524, Note_on_c, 2, 73, 103
2, 20576, Note_on_c, 2, 53, 0
2, 20696, Note_on_c, 2, 49, 0
2, 20716, Note_on_c, 2, 73, 0
2, 20740, Control_c, 2, 64, 0
2, 20764, Note_on_c, 2, 66, 106
2, 21036, Control_c, 2, 64, 127
2, 21096, Note_off_c, 2, 66, 0
2, 21096, Note_on_c, 2, 52, 68
2, 21100, Note_on_c, 2, 42, 84
2, 21176, Note_on_c, 2, 42, 0
2, 21184, Note_on_c, 2, 52, 0
2, 21512, Control_c, 2, 64, 0
2, 21536, Note_on_c, 2, 58, 75
2, 21536, Note_on_c, 2, 62, 68
2, 21536, Note_on_c, 2, 66, 77
2, 21540, Note_on_c, 2, 55, 56
2, 21548, Note_on_c, 2, 36, 47
2, 21552, Note_on_c, 2, 52, 42
2, 21680, Control_c, 2, 64, 127
2, 21736, Note_off_c, 2, 52, 0
2, 21736, Note_off_c, 2, 36, 0
2, 21796, Note_off_c, 2, 66, 0
2, 21800, Note_off_c, 2, 58, 0
2, 21824, Note_off_c, 2, 55, 0
2, 21824, Note_off_c, 2, 62, 0
2, 22132, Note_on_c, 2, 57, 55
2, 22132, Note_on_c, 2, 63, 73
2, 22132, Note_on_c, 2, 60, 57
2, 22136, Control_c, 2, 64, 0
2, 22136, Note_on_c, 2, 66, 64
2, 22464, Note_on_c, 2, 35, 68
2, 22532, Control_c, 2, 64, 127
2, 22544, Note_off_c, 2, 35, 0
2, 22600, Note_off_c, 2, 60, 0
2, 22608, Note_off_c, 2, 63, 0
2, 22620, Note_off_c, 2, 66, 0
2, 22624, Note_off_c, 2, 57, 0
2, 22920, Note_on_c, 2, 59, 58
2, 22920, Control_c, 2, 64, 0
2, 22928, Note_on_c, 2, 53, 52
2, 23100, Control_c, 2, 64, 127
2, 23168, Note_off_c, 2, 53, 0
2, 23176, Note_on_c, 2, 37, 66
2, 23176, Note_on_c, 2, 44, 66
2, 23188, Note_on_c, 2, 59, 0
2, 23236, Note_on_c, 2, 37, 0
2, 23240, Note_on_c, 2, 44, 0
2, 23604, Control_c, 2, 64, 0
2, 23632, Note_on_c, 2, 42, 65
2, 23872, Note_on_c, 2, 61, 87
2, 23876, Note_on_c, 2, 57, 76
2, 23876, Note_on_c, 2, 66, 82
2, 23880, Note_on_c, 2, 69, 70
2, 23880, Note_on_c, 2, 52, 55
2, 23932, Note_on_c, 2, 61, 0
2, 23936, Note_on_c, 2, 66, 0
2, 23936, Note_on_c, 2, 57, 0
2, 23944, Note_on_c, 2, 69, 0
2, 23948, Note_on_c, 2, 52, 0
2, 24336, Note_on_c, 2, 61, 71
2, 24336, Note_on_c, 2, 66, 72
2, 24336, Note_on_c, 2, 57, 61
2, 24344, Note_on_c, 2, 69, 60
2, 24384, Control_c, 2, 64, 127
2, 24484, Note_off_c, 2, 66, 0
2, 24548, Note_off_c, 2, 42, 0
2, 24676, Note_off_c, 2, 69, 0
2, 24684, Note_on_c, 2, 65, 85
2, 24748, Note_on_c, 2, 57, 0
2, 24748, Note_on_c, 2, 61, 0
2, 24788, Note_on_c, 2, 65, 0
2, 25024, Control_c, 2, 64, 0
2, 25028, Note_on_c, 2, 61, 71
2, 25028, Note_on_c, 2, 68, 71
2, 25036, Note_on_c, 2, 57, 53
2, 25268, Note_on_c, 2, 47, 50
2, 25280, Control_c, 2, 64, 127
2, 25308, Note_off_c, 2, 68, 0
2, 25424, Note_off_c, 2, 57, 0
2, 25488, Note_off_c, 2, 61, 0
2, 25596, Note_on_c, 2, 66, 105
2, 25680, Control_c, 2, 64, 0
2, 25692, Note_off_c, 2, 66, 0
2, 25764, Note_on_c, 2, 64, 68
2, 25964, Note_on_c, 2, 66, 96
2, 25980, Note_on_c, 2, 54, 57
2, 25996, Control_c, 2, 64, 127
2, 26000, Note_off_c, 2, 64, 0
2, 26056, Note_off_c, 2, 66, 0
2, 26076, Note_off_c, 2, 54, 0
2, 26116, Note_off_c, 2, 47, 0
2, 26192, Note_on_c, 2, 68, 82
2, 26312, Note_on_c, 2, 68, 0
2, 26376, Control_c, 2, 64, 0
2, 26392, Note_on_c, 2, 59, 71
2, 26620, Note_on_c, 2, 42, 70
2, 26680, Control_c, 2, 64, 127
2, 26692, Note_off_c, 2, 59, 0
2, 27056, Note_on_c, 2, 52, 46
2, 27060, Note_on_c, 2, 56, 67
2, 27060, Control_c, 2, 64, 0
2, 27280, Control_c, 2, 64, 127
2, 27304, Note_on_c, 2, 57, 52
2, 27388, Note_on_c, 2, 56, 0
2, 27404, Note_on_c, 2, 52, 0
2, 27416, Note_on_c, 2, 59, 68
2, 27452, Note_on_c, 2, 57, 0
2, 27452, Note_on_c, 2, 42, 0
2, 27660, Note_on_c, 2, 61, 80
2, 27672, Note_on_c, 2, 59, 0
2, 27672, Control_c, 2, 64, 0
2, 27992, Note_on_c, 2, 57, 56
2, 27992, Note_on_c, 2, 52, 66
2, 27996, Note_on_c, 2, 35, 61
2, 28044, Note_on_c, 2, 35, 0
2, 28060, Note_on_c, 2, 52, 0
2, 28060, Note_on_c, 2, 57, 0
2, 28460, Note_on_c, 2, 57, 44
2, 28464, Note_on_c, 2, 54, 47
2, 28472, Note_on_c, 2, 35, 46
2, 28548, Control_c, 2, 64, 127
2, 28588, Note_off_c, 2, 35, 0
2, 28652, Note_off_c, 2, 54, 0
2, 28684, Note_off_c, 2, 57, 0
2, 28724, Note_off_c, 2, 61, 0
2, 29152, Control_c, 2, 64, 0
2, 29156, Note_on_c, 2, 42, 75
2, 29748, Note_on_c, 2, 59, 81
2, 29820, Note_on_c, 2, 59, 0
2, 29844, Note_on_c, 2, 63, 110
2, 29868, Note_on_c, 2, 52, 45
2, 30068, Note_on_c, 2, 63, 0
2, 30088, Note_on_c, 2, 64, 66
2, 30144, Note_on_c, 2, 42, 0
2, 30172, Control_c, 2, 64, 127
2, 30192, Note_on_c, 2, 66, 99
2, 30200, Note_on_c, 2, 52, 0
2, 30208, Note_on_c, 2, 64, 0
2, 30392, Control_c, 2, 64, 0
2, 30412, Note_off_c, 2, 66, 0
2, 30428, Note_on_c, 2, 68, 97
2, 30752, Note_on_c, 2, 63, 68
2, 30756, Note_on_c, 2, 60, 60
2, 30760, Note_on_c, 2, 57, 43
2, 30768, Note_on_c, 2, 51, 54
2, 30768, Note_on_c, 2, 47, 41
2, 30852, Control_c, 2, 64, 127
2, 31012, Note_off_c, 2, 68, 0
2, 31024, Note_off_c, 2, 60, 0
2, 31032, Note_off_c, 2, 63, 0
2, 31180, Control_c, 2, 64, 0
2, 31196, Note_on_c, 2, 66, 103
2, 31416, Note_on_c, 2, 66, 0
2, 31448, Note_on_c, 2, 64, 54
2, 31536, Note_on_c, 2, 66, 96
2, 31548, Note_on_c, 2, 64, 0
2, 31560, Control_c, 2, 64, 127
2, 31632, Note_off_c, 2, 57, 0
2, 31648, Note_off_c, 2, 66, 0
2, 31668, Note_off_c, 2, 47, 0
2, 31696, Note_off_c, 2, 51, 0
2, 31872, Control_c, 2, 64, 0
2, 31896, Note_on_c, 2, 71, 77
2, 32140, Note_on_c, 2, 66, 68
2, 32144, Note_on_c, 2, 59, 57
2, 32156, Note_on_c, 2, 44, 59
2, 32164, Note_on_c, 2, 54, 37
2, 32216, Note_on_c, 2, 59, 0
2, 32224, Note_on_c, 2, 66, 0
2, 32232, Note_on_c, 2, 54, 0
2, 32232, Note_on_c, 2, 44, 0
2, 32252, Control_c, 2, 64, 127
2, 32260, Note_off_c, 2, 71, 0
2, 32588, Control_c, 2, 64, 0
2, 32604, Note_on_c, 2, 76, 86
2, 32604, Note_on_c, 2, 53, 45
2, 32608, Note_on_c, 2, 49, 59
2, 32608, Note_on_c, 2, 69, 80
2, 32612, Note_on_c, 2, 65, 71
2, 32768, Note_on_c, 2, 76, 0
2, 32828, Control_c, 2, 64, 127
2, 32900, Note_off_c, 2, 53, 0
2, 32908, Note_off_c, 2, 49, 0
2, 32948, Note_on_c, 2, 74, 76
2, 32988, Note_on_c, 2, 65, 0
2, 32988, Note_on_c, 2, 69, 0
2, 33028, Note_on_c, 2, 74, 0
2, 33164, Control_c, 2, 64, 0
2, 33180, Note_on_c, 2, 71, 84
2, 33184, Note_on_c, 2, 42, 75
2, 33184, Note_on_c, 2, 64, 67
2, 33316, Control_c, 2, 64, 127
2, 33408, Note_off_c, 2, 64, 0
2, 33448, Note_off_c, 2, 71, 0
2, 33512, Note_off_c, 2, 42, 0
2, 33512, Note_on_c, 2, 52, 57
2, 33616, Note_on_c, 2, 52, 0
2, 33620, Note_on_c, 2, 57, 61
2, 33700, Note_on_c, 2, 57, 0
2, 33744, Note_on_c, 2, 64, 45
2, 33772, Note_on_c, 2, 68, 74
2, 33828, Note_on_c, 2, 64, 0
2, 33828, Note_on_c, 2, 71, 90
2, 33872, Note_on_c, 2, 68, 0
2, 33892, Control_c, 2, 64, 0
2, 33908, Note_off_c, 2, 71, 0
2, 33952, Note_on_c, 2, 67, 89
2, 33956, Note_on_c, 2, 74, 94
2, 33960, Note_on_c, 2, 71, 82
2, 34164, Note_on_c, 2, 67, 0
2, 34176, Note_on_c, 2, 74, 0
2, 34192, Note_on_c, 2, 47, 61
2, 34196, Note_on_c, 2, 71, 0
2, 34196, Note_on_c, 2, 57, 54
2, 34272, Control_c, 2, 64, 127
2, 34296, Note_off_c, 2, 57, 0
2, 34304, Note_off_c, 2, 47, 0
2, 34304, Note_on_c, 2, 72, 71
2, 34304, Note_on_c, 2, 69, 68
2, 34304, Note_on_c, 2, 65, 74
2, 34380, Note_on_c, 2, 69, 0
2, 34380, Note_on_c, 2, 72, 0
2, 34396, Note_on_c, 2, 65, 0
2, 34652, Control_c, 2, 64, 0
2, 34656, Note_on_c, 2, 63, 75
2, 34656, Note_on_c, 2, 68, 69
2, 34660, Note_on_c, 2, 66, 76
2, 34660, Note_on_c, 2, 59, 65
2, 34660, Note_on_c, 2, 71, 69
2, 34896, Note_on_c, 2, 47, 62
2, 34900, Note_on_c, 2, 40, 58
2, 34968, Note_on_c, 2, 47, 0
2, 34976, Note_on_c, 2, 40, 0
2, 34980, Control_c, 2, 64, 127
2, 35004, Note_off_c, 2, 63, 0
2, 35016, Control_c, 2, 64, 0
2, 35036, Note_off_c, 2, 59, 0
2, 35088, Note_off_c, 2, 66, 0
2, 35176, Note_off_c, 2, 68, 0
2, 35368, Note_on_c, 2, 64, 64
2, 35372, Note_on_c, 2, 59, 61
2, 35380, Note_on_c, 2, 37, 72
2, 35416, Control_c, 2, 64, 127
2, 35492, Note_off_c, 2, 37, 0
2, 35512, Note_off_c, 2, 71, 0
2, 35644, Note_off_c, 2, 59, 0
2, 35688, Note_off_c, 2, 64, 0
2, 35704, Note_on_c, 2, 69, 100
2, 35792, Note_on_c, 2, 69, 0
2, 35952, Note_on_c, 2, 42, 68
2, 35992, Note_on_c, 2, 57, 32
2, 36000, Control_c, 2, 64, 0
2, 36032, Note_on_c, 2, 52, 56
2, 36036, Note_on_c, 2, 61, 69
2, 36076, Note_on_c, 2, 68, 84
2, 36176, Control_c, 2, 64, 127
2, 36252, Note_off_c, 2, 42, 0
2, 36296, Note_off_c, 2, 52, 0
2, 36332, Note_off_c, 2, 57, 0
2, 36356, Note_off_c, 2, 68, 0
2, 36380, Note_off_c, 2, 61, 0
2, 36412, Note_on_c, 2, 64, 81
2, 36424, Control_c, 2, 64, 0
2, 36644, Note_on_c, 2, 66, 102
2, 36648, Note_on_c, 2, 57, 60
2, 36648, Note_on_c, 2, 47, 58
2, 36652, Note_on_c, 2, 51, 64
2, 36660, Note_on_c, 2, 64, 0
2, 36800, Control_c, 2, 64, 127
2, 36988, Note_off_c, 2, 57, 0
2, 37020, Note_off_c, 2, 47, 0
2, 37044, Note_off_c, 2, 51, 0
2, 37076, Note_off_c, 2, 66, 0
2, 37096, Note_on_c, 2, 68, 97
2, 37248, Control_c, 2, 64, 0
2, 37312, Note_off_c, 2, 68, 0
2, 37324, Note_on_c, 2, 59, 81
2, 37660, Note_on_c, 2, 41, 59
2, 37664, Note_on_c, 2, 51, 61
2, 37728, Control_c, 2, 64, 127
2, 37820, Note_off_c, 2, 41, 0
2, 37840, Note_off_c, 2, 51, 0
2, 37920, Note_off_c, 2, 59, 0
2, 38120, Control_c, 2, 64, 0
2, 38120, Note_on_c, 2, 42, 58
2, 38120, Note_on_c, 2, 59, 73
2, 38120, Note_on_c, 2, 52, 46
2, 38212, Note_on_c, 2, 52, 0
2, 38212, Note_on_c, 2, 42, 0
2, 38248, Note_on_c, 2, 59, 0
2, 38448, Note_on_c, 2, 41, 42
2, 38460, Note_on_c, 2, 51, 49
2, 38472, Note_on_c, 2, 58, 70
2, 38560, Note_on_c, 2, 41, 0
2, 38580, Note_on_c, 2, 51, 0
2, 38620, Note_on_c, 2, 58, 0
2, 38816, Note_on_c, 2, 52, 49
2, 38820, Note_on_c, 2, 42, 51
2, 38820, Note_on_c, 2, 59, 70
2, 38860, Control_c, 2, 64, 127
2, 39036, Note_off_c, 2, 59, 0
2, 39036, Note_off_c, 2, 52, 0
2, 39052, Note_off_c, 2, 42, 0
2, 39060, Note_on_c, 2, 56, 52
2, 39160, Note_on_c, 2, 59, 54
2, 39168, Note_on_c, 2, 56, 0
2, 39340, Note_on_c, 2, 59, 0
2, 39360, Control_c, 2, 64, 0
2, 39392, Note_on_c, 2, 55, 59
2, 39392, Note_on_c, 2, 58, 70
2, 39400, Note_on_c, 2, 62, 67
2, 39452, Note_on_c, 2, 58, 0
2, 39452, Note_on_c, 2, 59, 33
2, 39580, Control_c, 2, 64, 127
2, 39708, Note_off_c, 2, 62, 0
2, 39728, Note_on_c, 2, 42, 60
2, 39728, Note_on_c, 2, 35, 51
2, 39776, Note_on_c, 2, 55, 0
2, 39784, Note_on_c, 2, 35, 0
2, 39788, Note_on_c, 2, 42, 0
2, 39800, Note_on_c, 2, 59, 0
2, 39840, Note_on_c, 2, 60, 52
2, 39892, Note_on_c, 2, 60, 0
2, 40060, Control_c, 2, 64, 0
2, 40060, Note_on_c, 2, 59, 64
2, 40072, Note_on_c, 2, 56, 64
2, 40072, Note_on_c, 2, 54, 57
2, 40092, Note_on_c, 2, 47, 20
2, 40104, Note_on_c, 2, 40, 9
2, 40228, Control_c, 2, 64, 127
2, 40244, Note_off_c, 2, 54, 0
2, 40268, Note_off_c, 2, 56, 0
2, 40288, Note_off_c, 2, 59, 0
2, 40464, Note_off_c, 2, 40, 0
2, 40480, Note_off_c, 2, 47, 0
2, 40792, Note_on_c, 2, 59, 86
2, 40840, Control_c, 2, 64, 0
2, 40860, Note_off_c, 2, 59, 0
2, 40868, Note_on_c, 2, 55, 44
2, 40872, Note_on_c, 2, 45, 46
2, 40884, Note_on_c, 2, 64, 93
2, 41120, Control_c, 2, 64, 127
2, 41200, Note_off_c, 2, 64, 0
2, 41232, Note_on_c, 2, 66, 103
2, 41236, Note_on_c, 2, 45, 0
2, 41276, Note_on_c, 2, 55, 0
2, 41380, Note_on_c, 2, 66, 0
2, 41548, Control_c, 2, 64, 0
2, 41584, Note_on_c, 2, 54, 57
2, 41584, Note_on_c, 2, 44, 69
2, 41588, Note_on_c, 2, 68, 98
2, 41768, Control_c, 2, 64, 127
2, 41856, Note_off_c, 2, 68, 0
2, 41928, Note_on_c, 2, 69, 90
2, 41940, Note_on_c, 2, 54, 0
2, 41984, Note_on_c, 2, 44, 0
2, 42128, Note_on_c, 2, 69, 0
2, 42212, Control_c, 2, 64, 0
2, 42260, Note_on_c, 2, 53, 42
2, 42264, Note_on_c, 2, 69, 81
2, 42268, Note_on_c, 2, 49, 61
2, 42272, Note_on_c, 2, 70, 95
2, 42288, Note_on_c, 2, 71, 88
2, 42324, Note_on_c, 2, 70, 0
2, 42324, Note_on_c, 2, 69, 0
2, 42576, Control_c, 2, 64, 127
2, 42620, Note_off_c, 2, 71, 0
2, 42624, Note_off_c, 2, 53, 0
2, 42628, Note_on_c, 2, 73, 99
2, 42676, Note_on_c, 2, 49, 0
2, 42832, Control_c, 2, 64, 0
2, 42848, Note_off_c, 2, 73, 0
2, 42856, Note_on_c, 2, 66, 99
2, 42860, Note_on_c, 2, 52, 52
2, 42860, Note_on_c, 2, 42, 67
2, 42992, Control_c, 2, 64, 127
2, 43096, Note_off_c, 2, 42, 0
2, 43136, Note_off_c, 2, 52, 0
2, 43148, Note_off_c, 2, 66, 0
2, 43516, Note_on_c, 2, 61, 68
2, 43520, Note_on_c, 2, 57, 74
2, 43520, Note_on_c, 2, 78, 109
2, 43520, Control_c, 2, 64, 0
2, 43524, Note_on_c, 2, 56, 66
2, 43724, Note_on_c, 2, 73, 74
2, 43752, Note_on_c, 2, 78, 0
2, 43824, Note_on_c, 2, 69, 43
2, 43848, Note_on_c, 2, 73, 0
2, 43892, Note_on_c, 2, 66, 76
2, 43968, Note_on_c, 2, 66, 0
2, 43984, Note_on_c, 2, 77, 91
2, 44008, Note_on_c, 2, 69, 0
2, 44060, Note_on_c, 2, 61, 0
2, 44188, Note_on_c, 2, 77, 0
2, 44232, Note_on_c, 2, 73, 63
2, 44288, Note_on_c, 2, 57, 0
2, 44304, Note_on_c, 2, 56, 0
2, 44332, Note_on_c, 2, 76, 86
2, 44368, Note_on_c, 2, 73, 0
2, 44560, Note_on_c, 2, 57, 59
2, 44564, Note_on_c, 2, 47, 61
2, 44568, Note_on_c, 2, 73, 91
2, 44584, Note_on_c, 2, 76, 0
2, 44696, Note_on_c, 2, 73, 0
2, 44696, Note_on_c, 2, 69, 42
2, 44924, Note_on_c, 2, 66, 69
2, 44976, Note_on_c, 2, 69, 0
2, 45000, Note_on_c, 2, 66, 0
2, 45016, Note_on_c, 2, 75, 106
2, 45072, Control_c, 2, 64, 127
2, 45236, Note_on_c, 2, 54, 87
2, 45240, Note_on_c, 2, 75, 0
2, 45252, Note_on_c, 2, 57, 0
2, 45268, Note_on_c, 2, 47, 0
2, 45280, Note_on_c, 2, 54, 0
2, 45684, Control_c, 2, 64, 0
2, 45700, Note_on_c, 2, 42, 82
2, 46064, Control_c, 2, 64, 127
2, 46276, Note_on_c, 2, 69, 86
2, 46276, Note_on_c, 2, 61, 97
2, 46276, Note_on_c, 2, 52, 67
2, 46288, Control_c, 2, 64, 0
2, 46428, Control_c, 2, 64, 127
2, 46492, Note_off_c, 2, 69, 0
2, 46576, Note_off_c, 2, 61, 0
2, 46636, Note_on_c, 2, 49, 84
2, 46668, Note_on_c, 2, 52, 0
2, 46668, Note_on_c, 2, 42, 0
2, 46672, Note_on_c, 2, 49, 0
2, 46740, Note_on_c, 2, 68, 102
2, 46872, Note_on_c, 2, 68, 0
2, 47068, Control_c, 2, 64, 0
2, 47096, Note_on_c, 2, 47, 62
2, 47096, Note_on_c, 2, 66, 89
2, 47328, Note_on_c, 2, 57, 46
2, 47328, Note_on_c, 2, 63, 73
2, 47336, Note_on_c, 2, 60, 48
2, 47412, Control_c, 2, 64, 127
2, 47456, Note_off_c, 2, 63, 0
2, 47520, Note_off_c, 2, 60, 0
2, 47520, Note_off_c, 2, 66, 0
2, 47776, Note_on_c, 2, 63, 113
2, 47784, Control_c, 2, 64, 0
2, 47920, Note_off_c, 2, 63, 0
2, 48028, Note_on_c, 2, 64, 74
2, 48096, Note_on_c, 2, 57, 0
2, 48120, Control_c, 2, 64, 127
2, 48124, Note_off_c, 2, 64, 0
2, 48136, Note_off_c, 2, 47, 0
2, 48272, Note_on_c, 2, 66, 78
2, 48440, Note_on_c, 2, 66, 0
2, 48472, Note_on_c, 2, 42, 56
2, 48484, Control_c, 2, 64, 0
2, 48484, Note_on_c, 2, 59, 50
2, 48708, Note_on_c, 2, 71, 86
2, 48712, Note_on_c, 2, 52, 61
2, 48760, Control_c, 2, 64, 127
2, 48820, Note_off_c, 2, 52, 0
2, 48820, Note_off_c, 2, 71, 0
2, 48860, Note_off_c, 2, 59, 0
2, 48924, Note_on_c, 2, 69, 80
2, 48928, Note_on_c, 2, 49, 80
2, 48980, Note_on_c, 2, 42, 0
2, 49092, Note_on_c, 2, 69, 0
2, 49140, Note_on_c, 2, 56, 72
2, 49140, Control_c, 2, 64, 0
2, 49152, Note_on_c, 2, 68, 84
2, 49264, Control_c, 2, 64, 127
2, 49368, Note_on_c, 2, 57, 70
2, 49372, Note_on_c, 2, 42, 81
2, 49464, Note_on_c, 2, 42, 0
2, 49464, Note_on_c, 2, 49, 0
2, 49508, Note_on_c, 2, 68, 0
2, 49508, Note_on_c, 2, 56, 0
2, 49560, Note_on_c, 2, 57, 0
2, 49584, Note_on_c, 2, 64, 55
2, 49660, Note_on_c, 2, 66, 87
2, 49700, Note_on_c, 2, 64, 0
2, 49724, Note_on_c, 2, 68, 91
2, 49768, Note_on_c, 2, 66, 0
2, 49788, Control_c, 2, 64, 0
2, 50068, Note_on_c, 2, 49, 66
2, 50528, Note_on_c, 2, 65, 51
2, 50532, Note_on_c, 2, 59, 51
2, 50536, Note_on_c, 2, 62, 57
2, 50548, Note_on_c, 2, 53, 35
2, 50584, Control_c, 2, 64, 127
2, 50716, Note_off_c, 2, 59, 0
2, 50740, Note_off_c, 2, 53, 0
2, 50744, Note_off_c, 2, 49, 0
2, 50780, Note_off_c, 2, 65, 0
2, 50780, Note_off_c, 2, 68, 0
2, 50788, Note_off_c, 2, 62, 0
2, 51144, Note_on_c, 2, 49, 86
2, 51176, Note_on_c, 2, 49, 0
2, 51180, Control_c, 2, 64, 0
2, 51232, Note_on_c, 2, 42, 79
2, 51460, Note_on_c, 2, 59, 86
2, 51460, Note_on_c, 2, 63, 94
2, 51460, Note_on_c, 2, 66, 90
2, 51464, Note_on_c, 2, 71, 77
2, 51508, Note_on_c, 2, 63, 0
2, 51512, Note_on_c, 2, 66, 0
2, 51516, Note_on_c, 2, 59, 0
2, 51524, Note_on_c, 2, 71, 0
2, 51856, Note_on_c, 2, 52, 51
2, 51896, Note_on_c, 2, 42, 0
2, 51936, Note_on_c, 2, 75, 84
2, 51936, Note_on_c, 2, 63, 95
2, 51940, Note_on_c, 2, 57, 68
2, 51940, Note_on_c, 2, 68, 77
2, 51944, Note_on_c, 2, 71, 72
2, 51984, Note_on_c, 2, 52, 0
2, 52012, Control_c, 2, 64, 127
2, 52080, Note_off_c, 2, 63, 0
2, 52092, Note_off_c, 2, 71, 0
2, 52092, Note_off_c, 2, 68, 0
2, 52100, Note_off_c, 2, 75, 0
2, 52180, Note_on_c, 2, 68, 81
2, 52180, Note_on_c, 2, 64, 84
2, 52184, Note_on_c, 2, 76, 86
2, 52184, Note_on_c, 2, 71, 79
2, 52276, Note_on_c, 2, 64, 0
2, 52288, Note_on_c, 2, 68, 0
2, 52296, Note_on_c, 2, 76, 0
2, 52300, Note_on_c, 2, 71, 0
2, 52400, Note_on_c, 2, 66, 89
2, 52412, Note_on_c, 2, 78, 97
2, 52440, Note_on_c, 2, 57, 0
2, 52480, Note_on_c, 2, 66, 0
2, 52532, Note_on_c, 2, 78, 0
2, 52552, Note_on_c, 2, 47, 60
2, 52596, Control_c, 2, 64, 0
2, 52596, Note_on_c, 2, 51, 71
2, 52608, Note_on_c, 2, 68, 68
2, 52608, Note_on_c, 2, 57, 61
2, 52628, Note_on_c, 2, 72, 67
2, 52632, Note_on_c, 2, 75, 83
2, 52648, Note_on_c, 2, 80, 93
2, 52756, Control_c, 2, 64, 127
2, 52772, Note_off_c, 2, 47, 0
2, 52784, Note_off_c, 2, 51, 0
2, 52820, Note_off_c, 2, 57, 0
2, 53268, Note_off_c, 2, 80, 0
2, 53300, Note_off_c, 2, 75, 0
2, 53308, Note_on_c, 2, 63, 68
2, 53308, Note_on_c, 2, 57, 56
2, 53312, Note_on_c, 2, 72, 0
2, 53312, Note_on_c, 2, 61, 79
2, 53316, Note_on_c, 2, 68, 0
2, 53376, Note_on_c, 2, 63, 0
2, 53380, Note_on_c, 2, 61, 0
2, 53380, Note_on_c, 2, 57, 0
2, 53548, Note_on_c, 2, 78, 99
2, 53548, Note_on_c, 2, 66, 103
2, 53548, Note_on_c, 2, 70, 98
2, 53552, Note_on_c, 2, 73, 94
2, 53668, Note_on_c, 2, 70, 0
2, 53680, Note_on_c, 2, 78, 0
2, 53684, Note_on_c, 2, 73, 0
2, 53684, Note_on_c, 2, 66, 0
2, 53980, Control_c, 2, 64, 0
2, 54012, Note_on_c, 2, 76, 95
2, 54092, Control_c, 2, 64, 127
2, 54108, Note_off_c, 2, 76, 0
2, 54256, Note_on_c, 2, 40, 81
2, 54320, Note_on_c, 2, 40, 0
2, 54716, Note_on_c, 2, 40, 57
2, 54716, Note_on_c, 2, 56, 76
2, 54724, Control_c, 2, 64, 0
2, 54724, Note_on_c, 2, 64, 69
2, 54728, Note_on_c, 2, 52, 57
2, 54844, Note_on_c, 2, 56, 0
2, 54860, Note_on_c, 2, 40, 0
2, 54864, Note_on_c, 2, 52, 0
2, 54888, Note_on_c, 2, 64, 0
2, 55040, Note_on_c, 2, 42, 56
2, 55044, Note_on_c, 2, 57, 62
2, 55056, Note_on_c, 2, 52, 56
2, 55060, Note_on_c, 2, 64, 55
2, 55212, Note_on_c, 2, 57, 0
2, 55216, Note_on_c, 2, 52, 0
2, 55260, Note_on_c, 2, 64, 0
2, 55308, Note_on_c, 2, 39, 54
2, 55316, Note_on_c, 2, 42, 0
2, 55368, Note_on_c, 2, 39, 0
2, 55384, Note_on_c, 2, 43, 52
2, 55388, Note_on_c, 2, 58, 81
2, 55392, Note_on_c, 2, 64, 72
2, 55396, Note_on_c, 2, 52, 63
2, 55536, Control_c, 2, 64, 127
2, 55688, Note_off_c, 2, 52, 0
2, 55712, Note_off_c, 2, 64, 0
2, 55720, Note_off_c, 2, 58, 0
2, 55804, Note_off_c, 2, 43, 0
2, 55936, Note_on_c, 2, 44, 87
2, 55940, Note_on_c, 2, 59, 77
2, 55944, Note_on_c, 2, 64, 77
2, 55964, Control_c, 2, 64, 0
2, 55996, Note_off_c, 2, 44, 0
2, 56024, Note_off_c, 2, 64, 0
2, 56028, Note_off_c, 2, 59, 0
2, 56268, Note_on_c, 2, 60, 79
2, 56268, Note_on_c, 2, 32, 88
2, 56268, Note_on_c, 2, 54, 80
2, 56272, Note_on_c, 2, 63, 85
2, 56328, Note_on_c, 2, 32, 0
2, 56336, Control_c, 2, 64, 127
2, 56340, Note_off_c, 2, 54, 0
2, 56364, Note_off_c, 2, 60, 0
2, 56388, Note_off_c, 2, 63, 0
2, 56632, Note_on_c, 2, 44, 84
2, 56672, Control_c, 2, 64, 0
2, 56736, Note_on_c, 2, 37, 97
2, 56816, Note_on_c, 2, 37, 0
2, 56820, Note_on_c, 2, 44, 0
2, 56824, Control_c, 2, 64, 127
2, 57400, Control_c, 2, 64, 0
2, 57436, Note_on_c, 2, 80, 98
2, 57436, Note_on_c, 2, 61, 76
2, 57436, Note_on_c, 2, 56, 71
2, 57436, Note_on_c, 2, 63, 67
2, 57440, Note_on_c, 2, 88, 94
2, 57440, Note_on_c, 2, 76, 92
2, 57440, Note_on_c, 2, 85, 93
2, 57440, Note_on_c, 2, 52, 57
2, 57564, Note_on_c, 2, 76, 0
2, 57572, Note_on_c, 2, 88, 0
2, 57576, Note_on_c, 2, 85, 0
2, 57580, Note_on_c, 2, 80, 0
2, 57596, Note_on_c, 2, 61, 0
2, 57780, Note_on_c, 2, 60, 77
2, 57784, Note_on_c, 2, 87, 101
2, 57788, Note_on_c, 2, 75, 94
2, 57788, Note_on_c, 2, 80, 94
2, 57932, Note_on_c, 2, 80, 0
2, 57936, Note_on_c, 2, 87, 0
2, 57940, Note_on_c, 2, 60, 0
2, 57944, Note_on_c, 2, 75, 0
2, 58136, Note_on_c, 2, 85, 101
2, 58136, Note_on_c, 2, 73, 101
2, 58140, Note_on_c, 2, 80, 95
2, 58140, Note_on_c, 2, 59, 69
2, 58176, Control_c, 2, 64, 127
2, 58276, Note_off_c, 2, 85, 0
2, 58280, Note_off_c, 2, 80, 0
2, 58312, Note_off_c, 2, 73, 0
2, 58356, Note_off_c, 2, 59, 0
2, 58364, Note_off_c, 2, 52, 0
2, 58368, Note_off_c, 2, 63, 0
2, 58384, Note_off_c, 2, 56, 0
2, 58460, Control_c, 2, 64, 0
2, 58492, Note_on_c, 2, 70, 78
2, 58496, Note_on_c, 2, 82, 84
2, 58516, Control_c, 2, 64, 127
2, 58620, Note_off_c, 2, 82, 0
2, 58628, Note_off_c, 2, 70, 0
2, 58728, Note_on_c, 2, 52, 54
2, 58780, Control_c, 2, 64, 0
2, 58816, Note_on_c, 2, 71, 72
2, 58816, Note_on_c, 2, 83, 75
2, 58820, Note_on_c, 2, 63, 60
2, 58828, Note_on_c, 2, 56, 61
2, 58836, Note_on_c, 2, 58, 73
2, 58884, Control_c, 2, 64, 127
2, 58892, Note_off_c, 2, 71, 0
2, 58904, Note_off_c, 2, 83, 0
2, 58932, Note_off_c, 2, 58, 0
2, 58936, Note_off_c, 2, 63, 0
2, 58944, Note_off_c, 2, 52, 0
2, 58948, Note_off_c, 2, 56, 0
2, 59072, Note_on_c, 2, 63, 76
2, 59076, Note_on_c, 2, 85, 97
2, 59076, Note_on_c, 2, 56, 73
2, 59076, Note_on_c, 2, 73, 95
2, 59084, Note_on_c, 2, 58, 78
2, 59088, Note_on_c, 2, 52, 43
2, 59124, Note_on_c, 2, 58, 0
2, 59128, Note_on_c, 2, 63, 0
2, 59132, Note_on_c, 2, 52, 0
2, 59136, Note_on_c, 2, 73, 0
2, 59140, Note_on_c, 2, 56, 0
2, 59156, Note_on_c, 2, 85, 0
2, 59488, Control_c, 2, 64, 0
2, 59496, Note_on_c, 2, 87, 98
2, 59496, Note_on_c, 2, 82, 90
2, 59500, Note_on_c, 2, 75, 96
2, 59500, Note_on_c, 2, 78, 95
2, 59500, Note_on_c, 2, 58, 82
2, 59500, Note_on_c, 2, 47, 75
2, 59632, Control_c, 2, 64, 127
2, 59668, Note_off_c, 2, 87, 0
2, 59684, Note_off_c, 2, 82, 0
2, 59704, Note_off_c, 2, 78, 0
2, 59712, Note_off_c, 2, 75, 0
2, 59868, Note_off_c, 2, 58, 0
2, 60204, Note_on_c, 2, 58, 101
2, 60208, Note_on_c, 2, 54, 79
2, 60368, Note_on_c, 2, 54, 0
2, 60408, Note_on_c, 2, 47, 0
2, 60420, Note_on_c, 2, 58, 0
2, 60444, Note_on_c, 2, 61, 95
2, 60636, Note_on_c, 2, 61, 0
2, 60680, Note_on_c, 2, 63, 90
2, 60808, Note_on_c, 2, 63, 0
2, 60896, Note_on_c, 2, 66, 95
2, 60896, Note_on_c, 2, 61, 89
2, 60900, Note_on_c, 2, 58, 87
2, 60908, Control_c, 2, 64, 0
2, 61124, Note_on_c, 2, 35, 66
2, 61156, Control_c, 2, 64, 127
2, 61368, Note_on_c, 2, 42, 87
2, 61380, Note_on_c, 2, 35, 0
2, 61408, Note_on_c, 2, 58, 0
2, 61408, Note_on_c, 2, 66, 0
2, 61436, Note_on_c, 2, 61, 0
2, 61596, Note_on_c, 2, 51, 95
2, 61608, Note_on_c, 2, 42, 0
2, 61672, Note_on_c, 2, 51, 0
2, 61732, Control_c, 2, 64, 0
2, 61812, Note_on_c, 2, 59, 81
2, 61812, Note_on_c, 2, 37, 92
2, 61816, Note_on_c, 2, 64, 82
2, 61888, Note_on_c, 2, 59, 0
2, 61892, Note_on_c, 2, 64, 0
2, 61948, Note_on_c, 2, 37, 0
2, 62028, Note_on_c, 2, 36, 74
2, 62036, Note_on_c, 2, 58, 95
2, 62040, Note_on_c, 2, 63, 89
2, 62128, Note_on_c, 2, 36, 0
2, 62148, Note_on_c, 2, 63, 0
2, 62168, Note_on_c, 2, 58, 0
2, 62260, Note_on_c, 2, 35, 76
2, 62260, Note_on_c, 2, 62, 89
2, 62264, Note_on_c, 2, 57, 85
2, 62332, Control_c, 2, 64, 127
2, 62400, Note_off_c, 2, 57, 0
2, 62428, Note_off_c, 2, 62, 0
2, 62432, Note_off_c, 2, 35, 0
2, 62936, Note_on_c, 2, 81, 97
2, 62940, Note_on_c, 2, 86, 103
2, 62940, Note_on_c, 2, 78, 109
2, 62940, Note_on_c, 2, 74, 101
2, 63100, Note_on_c, 2, 74, 0
2, 63100, Note_on_c, 2, 78, 0
2, 63108, Note_on_c, 2, 86, 0
2, 63112, Note_on_c, 2, 81, 0
2, 63168, Note_on_c, 2, 62, 86
2, 63172, Note_on_c, 2, 61, 92
2, 63220, Note_on_c, 2, 61, 0
2, 63224, Note_on_c, 2, 62, 0
2, 63504, Note_on_c, 2, 85, 94
2, 63508, Note_on_c, 2, 73, 98
2, 63512, Note_on_c, 2, 78, 92
2, 63560, Note_on_c, 2, 73, 0
2, 63560, Note_on_c, 2, 85, 0
2, 63576, Note_on_c, 2, 78, 0
2, 63620, Control_c, 2, 64, 0
2, 63636, Note_on_c, 2, 83, 75
2, 63636, Note_on_c, 2, 71, 69
2, 63760, Control_c, 2, 64, 127
2, 63780, Control_c, 2, 64, 0
2, 63812, Note_off_c, 2, 83, 0
2, 63832, Note_off_c, 2, 71, 0
2, 63888, Note_on_c, 2, 40, 66
2, 63988, Note_on_c, 2, 68, 83
2, 63988, Note_on_c, 2, 80, 84
2, 64192, Note_on_c, 2, 80, 0
2, 64196, Note_on_c, 2, 68, 0
2, 64332, Note_on_c, 2, 47, 67
2, 64332, Note_on_c, 2, 81, 78
2, 64332, Note_on_c, 2, 69, 76
2, 64344, Control_c, 2, 64, 127
2, 64468, Note_off_c, 2, 69, 0
2, 64484, Note_off_c, 2, 81, 0
2, 64668, Note_off_c, 2, 40, 0
2, 64668, Note_on_c, 2, 56, 83
2, 64672, Note_on_c, 2, 83, 84
2, 64672, Note_on_c, 2, 71, 81
2, 64712, Note_on_c, 2, 47, 0
2, 64744, Note_on_c, 2, 71, 0
2, 64752, Note_on_c, 2, 56, 0
2, 64764, Note_on_c, 2, 83, 0
2, 64932, Note_on_c, 2, 45, 68
2, 64976, Control_c, 2, 64, 0
2, 64992, Note_on_c, 2, 56, 83
2, 64992, Note_on_c, 2, 73, 72
2, 65012, Note_on_c, 2, 78, 91
2, 65024, Note_on_c, 2, 80, 84
2, 65048, Note_on_c, 2, 85, 96
2, 65116, Control_c, 2, 64, 127
2, 65144, Note_off_c, 2, 85, 0
2, 65164, Note_off_c, 2, 80, 0
2, 65164, Note_off_c, 2, 78, 0
2, 65172, Note_off_c, 2, 73, 0
2, 65580, Note_on_c, 2, 61, 89
2, 65596, Note_on_c, 2, 68, 82
2, 65596, Note_on_c, 2, 66, 85
2, 65600, Note_on_c, 2, 73, 96
2, 65696, Note_on_c, 2, 61, 0
2, 65704, Note_on_c, 2, 66, 0
2, 65736, Note_on_c, 2, 68, 0
2, 65768, Note_on_c, 2, 73, 0
2, 65936, Note_on_c, 2, 52, 82
2, 65976, Note_on_c, 2, 45, 0
2, 65984, Note_on_c, 2, 56, 0
2, 65996, Note_on_c, 2, 52, 0
2, 66260, Note_on_c, 2, 84, 71
2, 66268, Note_on_c, 2, 80, 87
2, 66284, Note_on_c, 2, 75, 85
2, 66296, Control_c, 2, 64, 0
2, 66360, Note_on_c, 2, 72, 34
2, 66428, Control_c, 2, 64, 127
2, 66464, Note_off_c, 2, 84, 0
2, 66492, Note_off_c, 2, 80, 0
2, 66520, Note_off_c, 2, 75, 0
2, 66544, Note_off_c, 2, 72, 0
2, 66616, Note_on_c, 2, 57, 76
2, 66616, Note_on_c, 2, 47, 67
2, 66680, Note_on_c, 2, 47, 0
2, 66684, Note_on_c, 2, 57, 0
2, 66948, Note_on_c, 2, 63, 102
2, 66952, Note_on_c, 2, 72, 78
2, 66952, Note_on_c, 2, 57, 79
2, 66960, Note_on_c, 2, 68, 80
2, 66976, Control_c, 2, 64, 0
2, 67016, Note_off_c, 2, 63, 0
2, 67020, Note_off_c, 2, 72, 0
2, 67028, Note_off_c, 2, 68, 0
2, 67068, Note_off_c, 2, 57, 0
2, 67068, Note_on_c, 2, 54, 74
2, 67100, Note_on_c, 2, 69, 36
2, 67120, Note_on_c, 2, 60, 34
2, 67124, Note_on_c, 2, 65, 32
2, 67216, Note_on_c, 2, 69, 0
2, 67224, Note_on_c, 2, 65, 0
2, 67228, Note_on_c, 2, 60, 0
2, 67416, Note_on_c, 2, 51, 74
2, 67420, Note_on_c, 2, 62, 57
2, 67424, Note_on_c, 2, 66, 71
2, 67424, Note_on_c, 2, 57, 58
2, 67432, Note_on_c, 2, 54, 0
2, 67476, Note_on_c, 2, 51, 0
2, 67492, Control_c, 2, 64, 127
2, 67496, Note_off_c, 2, 66, 0
2, 67500, Note_off_c, 2, 62, 0
2, 67532, Note_off_c, 2, 57, 0
2, 67748, Control_c, 2, 64, 0
2, 67768, Note_on_c, 2, 61, 68
2, 67772, Note_on_c, 2, 59, 45
2, 67776, Note_on_c, 2, 63, 80
2, 67780, Note_on_c, 2, 56, 49
2, 68004, Note_on_c, 2, 56, 0
2, 68008, Note_on_c, 2, 47, 84
2, 68012, Note_on_c, 2, 40, 72
2, 68032, Control_c, 2, 64, 127
2, 68044, Note_off_c, 2, 59, 0
2, 68048, Note_off_c, 2, 63, 0
2, 68056, Note_off_c, 2, 61, 0
2, 68488, Note_on_c, 2, 71, 101
2, 68492, Note_on_c, 2, 83, 97
2, 68544, Note_on_c, 2, 71, 0
2, 68556, Note_on_c, 2, 83, 0
2, 68572, Control_c, 2, 64, 0
2, 68828, Note_on_c, 2, 69, 61
2, 68836, Note_on_c, 2, 81, 68
2, 68884, Control_c, 2, 64, 127
2, 68936, Note_off_c, 2, 69, 0
2, 68940, Note_off_c, 2, 81, 0
2, 69156, Note_on_c, 2, 68, 58
2, 69156, Control_c, 2, 64, 0
2, 69176, Note_on_c, 2, 73, 79
2, 69188, Note_on_c, 2, 80, 87
2, 69284, Note_on_c, 2, 80, 0
2, 69288, Note_on_c, 2, 68, 0
2, 69300, Note_on_c, 2, 73, 0
2, 69300, Control_c, 2, 64, 127
2, 69416, Note_on_c, 2, 64, 87
2, 69424, Note_on_c, 2, 76, 81
2, 69608, Note_on_c, 2, 64, 0
2, 69624, Note_on_c, 2, 76, 0
2, 69880, Note_on_c, 2, 66, 105
2, 69880, Note_on_c, 2, 78, 109
2, 69944, Note_on_c, 2, 66, 0
2, 69964, Note_on_c, 2, 78, 0
2, 70104, Note_on_c, 2, 47, 0
2, 70116, Note_on_c, 2, 40, 0
2, 70216, Note_on_c, 2, 68, 104
2, 70220, Note_on_c, 2, 80, 108
2, 70272, Note_on_c, 2, 68, 0
2, 70292, Note_on_c, 2, 80, 0
2, 70504, Control_c, 2, 64, 0
2, 70544, Note_on_c, 2, 73, 73
2, 70564, Note_on_c, 2, 78, 96
2, 70584, Note_on_c, 2, 85, 105
2, 70680, Control_c, 2, 64, 127
2, 70796, Note_on_c, 2, 38, 79
2, 70796, Note_on_c, 2, 54, 77
2, 70856, Note_on_c, 2, 38, 0
2, 70868, Note_on_c, 2, 54, 0
2, 71232, Note_on_c, 2, 62, 62
2, 71236, Note_on_c, 2, 66, 65
2, 71240, Note_on_c, 2, 61, 69
2, 71240, Note_on_c, 2, 56, 71
2, 71252, Note_on_c, 2, 85, 0
2, 71272, Note_on_c, 2, 73, 0
2, 71276, Note_on_c, 2, 78, 0
2, 71460, Note_on_c, 2, 66, 0
2, 71500, Note_on_c, 2, 62, 0
2, 71524, Note_on_c, 2, 56, 0
2, 71528, Note_on_c, 2, 61, 0
2, 71580, Note_on_c, 2, 83, 95
2, 71584, Note_on_c, 2, 71, 96
2, 71684, Note_on_c, 2, 83, 0
2, 71712, Note_on_c, 2, 71, 0
2, 71836, Note_on_c, 2, 50, 54
2, 71860, Control_c, 2, 64, 0
2, 71888, Note_on_c, 2, 54, 78
2, 71908, Note_on_c, 2, 60, 73
2, 71916, Note_on_c, 2, 69, 44
2, 71940, Note_on_c, 2, 74, 83
2, 71952, Note_on_c, 2, 81, 86
2, 72012, Control_c, 2, 64, 127
2, 72212, Note_off_c, 2, 81, 0
2, 72216, Note_off_c, 2, 50, 0
2, 72220, Note_off_c, 2, 74, 0
2, 72224, Note_off_c, 2, 60, 0
2, 72236, Note_off_c, 2, 54, 0
2, 72268, Note_off_c, 2, 69, 0
2, 72464, Note_on_c, 2, 68, 78
2, 72476, Note_on_c, 2, 59, 64
2, 72480, Note_on_c, 2, 49, 65
2, 72484, Note_on_c, 2, 75, 83
2, 72488, Note_on_c, 2, 53, 58
2, 72500, Note_on_c, 2, 80, 88
2, 72508, Control_c, 2, 64, 0
2, 72756, Control_c, 2, 64, 127
2, 72812, Note_on_c, 2, 74, 79
2, 72832, Note_on_c, 2, 59, 0
2, 72844, Note_on_c, 2, 53, 0
2, 72848, Note_on_c, 2, 75, 0
2, 72848, Note_on_c, 2, 49, 0
2, 72956, Note_on_c, 2, 74, 0
2, 72976, Note_on_c, 2, 68, 0
2, 73152, Note_on_c, 2, 52, 58
2, 73152, Note_on_c, 2, 42, 69
2, 73160, Note_on_c, 2, 73, 86
2, 73164, Note_on_c, 2, 69, 65
2, 73188, Control_c, 2, 64, 0
2, 73332, Note_off_c, 2, 80, 0
2, 73340, Control_c, 2, 64, 127
2, 73376, Note_off_c, 2, 73, 0
2, 73396, Note_off_c, 2, 69, 0
2, 73904, Note_on_c, 2, 59, 90
2, 73960, Control_c, 2, 64, 0
2, 73980, Note_off_c, 2, 59, 0
2, 74024, Note_on_c, 2, 63, 78
2, 74188, Note_on_c, 2, 63, 0
2, 74248, Note_on_c, 2, 64, 88
2, 74296, Note_on_c, 2, 42, 0
2, 74324, Note_on_c, 2, 64, 0
2, 74328, Note_on_c, 2, 52, 0
2, 74352, Note_on_c, 2, 66, 85
2, 74540, Note_on_c, 2, 66, 0
2, 74596, Note_on_c, 2, 68, 104
2, 74668, Note_on_c, 2, 68, 0
2, 74700, Note_on_c, 2, 69, 90
2, 74888, Note_on_c, 2, 69, 0
2, 75016, Note_on_c, 2, 57, 47
2, 75020, Note_on_c, 2, 67, 93
2, 75024, Note_on_c, 2, 51, 52
2, 75024, Note_on_c, 2, 47, 49
2, 75064, Note_on_c, 2, 68, 70
2, 75092, Note_on_c, 2, 67, 0
2, 75272, Note_on_c, 2, 68, 0
2, 75368, Note_on_c, 2, 64, 98
2, 75392, Note_on_c, 2, 57, 0
2, 75600, Note_on_c, 2, 51, 0
2, 75616, Note_on_c, 2, 64, 0
2, 75624, Note_on_c, 2, 59, 73
2, 75640, Note_on_c, 2, 47, 0
2, 75692, Note_on_c, 2, 59, 0
2, 75712, Note_on_c, 2, 63, 98
2, 75912, Note_on_c, 2, 63, 0
2, 75948, Note_on_c, 2, 64, 101
2, 76052, Note_on_c, 2, 64, 0
2, 76276, Note_on_c, 2, 47, 93
2, 76284, Note_on_c, 2, 46, 106
2, 76320, Note_on_c, 2, 46, 0
2, 76764, Note_on_c, 2, 71, 97
2, 76768, Note_on_c, 2, 72, 97
2, 76768, Note_on_c, 2, 73, 104
2, 76812, Note_on_c, 2, 71, 0
2, 76820, Note_on_c, 2, 72, 0
2, 77028, Note_on_c, 2, 73, 0
2, 77096, Note_on_c, 2, 76, 100
2, 77272, Note_on_c, 2, 76, 0
2, 77344, Note_on_c, 2, 76, 95
2, 77348, Note_on_c, 2, 74, 101
2, 77432, Note_on_c, 2, 74, 0
2, 77440, Note_on_c, 2, 76, 0
2, 77696, Note_on_c, 2, 76, 98
2, 77696, Note_on_c, 2, 71, 108
2, 77804, Note_on_c, 2, 71, 0
2, 77844, Note_on_c, 2, 76, 0
2, 78044, Note_on_c, 2, 70, 117
2, 78048, Note_on_c, 2, 76, 101
2, 78116, Note_on_c, 2, 70, 0
2, 78148, Note_on_c, 2, 69, 74
2, 78308, Note_on_c, 2, 76, 0
2, 78372, Note_on_c, 2, 69, 0
2, 78388, Note_on_c, 2, 67, 94
2, 78452, Note_on_c, 2, 65, 46
2, 78460, Note_on_c, 2, 67, 0
2, 78488, Note_on_c, 2, 64, 85
2, 78496, Note_on_c, 2, 65, 0
2, 78740, Note_on_c, 2, 59, 47
2, 78744, Note_on_c, 2, 64, 0
2, 78792, Note_on_c, 2, 59, 0
2, 78808, Note_on_c, 2, 47, 0
2, 78820, Note_on_c, 2, 63, 76
2, 78820, Note_on_c, 2, 40, 61
2, 79012, Note_on_c, 2, 63, 0
2, 79056, Note_on_c, 2, 64, 103
2, 79112, Note_on_c, 2, 56, 71
2, 79132, Note_on_c, 2, 64, 0
2, 79160, Note_on_c, 2, 64, 91
2, 79196, Note_on_c, 2, 56, 0
2, 79204, Control_c, 2, 64, 127
2, 79216, Note_off_c, 2, 40, 0
2, 79344, Note_off_c, 2, 64, 0
2, 79480, Control_c, 2, 64, 0
2, 79500, Note_on_c, 2, 37, 66
2, 79508, Note_on_c, 2, 64, 97
2, 79732, Note_on_c, 2, 37, 0
2, 79732, Note_on_c, 2, 53, 73
2, 79780, Control_c, 2, 64, 127
2, 79788, Note_off_c, 2, 64, 0
2, 79840, Note_off_c, 2, 53, 0
2, 80108, Note_on_c, 2, 42, 87
2, 80172, Control_c, 2, 64, 0
2, 80216, Note_on_c, 2, 52, 45
2, 80436, Note_on_c, 2, 56, 103
2, 80480, Note_on_c, 2, 42, 0
2, 80520, Note_on_c, 2, 52, 0
2, 80552, Note_on_c, 2, 56, 0
2, 80560, Note_on_c, 2, 57, 62
2, 80664, Note_on_c, 2, 57, 0
2, 80680, Note_on_c, 2, 61, 75
2, 80772, Note_on_c, 2, 61, 0
2, 80784, Note_on_c, 2, 64, 86
2, 80848, Note_on_c, 2, 64, 0
2, 80912, Note_on_c, 2, 68, 103
2, 81044, Note_on_c, 2, 68, 0
2, 81116, Note_on_c, 2, 57, 71
2, 81120, Note_on_c, 2, 71, 99
2, 81120, Note_on_c, 2, 47, 65
2, 81124, Note_on_c, 2, 51, 82
2, 81172, Note_on_c, 2, 51, 0
2, 81184, Note_on_c, 2, 57, 0
2, 81188, Note_on_c, 2, 47, 0
2, 81248, Note_on_c, 2, 71, 0
2, 81248, Note_on_c, 2, 67, 66
2, 81460, Note_on_c, 2, 67, 0
2, 81488, Note_on_c, 2, 63, 58
2, 81548, Note_on_c, 2, 63, 0
2, 81588, Note_on_c, 2, 66, 101
2, 81808, Note_on_c, 2, 66, 0
2, 81828, Note_on_c, 2, 44, 87
2, 81828, Note_on_c, 2, 54, 82
2, 81828, Note_on_c, 2, 59, 76
2, 81876, Note_on_c, 2, 54, 0
2, 81880, Note_on_c, 2, 44, 0
2, 82224, Note_on_c, 2, 59, 0
2, 82496, Note_on_c, 2, 59, 65
2, 82500, Note_on_c, 2, 49, 71
2, 82504, Note_on_c, 2, 53, 64
2, 82536, Control_c, 2, 64, 127
2, 82572, Note_off_c, 2, 59, 0
2, 82576, Note_off_c, 2, 53, 0
2, 82584, Note_off_c, 2, 49, 0
2, 82960, Control_c, 2, 64, 0
2, 82968, Note_on_c, 2, 52, 56
2, 82968, Note_on_c, 2, 42, 68
2, 82980, Note_on_c, 2, 73, 118
2, 83084, Note_on_c, 2, 42, 0
2, 83092, Note_on_c, 2, 52, 0
2, 83168, Note_on_c, 2, 73, 0
2, 83228, Note_on_c, 2, 64, 42
2, 83312, Note_on_c, 2, 64, 0
2, 83328, Note_on_c, 2, 69, 71
2, 83492, Note_on_c, 2, 69, 0
2, 83568, Note_on_c, 2, 73, 109
2, 83684, Note_on_c, 2, 73, 0
2, 83692, Note_on_c, 2, 74, 82
2, 83840, Note_on_c, 2, 74, 0
2, 83900, Note_on_c, 2, 57, 68
2, 83908, Note_on_c, 2, 51, 70
2, 83908, Note_on_c, 2, 47, 58
2, 83912, Note_on_c, 2, 72, 103
2, 83960, Note_on_c, 2, 51, 0
2, 83972, Note_on_c, 2, 57, 0
2, 83980, Note_on_c, 2, 47, 0
2, 84004, Note_on_c, 2, 72, 0
2, 84028, Note_on_c, 2, 67, 54
2, 84256, Note_on_c, 2, 67, 0
2, 84256, Note_on_c, 2, 69, 62
2, 84344, Note_on_c, 2, 69, 0
2, 84356, Note_on_c, 2, 70, 76
2, 84388, Note_on_c, 2, 71, 85
2, 84428, Note_on_c, 2, 70, 0
2, 84576, Note_on_c, 2, 40, 71
2, 84576, Note_on_c, 2, 47, 73
2, 84616, Control_c, 2, 64, 127
2, 84644, Note_off_c, 2, 47, 0
2, 84644, Note_off_c, 2, 40, 0
2, 84896, Note_off_c, 2, 71, 0
2, 85032, Note_on_c, 2, 45, 61
2, 85040, Note_on_c, 2, 56, 69
2, 85044, Control_c, 2, 64, 0
2, 85052, Note_on_c, 2, 68, 111
2, 85272, Note_on_c, 2, 68, 0
2, 85296, Note_on_c, 2, 59, 30
2, 85368, Note_on_c, 2, 45, 0
2, 85376, Note_on_c, 2, 59, 0
2, 85388, Note_on_c, 2, 56, 0
2, 85396, Note_on_c, 2, 63, 78
2, 85576, Note_on_c, 2, 63, 0
2, 85636, Note_on_c, 2, 66, 106
2, 85640, Note_on_c, 2, 54, 61
2, 85648, Note_on_c, 2, 44, 64
2, 85708, Note_on_c, 2, 66, 0
2, 85752, Note_on_c, 2, 68, 94
2, 85952, Note_on_c, 2, 68, 0
2, 86072, Note_on_c, 2, 54, 0
2, 86084, Note_on_c, 2, 68, 110
2, 86116, Note_on_c, 2, 44, 0
2, 86292, Note_on_c, 2, 67, 52
2, 86332, Note_on_c, 2, 68, 0
2, 86360, Note_on_c, 2, 66, 90
2, 86392, Note_on_c, 2, 67, 0
2, 86440, Note_on_c, 2, 66, 0
2, 86440, Note_on_c, 2, 65, 83
2, 86624, Note_on_c, 2, 65, 0
2, 86648, Note_on_c, 2, 53, 72
2, 86652, Note_on_c, 2, 74, 101
2, 86656, Note_on_c, 2, 49, 88
2, 86700, Note_on_c, 2, 49, 0
2, 86720, Note_on_c, 2, 53, 0
2, 86780, Note_on_c, 2, 73, 82
2, 86796, Note_on_c, 2, 74, 0
2, 87016, Note_on_c, 2, 68, 54
2, 87032, Note_on_c, 2, 73, 0
2, 87076, Note_on_c, 2, 68, 0
2, 87112, Note_on_c, 2, 71, 93
2, 87300, Note_on_c, 2, 71, 0
2, 87344, Note_on_c, 2, 42, 86
2, 87352, Note_on_c, 2, 52, 56
2, 87356, Note_on_c, 2, 68, 95
2, 87400, Note_on_c, 2, 52, 0
2, 87404, Note_on_c, 2, 42, 0
2, 87416, Note_on_c, 2, 68, 0
2, 87460, Note_on_c, 2, 69, 54
2, 87580, Note_on_c, 2, 69, 0
2, 87616, Note_on_c, 2, 73, 62
2, 87724, Note_on_c, 2, 76, 73
2, 87736, Note_on_c, 2, 73, 0
2, 87804, Note_on_c, 2, 76, 0
2, 87820, Note_on_c, 2, 68, 103
2, 87832, Note_on_c, 2, 80, 100
2, 87844, Note_on_c, 2, 70, 50
2, 87880, Note_on_c, 2, 70, 0
2, 88144, Control_c, 2, 64, 127
2, 88164, Note_off_c, 2, 68, 0
2, 88216, Note_off_c, 2, 80, 0
2, 88404, Note_on_c, 2, 78, 117
2, 88408, Control_c, 2, 64, 0
2, 88460, Note_on_c, 2, 59, 30
2, 88460, Note_on_c, 2, 49, 46
2, 88464, Note_on_c, 2, 53, 48
2, 88476, Note_on_c, 2, 78, 0
2, 88532, Note_on_c, 2, 77, 83
2, 88672, Note_on_c, 2, 77, 0
2, 88844, Note_on_c, 2, 68, 94
2, 89016, Note_on_c, 2, 68, 0
2, 89200, Control_c, 2, 64, 127
2, 89424, Note_on_c, 2, 56, 83
2, 89436, Note_on_c, 2, 59, 0
2, 89452, Note_on_c, 2, 49, 0
2, 89456, Note_on_c, 2, 53, 0
2, 89464, Note_on_c, 2, 56, 0
2, 89508, Control_c, 2, 64, 0
2, 89536, Note_on_c, 2, 68, 81
2, 89612, Note_on_c, 2, 68, 0
2, 89656, Note_on_c, 2, 69, 37
2, 89736, Note_on_c, 2, 69, 0
2, 89760, Note_on_c, 2, 73, 92
2, 89856, Note_on_c, 2, 52, 49
2, 89860, Note_on_c, 2, 73, 0
2, 89860, Note_on_c, 2, 42, 63
2, 89868, Note_on_c, 2, 76, 97
2, 89992, Note_on_c, 2, 76, 0
2, 90096, Note_on_c, 2, 76, 91
2, 90216, Note_on_c, 2, 73, 79
2, 90264, Note_on_c, 2, 76, 0
2, 90304, Note_on_c, 2, 73, 0
2, 90444, Note_on_c, 2, 73, 96
2, 90568, Note_on_c, 2, 69, 60
2, 90592, Note_on_c, 2, 73, 0
2, 90696, Note_on_c, 2, 69, 0
2, 90784, Note_on_c, 2, 69, 81
2, 90892, Note_on_c, 2, 69, 0
2, 90908, Note_on_c, 2, 66, 86
2, 90928, Note_on_c, 2, 42, 0
2, 90932, Note_on_c, 2, 52, 0
2, 90944, Control_c, 2, 64, 127
2, 91080, Note_off_c, 2, 66, 0
2, 91220, Control_c, 2, 64, 0
2, 91240, Note_on_c, 2, 74, 98
2, 91240, Note_on_c, 2, 58, 69
2, 91240, Note_on_c, 2, 43, 59
2, 91340, Note_on_c, 2, 74, 0
2, 91488, Note_on_c, 2, 74, 93
2, 91580, Note_on_c, 2, 74, 0
2, 91600, Note_on_c, 2, 70, 75
2, 91720, Note_on_c, 2, 70, 0
2, 91832, Note_on_c, 2, 70, 98
2, 91928, Note_on_c, 2, 70, 0
2, 91952, Note_on_c, 2, 67, 66
2, 92044, Note_on_c, 2, 67, 0
2, 92176, Note_on_c, 2, 67, 75
2, 92252, Note_on_c, 2, 67, 0
2, 92284, Note_on_c, 2, 62, 55
2, 92304, Note_on_c, 2, 43, 0
2, 92308, Control_c, 2, 64, 127
2, 92328, Note_off_c, 2, 58, 0
2, 92444, Note_off_c, 2, 62, 0
2, 92600, Control_c, 2, 64, 0
2, 92616, Note_on_c, 2, 57, 70
2, 92616, Note_on_c, 2, 42, 79
2, 92952, Note_on_c, 2, 71, 105
2, 93112, Note_on_c, 2, 71, 0
2, 93188, Note_on_c, 2, 69, 86
2, 93284, Note_on_c, 2, 69, 0
2, 93536, Note_on_c, 2, 61, 100
2, 93620, Note_on_c, 2, 42, 0
2, 93628, Note_on_c, 2, 61, 0
2, 93656, Note_on_c, 2, 64, 84
2, 93680, Control_c, 2, 64, 127
2, 93700, Note_off_c, 2, 57, 0
2, 93836, Note_off_c, 2, 64, 0
2, 93892, Note_on_c, 2, 68, 99
2, 93948, Control_c, 2, 64, 0
2, 93952, Note_off_c, 2, 68, 0
2, 93992, Note_on_c, 2, 57, 39
2, 94000, Note_on_c, 2, 51, 56
2, 94000, Note_on_c, 2, 47, 48
2, 94008, Note_on_c, 2, 69, 72
2, 94064, Note_on_c, 2, 70, 73
2, 94124, Note_on_c, 2, 69, 0
2, 94164, Note_on_c, 2, 70, 0
2, 94168, Note_on_c, 2, 71, 48
2, 94240, Note_on_c, 2, 71, 0
2, 94248, Note_on_c, 2, 74, 94
2, 94348, Note_on_c, 2, 74, 0
2, 94364, Note_on_c, 2, 71, 82
2, 94620, Note_on_c, 2, 71, 0
2, 94708, Note_on_c, 2, 69, 84
2, 94920, Note_on_c, 2, 69, 0
2, 94936, Note_on_c, 2, 71, 88
2, 94980, Note_on_c, 2, 71, 0
2, 95036, Note_on_c, 2, 57, 0
2, 95048, Note_on_c, 2, 67, 79
2, 95056, Note_on_c, 2, 47, 0
2, 95068, Note_on_c, 2, 51, 0
2, 95108, Control_c, 2, 64, 127
2, 95248, Note_off_c, 2, 67, 0
2, 95284, Note_on_c, 2, 68, 91
2, 95320, Control_c, 2, 64, 0
2, 95392, Note_on_c, 2, 64, 70
2, 95396, Note_on_c, 2, 68, 0
2, 95544, Note_on_c, 2, 64, 0
2, 95608, Note_on_c, 2, 60, 98
2, 95612, Note_on_c, 2, 52, 68
2, 95612, Note_on_c, 2, 42, 79
2, 96064, Note_on_c, 2, 60, 0
2, 96084, Note_on_c, 2, 61, 89
2, 96324, Note_on_c, 2, 61, 0
2, 96432, Note_on_c, 2, 42, 0
2, 96432, Note_on_c, 2, 62, 95
2, 96456, Note_on_c, 2, 52, 0
2, 96480, Control_c, 2, 64, 127
2, 96564, Note_off_c, 2, 62, 0
2, 96748, Control_c, 2, 64, 0
2, 96764, Note_on_c, 2, 57, 49
2, 96772, Note_on_c, 2, 47, 50
2, 96776, Note_on_c, 2, 63, 89
2, 96928, Note_on_c, 2, 63, 0
2, 96992, Note_on_c, 2, 72, 100
2, 97148, Note_on_c, 2, 69, 52
2, 97152, Note_on_c, 2, 72, 0
2, 97300, Note_on_c, 2, 69, 0
2, 97344, Note_on_c, 2, 70, 101
2, 97440, Note_on_c, 2, 70, 0
2, 97468, Note_on_c, 2, 71, 88
2, 97628, Note_on_c, 2, 71, 0
2, 97704, Note_on_c, 2, 68, 71
2, 97748, Note_on_c, 2, 57, 0
2, 97776, Note_on_c, 2, 47, 0
2, 97804, Note_on_c, 2, 69, 86
2, 97824, Note_on_c, 2, 68, 0
2, 97996, Note_on_c, 2, 69, 0
2, 98032, Note_on_c, 2, 71, 93
2, 98104, Note_on_c, 2, 71, 0
2, 98152, Note_on_c, 2, 67, 59
2, 98228, Note_on_c, 2, 68, 77
2, 98232, Note_on_c, 2, 67, 0
2, 98376, Note_on_c, 2, 47, 79
2, 98384, Note_on_c, 2, 46, 93
2, 98396, Note_on_c, 2, 68, 0
2, 98404, Note_on_c, 2, 46, 0
2, 98488, Note_on_c, 2, 64, 77
2, 98716, Note_on_c, 2, 64, 0
2, 98736, Note_on_c, 2, 59, 62
2, 98808, Note_on_c, 2, 59, 0
2, 98832, Note_on_c, 2, 64, 89
2, 99060, Note_on_c, 2, 64, 0
2, 99060, Note_on_c, 2, 35, 88
2, 99116, Note_on_c, 2, 35, 0
2, 99120, Control_c, 2, 64, 127
2, 99148, Note_off_c, 2, 47, 0
2, 99424, Note_on_c, 2, 42, 81
2, 99484, Control_c, 2, 64, 0
2, 99516, Note_on_c, 2, 52, 65
2, 99520, Note_on_c, 2, 57, 80
2, 99760, Note_on_c, 2, 61, 81
2, 99776, Note_on_c, 2, 42, 0
2, 99788, Control_c, 2, 64, 127
2, 99816, Note_off_c, 2, 52, 0
2, 99832, Note_off_c, 2, 57, 0
2, 99872, Note_on_c, 2, 64, 82
2, 99896, Note_on_c, 2, 61, 0
2, 100020, Note_on_c, 2, 64, 0
2, 100060, Control_c, 2, 64, 0
2, 100116, Note_on_c, 2, 68, 96
2, 100120, Note_on_c, 2, 63, 95
2, 100120, Note_on_c, 2, 60, 84
2, 100276, Control_c, 2, 64, 127
2, 100320, Note_off_c, 2, 60, 0
2, 100368, Note_off_c, 2, 63, 0
2, 100392, Note_off_c, 2, 68, 0
2, 100444, Note_on_c, 2, 57, 71
2, 100444, Note_on_c, 2, 51, 74
2, 100444, Note_on_c, 2, 47, 70
2, 100528, Note_on_c, 2, 51, 0
2, 100528, Note_on_c, 2, 57, 0
2, 100540, Note_on_c, 2, 47, 0
2, 100896, Control_c, 2, 64, 0
2, 100900, Note_on_c, 2, 40, 68
2, 100900, Note_on_c, 2, 47, 69
2, 100912, Note_on_c, 2, 75, 116
2, 101120, Note_on_c, 2, 75, 0
2, 101156, Note_on_c, 2, 76, 94
2, 101224, Note_on_c, 2, 47, 0
2, 101228, Note_on_c, 2, 40, 0
2, 101240, Note_on_c, 2, 76, 0
2, 101492, Note_on_c, 2, 76, 99
2, 101600, Note_on_c, 2, 76, 0
2, 101624, Note_on_c, 2, 75, 80
2, 101780, Note_on_c, 2, 75, 0
2, 101840, Note_on_c, 2, 44, 76
2, 101844, Note_on_c, 2, 37, 70
2, 101924, Note_on_c, 2, 37, 0
2, 101924, Note_on_c, 2, 44, 0
2, 101948, Note_on_c, 2, 76, 101
2, 101992, Control_c, 2, 64, 127
2, 102084, Note_off_c, 2, 76, 0
2, 102268, Control_c, 2, 64, 0
2, 102276, Note_on_c, 2, 52, 61
2, 102276, Note_on_c, 2, 42, 72
2, 102288, Note_on_c, 2, 73, 101
2, 102484, Note_on_c, 2, 73, 0
2, 102616, Note_on_c, 2, 42, 0
2, 102636, Note_on_c, 2, 76, 97
2, 102644, Note_on_c, 2, 52, 0
2, 102648, Control_c, 2, 64, 127
2, 102804, Note_off_c, 2, 76, 0
2, 102892, Note_on_c, 2, 71, 108
2, 102916, Control_c, 2, 64, 0
2, 103196, Note_on_c, 2, 57, 64
2, 103200, Note_on_c, 2, 51, 79
2, 103200, Note_on_c, 2, 47, 62
2, 103260, Control_c, 2, 64, 127
2, 103272, Note_off_c, 2, 47, 0
2, 103276, Note_off_c, 2, 51, 0
2, 103276, Note_off_c, 2, 57, 0
2, 103300, Note_off_c, 2, 71, 0
2, 103648, Control_c, 2, 64, 0
2, 103664, Note_on_c, 2, 44, 64
2, 103664, Note_on_c, 2, 59, 37
2, 103668, Note_on_c, 2, 76, 101
2, 103668, Note_on_c, 2, 54, 62
2, 103884, Note_on_c, 2, 76, 0
2, 103932, Note_on_c, 2, 75, 45
2, 103988, Note_on_c, 2, 75, 0
2, 103996, Note_on_c, 2, 44, 0
2, 104024, Note_on_c, 2, 76, 95
2, 104032, Note_on_c, 2, 54, 0
2, 104100, Note_on_c, 2, 59, 0
2, 104176, Note_on_c, 2, 76, 0
2, 104252, Note_on_c, 2, 75, 112
2, 104380, Note_on_c, 2, 75, 0
2, 104392, Note_on_c, 2, 71, 68
2, 104556, Note_on_c, 2, 71, 0
2, 104596, Note_on_c, 2, 65, 85
2, 104596, Note_on_c, 2, 59, 65
2, 104604, Note_on_c, 2, 49, 69
2, 104604, Note_on_c, 2, 53, 62
2, 104664, Note_on_c, 2, 59, 0
2, 104668, Note_on_c, 2, 53, 0
2, 104676, Note_on_c, 2, 49, 0
2, 104712, Note_on_c, 2, 65, 0
2, 104712, Note_on_c, 2, 64, 73
2, 104932, Note_on_c, 2, 64, 0
2, 104944, Note_on_c, 2, 62, 77
2, 105024, Note_on_c, 2, 62, 0
2, 105064, Note_on_c, 2, 61, 67
2, 105244, Note_on_c, 2, 61, 0
2, 105284, Note_on_c, 2, 52, 71
2, 105284, Note_on_c, 2, 42, 83
2, 105296, Note_on_c, 2, 64, 82
2, 105340, Note_on_c, 2, 42, 0
2, 105352, Note_on_c, 2, 52, 0
2, 105412, Note_on_c, 2, 68, 73
2, 105448, Note_on_c, 2, 64, 0
2, 105588, Note_on_c, 2, 68, 0
2, 105632, Note_on_c, 2, 70, 107
2, 105716, Note_on_c, 2, 70, 0
2, 105756, Note_on_c, 2, 71, 93
2, 105904, Note_on_c, 2, 71, 0
2, 105968, Note_on_c, 2, 57, 68
2, 105972, Note_on_c, 2, 69, 92
2, 105972, Note_on_c, 2, 47, 68
2, 105972, Note_on_c, 2, 51, 74
2, 106036, Note_on_c, 2, 51, 0
2, 106036, Note_on_c, 2, 47, 0
2, 106040, Note_on_c, 2, 57, 0
2, 106088, Note_on_c, 2, 69, 0
2, 106104, Note_on_c, 2, 65, 64
2, 106264, Note_on_c, 2, 65, 0
2, 106308, Note_on_c, 2, 60, 67
2, 106432, Note_on_c, 2, 59, 78
2, 106440, Note_on_c, 2, 60, 0
2, 106624, Note_on_c, 2, 47, 76
2, 106628, Note_on_c, 2, 40, 78
2, 106692, Note_on_c, 2, 47, 0
2, 106696, Note_on_c, 2, 40, 0
2, 106712, Control_c, 2, 64, 127
2, 106744, Note_off_c, 2, 59, 0
2, 107084, Control_c, 2, 64, 0
2, 107096, Note_on_c, 2, 45, 80
2, 107100, Note_on_c, 2, 55, 73
2, 107116, Note_on_c, 2, 59, 88
2, 107164, Note_on_c, 2, 55, 0
2, 107172, Note_on_c, 2, 45, 0
2, 107188, Note_on_c, 2, 59, 0
2, 107224, Note_on_c, 2, 61, 80
2, 107340, Note_on_c, 2, 64, 81
2, 107380, Note_on_c, 2, 61, 0
2, 107428, Note_on_c, 2, 64, 0
2, 107464, Note_on_c, 2, 67, 100
2, 107716, Note_on_c, 2, 67, 0
2, 107720, Note_on_c, 2, 64, 65
2, 107796, Note_on_c, 2, 64, 0
2, 107820, Note_on_c, 2, 66, 107
2, 107948, Note_on_c, 2, 66, 0
2, 108056, Note_on_c, 2, 54, 97
2, 108060, Note_on_c, 2, 44, 98
2, 108092, Control_c, 2, 64, 127
2, 108128, Note_off_c, 2, 54, 0
2, 108148, Note_off_c, 2, 44, 0
2, 108504, Note_on_c, 2, 44, 92
2, 108504, Note_on_c, 2, 37, 88
2, 108508, Control_c, 2, 64, 0
2, 108828, Control_c, 2, 64, 127
2, 108852, Note_off_c, 2, 37, 0
2, 108864, Note_off_c, 2, 44, 0
2, 109068, Note_on_c, 2, 64, 101
2, 109084, Control_c, 2, 64, 0
2, 109100, Note_on_c, 2, 61, 83
2, 109156, Note_on_c, 2, 64, 0
2, 109184, Note_on_c, 2, 52, 51
2, 109184, Note_on_c, 2, 42, 55
2, 109188, Note_on_c, 2, 59, 60
2, 109208, Note_on_c, 2, 61, 0
2, 109452, Note_on_c, 2, 61, 71
2, 109468, Note_on_c, 2, 59, 0
2, 109544, Note_on_c, 2, 64, 89
2, 109564, Note_on_c, 2, 61, 0
2, 109668, Note_on_c, 2, 64, 0
2, 109780, Note_on_c, 2, 73, 110
2, 109780, Note_on_c, 2, 67, 103
2, 109888, Note_on_c, 2, 67, 0
2, 109916, Note_on_c, 2, 73, 0
2, 109920, Note_on_c, 2, 69, 51
2, 109968, Note_on_c, 2, 69, 0
2, 109988, Note_on_c, 2, 73, 61
2, 110016, Note_on_c, 2, 69, 55
2, 110076, Note_on_c, 2, 67, 65
2, 110096, Note_on_c, 2, 69, 0
2, 110132, Note_on_c, 2, 64, 75
2, 110164, Note_on_c, 2, 67, 0
2, 110192, Note_on_c, 2, 73, 0
2, 110192, Note_on_c, 2, 42, 0
2, 110216, Note_on_c, 2, 64, 0
2, 110224, Note_on_c, 2, 52, 0
2, 110240, Note_on_c, 2, 73, 91
2, 110248, Note_on_c, 2, 66, 107
2, 110416, Note_on_c, 2, 73, 0
2, 110424, Note_on_c, 2, 66, 0
2, 110472, Note_on_c, 2, 73, 85
2, 110476, Note_on_c, 2, 61, 99
2, 110800, Note_on_c, 2, 57, 89
2, 110808, Note_on_c, 2, 47, 90
2, 110808, Note_on_c, 2, 51, 100
2, 110812, Note_on_c, 2, 61, 0
2, 110820, Control_c, 2, 64, 127
2, 110844, Note_off_c, 2, 51, 0
2, 110860, Note_off_c, 2, 47, 0
2, 110860, Note_off_c, 2, 57, 0
2, 110864, Note_off_c, 2, 73, 0
2, 111228, Control_c, 2, 64, 0
2, 111240, Note_on_c, 2, 59, 64
2, 111244, Note_on_c, 2, 76, 94
2, 111244, Note_on_c, 2, 71, 95
2, 111248, Note_on_c, 2, 65, 93
2, 111248, Note_on_c, 2, 53, 65
2, 111248, Note_on_c, 2, 49, 73
2, 111380, Note_on_c, 2, 71, 0
2, 111384, Note_on_c, 2, 65, 0
2, 111404, Note_on_c, 2, 76, 0
2, 111588, Note_on_c, 2, 59, 0
2, 111588, Note_on_c, 2, 74, 91
2, 111592, Note_on_c, 2, 53, 0
2, 111592, Note_on_c, 2, 65, 91
2, 111592, Note_on_c, 2, 71, 91
2, 111604, Note_on_c, 2, 49, 0
2, 111612, Control_c, 2, 64, 127
2, 111688, Note_off_c, 2, 71, 0
2, 111716, Note_off_c, 2, 74, 0
2, 111740, Note_off_c, 2, 65, 0
2, 111840, Note_on_c, 2, 42, 78
2, 111896, Control_c, 2, 64, 0
2, 111936, Note_on_c, 2, 57, 64
2, 111952, Note_on_c, 2, 69, 83
2, 111952, Note_on_c, 2, 64, 87
2, 111956, Note_on_c, 2, 73, 92
2, 112128, Note_on_c, 2, 64, 0
2, 112152, Note_on_c, 2, 69, 0
2, 112164, Note_on_c, 2, 73, 0
2, 112304, Note_on_c, 2, 71, 112
2, 112468, Note_on_c, 2, 71, 0
2, 112544, Note_on_c, 2, 68, 104
2, 112648, Note_on_c, 2, 68, 0
2, 112660, Note_on_c, 2, 69, 65
2, 112768, Note_on_c, 2, 69, 0
2, 112792, Note_on_c, 2, 73, 61
2, 112876, Note_on_c, 2, 73, 0
2, 112904, Note_on_c, 2, 76, 50
2, 112916, Note_on_c, 2, 42, 0
2, 112996, Note_on_c, 2, 76, 0
2, 113012, Note_on_c, 2, 68, 105
2, 113012, Note_on_c, 2, 80, 105
2, 113040, Control_c, 2, 64, 127
2, 113060, Note_off_c, 2, 57, 0
2, 113128, Note_off_c, 2, 68, 0
2, 113152, Note_off_c, 2, 80, 0
2, 113232, Note_on_c, 2, 81, 101
2, 113236, Note_on_c, 2, 69, 103
2, 113252, Control_c, 2, 64, 0
2, 113292, Note_off_c, 2, 69, 0
2, 113292, Note_off_c, 2, 81, 0
2, 113360, Note_on_c, 2, 82, 84
2, 113360, Note_on_c, 2, 70, 81
2, 113496, Note_on_c, 2, 70, 0
2, 113500, Note_on_c, 2, 82, 0
2, 113568, Note_on_c, 2, 83, 99
2, 113572, Note_on_c, 2, 71, 97
2, 113596, Note_on_c, 2, 78, 36
2, 113628, Note_on_c, 2, 78, 0
2, 113644, Note_on_c, 2, 71, 0
2, 113700, Note_on_c, 2, 80, 74
2, 113732, Note_on_c, 2, 80, 0
2, 113736, Note_on_c, 2, 83, 0
2, 113932, Note_on_c, 2, 53, 86
2, 113932, Note_on_c, 2, 43, 88
2, 113996, Note_on_c, 2, 43, 0
2, 113996, Control_c, 2, 64, 127
2, 114000, Note_off_c, 2, 53, 0
2, 114256, Note_on_c, 2, 53, 86
2, 114260, Note_on_c, 2, 59, 85
2, 114260, Note_on_c, 2, 64, 84
2, 114296, Control_c, 2, 64, 0
2, 114368, Note_off_c, 2, 64, 0
2, 114376, Note_off_c, 2, 59, 0
2, 114392, Control_c, 2, 64, 127
2, 114396, Note_off_c, 2, 53, 0
2, 114612, Note_on_c, 2, 61, 94
2, 114616, Note_on_c, 2, 52, 80
2, 114624, Note_on_c, 2, 56, 73
2, 114624, Note_on_c, 2, 57, 80
2, 114632, Control_c, 2, 64, 0
2, 114944, Note_on_c, 2, 85, 117
2, 115040, Note_on_c, 2, 85, 0
2, 115104, Note_on_c, 2, 83, 93
2, 115236, Note_on_c, 2, 83, 0
2, 115284, Note_on_c, 2, 80, 105
2, 115380, Note_on_c, 2, 80, 0
2, 115428, Note_on_c, 2, 76, 64
2, 115548, Note_on_c, 2, 76, 0
2, 115616, Note_on_c, 2, 73, 102
2, 115708, Note_on_c, 2, 73, 0
2, 115724, Note_on_c, 2, 52, 0
2, 115728, Note_on_c, 2, 57, 0
2, 115736, Note_on_c, 2, 61, 0
2, 115740, Note_on_c, 2, 56, 0
2, 115740, Control_c, 2, 64, 127
2, 115740, Note_on_c, 2, 71, 74
2, 115932, Note_on_c, 2, 71, 0
2, 115984, Note_on_c, 2, 69, 52
2, 116032, Control_c, 2, 64, 0
2, 116040, Note_off_c, 2, 69, 0
2, 116072, Note_on_c, 2, 79, 108
2, 116252, Note_on_c, 2, 79, 0
2, 116300, Note_on_c, 2, 59, 51
2, 116300, Note_on_c, 2, 64, 62
2, 116300, Note_on_c, 2, 53, 52
2, 116416, Note_on_c, 2, 79, 103
2, 116584, Note_on_c, 2, 79, 0
2, 116668, Note_on_c, 2, 76, 95
2, 116692, Note_on_c, 2, 64, 0
2, 116796, Note_on_c, 2, 76, 0
2, 116796, Note_on_c, 2, 71, 57
2, 116848, Control_c, 2, 64, 127
2, 116996, Note_off_c, 2, 71, 0
2, 117024, Note_on_c, 2, 67, 81
2, 117044, Note_on_c, 2, 59, 0
2, 117080, Note_on_c, 2, 53, 0
2, 117096, Note_on_c, 2, 67, 0
2, 117104, Control_c, 2, 64, 0
2, 117132, Note_on_c, 2, 65, 70
2, 117376, Note_on_c, 2, 62, 61
2, 117404, Note_on_c, 2, 65, 0
2, 117436, Note_on_c, 2, 62, 0
2, 117468, Note_on_c, 2, 64, 90
2, 117696, Note_on_c, 2, 42, 98
2, 117696, Note_on_c, 2, 52, 84
2, 117716, Control_c, 2, 64, 127
2, 117736, Note_off_c, 2, 64, 0
2, 117756, Note_off_c, 2, 42, 0
2, 117764, Note_off_c, 2, 52, 0
2, 118132, Note_on_c, 2, 61, 76
2, 118140, Note_on_c, 2, 57, 64
2, 118140, Note_on_c, 2, 56, 72
2, 118160, Control_c, 2, 64, 0
2, 118460, Note_off_c, 2, 61, 0
2, 118488, Note_off_c, 2, 57, 0
2, 118496, Note_on_c, 2, 76, 102
2, 118496, Note_on_c, 2, 64, 104
2, 118500, Note_on_c, 2, 56, 0
2, 118668, Note_on_c, 2, 64, 0
2, 118736, Note_on_c, 2, 76, 0
2, 118736, Note_on_c, 2, 47, 59
2, 118828, Note_on_c, 2, 57, 55
2, 118848, Note_on_c, 2, 67, 81
2, 118860, Note_on_c, 2, 76, 77
2, 118924, Note_on_c, 2, 68, 40
2, 118936, Note_on_c, 2, 67, 0
2, 119024, Note_on_c, 2, 76, 0
2, 119036, Note_on_c, 2, 68, 0
2, 119096, Note_on_c, 2, 69, 96
2, 119096, Note_on_c, 2, 76, 83
2, 119160, Note_on_c, 2, 69, 0
2, 119212, Note_on_c, 2, 70, 85
2, 119344, Note_on_c, 2, 76, 0
2, 119364, Note_on_c, 2, 70, 0
2, 119444, Note_on_c, 2, 76, 98
2, 119444, Note_on_c, 2, 71, 103
2, 119516, Note_on_c, 2, 71, 0
2, 119520, Note_on_c, 2, 76, 0
2, 119576, Note_on_c, 2, 67, 37
2, 119596, Note_on_c, 2, 76, 7
2, 119648, Note_on_c, 2, 68, 75
2, 119668, Note_on_c, 2, 67, 0
2, 119784, Note_on_c, 2, 68, 0
2, 119784, Note_on_c, 2, 76, 0
2, 119788, Note_on_c, 2, 51, 76
2, 119840, Note_on_c, 2, 57, 0
2, 119848, Note_on_c, 2, 47, 0
2, 119852, Note_on_c, 2, 51, 0
2, 119892, Note_on_c, 2, 67, 84
2, 119892, Note_on_c, 2, 76, 90
2, 119904, Control_c, 2, 64, 127
2, 119964, Note_on_c, 2, 68, 53
2, 119980, Note_on_c, 2, 67, 0
2, 120096, Note_on_c, 2, 68, 0
2, 120108, Control_c, 2, 64, 0
2, 120136, Note_on_c, 2, 64, 102
2, 120192, Note_on_c, 2, 76, 0
2, 120436, Note_on_c, 2, 47, 99
2, 120440, Note_on_c, 2, 40, 91
2, 120472, Control_c, 2, 64, 127
2, 120496, Note_off_c, 2, 47, 0
2, 120504, Note_off_c, 2, 40, 0
2, 120532, Note_off_c, 2, 64, 0
2, 120900, Note_on_c, 2, 60, 99
2, 120924, Control_c, 2, 64, 0
2, 121140, Note_off_c, 2, 60, 0
2, 121140, Note_on_c, 2, 61, 74
2, 121244, Note_on_c, 2, 64, 87
2, 121264, Note_on_c, 2, 61, 0
2, 121464, Note_on_c, 2, 64, 0
2, 121472, Note_on_c, 2, 68, 96
2, 121472, Note_on_c, 2, 57, 86
2, 121472, Note_on_c, 2, 61, 91
2, 121480, Note_on_c, 2, 39, 85
2, 121480, Note_on_c, 2, 54, 75
2, 121580, Control_c, 2, 64, 127
2, 121752, Note_off_c, 2, 39, 0
2, 121824, Note_off_c, 2, 54, 0
2, 121832, Note_off_c, 2, 57, 0
2, 121848, Note_off_c, 2, 68, 0
2, 121924, Note_off_c, 2, 61, 0
2, 121928, Note_on_c, 2, 66, 93
2, 122004, Note_on_c, 2, 66, 0
2, 122112, Control_c, 2, 64, 0
2, 122152, Note_on_c, 2, 71, 88
2, 122156, Note_on_c, 2, 60, 83
2, 122160, Note_on_c, 2, 64, 87
2, 122164, Note_on_c, 2, 54, 82
2, 122168, Note_on_c, 2, 44, 82
2, 122280, Control_c, 2, 64, 127
2, 122348, Note_off_c, 2, 71, 0
2, 122380, Note_off_c, 2, 54, 0
2, 122388, Note_off_c, 2, 44, 0
2, 122620, Note_on_c, 2, 69, 84
2, 122652, Note_on_c, 2, 60, 0
2, 122656, Note_on_c, 2, 64, 0
2, 122724, Note_on_c, 2, 69, 0
2, 122820, Control_c, 2, 64, 0
2, 122844, Note_on_c, 2, 59, 81
2, 122848, Note_on_c, 2, 37, 83
2, 122848, Note_on_c, 2, 52, 70
2, 122848, Note_on_c, 2, 68, 87
2, 122848, Note_on_c, 2, 64, 82
2, 122936, Note_on_c, 2, 64, 0
2, 122936, Note_on_c, 2, 59, 0
2, 122964, Control_c, 2, 64, 127
2, 122980, Note_off_c, 2, 68, 0
2, 123212, Note_on_c, 2, 68, 101
2, 123272, Control_c, 2, 64, 0
2, 123312, Note_off_c, 2, 52, 0
2, 123336, Note_on_c, 2, 69, 70
2, 123340, Note_on_c, 2, 68, 0
2, 123340, Note_on_c, 2, 37, 0
2, 123460, Note_on_c, 2, 69, 0
2, 123472, Note_on_c, 2, 73, 80
2, 123560, Note_on_c, 2, 76, 69
2, 123596, Note_on_c, 2, 73, 0
2, 123660, Note_on_c, 2, 76, 0
2, 123672, Note_on_c, 2, 69, 97
2, 123676, Note_on_c, 2, 81, 92
2, 123900, Note_on_c, 2, 54, 88
2, 123900, Note_on_c, 2, 38, 86
2, 123964, Control_c, 2, 64, 127
2, 124004, Note_off_c, 2, 69, 0
2, 124008, Note_off_c, 2, 38, 0
2, 124032, Note_off_c, 2, 54, 0
2, 124044, Note_off_c, 2, 81, 0
2, 124380, Control_c, 2, 64, 0
2, 124388, Note_on_c, 2, 54, 79
2, 124396, Note_on_c, 2, 43, 63
2, 124396, Note_on_c, 2, 78, 117
2, 124576, Note_on_c, 2, 78, 0
2, 124636, Note_on_c, 2, 71, 61
2, 124716, Note_on_c, 2, 71, 0
2, 124736, Note_on_c, 2, 74, 88
2, 124768, Note_on_c, 2, 43, 0
2, 124788, Control_c, 2, 64, 127
2, 124808, Note_off_c, 2, 54, 0
2, 124920, Note_off_c, 2, 74, 0
2, 124968, Note_on_c, 2, 78, 110
2, 125032, Note_on_c, 2, 78, 0
2, 125044, Control_c, 2, 64, 0
2, 125108, Note_on_c, 2, 84, 92
2, 125256, Note_on_c, 2, 84, 0
2, 125304, Note_on_c, 2, 80, 102
2, 125304, Note_on_c, 2, 56, 80
2, 125308, Note_on_c, 2, 46, 86
2, 125396, Note_on_c, 2, 56, 0
2, 125404, Note_on_c, 2, 80, 0
2, 125408, Note_on_c, 2, 46, 0
2, 125436, Note_on_c, 2, 77, 58
2, 125632, Note_on_c, 2, 77, 0
2, 125644, Note_on_c, 2, 72, 64
2, 125732, Note_on_c, 2, 72, 0
2, 125764, Note_on_c, 2, 82, 104
2, 125904, Note_on_c, 2, 82, 0
2, 125972, Note_on_c, 2, 39, 77
2, 125980, Note_on_c, 2, 55, 62
2, 125984, Note_on_c, 2, 79, 100
2, 126044, Note_on_c, 2, 39, 0
2, 126064, Note_on_c, 2, 55, 0
2, 126084, Note_on_c, 2, 79, 0
2, 126120, Note_on_c, 2, 77, 75
2, 126308, Note_on_c, 2, 77, 0
2, 126340, Note_on_c, 2, 72, 41
2, 126428, Note_on_c, 2, 72, 0
2, 126452, Note_on_c, 2, 80, 107
2, 126632, Note_on_c, 2, 80, 0
2, 126656, Note_on_c, 2, 42, 91
2, 126664, Note_on_c, 2, 52, 70
2, 126668, Note_on_c, 2, 76, 86
2, 126716, Note_on_c, 2, 42, 0
2, 126728, Note_on_c, 2, 52, 0
2, 126792, Note_on_c, 2, 76, 0
2, 126812, Note_on_c, 2, 73, 78
2, 126968, Note_on_c, 2, 73, 0
2, 127040, Note_on_c, 2, 78, 103
2, 127120, Note_on_c, 2, 78, 0
2, 127164, Note_on_c, 2, 75, 72
2, 127304, Note_on_c, 2, 75, 0
2, 127348, Note_on_c, 2, 47, 71
2, 127348, Note_on_c, 2, 58, 73
2, 127352, Note_on_c, 2, 54, 75
2, 127356, Note_on_c, 2, 78, 85
2, 127468, Note_on_c, 2, 78, 0
2, 127480, Note_on_c, 2, 83, 72
2, 127628, Note_on_c, 2, 83, 0
2, 127704, Note_on_c, 2, 87, 101
2, 127764, Note_on_c, 2, 87, 0
2, 127828, Note_on_c, 2, 82, 83
2, 127904, Note_on_c, 2, 82, 0
2, 127924, Note_on_c, 2, 80, 80
2, 128048, Note_on_c, 2, 80, 0
2, 128148, Note_on_c, 2, 80, 103
2, 128172, Control_c, 2, 64, 127
2, 128224, Note_off_c, 2, 80, 0
2, 128236, Note_off_c, 2, 58, 0
2, 128240, Note_off_c, 2, 47, 0
2, 128264, Note_off_c, 2, 54, 0
2, 128488, Note_on_c, 2, 47, 77
2, 128500, Control_c, 2, 64, 0
2, 128724, Note_on_c, 2, 61, 110
2, 128724, Note_on_c, 2, 57, 71
2, 128804, Note_on_c, 2, 47, 0
2, 128808, Note_on_c, 2, 57, 0
2, 128832, Note_on_c, 2, 61, 0
2, 128844, Note_on_c, 2, 62, 48
2, 128956, Note_on_c, 2, 66, 78
2, 128980, Note_on_c, 2, 62, 0
2, 129068, Note_on_c, 2, 66, 0
2, 129068, Note_on_c, 2, 69, 90
2, 129132, Note_on_c, 2, 69, 0
2, 129204, Note_on_c, 2, 74, 81
2, 129336, Note_on_c, 2, 74, 0
2, 129388, Note_on_c, 2, 58, 86
2, 129400, Note_on_c, 2, 48, 74
2, 129400, Note_on_c, 2, 52, 75
2, 129408, Note_on_c, 2, 70, 101
2, 129460, Note_on_c, 2, 58, 0
2, 129468, Note_on_c, 2, 52, 0
2, 129472, Note_on_c, 2, 48, 0
2, 129484, Note_on_c, 2, 70, 0
2, 129536, Note_on_c, 2, 67, 64
2, 129720, Note_on_c, 2, 67, 0
2, 129752, Note_on_c, 2, 74, 101
2, 129848, Note_on_c, 2, 74, 0
2, 129892, Note_on_c, 2, 72, 84
2, 130032, Note_on_c, 2, 72, 0
2, 130100, Note_on_c, 2, 69, 93
2, 130100, Note_on_c, 2, 41, 74
2, 130104, Note_on_c, 2, 57, 69
2, 130180, Note_on_c, 2, 57, 0
2, 130184, Note_on_c, 2, 41, 0
2, 130224, Note_on_c, 2, 67, 57
2, 130228, Note_on_c, 2, 69, 0
2, 130464, Note_on_c, 2, 65, 65
2, 130496, Note_on_c, 2, 67, 0
2, 130540, Note_on_c, 2, 65, 0
2, 130568, Note_on_c, 2, 68, 98
2, 130724, Note_on_c, 2, 68, 0
2, 130788, Note_on_c, 2, 44, 90
2, 130792, Note_on_c, 2, 54, 81
2, 130796, Note_on_c, 2, 67, 92
2, 130844, Note_on_c, 2, 54, 0
2, 130852, Note_on_c, 2, 44, 0
2, 130892, Note_on_c, 2, 67, 0
2, 130912, Note_on_c, 2, 66, 82
2, 131092, Note_on_c, 2, 66, 0
2, 131140, Note_on_c, 2, 68, 104
2, 131224, Note_on_c, 2, 68, 0
2, 131268, Note_on_c, 2, 65, 78
2, 131296, Note_on_c, 2, 58, 58
2, 131300, Note_on_c, 2, 49, 52
2, 131300, Note_on_c, 2, 53, 57
2, 131304, Note_on_c, 2, 56, 55
2, 131488, Note_on_c, 2, 68, 90
2, 131492, Note_on_c, 2, 65, 0
2, 131508, Note_on_c, 2, 58, 0
2, 131520, Note_on_c, 2, 56, 0
2, 131524, Note_on_c, 2, 53, 0
2, 131536, Note_on_c, 2, 49, 0
2, 131576, Note_on_c, 2, 68, 0
2, 131612, Note_on_c, 2, 73, 90
2, 131816, Note_on_c, 2, 77, 90
2, 131844, Note_on_c, 2, 73, 0
2, 131896, Note_on_c, 2, 77, 0
2, 131960, Note_on_c, 2, 78, 102
2, 132104, Note_on_c, 2, 78, 0
2, 132160, Note_on_c, 2, 47, 81
2, 132164, Note_on_c, 2, 40, 69
2, 132164, Note_on_c, 2, 71, 81
2, 132232, Note_on_c, 2, 40, 0
2, 132232, Note_on_c, 2, 47, 0
2, 132276, Note_on_c, 2, 71, 0
2, 132292, Note_on_c, 2, 74, 86
2, 132504, Note_on_c, 2, 74, 0
2, 132512, Note_on_c, 2, 78, 107
2, 132604, Note_on_c, 2, 78, 0
2, 132652, Note_on_c, 2, 73, 77
2, 132804, Note_on_c, 2, 73, 0
2, 132848, Note_on_c, 2, 56, 90
2, 132852, Note_on_c, 2, 45, 80
2, 132860, Note_on_c, 2, 76, 77
2, 132912, Note_on_c, 2, 56, 0
2, 132920, Note_on_c, 2, 45, 0
2, 132976, Note_on_c, 2, 80, 90
2, 132996, Note_on_c, 2, 76, 0
2, 133088, Note_on_c, 2, 80, 0
2, 133196, Note_on_c, 2, 84, 92
2, 133196, Note_on_c, 2, 72, 84
2, 133200, Note_on_c, 2, 80, 92
2, 133200, Note_on_c, 2, 57, 84
2, 133204, Note_on_c, 2, 75, 91
2, 133204, Note_on_c, 2, 47, 82
2, 133268, Note_on_c, 2, 75, 0
2, 133280, Note_on_c, 2, 57, 0
2, 133284, Note_on_c, 2, 80, 0
2, 133284, Note_on_c, 2, 72, 0
2, 133288, Note_on_c, 2, 47, 0
2, 133308, Note_on_c, 2, 84, 0
2, 133540, Note_on_c, 2, 57, 85
2, 133540, Note_on_c, 2, 81, 95
2, 133540, Note_on_c, 2, 86, 101
2, 133544, Note_on_c, 2, 47, 77
2, 133544, Note_on_c, 2, 51, 86
2, 133548, Note_on_c, 2, 74, 96
2, 133608, Note_on_c, 2, 57, 0
2, 133612, Note_on_c, 2, 51, 0
2, 133624, Note_on_c, 2, 47, 0
2, 133632, Note_on_c, 2, 86, 0
2, 133636, Note_on_c, 2, 81, 0
2, 133656, Note_on_c, 2, 74, 0
2, 133892, Note_on_c, 2, 78, 97
2, 133892, Note_on_c, 2, 80, 94
2, 133892, Note_on_c, 2, 71, 99
2, 133892, Note_on_c, 2, 75, 99
2, 133892, Note_on_c, 2, 83, 79
2, 134240, Note_on_c, 2, 40, 97
2, 134244, Note_on_c, 2, 47, 99
2, 134288, Control_c, 2, 64, 127
2, 134324, Note_off_c, 2, 47, 0
2, 134324, Note_off_c, 2, 40, 0
2, 134704, Note_on_c, 2, 56, 108
2, 134760, Note_on_c, 2, 80, 0
2, 134764, Note_on_c, 2, 78, 0
2, 134768, Note_on_c, 2, 75, 0
2, 134772, Note_on_c, 2, 71, 0
2, 134780, Note_on_c, 2, 83, 0
2, 135060, Note_on_c, 2, 81, 90
2, 135064, Note_on_c, 2, 78, 101
2, 135064, Note_on_c, 2, 75, 103
2, 135068, Note_on_c, 2, 69, 98
2, 135076, Note_on_c, 2, 56, 0
2, 135168, Note_on_c, 2, 75, 0
2, 135176, Note_on_c, 2, 69, 0
2, 135184, Note_on_c, 2, 78, 0
2, 135192, Note_on_c, 2, 81, 0
2, 135384, Note_on_c, 2, 68, 91
2, 135388, Control_c, 2, 64, 0
2, 135396, Note_on_c, 2, 75, 90
2, 135412, Note_on_c, 2, 80, 90
2, 135456, Note_on_c, 2, 76, 78
2, 135500, Note_on_c, 2, 75, 0
2, 135652, Note_on_c, 2, 56, 82
2, 135652, Note_on_c, 2, 45, 75
2, 135656, Note_on_c, 2, 52, 81
2, 135660, Note_on_c, 2, 80, 0
2, 135668, Note_on_c, 2, 76, 0
2, 135692, Note_on_c, 2, 68, 0
2, 135704, Control_c, 2, 64, 127
2, 136124, Note_on_c, 2, 76, 101
2, 136124, Note_on_c, 2, 64, 111
2, 136156, Note_on_c, 2, 56, 0
2, 136200, Note_on_c, 2, 64, 0
2, 136224, Note_on_c, 2, 76, 0
2, 136376, Note_on_c, 2, 66, 102
2, 136376, Note_on_c, 2, 78, 104
2, 136440, Note_on_c, 2, 66, 0
2, 136464, Note_on_c, 2, 56, 88
2, 136472, Note_on_c, 2, 78, 0
2, 136528, Note_on_c, 2, 56, 0
2, 136528, Note_on_c, 2, 45, 0
2, 136536, Note_on_c, 2, 52, 0
2, 136604, Note_on_c, 2, 80, 99
2, 136608, Note_on_c, 2, 68, 96
2, 136672, Note_on_c, 2, 68, 0
2, 136692, Note_on_c, 2, 80, 0
2, 136788, Control_c, 2, 64, 0
2, 136836, Note_on_c, 2, 85, 108
2, 136840, Note_on_c, 2, 73, 106
2, 136844, Note_on_c, 2, 78, 95
2, 136920, Control_c, 2, 64, 127
2, 137044, Note_off_c, 2, 73, 0
2, 137056, Note_off_c, 2, 85, 0
2, 137056, Note_on_c, 2, 44, 95
2, 137060, Note_on_c, 2, 54, 85
2, 137084, Note_on_c, 2, 78, 0
2, 137092, Note_on_c, 2, 54, 0
2, 137100, Note_on_c, 2, 44, 0
2, 137284, Note_on_c, 2, 83, 90
2, 137284, Note_on_c, 2, 78, 106
2, 137284, Note_on_c, 2, 71, 99
2, 137388, Control_c, 2, 64, 0
2, 137480, Note_on_c, 2, 62, 77
2, 137480, Note_on_c, 2, 59, 81
2, 137480, Note_on_c, 2, 54, 79
2, 137484, Note_on_c, 2, 56, 84
2, 137500, Note_on_c, 2, 83, 0
2, 137508, Note_on_c, 2, 78, 0
2, 137524, Control_c, 2, 64, 127
2, 137528, Note_off_c, 2, 71, 0
2, 137552, Note_off_c, 2, 59, 0
2, 137552, Note_off_c, 2, 62, 0
2, 137584, Note_off_c, 2, 56, 0
2, 137588, Note_off_c, 2, 54, 0
2, 137700, Note_on_c, 2, 81, 96
2, 137704, Note_on_c, 2, 69, 93
2, 137880, Note_on_c, 2, 81, 0
2, 137884, Note_on_c, 2, 54, 90
2, 137884, Note_on_c, 2, 44, 92
2, 137888, Note_on_c, 2, 69, 0
2, 137948, Note_on_c, 2, 54, 0
2, 137964, Note_on_c, 2, 44, 0
2, 138108, Note_on_c, 2, 68, 106
2, 138108, Note_on_c, 2, 80, 106
2, 138112, Note_on_c, 2, 73, 103
2, 138152, Control_c, 2, 64, 0
2, 138376, Note_on_c, 2, 37, 101
2, 138380, Note_on_c, 2, 44, 101
2, 138392, Control_c, 2, 64, 127
2, 138436, Note_off_c, 2, 37, 0
2, 138440, Note_off_c, 2, 44, 0
2, 138528, Note_off_c, 2, 80, 0
2, 138580, Note_off_c, 2, 68, 0
2, 138588, Note_off_c, 2, 73, 0
2, 138816, Note_on_c, 2, 59, 83
2, 138820, Note_on_c, 2, 53, 82
2, 138824, Control_c, 2, 64, 0
2, 138824, Note_on_c, 2, 49, 86
2, 138940, Control_c, 2, 64, 127
2, 139176, Note_on_c, 2, 56, 105
2, 139196, Note_on_c, 2, 59, 0
2, 139208, Note_on_c, 2, 49, 0
2, 139208, Note_on_c, 2, 53, 0
2, 139228, Note_on_c, 2, 56, 0
2, 139440, Note_on_c, 2, 88, 76
2, 139472, Control_c, 2, 64, 0
2, 139528, Note_on_c, 2, 92, 109
2, 139528, Note_on_c, 2, 85, 106
2, 139528, Note_on_c, 2, 80, 106
2, 139572, Note_on_c, 2, 88, 0
2, 139644, Note_on_c, 2, 85, 0
2, 139660, Note_on_c, 2, 80, 0
2, 139680, Note_on_c, 2, 92, 0
2, 139756, Note_on_c, 2, 42, 110
2, 139756, Note_on_c, 2, 52, 100
2, 139808, Note_on_c, 2, 52, 0
2, 139808, Control_c, 2, 64, 127
2, 139812, Note_off_c, 2, 42, 0
2, 140216, Control_c, 2, 64, 0
2, 140228, Note_on_c, 2, 56, 77
2, 140232, Note_on_c, 2, 61, 79
2, 140236, Note_on_c, 2, 52, 68
2, 140236, Note_on_c, 2, 57, 76
2, 140236, Note_on_c, 2, 81, 92
2, 140236, Note_on_c, 2, 88, 91
2, 140236, Note_on_c, 2, 85, 94
2, 140240, Note_on_c, 2, 76, 95
2, 140360, Note_on_c, 2, 88, 0
2, 140364, Note_on_c, 2, 81, 0
2, 140364, Note_on_c, 2, 52, 0
2, 140368, Note_on_c, 2, 76, 0
2, 140368, Note_on_c, 2, 85, 0
2, 140372, Note_on_c, 2, 57, 0
2, 140372, Note_on_c, 2, 61, 0
2, 140384, Note_on_c, 2, 56, 0
2, 140576, Note_on_c, 2, 61, 82
2, 140576, Note_on_c, 2, 57, 75
2, 140580, Note_on_c, 2, 56, 76
2, 140584, Note_on_c, 2, 80, 82
2, 140584, Note_on_c, 2, 73, 87
2, 140584, Note_on_c, 2, 52, 58
2, 140592, Note_on_c, 2, 85, 79
2, 140592, Note_on_c, 2, 78, 86
2, 140616, Control_c, 2, 64, 127
2, 140640, Note_off_c, 2, 78, 0
2, 140644, Note_off_c, 2, 52, 0
2, 140644, Note_off_c, 2, 57, 0
2, 140644, Note_off_c, 2, 61, 0
2, 140652, Note_off_c, 2, 73, 0
2, 140652, Note_off_c, 2, 56, 0
2, 140660, Note_off_c, 2, 80, 0
2, 140680, Note_off_c, 2, 85, 0
2, 140908, Control_c, 2, 64, 0
2, 140932, Note_on_c, 2, 57, 79
2, 140932, Note_on_c, 2, 75, 100
2, 140932, Note_on_c, 2, 47, 82
2, 140932, Note_on_c, 2, 83, 79
2, 140936, Note_on_c, 2, 81, 68
2, 140936, Note_on_c, 2, 51, 83
2, 140944, Note_on_c, 2, 87, 51
2, 140952, Note_on_c, 2, 88, 74
2, 140992, Note_on_c, 2, 75, 0
2, 140992, Note_on_c, 2, 76, 72
2, 141032, Note_on_c, 2, 87, 0
2, 141092, Note_on_c, 2, 88, 0
2, 141096, Note_on_c, 2, 76, 0
2, 141100, Note_on_c, 2, 47, 0
2, 141100, Note_on_c, 2, 57, 0
2, 141108, Note_on_c, 2, 83, 0
2, 141112, Note_on_c, 2, 51, 0
2, 141112, Note_on_c, 2, 81, 0
2, 141264, Note_on_c, 2, 57, 83
2, 141268, Note_on_c, 2, 47, 84
2, 141268, Note_on_c, 2, 51, 93
2, 141272, Note_on_c, 2, 86, 88
2, 141272, Note_on_c, 2, 81, 85
2, 141276, Note_on_c, 2, 74, 92
2, 141332, Control_c, 2, 64, 127
2, 141380, Note_off_c, 2, 81, 0
2, 141388, Note_off_c, 2, 86, 0
2, 141400, Note_off_c, 2, 74, 0
2, 141452, Note_off_c, 2, 51, 0
2, 141456, Note_off_c, 2, 57, 0
2, 141464, Note_off_c, 2, 47, 0
2, 141588, Control_c, 2, 64, 0
2, 141628, Note_on_c, 2, 57, 79
2, 141628, Note_on_c, 2, 51, 88
2, 141632, Note_on_c, 2, 47, 78
2, 141632, Note_on_c, 2, 83, 82
2, 141636, Note_on_c, 2, 71, 90
2, 141704, Control_c, 2, 64, 127
2, 141708, Note_off_c, 2, 71, 0
2, 141716, Note_off_c, 2, 83, 0
2, 141732, Note_off_c, 2, 47, 0
2, 141736, Note_off_c, 2, 51, 0
2, 141736, Note_off_c, 2, 57, 0
2, 141876, Note_on_c, 2, 70, 104
2, 141880, Note_on_c, 2, 57, 86
2, 141880, Note_on_c, 2, 82, 101
2, 141880, Note_on_c, 2, 47, 84
2, 141880, Note_on_c, 2, 51, 95
2, 141912, Control_c, 2, 64, 0
2, 141932, Note_off_c, 2, 70, 0
2, 141936, Note_off_c, 2, 82, 0
2, 141968, Note_on_c, 2, 81, 70
2, 141972, Note_on_c, 2, 69, 74
2, 142008, Control_c, 2, 64, 127
2, 142012, Note_off_c, 2, 57, 0
2, 142024, Note_off_c, 2, 51, 0
2, 142040, Note_off_c, 2, 47, 0
2, 142088, Note_off_c, 2, 69, 0
2, 142100, Note_off_c, 2, 81, 0
2, 142188, Note_on_c, 2, 67, 101
2, 142188, Note_on_c, 2, 79, 102
2, 142192, Control_c, 2, 64, 0
2, 142516, Note_on_c, 2, 47, 99
2, 142528, Note_on_c, 2, 46, 110
2, 142564, Note_on_c, 2, 46, 0
2, 142808, Note_on_c, 2, 67, 0
2, 142812, Note_on_c, 2, 79, 0
2, 142876, Note_on_c, 2, 35, 83
2, 142880, Note_on_c, 2, 76, 81
2, 142948, Note_on_c, 2, 76, 0
2, 142992, Note_on_c, 2, 79, 93
2, 143156, Note_on_c, 2, 79, 0
2, 143236, Note_on_c, 2, 76, 99
2, 143320, Note_on_c, 2, 76, 0
2, 143344, Note_on_c, 2, 74, 79
2, 143484, Note_on_c, 2, 74, 0
2, 143568, Note_on_c, 2, 74, 86
2, 143568, Note_on_c, 2, 71, 95
2, 143636, Note_on_c, 2, 74, 0
2, 143660, Note_on_c, 2, 71, 0
2, 143696, Note_on_c, 2, 67, 47
2, 143840, Note_on_c, 2, 67, 0
2, 143928, Note_on_c, 2, 64, 106
2, 144008, Note_on_c, 2, 64, 0
2, 144028, Note_on_c, 2, 62, 71
2, 144036, Note_on_c, 2, 35, 0
2, 144252, Note_on_c, 2, 62, 0
2, 144272, Note_on_c, 2, 59, 88
2, 144352, Note_on_c, 2, 59, 0
2, 144384, Note_on_c, 2, 57, 64
2, 144572, Note_on_c, 2, 57, 0
2, 144608, Note_on_c, 2, 59, 98
2, 144696, Note_on_c, 2, 59, 0
2, 144708, Note_on_c, 2, 55, 58
2, 144924, Note_on_c, 2, 55, 0
2, 144964, Note_on_c, 2, 56, 90
2, 145016, Note_on_c, 2, 47, 0
2, 145036, Note_on_c, 2, 56, 0
2, 145072, Note_on_c, 2, 52, 77
2, 145196, Note_on_c, 2, 52, 0
2, 145292, Note_on_c, 2, 40, 104
2, 145392, Control_c, 2, 64, 127
2, 145436, Note_off_c, 2, 40, 0
2, 145680, Note_on_c, 2, 44, 92
2, 145704, Control_c, 2, 64, 0
2, 145740, Note_off_c, 2, 44, 0
2, 145776, Note_on_c, 2, 71, 85
2, 145776, Note_on_c, 2, 37, 83
2, 145932, Note_on_c, 2, 71, 0
2, 146116, Note_on_c, 2, 69, 90
2, 146128, Control_c, 2, 64, 127
2, 146132, Note_off_c, 2, 37, 0
2, 146232, Note_off_c, 2, 69, 0
2, 146368, Note_on_c, 2, 42, 84
2, 146392, Control_c, 2, 64, 0
2, 146420, Note_on_c, 2, 57, 60
2, 146444, Note_on_c, 2, 52, 75
2, 146448, Note_on_c, 2, 61, 80
2, 146476, Note_on_c, 2, 64, 83
2, 146512, Note_on_c, 2, 68, 97
2, 146588, Control_c, 2, 64, 127
2, 146696, Note_off_c, 2, 64, 0
2, 146736, Note_off_c, 2, 42, 0
2, 146776, Note_off_c, 2, 68, 0
2, 146776, Note_off_c, 2, 52, 0
2, 146828, Note_off_c, 2, 57, 0
2, 146836, Note_on_c, 2, 64, 93
2, 146864, Note_on_c, 2, 61, 0
2, 147072, Note_on_c, 2, 64, 0
2, 147080, Note_on_c, 2, 47, 57
2, 147084, Control_c, 2, 64, 0
2, 147160, Note_on_c, 2, 57, 68
2, 147164, Note_on_c, 2, 60, 66
2, 147168, Note_on_c, 2, 66, 75
2, 147172, Note_on_c, 2, 63, 75
2, 147252, Control_c, 2, 64, 127
2, 147384, Note_off_c, 2, 57, 0
2, 147388, Note_off_c, 2, 66, 0
2, 147396, Note_off_c, 2, 47, 0
2, 147412, Note_on_c, 2, 68, 103
2, 147452, Note_on_c, 2, 63, 0
2, 147488, Note_on_c, 2, 68, 0
2, 147496, Note_on_c, 2, 60, 0
2, 147732, Note_on_c, 2, 59, 81
2, 147740, Control_c, 2, 64, 0
2, 148068, Note_on_c, 2, 56, 83
2, 148068, Note_on_c, 2, 47, 68
2, 148068, Note_on_c, 2, 54, 80
2, 148072, Note_on_c, 2, 40, 72
2, 148148, Control_c, 2, 64, 127
2, 148180, Note_off_c, 2, 47, 0
2, 148184, Note_off_c, 2, 40, 0
2, 148256, Note_off_c, 2, 54, 0
2, 148260, Note_off_c, 2, 56, 0
2, 148272, Note_off_c, 2, 59, 0
2, 148484, Control_c, 2, 64, 0
2, 148512, Note_on_c, 2, 44, 65
2, 148516, Note_on_c, 2, 58, 77
2, 148516, Note_on_c, 2, 53, 68
2, 148520, Note_on_c, 2, 64, 81
2, 148524, Note_on_c, 2, 37, 67
2, 148536, Note_on_c, 2, 59, 74
2, 148560, Note_on_c, 2, 58, 0
2, 148600, Note_on_c, 2, 37, 0
2, 148600, Note_on_c, 2, 44, 0
2, 148624, Note_on_c, 2, 64, 0
2, 148636, Note_on_c, 2, 53, 0
2, 148648, Note_on_c, 2, 59, 0
2, 148868, Note_on_c, 2, 59, 52
2, 148868, Note_on_c, 2, 62, 50
2, 148872, Note_on_c, 2, 44, 60
2, 148876, Note_on_c, 2, 37, 66
2, 148876, Note_on_c, 2, 53, 50
2, 148948, Note_on_c, 2, 37, 0
2, 148964, Note_on_c, 2, 44, 0
2, 149004, Note_on_c, 2, 62, 0
2, 149028, Note_on_c, 2, 53, 0
2, 149036, Note_on_c, 2, 59, 0
2, 149224, Note_on_c, 2, 49, 51
2, 149228, Note_on_c, 2, 61, 65
2, 149232, Note_on_c, 2, 42, 56
2, 149232, Note_on_c, 2, 52, 38
2, 149292, Control_c, 2, 64, 127
2, 149316, Note_off_c, 2, 52, 0
2, 149436, Note_off_c, 2, 61, 0
2, 149464, Note_on_c, 2, 52, 51
2, 149500, Note_on_c, 2, 42, 0
2, 149500, Note_on_c, 2, 49, 0
2, 149548, Note_on_c, 2, 52, 0
2, 149568, Note_on_c, 2, 57, 72
2, 149584, Control_c, 2, 64, 0
2, 149720, Note_off_c, 2, 57, 0
2, 149784, Note_on_c, 2, 51, 67
2, 149788, Note_on_c, 2, 55, 49
2, 149792, Note_on_c, 2, 58, 75
2, 149792, Note_on_c, 2, 41, 51
2, 149804, Note_on_c, 2, 62, 52
2, 149864, Note_on_c, 2, 58, 0
2, 149876, Note_on_c, 2, 59, 50
2, 149984, Control_c, 2, 64, 127
2, 150144, Note_off_c, 2, 62, 0
2, 150200, Note_off_c, 2, 41, 0
2, 150200, Note_off_c, 2, 51, 0
2, 150208, Note_off_c, 2, 55, 0
2, 150228, Note_off_c, 2, 59, 0
2, 150244, Note_on_c, 2, 60, 36
2, 150452, Control_c, 2, 64, 0
2, 150464, Note_off_c, 2, 60, 0
2, 150464, Note_on_c, 2, 47, 47
2, 150464, Note_on_c, 2, 40, 50
2, 150468, Note_on_c, 2, 59, 68
2, 150560, Note_on_c, 2, 59, 0
2, 150596, Control_c, 2, 64, 127
2, 150852, Note_off_c, 2, 40, 0
2, 150864, Note_off_c, 2, 47, 0
2, 151176, Note_on_c, 2, 59, 71
2, 151240, Control_c, 2, 64, 0
2, 151244, Note_off_c, 2, 59, 0
2, 151296, Note_on_c, 2, 64, 82
2, 151592, Note_on_c, 2, 45, 72
2, 151632, Control_c, 2, 64, 127
2, 151672, Note_off_c, 2, 45, 0
2, 151832, Note_off_c, 2, 64, 0
2, 151836, Note_on_c, 2, 66, 104
2, 151924, Control_c, 2, 64, 0
2, 151956, Note_off_c, 2, 66, 0
2, 152008, Note_on_c, 2, 68, 55
2, 152212, Note_on_c, 2, 54, 73
2, 152224, Note_on_c, 2, 44, 65
2, 152224, Control_c, 2, 64, 127
2, 152256, Note_off_c, 2, 68, 0
2, 152308, Note_off_c, 2, 54, 0
2, 152320, Note_off_c, 2, 44, 0
2, 152536, Note_on_c, 2, 69, 65
2, 152604, Control_c, 2, 64, 0
2, 152632, Note_off_c, 2, 69, 0
2, 152672, Note_on_c, 2, 71, 43
2, 152892, Note_on_c, 2, 53, 44
2, 152896, Note_on_c, 2, 49, 56
2, 152916, Control_c, 2, 64, 127
2, 152924, Note_off_c, 2, 71, 0
2, 152952, Note_off_c, 2, 49, 0
2, 152968, Note_off_c, 2, 53, 0
2, 153228, Note_on_c, 2, 73, 71
2, 153288, Note_on_c, 2, 73, 0
2, 153304, Control_c, 2, 64, 0
2, 153360, Note_on_c, 2, 66, 54
2, 153564, Control_c, 2, 64, 127
2, 153576, Note_on_c, 2, 42, 75
2, 153596, Note_on_c, 2, 66, 0
2, 153616, Note_on_c, 2, 42, 0
2, 154040, Note_on_c, 2, 77, 79
2, 154040, Control_c, 2, 64, 0
2, 154048, Note_on_c, 2, 57, 52
2, 154236, Note_on_c, 2, 77, 0
2, 154276, Note_on_c, 2, 73, 78
2, 154372, Note_on_c, 2, 69, 59
2, 154376, Note_on_c, 2, 73, 0
2, 154404, Control_c, 2, 64, 127
2, 154592, Note_off_c, 2, 69, 0
2, 154652, Note_on_c, 2, 65, 41
2, 154720, Note_on_c, 2, 65, 0
2, 154724, Control_c, 2, 64, 0
2, 154724, Note_on_c, 2, 47, 52
2, 154740, Note_on_c, 2, 76, 76
2, 154936, Note_on_c, 2, 76, 0
2, 154968, Note_on_c, 2, 73, 60
2, 155056, Note_on_c, 2, 73, 0
2, 155056, Note_on_c, 2, 74, 63
2, 155312, Note_on_c, 2, 74, 0
2, 155312, Note_on_c, 2, 75, 88
2, 155380, Control_c, 2, 64, 127
2, 155392, Note_off_c, 2, 75, 0
2, 155640, Note_on_c, 2, 51, 86
2, 155656, Note_on_c, 2, 47, 0
2, 155664, Note_on_c, 2, 57, 0
2, 155692, Note_on_c, 2, 51, 0
2, 156008, Note_on_c, 2, 80, 88
2, 156060, Control_c, 2, 64, 0
2, 156072, Note_off_c, 2, 80, 0
2, 156104, Note_on_c, 2, 81, 71
2, 156292, Note_on_c, 2, 81, 0
2, 156340, Note_on_c, 2, 81, 77
2, 156404, Note_on_c, 2, 81, 0
2, 156696, Note_on_c, 2, 42, 62
2, 156796, Note_on_c, 2, 56, 68
2, 156808, Note_on_c, 2, 64, 62
2, 156808, Note_on_c, 2, 68, 58
2, 156812, Note_on_c, 2, 57, 46
2, 156812, Note_on_c, 2, 61, 61
2, 156984, Note_on_c, 2, 57, 0
2, 156984, Note_on_c, 2, 68, 0
2, 156992, Note_on_c, 2, 61, 0
2, 156992, Note_on_c, 2, 56, 0
2, 157004, Note_on_c, 2, 64, 0
2, 157004, Note_on_c, 2, 42, 0
2, 157036, Note_on_c, 2, 42, 62
2, 157040, Note_on_c, 2, 61, 78
2, 157044, Note_on_c, 2, 56, 70
2, 157044, Note_on_c, 2, 57, 85
2, 157044, Note_on_c, 2, 68, 80
2, 157048, Note_on_c, 2, 64, 85
2, 157104, Note_on_c, 2, 61, 0
2, 157108, Note_on_c, 2, 57, 0
2, 157112, Note_on_c, 2, 56, 0
2, 157116, Note_on_c, 2, 42, 0
2, 157120, Note_on_c, 2, 64, 0
2, 157144, Note_on_c, 2, 68, 0
2, 157392, Note_on_c, 2, 51, 79
2, 157508, Note_on_c, 2, 51, 0
2, 157508, Note_on_c, 2, 47, 52
2, 157732, Note_on_c, 2, 68, 99
2, 157736, Note_on_c, 2, 80, 97
2, 157740, Note_on_c, 2, 57, 72
2, 157792, Note_on_c, 2, 80, 0
2, 157792, Note_on_c, 2, 68, 0
2, 157804, Note_on_c, 2, 57, 0
2, 157808, Note_on_c, 2, 47, 0
2, 158096, Note_on_c, 2, 47, 64
2, 158172, Note_on_c, 2, 80, 86
2, 158176, Note_on_c, 2, 68, 81
2, 158180, Note_on_c, 2, 57, 62
2, 158180, Note_on_c, 2, 73, 83
2, 158260, Note_on_c, 2, 68, 0
2, 158264, Note_on_c, 2, 73, 0
2, 158268, Note_on_c, 2, 80, 0
2, 158520, Note_on_c, 2, 78, 82
2, 158520, Note_on_c, 2, 73, 79
2, 158520, Note_on_c, 2, 66, 81
2, 158524, Note_on_c, 2, 51, 73
2, 158536, Note_on_c, 2, 47, 0
2, 158552, Control_c, 2, 64, 127
2, 158560, Note_off_c, 2, 57, 0
2, 158588, Note_off_c, 2, 51, 0
2, 158592, Note_off_c, 2, 73, 0
2, 158608, Note_off_c, 2, 78, 0
2, 158616, Note_off_c, 2, 66, 0
2, 158788, Note_on_c, 2, 42, 66
2, 158808, Control_c, 2, 64, 0
2, 158840, Note_on_c, 2, 64, 51
2, 158860, Note_on_c, 2, 69, 55
2, 158860, Note_on_c, 2, 57, 66
2, 158884, Note_on_c, 2, 73, 86
2, 158896, Note_on_c, 2, 76, 88
2, 158976, Control_c, 2, 64, 127
2, 159100, Note_off_c, 2, 76, 0
2, 159100, Note_off_c, 2, 69, 0
2, 159108, Note_off_c, 2, 73, 0
2, 159164, Note_off_c, 2, 64, 0
2, 159224, Note_off_c, 2, 57, 0
2, 159228, Note_on_c, 2, 52, 68
2, 159232, Note_on_c, 2, 42, 0
2, 159260, Note_on_c, 2, 52, 0
2, 159552, Control_c, 2, 64, 0
2, 159564, Note_on_c, 2, 58, 93
2, 159568, Note_on_c, 2, 69, 79
2, 159568, Note_on_c, 2, 53, 60
2, 159572, Note_on_c, 2, 43, 53
2, 159808, Note_on_c, 2, 65, 57
2, 159836, Note_on_c, 2, 43, 0
2, 159836, Control_c, 2, 64, 127
2, 159860, Note_off_c, 2, 53, 0
2, 159860, Note_off_c, 2, 58, 0
2, 159884, Note_off_c, 2, 69, 0
2, 159920, Note_on_c, 2, 62, 58
2, 159928, Note_on_c, 2, 65, 0
2, 159964, Note_on_c, 2, 62, 0
2, 160112, Control_c, 2, 64, 0
2, 160140, Note_on_c, 2, 62, 90
2, 160140, Note_on_c, 2, 72, 93
2, 160144, Note_on_c, 2, 52, 60
2, 160148, Note_on_c, 2, 36, 59
2, 160196, Note_on_c, 2, 62, 0
2, 160204, Note_on_c, 2, 72, 0
2, 160252, Note_on_c, 2, 52, 0
2, 160256, Note_on_c, 2, 36, 0
2, 160480, Note_on_c, 2, 59, 79
2, 160480, Note_on_c, 2, 66, 94
2, 160484, Note_on_c, 2, 54, 84
2, 160488, Note_on_c, 2, 44, 77
2, 160544, Note_on_c, 2, 44, 0
2, 160544, Note_on_c, 2, 66, 0
2, 160548, Note_on_c, 2, 54, 0
2, 160552, Note_on_c, 2, 59, 0
2, 160816, Note_on_c, 2, 62, 79
2, 160820, Note_on_c, 2, 59, 75
2, 160820, Note_on_c, 2, 53, 72
2, 160832, Note_on_c, 2, 43, 53
2, 160896, Note_on_c, 2, 53, 0
2, 160900, Note_on_c, 2, 43, 0
2, 160900, Note_on_c, 2, 62, 0
2, 160912, Note_on_c, 2, 59, 0
2, 161160, Note_on_c, 2, 64, 91
2, 161164, Note_on_c, 2, 59, 85
2, 161164, Note_on_c, 2, 44, 86
2, 161164, Note_on_c, 2, 71, 88
2, 161168, Note_on_c, 2, 37, 80
2, 161232, Note_on_c, 2, 64, 0
2, 161240, Note_on_c, 2, 37, 0
2, 161240, Note_on_c, 2, 44, 0
2, 161248, Note_on_c, 2, 71, 0
2, 161260, Note_on_c, 2, 59, 0
2, 161508, Note_on_c, 2, 64, 84
2, 161508, Note_on_c, 2, 61, 86
2, 161508, Note_on_c, 2, 57, 82
2, 161508, Note_on_c, 2, 52, 79
2, 161512, Note_on_c, 2, 42, 89
2, 161628, Control_c, 2, 64, 127
2, 161760, Note_off_c, 2, 57, 0
2, 161784, Note_off_c, 2, 42, 0
2, 161784, Note_off_c, 2, 64, 0
2, 161788, Note_off_c, 2, 61, 0
2, 161792, Note_off_c, 2, 52, 0
2, 161984, Note_on_c, 2, 62, 64
2, 161984, Note_on_c, 2, 56, 58
2, 161988, Note_on_c, 2, 44, 78
2, 161992, Control_c, 2, 64, 0
2, 162116, Note_off_c, 2, 56, 0
2, 162120, Note_off_c, 2, 62, 0
2, 162196, Note_off_c, 2, 44, 0
2, 162324, Note_on_c, 2, 45, 59
2, 162328, Note_on_c, 2, 64, 64
2, 162332, Note_on_c, 2, 61, 80
2, 162332, Note_on_c, 2, 57, 72
2, 162480, Note_on_c, 2, 64, 0
2, 162508, Note_on_c, 2, 57, 0
2, 162528, Note_on_c, 2, 61, 0
2, 162572, Note_on_c, 2, 45, 0
2, 162668, Note_on_c, 2, 46, 69
2, 162668, Note_on_c, 2, 61, 12
2, 162668, Note_on_c, 2, 63, 70
2, 162676, Note_on_c, 2, 57, 42
2, 162676, Note_on_c, 2, 60, 51
2, 162736, Control_c, 2, 64, 127
2, 162776, Note_off_c, 2, 61, 0
2, 162796, Note_off_c, 2, 60, 0
2, 162796, Note_off_c, 2, 63, 0
2, 162808, Note_off_c, 2, 57, 0
2, 162936, Control_c, 2, 64, 0
2, 162944, Note_off_c, 2, 46, 0
2, 162944, Note_on_c, 2, 44, 62
2, 163004, Note_on_c, 2, 44, 0
2, 163012, Note_on_c, 2, 61, 75
2, 163016, Note_on_c, 2, 64, 69
2, 163016, Note_on_c, 2, 47, 76
2, 163020, Note_on_c, 2, 57, 66
2, 163216, Note_on_c, 2, 57, 0
2, 163252, Note_on_c, 2, 61, 0
2, 163260, Note_on_c, 2, 64, 0
2, 163260, Note_on_c, 2, 35, 102
2, 163312, Control_c, 2, 64, 127
2, 163692, Note_on_c, 2, 72, 85
2, 163692, Control_c, 2, 64, 0
2, 163700, Note_on_c, 2, 76, 76
2, 163700, Note_on_c, 2, 73, 99
2, 163724, Note_on_c, 2, 70, 57
2, 163756, Note_on_c, 2, 72, 0
2, 163764, Note_on_c, 2, 70, 0
2, 163828, Note_on_c, 2, 76, 0
2, 163848, Note_on_c, 2, 73, 0
2, 163932, Note_on_c, 2, 76, 85
2, 163940, Note_on_c, 2, 69, 88
2, 164008, Note_on_c, 2, 69, 0
2, 164028, Note_on_c, 2, 76, 0
2, 164036, Note_on_c, 2, 35, 0
2, 164056, Note_on_c, 2, 64, 65
2, 164092, Control_c, 2, 64, 127
2, 164188, Note_off_c, 2, 47, 0
2, 164200, Note_off_c, 2, 64, 0
2, 164268, Note_on_c, 2, 68, 89
2, 164268, Note_on_c, 2, 67, 72
2, 164300, Note_on_c, 2, 71, 75
2, 164304, Control_c, 2, 64, 0
2, 164324, Note_off_c, 2, 67, 0
2, 164360, Note_off_c, 2, 68, 0
2, 164608, Note_on_c, 2, 63, 83
2, 164608, Note_on_c, 2, 59, 68
2, 164612, Note_on_c, 2, 54, 91
2, 164616, Note_on_c, 2, 44, 91
2, 164692, Control_c, 2, 64, 127
2, 164744, Note_off_c, 2, 63, 0
2, 164752, Note_off_c, 2, 54, 0
2, 164772, Note_off_c, 2, 44, 0
2, 164792, Note_off_c, 2, 59, 0
2, 165048, Control_c, 2, 64, 0
2, 165056, Note_on_c, 2, 65, 70
2, 165060, Note_on_c, 2, 53, 53
2, 165060, Note_on_c, 2, 62, 66
2, 165060, Note_on_c, 2, 59, 75
2, 165060, Note_on_c, 2, 49, 75
2, 165188, Control_c, 2, 64, 127
2, 165244, Note_off_c, 2, 59, 0
2, 165252, Note_off_c, 2, 49, 0
2, 165272, Note_off_c, 2, 53, 0
2, 165276, Note_off_c, 2, 62, 0
2, 165300, Note_off_c, 2, 65, 0
2, 165336, Note_off_c, 2, 71, 0
2, 165740, Control_c, 2, 64, 0
2, 165748, Note_on_c, 2, 42, 76
2, 165748, Note_on_c, 2, 57, 60
2, 165756, Note_on_c, 2, 75, 105
2, 165824, Note_on_c, 2, 75, 0
2, 165840, Note_on_c, 2, 76, 74
2, 165928, Note_on_c, 2, 42, 0
2, 165948, Note_on_c, 2, 73, 75
2, 165956, Note_on_c, 2, 76, 0
2, 166040, Note_on_c, 2, 69, 66
2, 166048, Note_on_c, 2, 73, 0
2, 166096, Note_on_c, 2, 69, 0
2, 166120, Note_on_c, 2, 68, 92
2, 166196, Note_on_c, 2, 68, 0
2, 166216, Note_on_c, 2, 65, 67
2, 166284, Note_on_c, 2, 66, 80
2, 166296, Note_on_c, 2, 65, 0
2, 166352, Note_on_c, 2, 66, 0
2, 166384, Note_on_c, 2, 68, 89
2, 166444, Note_on_c, 2, 47, 73
2, 166448, Note_on_c, 2, 69, 75
2, 166456, Note_on_c, 2, 68, 0
2, 166728, Note_on_c, 2, 69, 0
2, 166772, Note_on_c, 2, 51, 91
2, 166784, Note_on_c, 2, 74, 95
2, 166812, Note_on_c, 2, 47, 0
2, 166816, Note_on_c, 2, 57, 0
2, 166820, Note_on_c, 2, 51, 0
2, 166876, Note_on_c, 2, 72, 86
2, 166920, Note_on_c, 2, 74, 0
2, 166980, Note_on_c, 2, 67, 43
2, 166984, Note_on_c, 2, 72, 0
2, 167044, Note_on_c, 2, 69, 59
2, 167084, Note_on_c, 2, 67, 0
2, 167124, Note_on_c, 2, 70, 90
2, 167164, Note_on_c, 2, 71, 92
2, 167172, Note_on_c, 2, 69, 0
2, 167212, Note_on_c, 2, 70, 0
2, 167340, Note_on_c, 2, 56, 91
2, 167348, Note_on_c, 2, 40, 75
2, 167424, Control_c, 2, 64, 127
2, 167436, Note_off_c, 2, 40, 0
2, 167440, Note_off_c, 2, 56, 0
2, 167836, Note_on_c, 2, 49, 81
2, 167848, Control_c, 2, 64, 0
2, 168084, Note_off_c, 2, 71, 0
2, 168172, Note_on_c, 2, 53, 69
2, 168184, Note_on_c, 2, 69, 95
2, 168232, Note_on_c, 2, 53, 0
2, 168248, Note_on_c, 2, 49, 0
2, 168316, Note_on_c, 2, 69, 0
2, 168460, Note_on_c, 2, 42, 56
2, 168508, Note_on_c, 2, 57, 40
2, 168516, Note_on_c, 2, 52, 50
2, 168532, Note_on_c, 2, 61, 67
2, 168548, Note_on_c, 2, 68, 78
2, 168628, Control_c, 2, 64, 127
2, 168752, Note_off_c, 2, 42, 0
2, 168800, Note_off_c, 2, 52, 0
2, 168876, Note_off_c, 2, 57, 0
2, 168936, Note_off_c, 2, 68, 0
2, 168940, Note_off_c, 2, 61, 0
2, 169120, Note_on_c, 2, 64, 74
2, 169196, Control_c, 2, 64, 0
2, 169228, Note_on_c, 2, 66, 76
2, 169236, Note_on_c, 2, 64, 0
2, 169452, Note_on_c, 2, 51, 46
2, 169456, Note_on_c, 2, 47, 36
2, 169456, Note_on_c, 2, 57, 36
2, 169532, Control_c, 2, 64, 127
2, 169552, Note_off_c, 2, 51, 0
2, 169560, Note_off_c, 2, 47, 0
2, 169564, Note_off_c, 2, 57, 0
2, 169568, Note_off_c, 2, 66, 0
2, 169584, Note_on_c, 2, 68, 71
2, 169664, Note_on_c, 2, 68, 0
2, 169920, Control_c, 2, 64, 0
2, 169924, Note_on_c, 2, 59, 60
2, 169928, Note_on_c, 2, 47, 46
2, 169932, Note_on_c, 2, 40, 37
2, 170132, Note_on_c, 2, 59, 0
2, 170156, Note_on_c, 2, 61, 64
2, 170236, Note_on_c, 2, 61, 0
2, 170244, Note_on_c, 2, 59, 59
2, 170264, Note_on_c, 2, 40, 0
2, 170264, Note_on_c, 2, 47, 0
2, 170444, Note_on_c, 2, 59, 0
2, 170488, Note_on_c, 2, 59, 68
2, 170488, Note_on_c, 2, 44, 62
2, 170492, Note_on_c, 2, 37, 72
2, 170576, Control_c, 2, 64, 127
2, 170608, Note_off_c, 2, 59, 0
2, 170624, Note_off_c, 2, 37, 0
2, 170632, Note_off_c, 2, 44, 0
2, 171288, Note_on_c, 2, 59, 83
2, 171288, Note_on_c, 2, 51, 69
2, 171296, Control_c, 2, 64, 0
2, 171300, Note_on_c, 2, 41, 38
2, 171452, Note_on_c, 2, 60, 42
2, 171472, Note_on_c, 2, 59, 0
2, 171516, Note_on_c, 2, 61, 56
2, 171576, Note_on_c, 2, 60, 0
2, 171600, Note_on_c, 2, 62, 59
2, 171640, Note_on_c, 2, 61, 0
2, 171872, Note_on_c, 2, 62, 0
2, 171872, Note_on_c, 2, 59, 65
2, 172020, Control_c, 2, 64, 127
2, 172232, Note_on_c, 2, 48, 61
2, 172248, Note_on_c, 2, 59, 0
2, 172256, Note_on_c, 2, 51, 0
2, 172260, Note_on_c, 2, 41, 0
2, 172268, Note_on_c, 2, 48, 0
2, 172564, Note_on_c, 2, 59, 67
2, 172604, Control_c, 2, 64, 0
2, 172624, Note_off_c, 2, 59, 0
2, 172908, Note_on_c, 2, 47, 43
2, 172912, Note_on_c, 2, 64, 76
2, 172920, Note_on_c, 2, 40, 62
2, 173000, Note_on_c, 2, 40, 0
2, 173008, Note_on_c, 2, 47, 0
2, 173012, Control_c, 2, 64, 127
2, 173192, Note_off_c, 2, 64, 0
2, 173268, Note_on_c, 2, 45, 46
2, 173348, Control_c, 2, 64, 0
2, 173356, Note_on_c, 2, 59, 51
2, 173356, Note_on_c, 2, 66, 58
2, 173360, Note_on_c, 2, 55, 43
2, 173448, Note_on_c, 2, 55, 0
2, 173456, Note_on_c, 2, 66, 0
2, 173456, Note_on_c, 2, 45, 0
2, 173480, Note_on_c, 2, 59, 0
2, 173696, Note_on_c, 2, 45, 31
2, 173696, Note_on_c, 2, 55, 43
2, 173712, Note_on_c, 2, 68, 53
2, 173784, Note_on_c, 2, 45, 0
2, 173812, Note_on_c, 2, 55, 0
2, 173864, Note_on_c, 2, 68, 0
2, 174052, Note_on_c, 2, 69, 51
2, 174052, Note_on_c, 2, 54, 41
2, 174056, Note_on_c, 2, 66, 44
2, 174056, Note_on_c, 2, 59, 47
2, 174060, Note_on_c, 2, 44, 57
2, 174064, Note_on_c, 2, 63, 57
2, 174140, Note_on_c, 2, 63, 0
2, 174144, Note_on_c, 2, 66, 0
2, 174148, Note_on_c, 2, 69, 0
2, 174164, Note_on_c, 2, 59, 0
2, 174168, Note_on_c, 2, 54, 0
2, 174172, Note_on_c, 2, 44, 0
2, 174396, Note_on_c, 2, 54, 53
2, 174400, Note_on_c, 2, 71, 61
2, 174400, Note_on_c, 2, 44, 58
2, 174400, Note_on_c, 2, 59, 55
2, 174400, Note_on_c, 2, 66, 66
2, 174404, Note_on_c, 2, 63, 66
2, 174448, Control_c, 2, 64, 127
2, 174456, Note_off_c, 2, 63, 0
2, 174460, Note_off_c, 2, 66, 0
2, 174464, Note_off_c, 2, 59, 0
2, 174476, Note_off_c, 2, 54, 0
2, 174488, Note_off_c, 2, 71, 0
2, 174492, Note_off_c, 2, 44, 0
2, 174668, Note_on_c, 2, 49, 72
2, 174708, Control_c, 2, 64, 0
2, 174744, Note_on_c, 2, 53, 57
2, 174748, Note_on_c, 2, 69, 47
2, 174752, Note_on_c, 2, 65, 61
2, 174756, Note_on_c, 2, 73, 65
2, 174832, Control_c, 2, 64, 127
2, 174884, Note_off_c, 2, 53, 0
2, 174892, Note_off_c, 2, 65, 0
2, 174892, Note_off_c, 2, 69, 0
2, 174900, Note_off_c, 2, 49, 0
2, 174908, Note_off_c, 2, 73, 0
2, 174996, Note_on_c, 2, 69, 75
2, 175000, Note_on_c, 2, 74, 86
2, 175000, Note_on_c, 2, 65, 77
2, 175004, Note_on_c, 2, 49, 85
2, 175004, Note_on_c, 2, 53, 65
2, 175008, Control_c, 2, 64, 0
2, 175068, Note_off_c, 2, 69, 0
2, 175072, Note_off_c, 2, 53, 0
2, 175072, Note_off_c, 2, 49, 0
2, 175080, Note_off_c, 2, 65, 0
2, 175084, Note_off_c, 2, 74, 0
2, 175308, Note_on_c, 2, 64, 96
2, 175312, Note_on_c, 2, 69, 88
2, 175312, Note_on_c, 2, 76, 87
2, 175312, Note_on_c, 2, 73, 94
2, 175316, Note_on_c, 2, 52, 76
2, 175320, Note_on_c, 2, 42, 78
2, 175396, Control_c, 2, 64, 127
2, 175416, Note_off_c, 2, 42, 0
2, 175428, Note_off_c, 2, 69, 0
2, 175436, Note_off_c, 2, 52, 0
2, 175436, Note_off_c, 2, 64, 0
2, 175452, Note_off_c, 2, 73, 0
2, 175472, Note_off_c, 2, 76, 0
2, 175988, Note_on_c, 2, 80, 93
2, 175992, Note_on_c, 2, 73, 94
2, 175992, Note_on_c, 2, 68, 89
2, 175992, Note_on_c, 2, 76, 83
2, 175996, Note_on_c, 2, 61, 68
2, 176000, Note_on_c, 2, 57, 66
2, 176004, Note_on_c, 2, 56, 64
2, 176008, Note_on_c, 2, 52, 49
2, 176008, Control_c, 2, 64, 0
2, 176132, Control_c, 2, 64, 127
2, 176180, Note_off_c, 2, 68, 0
2, 176192, Note_off_c, 2, 80, 0
2, 176200, Note_off_c, 2, 76, 0
2, 176200, Note_off_c, 2, 73, 0
2, 176240, Note_off_c, 2, 57, 0
2, 176244, Note_off_c, 2, 56, 0
2, 176260, Note_off_c, 2, 52, 0
2, 176276, Note_off_c, 2, 61, 0
2, 176700, Note_on_c, 2, 71, 89
2, 176700, Note_on_c, 2, 74, 88
2, 176700, Note_on_c, 2, 83, 85
2, 176700, Note_on_c, 2, 57, 68
2, 176704, Note_on_c, 2, 79, 76
2, 176704, Note_on_c, 2, 62, 71
2, 176704, Note_on_c, 2, 51, 81
2, 176712, Control_c, 2, 64, 0
2, 176764, Note_off_c, 2, 57, 0
2, 176768, Note_off_c, 2, 51, 0
2, 176768, Note_off_c, 2, 62, 0
2, 176768, Note_off_c, 2, 74, 0
2, 176772, Note_off_c, 2, 71, 0
2, 176776, Note_off_c, 2, 79, 0
2, 176788, Note_off_c, 2, 83, 0
2, 177044, Note_on_c, 2, 69, 95
2, 177048, Note_on_c, 2, 72, 93
2, 177048, Note_on_c, 2, 81, 88
2, 177048, Note_on_c, 2, 57, 66
2, 177048, Note_on_c, 2, 51, 79
2, 177048, Note_on_c, 2, 62, 70
2, 177052, Note_on_c, 2, 77, 84
2, 177132, Control_c, 2, 64, 127
2, 177152, Note_off_c, 2, 51, 0
2, 177164, Note_off_c, 2, 57, 0
2, 177164, Note_off_c, 2, 72, 0
2, 177168, Note_off_c, 2, 77, 0
2, 177172, Note_off_c, 2, 62, 0
2, 177172, Note_off_c, 2, 81, 0
2, 177192, Note_off_c, 2, 69, 0
2, 177396, Note_on_c, 2, 51, 62
2, 177440, Control_c, 2, 64, 0
2, 177484, Note_on_c, 2, 71, 63
2, 177488, Note_on_c, 2, 74, 63
2, 177488, Note_on_c, 2, 79, 66
2, 177488, Note_on_c, 2, 57, 58
2, 177492, Note_on_c, 2, 67, 56
2, 177492, Note_on_c, 2, 62, 53
2, 177600, Note_on_c, 2, 79, 0
2, 177604, Note_on_c, 2, 67, 0
2, 177604, Note_on_c, 2, 74, 0
2, 177608, Note_on_c, 2, 62, 0
2, 177620, Note_on_c, 2, 57, 0
2, 177620, Note_on_c, 2, 71, 0
2, 177624, Note_on_c, 2, 51, 0
2, 177820, Note_on_c, 2, 57, 57
2, 177820, Note_on_c, 2, 51, 55
2, 177824, Note_on_c, 2, 62, 59
2, 177828, Note_on_c, 2, 65, 66
2, 177828, Note_on_c, 2, 77, 61
2, 177848, Control_c, 2, 64, 127
2, 177884, Note_off_c, 2, 51, 0
2, 177888, Note_off_c, 2, 57, 0
2, 177896, Note_off_c, 2, 62, 0
2, 177900, Note_off_c, 2, 77, 0
2, 177916, Note_off_c, 2, 65, 0
2, 178156, Control_c, 2, 64, 0
2, 178160, Note_on_c, 2, 71, 53
2, 178164, Note_on_c, 2, 68, 61
2, 178168, Note_on_c, 2, 64, 62
2, 178168, Note_on_c, 2, 76, 60
2, 178256, Note_on_c, 2, 64, 0
2, 178256, Note_on_c, 2, 68, 0
2, 178280, Note_on_c, 2, 71, 0
2, 178296, Note_on_c, 2, 76, 0
2, 178428, Note_on_c, 2, 42, 80
2, 178532, Control_c, 2, 64, 127
2, 178824, Note_on_c, 2, 52, 63
2, 178856, Note_on_c, 2, 42, 0
2, 178884, Control_c, 2, 64, 0
2, 178896, Note_on_c, 2, 57, 95
2, 178900, Note_on_c, 2, 93, 93
2, 178904, Note_on_c, 2, 81, 90
2, 178908, Note_on_c, 2, 85, 98
2, 178940, Note_on_c, 2, 52, 0
2, 178992, Control_c, 2, 64, 127
2, 179044, Note_off_c, 2, 81, 0
2, 179048, Note_off_c, 2, 93, 0
2, 179056, Note_off_c, 2, 85, 0
2, 179152, Note_off_c, 2, 57, 0
2, 179252, Note_on_c, 2, 80, 83
2, 179252, Note_on_c, 2, 85, 95
2, 179260, Note_on_c, 2, 92, 104
2, 179376, Note_on_c, 2, 85, 0
2, 179384, Note_on_c, 2, 92, 0
2, 179388, Note_on_c, 2, 80, 0
2, 179568, Note_on_c, 2, 78, 74
2, 179576, Control_c, 2, 64, 0
2, 179588, Note_on_c, 2, 85, 92
2, 179604, Note_on_c, 2, 90, 101
2, 179812, Note_on_c, 2, 58, 71
2, 179816, Note_on_c, 2, 52, 68
2, 179820, Note_on_c, 2, 48, 58
2, 179832, Note_on_c, 2, 90, 0
2, 179840, Control_c, 2, 64, 127
2, 179852, Note_off_c, 2, 85, 0
2, 179856, Note_off_c, 2, 78, 0
2, 180256, Note_on_c, 2, 75, 101
2, 180260, Note_on_c, 2, 87, 106
2, 180268, Control_c, 2, 64, 0
2, 180336, Control_c, 2, 64, 127
2, 180412, Note_off_c, 2, 75, 0
2, 180424, Note_off_c, 2, 87, 0
2, 180492, Note_on_c, 2, 88, 98
2, 180496, Note_on_c, 2, 76, 91
2, 180500, Note_on_c, 2, 58, 0
2, 180516, Note_on_c, 2, 48, 0
2, 180532, Note_on_c, 2, 52, 0
2, 180568, Note_on_c, 2, 76, 0
2, 180584, Note_on_c, 2, 88, 0
2, 180708, Note_on_c, 2, 78, 85
2, 180732, Note_on_c, 2, 90, 91
2, 180800, Note_on_c, 2, 78, 0
2, 180808, Note_on_c, 2, 90, 0
2, 180940, Note_on_c, 2, 71, 61
2, 180948, Control_c, 2, 64, 0
2, 180956, Note_on_c, 2, 83, 49
2, 181136, Control_c, 2, 64, 127
2, 181168, Note_on_c, 2, 42, 84
2, 181176, Note_on_c, 2, 83, 0
2, 181216, Note_on_c, 2, 71, 0
2, 181416, Note_on_c, 2, 52, 75
2, 181452, Note_on_c, 2, 42, 0
2, 181488, Note_on_c, 2, 52, 0
2, 181632, Note_on_c, 2, 56, 95
2, 181728, Control_c, 2, 64, 0
2, 181852, Note_on_c, 2, 59, 84
2, 181896, Control_c, 2, 64, 127
2, 182004, Note_on_c, 2, 49, 91
2, 182040, Note_on_c, 2, 49, 0
2, 182052, Note_on_c, 2, 56, 0
2, 182100, Note_on_c, 2, 59, 0
2, 182108, Note_on_c, 2, 64, 93
2, 182268, Note_on_c, 2, 64, 0
2, 182332, Note_on_c, 2, 71, 93
2, 182348, Control_c, 2, 64, 0
2, 182556, Note_on_c, 2, 64, 63
2, 182556, Note_on_c, 2, 57, 64
2, 182556, Note_on_c, 2, 68, 68
2, 182572, Note_on_c, 2, 47, 68
2, 182572, Note_on_c, 2, 51, 71
2, 182616, Note_on_c, 2, 51, 0
2, 182620, Note_on_c, 2, 47, 0
2, 182620, Note_on_c, 2, 57, 0
2, 182620, Note_on_c, 2, 64, 0
2, 182628, Note_on_c, 2, 68, 0
2, 182788, Note_on_c, 2, 64, 63
2, 182792, Note_on_c, 2, 57, 51
2, 182796, Note_on_c, 2, 68, 58
2, 182796, Note_on_c, 2, 51, 72
2, 182808, Note_on_c, 2, 47, 36
2, 182860, Note_on_c, 2, 51, 0
2, 182864, Note_on_c, 2, 47, 0
2, 182880, Note_on_c, 2, 57, 0
2, 182880, Note_on_c, 2, 64, 0
2, 182888, Note_on_c, 2, 68, 0
2, 183016, Note_on_c, 2, 64, 69
2, 183020, Note_on_c, 2, 57, 65
2, 183020, Note_on_c, 2, 51, 71
2, 183020, Note_on_c, 2, 68, 66
2, 183024, Note_on_c, 2, 47, 57
2, 183068, Control_c, 2, 64, 127
2, 183112, Note_off_c, 2, 57, 0
2, 183136, Note_off_c, 2, 64, 0
2, 183180, Note_off_c, 2, 68, 0
2, 183356, Note_on_c, 2, 63, 80
2, 183356, Note_on_c, 2, 56, 73
2, 183364, Note_on_c, 2, 60, 68
2, 183424, Note_on_c, 2, 56, 0
2, 183432, Note_on_c, 2, 51, 0
2, 183436, Note_on_c, 2, 47, 0
2, 183448, Note_on_c, 2, 63, 0
2, 183452, Note_on_c, 2, 60, 0
2, 183464, Note_on_c, 2, 71, 0
2, 183700, Note_on_c, 2, 64, 69
2, 183704, Note_on_c, 2, 61, 70
2, 183712, Control_c, 2, 64, 0
2, 183716, Note_on_c, 2, 57, 63
2, 183944, Note_on_c, 2, 42, 96
2, 183952, Note_on_c, 2, 49, 92
2, 183980, Control_c, 2, 64, 127
2, 183988, Note_off_c, 2, 57, 0
2, 183992, Note_off_c, 2, 49, 0
2, 184000, Note_off_c, 2, 42, 0
2, 184012, Note_off_c, 2, 61, 0
2, 184020, Note_off_c, 2, 64, 0
2, 184308, Note_on_c, 2, 64, 93
2, 184372, Note_on_c, 2, 64, 0
2, 184376, Control_c, 2, 64, 0
2, 184408, Note_on_c, 2, 66, 111
2, 184592, Note_on_c, 2, 66, 0
2, 184640, Note_on_c, 2, 61, 69
2, 184644, Note_on_c, 2, 57, 67
2, 184644, Note_on_c, 2, 56, 71
2, 184648, Note_on_c, 2, 68, 88
2, 184692, Note_on_c, 2, 57, 0
2, 184692, Note_on_c, 2, 61, 0
2, 184696, Note_on_c, 2, 56, 0
2, 184732, Note_on_c, 2, 68, 0
2, 184744, Note_on_c, 2, 69, 90
2, 184948, Note_on_c, 2, 69, 0
2, 184968, Note_on_c, 2, 71, 84
2, 185112, Note_on_c, 2, 68, 76
2, 185184, Note_on_c, 2, 71, 0
2, 185240, Note_on_c, 2, 68, 0
2, 185336, Note_on_c, 2, 71, 93
2, 185336, Note_on_c, 2, 64, 100
2, 185404, Note_on_c, 2, 64, 0
2, 185416, Note_on_c, 2, 71, 0
2, 185440, Note_on_c, 2, 59, 59
2, 185664, Note_on_c, 2, 59, 0
2, 185764, Note_on_c, 2, 57, 64
2, 185776, Note_on_c, 2, 64, 61
2, 185920, Note_on_c, 2, 64, 0
2, 185948, Note_on_c, 2, 57, 0
2, 186008, Note_on_c, 2, 59, 90
2, 186008, Note_on_c, 2, 64, 86
2, 186076, Note_on_c, 2, 59, 0
2, 186108, Note_on_c, 2, 55, 51
2, 186300, Note_on_c, 2, 64, 0
2, 186316, Note_on_c, 2, 55, 0
2, 186356, Note_on_c, 2, 64, 67
2, 186356, Note_on_c, 2, 56, 80
2, 186432, Note_on_c, 2, 56, 0
2, 186452, Note_on_c, 2, 52, 68
2, 186684, Note_on_c, 2, 47, 99
2, 186688, Note_on_c, 2, 46, 106
2, 186724, Note_on_c, 2, 46, 0
2, 186736, Note_on_c, 2, 52, 0
2, 186780, Note_on_c, 2, 64, 0
2, 187012, Note_on_c, 2, 56, 103
2, 187020, Note_on_c, 2, 35, 69
2, 187084, Note_on_c, 2, 35, 0
2, 187112, Note_on_c, 2, 56, 0
2, 187160, Note_on_c, 2, 59, 38
2, 187252, Note_on_c, 2, 63, 72
2, 187264, Note_on_c, 2, 59, 0
2, 187356, Note_on_c, 2, 66, 106
2, 187368, Note_on_c, 2, 63, 0
2, 187432, Note_on_c, 2, 47, 0
2, 187456, Note_on_c, 2, 66, 0
2, 187496, Note_on_c, 2, 64, 81
2, 187664, Note_on_c, 2, 64, 0
2, 187716, Note_on_c, 2, 63, 95
2, 187724, Note_on_c, 2, 61, 85
2, 187848, Note_on_c, 2, 63, 0
2, 188052, Note_on_c, 2, 61, 0
2, 188076, Note_on_c, 2, 60, 82
2, 188076, Note_on_c, 2, 54, 83
2, 188080, Note_on_c, 2, 44, 85
2, 188200, Note_on_c, 2, 63, 71
2, 188232, Note_on_c, 2, 60, 0
2, 188372, Note_on_c, 2, 63, 0
2, 188448, Note_on_c, 2, 66, 76
2, 188512, Note_on_c, 2, 66, 0
2, 188536, Note_on_c, 2, 69, 99
2, 188692, Control_c, 2, 64, 127
2, 188768, Note_off_c, 2, 69, 0
2, 188788, Note_on_c, 2, 51, 78
2, 188796, Note_on_c, 2, 54, 0
2, 188804, Note_on_c, 2, 44, 0
2, 188812, Note_on_c, 2, 51, 0
2, 188876, Note_on_c, 2, 68, 103
2, 188924, Control_c, 2, 64, 0
2, 189116, Note_on_c, 2, 37, 83
2, 189224, Note_on_c, 2, 59, 91
2, 189228, Note_on_c, 2, 52, 71
2, 189236, Note_on_c, 2, 68, 0
2, 189248, Note_on_c, 2, 37, 0
2, 189260, Control_c, 2, 64, 127
2, 189300, Note_off_c, 2, 52, 0
2, 189308, Note_off_c, 2, 59, 0
2, 190144, Note_on_c, 2, 64, 91
2, 190144, Note_on_c, 2, 61, 101
2, 190148, Note_on_c, 2, 83, 104
2, 190148, Note_on_c, 2, 56, 98
2, 190148, Note_on_c, 2, 88, 106
2, 190148, Note_on_c, 2, 76, 106
2, 190172, Control_c, 2, 64, 0
2, 190244, Control_c, 2, 64, 127
2, 190296, Note_off_c, 2, 56, 0
2, 190300, Note_off_c, 2, 76, 0
2, 190304, Note_off_c, 2, 83, 0
2, 190304, Note_off_c, 2, 61, 0
2, 190320, Note_off_c, 2, 88, 0
2, 190328, Note_off_c, 2, 64, 0
2, 190596, Control_c, 2, 64, 0
2, 190612, Note_on_c, 2, 66, 94
2, 190612, Note_on_c, 2, 90, 108
2, 190616, Note_on_c, 2, 85, 103
2, 190616, Note_on_c, 2, 78, 108
2, 190616, Note_on_c, 2, 82, 98
2, 190616, Note_on_c, 2, 63, 87
2, 190624, Note_on_c, 2, 58, 78
2, 190712, Control_c, 2, 64, 127
2, 190820, Note_off_c, 2, 90, 0
2, 190828, Note_off_c, 2, 85, 0
2, 190840, Note_off_c, 2, 58, 0
2, 190844, Note_off_c, 2, 82, 0
2, 190844, Note_off_c, 2, 66, 0
2, 190848, Note_off_c, 2, 63, 0
2, 190864, Note_off_c, 2, 78, 0
2, 191288, Control_c, 2, 64, 0
2, 191300, Note_on_c, 2, 63, 73
2, 191300, Note_on_c, 2, 85, 101
2, 191300, Note_on_c, 2, 73, 102
2, 191300, Note_on_c, 2, 80, 95
2, 191300, Note_on_c, 2, 56, 78
2, 191304, Note_on_c, 2, 52, 70
2, 191304, Note_on_c, 2, 78, 94
2, 191308, Note_on_c, 2, 58, 78
2, 191404, Control_c, 2, 64, 127
2, 191516, Note_off_c, 2, 73, 0
2, 191532, Note_off_c, 2, 52, 0
2, 191536, Note_off_c, 2, 85, 0
2, 191544, Note_off_c, 2, 63, 0
2, 191548, Note_off_c, 2, 80, 0
2, 191552, Note_off_c, 2, 78, 0
2, 191564, Note_off_c, 2, 56, 0
2, 191568, Note_off_c, 2, 58, 0
2, 191876, Note_on_c, 2, 87, 106
2, 191876, Note_on_c, 2, 75, 106
2, 191880, Note_on_c, 2, 82, 96
2, 191880, Note_on_c, 2, 80, 94
2, 191884, Note_on_c, 2, 61, 94
2, 191884, Note_on_c, 2, 51, 90
2, 191888, Note_on_c, 2, 56, 79
2, 191888, Note_on_c, 2, 58, 81
2, 191892, Control_c, 2, 64, 0
2, 192036, Control_c, 2, 64, 127
2, 192060, Note_off_c, 2, 87, 0
2, 192072, Note_off_c, 2, 82, 0
2, 192076, Note_off_c, 2, 80, 0
2, 192092, Note_off_c, 2, 75, 0
2, 192108, Note_off_c, 2, 58, 0
2, 192108, Note_off_c, 2, 51, 0
2, 192112, Note_off_c, 2, 56, 0
2, 192112, Note_off_c, 2, 61, 0
2, 192556, Note_on_c, 2, 66, 103
2, 192556, Note_on_c, 2, 70, 98
2, 192560, Note_on_c, 2, 78, 99
2, 192560, Note_on_c, 2, 73, 95
2, 192560, Note_on_c, 2, 58, 76
2, 192560, Note_on_c, 2, 51, 77
2, 192568, Note_on_c, 2, 47, 59
2, 192600, Control_c, 2, 64, 0
2, 192736, Control_c, 2, 64, 127
2, 192772, Note_off_c, 2, 47, 0
2, 192788, Note_off_c, 2, 51, 0
2, 192788, Note_off_c, 2, 66, 0
2, 192808, Note_off_c, 2, 70, 0
2, 192816, Note_off_c, 2, 73, 0
2, 192824, Note_off_c, 2, 58, 0
2, 192824, Note_off_c, 2, 78, 0
2, 193224, Note_on_c, 2, 80, 99
2, 193224, Note_on_c, 2, 68, 99
2, 193224, Note_on_c, 2, 75, 96
2, 193228, Note_on_c, 2, 73, 96
2, 193228, Note_on_c, 2, 61, 81
2, 193232, Note_on_c, 2, 51, 76
2, 193232, Note_on_c, 2, 56, 74
2, 193236, Note_on_c, 2, 58, 75
2, 193256, Control_c, 2, 64, 0
2, 193408, Control_c, 2, 64, 127
2, 193452, Note_off_c, 2, 58, 0
2, 193456, Note_off_c, 2, 61, 0
2, 193472, Note_off_c, 2, 56, 0
2, 193480, Note_off_c, 2, 51, 0
2, 193916, Note_on_c, 2, 52, 73
2, 193920, Note_on_c, 2, 37, 83
2, 193920, Control_c, 2, 64, 0
2, 194020, Note_off_c, 2, 52, 0
2, 194036, Note_off_c, 2, 37, 0
2, 194264, Note_on_c, 2, 51, 85
2, 194268, Note_on_c, 2, 36, 75
2, 194360, Note_on_c, 2, 51, 0
2, 194376, Note_on_c, 2, 36, 0
2, 194604, Note_on_c, 2, 50, 88
2, 194604, Note_on_c, 2, 35, 90
2, 194632, Note_on_c, 2, 68, 0
2, 194648, Note_on_c, 2, 73, 0
2, 194652, Note_on_c, 2, 75, 0
2, 194684, Note_on_c, 2, 80, 0
2, 194684, Control_c, 2, 64, 127
2, 194756, Note_off_c, 2, 35, 0
2, 194760, Note_off_c, 2, 50, 0
2, 195060, Note_on_c, 2, 81, 106
2, 195212, Note_on_c, 2, 81, 0
2, 195312, Note_on_c, 2, 57, 72
2, 195376, Control_c, 2, 64, 0
2, 195384, Note_on_c, 2, 61, 75
2, 195388, Note_on_c, 2, 74, 64
2, 195396, Note_on_c, 2, 78, 87
2, 195400, Note_on_c, 2, 66, 86
2, 195400, Note_on_c, 2, 62, 75
2, 195404, Note_on_c, 2, 81, 81
2, 195420, Note_on_c, 2, 86, 99
2, 195516, Control_c, 2, 64, 127
2, 195660, Note_off_c, 2, 62, 0
2, 195692, Note_off_c, 2, 81, 0
2, 195696, Note_off_c, 2, 57, 0
2, 195700, Note_off_c, 2, 86, 0
2, 195704, Note_off_c, 2, 61, 0
2, 195708, Note_off_c, 2, 66, 0
2, 195724, Note_off_c, 2, 78, 0
2, 195748, Note_off_c, 2, 74, 0
2, 196092, Control_c, 2, 64, 0
2, 196112, Note_on_c, 2, 85, 98
2, 196112, Note_on_c, 2, 80, 91
2, 196116, Note_on_c, 2, 63, 90
2, 196116, Note_on_c, 2, 57, 82
2, 196120, Note_on_c, 2, 77, 84
2, 196120, Note_on_c, 2, 73, 99
2, 196120, Note_on_c, 2, 67, 63
2, 196124, Note_on_c, 2, 69, 63
2, 196224, Control_c, 2, 64, 127
2, 196308, Note_off_c, 2, 69, 0
2, 196328, Note_off_c, 2, 67, 0
2, 196352, Note_off_c, 2, 63, 0
2, 196356, Note_off_c, 2, 57, 0
2, 196376, Note_off_c, 2, 85, 0
2, 196400, Note_off_c, 2, 77, 0
2, 196404, Note_off_c, 2, 80, 0
2, 196420, Note_off_c, 2, 73, 0
2, 196684, Note_on_c, 2, 66, 75
2, 196692, Note_on_c, 2, 61, 73
2, 196692, Note_on_c, 2, 56, 70
2, 196692, Note_on_c, 2, 83, 91
2, 196692, Note_on_c, 2, 78, 96
2, 196692, Note_on_c, 2, 71, 91
2, 196692, Note_on_c, 2, 74, 99
2, 196712, Control_c, 2, 64, 0
2, 196832, Note_off_c, 2, 78, 0
2, 196836, Note_off_c, 2, 71, 0
2, 196848, Note_off_c, 2, 74, 0
2, 196848, Control_c, 2, 64, 127
2, 196884, Note_off_c, 2, 83, 0
2, 196900, Note_off_c, 2, 66, 0
2, 197028, Note_off_c, 2, 56, 0
2, 197040, Note_off_c, 2, 61, 0
2, 197056, Note_on_c, 2, 68, 101
2, 197056, Note_on_c, 2, 80, 101
2, 197116, Note_on_c, 2, 80, 0
2, 197116, Note_on_c, 2, 68, 0
2, 197168, Note_on_c, 2, 69, 80
2, 197168, Note_on_c, 2, 81, 81
2, 197252, Note_on_c, 2, 69, 0
2, 197284, Note_on_c, 2, 81, 0
2, 197404, Note_on_c, 2, 83, 75
2, 197408, Note_on_c, 2, 71, 70
2, 197448, Note_on_c, 2, 71, 0
2, 197448, Note_on_c, 2, 83, 0
2, 197524, Note_on_c, 2, 73, 98
2, 197524, Note_on_c, 2, 85, 104
2, 197528, Control_c, 2, 64, 0
2, 197744, Note_on_c, 2, 56, 92
2, 197744, Note_on_c, 2, 45, 80
2, 197784, Control_c, 2, 64, 127
2, 197948, Note_off_c, 2, 85, 0
2, 197988, Note_off_c, 2, 73, 0
2, 198196, Note_on_c, 2, 52, 88
2, 198228, Note_on_c, 2, 45, 0
2, 198228, Note_on_c, 2, 56, 0
2, 198260, Note_on_c, 2, 52, 0
2, 198436, Note_on_c, 2, 63, 89
2, 198520, Note_on_c, 2, 63, 0
2, 198532, Note_on_c, 2, 68, 79
2, 198648, Note_on_c, 2, 68, 0
2, 198656, Control_c, 2, 64, 0
2, 198776, Note_on_c, 2, 63, 88
2, 198776, Note_on_c, 2, 57, 80
2, 198780, Note_on_c, 2, 68, 86
2, 198780, Note_on_c, 2, 72, 76
2, 198884, Note_on_c, 2, 72, 0
2, 198884, Note_on_c, 2, 57, 0
2, 198888, Note_on_c, 2, 63, 0
2, 198900, Note_on_c, 2, 68, 0
2, 199116, Note_on_c, 2, 65, 82
2, 199116, Note_on_c, 2, 69, 70
2, 199120, Note_on_c, 2, 60, 73
2, 199132, Note_on_c, 2, 54, 80
2, 199204, Note_on_c, 2, 69, 0
2, 199208, Note_on_c, 2, 54, 0
2, 199208, Note_on_c, 2, 65, 0
2, 199240, Note_on_c, 2, 60, 0
2, 199460, Note_on_c, 2, 63, 75
2, 199464, Note_on_c, 2, 66, 84
2, 199464, Note_on_c, 2, 57, 70
2, 199468, Note_on_c, 2, 51, 77
2, 199540, Note_on_c, 2, 63, 0
2, 199544, Note_on_c, 2, 51, 0
2, 199544, Note_on_c, 2, 66, 0
2, 199572, Note_on_c, 2, 57, 0
2, 199800, Note_on_c, 2, 54, 79
2, 199804, Note_on_c, 2, 59, 67
2, 199808, Note_on_c, 2, 48, 68
2, 199808, Note_on_c, 2, 63, 81
2, 199888, Note_on_c, 2, 54, 0
2, 199892, Note_on_c, 2, 48, 0
2, 199904, Note_on_c, 2, 63, 0
2, 199904, Note_on_c, 2, 59, 0
2, 200160, Note_on_c, 2, 47, 88
2, 200276, Note_on_c, 2, 40, 69
2, 200616, Note_on_c, 2, 83, 65
2, 200624, Note_on_c, 2, 71, 93
2, 200632, Note_on_c, 2, 47, 0
2, 200828, Note_on_c, 2, 71, 0
2, 200852, Note_on_c, 2, 83, 0
2, 200868, Note_on_c, 2, 47, 65
2, 200904, Note_on_c, 2, 40, 0
2, 200956, Note_on_c, 2, 56, 81
2, 200972, Note_on_c, 2, 83, 76
2, 200972, Note_on_c, 2, 71, 80
2, 201020, Control_c, 2, 64, 127
2, 201088, Note_off_c, 2, 83, 0
2, 201144, Note_off_c, 2, 47, 0
2, 201148, Note_off_c, 2, 71, 0
2, 201232, Note_off_c, 2, 56, 0
2, 201308, Note_on_c, 2, 69, 65
2, 201316, Note_on_c, 2, 81, 70
2, 201404, Note_on_c, 2, 81, 0
2, 201416, Note_on_c, 2, 69, 0
2, 201548, Note_on_c, 2, 45, 54
2, 201560, Control_c, 2, 64, 0
2, 201620, Note_on_c, 2, 68, 56
2, 201640, Note_on_c, 2, 52, 49
2, 201648, Note_on_c, 2, 56, 70
2, 201660, Note_on_c, 2, 73, 64
2, 201668, Note_on_c, 2, 76, 75
2, 201684, Note_on_c, 2, 80, 87
2, 201704, Control_c, 2, 64, 127
2, 201740, Note_off_c, 2, 45, 0
2, 201744, Note_off_c, 2, 52, 0
2, 201768, Note_off_c, 2, 73, 0
2, 201780, Note_off_c, 2, 56, 0
2, 201792, Note_off_c, 2, 76, 0
2, 201804, Note_off_c, 2, 80, 0
2, 201824, Note_off_c, 2, 68, 0
2, 202332, Note_on_c, 2, 61, 71
2, 202336, Note_on_c, 2, 76, 99
2, 202336, Note_on_c, 2, 56, 65
2, 202336, Note_on_c, 2, 57, 74
2, 202336, Note_on_c, 2, 68, 110
2, 202340, Note_on_c, 2, 71, 100
2, 202340, Note_on_c, 2, 64, 108
2, 202448, Note_on_c, 2, 64, 0
2, 202448, Note_on_c, 2, 71, 0
2, 202456, Note_on_c, 2, 68, 0
2, 202460, Note_on_c, 2, 76, 0
2, 202504, Note_on_c, 2, 61, 0
2, 202524, Note_on_c, 2, 57, 0
2, 202536, Note_on_c, 2, 56, 0
2, 202588, Note_on_c, 2, 78, 103
2, 202588, Note_on_c, 2, 66, 103
2, 202652, Note_on_c, 2, 66, 0
2, 202676, Note_on_c, 2, 78, 0
2, 202824, Note_on_c, 2, 68, 97
2, 202824, Note_on_c, 2, 80, 106
2, 202920, Note_on_c, 2, 68, 0
2, 202944, Note_on_c, 2, 80, 0
2, 202988, Control_c, 2, 64, 0
2, 203044, Note_on_c, 2, 54, 95
2, 203048, Note_on_c, 2, 44, 97
2, 203112, Control_c, 2, 64, 127
2, 203168, Note_off_c, 2, 44, 0
2, 203184, Note_off_c, 2, 54, 0
2, 203268, Note_on_c, 2, 83, 93
2, 203272, Note_on_c, 2, 78, 95
2, 203276, Note_on_c, 2, 71, 91
2, 203276, Note_on_c, 2, 74, 90
2, 203428, Control_c, 2, 64, 0
2, 203516, Note_on_c, 2, 62, 69
2, 203516, Note_on_c, 2, 59, 73
2, 203524, Note_on_c, 2, 54, 73
2, 203524, Note_on_c, 2, 56, 79
2, 203580, Note_on_c, 2, 74, 0
2, 203580, Note_on_c, 2, 71, 0
2, 203608, Note_on_c, 2, 83, 0
2, 203608, Control_c, 2, 64, 127
2, 203620, Note_off_c, 2, 78, 0
2, 203664, Note_off_c, 2, 62, 0
2, 203668, Note_off_c, 2, 59, 0
2, 203692, Note_off_c, 2, 54, 0
2, 203700, Note_off_c, 2, 56, 0
2, 203728, Note_on_c, 2, 78, 103
2, 203732, Note_on_c, 2, 83, 94
2, 203732, Note_on_c, 2, 71, 92
2, 203732, Note_on_c, 2, 74, 95
2, 203952, Control_c, 2, 64, 0
2, 203960, Note_on_c, 2, 54, 90
2, 203968, Note_on_c, 2, 44, 92
2, 203976, Note_on_c, 2, 74, 0
2, 203976, Note_on_c, 2, 71, 0
2, 203988, Note_on_c, 2, 83, 0
2, 204000, Note_on_c, 2, 78, 0
2, 204060, Control_c, 2, 64, 127
2, 204196, Note_on_c, 2, 73, 104
2, 204200, Note_on_c, 2, 85, 107
2, 204336, Note_on_c, 2, 85, 0
2, 204356, Note_on_c, 2, 73, 0
2, 204404, Note_on_c, 2, 51, 99
2, 204424, Note_on_c, 2, 54, 0
2, 204440, Note_on_c, 2, 44, 0
2, 204460, Note_on_c, 2, 51, 0
2, 204628, Note_on_c, 2, 81, 84
2, 204628, Note_on_c, 2, 69, 102
2, 204660, Control_c, 2, 64, 0
2, 204820, Control_c, 2, 64, 127
2, 204856, Note_off_c, 2, 81, 0
2, 204856, Note_on_c, 2, 37, 86
2, 204896, Note_on_c, 2, 69, 0
2, 205028, Note_on_c, 2, 37, 0
2, 205096, Note_on_c, 2, 80, 98
2, 205096, Note_on_c, 2, 68, 97
2, 205100, Note_on_c, 2, 71, 87
2, 205100, Note_on_c, 2, 75, 90
2, 205112, Note_on_c, 2, 53, 64
2, 205332, Note_on_c, 2, 80, 0
2, 205376, Note_on_c, 2, 75, 0
2, 205380, Note_on_c, 2, 53, 0
2, 205384, Note_on_c, 2, 71, 0
2, 205420, Note_on_c, 2, 68, 0
2, 205448, Note_on_c, 2, 49, 100
2, 205496, Note_on_c, 2, 49, 0
2, 205696, Control_c, 2, 64, 0
2, 205700, Note_on_c, 2, 42, 103
2, 206040, Note_on_c, 2, 78, 106
2, 206040, Note_on_c, 2, 66, 112
2, 206044, Note_on_c, 2, 73, 106
2, 206048, Note_on_c, 2, 52, 85
2, 206100, Note_on_c, 2, 42, 0
2, 206120, Note_on_c, 2, 52, 0
2, 206124, Control_c, 2, 64, 127
2, 206160, Note_off_c, 2, 66, 0
2, 206176, Note_off_c, 2, 73, 0
2, 206188, Note_off_c, 2, 78, 0
2, 206436, Note_on_c, 2, 56, 51
2, 206452, Control_c, 2, 64, 0
2, 206480, Note_on_c, 2, 57, 64
2, 206480, Note_on_c, 2, 61, 68
2, 206480, Note_on_c, 2, 68, 78
2, 206484, Note_on_c, 2, 80, 77
2, 206484, Note_on_c, 2, 73, 78
2, 206492, Note_on_c, 2, 75, 67
2, 206568, Note_on_c, 2, 61, 0
2, 206572, Note_on_c, 2, 57, 0
2, 206576, Note_on_c, 2, 56, 0
2, 206596, Note_on_c, 2, 73, 0
2, 206596, Note_on_c, 2, 68, 0
2, 206600, Note_on_c, 2, 75, 0
2, 206604, Note_on_c, 2, 80, 0
2, 206812, Note_on_c, 2, 81, 66
2, 206816, Note_on_c, 2, 61, 64
2, 206816, Note_on_c, 2, 56, 60
2, 206816, Note_on_c, 2, 57, 66
2, 206820, Note_on_c, 2, 69, 65
2, 206860, Control_c, 2, 64, 127
2, 206880, Note_off_c, 2, 61, 0
2, 206884, Note_off_c, 2, 57, 0
2, 206896, Note_off_c, 2, 56, 0
2, 206912, Note_off_c, 2, 69, 0
2, 206928, Note_off_c, 2, 81, 0
2, 207176, Note_on_c, 2, 71, 88
2, 207176, Control_c, 2, 64, 0
2, 207216, Note_on_c, 2, 83, 13
2, 207736, Note_on_c, 2, 57, 81
2, 207740, Note_on_c, 2, 47, 85
2, 207824, Note_on_c, 2, 83, 0
2, 207832, Control_c, 2, 64, 127
2, 207876, Note_off_c, 2, 71, 0
2, 208180, Note_on_c, 2, 51, 92
2, 208188, Note_on_c, 2, 57, 0
2, 208196, Note_on_c, 2, 47, 0
2, 208204, Note_on_c, 2, 51, 0
2, 208500, Control_c, 2, 64, 0
2, 208532, Note_on_c, 2, 43, 91
2, 208584, Note_on_c, 2, 43, 0
2, 208604, Control_c, 2, 64, 127
2, 208764, Control_c, 2, 64, 0
2, 208768, Note_on_c, 2, 73, 110
2, 208772, Note_on_c, 2, 67, 103
2, 208772, Note_on_c, 2, 79, 99
2, 208776, Note_on_c, 2, 62, 79
2, 208776, Note_on_c, 2, 58, 97
2, 208776, Note_on_c, 2, 53, 84
2, 208796, Note_on_c, 2, 74, 63
2, 208840, Note_on_c, 2, 73, 0
2, 208932, Control_c, 2, 64, 127
2, 208992, Note_off_c, 2, 67, 0
2, 209000, Note_off_c, 2, 74, 0
2, 209016, Note_off_c, 2, 79, 0
2, 209036, Note_off_c, 2, 53, 0
2, 209096, Note_off_c, 2, 62, 0
2, 209136, Note_off_c, 2, 58, 0
2, 209160, Note_on_c, 2, 53, 58
2, 209224, Control_c, 2, 64, 0
2, 209244, Note_on_c, 2, 76, 70
2, 209244, Note_on_c, 2, 69, 61
2, 209244, Note_on_c, 2, 81, 64
2, 209252, Note_on_c, 2, 58, 67
2, 209252, Note_on_c, 2, 62, 42
2, 209364, Note_on_c, 2, 69, 0
2, 209368, Note_on_c, 2, 76, 0
2, 209384, Note_on_c, 2, 58, 0
2, 209384, Note_on_c, 2, 81, 0
2, 209396, Note_on_c, 2, 62, 0
2, 209404, Note_on_c, 2, 53, 0
2, 209572, Note_on_c, 2, 53, 50
2, 209576, Note_on_c, 2, 62, 49
2, 209576, Note_on_c, 2, 58, 68
2, 209580, Note_on_c, 2, 70, 79
2, 209580, Note_on_c, 2, 82, 84
2, 209624, Control_c, 2, 64, 127
2, 209660, Note_off_c, 2, 53, 0
2, 209668, Note_off_c, 2, 58, 0
2, 209676, Note_off_c, 2, 62, 0
2, 209680, Note_off_c, 2, 70, 0
2, 209688, Note_off_c, 2, 82, 0
2, 209880, Control_c, 2, 64, 0
2, 209920, Note_on_c, 2, 78, 76
2, 209924, Note_on_c, 2, 72, 71
2, 209924, Note_on_c, 2, 84, 71
2, 209928, Note_on_c, 2, 62, 54
2, 209928, Note_on_c, 2, 58, 68
2, 209932, Note_on_c, 2, 52, 54
2, 209956, Note_on_c, 2, 79, 51
2, 209984, Note_on_c, 2, 78, 0
2, 210016, Control_c, 2, 64, 127
2, 210024, Note_off_c, 2, 72, 0
2, 210056, Note_off_c, 2, 58, 0
2, 210064, Note_off_c, 2, 62, 0
2, 210068, Note_off_c, 2, 79, 0
2, 210072, Note_off_c, 2, 52, 0
2, 210080, Note_off_c, 2, 84, 0
2, 210184, Control_c, 2, 64, 0
2, 210272, Note_on_c, 2, 62, 58
2, 210272, Note_on_c, 2, 58, 76
2, 210272, Note_on_c, 2, 52, 68
2, 210272, Note_on_c, 2, 81, 80
2, 210272, Note_on_c, 2, 86, 84
2, 210280, Note_on_c, 2, 74, 76
2, 210324, Control_c, 2, 64, 127
2, 210348, Note_off_c, 2, 74, 0
2, 210360, Note_off_c, 2, 58, 0
2, 210364, Note_off_c, 2, 81, 0
2, 210364, Note_off_c, 2, 62, 0
2, 210368, Note_off_c, 2, 52, 0
2, 210372, Note_off_c, 2, 86, 0
2, 210516, Note_on_c, 2, 62, 73
2, 210516, Note_on_c, 2, 58, 85
2, 210520, Control_c, 2, 64, 0
2, 210520, Note_on_c, 2, 52, 76
2, 210520, Note_on_c, 2, 79, 83
2, 210520, Note_on_c, 2, 84, 84
2, 210524, Note_on_c, 2, 72, 81
2, 210628, Control_c, 2, 64, 127
2, 210652, Note_off_c, 2, 84, 0
2, 210660, Note_off_c, 2, 79, 0
2, 210700, Note_off_c, 2, 72, 0
2, 210816, Note_off_c, 2, 62, 0
2, 210828, Note_off_c, 2, 52, 0
2, 210848, Note_on_c, 2, 55, 88
2, 210868, Note_on_c, 2, 58, 0
2, 210892, Note_on_c, 2, 55, 0
2, 211208, Note_on_c, 2, 63, 105
2, 211208, Note_on_c, 2, 70, 95
2, 211208, Note_on_c, 2, 75, 99
2, 211208, Note_on_c, 2, 68, 93
2, 211240, Control_c, 2, 64, 0
2, 211444, Control_c, 2, 64, 127
2, 211512, Note_off_c, 2, 75, 0
2, 211524, Note_off_c, 2, 63, 0
2, 211544, Note_off_c, 2, 70, 0
2, 211548, Note_off_c, 2, 68, 0
2, 211568, Note_on_c, 2, 47, 77
2, 211572, Note_on_c, 2, 57, 70
2, 211572, Note_on_c, 2, 51, 88
2, 211628, Control_c, 2, 64, 0
2, 211632, Note_off_c, 2, 51, 0
2, 211640, Note_off_c, 2, 57, 0
2, 211652, Note_off_c, 2, 47, 0
2, 211672, Note_on_c, 2, 64, 87
2, 211676, Note_on_c, 2, 76, 81
2, 211820, Note_on_c, 2, 64, 0
2, 211832, Note_on_c, 2, 76, 0
2, 212024, Note_on_c, 2, 78, 76
2, 212028, Note_on_c, 2, 66, 71
2, 212176, Note_on_c, 2, 66, 0
2, 212184, Note_on_c, 2, 78, 0
2, 212356, Note_on_c, 2, 68, 80
2, 212360, Note_on_c, 2, 80, 88
2, 212520, Note_on_c, 2, 80, 0
2, 212520, Note_on_c, 2, 68, 0
2, 212592, Note_on_c, 2, 46, 84
2, 212612, Note_on_c, 2, 47, 45
2, 212632, Note_on_c, 2, 46, 0
2, 212700, Note_on_c, 2, 80, 83
2, 212704, Note_on_c, 2, 69, 79
2, 212716, Note_on_c, 2, 81, 74
2, 212756, Note_on_c, 2, 80, 0
2, 212872, Note_on_c, 2, 69, 0
2, 212888, Note_on_c, 2, 81, 0
2, 213056, Note_on_c, 2, 68, 91
2, 213060, Note_on_c, 2, 80, 96
2, 213072, Control_c, 2, 64, 127
2, 213128, Note_off_c, 2, 80, 0
2, 213136, Note_off_c, 2, 68, 0
2, 213348, Control_c, 2, 64, 0
2, 213384, Note_on_c, 2, 64, 81
2, 213596, Note_on_c, 2, 64, 0
2, 213632, Note_on_c, 2, 35, 68
2, 213680, Note_on_c, 2, 35, 0
2, 213732, Note_on_c, 2, 75, 101
2, 213768, Note_on_c, 2, 47, 0
2, 213772, Control_c, 2, 64, 127
2, 213864, Note_off_c, 2, 75, 0
2, 213964, Note_on_c, 2, 68, 92
2, 213968, Control_c, 2, 64, 0
2, 213968, Note_on_c, 2, 76, 82
2, 214052, Note_on_c, 2, 68, 0
2, 214100, Note_on_c, 2, 76, 0
2, 214300, Note_on_c, 2, 45, 96
2, 214304, Note_on_c, 2, 75, 107
2, 214352, Note_on_c, 2, 76, 68
2, 214380, Note_on_c, 2, 75, 0
2, 214696, Note_on_c, 2, 76, 0
2, 214744, Note_on_c, 2, 73, 92
2, 214920, Note_on_c, 2, 73, 0
2, 214976, Note_on_c, 2, 69, 74
2, 215048, Note_on_c, 2, 69, 0
2, 215060, Note_on_c, 2, 45, 0
2, 215076, Note_on_c, 2, 64, 65
2, 215120, Control_c, 2, 64, 127
2, 215204, Note_off_c, 2, 64, 0
2, 215348, Note_on_c, 2, 44, 68
2, 215396, Control_c, 2, 64, 0
2, 215416, Note_on_c, 2, 54, 68
2, 215424, Note_on_c, 2, 67, 60
2, 215440, Note_on_c, 2, 68, 71
2, 215484, Note_on_c, 2, 67, 0
2, 215616, Note_on_c, 2, 68, 0
2, 215692, Note_on_c, 2, 71, 63
2, 215764, Note_on_c, 2, 71, 0
2, 215780, Note_on_c, 2, 73, 97
2, 215996, Note_on_c, 2, 73, 0
2, 216024, Note_on_c, 2, 71, 99
2, 216060, Control_c, 2, 64, 127
2, 216108, Note_off_c, 2, 71, 0
2, 216372, Note_on_c, 2, 51, 104
2, 216388, Note_on_c, 2, 54, 0
2, 216400, Note_on_c, 2, 44, 0
2, 216416, Note_on_c, 2, 51, 0
2, 216784, Control_c, 2, 64, 0
2, 216800, Note_on_c, 2, 43, 76
2, 216800, Note_on_c, 2, 53, 84
2, 216984, Note_on_c, 2, 77, 91
2, 217040, Note_on_c, 2, 79, 69
2, 217052, Note_on_c, 2, 77, 0
2, 217092, Note_on_c, 2, 77, 66
2, 217128, Note_on_c, 2, 79, 0
2, 217160, Note_on_c, 2, 74, 92
2, 217176, Note_on_c, 2, 77, 0
2, 217228, Note_on_c, 2, 74, 0
2, 217244, Note_on_c, 2, 75, 81
2, 217308, Note_on_c, 2, 74, 83
2, 217356, Note_on_c, 2, 75, 0
2, 217368, Note_on_c, 2, 73, 87
2, 217404, Note_on_c, 2, 74, 0
2, 217420, Note_on_c, 2, 72, 86
2, 217440, Note_on_c, 2, 73, 0
2, 217464, Note_on_c, 2, 71, 46
2, 217472, Note_on_c, 2, 72, 0
2, 217572, Note_on_c, 2, 70, 77
2, 217584, Note_on_c, 2, 71, 0
2, 217624, Note_on_c, 2, 69, 67
2, 217636, Note_on_c, 2, 70, 0
2, 217688, Note_on_c, 2, 69, 0
2, 217708, Note_on_c, 2, 68, 77
2, 217784, Note_on_c, 2, 67, 77
2, 217796, Note_on_c, 2, 68, 0
2, 217844, Note_on_c, 2, 67, 0
2, 217860, Note_on_c, 2, 66, 88
2, 217908, Note_on_c, 2, 53, 0
2, 217908, Note_on_c, 2, 43, 0
2, 217940, Note_on_c, 2, 66, 0
2, 217944, Note_on_c, 2, 65, 52
2, 217976, Note_on_c, 2, 64, 40
2, 217992, Note_on_c, 2, 65, 0
2, 218092, Note_on_c, 2, 63, 87
2, 218120, Note_on_c, 2, 64, 0
2, 218144, Note_on_c, 2, 62, 80
2, 218168, Note_on_c, 2, 63, 0
2, 218192, Note_on_c, 2, 42, 86
2, 218196, Note_on_c, 2, 52, 70
2, 218220, Note_on_c, 2, 61, 108
2, 218264, Note_on_c, 2, 62, 0
2, 218512, Note_on_c, 2, 61, 0
2, 218532, Note_on_c, 2, 49, 103
2, 218532, Note_on_c, 2, 64, 90
2, 218572, Note_on_c, 2, 52, 0
2, 218580, Note_on_c, 2, 42, 0
2, 218592, Note_on_c, 2, 49, 0
2, 218592, Control_c, 2, 64, 127
2, 218652, Note_off_c, 2, 64, 0
2, 218800, Note_on_c, 2, 41, 76
2, 218832, Control_c, 2, 64, 0
2, 218872, Note_on_c, 2, 67, 85
2, 218872, Note_on_c, 2, 51, 92
2, 218872, Note_on_c, 2, 57, 88
2, 218876, Note_on_c, 2, 62, 85
2, 218992, Note_on_c, 2, 41, 0
2, 219064, Note_on_c, 2, 51, 0
2, 219120, Note_on_c, 2, 62, 0
2, 219120, Note_on_c, 2, 57, 0
2, 219124, Note_on_c, 2, 67, 0
2, 219132, Note_on_c, 2, 41, 73
2, 219212, Note_on_c, 2, 51, 90
2, 219220, Note_on_c, 2, 67, 82
2, 219220, Note_on_c, 2, 62, 93
2, 219220, Note_on_c, 2, 57, 93
2, 219248, Control_c, 2, 64, 127
2, 219288, Note_off_c, 2, 67, 0
2, 219292, Note_off_c, 2, 51, 0
2, 219292, Note_off_c, 2, 41, 0
2, 219296, Note_off_c, 2, 62, 0
2, 219304, Note_off_c, 2, 57, 0
2, 219436, Control_c, 2, 64, 0
2, 219460, Note_on_c, 2, 47, 90
2, 219460, Note_on_c, 2, 56, 108
2, 219460, Note_on_c, 2, 40, 85
2, 219464, Note_on_c, 2, 61, 110
2, 219468, Note_on_c, 2, 66, 110
2, 219568, Control_c, 2, 64, 127
2, 219580, Note_off_c, 2, 56, 0
2, 219588, Note_off_c, 2, 61, 0
2, 219608, Note_off_c, 2, 66, 0
2, 219636, Note_off_c, 2, 40, 0
2, 219648, Note_off_c, 2, 47, 0
2, 219864, Note_on_c, 2, 41, 74
2, 219912, Control_c, 2, 64, 0
2, 219928, Note_on_c, 2, 51, 90
2, 219928, Note_on_c, 2, 79, 81
2, 219932, Note_on_c, 2, 69, 81
2, 219932, Note_on_c, 2, 74, 88
2, 220012, Control_c, 2, 64, 127
2, 220028, Note_off_c, 2, 69, 0
2, 220028, Note_off_c, 2, 41, 0
2, 220032, Note_off_c, 2, 51, 0
2, 220036, Note_off_c, 2, 79, 0
2, 220044, Note_off_c, 2, 74, 0
2, 220180, Note_on_c, 2, 47, 81
2, 220180, Note_on_c, 2, 68, 103
2, 220180, Note_on_c, 2, 40, 84
2, 220184, Note_on_c, 2, 73, 108
2, 220184, Note_on_c, 2, 78, 106
2, 220188, Control_c, 2, 64, 0
2, 220272, Note_off_c, 2, 68, 0
2, 220276, Note_off_c, 2, 73, 0
2, 220284, Control_c, 2, 64, 127
2, 220292, Note_off_c, 2, 40, 0
2, 220296, Note_off_c, 2, 78, 0
2, 220300, Note_off_c, 2, 47, 0
2, 220544, Note_on_c, 2, 41, 73
2, 220596, Control_c, 2, 64, 0
2, 220616, Note_on_c, 2, 51, 90
2, 220628, Note_on_c, 2, 91, 91
2, 220628, Note_on_c, 2, 86, 94
2, 220632, Note_on_c, 2, 81, 84
2, 220700, Control_c, 2, 64, 127
2, 220708, Note_off_c, 2, 41, 0
2, 220716, Note_off_c, 2, 51, 0
2, 220732, Note_off_c, 2, 81, 0
2, 220736, Note_off_c, 2, 86, 0
2, 220736, Note_off_c, 2, 91, 0
2, 220880, Note_on_c, 2, 40, 75
2, 220880, Control_c, 2, 64, 0
2, 220880, Note_on_c, 2, 80, 101
2, 220880, Note_on_c, 2, 85, 106
2, 220884, Note_on_c, 2, 90, 106
2, 220884, Note_on_c, 2, 47, 84
2, 220952, Control_c, 2, 64, 127
2, 220968, Note_off_c, 2, 80, 0
2, 220976, Note_off_c, 2, 85, 0
2, 221008, Note_off_c, 2, 90, 0
2, 221544, Note_on_c, 2, 95, 60
2, 221560, Note_on_c, 2, 99, 87
2, 221596, Note_on_c, 2, 102, 88
2, 221620, Note_on_c, 2, 104, 90
2, 221644, Note_on_c, 2, 47, 0
2, 221652, Note_on_c, 2, 107, 99
2, 221664, Note_on_c, 2, 95, 0
2, 221676, Note_on_c, 2, 99, 0
2, 221676, Note_on_c, 2, 40, 0
2, 221684, Note_on_c, 2, 102, 0
2, 221696, Note_on_c, 2, 104, 0
2, 221708, Note_on_c, 2, 107, 0
2, 222116, Note_on_c, 2, 32, 87
2, 222144, Note_on_c, 2, 30, 49
2, 222184, Note_on_c, 2, 30, 0
2, 222184, Note_on_c, 2, 40, 68
2, 222192, Note_on_c, 2, 35, 67
2, 222236, Control_c, 2, 64, 0
2, 222284, Note_off_c, 2, 40, 0
2, 222308, Note_off_c, 2, 35, 0
2, 222316, Note_off_c, 2, 32, 0
2, 222316, Note_on_c, 2, 28, 66
2, 222528, Note_on_c, 2, 28, 0
2, 222720, End_track
0, 0, End_of_file
