0, 0, Header, 1, 2, 384
1, 0, Start_track
1, 0, Text_t, "{GNMIDI}Generated by  GNMIDI demo (http://www.gnmidi.com)\012"
1, 0, Time_signature, 4, 2, 24, 8
1, 0, Tempo, 500000
1, 170736, End_track
2, 0, Start_track
2, 0, Text_t, "{GNMIDI}Generated by  GNMIDI demo (http://www.gnmidi.com)\012"
2, 0, Title_t, "Acoustic Grand Piano"
2, 1152, Program_c, 2, 0
2, 1152, Control_c, 2, 7, 127
2, 1152, Control_c, 2, 10, 64
2, 1564, Note_on_c, 2, 77, 118
2, 1660, Note_on_c, 2, 77, 0
2, 1660, Note_on_c, 2, 79, 86
2, 1736, Note_on_c, 2, 77, 71
2, 1740, Note_on_c, 2, 79, 0
2, 1784, Note_on_c, 2, 79, 73
2, 1808, Note_on_c, 2, 77, 0
2, 1860, Note_on_c, 2, 79, 0
2, 1860, Note_on_c, 2, 77, 67
2, 1916, Note_on_c, 2, 79, 73
2, 1936, Note_on_c, 2, 77, 0
2, 1976, Note_on_c, 2, 77, 67
2, 1984, Note_on_c, 2, 79, 0
2, 2040, Note_on_c, 2, 79, 69
2, 2060, Note_on_c, 2, 77, 0
2, 2120, Note_on_c, 2, 79, 0
2, 2120, Note_on_c, 2, 77, 59
2, 2164, Note_on_c, 2, 79, 64
2, 2188, Note_on_c, 2, 77, 0
2, 2224, Note_on_c, 2, 77, 88
2, 2288, Note_on_c, 2, 79, 0
2, 2296, Note_on_c, 2, 77, 0
2, 2316, Note_on_c, 2, 55, 99
2, 2316, Note_on_c, 2, 53, 101
2, 3072, Note_on_c, 2, 55, 0
2, 3088, Note_on_c, 2, 65, 113
2, 3092, Note_on_c, 2, 53, 0
2, 3184, Note_on_c, 2, 66, 94
2, 3196, Note_on_c, 2, 65, 0
2, 3248, Note_on_c, 2, 66, 0
2, 3264, Note_on_c, 2, 65, 60
2, 3324, Note_on_c, 2, 66, 81
2, 3332, Note_on_c, 2, 65, 0
2, 3376, Note_on_c, 2, 66, 0
2, 3388, Note_on_c, 2, 65, 65
2, 3452, Note_on_c, 2, 66, 82
2, 3460, Note_on_c, 2, 65, 0
2, 3492, Note_on_c, 2, 66, 0
2, 3520, Note_on_c, 2, 65, 60
2, 3580, Note_on_c, 2, 66, 82
2, 3584, Note_on_c, 2, 65, 0
2, 3612, Note_on_c, 2, 66, 0
2, 3644, Note_on_c, 2, 65, 62
2, 3688, Note_on_c, 2, 66, 82
2, 3704, Note_on_c, 2, 65, 0
2, 3740, Note_on_c, 2, 65, 91
2, 3760, Note_on_c, 2, 66, 0
2, 3812, Note_on_c, 2, 65, 0
2, 3836, Note_on_c, 2, 41, 97
2, 3836, Note_on_c, 2, 42, 98
2, 4120, Note_on_c, 2, 41, 0
2, 4124, Note_on_c, 2, 42, 0
2, 4232, Note_on_c, 2, 59, 108
2, 4400, Note_on_c, 2, 59, 0
2, 4864, Note_on_c, 2, 59, 115
2, 4864, Note_on_c, 2, 65, 111
2, 4872, Note_on_c, 2, 51, 94
2, 4992, Note_on_c, 2, 51, 0
2, 5008, Note_on_c, 2, 59, 0
2, 5032, Note_on_c, 2, 65, 0
2, 5132, Note_on_c, 2, 41, 75
2, 5144, Note_on_c, 2, 57, 77
2, 5144, Note_on_c, 2, 63, 93
2, 5220, Note_on_c, 2, 63, 0
2, 5224, Note_on_c, 2, 41, 0
2, 5232, Note_on_c, 2, 57, 0
2, 5440, Note_on_c, 2, 59, 111
2, 5440, Note_on_c, 2, 65, 108
2, 5440, Note_on_c, 2, 51, 96
2, 5856, Note_on_c, 2, 51, 0
2, 5944, Note_on_c, 2, 65, 0
2, 5972, Note_on_c, 2, 59, 0
2, 5980, Note_on_c, 2, 63, 105
2, 6100, Note_on_c, 2, 63, 0
2, 6136, Note_on_c, 2, 51, 85
2, 6136, Note_on_c, 2, 63, 69
2, 6140, Note_on_c, 2, 36, 75
2, 6140, Note_on_c, 2, 57, 72
2, 6144, Note_on_c, 2, 62, 82
2, 6148, Note_on_c, 2, 58, 90
2, 6204, Note_on_c, 2, 51, 0
2, 6220, Note_on_c, 2, 58, 0
2, 6220, Note_on_c, 2, 36, 0
2, 6224, Note_on_c, 2, 57, 0
2, 6236, Note_on_c, 2, 63, 0
2, 6244, Note_on_c, 2, 62, 0
2, 6328, Note_on_c, 2, 62, 74
2, 6328, Note_on_c, 2, 57, 69
2, 6332, Note_on_c, 2, 63, 74
2, 6332, Note_on_c, 2, 58, 90
2, 6332, Note_on_c, 2, 51, 94
2, 6332, Note_on_c, 2, 36, 86
2, 6408, Note_on_c, 2, 36, 0
2, 6408, Note_on_c, 2, 51, 0
2, 6420, Note_on_c, 2, 58, 0
2, 6424, Note_on_c, 2, 57, 0
2, 6436, Note_on_c, 2, 63, 0
2, 6440, Note_on_c, 2, 62, 0
2, 6520, Note_on_c, 2, 57, 105
2, 6520, Note_on_c, 2, 59, 111
2, 6524, Note_on_c, 2, 51, 106
2, 6804, Note_on_c, 2, 57, 0
2, 6840, Note_on_c, 2, 59, 0
2, 6896, Control_c, 2, 64, 127
2, 7204, Note_off_c, 2, 51, 0
2, 7256, Control_c, 2, 64, 0
2, 7264, Note_on_c, 2, 85, 117
2, 7264, Note_on_c, 2, 73, 114
2, 7416, Note_on_c, 2, 73, 0
2, 7444, Note_on_c, 2, 85, 0
2, 7524, Note_on_c, 2, 85, 105
2, 7528, Note_on_c, 2, 74, 101
2, 7528, Note_on_c, 2, 86, 101
2, 7636, Note_on_c, 2, 38, 87
2, 7696, Note_on_c, 2, 38, 0
2, 8036, Note_on_c, 2, 60, 77
2, 8040, Note_on_c, 2, 62, 76
2, 8044, Note_on_c, 2, 54, 83
2, 8076, Note_on_c, 2, 86, 0
2, 8088, Note_on_c, 2, 74, 0
2, 8100, Note_on_c, 2, 85, 0
2, 8112, Note_on_c, 2, 62, 0
2, 8112, Note_on_c, 2, 60, 0
2, 8132, Note_on_c, 2, 54, 0
2, 8428, Note_on_c, 2, 43, 85
2, 8440, Note_on_c, 2, 87, 121
2, 8440, Note_on_c, 2, 75, 118
2, 8496, Note_on_c, 2, 43, 0
2, 8544, Note_on_c, 2, 75, 0
2, 8568, Note_on_c, 2, 87, 0
2, 8820, Note_on_c, 2, 59, 81
2, 8820, Note_on_c, 2, 53, 80
2, 8896, Note_on_c, 2, 59, 0
2, 8912, Note_on_c, 2, 53, 0
2, 9196, Note_on_c, 2, 36, 81
2, 9268, Note_on_c, 2, 36, 0
2, 9576, Note_on_c, 2, 60, 76
2, 9576, Note_on_c, 2, 58, 87
2, 9580, Note_on_c, 2, 52, 81
2, 9592, Note_on_c, 2, 72, 118
2, 9644, Note_on_c, 2, 58, 0
2, 9656, Note_on_c, 2, 60, 0
2, 9672, Note_on_c, 2, 52, 0
2, 9760, Note_on_c, 2, 72, 0
2, 9852, Note_on_c, 2, 74, 107
2, 9856, Note_on_c, 2, 73, 107
2, 9920, Note_on_c, 2, 73, 0
2, 9944, Note_on_c, 2, 41, 80
2, 10004, Note_on_c, 2, 41, 0
2, 10308, Note_on_c, 2, 62, 80
2, 10308, Note_on_c, 2, 51, 91
2, 10308, Note_on_c, 2, 57, 79
2, 10388, Note_on_c, 2, 57, 0
2, 10388, Note_on_c, 2, 62, 0
2, 10408, Note_on_c, 2, 51, 0
2, 10704, Note_on_c, 2, 46, 98
2, 10780, Note_on_c, 2, 46, 0
2, 11096, Note_on_c, 2, 53, 77
2, 11096, Note_on_c, 2, 62, 71
2, 11100, Note_on_c, 2, 58, 88
2, 11100, Note_on_c, 2, 56, 86
2, 11160, Note_on_c, 2, 74, 0
2, 11168, Note_on_c, 2, 58, 0
2, 11172, Note_on_c, 2, 62, 0
2, 11180, Note_on_c, 2, 56, 0
2, 11192, Note_on_c, 2, 53, 0
2, 11372, Note_on_c, 2, 70, 117
2, 11476, Note_on_c, 2, 70, 0
2, 11480, Note_on_c, 2, 39, 94
2, 11544, Note_on_c, 2, 39, 0
2, 11616, Note_on_c, 2, 70, 119
2, 11620, Note_on_c, 2, 72, 111
2, 11860, Note_on_c, 2, 61, 90
2, 11860, Note_on_c, 2, 55, 79
2, 11928, Note_on_c, 2, 61, 0
2, 11948, Note_on_c, 2, 55, 0
2, 12104, Note_on_c, 2, 72, 0
2, 12112, Note_on_c, 2, 70, 0
2, 12128, Note_on_c, 2, 69, 108
2, 12132, Note_on_c, 2, 68, 70
2, 12228, Note_on_c, 2, 38, 86
2, 12296, Note_on_c, 2, 38, 0
2, 12604, Note_on_c, 2, 62, 80
2, 12604, Note_on_c, 2, 60, 86
2, 12604, Note_on_c, 2, 54, 91
2, 12676, Note_on_c, 2, 60, 0
2, 12680, Note_on_c, 2, 62, 0
2, 12692, Note_on_c, 2, 54, 0
2, 12980, Note_on_c, 2, 43, 87
2, 12996, Note_on_c, 2, 68, 0
2, 13040, Note_on_c, 2, 69, 0
2, 13072, Note_on_c, 2, 43, 0
2, 13372, Note_on_c, 2, 53, 82
2, 13372, Note_on_c, 2, 59, 86
2, 13464, Note_on_c, 2, 59, 0
2, 13484, Note_on_c, 2, 53, 0
2, 13768, Note_on_c, 2, 36, 82
2, 13780, Note_on_c, 2, 65, 110
2, 13840, Note_on_c, 2, 36, 0
2, 13948, Note_on_c, 2, 65, 0
2, 14144, Note_on_c, 2, 58, 87
2, 14148, Note_on_c, 2, 60, 80
2, 14148, Note_on_c, 2, 51, 84
2, 14224, Note_on_c, 2, 58, 0
2, 14228, Note_on_c, 2, 60, 0
2, 14248, Note_on_c, 2, 51, 0
2, 14448, Note_on_c, 2, 67, 120
2, 14552, Note_on_c, 2, 43, 81
2, 14580, Note_on_c, 2, 67, 0
2, 14624, Note_on_c, 2, 43, 0
2, 14868, Note_on_c, 2, 65, 43
2, 14936, Note_on_c, 2, 65, 0
2, 14936, Note_on_c, 2, 51, 81
2, 14936, Note_on_c, 2, 58, 88
2, 14940, Note_on_c, 2, 60, 75
2, 14952, Note_on_c, 2, 67, 101
2, 15012, Note_on_c, 2, 60, 0
2, 15012, Note_on_c, 2, 58, 0
2, 15032, Note_on_c, 2, 51, 0
2, 15140, Note_on_c, 2, 67, 0
2, 15304, Note_on_c, 2, 73, 115
2, 15304, Note_on_c, 2, 37, 99
2, 15304, Note_on_c, 2, 64, 109
2, 15368, Note_on_c, 2, 37, 0
2, 15460, Note_on_c, 2, 64, 0
2, 15500, Note_on_c, 2, 73, 0
2, 15580, Note_on_c, 2, 74, 109
2, 15580, Note_on_c, 2, 65, 108
2, 15660, Note_on_c, 2, 62, 80
2, 15660, Note_on_c, 2, 60, 90
2, 15780, Note_on_c, 2, 60, 0
2, 15784, Note_on_c, 2, 62, 0
2, 16076, Note_on_c, 2, 43, 82
2, 16160, Note_on_c, 2, 43, 0
2, 16444, Note_on_c, 2, 59, 83
2, 16448, Note_on_c, 2, 53, 81
2, 16528, Note_on_c, 2, 59, 0
2, 16548, Note_on_c, 2, 53, 0
2, 16824, Note_on_c, 2, 36, 84
2, 16900, Note_on_c, 2, 36, 0
2, 17208, Note_on_c, 2, 60, 78
2, 17212, Note_on_c, 2, 58, 90
2, 17212, Note_on_c, 2, 52, 82
2, 17284, Note_on_c, 2, 74, 0
2, 17292, Note_on_c, 2, 58, 0
2, 17292, Note_on_c, 2, 65, 0
2, 17296, Note_on_c, 2, 60, 0
2, 17320, Note_on_c, 2, 52, 0
2, 17596, Note_on_c, 2, 41, 86
2, 17672, Note_on_c, 2, 41, 0
2, 17876, Note_on_c, 2, 70, 99
2, 17880, Note_on_c, 2, 64, 101
2, 17992, Note_on_c, 2, 47, 83
2, 17992, Note_on_c, 2, 48, 79
2, 18008, Note_on_c, 2, 64, 0
2, 18024, Note_on_c, 2, 70, 0
2, 18044, Note_on_c, 2, 47, 0
2, 18128, Note_on_c, 2, 63, 106
2, 18132, Note_on_c, 2, 70, 104
2, 18284, Note_on_c, 2, 48, 0
2, 18292, Note_on_c, 2, 63, 0
2, 18312, Note_on_c, 2, 70, 0
2, 18388, Note_on_c, 2, 46, 100
2, 18388, Note_on_c, 2, 70, 117
2, 18392, Note_on_c, 2, 62, 106
2, 18452, Note_on_c, 2, 46, 0
2, 18528, Note_on_c, 2, 62, 0
2, 18556, Note_on_c, 2, 70, 0
2, 18752, Note_on_c, 2, 62, 64
2, 18756, Note_on_c, 2, 53, 60
2, 18760, Note_on_c, 2, 56, 78
2, 18760, Note_on_c, 2, 58, 82
2, 18840, Note_on_c, 2, 58, 0
2, 18840, Note_on_c, 2, 56, 0
2, 18844, Note_on_c, 2, 62, 0
2, 18860, Note_on_c, 2, 53, 0
2, 19148, Note_on_c, 2, 45, 86
2, 19152, Note_on_c, 2, 55, 63
2, 19156, Note_on_c, 2, 53, 65
2, 19192, Note_on_c, 2, 53, 0
2, 19292, Note_on_c, 2, 45, 0
2, 19300, Note_on_c, 2, 55, 0
2, 19516, Note_on_c, 2, 54, 96
2, 19516, Note_on_c, 2, 44, 98
2, 19644, Note_on_c, 2, 44, 0
2, 19692, Note_on_c, 2, 54, 0
2, 19896, Note_on_c, 2, 38, 97
2, 19988, Note_on_c, 2, 38, 0
2, 20196, Note_on_c, 2, 86, 110
2, 20196, Note_on_c, 2, 85, 111
2, 20200, Note_on_c, 2, 74, 118
2, 20292, Note_on_c, 2, 62, 81
2, 20292, Note_on_c, 2, 54, 91
2, 20292, Note_on_c, 2, 60, 85
2, 20296, Note_on_c, 2, 74, 0
2, 20320, Note_on_c, 2, 86, 0
2, 20324, Note_on_c, 2, 85, 0
2, 20360, Note_on_c, 2, 60, 0
2, 20364, Note_on_c, 2, 62, 0
2, 20388, Note_on_c, 2, 54, 0
2, 20448, Note_on_c, 2, 85, 107
2, 20448, Note_on_c, 2, 86, 104
2, 20452, Note_on_c, 2, 74, 112
2, 20544, Note_on_c, 2, 74, 0
2, 20544, Note_on_c, 2, 86, 0
2, 20592, Note_on_c, 2, 85, 0
2, 20680, Note_on_c, 2, 43, 86
2, 20680, Note_on_c, 2, 53, 85
2, 20688, Note_on_c, 2, 87, 106
2, 20692, Note_on_c, 2, 83, 93
2, 20692, Note_on_c, 2, 75, 108
2, 20756, Note_on_c, 2, 43, 0
2, 20768, Note_on_c, 2, 53, 0
2, 21040, Note_on_c, 2, 59, 90
2, 21044, Note_on_c, 2, 53, 89
2, 21132, Note_on_c, 2, 53, 0
2, 21136, Note_on_c, 2, 59, 0
2, 21424, Note_on_c, 2, 52, 81
2, 21428, Note_on_c, 2, 36, 86
2, 21472, Note_on_c, 2, 83, 0
2, 21472, Note_on_c, 2, 87, 0
2, 21492, Note_on_c, 2, 75, 0
2, 21816, Note_on_c, 2, 46, 72
2, 21820, Note_on_c, 2, 82, 116
2, 21820, Note_on_c, 2, 70, 118
2, 21836, Note_on_c, 2, 36, 0
2, 21836, Note_on_c, 2, 45, 56
2, 21856, Note_on_c, 2, 52, 0
2, 21872, Note_on_c, 2, 46, 0
2, 21884, Note_on_c, 2, 45, 0
2, 21996, Note_on_c, 2, 82, 0
2, 22012, Note_on_c, 2, 70, 0
2, 22076, Note_on_c, 2, 81, 86
2, 22076, Note_on_c, 2, 69, 95
2, 22076, Note_on_c, 2, 78, 91
2, 22076, Note_on_c, 2, 74, 90
2, 22144, Note_on_c, 2, 69, 0
2, 22144, Note_on_c, 2, 81, 0
2, 22156, Note_on_c, 2, 74, 0
2, 22160, Note_on_c, 2, 78, 0
2, 22176, Note_on_c, 2, 41, 86
2, 22204, Note_on_c, 2, 78, 78
2, 22208, Note_on_c, 2, 70, 91
2, 22208, Note_on_c, 2, 74, 59
2, 22216, Note_on_c, 2, 82, 82
2, 22244, Note_on_c, 2, 41, 0
2, 22312, Note_on_c, 2, 74, 0
2, 22348, Note_on_c, 2, 70, 0
2, 22348, Note_on_c, 2, 78, 0
2, 22384, Note_on_c, 2, 82, 0
2, 22468, Note_on_c, 2, 84, 108
2, 22472, Note_on_c, 2, 72, 112
2, 22564, Note_on_c, 2, 57, 85
2, 22568, Note_on_c, 2, 51, 94
2, 22580, Note_on_c, 2, 72, 0
2, 22592, Note_on_c, 2, 84, 0
2, 22648, Note_on_c, 2, 57, 0
2, 22676, Note_on_c, 2, 51, 0
2, 22956, Note_on_c, 2, 46, 101
2, 23036, Note_on_c, 2, 46, 0
2, 23352, Note_on_c, 2, 53, 81
2, 23352, Note_on_c, 2, 62, 75
2, 23352, Note_on_c, 2, 58, 88
2, 23364, Note_on_c, 2, 70, 122
2, 23424, Note_on_c, 2, 58, 0
2, 23424, Note_on_c, 2, 62, 0
2, 23452, Note_on_c, 2, 53, 0
2, 23560, Note_on_c, 2, 70, 0
2, 23724, Note_on_c, 2, 39, 97
2, 23740, Note_on_c, 2, 72, 115
2, 23792, Note_on_c, 2, 39, 0
2, 23908, Note_on_c, 2, 72, 0
2, 24004, Note_on_c, 2, 71, 109
2, 24092, Note_on_c, 2, 55, 71
2, 24092, Note_on_c, 2, 61, 93
2, 24116, Note_on_c, 2, 70, 105
2, 24128, Note_on_c, 2, 71, 0
2, 24160, Note_on_c, 2, 61, 0
2, 24180, Note_on_c, 2, 55, 0
2, 24344, Note_on_c, 2, 70, 0
2, 24388, Note_on_c, 2, 69, 103
2, 24484, Note_on_c, 2, 38, 75
2, 24564, Note_on_c, 2, 38, 0
2, 24872, Note_on_c, 2, 62, 78
2, 24872, Note_on_c, 2, 60, 77
2, 24876, Note_on_c, 2, 53, 75
2, 24880, Note_on_c, 2, 57, 79
2, 24948, Note_on_c, 2, 60, 0
2, 24956, Note_on_c, 2, 62, 0
2, 24964, Note_on_c, 2, 57, 0
2, 24984, Note_on_c, 2, 53, 0
2, 25264, Note_on_c, 2, 37, 103
2, 25276, Note_on_c, 2, 69, 0
2, 25336, Note_on_c, 2, 37, 0
2, 25640, Note_on_c, 2, 64, 80
2, 25640, Note_on_c, 2, 61, 82
2, 25640, Note_on_c, 2, 55, 71
2, 25640, Note_on_c, 2, 58, 86
2, 25720, Note_on_c, 2, 61, 0
2, 25720, Note_on_c, 2, 64, 0
2, 25728, Note_on_c, 2, 58, 0
2, 25740, Note_on_c, 2, 55, 0
2, 26024, Note_on_c, 2, 36, 90
2, 26028, Note_on_c, 2, 65, 105
2, 26092, Note_on_c, 2, 36, 0
2, 26176, Note_on_c, 2, 65, 0
2, 26392, Note_on_c, 2, 60, 76
2, 26396, Note_on_c, 2, 55, 65
2, 26400, Note_on_c, 2, 58, 86
2, 26476, Note_on_c, 2, 60, 0
2, 26492, Note_on_c, 2, 58, 0
2, 26500, Note_on_c, 2, 55, 0
2, 26692, Note_on_c, 2, 67, 119
2, 26784, Note_on_c, 2, 43, 75
2, 26808, Note_on_c, 2, 67, 0
2, 26808, Note_on_c, 2, 65, 73
2, 26844, Note_on_c, 2, 43, 0
2, 27080, Note_on_c, 2, 67, 56
2, 27124, Note_on_c, 2, 65, 0
2, 27136, Note_on_c, 2, 67, 0
2, 27156, Note_on_c, 2, 53, 85
2, 27156, Note_on_c, 2, 59, 89
2, 27172, Note_on_c, 2, 70, 111
2, 27236, Note_on_c, 2, 59, 0
2, 27256, Note_on_c, 2, 53, 0
2, 27388, Note_on_c, 2, 70, 0
2, 27540, Note_on_c, 2, 36, 86
2, 27544, Note_on_c, 2, 73, 116
2, 27616, Note_on_c, 2, 36, 0
2, 27736, Note_on_c, 2, 73, 0
2, 27816, Note_on_c, 2, 74, 108
2, 27920, Note_on_c, 2, 60, 78
2, 27924, Note_on_c, 2, 55, 71
2, 27928, Note_on_c, 2, 58, 91
2, 27960, Note_on_c, 2, 74, 0
2, 28004, Note_on_c, 2, 60, 0
2, 28012, Note_on_c, 2, 58, 0
2, 28032, Note_on_c, 2, 55, 0
2, 28320, Note_on_c, 2, 43, 88
2, 28324, Note_on_c, 2, 53, 87
2, 28416, Note_on_c, 2, 43, 0
2, 28448, Note_on_c, 2, 53, 0
2, 28688, Note_on_c, 2, 62, 75
2, 28692, Note_on_c, 2, 53, 74
2, 28692, Note_on_c, 2, 59, 81
2, 28796, Note_on_c, 2, 62, 0
2, 28800, Note_on_c, 2, 59, 0
2, 28836, Note_on_c, 2, 53, 0
2, 28980, Note_on_c, 2, 64, 106
2, 28980, Note_on_c, 2, 73, 112
2, 29060, Note_on_c, 2, 36, 82
2, 29100, Note_on_c, 2, 64, 0
2, 29116, Note_on_c, 2, 73, 0
2, 29136, Note_on_c, 2, 36, 0
2, 29456, Note_on_c, 2, 60, 75
2, 29460, Note_on_c, 2, 55, 70
2, 29464, Note_on_c, 2, 58, 92
2, 29536, Note_on_c, 2, 60, 0
2, 29548, Note_on_c, 2, 58, 0
2, 29560, Note_on_c, 2, 55, 0
2, 29852, Note_on_c, 2, 64, 94
2, 29852, Note_on_c, 2, 70, 95
2, 29852, Note_on_c, 2, 48, 76
2, 30040, Note_on_c, 2, 64, 0
2, 30048, Note_on_c, 2, 48, 0
2, 30068, Note_on_c, 2, 70, 0
2, 30216, Note_on_c, 2, 47, 90
2, 30232, Note_on_c, 2, 70, 105
2, 30232, Note_on_c, 2, 63, 103
2, 30324, Note_on_c, 2, 47, 0
2, 30468, Note_on_c, 2, 63, 0
2, 30488, Note_on_c, 2, 70, 0
2, 30616, Note_on_c, 2, 46, 95
2, 30620, Note_on_c, 2, 70, 111
2, 30620, Note_on_c, 2, 62, 99
2, 30676, Note_on_c, 2, 46, 0
2, 30744, Note_on_c, 2, 62, 0
2, 30788, Note_on_c, 2, 70, 0
2, 30992, Note_on_c, 2, 53, 79
2, 30992, Note_on_c, 2, 62, 71
2, 30992, Note_on_c, 2, 58, 88
2, 31080, Note_on_c, 2, 58, 0
2, 31080, Note_on_c, 2, 62, 0
2, 31112, Note_on_c, 2, 53, 0
2, 31392, Note_on_c, 2, 53, 106
2, 31396, Note_on_c, 2, 52, 107
2, 31440, Note_on_c, 2, 52, 0
2, 31644, Note_on_c, 2, 53, 0
2, 31772, Note_on_c, 2, 54, 106
2, 32048, Note_on_c, 2, 54, 0
2, 32128, Note_on_c, 2, 43, 90
2, 32252, Note_on_c, 2, 43, 0
2, 32424, Note_on_c, 2, 86, 116
2, 32428, Note_on_c, 2, 74, 119
2, 32528, Note_on_c, 2, 62, 81
2, 32528, Note_on_c, 2, 58, 96
2, 32532, Note_on_c, 2, 55, 81
2, 32560, Note_on_c, 2, 74, 0
2, 32588, Note_on_c, 2, 62, 0
2, 32592, Note_on_c, 2, 58, 0
2, 32600, Note_on_c, 2, 55, 0
2, 32604, Note_on_c, 2, 86, 0
2, 32828, Note_on_c, 2, 82, 63
2, 32900, Note_on_c, 2, 82, 0
2, 32908, Note_on_c, 2, 38, 91
2, 32916, Note_on_c, 2, 86, 106
2, 32920, Note_on_c, 2, 74, 107
2, 32976, Note_on_c, 2, 38, 0
2, 33064, Note_on_c, 2, 74, 0
2, 33104, Note_on_c, 2, 86, 0
2, 33280, Note_on_c, 2, 58, 98
2, 33280, Note_on_c, 2, 62, 85
2, 33280, Note_on_c, 2, 55, 85
2, 33296, Note_on_c, 2, 82, 114
2, 33360, Note_on_c, 2, 62, 0
2, 33360, Note_on_c, 2, 58, 0
2, 33376, Note_on_c, 2, 55, 0
2, 33444, Note_on_c, 2, 82, 0
2, 33676, Note_on_c, 2, 85, 100
2, 33676, Note_on_c, 2, 82, 98
2, 33676, Note_on_c, 2, 84, 93
2, 33680, Note_on_c, 2, 73, 113
2, 33680, Note_on_c, 2, 39, 102
2, 33748, Note_on_c, 2, 39, 0
2, 34044, Note_on_c, 2, 65, 86
2, 34044, Note_on_c, 2, 55, 81
2, 34048, Note_on_c, 2, 61, 91
2, 34056, Note_on_c, 2, 58, 90
2, 34104, Note_on_c, 2, 84, 0
2, 34108, Note_on_c, 2, 82, 0
2, 34108, Note_on_c, 2, 85, 0
2, 34124, Note_on_c, 2, 73, 0
2, 34128, Note_on_c, 2, 65, 0
2, 34132, Note_on_c, 2, 61, 0
2, 34148, Note_on_c, 2, 55, 0
2, 34152, Note_on_c, 2, 58, 0
2, 34328, Note_on_c, 2, 84, 100
2, 34328, Note_on_c, 2, 81, 97
2, 34332, Note_on_c, 2, 72, 106
2, 34332, Note_on_c, 2, 78, 107
2, 34436, Note_on_c, 2, 38, 88
2, 34448, Note_on_c, 2, 78, 0
2, 34448, Note_on_c, 2, 72, 0
2, 34472, Note_on_c, 2, 81, 0
2, 34500, Note_on_c, 2, 38, 0
2, 34512, Note_on_c, 2, 84, 0
2, 34828, Note_on_c, 2, 54, 95
2, 34832, Note_on_c, 2, 62, 86
2, 34832, Note_on_c, 2, 60, 92
2, 34932, Note_on_c, 2, 60, 0
2, 34952, Note_on_c, 2, 62, 0
2, 34960, Note_on_c, 2, 54, 0
2, 35212, Note_on_c, 2, 43, 90
2, 35212, Note_on_c, 2, 53, 93
2, 35304, Note_on_c, 2, 43, 0
2, 35336, Note_on_c, 2, 53, 0
2, 35584, Note_on_c, 2, 62, 87
2, 35588, Note_on_c, 2, 58, 99
2, 35588, Note_on_c, 2, 55, 86
2, 35648, Note_on_c, 2, 58, 0
2, 35648, Note_on_c, 2, 62, 0
2, 35664, Note_on_c, 2, 55, 0
2, 35740, Note_on_c, 2, 86, 91
2, 35796, Note_on_c, 2, 82, 96
2, 35844, Note_on_c, 2, 79, 76
2, 35868, Note_on_c, 2, 86, 0
2, 35884, Note_on_c, 2, 74, 74
2, 35900, Note_on_c, 2, 82, 0
2, 35932, Note_on_c, 2, 79, 0
2, 35968, Note_on_c, 2, 74, 0
2, 35968, Note_on_c, 2, 43, 78
2, 35980, Note_on_c, 2, 86, 98
2, 36028, Note_on_c, 2, 43, 0
2, 36048, Note_on_c, 2, 82, 85
2, 36100, Note_on_c, 2, 86, 0
2, 36108, Note_on_c, 2, 79, 58
2, 36144, Note_on_c, 2, 74, 69
2, 36152, Note_on_c, 2, 82, 0
2, 36176, Note_on_c, 2, 79, 0
2, 36220, Note_on_c, 2, 86, 95
2, 36224, Note_on_c, 2, 74, 0
2, 36252, Note_on_c, 2, 82, 85
2, 36308, Note_on_c, 2, 79, 75
2, 36320, Note_on_c, 2, 86, 0
2, 36356, Note_on_c, 2, 74, 77
2, 36360, Note_on_c, 2, 82, 0
2, 36360, Note_on_c, 2, 62, 79
2, 36364, Note_on_c, 2, 58, 95
2, 36364, Note_on_c, 2, 55, 77
2, 36392, Note_on_c, 2, 79, 0
2, 36412, Note_on_c, 2, 62, 0
2, 36412, Note_on_c, 2, 74, 0
2, 36420, Note_on_c, 2, 58, 0
2, 36424, Note_on_c, 2, 55, 0
2, 36484, Note_on_c, 2, 72, 114
2, 36488, Note_on_c, 2, 73, 122
2, 36588, Note_on_c, 2, 39, 28
2, 36660, Note_on_c, 2, 39, 0
2, 36728, Note_on_c, 2, 36, 91
2, 36796, Note_on_c, 2, 36, 0
2, 37100, Note_on_c, 2, 58, 94
2, 37100, Note_on_c, 2, 60, 86
2, 37104, Note_on_c, 2, 52, 88
2, 37188, Note_on_c, 2, 58, 0
2, 37192, Note_on_c, 2, 60, 0
2, 37208, Note_on_c, 2, 52, 0
2, 37484, Note_on_c, 2, 43, 88
2, 37620, Note_on_c, 2, 43, 0
2, 37868, Note_on_c, 2, 72, 0
2, 37872, Note_on_c, 2, 42, 100
2, 37872, Note_on_c, 2, 52, 95
2, 37888, Note_on_c, 2, 73, 0
2, 38080, Note_on_c, 2, 52, 0
2, 38132, Note_on_c, 2, 42, 0
2, 38256, Note_on_c, 2, 41, 95
2, 38260, Note_on_c, 2, 50, 92
2, 38352, Note_on_c, 2, 41, 0
2, 38376, Note_on_c, 2, 50, 0
2, 38548, Note_on_c, 2, 80, 115
2, 38552, Note_on_c, 2, 72, 115
2, 38552, Note_on_c, 2, 84, 109
2, 38648, Note_on_c, 2, 60, 87
2, 38656, Note_on_c, 2, 56, 92
2, 38668, Note_on_c, 2, 72, 0
2, 38668, Note_on_c, 2, 80, 0
2, 38672, Note_on_c, 2, 84, 0
2, 38724, Note_on_c, 2, 60, 0
2, 38744, Note_on_c, 2, 56, 0
2, 39032, Note_on_c, 2, 36, 84
2, 39108, Note_on_c, 2, 36, 0
2, 39296, Note_on_c, 2, 73, 120
2, 39296, Note_on_c, 2, 85, 116
2, 39296, Note_on_c, 2, 78, 114
2, 39300, Note_on_c, 2, 80, 110
2, 39356, Note_on_c, 2, 85, 0
2, 39356, Note_on_c, 2, 73, 0
2, 39372, Note_on_c, 2, 80, 0
2, 39372, Note_on_c, 2, 78, 0
2, 39412, Note_on_c, 2, 60, 82
2, 39420, Note_on_c, 2, 56, 87
2, 39428, Note_on_c, 2, 58, 90
2, 39464, Note_on_c, 2, 80, 100
2, 39464, Note_on_c, 2, 68, 95
2, 39480, Note_on_c, 2, 58, 0
2, 39484, Note_on_c, 2, 60, 0
2, 39504, Note_on_c, 2, 56, 0
2, 39556, Note_on_c, 2, 68, 0
2, 39580, Note_on_c, 2, 80, 0
2, 39676, Note_on_c, 2, 70, 115
2, 39676, Note_on_c, 2, 82, 115
2, 39756, Note_on_c, 2, 70, 0
2, 39768, Note_on_c, 2, 82, 0
2, 39780, Note_on_c, 2, 43, 76
2, 39820, Note_on_c, 2, 84, 82
2, 39824, Note_on_c, 2, 72, 84
2, 39916, Note_on_c, 2, 43, 0
2, 39992, Note_on_c, 2, 72, 0
2, 39996, Note_on_c, 2, 84, 0
2, 40056, Note_on_c, 2, 84, 103
2, 40056, Note_on_c, 2, 72, 106
2, 40140, Note_on_c, 2, 72, 0
2, 40148, Note_on_c, 2, 65, 91
2, 40152, Note_on_c, 2, 61, 92
2, 40156, Note_on_c, 2, 55, 80
2, 40156, Note_on_c, 2, 58, 87
2, 40184, Note_on_c, 2, 84, 0
2, 40224, Note_on_c, 2, 61, 0
2, 40228, Note_on_c, 2, 65, 0
2, 40240, Note_on_c, 2, 58, 0
2, 40244, Note_on_c, 2, 55, 0
2, 40552, Note_on_c, 2, 36, 87
2, 40560, Note_on_c, 2, 52, 81
2, 40636, Note_on_c, 2, 36, 0
2, 40648, Note_on_c, 2, 52, 0
2, 40932, Note_on_c, 2, 60, 95
2, 40936, Note_on_c, 2, 58, 108
2, 41020, Note_on_c, 2, 58, 0
2, 41020, Note_on_c, 2, 60, 0
2, 41140, Note_on_c, 2, 72, 65
2, 41212, Note_on_c, 2, 74, 73
2, 41236, Note_on_c, 2, 75, 88
2, 41244, Note_on_c, 2, 72, 0
2, 41300, Note_on_c, 2, 74, 0
2, 41300, Note_on_c, 2, 76, 60
2, 41316, Note_on_c, 2, 53, 89
2, 41316, Note_on_c, 2, 52, 99
2, 41328, Note_on_c, 2, 77, 106
2, 41332, Note_on_c, 2, 75, 0
2, 41352, Note_on_c, 2, 52, 0
2, 41376, Note_on_c, 2, 76, 0
2, 41648, Note_on_c, 2, 77, 0
2, 41708, Note_on_c, 2, 75, 117
2, 41720, Note_on_c, 2, 53, 0
2, 41872, Note_on_c, 2, 75, 0
2, 41976, Note_on_c, 2, 57, 85
2, 41976, Note_on_c, 2, 69, 106
2, 41976, Note_on_c, 2, 71, 116
2, 41976, Note_on_c, 2, 51, 95
2, 42524, Note_on_c, 2, 71, 0
2, 42572, Note_on_c, 2, 69, 0
2, 42888, Note_on_c, 2, 51, 0
2, 42960, Note_on_c, 2, 57, 0
2, 43032, Note_on_c, 2, 71, 56
2, 43040, Note_on_c, 2, 69, 79
2, 43068, Note_on_c, 2, 67, 76
2, 43100, Note_on_c, 2, 65, 82
2, 43108, Note_on_c, 2, 71, 0
2, 43132, Note_on_c, 2, 63, 103
2, 43156, Note_on_c, 2, 69, 0
2, 43168, Note_on_c, 2, 67, 0
2, 43176, Note_on_c, 2, 53, 108
2, 43180, Note_on_c, 2, 59, 106
2, 43184, Note_on_c, 2, 65, 0
2, 43184, Note_on_c, 2, 57, 105
2, 43188, Note_on_c, 2, 63, 0
2, 43188, Note_on_c, 2, 55, 90
2, 43252, Note_on_c, 2, 55, 0
2, 44132, Note_on_c, 2, 59, 0
2, 44140, Note_on_c, 2, 57, 0
2, 44152, Note_on_c, 2, 53, 0
2, 44200, Note_on_c, 2, 72, 86
2, 44208, Note_on_c, 2, 84, 82
2, 44252, Note_on_c, 2, 72, 0
2, 44272, Note_on_c, 2, 84, 0
2, 44392, Note_on_c, 2, 38, 91
2, 44404, Note_on_c, 2, 74, 120
2, 44408, Note_on_c, 2, 86, 111
2, 44408, Note_on_c, 2, 85, 110
2, 44456, Note_on_c, 2, 74, 0
2, 44456, Note_on_c, 2, 38, 0
2, 44476, Note_on_c, 2, 86, 0
2, 44480, Note_on_c, 2, 85, 0
2, 44584, Note_on_c, 2, 74, 113
2, 44584, Note_on_c, 2, 85, 107
2, 44588, Note_on_c, 2, 86, 104
2, 44652, Note_on_c, 2, 74, 0
2, 44672, Note_on_c, 2, 86, 0
2, 44676, Note_on_c, 2, 85, 0
2, 44732, Note_on_c, 2, 60, 85
2, 44732, Note_on_c, 2, 54, 91
2, 44736, Note_on_c, 2, 62, 82
2, 44740, Note_on_c, 2, 74, 107
2, 44744, Note_on_c, 2, 86, 99
2, 44744, Note_on_c, 2, 85, 95
2, 44804, Note_on_c, 2, 62, 0
2, 44812, Note_on_c, 2, 60, 0
2, 44844, Note_on_c, 2, 54, 0
2, 44856, Note_on_c, 2, 74, 0
2, 44864, Note_on_c, 2, 86, 0
2, 44876, Note_on_c, 2, 85, 0
2, 44960, Note_on_c, 2, 85, 105
2, 44960, Note_on_c, 2, 86, 104
2, 44960, Note_on_c, 2, 74, 111
2, 45048, Note_on_c, 2, 74, 0
2, 45048, Note_on_c, 2, 86, 0
2, 45072, Note_on_c, 2, 85, 0
2, 45128, Note_on_c, 2, 43, 88
2, 45128, Note_on_c, 2, 53, 90
2, 45144, Note_on_c, 2, 87, 110
2, 45152, Note_on_c, 2, 75, 115
2, 45164, Note_on_c, 2, 86, 82
2, 45192, Note_on_c, 2, 86, 0
2, 45204, Note_on_c, 2, 43, 0
2, 45240, Note_on_c, 2, 53, 0
2, 45508, Note_on_c, 2, 59, 97
2, 45512, Note_on_c, 2, 53, 92
2, 45596, Note_on_c, 2, 59, 0
2, 45624, Note_on_c, 2, 53, 0
2, 45900, Note_on_c, 2, 36, 100
2, 45924, Note_on_c, 2, 87, 0
2, 45968, Note_on_c, 2, 75, 0
2, 45988, Note_on_c, 2, 36, 0
2, 46216, Note_on_c, 2, 82, 64
2, 46260, Note_on_c, 2, 82, 0
2, 46284, Note_on_c, 2, 60, 97
2, 46284, Note_on_c, 2, 55, 91
2, 46292, Note_on_c, 2, 58, 100
2, 46296, Note_on_c, 2, 84, 106
2, 46300, Note_on_c, 2, 72, 108
2, 46364, Note_on_c, 2, 60, 0
2, 46376, Note_on_c, 2, 58, 0
2, 46392, Note_on_c, 2, 55, 0
2, 46480, Note_on_c, 2, 72, 0
2, 46496, Note_on_c, 2, 84, 0
2, 46668, Note_on_c, 2, 86, 108
2, 46668, Note_on_c, 2, 41, 84
2, 46672, Note_on_c, 2, 81, 99
2, 46672, Note_on_c, 2, 74, 109
2, 46672, Note_on_c, 2, 78, 108
2, 46748, Note_on_c, 2, 41, 0
2, 46812, Note_on_c, 2, 74, 0
2, 46812, Note_on_c, 2, 86, 0
2, 46816, Note_on_c, 2, 78, 0
2, 46816, Note_on_c, 2, 81, 0
2, 47064, Note_on_c, 2, 51, 102
2, 47064, Note_on_c, 2, 57, 93
2, 47064, Note_on_c, 2, 59, 84
2, 47144, Note_on_c, 2, 57, 0
2, 47156, Note_on_c, 2, 59, 0
2, 47188, Note_on_c, 2, 51, 0
2, 47380, Note_on_c, 2, 79, 48
2, 47452, Note_on_c, 2, 46, 104
2, 47460, Note_on_c, 2, 82, 113
2, 47460, Note_on_c, 2, 70, 119
2, 47508, Note_on_c, 2, 79, 0
2, 47524, Note_on_c, 2, 46, 0
2, 47632, Note_on_c, 2, 70, 0
2, 47652, Note_on_c, 2, 82, 0
2, 47820, Note_on_c, 2, 62, 77
2, 47824, Note_on_c, 2, 58, 85
2, 47824, Note_on_c, 2, 53, 75
2, 47828, Note_on_c, 2, 56, 87
2, 47836, Note_on_c, 2, 70, 111
2, 47836, Note_on_c, 2, 82, 109
2, 47900, Note_on_c, 2, 62, 0
2, 47904, Note_on_c, 2, 58, 0
2, 47932, Note_on_c, 2, 56, 0
2, 47936, Note_on_c, 2, 53, 0
2, 47992, Note_on_c, 2, 70, 0
2, 48016, Note_on_c, 2, 82, 0
2, 48212, Note_on_c, 2, 39, 102
2, 48216, Note_on_c, 2, 84, 106
2, 48216, Note_on_c, 2, 72, 107
2, 48220, Note_on_c, 2, 80, 104
2, 48220, Note_on_c, 2, 77, 99
2, 48280, Note_on_c, 2, 39, 0
2, 48360, Note_on_c, 2, 84, 0
2, 48376, Note_on_c, 2, 72, 0
2, 48384, Note_on_c, 2, 77, 0
2, 48388, Note_on_c, 2, 80, 0
2, 48484, Note_on_c, 2, 71, 97
2, 48484, Note_on_c, 2, 77, 94
2, 48488, Note_on_c, 2, 83, 92
2, 48532, Note_on_c, 2, 83, 0
2, 48532, Note_on_c, 2, 71, 0
2, 48536, Note_on_c, 2, 77, 0
2, 48576, Note_on_c, 2, 55, 82
2, 48576, Note_on_c, 2, 61, 98
2, 48584, Note_on_c, 2, 70, 104
2, 48588, Note_on_c, 2, 82, 101
2, 48592, Note_on_c, 2, 58, 84
2, 48656, Note_on_c, 2, 61, 0
2, 48672, Note_on_c, 2, 58, 0
2, 48688, Note_on_c, 2, 55, 0
2, 48760, Note_on_c, 2, 70, 0
2, 48776, Note_on_c, 2, 82, 0
2, 48864, Note_on_c, 2, 80, 103
2, 48868, Note_on_c, 2, 69, 107
2, 48872, Note_on_c, 2, 81, 98
2, 48964, Note_on_c, 2, 38, 89
2, 48980, Note_on_c, 2, 80, 0
2, 49036, Note_on_c, 2, 38, 0
2, 49340, Note_on_c, 2, 62, 88
2, 49340, Note_on_c, 2, 60, 95
2, 49340, Note_on_c, 2, 57, 93
2, 49424, Note_on_c, 2, 60, 0
2, 49432, Note_on_c, 2, 62, 0
2, 49436, Note_on_c, 2, 57, 0
2, 49732, Note_on_c, 2, 37, 109
2, 49760, Note_on_c, 2, 81, 0
2, 49780, Note_on_c, 2, 69, 0
2, 49808, Note_on_c, 2, 37, 0
2, 50116, Note_on_c, 2, 59, 84
2, 50120, Note_on_c, 2, 56, 87
2, 50120, Note_on_c, 2, 52, 79
2, 50124, Note_on_c, 2, 79, 108
2, 50128, Note_on_c, 2, 67, 112
2, 50200, Note_on_c, 2, 59, 0
2, 50208, Note_on_c, 2, 56, 0
2, 50224, Note_on_c, 2, 52, 0
2, 50264, Note_on_c, 2, 79, 0
2, 50288, Note_on_c, 2, 67, 0
2, 50512, Note_on_c, 2, 36, 78
2, 50528, Note_on_c, 2, 65, 72
2, 50576, Note_on_c, 2, 36, 0
2, 50636, Note_on_c, 2, 65, 0
2, 50880, Note_on_c, 2, 60, 88
2, 50880, Note_on_c, 2, 55, 80
2, 50884, Note_on_c, 2, 58, 93
2, 50892, Note_on_c, 2, 67, 115
2, 50960, Note_on_c, 2, 60, 0
2, 50968, Note_on_c, 2, 58, 0
2, 50984, Note_on_c, 2, 55, 0
2, 51092, Note_on_c, 2, 67, 0
2, 51276, Note_on_c, 2, 70, 116
2, 51276, Note_on_c, 2, 39, 100
2, 51348, Note_on_c, 2, 39, 0
2, 51476, Note_on_c, 2, 70, 0
2, 51648, Note_on_c, 2, 55, 78
2, 51648, Note_on_c, 2, 61, 98
2, 51652, Note_on_c, 2, 73, 112
2, 51744, Note_on_c, 2, 61, 0
2, 51760, Note_on_c, 2, 55, 0
2, 51880, Note_on_c, 2, 73, 0
2, 52048, Note_on_c, 2, 38, 73
2, 52052, Note_on_c, 2, 74, 111
2, 52052, Note_on_c, 2, 65, 113
2, 52116, Note_on_c, 2, 38, 0
2, 52192, Note_on_c, 2, 65, 0
2, 52220, Note_on_c, 2, 74, 0
2, 52420, Note_on_c, 2, 62, 85
2, 52420, Note_on_c, 2, 60, 88
2, 52420, Note_on_c, 2, 54, 95
2, 52508, Note_on_c, 2, 62, 0
2, 52512, Note_on_c, 2, 60, 0
2, 52536, Note_on_c, 2, 54, 0
2, 52712, Note_on_c, 2, 71, 99
2, 52712, Note_on_c, 2, 68, 107
2, 52712, Note_on_c, 2, 65, 102
2, 52800, Note_on_c, 2, 43, 80
2, 52824, Note_on_c, 2, 68, 0
2, 52832, Note_on_c, 2, 65, 0
2, 52832, Note_on_c, 2, 71, 0
2, 52876, Note_on_c, 2, 43, 0
2, 53104, Note_on_c, 2, 65, 82
2, 53180, Note_on_c, 2, 60, 87
2, 53180, Note_on_c, 2, 55, 83
2, 53184, Note_on_c, 2, 65, 0
2, 53196, Note_on_c, 2, 67, 105
2, 53256, Note_on_c, 2, 60, 0
2, 53280, Note_on_c, 2, 55, 0
2, 53428, Note_on_c, 2, 67, 0
2, 53476, Note_on_c, 2, 70, 79
2, 53512, Note_on_c, 2, 70, 0
2, 53564, Note_on_c, 2, 38, 73
2, 53568, Note_on_c, 2, 65, 97
2, 53568, Note_on_c, 2, 73, 113
2, 53652, Note_on_c, 2, 38, 0
2, 53752, Note_on_c, 2, 65, 0
2, 53780, Note_on_c, 2, 73, 0
2, 53840, Note_on_c, 2, 65, 106
2, 53840, Note_on_c, 2, 74, 108
2, 53840, Note_on_c, 2, 68, 108
2, 53932, Note_on_c, 2, 68, 0
2, 53936, Note_on_c, 2, 65, 0
2, 53936, Note_on_c, 2, 60, 90
2, 53940, Note_on_c, 2, 62, 82
2, 53944, Note_on_c, 2, 56, 91
2, 53972, Note_on_c, 2, 74, 0
2, 54028, Note_on_c, 2, 60, 0
2, 54036, Note_on_c, 2, 62, 0
2, 54056, Note_on_c, 2, 56, 0
2, 54328, Note_on_c, 2, 43, 97
2, 54460, Note_on_c, 2, 43, 0
2, 54708, Note_on_c, 2, 37, 112
2, 54908, Note_on_c, 2, 37, 0
2, 55004, Note_on_c, 2, 77, 110
2, 55004, Note_on_c, 2, 70, 120
2, 55096, Note_on_c, 2, 36, 89
2, 55108, Note_on_c, 2, 70, 0
2, 55128, Note_on_c, 2, 77, 0
2, 55204, Note_on_c, 2, 36, 0
2, 55384, Note_on_c, 2, 67, 106
2, 55384, Note_on_c, 2, 74, 108
2, 55384, Note_on_c, 2, 70, 110
2, 55492, Note_on_c, 2, 70, 0
2, 55500, Note_on_c, 2, 74, 0
2, 55500, Note_on_c, 2, 42, 102
2, 55508, Note_on_c, 2, 67, 0
2, 55648, Note_on_c, 2, 42, 0
2, 55752, Note_on_c, 2, 69, 86
2, 55752, Note_on_c, 2, 63, 99
2, 55752, Note_on_c, 2, 66, 101
2, 55868, Note_on_c, 2, 41, 75
2, 55884, Note_on_c, 2, 66, 0
2, 55892, Note_on_c, 2, 69, 0
2, 55900, Note_on_c, 2, 63, 0
2, 56124, Note_on_c, 2, 62, 106
2, 56128, Note_on_c, 2, 70, 114
2, 56220, Note_on_c, 2, 41, 0
2, 56244, Note_on_c, 2, 45, 95
2, 56268, Note_on_c, 2, 62, 0
2, 56284, Note_on_c, 2, 70, 0
2, 56320, Note_on_c, 2, 45, 0
2, 56488, Note_on_c, 2, 70, 97
2, 56488, Note_on_c, 2, 67, 79
2, 56492, Note_on_c, 2, 65, 87
2, 56492, Note_on_c, 2, 62, 82
2, 56624, Note_on_c, 2, 46, 105
2, 56684, Note_on_c, 2, 46, 0
2, 56896, Note_on_c, 2, 46, 104
2, 56968, Note_on_c, 2, 46, 0
2, 56996, Note_on_c, 2, 43, 93
2, 57336, Note_on_c, 2, 43, 0
2, 57368, Note_on_c, 2, 65, 0
2, 57376, Note_on_c, 2, 41, 103
2, 57380, Note_on_c, 2, 62, 0
2, 57380, Note_on_c, 2, 67, 0
2, 57400, Note_on_c, 2, 70, 0
2, 57672, Note_on_c, 2, 41, 0
2, 57748, Note_on_c, 2, 39, 108
2, 58108, Note_on_c, 2, 39, 0
2, 58124, Note_on_c, 2, 38, 86
2, 58132, Note_on_c, 2, 74, 114
2, 58132, Note_on_c, 2, 73, 116
2, 58224, Note_on_c, 2, 73, 0
2, 58296, Note_on_c, 2, 74, 0
2, 58488, Note_on_c, 2, 38, 0
2, 58532, Note_on_c, 2, 42, 95
2, 58768, Note_on_c, 2, 73, 117
2, 58768, Note_on_c, 2, 74, 113
2, 58776, Note_on_c, 2, 42, 0
2, 58892, Note_on_c, 2, 73, 0
2, 58892, Note_on_c, 2, 43, 82
2, 58896, Note_on_c, 2, 74, 0
2, 59072, Note_on_c, 2, 75, 117
2, 59180, Note_on_c, 2, 75, 0
2, 59224, Note_on_c, 2, 43, 0
2, 59272, Note_on_c, 2, 37, 103
2, 59280, Note_on_c, 2, 66, 120
2, 59620, Note_on_c, 2, 37, 0
2, 59648, Note_on_c, 2, 36, 90
2, 59708, Note_on_c, 2, 66, 0
2, 60052, Note_on_c, 2, 40, 94
2, 60060, Note_on_c, 2, 64, 111
2, 60064, Note_on_c, 2, 70, 116
2, 60076, Note_on_c, 2, 36, 0
2, 60128, Note_on_c, 2, 40, 0
2, 60276, Note_on_c, 2, 64, 0
2, 60280, Note_on_c, 2, 70, 0
2, 60336, Note_on_c, 2, 72, 96
2, 60336, Note_on_c, 2, 62, 102
2, 60340, Note_on_c, 2, 66, 105
2, 60428, Note_on_c, 2, 51, 95
2, 60832, Note_on_c, 2, 39, 105
2, 60856, Note_on_c, 2, 62, 0
2, 60876, Note_on_c, 2, 66, 0
2, 60924, Note_on_c, 2, 72, 0
2, 61108, Note_on_c, 2, 51, 0
2, 61128, Note_on_c, 2, 39, 0
2, 61204, Note_on_c, 2, 38, 100
2, 61296, Note_on_c, 2, 38, 0
2, 61592, Note_on_c, 2, 62, 90
2, 61592, Note_on_c, 2, 60, 100
2, 61604, Note_on_c, 2, 70, 121
2, 61668, Note_on_c, 2, 60, 0
2, 61672, Note_on_c, 2, 62, 0
2, 61828, Note_on_c, 2, 70, 0
2, 61988, Note_on_c, 2, 39, 98
2, 61988, Note_on_c, 2, 65, 111
2, 61992, Note_on_c, 2, 72, 109
2, 62060, Note_on_c, 2, 39, 0
2, 62152, Note_on_c, 2, 65, 0
2, 62176, Note_on_c, 2, 72, 0
2, 62272, Note_on_c, 2, 65, 108
2, 62272, Note_on_c, 2, 72, 108
2, 62352, Note_on_c, 2, 61, 101
2, 62360, Note_on_c, 2, 55, 81
2, 62388, Note_on_c, 2, 70, 91
2, 62392, Note_on_c, 2, 72, 0
2, 62424, Note_on_c, 2, 61, 0
2, 62444, Note_on_c, 2, 55, 0
2, 62616, Note_on_c, 2, 65, 0
2, 62628, Note_on_c, 2, 70, 0
2, 62740, Note_on_c, 2, 38, 85
2, 62752, Note_on_c, 2, 65, 101
2, 62752, Note_on_c, 2, 69, 104
2, 62816, Note_on_c, 2, 38, 0
2, 62912, Note_on_c, 2, 69, 0
2, 62920, Note_on_c, 2, 65, 0
2, 63116, Note_on_c, 2, 60, 84
2, 63116, Note_on_c, 2, 62, 77
2, 63124, Note_on_c, 2, 57, 81
2, 63196, Note_on_c, 2, 60, 0
2, 63200, Note_on_c, 2, 62, 0
2, 63208, Note_on_c, 2, 57, 0
2, 63516, Note_on_c, 2, 37, 98
2, 63596, Note_on_c, 2, 37, 0
2, 63888, Note_on_c, 2, 58, 97
2, 63888, Note_on_c, 2, 52, 86
2, 63972, Note_on_c, 2, 58, 0
2, 64000, Note_on_c, 2, 52, 0
2, 64272, Note_on_c, 2, 36, 86
2, 64352, Note_on_c, 2, 36, 0
2, 64648, Note_on_c, 2, 58, 94
2, 64648, Note_on_c, 2, 60, 85
2, 64652, Note_on_c, 2, 55, 82
2, 64732, Note_on_c, 2, 58, 0
2, 64744, Note_on_c, 2, 60, 0
2, 64756, Note_on_c, 2, 55, 0
2, 65032, Note_on_c, 2, 43, 85
2, 65040, Note_on_c, 2, 75, 113
2, 65100, Note_on_c, 2, 43, 0
2, 65196, Note_on_c, 2, 75, 0
2, 65272, Note_on_c, 2, 77, 106
2, 65272, Note_on_c, 2, 69, 108
2, 65272, Note_on_c, 2, 71, 108
2, 65368, Note_on_c, 2, 69, 0
2, 65372, Note_on_c, 2, 71, 0
2, 65384, Note_on_c, 2, 77, 0
2, 65408, Note_on_c, 2, 60, 82
2, 65408, Note_on_c, 2, 58, 95
2, 65408, Note_on_c, 2, 55, 86
2, 65428, Note_on_c, 2, 69, 93
2, 65432, Note_on_c, 2, 77, 94
2, 65432, Note_on_c, 2, 71, 103
2, 65476, Note_on_c, 2, 58, 0
2, 65480, Note_on_c, 2, 60, 0
2, 65484, Note_on_c, 2, 55, 0
2, 65788, Note_on_c, 2, 41, 92
2, 65856, Note_on_c, 2, 41, 0
2, 66180, Note_on_c, 2, 51, 108
2, 66180, Note_on_c, 2, 59, 95
2, 66180, Note_on_c, 2, 57, 99
2, 66248, Note_on_c, 2, 57, 0
2, 66256, Note_on_c, 2, 59, 0
2, 66276, Note_on_c, 2, 51, 0
2, 66348, Note_on_c, 2, 69, 0
2, 66360, Note_on_c, 2, 77, 0
2, 66388, Note_on_c, 2, 71, 0
2, 66468, Note_on_c, 2, 75, 109
2, 66556, Note_on_c, 2, 75, 0
2, 66560, Note_on_c, 2, 39, 95
2, 66640, Note_on_c, 2, 39, 0
2, 66848, Note_on_c, 2, 69, 115
2, 66852, Note_on_c, 2, 71, 118
2, 66852, Note_on_c, 2, 77, 113
2, 66932, Note_on_c, 2, 71, 0
2, 66932, Note_on_c, 2, 69, 0
2, 66944, Note_on_c, 2, 62, 90
2, 66948, Note_on_c, 2, 60, 95
2, 66948, Note_on_c, 2, 54, 99
2, 66988, Note_on_c, 2, 77, 0
2, 67008, Note_on_c, 2, 60, 0
2, 67012, Note_on_c, 2, 62, 0
2, 67032, Note_on_c, 2, 54, 0
2, 67256, Note_on_c, 2, 75, 81
2, 67332, Note_on_c, 2, 75, 0
2, 67344, Note_on_c, 2, 38, 97
2, 67352, Note_on_c, 2, 77, 101
2, 67356, Note_on_c, 2, 69, 102
2, 67476, Note_on_c, 2, 38, 0
2, 67516, Note_on_c, 2, 69, 0
2, 67580, Note_on_c, 2, 77, 0
2, 67716, Note_on_c, 2, 37, 97
2, 67716, Note_on_c, 2, 77, 105
2, 67720, Note_on_c, 2, 71, 111
2, 67876, Note_on_c, 2, 71, 0
2, 67940, Note_on_c, 2, 77, 0
2, 67940, Note_on_c, 2, 37, 0
2, 68080, Note_on_c, 2, 36, 86
2, 68084, Note_on_c, 2, 77, 95
2, 68084, Note_on_c, 2, 70, 104
2, 68084, Note_on_c, 2, 67, 91
2, 68084, Note_on_c, 2, 75, 96
2, 68228, Note_on_c, 2, 36, 0
2, 68272, Note_on_c, 2, 67, 0
2, 68300, Note_on_c, 2, 70, 0
2, 68308, Note_on_c, 2, 75, 0
2, 68308, Note_on_c, 2, 77, 0
2, 68468, Note_on_c, 2, 35, 82
2, 68472, Note_on_c, 2, 73, 103
2, 68472, Note_on_c, 2, 77, 97
2, 68472, Note_on_c, 2, 69, 93
2, 68624, Note_on_c, 2, 35, 0
2, 68664, Note_on_c, 2, 73, 0
2, 68672, Note_on_c, 2, 69, 0
2, 68672, Note_on_c, 2, 77, 0
2, 68756, Note_on_c, 2, 77, 104
2, 68756, Note_on_c, 2, 72, 105
2, 68756, Note_on_c, 2, 74, 103
2, 68852, Note_on_c, 2, 34, 88
2, 68860, Note_on_c, 2, 72, 0
2, 68876, Note_on_c, 2, 74, 0
2, 68904, Note_on_c, 2, 34, 0
2, 68916, Note_on_c, 2, 77, 0
2, 69244, Note_on_c, 2, 58, 95
2, 69244, Note_on_c, 2, 62, 81
2, 69244, Note_on_c, 2, 56, 95
2, 69320, Note_on_c, 2, 58, 0
2, 69328, Note_on_c, 2, 62, 0
2, 69340, Note_on_c, 2, 56, 0
2, 69520, Note_on_c, 2, 82, 113
2, 69520, Note_on_c, 2, 70, 118
2, 69608, Note_on_c, 2, 70, 0
2, 69636, Note_on_c, 2, 39, 95
2, 69640, Note_on_c, 2, 82, 0
2, 69700, Note_on_c, 2, 39, 0
2, 70020, Note_on_c, 2, 54, 98
2, 70020, Note_on_c, 2, 60, 93
2, 70020, Note_on_c, 2, 62, 88
2, 70104, Note_on_c, 2, 62, 0
2, 70104, Note_on_c, 2, 60, 0
2, 70136, Note_on_c, 2, 54, 0
2, 70404, Note_on_c, 2, 38, 92
2, 70480, Note_on_c, 2, 38, 0
2, 70780, Note_on_c, 2, 60, 99
2, 70780, Note_on_c, 2, 54, 100
2, 70780, Note_on_c, 2, 62, 95
2, 70860, Note_on_c, 2, 60, 0
2, 70864, Note_on_c, 2, 62, 0
2, 70888, Note_on_c, 2, 54, 0
2, 71164, Note_on_c, 2, 43, 93
2, 71244, Note_on_c, 2, 43, 0
2, 71380, Note_on_c, 2, 87, 118
2, 71380, Note_on_c, 2, 75, 125
2, 71396, Note_on_c, 2, 82, 82
2, 71420, Note_on_c, 2, 82, 0
2, 71456, Note_on_c, 2, 75, 0
2, 71484, Note_on_c, 2, 87, 0
2, 71520, Note_on_c, 2, 53, 94
2, 71520, Note_on_c, 2, 59, 96
2, 71560, Note_on_c, 2, 87, 121
2, 71560, Note_on_c, 2, 75, 120
2, 71604, Note_on_c, 2, 59, 0
2, 71620, Note_on_c, 2, 53, 0
2, 71684, Note_on_c, 2, 75, 0
2, 71696, Note_on_c, 2, 87, 0
2, 71748, Note_on_c, 2, 87, 107
2, 71752, Note_on_c, 2, 75, 117
2, 71760, Note_on_c, 2, 82, 92
2, 71844, Note_on_c, 2, 75, 0
2, 71844, Note_on_c, 2, 87, 0
2, 71856, Note_on_c, 2, 82, 0
2, 71904, Note_on_c, 2, 36, 97
2, 71928, Note_on_c, 2, 84, 103
2, 71928, Note_on_c, 2, 72, 111
2, 71936, Note_on_c, 2, 83, 99
2, 71976, Note_on_c, 2, 36, 0
2, 72084, Note_on_c, 2, 83, 0
2, 72132, Note_on_c, 2, 72, 0
2, 72136, Note_on_c, 2, 84, 0
2, 72276, Note_on_c, 2, 60, 90
2, 72276, Note_on_c, 2, 54, 96
2, 72280, Note_on_c, 2, 58, 99
2, 72292, Note_on_c, 2, 86, 115
2, 72292, Note_on_c, 2, 81, 106
2, 72296, Note_on_c, 2, 78, 119
2, 72296, Note_on_c, 2, 74, 119
2, 72340, Note_on_c, 2, 58, 0
2, 72340, Note_on_c, 2, 60, 0
2, 72364, Note_on_c, 2, 54, 0
2, 72688, Note_on_c, 2, 41, 94
2, 72776, Note_on_c, 2, 41, 0
2, 73068, Note_on_c, 2, 59, 99
2, 73068, Note_on_c, 2, 57, 101
2, 73068, Note_on_c, 2, 51, 108
2, 73148, Note_on_c, 2, 57, 0
2, 73160, Note_on_c, 2, 59, 0
2, 73180, Note_on_c, 2, 51, 0
2, 73336, Note_on_c, 2, 81, 0
2, 73396, Note_on_c, 2, 74, 0
2, 73408, Note_on_c, 2, 78, 0
2, 73444, Note_on_c, 2, 86, 0
2, 73448, Note_on_c, 2, 46, 106
2, 73528, Note_on_c, 2, 46, 0
2, 73824, Note_on_c, 2, 53, 83
2, 73824, Note_on_c, 2, 62, 78
2, 73828, Note_on_c, 2, 57, 77
2, 73832, Note_on_c, 2, 58, 91
2, 73832, Note_on_c, 2, 81, 108
2, 73888, Note_on_c, 2, 62, 0
2, 73892, Note_on_c, 2, 58, 0
2, 73892, Note_on_c, 2, 57, 0
2, 73912, Note_on_c, 2, 53, 0
2, 74032, Note_on_c, 2, 81, 0
2, 74136, Note_on_c, 2, 82, 66
2, 74176, Note_on_c, 2, 82, 0
2, 74208, Note_on_c, 2, 39, 96
2, 74220, Note_on_c, 2, 84, 106
2, 74272, Note_on_c, 2, 39, 0
2, 74412, Note_on_c, 2, 84, 0
2, 74532, Note_on_c, 2, 82, 56
2, 74572, Note_on_c, 2, 82, 0
2, 74592, Note_on_c, 2, 61, 95
2, 74592, Note_on_c, 2, 55, 84
2, 74604, Note_on_c, 2, 84, 105
2, 74672, Note_on_c, 2, 61, 0
2, 74692, Note_on_c, 2, 55, 0
2, 74812, Note_on_c, 2, 84, 0
2, 74984, Note_on_c, 2, 38, 85
2, 74984, Note_on_c, 2, 80, 94
2, 75056, Note_on_c, 2, 38, 0
2, 75116, Note_on_c, 2, 80, 0
2, 75232, Note_on_c, 2, 92, 109
2, 75232, Note_on_c, 2, 91, 107
2, 75360, Note_on_c, 2, 60, 80
2, 75360, Note_on_c, 2, 62, 77
2, 75360, Note_on_c, 2, 54, 86
2, 75428, Note_on_c, 2, 60, 0
2, 75432, Note_on_c, 2, 62, 0
2, 75444, Note_on_c, 2, 54, 0
2, 75744, Note_on_c, 2, 43, 92
2, 75760, Note_on_c, 2, 91, 0
2, 75784, Note_on_c, 2, 92, 0
2, 75816, Note_on_c, 2, 43, 0
2, 75892, Note_on_c, 2, 91, 69
2, 75936, Note_on_c, 2, 89, 80
2, 75988, Note_on_c, 2, 91, 0
2, 76004, Note_on_c, 2, 87, 89
2, 76040, Note_on_c, 2, 89, 0
2, 76060, Note_on_c, 2, 83, 70
2, 76068, Note_on_c, 2, 87, 0
2, 76100, Note_on_c, 2, 63, 90
2, 76104, Note_on_c, 2, 59, 80
2, 76112, Note_on_c, 2, 53, 73
2, 76132, Note_on_c, 2, 83, 0
2, 76140, Note_on_c, 2, 82, 84
2, 76156, Note_on_c, 2, 63, 0
2, 76164, Note_on_c, 2, 59, 0
2, 76188, Note_on_c, 2, 53, 0
2, 76212, Note_on_c, 2, 80, 76
2, 76220, Note_on_c, 2, 82, 0
2, 76252, Note_on_c, 2, 79, 74
2, 76272, Note_on_c, 2, 80, 0
2, 76320, Note_on_c, 2, 79, 0
2, 76332, Note_on_c, 2, 78, 91
2, 76400, Note_on_c, 2, 77, 76
2, 76412, Note_on_c, 2, 78, 0
2, 76464, Note_on_c, 2, 77, 0
2, 76464, Note_on_c, 2, 76, 32
2, 76480, Note_on_c, 2, 35, 90
2, 76480, Note_on_c, 2, 75, 80
2, 76512, Note_on_c, 2, 76, 0
2, 76536, Note_on_c, 2, 73, 91
2, 76540, Note_on_c, 2, 35, 0
2, 76576, Note_on_c, 2, 75, 0
2, 76600, Note_on_c, 2, 72, 79
2, 76612, Note_on_c, 2, 73, 0
2, 76664, Note_on_c, 2, 72, 0
2, 76684, Note_on_c, 2, 70, 83
2, 76732, Note_on_c, 2, 68, 63
2, 76768, Note_on_c, 2, 70, 0
2, 76788, Note_on_c, 2, 67, 70
2, 76808, Note_on_c, 2, 68, 0
2, 76864, Note_on_c, 2, 60, 80
2, 76868, Note_on_c, 2, 67, 0
2, 76868, Note_on_c, 2, 58, 98
2, 76876, Note_on_c, 2, 66, 82
2, 76928, Note_on_c, 2, 60, 0
2, 76932, Note_on_c, 2, 65, 85
2, 76944, Note_on_c, 2, 66, 0
2, 76944, Note_on_c, 2, 58, 0
2, 77008, Note_on_c, 2, 65, 0
2, 77024, Note_on_c, 2, 63, 78
2, 77076, Note_on_c, 2, 61, 67
2, 77124, Note_on_c, 2, 63, 0
2, 77148, Note_on_c, 2, 60, 88
2, 77184, Note_on_c, 2, 61, 0
2, 77240, Note_on_c, 2, 41, 95
2, 77248, Note_on_c, 2, 42, 90
2, 77276, Note_on_c, 2, 42, 0
2, 77652, Note_on_c, 2, 51, 108
2, 77676, Note_on_c, 2, 41, 0
2, 77804, Note_on_c, 2, 60, 0
2, 77900, Note_on_c, 2, 51, 0
2, 77936, Note_on_c, 2, 65, 112
2, 77936, Note_on_c, 2, 60, 118
2, 78016, Note_on_c, 2, 60, 0
2, 78036, Note_on_c, 2, 38, 97
2, 78056, Note_on_c, 2, 65, 0
2, 78108, Note_on_c, 2, 38, 0
2, 78428, Note_on_c, 2, 60, 95
2, 78428, Note_on_c, 2, 62, 90
2, 78432, Note_on_c, 2, 56, 98
2, 78504, Note_on_c, 2, 60, 0
2, 78508, Note_on_c, 2, 62, 0
2, 78528, Note_on_c, 2, 56, 0
2, 78716, Note_on_c, 2, 71, 110
2, 78716, Note_on_c, 2, 64, 115
2, 78716, Note_on_c, 2, 68, 108
2, 78804, Note_on_c, 2, 64, 0
2, 78812, Note_on_c, 2, 68, 0
2, 78816, Note_on_c, 2, 43, 82
2, 78820, Note_on_c, 2, 53, 84
2, 78832, Note_on_c, 2, 71, 0
2, 78888, Note_on_c, 2, 43, 0
2, 78908, Note_on_c, 2, 53, 0
2, 79208, Note_on_c, 2, 59, 94
2, 79208, Note_on_c, 2, 53, 90
2, 79284, Note_on_c, 2, 59, 0
2, 79304, Note_on_c, 2, 53, 0
2, 79576, Note_on_c, 2, 36, 90
2, 79580, Note_on_c, 2, 52, 85
2, 79652, Note_on_c, 2, 36, 0
2, 79656, Note_on_c, 2, 52, 0
2, 79692, Note_on_c, 2, 62, 63
2, 79744, Note_on_c, 2, 66, 92
2, 79756, Note_on_c, 2, 62, 0
2, 79788, Note_on_c, 2, 66, 0
2, 79800, Note_on_c, 2, 70, 52
2, 79836, Note_on_c, 2, 70, 0
2, 79844, Note_on_c, 2, 71, 57
2, 79852, Note_on_c, 2, 72, 79
2, 79880, Note_on_c, 2, 72, 0
2, 79888, Note_on_c, 2, 71, 0
2, 79888, Note_on_c, 2, 74, 37
2, 79972, Note_on_c, 2, 78, 101
2, 79980, Note_on_c, 2, 74, 0
2, 80008, Note_on_c, 2, 78, 0
2, 80008, Note_on_c, 2, 79, 71
2, 80032, Note_on_c, 2, 82, 89
2, 80048, Note_on_c, 2, 79, 0
2, 80076, Note_on_c, 2, 82, 0
2, 80080, Note_on_c, 2, 85, 77
2, 80108, Note_on_c, 2, 85, 0
2, 80116, Note_on_c, 2, 88, 103
2, 80180, Note_on_c, 2, 88, 0
2, 80184, Note_on_c, 2, 94, 61
2, 80212, Note_on_c, 2, 95, 49
2, 80228, Note_on_c, 2, 94, 0
2, 80236, Note_on_c, 2, 100, 95
2, 80236, Note_on_c, 2, 98, 77
2, 80252, Note_on_c, 2, 95, 0
2, 80260, Note_on_c, 2, 100, 0
2, 80268, Note_on_c, 2, 101, 70
2, 80276, Note_on_c, 2, 98, 0
2, 80304, Note_on_c, 2, 108, 115
2, 80308, Note_on_c, 2, 101, 0
2, 80332, Note_on_c, 2, 41, 100
2, 80336, Note_on_c, 2, 51, 111
2, 80404, Note_on_c, 2, 108, 0
2, 80740, Note_on_c, 2, 48, 97
2, 80804, Note_on_c, 2, 41, 0
2, 80932, Note_on_c, 2, 48, 0
2, 80984, Note_on_c, 2, 51, 0
2, 80992, Note_on_c, 2, 77, 115
2, 80992, Note_on_c, 2, 72, 117
2, 80996, Note_on_c, 2, 73, 112
2, 81036, Note_on_c, 2, 74, 68
2, 81048, Note_on_c, 2, 72, 0
2, 81068, Note_on_c, 2, 73, 0
2, 81368, Note_on_c, 2, 53, 119
2, 81368, Note_on_c, 2, 52, 124
2, 81396, Note_on_c, 2, 74, 0
2, 81412, Note_on_c, 2, 52, 0
2, 81424, Note_on_c, 2, 77, 0
2, 82040, Note_on_c, 2, 53, 0
2, 82140, Note_on_c, 2, 38, 91
2, 82260, Note_on_c, 2, 54, 111
2, 82332, Note_on_c, 2, 38, 0
2, 82516, Note_on_c, 2, 54, 0
2, 82548, Note_on_c, 2, 43, 90
2, 82640, Note_on_c, 2, 52, 99
2, 82768, Note_on_c, 2, 43, 0
2, 82792, Note_on_c, 2, 52, 0
2, 82916, Note_on_c, 2, 74, 119
2, 82916, Note_on_c, 2, 86, 112
2, 82916, Note_on_c, 2, 79, 111
2, 82916, Note_on_c, 2, 82, 112
2, 82964, Note_on_c, 2, 74, 0
2, 82968, Note_on_c, 2, 79, 0
2, 82976, Note_on_c, 2, 82, 0
2, 83000, Note_on_c, 2, 62, 84
2, 83004, Note_on_c, 2, 86, 0
2, 83004, Note_on_c, 2, 58, 96
2, 83004, Note_on_c, 2, 55, 85
2, 83064, Note_on_c, 2, 58, 0
2, 83064, Note_on_c, 2, 62, 0
2, 83080, Note_on_c, 2, 55, 0
2, 83336, Note_on_c, 2, 82, 64
2, 83380, Note_on_c, 2, 82, 0
2, 83396, Note_on_c, 2, 43, 88
2, 83400, Note_on_c, 2, 52, 87
2, 83404, Note_on_c, 2, 86, 106
2, 83408, Note_on_c, 2, 74, 110
2, 83408, Note_on_c, 2, 79, 102
2, 83428, Note_on_c, 2, 82, 55
2, 83456, Note_on_c, 2, 82, 0
2, 83460, Note_on_c, 2, 43, 0
2, 83472, Note_on_c, 2, 52, 0
2, 83648, Note_on_c, 2, 86, 0
2, 83652, Note_on_c, 2, 74, 0
2, 83668, Note_on_c, 2, 79, 0
2, 83708, Note_on_c, 2, 82, 73
2, 83756, Note_on_c, 2, 62, 86
2, 83760, Note_on_c, 2, 82, 0
2, 83760, Note_on_c, 2, 58, 101
2, 83764, Note_on_c, 2, 55, 84
2, 83784, Note_on_c, 2, 79, 105
2, 83816, Note_on_c, 2, 62, 0
2, 83832, Note_on_c, 2, 58, 0
2, 83840, Note_on_c, 2, 55, 0
2, 83964, Note_on_c, 2, 79, 0
2, 84152, Note_on_c, 2, 85, 108
2, 84152, Note_on_c, 2, 39, 108
2, 84156, Note_on_c, 2, 73, 114
2, 84228, Note_on_c, 2, 39, 0
2, 84456, Note_on_c, 2, 73, 0
2, 84456, Note_on_c, 2, 85, 0
2, 84480, Note_on_c, 2, 82, 66
2, 84528, Note_on_c, 2, 61, 94
2, 84532, Note_on_c, 2, 46, 94
2, 84536, Note_on_c, 2, 55, 75
2, 84544, Note_on_c, 2, 82, 0
2, 84552, Note_on_c, 2, 73, 112
2, 84552, Note_on_c, 2, 85, 110
2, 84680, Note_on_c, 2, 55, 0
2, 84700, Note_on_c, 2, 61, 0
2, 84716, Note_on_c, 2, 46, 0
2, 84760, Note_on_c, 2, 85, 0
2, 84768, Note_on_c, 2, 73, 0
2, 84920, Note_on_c, 2, 60, 77
2, 84920, Note_on_c, 2, 45, 70
2, 84928, Note_on_c, 2, 54, 87
2, 84928, Note_on_c, 2, 72, 108
2, 84928, Note_on_c, 2, 84, 106
2, 85028, Note_on_c, 2, 45, 0
2, 85036, Note_on_c, 2, 54, 0
2, 85068, Note_on_c, 2, 60, 0
2, 85108, Note_on_c, 2, 72, 0
2, 85136, Note_on_c, 2, 84, 0
2, 85320, Note_on_c, 2, 54, 96
2, 85324, Note_on_c, 2, 62, 91
2, 85324, Note_on_c, 2, 60, 95
2, 85396, Note_on_c, 2, 60, 0
2, 85396, Note_on_c, 2, 62, 0
2, 85416, Note_on_c, 2, 54, 0
2, 85544, Note_on_c, 2, 73, 108
2, 85544, Note_on_c, 2, 79, 86
2, 85544, Note_on_c, 2, 82, 93
2, 85556, Note_on_c, 2, 86, 78
2, 85632, Note_on_c, 2, 73, 0
2, 85660, Note_on_c, 2, 86, 0
2, 85668, Note_on_c, 2, 82, 0
2, 85668, Note_on_c, 2, 79, 0
2, 85708, Note_on_c, 2, 43, 80
2, 85708, Note_on_c, 2, 52, 78
2, 85716, Note_on_c, 2, 82, 75
2, 85724, Note_on_c, 2, 79, 69
2, 85724, Note_on_c, 2, 86, 93
2, 85728, Note_on_c, 2, 74, 84
2, 85776, Note_on_c, 2, 52, 0
2, 85776, Note_on_c, 2, 43, 0
2, 85840, Note_on_c, 2, 74, 0
2, 85844, Note_on_c, 2, 86, 0
2, 85848, Note_on_c, 2, 79, 0
2, 85860, Note_on_c, 2, 82, 0
2, 85916, Note_on_c, 2, 82, 77
2, 85916, Note_on_c, 2, 74, 96
2, 85916, Note_on_c, 2, 86, 94
2, 85920, Note_on_c, 2, 79, 84
2, 86012, Note_on_c, 2, 74, 0
2, 86024, Note_on_c, 2, 79, 0
2, 86028, Note_on_c, 2, 86, 0
2, 86028, Note_on_c, 2, 82, 0
2, 86064, Note_on_c, 2, 55, 84
2, 86064, Note_on_c, 2, 58, 94
2, 86064, Note_on_c, 2, 62, 81
2, 86072, Note_on_c, 2, 82, 88
2, 86076, Note_on_c, 2, 86, 87
2, 86076, Note_on_c, 2, 74, 95
2, 86076, Note_on_c, 2, 79, 82
2, 86132, Note_on_c, 2, 62, 0
2, 86132, Note_on_c, 2, 58, 0
2, 86160, Note_on_c, 2, 55, 0
2, 86212, Note_on_c, 2, 74, 0
2, 86224, Note_on_c, 2, 79, 0
2, 86228, Note_on_c, 2, 86, 0
2, 86228, Note_on_c, 2, 82, 0
2, 86300, Note_on_c, 2, 74, 97
2, 86300, Note_on_c, 2, 82, 86
2, 86300, Note_on_c, 2, 86, 96
2, 86300, Note_on_c, 2, 79, 85
2, 86384, Note_on_c, 2, 74, 0
2, 86396, Note_on_c, 2, 79, 0
2, 86396, Note_on_c, 2, 86, 0
2, 86400, Note_on_c, 2, 82, 0
2, 86440, Note_on_c, 2, 43, 89
2, 86452, Note_on_c, 2, 82, 89
2, 86452, Note_on_c, 2, 74, 103
2, 86452, Note_on_c, 2, 86, 99
2, 86456, Note_on_c, 2, 79, 97
2, 86520, Note_on_c, 2, 43, 0
2, 86592, Note_on_c, 2, 79, 0
2, 86592, Note_on_c, 2, 86, 0
2, 86600, Note_on_c, 2, 82, 0
2, 86608, Note_on_c, 2, 74, 0
2, 86816, Note_on_c, 2, 65, 92
2, 86820, Note_on_c, 2, 61, 97
2, 86820, Note_on_c, 2, 58, 97
2, 86900, Note_on_c, 2, 65, 0
2, 86908, Note_on_c, 2, 61, 0
2, 86924, Note_on_c, 2, 58, 0
2, 87216, Note_on_c, 2, 37, 104
2, 87216, Note_on_c, 2, 85, 116
2, 87216, Note_on_c, 2, 73, 116
2, 87280, Note_on_c, 2, 37, 0
2, 87360, Note_on_c, 2, 73, 0
2, 87388, Note_on_c, 2, 85, 0
2, 87596, Note_on_c, 2, 60, 86
2, 87596, Note_on_c, 2, 58, 100
2, 87680, Note_on_c, 2, 60, 0
2, 87696, Note_on_c, 2, 58, 0
2, 87976, Note_on_c, 2, 48, 90
2, 87976, Note_on_c, 2, 58, 96
2, 88264, Note_on_c, 2, 67, 112
2, 88264, Note_on_c, 2, 73, 119
2, 88264, Note_on_c, 2, 69, 110
2, 88340, Note_on_c, 2, 69, 0
2, 88352, Note_on_c, 2, 67, 0
2, 88360, Note_on_c, 2, 52, 93
2, 88372, Note_on_c, 2, 73, 0
2, 88440, Note_on_c, 2, 48, 0
2, 88448, Note_on_c, 2, 58, 0
2, 88464, Note_on_c, 2, 52, 0
2, 88652, Note_on_c, 2, 70, 77
2, 88736, Note_on_c, 2, 70, 0
2, 88748, Note_on_c, 2, 41, 91
2, 88752, Note_on_c, 2, 68, 104
2, 88756, Note_on_c, 2, 67, 95
2, 88760, Note_on_c, 2, 71, 63
2, 88760, Note_on_c, 2, 72, 101
2, 88796, Note_on_c, 2, 71, 0
2, 88824, Note_on_c, 2, 41, 0
2, 88876, Note_on_c, 2, 68, 0
2, 88880, Note_on_c, 2, 67, 0
2, 88896, Note_on_c, 2, 72, 0
2, 89124, Note_on_c, 2, 60, 83
2, 89132, Note_on_c, 2, 58, 92
2, 89132, Note_on_c, 2, 56, 84
2, 89132, Note_on_c, 2, 67, 93
2, 89132, Note_on_c, 2, 68, 104
2, 89136, Note_on_c, 2, 73, 104
2, 89212, Note_on_c, 2, 60, 0
2, 89220, Note_on_c, 2, 58, 0
2, 89236, Note_on_c, 2, 56, 0
2, 89300, Note_on_c, 2, 67, 0
2, 89304, Note_on_c, 2, 68, 0
2, 89320, Note_on_c, 2, 73, 0
2, 89512, Note_on_c, 2, 38, 85
2, 89520, Note_on_c, 2, 65, 87
2, 89520, Note_on_c, 2, 68, 96
2, 89592, Note_on_c, 2, 38, 0
2, 89716, Note_on_c, 2, 65, 0
2, 89736, Note_on_c, 2, 68, 0
2, 89788, Note_on_c, 2, 67, 53
2, 89796, Note_on_c, 2, 70, 71
2, 89840, Note_on_c, 2, 70, 0
2, 89840, Note_on_c, 2, 67, 0
2, 89884, Note_on_c, 2, 60, 97
2, 89888, Note_on_c, 2, 56, 98
2, 89888, Note_on_c, 2, 58, 103
2, 89896, Note_on_c, 2, 65, 119
2, 89896, Note_on_c, 2, 72, 115
2, 89900, Note_on_c, 2, 69, 104
2, 89904, Note_on_c, 2, 67, 96
2, 89940, Note_on_c, 2, 67, 0
2, 89948, Note_on_c, 2, 60, 0
2, 89956, Note_on_c, 2, 58, 0
2, 89972, Note_on_c, 2, 56, 0
2, 90276, Note_on_c, 2, 53, 91
2, 90280, Note_on_c, 2, 43, 89
2, 90320, Note_on_c, 2, 69, 0
2, 90344, Note_on_c, 2, 65, 0
2, 90400, Note_on_c, 2, 72, 0
2, 90668, Note_on_c, 2, 49, 110
2, 90672, Note_on_c, 2, 43, 0
2, 90716, Note_on_c, 2, 53, 0
2, 90760, Note_on_c, 2, 49, 0
2, 90912, Note_on_c, 2, 72, 94
2, 90912, Note_on_c, 2, 64, 100
2, 90912, Note_on_c, 2, 63, 101
2, 90916, Note_on_c, 2, 68, 93
2, 91032, Note_on_c, 2, 63, 0
2, 91032, Note_on_c, 2, 52, 76
2, 91036, Note_on_c, 2, 64, 0
2, 91036, Note_on_c, 2, 36, 77
2, 91052, Note_on_c, 2, 68, 0
2, 91068, Note_on_c, 2, 72, 0
2, 91420, Note_on_c, 2, 42, 106
2, 91428, Note_on_c, 2, 60, 111
2, 91432, Note_on_c, 2, 63, 122
2, 91444, Note_on_c, 2, 36, 0
2, 91452, Note_on_c, 2, 52, 0
2, 91484, Note_on_c, 2, 42, 0
2, 91784, Note_on_c, 2, 63, 0
2, 91792, Note_on_c, 2, 60, 0
2, 92032, Note_on_c, 2, 57, 85
2, 92032, Note_on_c, 2, 59, 93
2, 92036, Note_on_c, 2, 51, 95
2, 92164, Note_on_c, 2, 59, 0
2, 92164, Note_on_c, 2, 57, 0
2, 92176, Note_on_c, 2, 51, 0
2, 92284, Note_on_c, 2, 41, 89
2, 92292, Note_on_c, 2, 57, 108
2, 92292, Note_on_c, 2, 65, 106
2, 92296, Note_on_c, 2, 59, 106
2, 92380, Note_on_c, 2, 41, 0
2, 92428, Note_on_c, 2, 59, 0
2, 92428, Note_on_c, 2, 57, 0
2, 92460, Note_on_c, 2, 65, 0
2, 92552, Note_on_c, 2, 57, 106
2, 92552, Note_on_c, 2, 63, 112
2, 92556, Note_on_c, 2, 59, 106
2, 92568, Note_on_c, 2, 52, 95
2, 92568, Note_on_c, 2, 42, 103
2, 92664, Note_on_c, 2, 42, 0
2, 92680, Note_on_c, 2, 52, 0
2, 92684, Note_on_c, 2, 59, 0
2, 92700, Note_on_c, 2, 57, 0
2, 92712, Note_on_c, 2, 63, 0
2, 93172, Note_on_c, 2, 52, 83
2, 93172, Note_on_c, 2, 42, 93
2, 93176, Note_on_c, 2, 56, 96
2, 93176, Note_on_c, 2, 58, 102
2, 93180, Note_on_c, 2, 61, 99
2, 93232, Note_on_c, 2, 52, 0
2, 93264, Note_on_c, 2, 42, 0
2, 93276, Note_on_c, 2, 58, 0
2, 93280, Note_on_c, 2, 56, 0
2, 93296, Note_on_c, 2, 61, 0
2, 93360, Note_on_c, 2, 57, 106
2, 93360, Note_on_c, 2, 55, 94
2, 93364, Note_on_c, 2, 51, 106
2, 93480, Note_on_c, 2, 51, 0
2, 93480, Note_on_c, 2, 55, 0
2, 93484, Note_on_c, 2, 57, 0
2, 93548, Note_on_c, 2, 55, 95
2, 93548, Note_on_c, 2, 57, 105
2, 93556, Note_on_c, 2, 51, 102
2, 93652, Note_on_c, 2, 51, 0
2, 93656, Note_on_c, 2, 55, 0
2, 93664, Note_on_c, 2, 57, 0
2, 93724, Note_on_c, 2, 55, 99
2, 93724, Note_on_c, 2, 51, 106
2, 93724, Note_on_c, 2, 57, 101
2, 93840, Note_on_c, 2, 57, 0
2, 93848, Note_on_c, 2, 55, 0
2, 94084, Note_on_c, 2, 41, 99
2, 94300, Note_on_c, 2, 71, 122
2, 94300, Note_on_c, 2, 77, 117
2, 94440, Note_on_c, 2, 71, 0
2, 94460, Note_on_c, 2, 77, 0
2, 94480, Note_on_c, 2, 48, 93
2, 94492, Note_on_c, 2, 69, 96
2, 94500, Note_on_c, 2, 75, 109
2, 94528, Note_on_c, 2, 41, 0
2, 94544, Note_on_c, 2, 51, 0
2, 94560, Note_on_c, 2, 48, 0
2, 94828, Note_on_c, 2, 75, 0
2, 94852, Note_on_c, 2, 69, 0
2, 94852, Note_on_c, 2, 38, 106
2, 94936, Note_on_c, 2, 38, 0
2, 95248, Note_on_c, 2, 62, 89
2, 95248, Note_on_c, 2, 54, 99
2, 95252, Note_on_c, 2, 60, 93
2, 95252, Note_on_c, 2, 66, 108
2, 95256, Note_on_c, 2, 74, 97
2, 95336, Note_on_c, 2, 60, 0
2, 95344, Note_on_c, 2, 62, 0
2, 95368, Note_on_c, 2, 54, 0
2, 95520, Note_on_c, 2, 74, 0
2, 95532, Note_on_c, 2, 66, 0
2, 95548, Note_on_c, 2, 73, 69
2, 95628, Note_on_c, 2, 43, 91
2, 95636, Note_on_c, 2, 73, 0
2, 95640, Note_on_c, 2, 74, 96
2, 95716, Note_on_c, 2, 43, 0
2, 95840, Note_on_c, 2, 74, 0
2, 95920, Note_on_c, 2, 75, 121
2, 95920, Note_on_c, 2, 65, 112
2, 96008, Note_on_c, 2, 53, 89
2, 96012, Note_on_c, 2, 59, 94
2, 96088, Note_on_c, 2, 59, 0
2, 96112, Note_on_c, 2, 53, 0
2, 96192, Note_on_c, 2, 75, 0
2, 96296, Note_on_c, 2, 65, 0
2, 96396, Note_on_c, 2, 36, 94
2, 96400, Note_on_c, 2, 64, 111
2, 96404, Note_on_c, 2, 72, 104
2, 96472, Note_on_c, 2, 36, 0
2, 96652, Note_on_c, 2, 72, 0
2, 96692, Note_on_c, 2, 71, 59
2, 96708, Note_on_c, 2, 64, 0
2, 96768, Note_on_c, 2, 42, 99
2, 96768, Note_on_c, 2, 52, 90
2, 96784, Note_on_c, 2, 64, 104
2, 96784, Note_on_c, 2, 72, 103
2, 96808, Note_on_c, 2, 71, 0
2, 96956, Note_on_c, 2, 72, 0
2, 96956, Note_on_c, 2, 42, 0
2, 96964, Note_on_c, 2, 52, 0
2, 96968, Note_on_c, 2, 64, 0
2, 97152, Note_on_c, 2, 74, 107
2, 97152, Note_on_c, 2, 51, 100
2, 97152, Note_on_c, 2, 68, 108
2, 97156, Note_on_c, 2, 69, 97
2, 97292, Note_on_c, 2, 51, 0
2, 97532, Note_on_c, 2, 41, 99
2, 97572, Note_on_c, 2, 68, 0
2, 97584, Note_on_c, 2, 74, 0
2, 97620, Note_on_c, 2, 69, 0
2, 97908, Note_on_c, 2, 51, 98
2, 97920, Note_on_c, 2, 68, 117
2, 97920, Note_on_c, 2, 69, 108
2, 97920, Note_on_c, 2, 74, 110
2, 97968, Note_on_c, 2, 41, 0
2, 98040, Note_on_c, 2, 51, 0
2, 98092, Note_on_c, 2, 69, 0
2, 98116, Note_on_c, 2, 74, 0
2, 98120, Note_on_c, 2, 68, 0
2, 98296, Note_on_c, 2, 46, 92
2, 98296, Note_on_c, 2, 55, 83
2, 98304, Note_on_c, 2, 70, 117
2, 98308, Note_on_c, 2, 65, 106
2, 98408, Note_on_c, 2, 46, 0
2, 98428, Note_on_c, 2, 55, 0
2, 98700, Note_on_c, 2, 39, 110
2, 98784, Note_on_c, 2, 65, 0
2, 98820, Note_on_c, 2, 70, 0
2, 98924, Note_on_c, 2, 39, 0
2, 99060, Note_on_c, 2, 55, 86
2, 99072, Note_on_c, 2, 70, 119
2, 99072, Note_on_c, 2, 65, 110
2, 99164, Note_on_c, 2, 55, 0
2, 99336, Note_on_c, 2, 70, 0
2, 99348, Note_on_c, 2, 69, 68
2, 99400, Note_on_c, 2, 65, 0
2, 99432, Note_on_c, 2, 53, 91
2, 99448, Note_on_c, 2, 70, 106
2, 99468, Note_on_c, 2, 69, 0
2, 99636, Note_on_c, 2, 70, 0
2, 99728, Note_on_c, 2, 72, 112
2, 99728, Note_on_c, 2, 65, 114
2, 99828, Note_on_c, 2, 38, 99
2, 99844, Note_on_c, 2, 72, 0
2, 99848, Note_on_c, 2, 65, 0
2, 99980, Note_on_c, 2, 53, 0
2, 99996, Note_on_c, 2, 38, 0
2, 100116, Note_on_c, 2, 69, 105
2, 100116, Note_on_c, 2, 64, 116
2, 100224, Note_on_c, 2, 37, 101
2, 100248, Note_on_c, 2, 64, 0
2, 100260, Note_on_c, 2, 69, 0
2, 100500, Note_on_c, 2, 68, 111
2, 100504, Note_on_c, 2, 59, 106
2, 100608, Note_on_c, 2, 52, 88
2, 100620, Note_on_c, 2, 37, 0
2, 100792, Note_on_c, 2, 59, 0
2, 100856, Note_on_c, 2, 68, 0
2, 100996, Note_on_c, 2, 67, 106
2, 100996, Note_on_c, 2, 68, 112
2, 101012, Note_on_c, 2, 37, 91
2, 101164, Note_on_c, 2, 52, 0
2, 101192, Note_on_c, 2, 37, 0
2, 101216, Note_on_c, 2, 68, 0
2, 101216, Note_on_c, 2, 67, 0
2, 101372, Note_on_c, 2, 51, 98
2, 101372, Note_on_c, 2, 67, 116
2, 101616, Note_on_c, 2, 67, 0
2, 101732, Note_on_c, 2, 36, 93
2, 101748, Note_on_c, 2, 65, 110
2, 101912, Note_on_c, 2, 36, 0
2, 102004, Note_on_c, 2, 51, 0
2, 102084, Note_on_c, 2, 65, 0
2, 102124, Note_on_c, 2, 70, 112
2, 102128, Note_on_c, 2, 53, 90
2, 102188, Note_on_c, 2, 69, 59
2, 102284, Note_on_c, 2, 69, 0
2, 102284, Note_on_c, 2, 70, 0
2, 102568, Note_on_c, 2, 53, 0
2, 102788, Note_on_c, 2, 64, 113
2, 102788, Note_on_c, 2, 73, 119
2, 102796, Note_on_c, 2, 39, 106
2, 102964, Note_on_c, 2, 64, 0
2, 102996, Note_on_c, 2, 73, 0
2, 103032, Note_on_c, 2, 39, 0
2, 103168, Note_on_c, 2, 74, 113
2, 103168, Note_on_c, 2, 65, 115
2, 103168, Note_on_c, 2, 38, 97
2, 103168, Note_on_c, 2, 70, 111
2, 103380, Note_on_c, 2, 65, 0
2, 103384, Note_on_c, 2, 74, 0
2, 103388, Note_on_c, 2, 70, 0
2, 103560, Note_on_c, 2, 38, 0
2, 103564, Note_on_c, 2, 65, 110
2, 103580, Note_on_c, 2, 53, 95
2, 103688, Note_on_c, 2, 67, 86
2, 103744, Note_on_c, 2, 65, 0
2, 103820, Note_on_c, 2, 67, 0
2, 103936, Note_on_c, 2, 73, 115
2, 103936, Note_on_c, 2, 69, 108
2, 104044, Note_on_c, 2, 43, 94
2, 104088, Note_on_c, 2, 69, 0
2, 104108, Note_on_c, 2, 43, 0
2, 104112, Note_on_c, 2, 73, 0
2, 104140, Note_on_c, 2, 53, 0
2, 104312, Note_on_c, 2, 65, 114
2, 104312, Note_on_c, 2, 70, 114
2, 104312, Note_on_c, 2, 74, 110
2, 104416, Note_on_c, 2, 53, 90
2, 104416, Note_on_c, 2, 59, 94
2, 104508, Note_on_c, 2, 59, 0
2, 104528, Note_on_c, 2, 53, 0
2, 104824, Note_on_c, 2, 53, 106
2, 104976, Note_on_c, 2, 53, 0
2, 105196, Note_on_c, 2, 65, 0
2, 105200, Note_on_c, 2, 50, 97
2, 105200, Note_on_c, 2, 35, 97
2, 105224, Note_on_c, 2, 70, 0
2, 105228, Note_on_c, 2, 74, 0
2, 105380, Note_on_c, 2, 50, 0
2, 105388, Note_on_c, 2, 35, 0
2, 105580, Note_on_c, 2, 36, 81
2, 105584, Note_on_c, 2, 51, 103
2, 105588, Note_on_c, 2, 77, 112
2, 105588, Note_on_c, 2, 67, 111
2, 105588, Note_on_c, 2, 70, 117
2, 105760, Note_on_c, 2, 70, 0
2, 105764, Note_on_c, 2, 67, 0
2, 105772, Note_on_c, 2, 77, 0
2, 105956, Note_on_c, 2, 43, 82
2, 106000, Note_on_c, 2, 51, 0
2, 106012, Note_on_c, 2, 36, 0
2, 106292, Note_on_c, 2, 43, 0
2, 106344, Note_on_c, 2, 65, 118
2, 106344, Note_on_c, 2, 74, 114
2, 106344, Note_on_c, 2, 70, 115
2, 106356, Note_on_c, 2, 42, 107
2, 106520, Note_on_c, 2, 70, 0
2, 106524, Note_on_c, 2, 74, 0
2, 106544, Note_on_c, 2, 65, 0
2, 106712, Note_on_c, 2, 42, 0
2, 106732, Note_on_c, 2, 39, 109
2, 107120, Note_on_c, 2, 41, 92
2, 107120, Note_on_c, 2, 69, 106
2, 107124, Note_on_c, 2, 39, 0
2, 107124, Note_on_c, 2, 60, 112
2, 107124, Note_on_c, 2, 66, 112
2, 107124, Note_on_c, 2, 63, 112
2, 107272, Note_on_c, 2, 60, 0
2, 107296, Note_on_c, 2, 63, 0
2, 107296, Note_on_c, 2, 66, 0
2, 107324, Note_on_c, 2, 69, 0
2, 107484, Note_on_c, 2, 29, 102
2, 107748, Note_on_c, 2, 29, 0
2, 107780, Note_on_c, 2, 41, 0
2, 107884, Note_on_c, 2, 74, 102
2, 107884, Note_on_c, 2, 66, 107
2, 107888, Note_on_c, 2, 69, 89
2, 107888, Note_on_c, 2, 63, 115
2, 108072, Note_on_c, 2, 63, 0
2, 108092, Note_on_c, 2, 74, 0
2, 108100, Note_on_c, 2, 69, 0
2, 108104, Note_on_c, 2, 66, 0
2, 108128, Note_on_c, 2, 53, 121
2, 108128, Note_on_c, 2, 52, 119
2, 108184, Note_on_c, 2, 52, 0
2, 108636, Note_on_c, 2, 41, 93
2, 108664, Note_on_c, 2, 62, 57
2, 108720, Note_on_c, 2, 62, 0
2, 109012, Note_on_c, 2, 62, 97
2, 109132, Note_on_c, 2, 62, 0
2, 109220, Note_on_c, 2, 63, 91
2, 109308, Note_on_c, 2, 63, 0
2, 109396, Note_on_c, 2, 66, 110
2, 109544, Note_on_c, 2, 66, 0
2, 109588, Note_on_c, 2, 70, 99
2, 109656, Note_on_c, 2, 70, 0
2, 109768, Note_on_c, 2, 74, 106
2, 109920, Note_on_c, 2, 74, 0
2, 109968, Note_on_c, 2, 75, 100
2, 110036, Note_on_c, 2, 75, 0
2, 110148, Note_on_c, 2, 74, 104
2, 110152, Note_on_c, 2, 82, 108
2, 110152, Note_on_c, 2, 78, 103
2, 110152, Note_on_c, 2, 75, 100
2, 110212, Note_on_c, 2, 75, 0
2, 110220, Note_on_c, 2, 74, 0
2, 110228, Note_on_c, 2, 78, 0
2, 110236, Note_on_c, 2, 82, 0
2, 110344, Note_on_c, 2, 82, 105
2, 110344, Note_on_c, 2, 74, 97
2, 110344, Note_on_c, 2, 78, 99
2, 110344, Note_on_c, 2, 75, 99
2, 110404, Note_on_c, 2, 75, 0
2, 110408, Note_on_c, 2, 74, 0
2, 110420, Note_on_c, 2, 78, 0
2, 110428, Note_on_c, 2, 82, 0
2, 110532, Note_on_c, 2, 82, 115
2, 110532, Note_on_c, 2, 74, 113
2, 110536, Note_on_c, 2, 78, 110
2, 110536, Note_on_c, 2, 75, 110
2, 110588, Note_on_c, 2, 53, 0
2, 110624, Note_on_c, 2, 78, 0
2, 110628, Note_on_c, 2, 82, 0
2, 110632, Note_on_c, 2, 75, 0
2, 110652, Note_on_c, 2, 74, 0
2, 110900, Note_on_c, 2, 51, 104
2, 110916, Note_on_c, 2, 41, 0
2, 111288, Note_on_c, 2, 39, 101
2, 111384, Note_on_c, 2, 62, 61
2, 111392, Note_on_c, 2, 39, 0
2, 111400, Note_on_c, 2, 51, 0
2, 111444, Note_on_c, 2, 63, 83
2, 111492, Note_on_c, 2, 62, 0
2, 111504, Note_on_c, 2, 66, 85
2, 111528, Note_on_c, 2, 63, 0
2, 111580, Note_on_c, 2, 70, 99
2, 111600, Note_on_c, 2, 66, 0
2, 111624, Note_on_c, 2, 70, 0
2, 111688, Note_on_c, 2, 38, 104
2, 111704, Note_on_c, 2, 74, 124
2, 111752, Note_on_c, 2, 38, 0
2, 111828, Note_on_c, 2, 74, 0
2, 112092, Note_on_c, 2, 60, 88
2, 112092, Note_on_c, 2, 62, 86
2, 112092, Note_on_c, 2, 54, 92
2, 112172, Note_on_c, 2, 62, 0
2, 112172, Note_on_c, 2, 60, 0
2, 112192, Note_on_c, 2, 54, 0
2, 112368, Note_on_c, 2, 85, 106
2, 112380, Note_on_c, 2, 86, 93
2, 112380, Note_on_c, 2, 74, 106
2, 112452, Note_on_c, 2, 74, 0
2, 112452, Note_on_c, 2, 85, 0
2, 112480, Note_on_c, 2, 43, 88
2, 112504, Note_on_c, 2, 86, 0
2, 112552, Note_on_c, 2, 43, 0
2, 112856, Note_on_c, 2, 53, 90
2, 112856, Note_on_c, 2, 62, 85
2, 112856, Note_on_c, 2, 59, 91
2, 112932, Note_on_c, 2, 62, 0
2, 112940, Note_on_c, 2, 59, 0
2, 112960, Note_on_c, 2, 53, 0
2, 113232, Note_on_c, 2, 36, 95
2, 113308, Note_on_c, 2, 36, 0
2, 113560, Note_on_c, 2, 82, 66
2, 113612, Note_on_c, 2, 82, 0
2, 113616, Note_on_c, 2, 52, 93
2, 113616, Note_on_c, 2, 60, 92
2, 113616, Note_on_c, 2, 58, 103
2, 113632, Note_on_c, 2, 84, 99
2, 113632, Note_on_c, 2, 72, 109
2, 113692, Note_on_c, 2, 58, 0
2, 113696, Note_on_c, 2, 60, 0
2, 113716, Note_on_c, 2, 52, 0
2, 113752, Note_on_c, 2, 72, 0
2, 113772, Note_on_c, 2, 84, 0
2, 113904, Note_on_c, 2, 85, 105
2, 113904, Note_on_c, 2, 73, 108
2, 113988, Note_on_c, 2, 73, 0
2, 113988, Note_on_c, 2, 41, 87
2, 113992, Note_on_c, 2, 85, 0
2, 114016, Note_on_c, 2, 74, 91
2, 114016, Note_on_c, 2, 86, 95
2, 114068, Note_on_c, 2, 41, 0
2, 114132, Note_on_c, 2, 74, 0
2, 114136, Note_on_c, 2, 86, 0
2, 114272, Note_on_c, 2, 73, 106
2, 114280, Note_on_c, 2, 85, 106
2, 114356, Note_on_c, 2, 73, 0
2, 114364, Note_on_c, 2, 85, 0
2, 114364, Note_on_c, 2, 57, 82
2, 114364, Note_on_c, 2, 51, 91
2, 114368, Note_on_c, 2, 59, 80
2, 114388, Note_on_c, 2, 72, 93
2, 114388, Note_on_c, 2, 84, 94
2, 114444, Note_on_c, 2, 57, 0
2, 114452, Note_on_c, 2, 59, 0
2, 114464, Note_on_c, 2, 51, 0
2, 114520, Note_on_c, 2, 72, 0
2, 114536, Note_on_c, 2, 84, 0
2, 114652, Note_on_c, 2, 83, 101
2, 114656, Note_on_c, 2, 71, 100
2, 114708, Note_on_c, 2, 83, 0
2, 114712, Note_on_c, 2, 71, 0
2, 114752, Note_on_c, 2, 46, 98
2, 114772, Note_on_c, 2, 82, 101
2, 114776, Note_on_c, 2, 70, 102
2, 114824, Note_on_c, 2, 46, 0
2, 115004, Note_on_c, 2, 82, 0
2, 115012, Note_on_c, 2, 70, 0
2, 115072, Note_on_c, 2, 80, 67
2, 115116, Note_on_c, 2, 80, 0
2, 115132, Note_on_c, 2, 62, 80
2, 115132, Note_on_c, 2, 53, 77
2, 115136, Note_on_c, 2, 56, 91
2, 115136, Note_on_c, 2, 58, 90
2, 115148, Note_on_c, 2, 82, 107
2, 115148, Note_on_c, 2, 70, 110
2, 115196, Note_on_c, 2, 58, 0
2, 115200, Note_on_c, 2, 62, 0
2, 115212, Note_on_c, 2, 56, 0
2, 115220, Note_on_c, 2, 53, 0
2, 115268, Note_on_c, 2, 70, 0
2, 115328, Note_on_c, 2, 82, 0
2, 115520, Note_on_c, 2, 39, 103
2, 115524, Note_on_c, 2, 77, 96
2, 115600, Note_on_c, 2, 39, 0
2, 115712, Note_on_c, 2, 77, 0
2, 115904, Note_on_c, 2, 55, 85
2, 115904, Note_on_c, 2, 61, 100
2, 116000, Note_on_c, 2, 61, 0
2, 116020, Note_on_c, 2, 55, 0
2, 116288, Note_on_c, 2, 38, 92
2, 116368, Note_on_c, 2, 38, 0
2, 116672, Note_on_c, 2, 60, 79
2, 116672, Note_on_c, 2, 54, 84
2, 116672, Note_on_c, 2, 62, 70
2, 116740, Note_on_c, 2, 60, 0
2, 116744, Note_on_c, 2, 62, 0
2, 116760, Note_on_c, 2, 54, 0
2, 117048, Note_on_c, 2, 43, 88
2, 117052, Note_on_c, 2, 53, 87
2, 117068, Note_on_c, 2, 82, 104
2, 117108, Note_on_c, 2, 43, 0
2, 117124, Note_on_c, 2, 53, 0
2, 117136, Note_on_c, 2, 80, 85
2, 117180, Note_on_c, 2, 82, 0
2, 117192, Note_on_c, 2, 75, 86
2, 117220, Note_on_c, 2, 80, 0
2, 117240, Note_on_c, 2, 71, 50
2, 117256, Note_on_c, 2, 75, 0
2, 117300, Note_on_c, 2, 71, 0
2, 117304, Note_on_c, 2, 82, 104
2, 117368, Note_on_c, 2, 80, 84
2, 117416, Note_on_c, 2, 63, 91
2, 117420, Note_on_c, 2, 59, 79
2, 117424, Note_on_c, 2, 53, 71
2, 117436, Note_on_c, 2, 75, 86
2, 117444, Note_on_c, 2, 82, 0
2, 117472, Note_on_c, 2, 80, 0
2, 117476, Note_on_c, 2, 63, 0
2, 117480, Note_on_c, 2, 59, 0
2, 117488, Note_on_c, 2, 71, 57
2, 117512, Note_on_c, 2, 53, 0
2, 117516, Note_on_c, 2, 75, 0
2, 117568, Note_on_c, 2, 71, 0
2, 117572, Note_on_c, 2, 82, 101
2, 117628, Note_on_c, 2, 80, 86
2, 117680, Note_on_c, 2, 78, 52
2, 117696, Note_on_c, 2, 82, 0
2, 117696, Note_on_c, 2, 75, 85
2, 117724, Note_on_c, 2, 78, 0
2, 117740, Note_on_c, 2, 80, 0
2, 117756, Note_on_c, 2, 71, 72
2, 117784, Note_on_c, 2, 75, 0
2, 117800, Note_on_c, 2, 36, 93
2, 117836, Note_on_c, 2, 71, 0
2, 117836, Note_on_c, 2, 82, 110
2, 117872, Note_on_c, 2, 36, 0
2, 118040, Note_on_c, 2, 82, 0
2, 118080, Note_on_c, 2, 69, 111
2, 118164, Note_on_c, 2, 58, 102
2, 118168, Note_on_c, 2, 60, 88
2, 118176, Note_on_c, 2, 52, 84
2, 118272, Note_on_c, 2, 58, 0
2, 118280, Note_on_c, 2, 60, 0
2, 118304, Note_on_c, 2, 52, 0
2, 118572, Note_on_c, 2, 43, 91
2, 118664, Note_on_c, 2, 43, 0
2, 118964, Note_on_c, 2, 52, 90
2, 118964, Note_on_c, 2, 60, 89
2, 118964, Note_on_c, 2, 58, 101
2, 119064, Note_on_c, 2, 58, 0
2, 119068, Note_on_c, 2, 60, 0
2, 119088, Note_on_c, 2, 52, 0
2, 119356, Note_on_c, 2, 43, 93
2, 119444, Note_on_c, 2, 43, 0
2, 119724, Note_on_c, 2, 69, 0
2, 119744, Note_on_c, 2, 63, 97
2, 119748, Note_on_c, 2, 59, 88
2, 119748, Note_on_c, 2, 53, 88
2, 119824, Note_on_c, 2, 63, 0
2, 119836, Note_on_c, 2, 59, 0
2, 119868, Note_on_c, 2, 53, 0
2, 120112, Note_on_c, 2, 38, 94
2, 120228, Note_on_c, 2, 38, 0
2, 120248, Note_on_c, 2, 82, 77
2, 120292, Note_on_c, 2, 80, 81
2, 120328, Note_on_c, 2, 78, 74
2, 120348, Note_on_c, 2, 75, 90
2, 120352, Note_on_c, 2, 82, 0
2, 120376, Note_on_c, 2, 80, 0
2, 120384, Note_on_c, 2, 78, 0
2, 120388, Note_on_c, 2, 71, 74
2, 120432, Note_on_c, 2, 75, 0
2, 120460, Note_on_c, 2, 82, 106
2, 120496, Note_on_c, 2, 71, 0
2, 120512, Note_on_c, 2, 37, 98
2, 120520, Note_on_c, 2, 44, 98
2, 120532, Note_on_c, 2, 80, 87
2, 120572, Note_on_c, 2, 78, 78
2, 120604, Note_on_c, 2, 82, 0
2, 120620, Note_on_c, 2, 44, 0
2, 120620, Note_on_c, 2, 37, 0
2, 120620, Note_on_c, 2, 75, 78
2, 120640, Note_on_c, 2, 80, 0
2, 120652, Note_on_c, 2, 71, 67
2, 120660, Note_on_c, 2, 78, 0
2, 120704, Note_on_c, 2, 75, 0
2, 120720, Note_on_c, 2, 82, 103
2, 120748, Note_on_c, 2, 71, 0
2, 120764, Note_on_c, 2, 80, 79
2, 120800, Note_on_c, 2, 78, 82
2, 120848, Note_on_c, 2, 75, 86
2, 120852, Note_on_c, 2, 82, 0
2, 120868, Note_on_c, 2, 36, 93
2, 120872, Note_on_c, 2, 80, 0
2, 120876, Note_on_c, 2, 43, 81
2, 120884, Note_on_c, 2, 71, 76
2, 120896, Note_on_c, 2, 78, 0
2, 120952, Note_on_c, 2, 36, 0
2, 120960, Note_on_c, 2, 43, 0
2, 120968, Note_on_c, 2, 71, 0
2, 120968, Note_on_c, 2, 82, 103
2, 120992, Note_on_c, 2, 75, 0
2, 121024, Note_on_c, 2, 80, 90
2, 121068, Note_on_c, 2, 78, 64
2, 121108, Note_on_c, 2, 76, 62
2, 121112, Note_on_c, 2, 82, 0
2, 121152, Note_on_c, 2, 80, 0
2, 121160, Note_on_c, 2, 78, 0
2, 121168, Note_on_c, 2, 76, 0
2, 121220, Note_on_c, 2, 70, 116
2, 121224, Note_on_c, 2, 58, 105
2, 121228, Note_on_c, 2, 60, 94
2, 121228, Note_on_c, 2, 52, 93
2, 121356, Note_on_c, 2, 60, 0
2, 121356, Note_on_c, 2, 58, 0
2, 121392, Note_on_c, 2, 52, 0
2, 121624, Note_on_c, 2, 43, 94
2, 121768, Note_on_c, 2, 43, 0
2, 122028, Note_on_c, 2, 41, 98
2, 122196, Note_on_c, 2, 41, 0
2, 122416, Note_on_c, 2, 46, 111
2, 122420, Note_on_c, 2, 70, 0
2, 122504, Note_on_c, 2, 46, 0
2, 122788, Note_on_c, 2, 60, 95
2, 122788, Note_on_c, 2, 56, 105
2, 122868, Note_on_c, 2, 60, 0
2, 122880, Note_on_c, 2, 56, 0
2, 123420, Note_on_c, 2, 67, 100
2, 123556, Note_on_c, 2, 67, 0
2, 123600, Note_on_c, 2, 68, 112
2, 123732, Note_on_c, 2, 68, 0
2, 123808, Note_on_c, 2, 77, 112
2, 123908, Note_on_c, 2, 77, 0
2, 123952, Note_on_c, 2, 38, 102
2, 123960, Note_on_c, 2, 74, 111
2, 124028, Note_on_c, 2, 38, 0
2, 124116, Note_on_c, 2, 74, 0
2, 124336, Note_on_c, 2, 54, 99
2, 124340, Note_on_c, 2, 62, 92
2, 124340, Note_on_c, 2, 60, 95
2, 124416, Note_on_c, 2, 60, 0
2, 124416, Note_on_c, 2, 62, 0
2, 124436, Note_on_c, 2, 54, 0
2, 124568, Note_on_c, 2, 86, 69
2, 124572, Note_on_c, 2, 88, 74
2, 124608, Note_on_c, 2, 88, 0
2, 124608, Note_on_c, 2, 85, 68
2, 124656, Note_on_c, 2, 82, 83
2, 124696, Note_on_c, 2, 86, 0
2, 124704, Note_on_c, 2, 78, 66
2, 124728, Note_on_c, 2, 85, 0
2, 124728, Note_on_c, 2, 74, 72
2, 124732, Note_on_c, 2, 43, 87
2, 124748, Note_on_c, 2, 82, 0
2, 124764, Note_on_c, 2, 78, 0
2, 124800, Note_on_c, 2, 43, 0
2, 124800, Note_on_c, 2, 74, 0
2, 124812, Note_on_c, 2, 86, 99
2, 124872, Note_on_c, 2, 85, 80
2, 124904, Note_on_c, 2, 82, 86
2, 124952, Note_on_c, 2, 86, 0
2, 124952, Note_on_c, 2, 78, 81
2, 124972, Note_on_c, 2, 85, 0
2, 124980, Note_on_c, 2, 74, 71
2, 124996, Note_on_c, 2, 82, 0
2, 125040, Note_on_c, 2, 78, 0
2, 125060, Note_on_c, 2, 86, 96
2, 125088, Note_on_c, 2, 74, 0
2, 125104, Note_on_c, 2, 59, 86
2, 125104, Note_on_c, 2, 53, 81
2, 125108, Note_on_c, 2, 85, 67
2, 125160, Note_on_c, 2, 82, 86
2, 125176, Note_on_c, 2, 59, 0
2, 125188, Note_on_c, 2, 53, 0
2, 125200, Note_on_c, 2, 78, 85
2, 125204, Note_on_c, 2, 86, 0
2, 125228, Note_on_c, 2, 85, 0
2, 125236, Note_on_c, 2, 74, 74
2, 125248, Note_on_c, 2, 82, 0
2, 125284, Note_on_c, 2, 78, 0
2, 125308, Note_on_c, 2, 86, 94
2, 125328, Note_on_c, 2, 74, 0
2, 125348, Note_on_c, 2, 85, 82
2, 125392, Note_on_c, 2, 82, 88
2, 125432, Note_on_c, 2, 78, 96
2, 125436, Note_on_c, 2, 86, 0
2, 125464, Note_on_c, 2, 74, 76
2, 125468, Note_on_c, 2, 85, 0
2, 125484, Note_on_c, 2, 82, 0
2, 125488, Note_on_c, 2, 36, 93
2, 125492, Note_on_c, 2, 52, 88
2, 125512, Note_on_c, 2, 78, 0
2, 125532, Note_on_c, 2, 74, 0
2, 125548, Note_on_c, 2, 88, 115
2, 125564, Note_on_c, 2, 36, 0
2, 125584, Note_on_c, 2, 52, 0
2, 125632, Note_on_c, 2, 88, 0
2, 125716, Note_on_c, 2, 82, 113
2, 125720, Note_on_c, 2, 76, 102
2, 125724, Note_on_c, 2, 79, 103
2, 125724, Note_on_c, 2, 81, 95
2, 125844, Note_on_c, 2, 62, 87
2, 125848, Note_on_c, 2, 58, 100
2, 125848, Note_on_c, 2, 52, 89
2, 125928, Note_on_c, 2, 62, 0
2, 125936, Note_on_c, 2, 58, 0
2, 125968, Note_on_c, 2, 52, 0
2, 126232, Note_on_c, 2, 41, 98
2, 126316, Note_on_c, 2, 41, 0
2, 126600, Note_on_c, 2, 60, 93
2, 126600, Note_on_c, 2, 51, 105
2, 126600, Note_on_c, 2, 57, 95
2, 126684, Note_on_c, 2, 60, 0
2, 126688, Note_on_c, 2, 57, 0
2, 126704, Note_on_c, 2, 51, 0
2, 126984, Note_on_c, 2, 81, 0
2, 126984, Note_on_c, 2, 79, 0
2, 126984, Note_on_c, 2, 46, 110
2, 126992, Note_on_c, 2, 82, 0
2, 127020, Note_on_c, 2, 76, 0
2, 127076, Note_on_c, 2, 46, 0
2, 127380, Note_on_c, 2, 50, 88
2, 127380, Note_on_c, 2, 60, 87
2, 127384, Note_on_c, 2, 55, 80
2, 127384, Note_on_c, 2, 56, 90
2, 127472, Note_on_c, 2, 60, 0
2, 127484, Note_on_c, 2, 56, 0
2, 127488, Note_on_c, 2, 55, 0
2, 127504, Note_on_c, 2, 50, 0
2, 127772, Note_on_c, 2, 39, 100
2, 127780, Note_on_c, 2, 46, 87
2, 127852, Note_on_c, 2, 39, 0
2, 127856, Note_on_c, 2, 46, 0
2, 127916, Note_on_c, 2, 89, 56
2, 127972, Note_on_c, 2, 87, 75
2, 128016, Note_on_c, 2, 85, 57
2, 128028, Note_on_c, 2, 89, 0
2, 128052, Note_on_c, 2, 82, 76
2, 128068, Note_on_c, 2, 87, 0
2, 128080, Note_on_c, 2, 77, 71
2, 128084, Note_on_c, 2, 85, 0
2, 128128, Note_on_c, 2, 82, 0
2, 128140, Note_on_c, 2, 61, 98
2, 128144, Note_on_c, 2, 55, 82
2, 128156, Note_on_c, 2, 89, 97
2, 128188, Note_on_c, 2, 77, 0
2, 128212, Note_on_c, 2, 61, 0
2, 128224, Note_on_c, 2, 87, 86
2, 128232, Note_on_c, 2, 55, 0
2, 128256, Note_on_c, 2, 85, 86
2, 128292, Note_on_c, 2, 89, 0
2, 128308, Note_on_c, 2, 82, 80
2, 128332, Note_on_c, 2, 87, 0
2, 128340, Note_on_c, 2, 77, 69
2, 128352, Note_on_c, 2, 85, 0
2, 128396, Note_on_c, 2, 89, 97
2, 128428, Note_on_c, 2, 82, 0
2, 128432, Note_on_c, 2, 77, 0
2, 128436, Note_on_c, 2, 87, 83
2, 128472, Note_on_c, 2, 85, 92
2, 128520, Note_on_c, 2, 89, 0
2, 128520, Note_on_c, 2, 82, 91
2, 128532, Note_on_c, 2, 38, 96
2, 128548, Note_on_c, 2, 77, 69
2, 128552, Note_on_c, 2, 87, 0
2, 128572, Note_on_c, 2, 85, 0
2, 128604, Note_on_c, 2, 38, 0
2, 128604, Note_on_c, 2, 82, 0
2, 128628, Note_on_c, 2, 77, 0
2, 128648, Note_on_c, 2, 89, 112
2, 128744, Note_on_c, 2, 89, 0
2, 128796, Note_on_c, 2, 79, 107
2, 128804, Note_on_c, 2, 80, 117
2, 128888, Note_on_c, 2, 60, 88
2, 128892, Note_on_c, 2, 62, 83
2, 128892, Note_on_c, 2, 54, 95
2, 128984, Note_on_c, 2, 62, 0
2, 128984, Note_on_c, 2, 60, 0
2, 129012, Note_on_c, 2, 54, 0
2, 129280, Note_on_c, 2, 43, 97
2, 129372, Note_on_c, 2, 43, 0
2, 129668, Note_on_c, 2, 37, 104
2, 129668, Note_on_c, 2, 52, 99
2, 129828, Note_on_c, 2, 52, 0
2, 129840, Note_on_c, 2, 37, 0
2, 130048, Note_on_c, 2, 79, 0
2, 130060, Note_on_c, 2, 51, 103
2, 130060, Note_on_c, 2, 36, 94
2, 130064, Note_on_c, 2, 80, 0
2, 130148, Note_on_c, 2, 36, 0
2, 130176, Note_on_c, 2, 51, 0
2, 130220, Note_on_c, 2, 75, 92
2, 130272, Note_on_c, 2, 75, 0
2, 130324, Note_on_c, 2, 79, 68
2, 130428, Note_on_c, 2, 79, 0
2, 130432, Note_on_c, 2, 55, 86
2, 130432, Note_on_c, 2, 60, 91
2, 130436, Note_on_c, 2, 58, 99
2, 130440, Note_on_c, 2, 82, 110
2, 130504, Note_on_c, 2, 60, 0
2, 130520, Note_on_c, 2, 58, 0
2, 130524, Note_on_c, 2, 55, 0
2, 130600, Note_on_c, 2, 82, 0
2, 130712, Note_on_c, 2, 85, 103
2, 130712, Note_on_c, 2, 79, 92
2, 130712, Note_on_c, 2, 73, 112
2, 130816, Note_on_c, 2, 42, 109
2, 130856, Note_on_c, 2, 73, 0
2, 130856, Note_on_c, 2, 79, 0
2, 130900, Note_on_c, 2, 85, 0
2, 130904, Note_on_c, 2, 42, 0
2, 131220, Note_on_c, 2, 54, 103
2, 131220, Note_on_c, 2, 62, 90
2, 131220, Note_on_c, 2, 60, 94
2, 131300, Note_on_c, 2, 62, 0
2, 131304, Note_on_c, 2, 60, 0
2, 131332, Note_on_c, 2, 54, 0
2, 131488, Note_on_c, 2, 84, 101
2, 131488, Note_on_c, 2, 72, 114
2, 131488, Note_on_c, 2, 78, 114
2, 131488, Note_on_c, 2, 82, 104
2, 131588, Note_on_c, 2, 78, 0
2, 131588, Note_on_c, 2, 72, 0
2, 131600, Note_on_c, 2, 53, 77
2, 131600, Note_on_c, 2, 38, 85
2, 131616, Note_on_c, 2, 82, 0
2, 131636, Note_on_c, 2, 84, 0
2, 131696, Note_on_c, 2, 38, 0
2, 131720, Note_on_c, 2, 53, 0
2, 131984, Note_on_c, 2, 62, 88
2, 131984, Note_on_c, 2, 53, 88
2, 131984, Note_on_c, 2, 60, 90
2, 131992, Note_on_c, 2, 56, 87
2, 132068, Note_on_c, 2, 60, 0
2, 132068, Note_on_c, 2, 62, 0
2, 132092, Note_on_c, 2, 53, 0
2, 132104, Note_on_c, 2, 56, 0
2, 132244, Note_on_c, 2, 70, 112
2, 132244, Note_on_c, 2, 82, 86
2, 132244, Note_on_c, 2, 79, 84
2, 132244, Note_on_c, 2, 74, 91
2, 132248, Note_on_c, 2, 77, 83
2, 132340, Note_on_c, 2, 70, 0
2, 132356, Note_on_c, 2, 74, 0
2, 132360, Note_on_c, 2, 43, 89
2, 132360, Note_on_c, 2, 53, 88
2, 132380, Note_on_c, 2, 77, 0
2, 132388, Note_on_c, 2, 79, 0
2, 132416, Note_on_c, 2, 82, 0
2, 132444, Note_on_c, 2, 43, 0
2, 132476, Note_on_c, 2, 53, 0
2, 132736, Note_on_c, 2, 59, 101
2, 132740, Note_on_c, 2, 53, 88
2, 132748, Note_on_c, 2, 56, 91
2, 132836, Note_on_c, 2, 59, 0
2, 132860, Note_on_c, 2, 56, 0
2, 132864, Note_on_c, 2, 53, 0
2, 133004, Note_on_c, 2, 79, 77
2, 133004, Note_on_c, 2, 73, 99
2, 133004, Note_on_c, 2, 82, 89
2, 133008, Note_on_c, 2, 70, 108
2, 133008, Note_on_c, 2, 77, 78
2, 133116, Note_on_c, 2, 36, 90
2, 133120, Note_on_c, 2, 51, 90
2, 133124, Note_on_c, 2, 73, 0
2, 133128, Note_on_c, 2, 70, 0
2, 133148, Note_on_c, 2, 79, 0
2, 133156, Note_on_c, 2, 77, 0
2, 133168, Note_on_c, 2, 82, 0
2, 133200, Note_on_c, 2, 36, 0
2, 133220, Note_on_c, 2, 51, 0
2, 133492, Note_on_c, 2, 55, 84
2, 133492, Note_on_c, 2, 60, 90
2, 133496, Note_on_c, 2, 58, 96
2, 133584, Note_on_c, 2, 60, 0
2, 133596, Note_on_c, 2, 58, 0
2, 133608, Note_on_c, 2, 55, 0
2, 133752, Note_on_c, 2, 73, 105
2, 133756, Note_on_c, 2, 75, 104
2, 133756, Note_on_c, 2, 77, 97
2, 133756, Note_on_c, 2, 69, 102
2, 133756, Note_on_c, 2, 67, 106
2, 133856, Note_on_c, 2, 67, 0
2, 133876, Note_on_c, 2, 69, 0
2, 133876, Note_on_c, 2, 41, 85
2, 133880, Note_on_c, 2, 51, 93
2, 133900, Note_on_c, 2, 73, 0
2, 133908, Note_on_c, 2, 75, 0
2, 133936, Note_on_c, 2, 77, 0
2, 133972, Note_on_c, 2, 41, 0
2, 133992, Note_on_c, 2, 51, 0
2, 134264, Note_on_c, 2, 57, 94
2, 134268, Note_on_c, 2, 51, 104
2, 134268, Note_on_c, 2, 60, 91
2, 134392, Note_on_c, 2, 57, 0
2, 134396, Note_on_c, 2, 60, 0
2, 134416, Note_on_c, 2, 51, 0
2, 134648, Note_on_c, 2, 74, 97
2, 134648, Note_on_c, 2, 46, 101
2, 134648, Note_on_c, 2, 70, 103
2, 134724, Note_on_c, 2, 46, 0
2, 134812, Note_on_c, 2, 70, 0
2, 134828, Note_on_c, 2, 74, 0
2, 134916, Note_on_c, 2, 75, 98
2, 134920, Note_on_c, 2, 72, 84
2, 134980, Note_on_c, 2, 72, 0
2, 134984, Note_on_c, 2, 75, 0
2, 135008, Note_on_c, 2, 62, 79
2, 135008, Note_on_c, 2, 53, 87
2, 135012, Note_on_c, 2, 58, 96
2, 135028, Note_on_c, 2, 73, 108
2, 135032, Note_on_c, 2, 76, 98
2, 135088, Note_on_c, 2, 58, 0
2, 135088, Note_on_c, 2, 62, 0
2, 135112, Note_on_c, 2, 53, 0
2, 135188, Note_on_c, 2, 73, 0
2, 135228, Note_on_c, 2, 76, 0
2, 135304, Note_on_c, 2, 77, 108
2, 135308, Note_on_c, 2, 74, 110
2, 135396, Note_on_c, 2, 46, 101
2, 135472, Note_on_c, 2, 46, 0
2, 135788, Note_on_c, 2, 62, 94
2, 135792, Note_on_c, 2, 54, 102
2, 135792, Note_on_c, 2, 60, 98
2, 135804, Note_on_c, 2, 74, 0
2, 135836, Note_on_c, 2, 77, 0
2, 135900, Note_on_c, 2, 60, 0
2, 135908, Note_on_c, 2, 62, 0
2, 135924, Note_on_c, 2, 54, 0
2, 136176, Note_on_c, 2, 43, 86
2, 136184, Note_on_c, 2, 52, 86
2, 136188, Note_on_c, 2, 79, 106
2, 136192, Note_on_c, 2, 82, 117
2, 136232, Control_c, 2, 64, 127
2, 136236, Note_off_c, 2, 43, 0
2, 136248, Note_off_c, 2, 52, 0
2, 136316, Note_off_c, 2, 79, 0
2, 136368, Note_off_c, 2, 82, 0
2, 136460, Note_on_c, 2, 84, 93
2, 136464, Note_on_c, 2, 81, 68
2, 136484, Control_c, 2, 64, 0
2, 136532, Note_off_c, 2, 84, 0
2, 136544, Note_off_c, 2, 81, 0
2, 136560, Note_on_c, 2, 62, 79
2, 136564, Note_on_c, 2, 58, 85
2, 136568, Note_on_c, 2, 55, 66
2, 136572, Note_on_c, 2, 52, 70
2, 136572, Note_on_c, 2, 85, 100
2, 136580, Note_on_c, 2, 82, 96
2, 136596, Note_on_c, 2, 81, 41
2, 136616, Note_on_c, 2, 58, 0
2, 136624, Note_on_c, 2, 62, 0
2, 136628, Note_on_c, 2, 55, 0
2, 136636, Note_on_c, 2, 81, 0
2, 136640, Note_on_c, 2, 52, 0
2, 136716, Note_on_c, 2, 82, 0
2, 136768, Note_on_c, 2, 85, 0
2, 136932, Note_on_c, 2, 38, 82
2, 136936, Note_on_c, 2, 86, 106
2, 136936, Note_on_c, 2, 81, 95
2, 136936, Note_on_c, 2, 82, 110
2, 136992, Note_on_c, 2, 38, 0
2, 137072, Note_on_c, 2, 82, 0
2, 137080, Note_on_c, 2, 81, 0
2, 137088, Note_on_c, 2, 86, 0
2, 137328, Note_on_c, 2, 55, 70
2, 137332, Note_on_c, 2, 62, 69
2, 137332, Note_on_c, 2, 58, 86
2, 137404, Note_on_c, 2, 58, 0
2, 137416, Note_on_c, 2, 62, 0
2, 137420, Note_on_c, 2, 55, 0
2, 137720, Note_on_c, 2, 39, 95
2, 137728, Note_on_c, 2, 46, 91
2, 137732, Note_on_c, 2, 82, 95
2, 137732, Note_on_c, 2, 85, 103
2, 137788, Note_on_c, 2, 46, 0
2, 137788, Note_on_c, 2, 39, 0
2, 137864, Note_on_c, 2, 82, 0
2, 137912, Note_on_c, 2, 85, 0
2, 137972, Note_on_c, 2, 84, 98
2, 137976, Note_on_c, 2, 87, 108
2, 138056, Note_on_c, 2, 84, 0
2, 138072, Note_on_c, 2, 87, 0
2, 138100, Note_on_c, 2, 61, 91
2, 138104, Note_on_c, 2, 55, 73
2, 138124, Note_on_c, 2, 88, 100
2, 138124, Note_on_c, 2, 85, 107
2, 138168, Note_on_c, 2, 61, 0
2, 138188, Note_on_c, 2, 55, 0
2, 138244, Note_on_c, 2, 85, 0
2, 138280, Note_on_c, 2, 88, 0
2, 138360, Note_on_c, 2, 85, 116
2, 138360, Note_on_c, 2, 89, 106
2, 138360, Note_on_c, 2, 77, 110
2, 138412, Note_on_c, 2, 86, 11
2, 138444, Note_on_c, 2, 85, 0
2, 138448, Note_on_c, 2, 77, 0
2, 138480, Note_on_c, 2, 38, 85
2, 138508, Note_on_c, 2, 86, 0
2, 138508, Note_on_c, 2, 89, 0
2, 138520, Note_on_c, 2, 77, 50
2, 138540, Note_on_c, 2, 38, 0
2, 138568, Note_on_c, 2, 86, 69
2, 138568, Note_on_c, 2, 89, 67
2, 138584, Note_on_c, 2, 77, 0
2, 138624, Note_on_c, 2, 86, 0
2, 138632, Note_on_c, 2, 89, 0
2, 138644, Note_on_c, 2, 77, 58
2, 138688, Note_on_c, 2, 86, 73
2, 138700, Note_on_c, 2, 89, 42
2, 138708, Note_on_c, 2, 77, 0
2, 138744, Note_on_c, 2, 89, 0
2, 138748, Note_on_c, 2, 86, 0
2, 138764, Note_on_c, 2, 77, 63
2, 138808, Note_on_c, 2, 86, 74
2, 138812, Note_on_c, 2, 89, 68
2, 138836, Note_on_c, 2, 77, 0
2, 138856, Note_on_c, 2, 54, 90
2, 138856, Note_on_c, 2, 62, 76
2, 138860, Note_on_c, 2, 60, 84
2, 138864, Note_on_c, 2, 61, 80
2, 138888, Note_on_c, 2, 86, 0
2, 138888, Note_on_c, 2, 77, 49
2, 138896, Note_on_c, 2, 89, 0
2, 138912, Note_on_c, 2, 61, 0
2, 138928, Note_on_c, 2, 60, 0
2, 138932, Note_on_c, 2, 62, 0
2, 138936, Note_on_c, 2, 77, 0
2, 138952, Note_on_c, 2, 54, 0
2, 139232, Note_on_c, 2, 52, 93
2, 139232, Note_on_c, 2, 43, 93
2, 139284, Control_c, 2, 64, 127
2, 139296, Note_off_c, 2, 43, 0
2, 139300, Note_off_c, 2, 52, 0
2, 139548, Control_c, 2, 64, 0
2, 139604, Note_on_c, 2, 62, 76
2, 139608, Note_on_c, 2, 58, 84
2, 139612, Note_on_c, 2, 55, 67
2, 139612, Note_on_c, 2, 52, 69
2, 139620, Note_on_c, 2, 79, 95
2, 139620, Note_on_c, 2, 82, 110
2, 139668, Note_on_c, 2, 58, 0
2, 139668, Note_on_c, 2, 62, 0
2, 139676, Note_on_c, 2, 55, 0
2, 139684, Note_on_c, 2, 52, 0
2, 139776, Note_on_c, 2, 79, 0
2, 139792, Note_on_c, 2, 82, 0
2, 139860, Note_on_c, 2, 84, 99
2, 139864, Note_on_c, 2, 81, 98
2, 139956, Note_on_c, 2, 81, 0
2, 139980, Note_on_c, 2, 84, 0
2, 139996, Note_on_c, 2, 53, 85
2, 140000, Note_on_c, 2, 79, 84
2, 140008, Note_on_c, 2, 86, 88
2, 140012, Note_on_c, 2, 82, 95
2, 140056, Control_c, 2, 64, 127
2, 140084, Note_off_c, 2, 53, 0
2, 140148, Note_off_c, 2, 82, 0
2, 140148, Note_off_c, 2, 79, 0
2, 140152, Note_off_c, 2, 86, 0
2, 140328, Control_c, 2, 64, 0
2, 140368, Note_on_c, 2, 52, 86
2, 140372, Note_on_c, 2, 37, 98
2, 140376, Note_on_c, 2, 84, 100
2, 140380, Note_on_c, 2, 81, 99
2, 140476, Control_c, 2, 64, 127
2, 140484, Note_off_c, 2, 52, 0
2, 140496, Note_off_c, 2, 37, 0
2, 140568, Note_off_c, 2, 81, 0
2, 140608, Note_off_c, 2, 84, 0
2, 140660, Control_c, 2, 64, 0
2, 140756, Note_on_c, 2, 79, 90
2, 140756, Note_on_c, 2, 82, 103
2, 140756, Note_on_c, 2, 36, 82
2, 140756, Note_on_c, 2, 52, 79
2, 140848, Note_on_c, 2, 52, 0
2, 140848, Note_on_c, 2, 79, 0
2, 140852, Note_on_c, 2, 36, 0
2, 140872, Note_on_c, 2, 82, 0
2, 140888, Note_on_c, 2, 79, 65
2, 140940, Note_on_c, 2, 82, 61
2, 140964, Note_on_c, 2, 79, 0
2, 141004, Note_on_c, 2, 82, 0
2, 141004, Note_on_c, 2, 79, 71
2, 141056, Note_on_c, 2, 82, 62
2, 141092, Note_on_c, 2, 79, 0
2, 141128, Note_on_c, 2, 82, 0
2, 141128, Note_on_c, 2, 53, 86
2, 141132, Note_on_c, 2, 38, 84
2, 141232, Note_on_c, 2, 53, 0
2, 141236, Note_on_c, 2, 38, 0
2, 141520, Note_on_c, 2, 54, 94
2, 141520, Note_on_c, 2, 39, 96
2, 141660, Note_on_c, 2, 54, 0
2, 141664, Note_on_c, 2, 39, 0
2, 141900, Note_on_c, 2, 55, 78
2, 141900, Note_on_c, 2, 40, 81
2, 141912, Note_on_c, 2, 80, 111
2, 141976, Note_on_c, 2, 55, 0
2, 141984, Note_on_c, 2, 40, 0
2, 142080, Note_on_c, 2, 80, 0
2, 142116, Note_on_c, 2, 82, 105
2, 142232, Note_on_c, 2, 82, 0
2, 142292, Note_on_c, 2, 41, 84
2, 142292, Note_on_c, 2, 56, 90
2, 142296, Note_on_c, 2, 84, 99
2, 142360, Note_on_c, 2, 41, 0
2, 142376, Note_on_c, 2, 56, 0
2, 142492, Note_on_c, 2, 84, 0
2, 142556, Note_on_c, 2, 80, 48
2, 142612, Note_on_c, 2, 80, 0
2, 142660, Note_on_c, 2, 62, 82
2, 142664, Note_on_c, 2, 60, 88
2, 142664, Note_on_c, 2, 56, 95
2, 142672, Note_on_c, 2, 82, 108
2, 142720, Note_on_c, 2, 60, 0
2, 142724, Note_on_c, 2, 62, 0
2, 142744, Note_on_c, 2, 56, 0
2, 142876, Note_on_c, 2, 82, 0
2, 143048, Note_on_c, 2, 36, 85
2, 143048, Note_on_c, 2, 84, 103
2, 143052, Note_on_c, 2, 80, 106
2, 143052, Note_on_c, 2, 72, 108
2, 143116, Note_on_c, 2, 36, 0
2, 143196, Note_on_c, 2, 72, 0
2, 143204, Note_on_c, 2, 80, 0
2, 143216, Note_on_c, 2, 84, 0
2, 143432, Note_on_c, 2, 62, 77
2, 143432, Note_on_c, 2, 60, 83
2, 143436, Note_on_c, 2, 56, 88
2, 143496, Note_on_c, 2, 60, 0
2, 143496, Note_on_c, 2, 62, 0
2, 143520, Note_on_c, 2, 56, 0
2, 143828, Note_on_c, 2, 39, 105
2, 143856, Note_on_c, 2, 38, 39
2, 143892, Note_on_c, 2, 38, 0
2, 143904, Note_on_c, 2, 39, 0
2, 144128, Note_on_c, 2, 80, 78
2, 144176, Note_on_c, 2, 80, 0
2, 144208, Note_on_c, 2, 59, 92
2, 144208, Note_on_c, 2, 53, 91
2, 144216, Note_on_c, 2, 82, 106
2, 144216, Note_on_c, 2, 71, 101
2, 144216, Note_on_c, 2, 75, 106
2, 144280, Note_on_c, 2, 59, 0
2, 144304, Note_on_c, 2, 53, 0
2, 144388, Note_on_c, 2, 82, 0
2, 144396, Note_on_c, 2, 75, 0
2, 144396, Note_on_c, 2, 71, 0
2, 144592, Note_on_c, 2, 70, 97
2, 144592, Note_on_c, 2, 36, 90
2, 144592, Note_on_c, 2, 80, 97
2, 144596, Note_on_c, 2, 76, 82
2, 144596, Note_on_c, 2, 73, 94
2, 144664, Note_on_c, 2, 36, 0
2, 144756, Note_on_c, 2, 73, 0
2, 144756, Note_on_c, 2, 70, 0
2, 144764, Note_on_c, 2, 76, 0
2, 144780, Note_on_c, 2, 80, 0
2, 144968, Note_on_c, 2, 58, 107
2, 145100, Note_on_c, 2, 58, 0
2, 145356, Note_on_c, 2, 48, 93
2, 145356, Note_on_c, 2, 47, 96
2, 145360, Note_on_c, 2, 85, 113
2, 145364, Note_on_c, 2, 84, 101
2, 145364, Note_on_c, 2, 86, 103
2, 145404, Note_on_c, 2, 47, 0
2, 145412, Note_on_c, 2, 84, 0
2, 145420, Note_on_c, 2, 85, 0
2, 145580, Note_on_c, 2, 86, 0
2, 145624, Note_on_c, 2, 89, 110
2, 145784, Note_on_c, 2, 89, 0
2, 145952, Note_on_c, 2, 86, 108
2, 146080, Note_on_c, 2, 86, 0
2, 146304, Note_on_c, 2, 82, 95
2, 146372, Note_on_c, 2, 82, 0
2, 146376, Note_on_c, 2, 77, 67
2, 146448, Note_on_c, 2, 77, 0
2, 146516, Note_on_c, 2, 73, 114
2, 146516, Note_on_c, 2, 75, 110
2, 146572, Note_on_c, 2, 48, 0
2, 146628, Control_c, 2, 64, 127
2, 146844, Note_off_c, 2, 75, 0
2, 146868, Note_off_c, 2, 73, 0
2, 147104, Note_on_c, 2, 75, 80
2, 147144, Note_on_c, 2, 73, 80
2, 147164, Control_c, 2, 64, 0
2, 147168, Note_off_c, 2, 75, 0
2, 147192, Note_on_c, 2, 69, 67
2, 147200, Note_on_c, 2, 73, 0
2, 147220, Note_on_c, 2, 67, 70
2, 147264, Note_on_c, 2, 69, 0
2, 147280, Note_on_c, 2, 65, 95
2, 147308, Note_on_c, 2, 67, 0
2, 147328, Note_on_c, 2, 65, 0
2, 147372, Note_on_c, 2, 63, 79
2, 147408, Note_on_c, 2, 61, 88
2, 147448, Note_on_c, 2, 63, 0
2, 147476, Note_on_c, 2, 57, 41
2, 147484, Note_on_c, 2, 59, 27
2, 147492, Note_on_c, 2, 61, 0
2, 147524, Note_on_c, 2, 55, 81
2, 147536, Note_on_c, 2, 59, 0
2, 147544, Note_on_c, 2, 57, 0
2, 147576, Note_on_c, 2, 53, 84
2, 147604, Note_on_c, 2, 55, 0
2, 147624, Note_on_c, 2, 53, 0
2, 147644, Note_on_c, 2, 51, 95
2, 147688, Note_on_c, 2, 49, 94
2, 147724, Note_on_c, 2, 51, 0
2, 147736, Note_on_c, 2, 47, 89
2, 147796, Note_on_c, 2, 49, 0
2, 147848, Note_on_c, 2, 47, 0
2, 147852, Note_on_c, 2, 41, 120
2, 148016, Control_c, 2, 64, 127
2, 148080, Note_off_c, 2, 41, 0
2, 148368, Control_c, 2, 64, 0
2, 148396, Note_on_c, 2, 38, 95
2, 148400, Note_on_c, 2, 85, 110
2, 148404, Note_on_c, 2, 42, 101
2, 148404, Note_on_c, 2, 74, 116
2, 148408, Note_on_c, 2, 86, 106
2, 148468, Note_on_c, 2, 42, 0
2, 148472, Note_on_c, 2, 38, 0
2, 148772, Note_on_c, 2, 62, 86
2, 148776, Note_on_c, 2, 60, 91
2, 148776, Note_on_c, 2, 54, 95
2, 148844, Note_on_c, 2, 60, 0
2, 148844, Note_on_c, 2, 62, 0
2, 148876, Note_on_c, 2, 54, 0
2, 148876, Note_on_c, 2, 74, 0
2, 148888, Note_on_c, 2, 86, 0
2, 148896, Note_on_c, 2, 85, 0
2, 149168, Note_on_c, 2, 43, 88
2, 149168, Note_on_c, 2, 53, 84
2, 149176, Note_on_c, 2, 86, 93
2, 149176, Note_on_c, 2, 75, 110
2, 149176, Note_on_c, 2, 87, 101
2, 149232, Note_on_c, 2, 43, 0
2, 149248, Note_on_c, 2, 53, 0
2, 149300, Note_on_c, 2, 75, 0
2, 149320, Note_on_c, 2, 87, 0
2, 149328, Note_on_c, 2, 86, 0
2, 149396, Note_on_c, 2, 87, 93
2, 149396, Note_on_c, 2, 75, 104
2, 149400, Note_on_c, 2, 86, 93
2, 149564, Note_on_c, 2, 63, 97
2, 149568, Note_on_c, 2, 59, 85
2, 149572, Note_on_c, 2, 53, 84
2, 149640, Note_on_c, 2, 63, 0
2, 149644, Note_on_c, 2, 59, 0
2, 149672, Note_on_c, 2, 53, 0
2, 149852, Note_on_c, 2, 39, 27
2, 149888, Note_on_c, 2, 86, 0
2, 149908, Note_on_c, 2, 39, 0
2, 149936, Note_on_c, 2, 87, 0
2, 149952, Note_on_c, 2, 36, 99
2, 149972, Note_on_c, 2, 75, 0
2, 150032, Note_on_c, 2, 36, 0
2, 150332, Note_on_c, 2, 60, 85
2, 150336, Note_on_c, 2, 58, 96
2, 150340, Note_on_c, 2, 52, 84
2, 150348, Note_on_c, 2, 84, 86
2, 150392, Note_on_c, 2, 58, 0
2, 150396, Note_on_c, 2, 60, 0
2, 150396, Note_on_c, 2, 82, 72
2, 150416, Note_on_c, 2, 52, 0
2, 150472, Note_on_c, 2, 84, 0
2, 150472, Note_on_c, 2, 80, 62
2, 150528, Note_on_c, 2, 78, 44
2, 150548, Note_on_c, 2, 82, 0
2, 150592, Note_on_c, 2, 80, 0
2, 150600, Note_on_c, 2, 72, 58
2, 150628, Note_on_c, 2, 78, 0
2, 150660, Note_on_c, 2, 72, 0
2, 150688, Note_on_c, 2, 41, 96
2, 150696, Note_on_c, 2, 84, 102
2, 150716, Note_on_c, 2, 72, 93
2, 150760, Note_on_c, 2, 41, 0
2, 150860, Note_on_c, 2, 72, 0
2, 150868, Note_on_c, 2, 84, 0
2, 150980, Note_on_c, 2, 86, 108
2, 150984, Note_on_c, 2, 81, 99
2, 150984, Note_on_c, 2, 78, 109
2, 150984, Note_on_c, 2, 74, 108
2, 151080, Note_on_c, 2, 59, 84
2, 151080, Note_on_c, 2, 57, 88
2, 151084, Note_on_c, 2, 51, 101
2, 151144, Note_on_c, 2, 57, 0
2, 151156, Note_on_c, 2, 59, 0
2, 151172, Note_on_c, 2, 51, 0
2, 151460, Note_on_c, 2, 81, 0
2, 151464, Note_on_c, 2, 86, 0
2, 151468, Note_on_c, 2, 46, 106
2, 151504, Note_on_c, 2, 74, 0
2, 151504, Note_on_c, 2, 78, 0
2, 151548, Note_on_c, 2, 46, 0
2, 151776, Note_on_c, 2, 81, 44
2, 151844, Note_on_c, 2, 81, 0
2, 151852, Note_on_c, 2, 60, 89
2, 151856, Note_on_c, 2, 55, 92
2, 151856, Note_on_c, 2, 56, 98
2, 151868, Note_on_c, 2, 82, 105
2, 151868, Note_on_c, 2, 70, 114
2, 151924, Note_on_c, 2, 60, 0
2, 151928, Note_on_c, 2, 55, 0
2, 151932, Note_on_c, 2, 56, 0
2, 152100, Note_on_c, 2, 70, 0
2, 152100, Note_on_c, 2, 82, 0
2, 152120, Note_on_c, 2, 81, 53
2, 152208, Note_on_c, 2, 81, 0
2, 152244, Note_on_c, 2, 39, 107
2, 152248, Note_on_c, 2, 82, 107
2, 152248, Note_on_c, 2, 70, 113
2, 152320, Note_on_c, 2, 39, 0
2, 152388, Note_on_c, 2, 70, 0
2, 152404, Note_on_c, 2, 82, 0
2, 152532, Note_on_c, 2, 84, 102
2, 152532, Note_on_c, 2, 80, 103
2, 152532, Note_on_c, 2, 72, 106
2, 152560, Note_on_c, 2, 78, 53
2, 152596, Note_on_c, 2, 78, 0
2, 152632, Note_on_c, 2, 60, 97
2, 152636, Note_on_c, 2, 55, 90
2, 152640, Note_on_c, 2, 84, 0
2, 152648, Note_on_c, 2, 72, 0
2, 152656, Note_on_c, 2, 80, 0
2, 152696, Note_on_c, 2, 60, 0
2, 152720, Note_on_c, 2, 55, 0
2, 152756, Note_on_c, 2, 70, 104
2, 152760, Note_on_c, 2, 82, 104
2, 152908, Note_on_c, 2, 82, 0
2, 152948, Note_on_c, 2, 70, 0
2, 153016, Note_on_c, 2, 38, 96
2, 153028, Note_on_c, 2, 81, 96
2, 153032, Note_on_c, 2, 69, 107
2, 153084, Note_on_c, 2, 38, 0
2, 153384, Note_on_c, 2, 62, 85
2, 153388, Note_on_c, 2, 60, 85
2, 153392, Note_on_c, 2, 53, 78
2, 153396, Note_on_c, 2, 57, 76
2, 153468, Note_on_c, 2, 60, 0
2, 153468, Note_on_c, 2, 62, 0
2, 153480, Note_on_c, 2, 57, 0
2, 153496, Note_on_c, 2, 53, 0
2, 153756, Note_on_c, 2, 37, 111
2, 153832, Note_on_c, 2, 37, 0
2, 153996, Note_on_c, 2, 69, 0
2, 153996, Note_on_c, 2, 81, 0
2, 154128, Note_on_c, 2, 61, 99
2, 154132, Note_on_c, 2, 55, 84
2, 154136, Note_on_c, 2, 58, 99
2, 154148, Note_on_c, 2, 79, 110
2, 154148, Note_on_c, 2, 67, 112
2, 154196, Note_on_c, 2, 61, 0
2, 154212, Note_on_c, 2, 58, 0
2, 154216, Note_on_c, 2, 55, 0
2, 154368, Note_on_c, 2, 79, 0
2, 154388, Note_on_c, 2, 67, 0
2, 154520, Note_on_c, 2, 36, 99
2, 154544, Note_on_c, 2, 65, 80
2, 154592, Note_on_c, 2, 36, 0
2, 154612, Note_on_c, 2, 65, 0
2, 154916, Note_on_c, 2, 60, 93
2, 154920, Note_on_c, 2, 55, 85
2, 154920, Note_on_c, 2, 67, 108
2, 154920, Note_on_c, 2, 58, 98
2, 154988, Note_on_c, 2, 60, 0
2, 154996, Note_on_c, 2, 58, 0
2, 155012, Note_on_c, 2, 55, 0
2, 155128, Note_on_c, 2, 67, 0
2, 155208, Note_on_c, 2, 65, 106
2, 155312, Note_on_c, 2, 43, 85
2, 155348, Note_on_c, 2, 65, 0
2, 155380, Note_on_c, 2, 43, 0
2, 155592, Note_on_c, 2, 67, 74
2, 155660, Note_on_c, 2, 67, 0
2, 155676, Note_on_c, 2, 60, 88
2, 155680, Note_on_c, 2, 55, 82
2, 155680, Note_on_c, 2, 58, 99
2, 155700, Note_on_c, 2, 70, 113
2, 155748, Note_on_c, 2, 60, 0
2, 155760, Note_on_c, 2, 58, 0
2, 155768, Note_on_c, 2, 55, 0
2, 155900, Note_on_c, 2, 70, 0
2, 156072, Note_on_c, 2, 39, 107
2, 156080, Note_on_c, 2, 64, 111
2, 156084, Note_on_c, 2, 73, 119
2, 156136, Note_on_c, 2, 39, 0
2, 156272, Note_on_c, 2, 64, 0
2, 156300, Note_on_c, 2, 73, 0
2, 156368, Note_on_c, 2, 73, 103
2, 156368, Note_on_c, 2, 65, 97
2, 156372, Note_on_c, 2, 70, 106
2, 156452, Note_on_c, 2, 60, 96
2, 156456, Note_on_c, 2, 54, 98
2, 156480, Note_on_c, 2, 70, 0
2, 156480, Note_on_c, 2, 65, 0
2, 156496, Note_on_c, 2, 73, 0
2, 156532, Note_on_c, 2, 60, 0
2, 156564, Note_on_c, 2, 54, 0
2, 156724, Note_on_c, 2, 65, 114
2, 156724, Note_on_c, 2, 73, 106
2, 156728, Note_on_c, 2, 74, 107
2, 156824, Note_on_c, 2, 73, 0
2, 156840, Note_on_c, 2, 38, 93
2, 156844, Note_on_c, 2, 65, 0
2, 156868, Note_on_c, 2, 74, 0
2, 156908, Note_on_c, 2, 38, 0
2, 157216, Note_on_c, 2, 60, 83
2, 157216, Note_on_c, 2, 54, 95
2, 157220, Note_on_c, 2, 62, 79
2, 157236, Note_on_c, 2, 65, 75
2, 157276, Note_on_c, 2, 60, 0
2, 157284, Note_on_c, 2, 62, 0
2, 157300, Note_on_c, 2, 54, 0
2, 157348, Note_on_c, 2, 65, 0
2, 157356, Note_on_c, 2, 67, 51
2, 157432, Note_on_c, 2, 67, 0
2, 157508, Note_on_c, 2, 70, 76
2, 157556, Note_on_c, 2, 70, 0
2, 157600, Note_on_c, 2, 38, 92
2, 157612, Note_on_c, 2, 65, 103
2, 157612, Note_on_c, 2, 73, 112
2, 157684, Note_on_c, 2, 38, 0
2, 157772, Note_on_c, 2, 65, 0
2, 157792, Note_on_c, 2, 73, 0
2, 157884, Note_on_c, 2, 65, 110
2, 157884, Note_on_c, 2, 74, 111
2, 157980, Note_on_c, 2, 62, 83
2, 157980, Note_on_c, 2, 54, 95
2, 157980, Note_on_c, 2, 60, 88
2, 158052, Note_on_c, 2, 60, 0
2, 158056, Note_on_c, 2, 62, 0
2, 158080, Note_on_c, 2, 54, 0
2, 158356, Note_on_c, 2, 43, 99
2, 158464, Note_on_c, 2, 43, 0
2, 158732, Note_on_c, 2, 65, 0
2, 158736, Note_on_c, 2, 59, 106
2, 158780, Note_on_c, 2, 74, 0
2, 158852, Note_on_c, 2, 59, 0
2, 159036, Note_on_c, 2, 75, 68
2, 159076, Note_on_c, 2, 75, 0
2, 159132, Note_on_c, 2, 77, 107
2, 159136, Note_on_c, 2, 67, 109
2, 159136, Note_on_c, 2, 70, 113
2, 159284, Note_on_c, 2, 70, 0
2, 159296, Note_on_c, 2, 77, 0
2, 159332, Note_on_c, 2, 67, 0
2, 159396, Note_on_c, 2, 36, 96
2, 159400, Note_on_c, 2, 51, 108
2, 159540, Note_on_c, 2, 36, 0
2, 159588, Note_on_c, 2, 51, 0
2, 159888, Note_on_c, 2, 74, 93
2, 159892, Note_on_c, 2, 63, 104
2, 159892, Note_on_c, 2, 66, 97
2, 159896, Note_on_c, 2, 69, 83
2, 159896, Note_on_c, 2, 71, 85
2, 160092, Note_on_c, 2, 74, 0
2, 160100, Note_on_c, 2, 71, 0
2, 160128, Note_on_c, 2, 69, 0
2, 160144, Note_on_c, 2, 55, 104
2, 160148, Note_on_c, 2, 54, 111
2, 160156, Note_on_c, 2, 66, 0
2, 160156, Note_on_c, 2, 63, 0
2, 160184, Note_on_c, 2, 54, 0
2, 160640, Note_on_c, 2, 55, 0
2, 160652, Note_on_c, 2, 71, 95
2, 160652, Note_on_c, 2, 68, 92
2, 160656, Note_on_c, 2, 60, 99
2, 160656, Note_on_c, 2, 66, 95
2, 160656, Note_on_c, 2, 63, 100
2, 160820, Note_on_c, 2, 60, 0
2, 160828, Note_on_c, 2, 66, 0
2, 160828, Note_on_c, 2, 68, 0
2, 160832, Note_on_c, 2, 71, 0
2, 160836, Note_on_c, 2, 63, 0
2, 160916, Note_on_c, 2, 41, 95
2, 160916, Note_on_c, 2, 53, 101
2, 161196, Note_on_c, 2, 53, 0
2, 161424, Note_on_c, 2, 51, 96
2, 161428, Note_on_c, 2, 65, 94
2, 161428, Note_on_c, 2, 57, 88
2, 161428, Note_on_c, 2, 61, 98
2, 161564, Note_on_c, 2, 51, 0
2, 161604, Note_on_c, 2, 61, 0
2, 161604, Note_on_c, 2, 57, 0
2, 161620, Note_on_c, 2, 65, 0
2, 161796, Note_on_c, 2, 65, 93
2, 161796, Note_on_c, 2, 61, 97
2, 161800, Note_on_c, 2, 57, 91
2, 161800, Note_on_c, 2, 51, 97
2, 161876, Note_on_c, 2, 41, 0
2, 161920, Note_on_c, 2, 51, 0
2, 161928, Note_on_c, 2, 57, 0
2, 161940, Note_on_c, 2, 61, 0
2, 161956, Note_on_c, 2, 65, 0
2, 162188, Note_on_c, 2, 70, 100
2, 162188, Note_on_c, 2, 56, 97
2, 162192, Note_on_c, 2, 62, 93
2, 162192, Note_on_c, 2, 64, 97
2, 162192, Note_on_c, 2, 46, 94
2, 162396, Note_on_c, 2, 70, 0
2, 162404, Note_on_c, 2, 62, 0
2, 162452, Note_on_c, 2, 64, 0
2, 162456, Note_on_c, 2, 68, 100
2, 162564, Note_on_c, 2, 46, 0
2, 162604, Note_on_c, 2, 56, 0
2, 162636, Note_on_c, 2, 68, 0
2, 162648, Note_on_c, 2, 62, 57
2, 162720, Note_on_c, 2, 64, 66
2, 162764, Note_on_c, 2, 62, 0
2, 162768, Note_on_c, 2, 68, 61
2, 162804, Note_on_c, 2, 70, 101
2, 162816, Note_on_c, 2, 64, 0
2, 162844, Note_on_c, 2, 68, 0
2, 162864, Note_on_c, 2, 70, 0
2, 162924, Note_on_c, 2, 61, 98
2, 162932, Note_on_c, 2, 51, 96
2, 162936, Note_on_c, 2, 67, 99
2, 162940, Note_on_c, 2, 75, 113
2, 163140, Note_on_c, 2, 67, 0
2, 163148, Note_on_c, 2, 75, 0
2, 163196, Note_on_c, 2, 73, 108
2, 163332, Note_on_c, 2, 58, 91
2, 163368, Note_on_c, 2, 51, 0
2, 163380, Note_on_c, 2, 61, 0
2, 163396, Note_on_c, 2, 58, 0
2, 163396, Note_on_c, 2, 73, 0
2, 163408, Note_on_c, 2, 67, 59
2, 163484, Note_on_c, 2, 69, 64
2, 163528, Note_on_c, 2, 73, 62
2, 163548, Note_on_c, 2, 67, 0
2, 163600, Note_on_c, 2, 69, 0
2, 163600, Note_on_c, 2, 75, 107
2, 163624, Note_on_c, 2, 73, 0
2, 163656, Note_on_c, 2, 75, 0
2, 163740, Note_on_c, 2, 80, 112
2, 163740, Note_on_c, 2, 72, 103
2, 163936, Note_on_c, 2, 72, 0
2, 163948, Note_on_c, 2, 80, 0
2, 163968, Note_on_c, 2, 66, 98
2, 163972, Note_on_c, 2, 56, 92
2, 163992, Note_on_c, 2, 78, 106
2, 164080, Control_c, 2, 64, 127
2, 164196, Note_off_c, 2, 78, 0
2, 164204, Note_off_c, 2, 56, 0
2, 164208, Note_on_c, 2, 72, 62
2, 164228, Note_on_c, 2, 66, 0
2, 164272, Note_on_c, 2, 74, 67
2, 164308, Note_on_c, 2, 78, 86
2, 164320, Note_on_c, 2, 72, 0
2, 164356, Note_on_c, 2, 74, 0
2, 164364, Note_on_c, 2, 80, 90
2, 164368, Control_c, 2, 64, 0
2, 164396, Note_off_c, 2, 80, 0
2, 164396, Note_off_c, 2, 78, 0
2, 164476, Note_on_c, 2, 85, 108
2, 164664, Note_on_c, 2, 85, 0
2, 164704, Note_on_c, 2, 71, 85
2, 164708, Note_on_c, 2, 83, 90
2, 164712, Note_on_c, 2, 61, 88
2, 164712, Note_on_c, 2, 77, 87
2, 164712, Note_on_c, 2, 65, 88
2, 164796, Control_c, 2, 64, 127
2, 164836, Note_off_c, 2, 77, 0
2, 164884, Note_off_c, 2, 65, 0
2, 164888, Note_off_c, 2, 61, 0
2, 164892, Note_off_c, 2, 71, 0
2, 164912, Note_on_c, 2, 77, 65
2, 164916, Note_on_c, 2, 83, 0
2, 164980, Note_on_c, 2, 79, 62
2, 165032, Note_on_c, 2, 83, 49
2, 165040, Note_on_c, 2, 77, 0
2, 165048, Note_on_c, 2, 82, 33
2, 165076, Note_on_c, 2, 85, 108
2, 165084, Note_on_c, 2, 82, 0
2, 165088, Note_on_c, 2, 79, 0
2, 165104, Control_c, 2, 64, 0
2, 165120, Note_off_c, 2, 83, 0
2, 165148, Note_off_c, 2, 85, 0
2, 165260, Note_on_c, 2, 70, 83
2, 165260, Note_on_c, 2, 89, 102
2, 165264, Note_on_c, 2, 82, 102
2, 165268, Note_on_c, 2, 60, 68
2, 165268, Note_on_c, 2, 64, 76
2, 165316, Note_on_c, 2, 82, 0
2, 165324, Note_on_c, 2, 89, 0
2, 165352, Note_on_c, 2, 70, 0
2, 165360, Note_on_c, 2, 60, 0
2, 165372, Note_on_c, 2, 64, 0
2, 165428, Note_on_c, 2, 70, 93
2, 165432, Note_on_c, 2, 64, 73
2, 165436, Note_on_c, 2, 89, 103
2, 165436, Note_on_c, 2, 60, 76
2, 165440, Note_on_c, 2, 82, 105
2, 165512, Note_on_c, 2, 82, 0
2, 165524, Note_on_c, 2, 89, 0
2, 165528, Note_on_c, 2, 60, 0
2, 165528, Note_on_c, 2, 64, 0
2, 165532, Note_on_c, 2, 70, 0
2, 165604, Note_on_c, 2, 88, 99
2, 165604, Note_on_c, 2, 63, 91
2, 165608, Note_on_c, 2, 81, 88
2, 165608, Note_on_c, 2, 69, 72
2, 165612, Note_on_c, 2, 59, 73
2, 165676, Note_on_c, 2, 81, 0
2, 165688, Note_on_c, 2, 69, 0
2, 165692, Note_on_c, 2, 63, 0
2, 165696, Note_on_c, 2, 88, 0
2, 165700, Note_on_c, 2, 59, 0
2, 165780, Note_on_c, 2, 69, 79
2, 165780, Note_on_c, 2, 63, 87
2, 165784, Note_on_c, 2, 59, 78
2, 165784, Note_on_c, 2, 88, 101
2, 165784, Note_on_c, 2, 81, 93
2, 165852, Note_on_c, 2, 59, 0
2, 165860, Note_on_c, 2, 69, 0
2, 165868, Note_on_c, 2, 88, 0
2, 165872, Note_on_c, 2, 81, 0
2, 165872, Note_on_c, 2, 63, 0
2, 165960, Note_on_c, 2, 87, 99
2, 165960, Note_on_c, 2, 58, 90
2, 165964, Note_on_c, 2, 80, 101
2, 165964, Note_on_c, 2, 68, 81
2, 165968, Note_on_c, 2, 62, 71
2, 166048, Note_on_c, 2, 68, 0
2, 166048, Note_on_c, 2, 80, 0
2, 166056, Note_on_c, 2, 58, 0
2, 166068, Note_on_c, 2, 62, 0
2, 166068, Note_on_c, 2, 87, 0
2, 166148, Note_on_c, 2, 58, 85
2, 166152, Note_on_c, 2, 68, 82
2, 166156, Note_on_c, 2, 62, 69
2, 166156, Note_on_c, 2, 80, 96
2, 166156, Note_on_c, 2, 87, 96
2, 166244, Note_on_c, 2, 68, 0
2, 166256, Note_on_c, 2, 80, 0
2, 166260, Note_on_c, 2, 62, 0
2, 166260, Note_on_c, 2, 58, 0
2, 166280, Note_on_c, 2, 87, 0
2, 166344, Note_on_c, 2, 79, 96
2, 166348, Note_on_c, 2, 86, 100
2, 166348, Note_on_c, 2, 67, 86
2, 166352, Note_on_c, 2, 62, 81
2, 166352, Note_on_c, 2, 57, 75
2, 166440, Note_on_c, 2, 79, 0
2, 166444, Note_on_c, 2, 67, 0
2, 166456, Note_on_c, 2, 57, 0
2, 166460, Note_on_c, 2, 62, 0
2, 166464, Note_on_c, 2, 86, 0
2, 166548, Note_on_c, 2, 67, 81
2, 166548, Note_on_c, 2, 62, 80
2, 166556, Note_on_c, 2, 79, 101
2, 166556, Note_on_c, 2, 86, 103
2, 166556, Note_on_c, 2, 57, 70
2, 166620, Note_on_c, 2, 57, 0
2, 166664, Note_on_c, 2, 86, 0
2, 166664, Note_on_c, 2, 67, 0
2, 166668, Note_on_c, 2, 79, 0
2, 166668, Note_on_c, 2, 62, 0
2, 166764, Note_on_c, 2, 60, 88
2, 166764, Note_on_c, 2, 62, 91
2, 166764, Note_on_c, 2, 85, 111
2, 166768, Note_on_c, 2, 78, 112
2, 166768, Note_on_c, 2, 61, 68
2, 166768, Note_on_c, 2, 56, 91
2, 166840, Note_on_c, 2, 62, 0
2, 166848, Note_on_c, 2, 61, 0
2, 166856, Note_on_c, 2, 60, 0
2, 166876, Note_on_c, 2, 85, 0
2, 166884, Note_on_c, 2, 78, 0
2, 166888, Note_on_c, 2, 56, 0
2, 167212, Note_on_c, 2, 61, 108
2, 167212, Note_on_c, 2, 69, 95
2, 167216, Note_on_c, 2, 51, 106
2, 167216, Note_on_c, 2, 47, 94
2, 167216, Note_on_c, 2, 57, 101
2, 167216, Note_on_c, 2, 66, 103
2, 167264, Control_c, 2, 64, 127
2, 167320, Note_off_c, 2, 57, 0
2, 167332, Note_off_c, 2, 47, 0
2, 167344, Note_off_c, 2, 61, 0
2, 167368, Note_off_c, 2, 69, 0
2, 167376, Note_off_c, 2, 66, 0
2, 167376, Note_off_c, 2, 51, 0
2, 167396, Control_c, 2, 64, 0
2, 167524, Note_on_c, 2, 69, 99
2, 167528, Note_on_c, 2, 62, 106
2, 167528, Note_on_c, 2, 64, 112
2, 167536, Note_on_c, 2, 55, 101
2, 167536, Note_on_c, 2, 46, 110
2, 167536, Note_on_c, 2, 53, 105
2, 167676, Control_c, 2, 64, 127
2, 167744, Note_off_c, 2, 46, 0
2, 167748, Note_off_c, 2, 62, 0
2, 167752, Note_off_c, 2, 53, 0
2, 167764, Note_off_c, 2, 64, 0
2, 167772, Note_off_c, 2, 55, 0
2, 167792, Note_off_c, 2, 69, 0
2, 168436, Note_on_c, 2, 72, 70
2, 168476, Note_on_c, 2, 74, 73
2, 168492, Note_on_c, 2, 72, 0
2, 168508, Note_on_c, 2, 79, 71
2, 168524, Note_on_c, 2, 74, 0
2, 168524, Note_on_c, 2, 76, 98
2, 168560, Note_on_c, 2, 76, 0
2, 168568, Note_on_c, 2, 79, 0
2, 168568, Note_on_c, 2, 84, 78
2, 168592, Note_on_c, 2, 86, 84
2, 168628, Note_on_c, 2, 84, 0
2, 168636, Note_on_c, 2, 88, 63
2, 168648, Note_on_c, 2, 86, 0
2, 168652, Note_on_c, 2, 89, 54
2, 168684, Note_on_c, 2, 88, 0
2, 168684, Note_on_c, 2, 91, 81
2, 168696, Note_on_c, 2, 89, 0
2, 168748, Note_on_c, 2, 96, 75
2, 168804, Note_on_c, 2, 91, 0
2, 168804, Note_on_c, 2, 98, 81
2, 168832, Note_on_c, 2, 105, 91
2, 168836, Note_on_c, 2, 103, 64
2, 168840, Note_on_c, 2, 98, 0
2, 168844, Note_on_c, 2, 96, 0
2, 168860, Note_on_c, 2, 105, 0
2, 168876, Note_on_c, 2, 91, 58
2, 168880, Note_on_c, 2, 89, 86
2, 168884, Note_on_c, 2, 103, 0
2, 168912, Note_on_c, 2, 89, 0
2, 168948, Note_on_c, 2, 91, 0
2, 168948, Note_on_c, 2, 103, 84
2, 168948, Note_on_c, 2, 105, 75
2, 168976, Note_on_c, 2, 105, 0
2, 169004, Note_on_c, 2, 103, 0
2, 169024, Note_on_c, 2, 91, 56
2, 169052, Note_on_c, 2, 103, 88
2, 169072, Note_on_c, 2, 91, 0
2, 169120, Note_on_c, 2, 103, 0
2, 169136, Note_on_c, 2, 91, 68
2, 169176, Note_on_c, 2, 91, 0
2, 169196, Note_on_c, 2, 103, 68
2, 169200, Note_on_c, 2, 105, 60
2, 169228, Note_on_c, 2, 103, 0
2, 169236, Note_on_c, 2, 105, 0
2, 169240, Note_on_c, 2, 91, 76
2, 169304, Note_on_c, 2, 91, 0
2, 169304, Note_on_c, 2, 103, 82
2, 169352, Note_on_c, 2, 103, 0
2, 169368, Note_on_c, 2, 91, 82
2, 169420, Note_on_c, 2, 91, 0
2, 169428, Note_on_c, 2, 103, 88
2, 169472, Note_on_c, 2, 103, 0
2, 169492, Note_on_c, 2, 91, 76
2, 169544, Note_on_c, 2, 91, 0
2, 169572, Note_on_c, 2, 103, 41
2, 169600, Note_on_c, 2, 91, 83
2, 169612, Note_on_c, 2, 103, 0
2, 169652, Note_on_c, 2, 103, 93
2, 169664, Note_on_c, 2, 91, 0
2, 169728, Note_on_c, 2, 103, 0
2, 170156, Note_on_c, 2, 26, 85
2, 170160, Note_on_c, 2, 29, 76
2, 170188, Note_on_c, 2, 34, 92
2, 170228, Control_c, 2, 64, 0
2, 170312, Note_off_c, 2, 34, 0
2, 170336, Note_on_c, 2, 22, 112
2, 170340, Note_on_c, 2, 29, 0
2, 170384, Note_on_c, 2, 26, 0
2, 170544, Note_on_c, 2, 22, 0
2, 170736, End_track
0, 0, End_of_file
