2,0,Note_on_c,2,81,60,
2,0,Note_on_c,2,66,60,
2,0,Note_on_c,2,73,60,
2,0,Note_on_c,2,76,60,
2,75,Note_off_c,2,81,0,
2,75,Note_off_c,2,66,0,
2,75,Note_off_c,2,73,0,
2,75,Note_off_c,2,76,0,
2,75,Note_on_c,2,80,0,
2,90,Note_off_c,2,80,0,
2,330,Note_on_c,2,71,120,
2,465,Note_off_c,2,71,0,
2,510,Note_on_c,2,47,105,
2,630,Note_off_c,2,47,0,
2,675,Note_on_c,2,49,105,
2,675,Note_on_c,2,59,105,
2,795,Note_off_c,2,49,0,
2,795,Note_off_c,2,59,0,
2,1005,Note_on_c,2,65,0,
2,1005,Note_on_c,2,76,0,
2,1005,Note_on_c,2,48,15,
2,1005,Note_on_c,2,57,15,
2,1005,Note_on_c,2,69,45,
2,1020,Note_off_c,2,65,0,
2,1020,Note_off_c,2,76,0,
2,1020,Note_on_c,2,66,0,
2,1020,Note_on_c,2,75,15,
2,1035,Note_off_c,2,48,0,
2,1035,Note_off_c,2,66,0,
2,1035,Note_off_c,2,57,0,
2,1035,Note_on_c,2,56,0,
2,1035,Note_on_c,2,47,0,
2,1050,Note_off_c,2,56,0,
2,1050,Note_off_c,2,75,0,
2,1050,Note_off_c,2,47,0,
2,1050,Note_on_c,2,65,0,
2,1050,Note_on_c,2,54,0,
2,1050,Note_on_c,2,76,15,
2,1065,Note_off_c,2,65,0,
2,1065,Note_off_c,2,69,0,
2,1065,Note_off_c,2,54,0,
2,1065,Note_on_c,2,68,0,
2,1065,Note_on_c,2,55,0,
2,1065,Note_on_c,2,64,45,
2,1080,Note_off_c,2,68,0,
2,1080,Note_off_c,2,55,0,
2,1080,Note_off_c,2,76,0,
2,1080,Note_on_c,2,67,0,
2,1080,Note_on_c,2,54,0,
2,1080,Note_on_c,2,58,15,
2,1080,Note_on_c,2,75,15,
2,1095,Note_off_c,2,67,0,
2,1095,Note_off_c,2,54,0,
2,1095,Note_on_c,2,70,15,
2,1110,Note_off_c,2,58,0,
2,1110,Note_off_c,2,75,0,
2,1110,Note_on_c,2,76,0,
2,1125,Note_off_c,2,64,0,
2,1125,Note_off_c,2,70,0,
2,1125,Note_off_c,2,76,0,
2,1845,Note_on_c,2,66,105,
2,1860,Note_on_c,2,82,105,
2,1965,Note_off_c,2,66,0,
2,1980,Note_off_c,2,82,0,
2,2250,Note_on_c,2,78,150,
2,2415,Note_off_c,2,78,0,
2,2415,Note_on_c,2,73,60,
2,2415,Note_on_c,2,42,75,
2,2415,Note_on_c,2,74,195,
2,2490,Note_off_c,2,73,0,
2,2490,Note_on_c,2,76,0,
2,2505,Note_off_c,2,42,0,
2,2505,Note_off_c,2,76,0,
2,2535,Note_on_c,2,76,15,
2,2550,Note_on_c,2,77,195,
2,2565,Note_off_c,2,76,0,
2,2625,Note_off_c,2,74,0,
2,2670,Note_on_c,2,67,0,
2,2670,Note_on_c,2,66,30,
2,2670,Note_on_c,2,70,60,
2,2670,Note_on_c,2,61,75,
2,2670,Note_on_c,2,72,90,
2,2685,Note_off_c,2,67,0,
2,2715,Note_off_c,2,66,0,
2,2715,Note_on_c,2,67,0,
2,2730,Note_off_c,2,67,0,
2,2745,Note_off_c,2,70,0,
2,2760,Note_off_c,2,77,0,
2,2760,Note_off_c,2,61,0,
2,2760,Note_on_c,2,78,0,
2,2775,Note_off_c,2,72,0,
2,2775,Note_off_c,2,78,0,
2,3060,Note_on_c,2,56,45,
2,3120,Note_off_c,2,56,0,
2,3210,Note_on_c,2,51,75,
2,3255,Note_on_c,2,61,120,
2,3300,Note_off_c,2,51,0,
2,3315,Note_on_c,2,74,30,
2,3315,Note_on_c,2,70,45,
2,3315,Note_on_c,2,67,75,
2,3360,Note_off_c,2,74,0,
2,3360,Note_on_c,2,72,15,
2,3360,Note_on_c,2,71,45,
2,3375,Note_off_c,2,70,0,
2,3390,Note_off_c,2,72,0,
2,3390,Note_off_c,2,61,0,
2,3405,Note_off_c,2,67,0,
2,3405,Note_on_c,2,7,0,
2,3420,Note_off_c,2,71,0,
2,3420,Note_off_c,2,7,0,
2,3990,Note_on_c,2,71,75,
2,4080,Note_off_c,2,71,0,
2,4230,Note_on_c,2,54,60,
2,4230,Note_on_c,2,73,210,
2,4305,Note_off_c,2,54,0,
2,4455,Note_off_c,2,73,0,
2,4455,Note_on_c,2,67,0,
2,4455,Note_on_c,2,45,0,
2,4455,Note_on_c,2,61,30,
2,4455,Note_on_c,2,71,165,
2,4470,Note_off_c,2,67,0,
2,4470,Note_off_c,2,45,0,
2,4470,Note_on_c,2,46,0,
2,4470,Note_on_c,2,66,30,
2,4470,Note_on_c,2,51,45,
2,4485,Note_off_c,2,46,0,
2,4485,Note_on_c,2,45,0,
2,4500,Note_off_c,2,61,0,
2,4500,Note_off_c,2,45,0,
2,4515,Note_off_c,2,66,0,
2,4530,Note_off_c,2,51,0,
2,4545,Note_on_c,2,76,45,
2,4545,Note_on_c,2,66,75,
2,4590,Note_on_c,2,81,0,
2,4605,Note_off_c,2,81,0,
2,4605,Note_off_c,2,76,0,
2,4605,Note_on_c,2,78,0,
2,4620,Note_off_c,2,78,0,
2,4635,Note_off_c,2,66,0,
2,4635,Note_off_c,2,71,0,
2,5085,Note_on_c,2,65,30,
2,5100,Note_on_c,2,70,0,
2,5100,Note_on_c,2,68,75,
2,5100,Note_on_c,2,72,90,
2,5115,Note_off_c,2,70,0,
2,5115,Note_on_c,2,75,60,
2,5130,Note_off_c,2,65,0,
2,5190,Note_off_c,2,68,0,
2,5190,Note_off_c,2,75,0,
2,5205,Note_off_c,2,72,0,
2,5550,Note_on_c,2,80,135,
2,5700,Note_off_c,2,80,0,
2,5745,Note_on_c,2,83,75,
2,5820,Note_on_c,2,80,180,
2,5835,Note_off_c,2,83,0,
2,5895,Note_on_c,2,78,90,
2,5940,Note_on_c,2,83,15,
2,5970,Note_off_c,2,83,0,
2,6000,Note_off_c,2,78,0,
2,6015,Note_off_c,2,80,0,
2,6045,Note_on_c,2,76,15,
2,6045,Note_on_c,2,57,60,
2,6045,Note_on_c,2,47,60,
2,6060,Note_on_c,2,63,0,
2,6060,Note_on_c,2,78,45,
2,6075,Note_off_c,2,76,0,
2,6075,Note_off_c,2,63,0,
2,6075,Note_on_c,2,66,30,
2,6075,Note_on_c,2,73,30,
2,6120,Note_off_c,2,66,0,
2,6120,Note_off_c,2,57,0,
2,6120,Note_off_c,2,73,0,
2,6120,Note_off_c,2,78,0,
2,6120,Note_off_c,2,47,0,
2,6120,Note_on_c,2,48,0,
2,6120,Note_on_c,2,75,30,
2,6135,Note_off_c,2,48,0,
2,6165,Note_off_c,2,75,0,
2,6255,Note_on_c,2,71,60,
2,6330,Note_off_c,2,71,0,
2,6570,Note_on_c,2,63,90,
2,6660,Note_on_c,2,62,45,
2,6675,Note_off_c,2,63,0,
2,6705,Note_on_c,2,61,75,
2,6720,Note_off_c,2,62,0,
2,6795,Note_off_c,2,61,0,
2,6795,Note_on_c,2,63,30,
2,6840,Note_off_c,2,63,0,
2,6840,Note_on_c,2,66,75,
2,6885,Note_on_c,2,74,15,
2,6885,Note_on_c,2,60,15,
2,6885,Note_on_c,2,54,30,
2,6885,Note_on_c,2,69,60,
2,6915,Note_off_c,2,74,0,
2,6915,Note_off_c,2,60,0,
2,6915,Note_on_c,2,75,45,
2,6930,Note_off_c,2,66,0,
2,6930,Note_off_c,2,54,0,
2,6930,Note_on_c,2,65,15,
2,6930,Note_on_c,2,44,15,
2,6945,Note_on_c,2,57,0,
2,6945,Note_on_c,2,71,75,
2,6960,Note_off_c,2,65,0,
2,6960,Note_off_c,2,69,0,
2,6960,Note_off_c,2,57,0,
2,6960,Note_off_c,2,44,0,
2,6960,Note_on_c,2,56,0,
2,6960,Note_on_c,2,45,0,
2,6960,Note_on_c,2,66,15,
2,6975,Note_off_c,2,56,0,
2,6975,Note_off_c,2,75,0,
2,6975,Note_off_c,2,45,0,
2,6975,Note_on_c,2,76,30,
2,6990,Note_off_c,2,66,0,
2,6990,Note_on_c,2,67,0,
2,7005,Note_off_c,2,67,0,
2,7005,Note_on_c,2,68,15,
2,7020,Note_off_c,2,76,0,
2,7035,Note_off_c,2,68,0,
2,7035,Note_off_c,2,71,0,
2,7545,Note_on_c,2,66,45,
2,7545,Note_on_c,2,62,45,
2,7545,Note_on_c,2,59,60,
2,7605,Note_off_c,2,66,0,
2,7605,Note_off_c,2,62,0,
2,7620,Note_off_c,2,59,0,
2,7710,Note_on_c,2,74,165,
2,7725,Note_on_c,2,83,60,
2,7725,Note_on_c,2,80,75,
2,7725,Note_on_c,2,87,75,
2,7740,Note_on_c,2,86,45,
2,7785,Note_on_c,2,75,15,
2,7800,Note_off_c,2,83,0,
2,7800,Note_off_c,2,86,0,
2,7815,Note_off_c,2,80,0,
2,7815,Note_off_c,2,87,0,
2,7815,Note_off_c,2,75,0,
2,7815,Note_on_c,2,81,0,
2,7830,Note_off_c,2,81,0,
2,7860,Note_on_c,2,72,15,
2,7890,Note_off_c,2,72,0,
2,7890,Note_off_c,2,74,0,
2,8205,Note_on_c,2,44,75,
2,8295,Note_off_c,2,44,0,
2,8355,Note_on_c,2,83,90,
2,8355,Note_on_c,2,81,195,
2,8460,Note_off_c,2,83,0,
2,8565,Note_off_c,2,81,0,
2,8565,Note_on_c,2,71,0,
2,8565,Note_on_c,2,47,0,
2,8565,Note_on_c,2,85,15,
2,8565,Note_on_c,2,67,30,
2,8565,Note_on_c,2,74,30,
2,8565,Note_on_c,2,57,45,
2,8565,Note_on_c,2,62,60,
2,8565,Note_on_c,2,78,60,
2,8580,Note_off_c,2,71,0,
2,8580,Note_off_c,2,47,0,
2,8580,Note_on_c,2,81,15,
2,8595,Note_off_c,2,85,0,
2,8595,Note_on_c,2,87,15,
2,8610,Note_off_c,2,81,0,
2,8610,Note_off_c,2,67,0,
2,8610,Note_off_c,2,74,0,
2,8610,Note_on_c,2,64,0,
2,8610,Note_on_c,2,71,0,
2,8610,Note_on_c,2,85,15,
2,8610,Note_on_c,2,90,15,
2,8625,Note_off_c,2,64,0,
2,8625,Note_off_c,2,87,0,
2,8625,Note_off_c,2,71,0,
2,8625,Note_off_c,2,57,0,
2,8625,Note_on_c,2,81,0,
2,8625,Note_on_c,2,74,0,
2,8640,Note_off_c,2,81,0,
2,8640,Note_off_c,2,85,0,
2,8640,Note_off_c,2,90,0,
2,8640,Note_off_c,2,74,0,
2,8640,Note_off_c,2,62,0,
2,8640,Note_off_c,2,78,0,
2,8640,Note_on_c,2,84,0,
2,8640,Note_on_c,2,72,0,
2,8655,Note_off_c,2,84,0,
2,8655,Note_off_c,2,72,0,
2,8655,Note_on_c,2,52,0,
2,8670,Note_off_c,2,52,0,
2,9000,Note_on_c,2,86,105,
2,9000,Note_on_c,2,74,105,
2,9120,Note_off_c,2,86,0,
2,9120,Note_off_c,2,74,0,
2,9330,Note_on_c,2,72,30,
2,9375,Note_off_c,2,72,0,
2,9375,Note_on_c,2,79,15,
2,9375,Note_on_c,2,74,30,
2,9375,Note_on_c,2,67,45,
2,9375,Note_on_c,2,62,45,
2,9375,Note_on_c,2,52,75,
2,9390,Note_on_c,2,81,15,
2,9390,Note_on_c,2,71,45,
2,9405,Note_off_c,2,79,0,
2,9405,Note_on_c,2,80,60,
2,9420,Note_off_c,2,81,0,
2,9420,Note_off_c,2,74,0,
2,9420,Note_on_c,2,87,0,
2,9420,Note_on_c,2,83,30,
2,9420,Note_on_c,2,78,60,
2,9435,Note_off_c,2,67,0,
2,9435,Note_off_c,2,87,0,
2,9435,Note_off_c,2,62,0,
2,9435,Note_on_c,2,88,15,
2,9435,Note_on_c,2,74,15,
2,9450,Note_off_c,2,71,0,
2,9465,Note_off_c,2,83,0,
2,9465,Note_off_c,2,52,0,
2,9465,Note_off_c,2,88,0,
2,9465,Note_off_c,2,74,0,
2,9480,Note_off_c,2,80,0,
2,9495,Note_off_c,2,78,0,
2,9495,Note_on_c,2,77,45,
2,9555,Note_off_c,2,77,0,
2,10020,Note_on_c,2,73,150,
2,10035,Note_on_c,2,79,150,
2,10185,Note_off_c,2,73,0,
2,10185,Note_on_c,2,71,15,
2,10200,Note_off_c,2,79,0,
2,10215,Note_off_c,2,71,0,
2,10260,Note_on_c,2,75,165,
2,10260,Note_on_c,2,71,240,
2,10275,Note_on_c,2,77,225,
2,10440,Note_off_c,2,75,0,
2,10440,Note_on_c,2,68,15,
2,10440,Note_on_c,2,74,15,
2,10470,Note_off_c,2,68,0,
2,10470,Note_off_c,2,74,0,
2,10470,Note_on_c,2,75,15,
2,10500,Note_off_c,2,75,0,
2,10515,Note_off_c,2,71,0,
2,10515,Note_off_c,2,77,0,
2,11160,Note_on_c,2,82,0,
2,11160,Note_on_c,2,79,0,
2,11160,Note_on_c,2,49,75,
2,11175,Note_off_c,2,82,0,
2,11175,Note_off_c,2,79,0,
2,11175,Note_on_c,2,59,0,
2,11175,Note_on_c,2,77,0,
2,11175,Note_on_c,2,80,15,
2,11190,Note_off_c,2,59,0,
2,11190,Note_off_c,2,77,0,
2,11190,Note_on_c,2,79,0,
2,11190,Note_on_c,2,75,45,
2,11205,Note_off_c,2,80,0,
2,11205,Note_off_c,2,79,0,
2,11205,Note_on_c,2,59,0,
2,11205,Note_on_c,2,82,15,
2,11205,Note_on_c,2,71,30,
2,11205,Note_on_c,2,78,30,
2,11220,Note_off_c,2,59,0,
2,11235,Note_off_c,2,82,0,
2,11250,Note_off_c,2,49,0,
2,11250,Note_off_c,2,71,0,
2,11250,Note_off_c,2,75,0,
2,11250,Note_off_c,2,78,0,
2,11250,Note_on_c,2,42,0,
2,11250,Note_on_c,2,77,75,
2,11265,Note_off_c,2,42,0,
2,11265,Note_on_c,2,54,0,
2,11265,Note_on_c,2,72,45,
2,11280,Note_off_c,2,54,0,
2,11280,Note_on_c,2,59,15,
2,11280,Note_on_c,2,44,45,
2,11310,Note_off_c,2,59,0,
2,11310,Note_on_c,2,57,0,
2,11325,Note_off_c,2,72,0,
2,11325,Note_off_c,2,57,0,
2,11340,Note_off_c,2,44,0,
2,11340,Note_off_c,2,77,0,
2,11715,Note_on_c,2,73,45,
2,11775,Note_off_c,2,73,0,
2,11775,Note_on_c,2,77,0,
2,11775,Note_on_c,2,53,60,
2,11790,Note_off_c,2,77,0,
2,11805,Note_on_c,2,78,75,
2,11820,Note_on_c,2,81,15,
2,11850,Note_off_c,2,81,0,
2,11850,Note_off_c,2,53,0,
2,11850,Note_on_c,2,58,15,
2,11880,Note_off_c,2,58,0,
2,11895,Note_off_c,2,78,0,
2,11895,Note_on_c,2,77,30,
2,11910,Note_on_c,2,63,0,
2,11910,Note_on_c,2,68,15,
2,11910,Note_on_c,2,53,30,
2,11910,Note_on_c,2,70,75,
2,11910,Note_on_c,2,73,75,
2,11925,Note_off_c,2,63,0,
2,11925,Note_on_c,2,66,15,
2,11940,Note_off_c,2,68,0,
2,11940,Note_off_c,2,77,0,
2,11940,Note_on_c,2,75,15,
2,11940,Note_on_c,2,63,15,
2,11955,Note_off_c,2,66,0,
2,11955,Note_off_c,2,53,0,
2,11955,Note_on_c,2,68,30,
2,11970,Note_off_c,2,75,0,
2,11970,Note_off_c,2,63,0,
2,11970,Note_on_c,2,53,15,
2,11970,Note_on_c,2,77,15,
2,12000,Note_off_c,2,68,0,
2,12000,Note_off_c,2,53,0,
2,12000,Note_off_c,2,70,0,
2,12000,Note_off_c,2,73,0,
2,12000,Note_off_c,2,77,0,
2,12000,Note_on_c,2,78,0,
2,12000,Note_on_c,2,63,0,
2,12015,Note_off_c,2,78,0,
2,12015,Note_off_c,2,63,0,
2,13440,Note_on_c,2,59,120,
2,13515,Note_on_c,2,87,0,
2,13515,Note_on_c,2,73,0,
2,13515,Note_on_c,2,70,30,
2,13515,Note_on_c,2,79,45,
2,13530,Note_off_c,2,87,0,
2,13530,Note_off_c,2,73,0,
2,13530,Note_on_c,2,81,15,
2,13530,Note_on_c,2,72,15,
2,13530,Note_on_c,2,50,30,
2,13530,Note_on_c,2,77,30,
2,13545,Note_on_c,2,71,60,
2,13560,Note_off_c,2,81,0,
2,13560,Note_off_c,2,70,0,
2,13560,Note_off_c,2,72,0,
2,13560,Note_on_c,2,83,0,
2,13560,Note_on_c,2,80,15,
2,13575,Note_off_c,2,50,0,
2,13575,Note_off_c,2,83,0,
2,13575,Note_off_c,2,59,0,
2,13575,Note_off_c,2,77,0,
2,13575,Note_off_c,2,79,0,
2,13575,Note_on_c,2,51,0,
2,13575,Note_on_c,2,78,30,
2,13575,Note_on_c,2,81,45,
2,13575,Note_on_c,2,87,45,
2,13575,Note_on_c,2,75,45,
2,13590,Note_off_c,2,80,0,
2,13590,Note_off_c,2,51,0,
2,13590,Note_on_c,2,58,0,
2,13590,Note_on_c,2,41,30,
2,13605,Note_off_c,2,58,0,
2,13605,Note_on_c,2,57,45,
2,13620,Note_off_c,2,71,0,
2,13620,Note_off_c,2,78,0,
2,13620,Note_on_c,2,77,15,
2,13635,Note_off_c,2,81,0,
2,13635,Note_off_c,2,87,0,
2,13635,Note_off_c,2,41,0,
2,13635,Note_off_c,2,75,0,
2,13635,Note_on_c,2,85,0,
2,13635,Note_on_c,2,45,0,
2,13635,Note_on_c,2,71,15,
2,13650,Note_off_c,2,85,0,
2,13650,Note_off_c,2,77,0,
2,13650,Note_off_c,2,45,0,
2,13650,Note_on_c,2,44,0,
2,13665,Note_off_c,2,71,0,
2,13665,Note_off_c,2,57,0,
2,13665,Note_off_c,2,44,0,
2,13665,Note_on_c,2,73,0,
2,13680,Note_off_c,2,73,0,
2,14475,Note_on_c,2,69,105,
2,14595,Note_off_c,2,69,0,
2,14730,Note_on_c,2,69,75,
2,14745,Note_on_c,2,55,30,
2,14745,Note_on_c,2,66,60,
2,14745,Note_on_c,2,61,60,
2,14790,Note_off_c,2,55,0,
2,14790,Note_on_c,2,51,0,
2,14790,Note_on_c,2,56,0,
2,14805,Note_off_c,2,51,0,
2,14805,Note_off_c,2,56,0,
2,14805,Note_on_c,2,55,0,
2,14820,Note_off_c,2,66,0,
2,14820,Note_off_c,2,69,0,
2,14820,Note_off_c,2,55,0,
2,14820,Note_off_c,2,61,0,
2,14820,Note_on_c,2,56,0,
2,14835,Note_off_c,2,56,0,
2,15495,Note_on_c,2,67,0,
2,15495,Note_on_c,2,59,0,
2,15495,Note_on_c,2,64,45,
2,15495,Note_on_c,2,69,90,
2,15510,Note_off_c,2,67,0,
2,15510,Note_off_c,2,59,0,
2,15510,Note_on_c,2,54,0,
2,15510,Note_on_c,2,60,0,
2,15510,Note_on_c,2,76,0,
2,15510,Note_on_c,2,63,0,
2,15525,Note_off_c,2,54,0,
2,15525,Note_off_c,2,60,0,
2,15525,Note_off_c,2,76,0,
2,15525,Note_off_c,2,63,0,
2,15525,Note_on_c,2,50,0,
2,15525,Note_on_c,2,66,30,
2,15540,Note_off_c,2,50,0,
2,15540,Note_on_c,2,54,15,
2,15540,Note_on_c,2,61,30,
2,15555,Note_off_c,2,64,0,
2,15555,Note_on_c,2,74,0,
2,15570,Note_off_c,2,66,0,
2,15570,Note_off_c,2,54,0,
2,15570,Note_off_c,2,74,0,
2,15570,Note_on_c,2,64,90,
2,15570,Note_on_c,2,76,120,
2,15585,Note_off_c,2,61,0,
2,15600,Note_off_c,2,69,0,
2,15675,Note_off_c,2,64,0,
2,15705,Note_off_c,2,76,0,
2,15945,Note_on_c,2,68,90,
2,15945,Note_on_c,2,73,105,
2,15945,Note_on_c,2,70,120,
2,15945,Note_on_c,2,64,225,
2,16050,Note_off_c,2,68,0,
2,16065,Note_off_c,2,73,0,
2,16080,Note_off_c,2,70,0,
2,16185,Note_off_c,2,64,0,
2,16575,Note_on_c,2,78,90,
2,16575,Note_on_c,2,73,105,
2,16590,Note_on_c,2,81,75,
2,16590,Note_on_c,2,85,75,
2,16680,Note_off_c,2,81,0,
2,16680,Note_off_c,2,85,0,
2,16680,Note_off_c,2,78,0,
2,16680,Note_on_c,2,76,0,
2,16695,Note_off_c,2,73,0,
2,16695,Note_off_c,2,76,0,
2,16920,Note_on_c,2,58,0,
2,16920,Note_on_c,2,62,75,
2,16935,Note_off_c,2,58,0,
2,16935,Note_on_c,2,52,90,
2,16995,Note_on_c,2,73,0,
2,16995,Note_on_c,2,76,0,
2,16995,Note_on_c,2,77,0,
2,16995,Note_on_c,2,72,15,
2,16995,Note_on_c,2,70,45,
2,16995,Note_on_c,2,79,45,
2,17010,Note_off_c,2,73,0,
2,17010,Note_off_c,2,76,0,
2,17010,Note_off_c,2,77,0,
2,17010,Note_off_c,2,62,0,
2,17010,Note_on_c,2,66,0,
2,17025,Note_off_c,2,66,0,
2,17025,Note_off_c,2,72,0,
2,17025,Note_on_c,2,77,0,
2,17025,Note_on_c,2,62,30,
2,17040,Note_off_c,2,52,0,
2,17040,Note_off_c,2,77,0,
2,17055,Note_off_c,2,70,0,
2,17055,Note_off_c,2,79,0,
2,17055,Note_on_c,2,77,0,
2,17070,Note_off_c,2,77,0,
2,17070,Note_off_c,2,62,0,
2,17160,Note_on_c,2,79,0,
2,17160,Note_on_c,2,68,45,
2,17160,Note_on_c,2,59,45,
2,17160,Note_on_c,2,64,90,
2,17175,Note_off_c,2,79,0,
2,17175,Note_on_c,2,76,255,
2,17220,Note_off_c,2,68,0,
2,17220,Note_off_c,2,59,0,
2,17265,Note_off_c,2,64,0,
2,17385,Note_on_c,2,49,150,
2,17385,Note_on_c,2,75,255,
2,17445,Note_off_c,2,76,0,
2,17475,Note_on_c,2,73,60,
2,17550,Note_off_c,2,49,0,
2,17550,Note_off_c,2,73,0,
2,17550,Note_on_c,2,63,0,
2,17565,Note_off_c,2,63,0,
2,17625,Note_on_c,2,51,45,
2,17655,Note_off_c,2,75,0,
2,17655,Note_on_c,2,70,0,
2,17655,Note_on_c,2,65,105,
2,17670,Note_off_c,2,70,0,
2,17670,Note_on_c,2,60,90,
2,17685,Note_off_c,2,51,0,
2,17775,Note_off_c,2,65,0,
2,17775,Note_off_c,2,60,0,
2,17775,Note_on_c,2,61,0,
2,17790,Note_off_c,2,61,0,
2,17790,Note_on_c,2,58,30,
2,17805,Note_on_c,2,51,0,
2,17820,Note_off_c,2,51,0,
2,17820,Note_on_c,2,48,45,
2,17820,Note_on_c,2,71,195,
2,17835,Note_off_c,2,58,0,
2,17835,Note_on_c,2,75,180,
2,17880,Note_off_c,2,48,0,
2,18030,Note_off_c,2,71,0,
2,18030,Note_off_c,2,75,0,
2,18060,Note_on_c,2,65,0,
2,18060,Note_on_c,2,51,75,
2,18075,Note_off_c,2,65,0,
2,18075,Note_on_c,2,41,0,
2,18090,Note_off_c,2,41,0,
2,18135,Note_on_c,2,66,0,
2,18135,Note_on_c,2,73,15,
2,18150,Note_off_c,2,66,0,
2,18150,Note_off_c,2,51,0,
2,18150,Note_on_c,2,67,45,
2,18150,Note_on_c,2,61,45,
2,18150,Note_on_c,2,64,60,
2,18165,Note_off_c,2,73,0,
2,18165,Note_on_c,2,70,0,
2,18180,Note_off_c,2,70,0,
2,18210,Note_off_c,2,67,0,
2,18210,Note_off_c,2,61,0,
2,18225,Note_off_c,2,64,0,
2,18495,Note_on_c,2,87,135,
2,18495,Note_on_c,2,83,150,
2,18495,Note_on_c,2,90,165,
2,18510,Note_on_c,2,78,135,
2,18645,Note_off_c,2,87,0,
2,18660,Note_off_c,2,83,0,
2,18660,Note_off_c,2,78,0,
2,18675,Note_off_c,2,90,0,
2,18840,Note_on_c,2,87,0,
2,18840,Note_on_c,2,79,105,
2,18855,Note_off_c,2,87,0,
2,18855,Note_on_c,2,88,0,
2,18855,Note_on_c,2,60,45,
2,18855,Note_on_c,2,74,90,
2,18870,Note_off_c,2,88,0,
2,18870,Note_on_c,2,82,45,
2,18885,Note_on_c,2,70,45,
2,18915,Note_off_c,2,60,0,
2,18930,Note_off_c,2,82,0,
2,18945,Note_off_c,2,70,0,
2,18960,Note_off_c,2,74,0,
2,18960,Note_off_c,2,79,0,
2,19005,Note_on_c,2,84,15,
2,19005,Note_on_c,2,72,15,
2,19035,Note_off_c,2,84,0,
2,19035,Note_off_c,2,72,0,
2,19035,Note_on_c,2,82,90,
2,19035,Note_on_c,2,74,90,
2,19140,Note_off_c,2,82,0,
2,19140,Note_off_c,2,74,0,
2,19425,Note_on_c,2,84,45,
2,19425,Note_on_c,2,72,150,
2,19440,Note_on_c,2,79,60,
2,19440,Note_on_c,2,74,90,
2,19485,Note_off_c,2,84,0,
2,19485,Note_on_c,2,82,0,
2,19500,Note_off_c,2,82,0,
2,19515,Note_off_c,2,79,0,
2,19515,Note_on_c,2,77,30,
2,19515,Note_on_c,2,80,60,
2,19545,Note_off_c,2,74,0,
2,19560,Note_off_c,2,77,0,
2,19560,Note_on_c,2,75,15,
2,19590,Note_off_c,2,80,0,
2,19590,Note_off_c,2,72,0,
2,19590,Note_off_c,2,75,0,
2,19725,Note_on_c,2,81,0,
2,19725,Note_on_c,2,72,0,
2,19725,Note_on_c,2,61,0,
2,19725,Note_on_c,2,64,15,
2,19725,Note_on_c,2,67,15,
2,19725,Note_on_c,2,78,30,
2,19740,Note_off_c,2,81,0,
2,19740,Note_off_c,2,72,0,
2,19740,Note_off_c,2,61,0,
2,19740,Note_on_c,2,82,0,
2,19740,Note_on_c,2,85,0,
2,19740,Note_on_c,2,58,0,
2,19740,Note_on_c,2,76,0,
2,19740,Note_on_c,2,71,45,
2,19755,Note_off_c,2,64,0,
2,19755,Note_off_c,2,82,0,
2,19755,Note_off_c,2,67,0,
2,19755,Note_off_c,2,85,0,
2,19755,Note_off_c,2,58,0,
2,19755,Note_off_c,2,76,0,
2,19755,Note_on_c,2,62,0,
2,19755,Note_on_c,2,86,15,
2,19755,Note_on_c,2,66,30,
2,19755,Note_on_c,2,61,45,
2,19755,Note_on_c,2,81,60,
2,19755,Note_on_c,2,74,105,
2,19770,Note_off_c,2,78,0,
2,19770,Note_off_c,2,62,0,
2,19770,Note_on_c,2,64,0,
2,19770,Note_on_c,2,73,0,
2,19785,Note_off_c,2,64,0,
2,19785,Note_off_c,2,86,0,
2,19785,Note_off_c,2,73,0,
2,19785,Note_on_c,2,83,0,
2,19800,Note_off_c,2,66,0,
2,19800,Note_off_c,2,83,0,
2,19800,Note_off_c,2,71,0,
2,19800,Note_on_c,2,73,0,
2,19815,Note_off_c,2,73,0,
2,19815,Note_off_c,2,61,0,
2,19815,Note_on_c,2,67,15,
2,19830,Note_off_c,2,81,0,
2,19830,Note_on_c,2,79,0,
2,19845,Note_off_c,2,67,0,
2,19845,Note_off_c,2,79,0,
2,19845,Note_on_c,2,84,0,
2,19845,Note_on_c,2,77,15,
2,19860,Note_off_c,2,84,0,
2,19875,Note_off_c,2,74,0,
2,19875,Note_off_c,2,77,0,
2,19920,Note_on_c,2,87,75,
2,19920,Note_on_c,2,74,75,
2,19920,Note_on_c,2,80,90,
2,19920,Note_on_c,2,82,90,
2,19950,Note_on_c,2,75,45,
2,20010,Note_off_c,2,87,0,
2,20010,Note_off_c,2,74,0,
2,20010,Note_off_c,2,75,0,
2,20025,Note_off_c,2,80,0,
2,20025,Note_off_c,2,82,0,
2,20055,Note_on_c,2,64,0,
2,20070,Note_off_c,2,64,0,
2,20070,Note_on_c,2,52,0,
2,20070,Note_on_c,2,61,0,
2,20070,Note_on_c,2,66,60,
2,20085,Note_off_c,2,52,0,
2,20085,Note_off_c,2,61,0,
2,20085,Note_on_c,2,51,0,
2,20085,Note_on_c,2,42,0,
2,20085,Note_on_c,2,62,0,
2,20100,Note_off_c,2,51,0,
2,20100,Note_off_c,2,42,0,
2,20100,Note_off_c,2,62,0,
2,20100,Note_on_c,2,52,30,
2,20100,Note_on_c,2,63,30,
2,20100,Note_on_c,2,41,45,
2,20145,Note_off_c,2,66,0,
2,20145,Note_off_c,2,52,0,
2,20145,Note_off_c,2,63,0,
2,20145,Note_on_c,2,62,15,
2,20145,Note_on_c,2,64,30,
2,20160,Note_off_c,2,41,0,
2,20175,Note_off_c,2,62,0,
2,20175,Note_on_c,2,52,0,
2,20190,Note_off_c,2,64,0,
2,20190,Note_off_c,2,52,0,
2,20955,Note_on_c,2,83,165,
2,21135,Note_off_c,2,83,0,
2,21180,Note_on_c,2,78,105,
2,21180,Note_on_c,2,72,120,
2,21210,Note_on_c,2,62,90,
2,21300,Note_off_c,2,78,0,
2,21315,Note_off_c,2,72,0,
2,21315,Note_off_c,2,62,0,
2,21615,Note_on_c,2,69,90,
2,21615,Note_on_c,2,57,105,
2,21615,Note_on_c,2,62,105,
2,21630,Note_on_c,2,66,60,
2,21705,Note_off_c,2,66,0,
2,21720,Note_off_c,2,69,0,
2,21735,Note_off_c,2,57,0,
2,21735,Note_off_c,2,62,0,
2,22440,Note_on_c,2,81,0,
2,22440,Note_on_c,2,84,0,
2,22440,Note_on_c,2,88,0,
2,22440,Note_on_c,2,60,30,
2,22440,Note_on_c,2,64,45,
2,22440,Note_on_c,2,79,45,
2,22440,Note_on_c,2,66,90,
2,22455,Note_off_c,2,81,0,
2,22455,Note_off_c,2,84,0,
2,22455,Note_off_c,2,88,0,
2,22455,Note_on_c,2,83,30,
2,22455,Note_on_c,2,86,105,
2,22470,Note_on_c,2,71,0,
2,22485,Note_off_c,2,71,0,
2,22485,Note_off_c,2,60,0,
2,22485,Note_on_c,2,70,0,
2,22485,Note_on_c,2,61,15,
2,22500,Note_off_c,2,64,0,
2,22500,Note_off_c,2,83,0,
2,22500,Note_off_c,2,70,0,
2,22500,Note_off_c,2,79,0,
2,22500,Note_on_c,2,81,15,
2,22500,Note_on_c,2,69,15,
2,22500,Note_on_c,2,74,30,
2,22500,Note_on_c,2,78,120,
2,22515,Note_off_c,2,61,0,
2,22515,Note_on_c,2,64,60,
2,22530,Note_off_c,2,81,0,
2,22530,Note_off_c,2,69,0,
2,22530,Note_on_c,2,71,0,
2,22530,Note_on_c,2,84,15,
2,22545,Note_off_c,2,66,0,
2,22545,Note_off_c,2,71,0,
2,22545,Note_off_c,2,74,0,
2,22545,Note_on_c,2,87,0,
2,22545,Note_on_c,2,76,0,
2,22560,Note_off_c,2,84,0,
2,22560,Note_off_c,2,87,0,
2,22560,Note_off_c,2,76,0,
2,22560,Note_on_c,2,74,0,
2,22575,Note_off_c,2,86,0,
2,22575,Note_off_c,2,74,0,
2,22590,Note_off_c,2,64,0,
2,22635,Note_off_c,2,78,0,
2,22680,Note_on_c,2,77,105,
2,22785,Note_on_c,2,70,120,
2,22800,Note_off_c,2,77,0,
2,22920,Note_off_c,2,70,0,
2,23235,Note_on_c,2,51,60,
2,23235,Note_on_c,2,67,90,
2,23250,Note_on_c,2,76,60,
2,23310,Note_off_c,2,51,0,
2,23310,Note_on_c,2,57,15,
2,23325,Note_off_c,2,76,0,
2,23340,Note_off_c,2,67,0,
2,23340,Note_off_c,2,57,0,
2,23340,Note_on_c,2,65,0,
2,23355,Note_off_c,2,65,0,
2,23820,Note_on_c,2,88,165,
2,23820,Note_on_c,2,76,165,
2,24000,Note_off_c,2,88,0,
2,24000,Note_off_c,2,76,0,
2,24015,Note_on_c,2,81,0,
2,24015,Note_on_c,2,82,0,
2,24015,Note_on_c,2,75,0,
2,24015,Note_on_c,2,87,15,
2,24030,Note_off_c,2,81,0,
2,24030,Note_off_c,2,82,0,
2,24030,Note_off_c,2,75,0,
2,24030,Note_on_c,2,71,0,
2,24030,Note_on_c,2,12,0,
2,24030,Note_on_c,2,85,75,
2,24045,Note_off_c,2,87,0,
2,24045,Note_off_c,2,71,0,
2,24045,Note_off_c,2,12,0,
2,24045,Note_on_c,2,81,0,
2,24045,Note_on_c,2,78,0,
2,24060,Note_off_c,2,81,0,
2,24060,Note_off_c,2,78,0,
2,24060,Note_on_c,2,88,15,
2,24060,Note_on_c,2,82,60,
2,24060,Note_on_c,2,73,75,
2,24090,Note_off_c,2,88,0,
2,24120,Note_off_c,2,85,0,
2,24135,Note_off_c,2,82,0,
2,24150,Note_off_c,2,73,0,
2,24150,Note_on_c,2,42,15,
2,24165,Note_on_c,2,58,0,
2,24165,Note_on_c,2,61,0,
2,24165,Note_on_c,2,65,15,
2,24165,Note_on_c,2,68,15,
2,24180,Note_off_c,2,42,0,
2,24180,Note_off_c,2,58,0,
2,24180,Note_off_c,2,61,0,
2,24180,Note_on_c,2,32,15,
2,24180,Note_on_c,2,60,15,
2,24195,Note_off_c,2,65,0,
2,24195,Note_off_c,2,68,0,
2,24195,Note_on_c,2,55,0,
2,24195,Note_on_c,2,42,0,
2,24210,Note_off_c,2,32,0,
2,24210,Note_off_c,2,55,0,
2,24210,Note_off_c,2,42,0,
2,24210,Note_off_c,2,60,0,
2,24210,Note_on_c,2,30,0,
2,24210,Note_on_c,2,65,15,
2,24210,Note_on_c,2,52,15,
2,24210,Note_on_c,2,68,15,
2,24225,Note_off_c,2,30,0,
2,24240,Note_off_c,2,65,0,
2,24240,Note_off_c,2,52,0,
2,24240,Note_off_c,2,68,0,
2,24240,Note_on_c,2,66,0,
2,24240,Note_on_c,2,62,0,
2,24255,Note_off_c,2,66,0,
2,24255,Note_off_c,2,62,0,
2,24255,Note_on_c,2,37,0,
2,24255,Note_on_c,2,46,0,
2,24270,Note_off_c,2,37,0,
2,24270,Note_off_c,2,46,0,
2,24570,Note_on_c,2,72,390,
2,24585,Note_on_c,2,82,120,
2,24585,Note_on_c,2,77,120,
2,24600,Note_on_c,2,63,90,
2,24705,Note_off_c,2,63,0,
2,24720,Note_off_c,2,82,0,
2,24720,Note_off_c,2,77,0,
2,24720,Note_on_c,2,74,0,
2,24735,Note_off_c,2,74,0,
2,24750,Note_on_c,2,76,0,
2,24765,Note_off_c,2,76,0,
2,24780,Note_on_c,2,71,60,
2,24855,Note_off_c,2,71,0,
2,24885,Note_on_c,2,69,90,
2,24975,Note_off_c,2,72,0,
2,24990,Note_off_c,2,69,0,
2,25155,Note_on_c,2,68,45,
2,25155,Note_on_c,2,73,60,
2,25155,Note_on_c,2,78,60,
2,25215,Note_off_c,2,68,0,
2,25230,Note_off_c,2,73,0,
2,25230,Note_off_c,2,78,0,
2,25575,Note_on_c,2,70,75,
2,25665,Note_off_c,2,70,0,
2,26055,Note_on_c,2,64,120,
2,26055,Note_on_c,2,71,165,
2,26175,Note_on_c,2,72,45,
2,26190,Note_off_c,2,64,0,
2,26190,Note_on_c,2,73,30,
2,26235,Note_off_c,2,71,0,
2,26235,Note_off_c,2,72,0,
2,26235,Note_off_c,2,73,0,
2,26760,Note_on_c,2,80,0,
2,26760,Note_on_c,2,73,0,
2,26760,Note_on_c,2,77,15,
2,26775,Note_off_c,2,80,0,
2,26775,Note_off_c,2,73,0,
2,26775,Note_on_c,2,83,0,
2,26790,Note_off_c,2,83,0,
2,26790,Note_off_c,2,77,0,
2,26790,Note_on_c,2,73,75,
2,26790,Note_on_c,2,78,75,
2,26790,Note_on_c,2,70,90,
2,26880,Note_off_c,2,73,0,
2,26880,Note_off_c,2,78,0,
2,26895,Note_off_c,2,70,0,
2,27345,Note_on_c,2,69,15,
2,27345,Note_on_c,2,79,135,
2,27360,Note_on_c,2,60,0,
2,27360,Note_on_c,2,76,30,
2,27360,Note_on_c,2,74,45,
2,27375,Note_off_c,2,69,0,
2,27375,Note_off_c,2,60,0,
2,27375,Note_on_c,2,61,30,
2,27375,Note_on_c,2,67,90,
2,27375,Note_on_c,2,64,105,
2,27405,Note_off_c,2,76,0,
2,27420,Note_off_c,2,74,0,
2,27420,Note_off_c,2,61,0,
2,27420,Note_on_c,2,73,30,
2,27465,Note_off_c,2,73,0,
2,27480,Note_off_c,2,67,0,
2,27495,Note_off_c,2,64,0,
2,27495,Note_off_c,2,79,0,
2,27495,Note_on_c,2,69,45,
2,27555,Note_off_c,2,69,0,
2,28290,Note_on_c,2,64,15,
2,28290,Note_on_c,2,69,60,
2,28290,Note_on_c,2,40,60,
2,28305,Note_on_c,2,66,30,
2,28305,Note_on_c,2,59,75,
2,28320,Note_off_c,2,64,0,
2,28320,Note_on_c,2,62,60,
2,28350,Note_off_c,2,66,0,
2,28365,Note_off_c,2,69,0,
2,28365,Note_off_c,2,40,0,
2,28395,Note_off_c,2,59,0,
2,28395,Note_off_c,2,62,0,
2,28950,Note_on_c,2,81,135,
2,29100,Note_off_c,2,81,0,
2,29145,Note_on_c,2,74,150,
2,29160,Note_on_c,2,81,120,
2,29160,Note_on_c,2,77,135,
2,29295,Note_off_c,2,81,0,
2,29310,Note_off_c,2,74,0,
2,29310,Note_off_c,2,77,0,
2,29310,Note_on_c,2,71,0,
2,29325,Note_off_c,2,71,0,
2,29610,Note_on_c,2,78,60,
2,29625,Note_on_c,2,67,0,
2,29625,Note_on_c,2,64,75,
2,29625,Note_on_c,2,71,75,
2,29625,Note_on_c,2,61,75,
2,29640,Note_off_c,2,67,0,
2,29640,Note_on_c,2,74,15,
2,29655,Note_on_c,2,67,45,
2,29670,Note_off_c,2,74,0,
2,29685,Note_off_c,2,78,0,
2,29715,Note_off_c,2,64,0,
2,29715,Note_off_c,2,67,0,
2,29715,Note_off_c,2,71,0,
2,29715,Note_off_c,2,61,0,
2,30480,Note_on_c,2,66,75,
2,30495,Note_on_c,2,71,60,
2,30570,Note_off_c,2,66,0,
2,30570,Note_off_c,2,71,0,
2,30600,Note_on_c,2,64,120,
2,30630,Note_on_c,2,74,30,
2,30660,Note_on_c,2,71,60,
2,30675,Note_off_c,2,74,0,
2,30735,Note_off_c,2,64,0,
2,30735,Note_off_c,2,71,0,
2,30765,Note_on_c,2,64,60,
2,30780,Note_on_c,2,69,60,
2,30840,Note_off_c,2,64,0,
2,30855,Note_off_c,2,69,0,
2,31380,Note_on_c,2,48,75,
2,31470,Note_off_c,2,48,0,
2,31470,Note_on_c,2,68,60,
2,31545,Note_off_c,2,68,0,
2,31560,Note_on_c,2,68,75,
2,31650,Note_off_c,2,68,0,
2,31650,Note_on_c,2,70,75,
2,31740,Note_off_c,2,70,0,
2,31770,Note_on_c,2,57,30,
2,31770,Note_on_c,2,69,60,
2,31785,Note_on_c,2,47,30,
2,31815,Note_off_c,2,57,0,
2,31815,Note_on_c,2,59,0,
2,31815,Note_on_c,2,76,30,
2,31830,Note_off_c,2,59,0,
2,31830,Note_off_c,2,47,0,
2,31830,Note_on_c,2,57,0,
2,31830,Note_on_c,2,49,15,
2,31845,Note_off_c,2,69,0,
2,31845,Note_off_c,2,57,0,
2,31845,Note_on_c,2,70,0,
2,31860,Note_off_c,2,49,0,
2,31860,Note_off_c,2,70,0,
2,31860,Note_off_c,2,76,0,
2,31860,Note_on_c,2,69,0,
2,31875,Note_off_c,2,69,0,
2,32235,Note_on_c,2,73,60,
2,32235,Note_on_c,2,78,75,
2,32250,Note_on_c,2,85,60,
2,32250,Note_on_c,2,81,75,
2,32310,Note_off_c,2,73,0,
2,32325,Note_off_c,2,85,0,
2,32325,Note_off_c,2,78,0,
2,32325,Note_on_c,2,84,0,
2,32340,Note_off_c,2,81,0,
2,32340,Note_off_c,2,84,0,
2,32610,Note_on_c,2,81,60,
2,32640,Note_on_c,2,87,150,
2,32640,Note_on_c,2,84,165,
2,32670,Note_on_c,2,92,105,
2,32685,Note_off_c,2,81,0,
2,32790,Note_off_c,2,92,0,
2,32805,Note_off_c,2,87,0,
2,32820,Note_off_c,2,84,0,
2,33240,Note_on_c,2,55,30,
2,33240,Note_on_c,2,59,45,
2,33240,Note_on_c,2,65,75,
2,33240,Note_on_c,2,68,75,
2,33255,Note_on_c,2,63,75,
2,33285,Note_off_c,2,55,0,
2,33300,Note_off_c,2,59,0,
2,33330,Note_off_c,2,65,0,
2,33330,Note_off_c,2,68,0,
2,33345,Note_off_c,2,63,0,
2,33750,Note_on_c,2,68,90,
2,33855,Note_off_c,2,68,0,
2,34080,Note_on_c,2,73,60,
2,34155,Note_off_c,2,73,0,
2,34395,Note_on_c,2,79,120,
2,34530,Note_off_c,2,79,0,
2,34530,Note_on_c,2,74,0,
2,34530,Note_on_c,2,48,105,
2,34545,Note_off_c,2,74,0,
2,34650,Note_off_c,2,48,0,
2,34905,Note_on_c,2,83,15,
2,34905,Note_on_c,2,73,75,
2,34905,Note_on_c,2,77,75,
2,34920,Note_on_c,2,69,75,
2,34935,Note_off_c,2,83,0,
2,34935,Note_on_c,2,70,45,
2,34935,Note_on_c,2,80,105,
2,34995,Note_off_c,2,70,0,
2,34995,Note_off_c,2,73,0,
2,34995,Note_off_c,2,77,0,
2,35010,Note_off_c,2,69,0,
2,35010,Note_on_c,2,70,15,
2,35010,Note_on_c,2,73,15,
2,35040,Note_off_c,2,70,0,
2,35040,Note_off_c,2,73,0,
2,35055,Note_off_c,2,80,0,
2,35430,Note_on_c,2,76,0,
2,35430,Note_on_c,2,73,30,
2,35430,Note_on_c,2,59,60,
2,35430,Note_on_c,2,49,75,
2,35445,Note_off_c,2,76,0,
2,35445,Note_on_c,2,77,75,
2,35475,Note_off_c,2,73,0,
2,35475,Note_on_c,2,75,30,
2,35490,Note_on_c,2,57,0,
2,35490,Note_on_c,2,60,0,
2,35490,Note_on_c,2,73,30,
2,35505,Note_off_c,2,57,0,
2,35505,Note_off_c,2,59,0,
2,35505,Note_off_c,2,60,0,
2,35505,Note_on_c,2,64,0,
2,35505,Note_on_c,2,58,15,
2,35505,Note_on_c,2,70,75,
2,35520,Note_off_c,2,64,0,
2,35520,Note_off_c,2,49,0,
2,35520,Note_off_c,2,75,0,
2,35520,Note_on_c,2,68,0,
2,35520,Note_on_c,2,44,0,
2,35535,Note_off_c,2,68,0,
2,35535,Note_off_c,2,73,0,
2,35535,Note_off_c,2,58,0,
2,35535,Note_off_c,2,44,0,
2,35535,Note_off_c,2,77,0,
2,35535,Note_on_c,2,41,0,
2,35550,Note_off_c,2,41,0,
2,35550,Note_on_c,2,71,0,
2,35565,Note_off_c,2,71,0,
2,35565,Note_on_c,2,61,15,
2,35595,Note_off_c,2,70,0,
2,35595,Note_off_c,2,61,0,
2,35655,Note_on_c,2,42,165,
2,35730,Note_on_c,2,58,75,
2,35730,Note_on_c,2,61,90,
2,35745,Note_on_c,2,65,60,
2,35820,Note_off_c,2,65,0,
2,35820,Note_off_c,2,58,0,
2,35820,Note_on_c,2,68,0,
2,35820,Note_on_c,2,55,0,
2,35835,Note_off_c,2,68,0,
2,35835,Note_off_c,2,55,0,
2,35835,Note_off_c,2,42,0,
2,35835,Note_off_c,2,61,0,
2,35835,Note_on_c,2,64,0,
2,35850,Note_off_c,2,64,0,
2,36195,Note_on_c,2,60,135,
2,36345,Note_off_c,2,60,0,
2,36435,Note_on_c,2,66,120,
2,36465,Note_on_c,2,62,60,
2,36465,Note_on_c,2,69,90,
2,36465,Note_on_c,2,59,90,
2,36540,Note_off_c,2,62,0,
2,36540,Note_on_c,2,63,0,
2,36555,Note_off_c,2,63,0,
2,36570,Note_off_c,2,66,0,
2,36570,Note_off_c,2,69,0,
2,36570,Note_off_c,2,59,0,
2,36825,Note_on_c,2,46,75,
2,36915,Note_off_c,2,46,0,
2,36990,Note_on_c,2,55,90,
2,37095,Note_off_c,2,55,0,
2,37620,Note_on_c,2,30,60,
2,37695,Note_off_c,2,30,0,
2,38220,Note_on_c,2,68,75,
2,38220,Note_on_c,2,76,315,
2,38235,Note_on_c,2,64,90,
2,38310,Note_off_c,2,68,0,
2,38310,Note_on_c,2,67,180,
2,38340,Note_off_c,2,64,0,
2,38505,Note_off_c,2,67,0,
2,38535,Note_on_c,2,78,105,
2,38550,Note_off_c,2,76,0,
2,38565,Note_on_c,2,64,0,
2,38565,Note_on_c,2,66,0,
2,38565,Note_on_c,2,84,0,
2,38565,Note_on_c,2,69,0,
2,38565,Note_on_c,2,72,0,
2,38565,Note_on_c,2,60,0,
2,38565,Note_on_c,2,81036,0,
2,38565,Note_on_c,2,67,15,
2,38580,Note_off_c,2,64,0,
2,38580,Note_off_c,2,66,0,
2,38580,Note_off_c,2,84,0,
2,38580,Note_off_c,2,69,0,
2,38580,Note_off_c,2,72,0,
2,38580,Note_off_c,2,60,0,
2,38580,Note_off_c,2,81036,0,
2,38580,Note_on_c,2,82,0,
2,38580,Note_on_c,2,62,0,
2,38580,Note_on_c,2,68,60,
2,38580,Note_on_c,2,71,75,
2,38580,Note_on_c,2,74,75,
2,38595,Note_off_c,2,82,0,
2,38595,Note_off_c,2,67,0,
2,38595,Note_off_c,2,62,0,
2,38595,Note_on_c,2,64,0,
2,38610,Note_off_c,2,64,0,
2,38610,Note_on_c,2,62,45,
2,38640,Note_on_c,2,83,0,
2,38655,Note_off_c,2,83,0,
2,38655,Note_off_c,2,68,0,
2,38655,Note_off_c,2,78,0,
2,38655,Note_on_c,2,85,0,
2,38670,Note_off_c,2,85,0,
2,38670,Note_off_c,2,71,0,
2,38670,Note_off_c,2,74,0,
2,38670,Note_off_c,2,62,0,
2,39075,Note_on_c,2,46,105,
2,39195,Note_off_c,2,46,0,
2,39195,Note_on_c,2,66,75,
2,39240,Note_on_c,2,68,75,
2,39285,Note_off_c,2,66,0,
2,39315,Note_on_c,2,65,75,
2,39330,Note_off_c,2,68,0,
2,39330,Note_on_c,2,49,60,
2,39330,Note_on_c,2,58,60,
2,39375,Note_on_c,2,70,15,
2,39405,Note_off_c,2,65,0,
2,39405,Note_off_c,2,49,0,
2,39405,Note_off_c,2,70,0,
2,39405,Note_off_c,2,58,0,
