2,0,Note_on_c,2,81,0,
2,0,Note_on_c,2,72,0,
2,0,Note_on_c,2,66,75,
2,15,Note_off_c,2,81,0,
2,15,Note_off_c,2,72,0,
2,15,Note_on_c,2,82,30,
2,15,Note_on_c,2,71,30,
2,60,Note_off_c,2,82,0,
2,60,Note_off_c,2,71,0,
2,60,Note_on_c,2,81,15,
2,90,Note_off_c,2,81,0,
2,90,Note_off_c,2,66,0,
2,555,Note_on_c,2,73,75,
2,645,Note_off_c,2,73,0,
2,1005,Note_on_c,2,73,105,
2,1005,Note_on_c,2,41,120,
2,1125,Note_off_c,2,73,0,
2,1140,Note_off_c,2,41,0,
2,1140,Note_on_c,2,44,0,
2,1155,Note_off_c,2,44,0,
2,1635,Note_on_c,2,75,105,
2,1755,Note_off_c,2,75,0,
2,1965,Note_on_c,2,51,60,
2,2025,Note_on_c,2,65,90,
2,2040,Note_off_c,2,51,0,
2,2055,Note_on_c,2,78,75,
2,2130,Note_off_c,2,65,0,
2,2145,Note_off_c,2,78,0,
2,2880,Note_on_c,2,65,90,
2,2895,Note_on_c,2,75,75,
2,2985,Note_off_c,2,65,0,
2,2985,Note_off_c,2,75,0,
2,3420,Note_on_c,2,68,60,
2,3420,Note_on_c,2,72,75,
2,3495,Note_off_c,2,68,0,
2,3510,Note_off_c,2,72,0,
2,3510,Note_on_c,2,68,75,
2,3600,Note_off_c,2,68,0,
2,3600,Note_on_c,2,70,0,
2,3600,Note_on_c,2,58,0,
2,3600,Note_on_c,2,46,0,
2,3615,Note_off_c,2,70,0,
2,3615,Note_off_c,2,58,0,
2,3615,Note_off_c,2,46,0,
2,3615,Note_on_c,2,60,45,
2,3615,Note_on_c,2,57,90,
2,3615,Note_on_c,2,48,105,
2,3675,Note_off_c,2,60,0,
2,3675,Note_on_c,2,65,0,
2,3690,Note_off_c,2,65,0,
2,3690,Note_on_c,2,68,0,
2,3690,Note_on_c,2,55,0,
2,3705,Note_off_c,2,68,0,
2,3705,Note_off_c,2,55,0,
2,3705,Note_on_c,2,65,0,
2,3705,Note_on_c,2,58,30,
2,3720,Note_off_c,2,65,0,
2,3720,Note_off_c,2,57,0,
2,3735,Note_off_c,2,48,0,
2,3750,Note_off_c,2,58,0,
2,3750,Note_on_c,2,68,15,
2,3780,Note_off_c,2,68,0,
2,3975,Note_on_c,2,70,90,
2,3975,Note_on_c,2,50,105,
2,4080,Note_off_c,2,70,0,
2,4095,Note_off_c,2,50,0,
2,4590,Note_on_c,2,65,60,
2,4665,Note_off_c,2,65,0,
2,5010,Note_on_c,2,66,45,
2,5010,Note_on_c,2,62,60,
2,5010,Note_on_c,2,69,75,
2,5025,Note_on_c,2,59,45,
2,5070,Note_off_c,2,66,0,
2,5085,Note_off_c,2,59,0,
2,5085,Note_off_c,2,62,0,
2,5100,Note_off_c,2,69,0,
2,5175,Note_on_c,2,62,15,
2,5175,Note_on_c,2,50,105,
2,5205,Note_off_c,2,62,0,
2,5205,Note_on_c,2,60,30,
2,5205,Note_on_c,2,72,75,
2,5250,Note_off_c,2,60,0,
2,5295,Note_off_c,2,50,0,
2,5295,Note_off_c,2,72,0,
2,5295,Note_on_c,2,75,0,
2,5310,Note_off_c,2,75,0,
2,5580,Note_on_c,2,73,45,
2,5580,Note_on_c,2,78,45,
2,5595,Note_on_c,2,66,30,
2,5595,Note_on_c,2,70,30,
2,5640,Note_off_c,2,66,0,
2,5640,Note_off_c,2,70,0,
2,5640,Note_off_c,2,73,0,
2,5640,Note_off_c,2,78,0,
2,6030,Note_on_c,2,74,90,
2,6135,Note_off_c,2,74,0,
2,6210,Note_on_c,2,76,330,
2,6270,Note_on_c,2,49,300,
2,6555,Note_off_c,2,76,0,
2,6570,Note_on_c,2,51,0,
2,6585,Note_off_c,2,49,0,
2,6585,Note_off_c,2,51,0,
2,6585,Note_on_c,2,66,30,
2,6585,Note_on_c,2,59,60,
2,6585,Note_on_c,2,70,75,
2,6585,Note_on_c,2,61,75,
2,6630,Note_off_c,2,66,0,
2,6630,Note_on_c,2,65,30,
2,6660,Note_off_c,2,59,0,
2,6660,Note_on_c,2,49,15,
2,6675,Note_off_c,2,65,0,
2,6675,Note_off_c,2,70,0,
2,6675,Note_off_c,2,61,0,
2,6690,Note_off_c,2,49,0,
2,6915,Note_on_c,2,73,135,
2,7065,Note_off_c,2,73,0,
2,7110,Note_on_c,2,75,105,
2,7125,Note_on_c,2,66,75,
2,7215,Note_off_c,2,66,0,
2,7230,Note_off_c,2,75,0,
2,7320,Note_on_c,2,48,75,
2,7320,Note_on_c,2,64,75,
2,7335,Note_on_c,2,58,75,
2,7410,Note_off_c,2,48,0,
2,7410,Note_off_c,2,64,0,
2,7410,Note_on_c,2,47,0,
2,7425,Note_off_c,2,58,0,
2,7425,Note_off_c,2,47,0,
2,7470,Note_on_c,2,56,105,
2,7560,Note_on_c,2,74,15,
2,7590,Note_off_c,2,56,0,
2,7590,Note_off_c,2,74,0,
2,7590,Note_on_c,2,76,15,
2,7620,Note_off_c,2,76,0,
2,7770,Note_on_c,2,74,120,
2,7905,Note_off_c,2,74,0,
2,8100,Note_on_c,2,50,75,
2,8100,Note_on_c,2,70,90,
2,8190,Note_off_c,2,50,0,
2,8205,Note_off_c,2,70,0,
2,8625,Note_on_c,2,74,90,
2,8730,Note_off_c,2,74,0,
2,8940,Note_on_c,2,78,135,
2,9090,Note_off_c,2,78,0,
2,9375,Note_on_c,2,65,60,
2,9375,Note_on_c,2,50,105,
2,9405,Note_on_c,2,59,90,
2,9450,Note_off_c,2,65,0,
2,9495,Note_off_c,2,50,0,
2,9510,Note_off_c,2,59,0,
2,10110,Note_on_c,2,72,60,
2,10185,Note_off_c,2,72,0,
2,10290,Note_on_c,2,83,105,
2,10410,Note_off_c,2,83,0,
2,10500,Note_on_c,2,68,30,
2,10530,Note_on_c,2,76,60,
2,10545,Note_off_c,2,68,0,
2,10545,Note_on_c,2,65,45,
2,10605,Note_off_c,2,65,0,
2,10605,Note_off_c,2,76,0,
2,10605,Note_on_c,2,56,0,
2,10605,Note_on_c,2,75,0,
2,10620,Note_off_c,2,56,0,
2,10620,Note_off_c,2,75,0,
2,10620,Note_on_c,2,77,15,
2,10650,Note_off_c,2,77,0,
2,11415,Note_on_c,2,42,90,
2,11520,Note_off_c,2,42,0,
2,11520,Note_on_c,2,62,15,
2,11520,Note_on_c,2,52,45,
2,11550,Note_off_c,2,62,0,
2,11550,Note_on_c,2,63,0,
2,11565,Note_off_c,2,63,0,
2,11565,Note_on_c,2,73,60,
2,11580,Note_off_c,2,52,0,
2,11640,Note_off_c,2,73,0,
2,11670,Note_on_c,2,61,60,
2,11730,Note_on_c,2,67,0,
2,11730,Note_on_c,2,71,0,
2,11745,Note_off_c,2,67,0,
2,11745,Note_off_c,2,71,0,
2,11745,Note_off_c,2,61,0,
2,11745,Note_on_c,2,72,30,
2,11745,Note_on_c,2,65,45,
2,11745,Note_on_c,2,69,90,
2,11790,Note_off_c,2,72,0,
2,11805,Note_off_c,2,65,0,
2,11820,Note_on_c,2,70,60,
2,11850,Note_off_c,2,69,0,
2,11895,Note_off_c,2,70,0,
2,12270,Note_on_c,2,90,60,
2,12270,Note_on_c,2,78,75,
2,12345,Note_off_c,2,90,0,
2,12360,Note_off_c,2,78,0,
2,12585,Note_on_c,2,90,0,
2,12585,Note_on_c,2,78,0,
2,12600,Note_off_c,2,90,0,
2,12600,Note_off_c,2,78,0,
2,12600,Note_on_c,2,68,0,
2,12600,Note_on_c,2,89,60,
2,12600,Note_on_c,2,77,60,
2,12615,Note_off_c,2,68,0,
2,12630,Note_on_c,2,82,30,
2,12660,Note_on_c,2,78,0,
2,12675,Note_off_c,2,82,0,
2,12675,Note_off_c,2,89,0,
2,12675,Note_off_c,2,77,0,
2,12675,Note_off_c,2,78,0,
2,12675,Note_on_c,2,80,0,
2,12675,Note_on_c,2,84,0,
2,12690,Note_off_c,2,80,0,
2,12690,Note_off_c,2,84,0,
2,12900,Note_on_c,2,67,15,
2,12900,Note_on_c,2,73,45,
2,12900,Note_on_c,2,63,45,
2,12900,Note_on_c,2,61,105,
2,12915,Note_on_c,2,70,0,
2,12930,Note_off_c,2,67,0,
2,12930,Note_off_c,2,70,0,
2,12930,Note_on_c,2,66,0,
2,12930,Note_on_c,2,79,0,
2,12945,Note_off_c,2,66,0,
2,12945,Note_off_c,2,79,0,
2,12945,Note_on_c,2,67,30,
2,12960,Note_off_c,2,73,0,
2,12960,Note_off_c,2,63,0,
2,12990,Note_off_c,2,67,0,
2,13020,Note_off_c,2,61,0,
2,13500,Note_on_c,2,64,75,
2,13590,Note_off_c,2,64,0,
2,14220,Note_on_c,2,62,135,
2,14235,Note_on_c,2,66,105,
2,14235,Note_on_c,2,68,120,
2,14235,Note_on_c,2,59,120,
2,14355,Note_off_c,2,66,0,
2,14370,Note_off_c,2,68,0,
2,14370,Note_off_c,2,59,0,
2,14370,Note_off_c,2,62,0,
2,14370,Note_on_c,2,56,0,
2,14385,Note_off_c,2,56,0,
2,15075,Note_on_c,2,68,90,
2,15180,Note_off_c,2,68,0,
2,15360,Note_on_c,2,75,90,
2,15465,Note_off_c,2,75,0,
2,15660,Note_on_c,2,88,60,
2,15675,Note_on_c,2,86,225,
2,15735,Note_off_c,2,88,0,
2,15915,Note_off_c,2,86,0,
2,15930,Note_on_c,2,89,105,
2,16050,Note_off_c,2,89,0,
2,16050,Note_on_c,2,87,15,
2,16080,Note_off_c,2,87,0,
2,16260,Note_on_c,2,78,0,
2,16260,Note_on_c,2,90,15,
2,16260,Note_on_c,2,65,30,
2,16260,Note_on_c,2,81,30,
2,16275,Note_off_c,2,78,0,
2,16275,Note_on_c,2,80,15,
2,16275,Note_on_c,2,76,15,
2,16290,Note_off_c,2,90,0,
2,16290,Note_on_c,2,92,0,
2,16305,Note_off_c,2,80,0,
2,16305,Note_off_c,2,65,0,
2,16305,Note_off_c,2,81,0,
2,16305,Note_off_c,2,76,0,
2,16305,Note_off_c,2,92,0,
2,16305,Note_on_c,2,86,0,
2,16305,Note_on_c,2,91,0,
2,16305,Note_on_c,2,70,30,
2,16305,Note_on_c,2,61,30,
2,16305,Note_on_c,2,66,60,
2,16320,Note_off_c,2,86,0,
2,16320,Note_off_c,2,91,0,
2,16320,Note_on_c,2,96,0,
2,16320,Note_on_c,2,81,0,
2,16320,Note_on_c,2,78,15,
2,16320,Note_on_c,2,92,60,
2,16335,Note_off_c,2,96,0,
2,16335,Note_off_c,2,81,0,
2,16335,Note_on_c,2,91,0,
2,16350,Note_off_c,2,70,0,
2,16350,Note_off_c,2,91,0,
2,16350,Note_off_c,2,61,0,
2,16350,Note_off_c,2,78,0,
2,16350,Note_on_c,2,80,0,
2,16350,Note_on_c,2,97,0,
2,16350,Note_on_c,2,60,0,
2,16350,Note_on_c,2,79,0,
2,16365,Note_off_c,2,80,0,
2,16365,Note_off_c,2,97,0,
2,16365,Note_off_c,2,60,0,
2,16365,Note_off_c,2,79,0,
2,16365,Note_on_c,2,70,0,
2,16365,Note_on_c,2,78,0,
2,16365,Note_on_c,2,95,0,
2,16380,Note_off_c,2,66,0,
2,16380,Note_off_c,2,70,0,
2,16380,Note_off_c,2,78,0,
2,16380,Note_off_c,2,95,0,
2,16380,Note_on_c,2,87,0,
2,16380,Note_on_c,2,60,0,
2,16395,Note_off_c,2,87,0,
2,16395,Note_off_c,2,92,0,
2,16395,Note_off_c,2,60,0,
2,16425,Note_on_c,2,61,90,
2,16530,Note_off_c,2,61,0,
2,16830,Note_on_c,2,40,0,
2,16830,Note_on_c,2,94,0,
2,16830,Note_on_c,2,80,60,
2,16830,Note_on_c,2,92,75,
2,16845,Note_off_c,2,40,0,
2,16845,Note_off_c,2,94,0,
2,16845,Note_on_c,2,90,30,
2,16845,Note_on_c,2,44,60,
2,16890,Note_off_c,2,90,0,
2,16890,Note_on_c,2,87,15,
2,16905,Note_off_c,2,80,0,
2,16905,Note_on_c,2,90,15,
2,16920,Note_off_c,2,87,0,
2,16920,Note_off_c,2,92,0,
2,16920,Note_off_c,2,44,0,
2,16920,Note_on_c,2,84,0,
2,16935,Note_off_c,2,84,0,
2,16935,Note_off_c,2,90,0,
2,16935,Note_on_c,2,89,0,
2,16950,Note_off_c,2,89,0,
2,17160,Note_on_c,2,56,90,
2,17265,Note_off_c,2,56,0,
2,17325,Note_on_c,2,45,0,
2,17340,Note_off_c,2,45,0,
2,17340,Note_on_c,2,44,45,
2,17340,Note_on_c,2,57,60,
2,17400,Note_off_c,2,44,0,
2,17415,Note_off_c,2,57,0,
2,17865,Note_on_c,2,70,0,
2,17865,Note_on_c,2,58,0,
2,17865,Note_on_c,2,63,0,
2,17865,Note_on_c,2,65,60,
2,17865,Note_on_c,2,73,195,
2,17880,Note_off_c,2,70,0,
2,17880,Note_off_c,2,58,0,
2,17880,Note_off_c,2,63,0,
2,17880,Note_on_c,2,53,60,
2,17940,Note_off_c,2,65,0,
2,17955,Note_off_c,2,53,0,
2,17985,Note_on_c,2,51,30,
2,18030,Note_off_c,2,51,0,
2,18075,Note_off_c,2,73,0,
2,18180,Note_on_c,2,68,60,
2,18255,Note_off_c,2,68,0,
2,18495,Note_on_c,2,77,90,
2,18600,Note_off_c,2,77,0,
2,18645,Note_on_c,2,76,90,
2,18645,Note_on_c,2,58,105,
2,18645,Note_on_c,2,70,120,
2,18660,Note_on_c,2,67,75,
2,18660,Note_on_c,2,48,105,
2,18750,Note_off_c,2,67,0,
2,18750,Note_off_c,2,76,0,
2,18750,Note_on_c,2,66,0,
2,18750,Note_on_c,2,77,75,
2,18765,Note_off_c,2,66,0,
2,18765,Note_off_c,2,58,0,
2,18765,Note_on_c,2,68,15,
2,18765,Note_on_c,2,65,45,
2,18780,Note_off_c,2,48,0,
2,18780,Note_off_c,2,70,0,
2,18780,Note_on_c,2,49,0,
2,18780,Note_on_c,2,75,15,
2,18795,Note_off_c,2,49,0,
2,18795,Note_off_c,2,68,0,
2,18795,Note_on_c,2,48,15,
2,18810,Note_off_c,2,75,0,
2,18825,Note_off_c,2,48,0,
2,18825,Note_off_c,2,65,0,
2,18825,Note_on_c,2,68,0,
2,18840,Note_off_c,2,68,0,
2,18840,Note_off_c,2,77,0,
2,18840,Note_on_c,2,75,45,
2,18900,Note_off_c,2,75,0,
2,19095,Note_on_c,2,70,30,
2,19095,Note_on_c,2,73,30,
2,19095,Note_on_c,2,66,45,
2,19095,Note_on_c,2,61,120,
2,19140,Note_off_c,2,70,0,
2,19140,Note_off_c,2,73,0,
2,19155,Note_off_c,2,66,0,
2,19230,Note_off_c,2,61,0,
2,19260,Note_on_c,2,74,0,
2,19260,Note_on_c,2,76,15,
2,19275,Note_off_c,2,74,0,
2,19275,Note_on_c,2,64,0,
2,19275,Note_on_c,2,73,0,
2,19275,Note_on_c,2,69,60,
2,19290,Note_off_c,2,64,0,
2,19290,Note_off_c,2,73,0,
2,19290,Note_off_c,2,76,0,
2,19290,Note_on_c,2,74,0,
2,19290,Note_on_c,2,46,0,
2,19290,Note_on_c,2,72,45,
2,19305,Note_off_c,2,74,0,
2,19305,Note_off_c,2,46,0,
2,19305,Note_on_c,2,64,45,
2,19350,Note_off_c,2,69,0,
2,19350,Note_off_c,2,72,0,
2,19350,Note_on_c,2,79,15,
2,19365,Note_off_c,2,64,0,
2,19380,Note_off_c,2,79,0,
2,19485,Note_on_c,2,72,90,
2,19590,Note_off_c,2,72,0,
2,19965,Note_on_c,2,41,120,
2,20100,Note_off_c,2,41,0,
2,20340,Note_on_c,2,50,90,
2,20445,Note_off_c,2,50,0,
2,20535,Note_on_c,2,48,75,
2,20625,Note_off_c,2,48,0,
2,21000,Note_on_c,2,49,60,
2,21000,Note_on_c,2,58,60,
2,21000,Note_on_c,2,63,60,
2,21075,Note_off_c,2,49,0,
2,21075,Note_off_c,2,58,0,
2,21075,Note_off_c,2,63,0,
2,21075,Note_on_c,2,48,0,
2,21090,Note_off_c,2,48,0,
2,21375,Note_on_c,2,72,0,
2,21375,Note_on_c,2,63,0,
2,21375,Note_on_c,2,67,30,
2,21375,Note_on_c,2,77,45,
2,21390,Note_off_c,2,72,0,
2,21390,Note_off_c,2,63,0,
2,21390,Note_on_c,2,73,15,
2,21390,Note_on_c,2,62,15,
2,21390,Note_on_c,2,70,90,
2,21420,Note_off_c,2,67,0,
2,21420,Note_off_c,2,73,0,
2,21420,Note_off_c,2,62,0,
2,21420,Note_on_c,2,68,0,
2,21420,Note_on_c,2,72,0,
2,21420,Note_on_c,2,42,0,
2,21420,Note_on_c,2,61,15,
2,21435,Note_off_c,2,68,0,
2,21435,Note_off_c,2,72,0,
2,21435,Note_off_c,2,42,0,
2,21435,Note_off_c,2,77,0,
2,21435,Note_on_c,2,78,0,
2,21435,Note_on_c,2,73,45,
2,21450,Note_off_c,2,61,0,
2,21450,Note_off_c,2,78,0,
2,21450,Note_on_c,2,71,0,
2,21465,Note_off_c,2,71,0,
2,21465,Note_on_c,2,76,15,
2,21495,Note_off_c,2,70,0,
2,21495,Note_off_c,2,73,0,
2,21495,Note_off_c,2,76,0,
2,21975,Note_on_c,2,79,135,
2,22125,Note_off_c,2,79,0,
2,22170,Note_on_c,2,85,90,
2,22275,Note_off_c,2,85,0,
2,22320,Note_on_c,2,68,105,
2,22350,Note_on_c,2,49,45,
2,22410,Note_off_c,2,49,0,
2,22410,Note_on_c,2,48,60,
2,22410,Note_on_c,2,64,75,
2,22410,Note_on_c,2,73,240,
2,22425,Note_on_c,2,70,135,
2,22440,Note_off_c,2,68,0,
2,22440,Note_on_c,2,67,30,
2,22485,Note_off_c,2,48,0,
2,22485,Note_off_c,2,67,0,
2,22485,Note_on_c,2,68,0,
2,22485,Note_on_c,2,47,0,
2,22500,Note_off_c,2,64,0,
2,22500,Note_off_c,2,68,0,
2,22500,Note_off_c,2,47,0,
2,22500,Note_on_c,2,46,0,
2,22500,Note_on_c,2,59,15,
2,22500,Note_on_c,2,75,240,
2,22515,Note_off_c,2,46,0,
2,22515,Note_on_c,2,68,45,
2,22530,Note_off_c,2,59,0,
2,22530,Note_on_c,2,58,30,
2,22575,Note_off_c,2,68,0,
2,22575,Note_off_c,2,70,0,
2,22575,Note_off_c,2,58,0,
2,22665,Note_off_c,2,73,0,
2,22755,Note_off_c,2,75,0,
2,22995,Note_on_c,2,50,90,
2,23010,Note_on_c,2,80,60,
2,23085,Note_off_c,2,80,0,
2,23100,Note_off_c,2,50,0,
2,23925,Note_on_c,2,46,45,
2,23985,Note_off_c,2,46,0,
2,24555,Note_on_c,2,54,75,
2,24645,Note_off_c,2,54,0,
2,24780,Note_on_c,2,80,0,
2,24780,Note_on_c,2,55,0,
2,24795,Note_off_c,2,80,0,
2,24795,Note_off_c,2,55,0,
2,24795,Note_on_c,2,50,45,
2,24795,Note_on_c,2,85,90,
2,24855,Note_off_c,2,50,0,
2,24900,Note_off_c,2,85,0,
2,24900,Note_on_c,2,86,0,
2,24915,Note_off_c,2,86,0,
2,25260,Note_on_c,2,86,15,
2,25260,Note_on_c,2,75,120,
2,25260,Note_on_c,2,83,135,
2,25260,Note_on_c,2,79,135,
2,25275,Note_on_c,2,70,15,
2,25275,Note_on_c,2,87,90,
2,25290,Note_off_c,2,86,0,
2,25305,Note_off_c,2,70,0,
2,25365,Note_on_c,2,80,45,
2,25380,Note_off_c,2,87,0,
2,25395,Note_off_c,2,75,0,
2,25410,Note_off_c,2,83,0,
2,25410,Note_off_c,2,79,0,
2,25425,Note_off_c,2,80,0,
2,25950,Note_on_c,2,68,0,
2,25950,Note_on_c,2,76,0,
2,25950,Note_on_c,2,49,15,
2,25950,Note_on_c,2,71,15,
2,25965,Note_off_c,2,68,0,
2,25965,Note_off_c,2,76,0,
2,25965,Note_on_c,2,66,0,
2,25965,Note_on_c,2,58,0,
2,25965,Note_on_c,2,75,15,
2,25980,Note_off_c,2,49,0,
2,25980,Note_off_c,2,66,0,
2,25980,Note_off_c,2,71,0,
2,25980,Note_off_c,2,58,0,
2,25980,Note_on_c,2,48,0,
2,25980,Note_on_c,2,69,0,
2,25995,Note_off_c,2,48,0,
2,25995,Note_off_c,2,69,0,
2,25995,Note_off_c,2,75,0,
2,25995,Note_on_c,2,73,0,
2,25995,Note_on_c,2,79,0,
2,25995,Note_on_c,2,68,15,
2,26010,Note_off_c,2,73,0,
2,26010,Note_off_c,2,79,0,
2,26025,Note_off_c,2,68,0,
2,26505,Note_on_c,2,66,45,
2,26505,Note_on_c,2,70,45,
2,26505,Note_on_c,2,61,45,
2,26565,Note_off_c,2,66,0,
2,26565,Note_off_c,2,70,0,
2,26565,Note_off_c,2,61,0,
2,27420,Note_on_c,2,54,0,
2,27420,Note_on_c,2,45,60,
2,27435,Note_off_c,2,54,0,
2,27435,Note_on_c,2,55,0,
2,27435,Note_on_c,2,70,30,
2,27435,Note_on_c,2,61,30,
2,27450,Note_off_c,2,55,0,
2,27450,Note_on_c,2,51,45,
2,27480,Note_off_c,2,70,0,
2,27480,Note_off_c,2,61,0,
2,27480,Note_on_c,2,60,15,
2,27480,Note_on_c,2,73,45,
2,27495,Note_off_c,2,45,0,
2,27495,Note_on_c,2,40,15,
2,27510,Note_off_c,2,51,0,
2,27510,Note_off_c,2,60,0,
2,27510,Note_on_c,2,50,0,
2,27510,Note_on_c,2,61,0,
2,27525,Note_off_c,2,50,0,
2,27525,Note_off_c,2,40,0,
2,27525,Note_off_c,2,61,0,
2,27525,Note_on_c,2,80,0,
2,27540,Note_off_c,2,80,0,
2,27540,Note_off_c,2,73,0,
2,28245,Note_on_c,2,64,15,
2,28245,Note_on_c,2,57,30,
2,28245,Note_on_c,2,66,45,
2,28245,Note_on_c,2,73,45,
2,28245,Note_on_c,2,61,45,
2,28245,Note_on_c,2,68,75,
2,28275,Note_off_c,2,64,0,
2,28290,Note_off_c,2,57,0,
2,28290,Note_on_c,2,47,15,
2,28290,Note_on_c,2,63,30,
2,28305,Note_off_c,2,66,0,
2,28305,Note_off_c,2,73,0,
2,28305,Note_off_c,2,61,0,
2,28320,Note_off_c,2,47,0,
2,28335,Note_off_c,2,68,0,
2,28335,Note_off_c,2,63,0,
2,28395,Note_on_c,2,80,45,
2,28395,Note_on_c,2,72,45,
2,28395,Note_on_c,2,68,60,
2,28455,Note_off_c,2,80,0,
2,28455,Note_off_c,2,72,0,
2,28455,Note_on_c,2,70,0,
2,28455,Note_on_c,2,82,30,
2,28470,Note_off_c,2,68,0,
2,28470,Note_off_c,2,70,0,
2,28470,Note_on_c,2,80,0,
2,28470,Note_on_c,2,67,0,
2,28485,Note_off_c,2,80,0,
2,28485,Note_off_c,2,67,0,
2,28485,Note_on_c,2,70,0,
2,28485,Note_on_c,2,66,45,
2,28485,Note_on_c,2,60,60,
2,28500,Note_off_c,2,82,0,
2,28500,Note_off_c,2,70,0,
2,28500,Note_on_c,2,80,30,
2,28545,Note_off_c,2,80,0,
2,28545,Note_off_c,2,66,0,
2,28545,Note_on_c,2,70,15,
2,28560,Note_off_c,2,60,0,
2,28575,Note_off_c,2,70,0,
2,28905,Note_on_c,2,66,75,
2,28995,Note_off_c,2,66,0,
2,29160,Note_on_c,2,43,60,
2,29235,Note_off_c,2,43,0,
2,29970,Note_on_c,2,75,90,
2,30075,Note_off_c,2,75,0,
2,30075,Note_on_c,2,85,30,
2,30120,Note_off_c,2,85,0,
2,30345,Note_on_c,2,80,0,
2,30345,Note_on_c,2,74,0,
2,30345,Note_on_c,2,47,15,
2,30345,Note_on_c,2,73,30,
2,30345,Note_on_c,2,59,30,
2,30360,Note_off_c,2,80,0,
2,30360,Note_off_c,2,74,0,
2,30360,Note_on_c,2,78,15,
2,30360,Note_on_c,2,81,30,
2,30375,Note_off_c,2,47,0,
2,30375,Note_on_c,2,45,15,
2,30390,Note_off_c,2,73,0,
2,30390,Note_off_c,2,59,0,
2,30390,Note_off_c,2,78,0,
2,30390,Note_on_c,2,53,0,
2,30390,Note_on_c,2,79,0,
2,30390,Note_on_c,2,83,15,
2,30405,Note_off_c,2,81,0,
2,30405,Note_off_c,2,53,0,
2,30405,Note_off_c,2,45,0,
2,30405,Note_off_c,2,79,0,
2,30405,Note_on_c,2,49,0,
2,30405,Note_on_c,2,89,0,
2,30420,Note_off_c,2,49,0,
2,30420,Note_off_c,2,83,0,
2,30420,Note_off_c,2,89,0,
2,30420,Note_on_c,2,99,0,
2,30420,Note_on_c,2,69,0,
2,30420,Note_on_c,2,88,0,
2,30435,Note_off_c,2,99,0,
2,30435,Note_off_c,2,69,0,
2,30435,Note_off_c,2,88,0,
2,31095,Note_on_c,2,52,30,
2,31095,Note_on_c,2,63,30,
2,31110,Note_on_c,2,74,45,
2,31125,Note_on_c,2,79,45,
2,31140,Note_off_c,2,52,0,
2,31140,Note_off_c,2,63,0,
2,31140,Note_on_c,2,53,30,
2,31140,Note_on_c,2,62,30,
2,31170,Note_off_c,2,74,0,
2,31185,Note_off_c,2,53,0,
2,31185,Note_off_c,2,62,0,
2,31185,Note_off_c,2,79,0,
2,31200,Note_on_c,2,59,60,
2,31215,Note_on_c,2,49,45,
2,31215,Note_on_c,2,71,75,
2,31245,Note_on_c,2,73,105,
2,31275,Note_off_c,2,49,0,
2,31275,Note_off_c,2,59,0,
2,31305,Note_off_c,2,71,0,
2,31305,Note_on_c,2,78,60,
2,31320,Note_on_c,2,80,45,
2,31365,Note_off_c,2,73,0,
2,31380,Note_off_c,2,80,0,
2,31380,Note_off_c,2,78,0,
2,31440,Note_on_c,2,61,45,
2,31455,Note_on_c,2,46,45,
2,31500,Note_off_c,2,61,0,
2,31515,Note_off_c,2,46,0,
2,32145,Note_on_c,2,76,15,
2,32145,Note_on_c,2,71,30,
2,32145,Note_on_c,2,62,60,
2,32145,Note_on_c,2,69,150,
2,32160,Note_on_c,2,81,135,
2,32160,Note_on_c,2,73,135,
2,32175,Note_off_c,2,76,0,
2,32175,Note_on_c,2,77,120,
2,32190,Note_off_c,2,71,0,
2,32220,Note_off_c,2,62,0,
2,32310,Note_off_c,2,81,0,
2,32310,Note_off_c,2,69,0,
2,32310,Note_off_c,2,73,0,
2,32310,Note_off_c,2,77,0,
2,32505,Note_on_c,2,42,15,
2,32520,Note_on_c,2,85,0,
2,32520,Note_on_c,2,72,0,
2,32520,Note_on_c,2,68,15,
2,32520,Note_on_c,2,65,90,
2,32535,Note_off_c,2,85,0,
2,32535,Note_off_c,2,72,0,
2,32535,Note_off_c,2,42,0,
2,32535,Note_on_c,2,48,0,
2,32535,Note_on_c,2,75,0,
2,32535,Note_on_c,2,62,60,
2,32550,Note_off_c,2,48,0,
2,32550,Note_off_c,2,68,0,
2,32550,Note_off_c,2,75,0,
2,32550,Note_on_c,2,46,60,
2,32550,Note_on_c,2,70,90,
2,32565,Note_on_c,2,68,60,
2,32610,Note_off_c,2,62,0,
2,32625,Note_off_c,2,65,0,
2,32625,Note_off_c,2,46,0,
2,32625,Note_on_c,2,56,0,
2,32640,Note_off_c,2,68,0,
2,32640,Note_off_c,2,56,0,
2,32640,Note_on_c,2,66,0,
2,32655,Note_off_c,2,66,0,
2,32655,Note_off_c,2,70,0,
2,32895,Note_on_c,2,61,30,
2,32895,Note_on_c,2,66,45,
2,32895,Note_on_c,2,69,75,
2,32910,Note_on_c,2,70,15,
2,32940,Note_off_c,2,70,0,
2,32940,Note_off_c,2,61,0,
2,32940,Note_on_c,2,75,30,
2,32955,Note_off_c,2,66,0,
2,32985,Note_off_c,2,69,0,
2,32985,Note_off_c,2,75,0,
2,33240,Note_on_c,2,53,90,
2,33345,Note_off_c,2,53,0,
2,33615,Note_on_c,2,68,15,
2,33615,Note_on_c,2,64,90,
2,33630,Note_on_c,2,48,0,
2,33630,Note_on_c,2,71,0,
2,33630,Note_on_c,2,59,0,
2,33630,Note_on_c,2,76,30,
2,33645,Note_off_c,2,48,0,
2,33645,Note_off_c,2,68,0,
2,33645,Note_off_c,2,71,0,
2,33645,Note_off_c,2,59,0,
2,33645,Note_on_c,2,58,15,
2,33645,Note_on_c,2,49,30,
2,33645,Note_on_c,2,69,45,
2,33675,Note_off_c,2,58,0,
2,33675,Note_off_c,2,76,0,
2,33675,Note_on_c,2,74,30,
2,33690,Note_off_c,2,49,0,
2,33705,Note_off_c,2,69,0,
2,33720,Note_off_c,2,64,0,
2,33720,Note_off_c,2,74,0,
2,35475,Note_on_c,2,54,75,
2,35565,Note_off_c,2,54,0,
2,36165,Note_on_c,2,89,90,
2,36165,Note_on_c,2,77,90,
2,36270,Note_off_c,2,89,0,
2,36270,Note_off_c,2,77,0,
2,36420,Note_on_c,2,64,0,
2,36420,Note_on_c,2,78,0,
2,36420,Note_on_c,2,57,15,
2,36420,Note_on_c,2,83,30,
2,36435,Note_off_c,2,64,0,
2,36435,Note_off_c,2,78,0,
2,36435,Note_on_c,2,69,15,
2,36450,Note_off_c,2,57,0,
2,36450,Note_on_c,2,47,0,
2,36450,Note_on_c,2,63,0,
2,36450,Note_on_c,2,58,45,
2,36450,Note_on_c,2,78,90,
2,36465,Note_off_c,2,83,0,
2,36465,Note_off_c,2,69,0,
2,36465,Note_off_c,2,47,0,
2,36465,Note_off_c,2,63,0,
2,36465,Note_on_c,2,64,0,
2,36465,Note_on_c,2,80,0,
2,36465,Note_on_c,2,68,15,
2,36465,Note_on_c,2,85,15,
2,36465,Note_on_c,2,73,15,
2,36480,Note_off_c,2,64,0,
2,36480,Note_off_c,2,80,0,
2,36480,Note_on_c,2,70,0,
2,36480,Note_on_c,2,81,15,
2,36480,Note_on_c,2,63,15,
2,36495,Note_off_c,2,68,0,
2,36495,Note_off_c,2,85,0,
2,36495,Note_off_c,2,70,0,
2,36495,Note_off_c,2,73,0,
2,36495,Note_on_c,2,74,0,
2,36495,Note_on_c,2,71,30,
2,36495,Note_on_c,2,83,45,
2,36495,Note_on_c,2,88,45,
2,36510,Note_off_c,2,81,0,
2,36510,Note_off_c,2,58,0,
2,36510,Note_off_c,2,74,0,
2,36510,Note_off_c,2,63,0,
2,36510,Note_on_c,2,68,0,
2,36510,Note_on_c,2,59,0,
2,36510,Note_on_c,2,64,15,
2,36510,Note_on_c,2,85,15,
2,36525,Note_off_c,2,68,0,
2,36525,Note_off_c,2,59,0,
2,36540,Note_off_c,2,64,0,
2,36540,Note_off_c,2,85,0,
2,36540,Note_off_c,2,71,0,
2,36540,Note_on_c,2,84,15,
2,36555,Note_off_c,2,83,0,
2,36555,Note_off_c,2,88,0,
2,36555,Note_off_c,2,78,0,
2,36555,Note_on_c,2,85,0,
2,36570,Note_off_c,2,84,0,
2,36570,Note_off_c,2,85,0,
2,37050,Note_on_c,2,64,60,
2,37065,Note_on_c,2,56,0,
2,37065,Note_on_c,2,59,0,
2,37065,Note_on_c,2,66,105,
2,37080,Note_off_c,2,56,0,
2,37080,Note_off_c,2,59,0,
2,37080,Note_on_c,2,55,30,
2,37125,Note_off_c,2,64,0,
2,37125,Note_off_c,2,55,0,
2,37125,Note_on_c,2,54,0,
2,37125,Note_on_c,2,65,15,
2,37140,Note_off_c,2,54,0,
2,37140,Note_on_c,2,78,0,
2,37140,Note_on_c,2,64,45,
2,37155,Note_off_c,2,65,0,
2,37155,Note_off_c,2,78,0,
2,37155,Note_on_c,2,68,30,
2,37185,Note_off_c,2,66,0,
2,37200,Note_off_c,2,64,0,
2,37200,Note_off_c,2,68,0,
2,37200,Note_on_c,2,69,75,
2,37290,Note_off_c,2,69,0,
2,37455,Note_on_c,2,52,90,
2,37545,Note_on_c,2,60,45,
2,37560,Note_off_c,2,52,0,
2,37605,Note_off_c,2,60,0,
2,37605,Note_on_c,2,72,0,
2,37605,Note_on_c,2,66,15,
2,37605,Note_on_c,2,63,15,
2,37620,Note_off_c,2,72,0,
2,37620,Note_on_c,2,57,0,
2,37620,Note_on_c,2,75,0,
2,37620,Note_on_c,2,71,45,
2,37635,Note_off_c,2,66,0,
2,37635,Note_off_c,2,57,0,
2,37635,Note_off_c,2,75,0,
2,37635,Note_off_c,2,63,0,
2,37635,Note_on_c,2,67,0,
2,37635,Note_on_c,2,53,0,
2,37635,Note_on_c,2,73,0,
2,37635,Note_on_c,2,69,15,
2,37650,Note_off_c,2,67,0,
2,37650,Note_off_c,2,53,0,
2,37650,Note_off_c,2,73,0,
2,37650,Note_on_c,2,57,0,
2,37650,Note_on_c,2,63,0,
2,37650,Note_on_c,2,77,15,
2,37665,Note_off_c,2,69,0,
2,37665,Note_off_c,2,57,0,
2,37665,Note_off_c,2,63,0,
2,37665,Note_on_c,2,67,0,
2,37665,Note_on_c,2,53,0,
2,37665,Note_on_c,2,79,15,
2,37680,Note_off_c,2,67,0,
2,37680,Note_off_c,2,53,0,
2,37680,Note_off_c,2,71,0,
2,37680,Note_off_c,2,77,0,
2,37680,Note_on_c,2,57,0,
2,37680,Note_on_c,2,63,0,
2,37695,Note_off_c,2,57,0,
2,37695,Note_off_c,2,79,0,
2,37695,Note_off_c,2,63,0,
2,37920,Note_on_c,2,84,105,
2,38040,Note_off_c,2,84,0,
2,38700,Note_on_c,2,85,45,
2,38700,Note_on_c,2,40,90,
2,38745,Note_on_c,2,9,0,
2,38745,Note_on_c,2,84,45,
2,38745,Note_on_c,2,80,60,
2,38760,Note_off_c,2,85,0,
2,38760,Note_off_c,2,9,0,
2,38760,Note_on_c,2,89,45,
2,38790,Note_on_c,2,90,30,
2,38805,Note_off_c,2,84,0,
2,38805,Note_off_c,2,40,0,
2,38805,Note_on_c,2,44,15,
2,38805,Note_on_c,2,86,30,
2,38820,Note_off_c,2,80,0,
2,38820,Note_off_c,2,89,0,
2,38820,Note_on_c,2,81,15,
2,38835,Note_off_c,2,90,0,
2,38835,Note_off_c,2,44,0,
2,38850,Note_off_c,2,81,0,
2,38850,Note_off_c,2,86,0,
2,38970,Note_on_c,2,90,120,
2,39105,Note_off_c,2,90,0,
2,39210,Note_on_c,2,87,15,
2,39210,Note_on_c,2,56,105,
2,39240,Note_off_c,2,87,0,
2,39240,Note_on_c,2,85,135,
2,39330,Note_off_c,2,56,0,
2,39390,Note_off_c,2,85,0,
2,39540,Note_on_c,2,85,45,
2,39570,Note_on_c,2,83,120,
2,39600,Note_off_c,2,85,0,
2,39705,Note_off_c,2,83,0,
2,39765,Note_on_c,2,75,0,
2,39780,Note_off_c,2,75,0,
2,39780,Note_on_c,2,80,0,
2,39780,Note_on_c,2,65,0,
2,39780,Note_on_c,2,85,0,
2,39780,Note_on_c,2,77,0,
2,39780,Note_on_c,2,61,30,
2,39795,Note_off_c,2,80,0,
2,39795,Note_off_c,2,65,0,
2,39795,Note_off_c,2,85,0,
2,39795,Note_off_c,2,77,0,
2,39795,Note_on_c,2,66,0,
2,39795,Note_on_c,2,75,0,
2,39795,Note_on_c,2,78,0,
2,39795,Note_on_c,2,82,15,
2,39795,Note_on_c,2,70,15,
2,39810,Note_off_c,2,66,0,
2,39810,Note_off_c,2,75,0,
2,39810,Note_off_c,2,78,0,
2,39810,Note_on_c,2,65,0,
2,39810,Note_on_c,2,77,0,
2,39810,Note_on_c,2,56,15,
2,39825,Note_off_c,2,65,0,
2,39825,Note_off_c,2,82,0,
2,39825,Note_off_c,2,70,0,
2,39825,Note_off_c,2,61,0,
2,39825,Note_off_c,2,77,0,
2,39825,Note_on_c,2,73,0,
2,39825,Note_on_c,2,60,0,
2,39825,Note_on_c,2,80,15,
2,39825,Note_on_c,2,75,30,
2,39840,Note_off_c,2,56,0,
2,39840,Note_off_c,2,73,0,
2,39840,Note_off_c,2,60,0,
2,39840,Note_on_c,2,65,0,
2,39840,Note_on_c,2,70,0,
2,39855,Note_off_c,2,80,0,
2,39855,Note_off_c,2,65,0,
2,39855,Note_off_c,2,70,0,
2,39870,Note_off_c,2,75,0,
2,40545,Note_on_c,2,57,90,
2,40650,Note_off_c,2,57,0,
2,40845,Note_on_c,2,73,75,
2,40935,Note_off_c,2,73,0,
2,41295,Note_on_c,2,74,0,
2,41295,Note_on_c,2,70,15,
2,41295,Note_on_c,2,80,45,
2,41310,Note_off_c,2,74,0,
2,41310,Note_on_c,2,64,0,
2,41310,Note_on_c,2,71,45,
2,41310,Note_on_c,2,75,45,
2,41310,Note_on_c,2,50,60,
2,41310,Note_on_c,2,59,60,
2,41325,Note_off_c,2,64,0,
2,41325,Note_off_c,2,70,0,
2,41325,Note_on_c,2,77,0,
2,41340,Note_off_c,2,77,0,
2,41340,Note_on_c,2,79,0,
2,41355,Note_off_c,2,80,0,
2,41355,Note_off_c,2,79,0,
2,41355,Note_on_c,2,87,0,
2,41355,Note_on_c,2,90,0,
2,41370,Note_off_c,2,71,0,
2,41370,Note_off_c,2,87,0,
2,41370,Note_off_c,2,90,0,
2,41370,Note_off_c,2,75,0,
2,41370,Note_on_c,2,805,0,
2,41370,Note_on_c,2,73,0,
2,41370,Note_on_c,2,61,0,
2,41370,Note_on_c,2,79,15,
2,41385,Note_off_c,2,50,0,
2,41385,Note_off_c,2,805,0,
2,41385,Note_off_c,2,73,0,
2,41385,Note_off_c,2,59,0,
2,41385,Note_off_c,2,61,0,
2,41385,Note_on_c,2,90,0,
2,41385,Note_on_c,2,80,30,
2,41400,Note_off_c,2,90,0,
2,41400,Note_off_c,2,79,0,
2,41400,Note_on_c,2,49,60,
2,41400,Note_on_c,2,59,60,
2,41430,Note_off_c,2,80,0,
2,41430,Note_on_c,2,65,0,
2,41430,Note_on_c,2,70,0,
2,41430,Note_on_c,2,73,0,
2,41430,Note_on_c,2,79,0,
2,41445,Note_off_c,2,65,0,
2,41445,Note_off_c,2,70,0,
2,41445,Note_off_c,2,73,0,
2,41445,Note_off_c,2,79,0,
2,41445,Note_on_c,2,75,15,
2,41445,Note_on_c,2,71,60,
2,41475,Note_off_c,2,49,0,
2,41475,Note_off_c,2,59,0,
2,41475,Note_off_c,2,75,0,
2,41475,Note_on_c,2,74,30,
2,41505,Note_on_c,2,80,90,
2,41505,Note_on_c,2,77,90,
2,41520,Note_off_c,2,71,0,
2,41520,Note_off_c,2,74,0,
2,41520,Note_on_c,2,84,60,
2,41520,Note_on_c,2,87,60,
2,41595,Note_off_c,2,84,0,
2,41595,Note_off_c,2,87,0,
2,41610,Note_off_c,2,80,0,
2,41610,Note_off_c,2,77,0,
2,41610,Note_on_c,2,86,0,
2,41610,Note_on_c,2,87,30,
2,41625,Note_off_c,2,86,0,
2,41655,Note_off_c,2,87,0,
2,41700,Note_on_c,2,88,15,
2,41700,Note_on_c,2,95,15,
2,41715,Note_on_c,2,85,75,
2,41715,Note_on_c,2,86,105,
2,41730,Note_off_c,2,88,0,
2,41730,Note_off_c,2,95,0,
2,41805,Note_off_c,2,85,0,
2,41835,Note_off_c,2,86,0,
2,41835,Note_on_c,2,88,0,
2,41850,Note_off_c,2,88,0,
2,41880,Note_on_c,2,86,0,
2,41880,Note_on_c,2,59,15,
2,41880,Note_on_c,2,44,15,
2,41880,Note_on_c,2,85,90,
2,41895,Note_off_c,2,86,0,
2,41895,Note_on_c,2,84,15,
2,41895,Note_on_c,2,78,60,
2,41895,Note_on_c,2,75,75,
2,41910,Note_off_c,2,59,0,
2,41910,Note_off_c,2,44,0,
2,41910,Note_on_c,2,49,60,
2,41925,Note_off_c,2,84,0,
2,41970,Note_off_c,2,78,0,
2,41985,Note_off_c,2,49,0,
2,41985,Note_off_c,2,85,0,
2,41985,Note_off_c,2,75,0,
2,42660,Note_on_c,2,65,90,
2,42660,Note_on_c,2,54,90,
2,42690,Note_on_c,2,70,60,
2,42765,Note_off_c,2,65,0,
2,42765,Note_off_c,2,54,0,
2,42765,Note_off_c,2,70,0,
2,42765,Note_on_c,2,69,0,
2,42765,Note_on_c,2,56,0,
2,42765,Note_on_c,2,75,0,
2,42765,Note_on_c,2,45,45,
2,42780,Note_off_c,2,69,0,
2,42780,Note_off_c,2,56,0,
2,42780,Note_off_c,2,75,0,
2,42780,Note_on_c,2,65,0,
2,42780,Note_on_c,2,71,15,
2,42780,Note_on_c,2,76,30,
2,42795,Note_off_c,2,65,0,
2,42795,Note_on_c,2,67,0,
2,42795,Note_on_c,2,55,0,
2,42810,Note_off_c,2,67,0,
2,42810,Note_off_c,2,71,0,
2,42810,Note_off_c,2,55,0,
2,42810,Note_on_c,2,77,15,
2,42810,Note_on_c,2,75,45,
2,42825,Note_off_c,2,76,0,
2,42825,Note_off_c,2,45,0,
2,42825,Note_on_c,2,41,0,
2,42840,Note_off_c,2,41,0,
2,42840,Note_off_c,2,77,0,
2,42840,Note_on_c,2,57,0,
2,42840,Note_on_c,2,76,15,
2,42840,Note_on_c,2,71,45,
2,42855,Note_off_c,2,57,0,
2,42870,Note_off_c,2,75,0,
2,42870,Note_off_c,2,76,0,
2,42900,Note_off_c,2,71,0,
2,43320,Note_on_c,2,75,30,
2,43320,Note_on_c,2,69,90,
2,43335,Note_on_c,2,81,0,
2,43335,Note_on_c,2,79,0,
2,43335,Note_on_c,2,62,15,
2,43335,Note_on_c,2,73,45,
2,43335,Note_on_c,2,66,60,
2,43350,Note_off_c,2,81,0,
2,43350,Note_off_c,2,79,0,
2,43350,Note_on_c,2,65,0,
2,43350,Note_on_c,2,71,45,
2,43365,Note_off_c,2,65,0,
2,43365,Note_off_c,2,75,0,
2,43365,Note_off_c,2,62,0,
2,43365,Note_on_c,2,61,0,
2,43380,Note_off_c,2,61,0,
2,43395,Note_off_c,2,73,0,
2,43410,Note_off_c,2,66,0,
2,43410,Note_off_c,2,71,0,
2,43425,Note_off_c,2,69,0,
2,44100,Note_on_c,2,56,75,
2,44190,Note_off_c,2,56,0,
2,44190,Note_on_c,2,81,15,
2,44220,Note_off_c,2,81,0,
2,44220,Note_on_c,2,83,0,
2,44220,Note_on_c,2,72,0,
2,44220,Note_on_c,2,61,60,
2,44235,Note_off_c,2,83,0,
2,44235,Note_off_c,2,72,0,
2,44235,Note_on_c,2,82,15,
2,44235,Note_on_c,2,73,15,
2,44265,Note_off_c,2,82,0,
2,44265,Note_off_c,2,73,0,
2,44265,Note_on_c,2,83,15,
2,44295,Note_off_c,2,83,0,
2,44295,Note_off_c,2,61,0,
2,44580,Note_on_c,2,69,105,
2,44700,Note_off_c,2,69,0,
2,45045,Note_on_c,2,78,75,
2,45135,Note_off_c,2,78,0,
2,45195,Note_on_c,2,76,120,
2,45330,Note_off_c,2,76,0,
2,45345,Note_on_c,2,70,60,
2,45420,Note_off_c,2,70,0,
2,45480,Note_on_c,2,64,255,
2,45480,Note_on_c,2,70,345,
2,45510,Note_on_c,2,69,195,
2,45525,Note_on_c,2,65,165,
2,45705,Note_off_c,2,65,0,
2,45720,Note_off_c,2,69,0,
2,45735,Note_on_c,2,67,0,
2,45750,Note_off_c,2,64,0,
2,45750,Note_off_c,2,67,0,
2,45750,Note_on_c,2,68,0,
2,45765,Note_off_c,2,68,0,
2,45840,Note_off_c,2,70,0,
2,45855,Note_on_c,2,73,30,
2,45900,Note_off_c,2,73,0,
2,45930,Note_on_c,2,75,120,
2,46050,Note_on_c,2,77,0,
2,46065,Note_off_c,2,75,0,
2,46065,Note_off_c,2,77,0,
2,46065,Note_on_c,2,69,0,
2,46065,Note_on_c,2,64,15,
2,46065,Note_on_c,2,76,15,
2,46065,Note_on_c,2,72,75,
2,46080,Note_off_c,2,69,0,
2,46080,Note_on_c,2,67,0,
2,46095,Note_off_c,2,64,0,
2,46095,Note_off_c,2,67,0,
2,46095,Note_off_c,2,76,0,
2,46095,Note_on_c,2,69,0,
2,46095,Note_on_c,2,77,45,
2,46095,Note_on_c,2,66,105,
2,46110,Note_off_c,2,69,0,
2,46110,Note_on_c,2,67,30,
2,46155,Note_off_c,2,67,0,
2,46155,Note_off_c,2,72,0,
2,46155,Note_off_c,2,77,0,
2,46155,Note_on_c,2,69,30,
2,46170,Note_on_c,2,75,15,
2,46170,Note_on_c,2,67,30,
2,46200,Note_off_c,2,69,0,
2,46200,Note_off_c,2,75,0,
2,46200,Note_on_c,2,79,0,
2,46215,Note_off_c,2,66,0,
2,46215,Note_off_c,2,67,0,
2,46215,Note_off_c,2,79,0,
2,46215,Note_on_c,2,69,0,
2,46230,Note_off_c,2,69,0,
2,46260,Note_on_c,2,47,75,
2,46335,Note_on_c,2,59,0,
2,46335,Note_on_c,2,76,0,
2,46350,Note_off_c,2,59,0,
2,46350,Note_off_c,2,76,0,
2,46350,Note_off_c,2,47,0,
2,46350,Note_on_c,2,64,0,
2,46350,Note_on_c,2,49,0,
2,46350,Note_on_c,2,83,0,
2,46350,Note_on_c,2,57,0,
2,46350,Note_on_c,2,79,0,
2,46365,Note_off_c,2,64,0,
2,46365,Note_off_c,2,49,0,
2,46365,Note_off_c,2,83,0,
2,46365,Note_off_c,2,57,0,
2,46365,Note_off_c,2,79,0,
2,46365,Note_on_c,2,69,0,
2,46365,Note_on_c,2,59,0,
2,46365,Note_on_c,2,60,0,
2,46365,Note_on_c,2,76,0,
2,46365,Note_on_c,2,47,0,
2,46365,Note_on_c,2,80,15,
2,46365,Note_on_c,2,73,60,
2,46380,Note_off_c,2,69,0,
2,46380,Note_off_c,2,59,0,
2,46380,Note_off_c,2,60,0,
2,46380,Note_off_c,2,76,0,
2,46380,Note_off_c,2,47,0,
2,46380,Note_on_c,2,61,0,
2,46380,Note_on_c,2,79,0,
2,46380,Note_on_c,2,49,15,
2,46380,Note_on_c,2,57,15,
2,46395,Note_off_c,2,80,0,
2,46395,Note_off_c,2,61,0,
2,46395,Note_off_c,2,79,0,
2,46395,Note_on_c,2,78,15,
2,46395,Note_on_c,2,63,15,
2,46395,Note_on_c,2,81,45,
2,46395,Note_on_c,2,69,45,
2,46410,Note_off_c,2,49,0,
2,46410,Note_off_c,2,57,0,
2,46410,Note_on_c,2,59,0,
2,46410,Note_on_c,2,47,0,
2,46425,Note_off_c,2,59,0,
2,46425,Note_off_c,2,78,0,
2,46425,Note_off_c,2,63,0,
2,46425,Note_off_c,2,47,0,
2,46425,Note_on_c,2,39,0,
2,46440,Note_off_c,2,39,0,
2,46440,Note_off_c,2,73,0,
2,46455,Note_off_c,2,81,0,
2,46455,Note_off_c,2,69,0,
2,46845,Note_on_c,2,82,0,
2,46845,Note_on_c,2,61,45,
2,46845,Note_on_c,2,85,75,
2,46845,Note_on_c,2,71,75,
2,46860,Note_off_c,2,82,0,
2,46860,Note_on_c,2,78,0,
2,46860,Note_on_c,2,73,45,
2,46860,Note_on_c,2,80,75,
2,46875,Note_off_c,2,78,0,
2,46875,Note_on_c,2,67,30,
2,46875,Note_on_c,2,77,75,
2,46905,Note_off_c,2,61,0,
2,46905,Note_on_c,2,63,15,
2,46920,Note_off_c,2,67,0,
2,46920,Note_off_c,2,73,0,
2,46935,Note_off_c,2,85,0,
2,46935,Note_off_c,2,71,0,
2,46935,Note_off_c,2,63,0,
2,46935,Note_on_c,2,70,0,
2,46935,Note_on_c,2,75,0,
2,46935,Note_on_c,2,61,0,
2,46950,Note_off_c,2,80,0,
2,46950,Note_off_c,2,70,0,
2,46950,Note_off_c,2,75,0,
2,46950,Note_off_c,2,61,0,
2,46950,Note_on_c,2,55,0,
2,46965,Note_off_c,2,55,0,
2,46965,Note_off_c,2,77,0,
2,46965,Note_on_c,2,58,0,
2,46980,Note_off_c,2,58,0,
2,47175,Note_on_c,2,80,30,
2,47190,Note_on_c,2,61,45,
2,47205,Note_on_c,2,62,0,
2,47220,Note_off_c,2,80,0,
2,47220,Note_off_c,2,62,0,
2,47220,Note_on_c,2,82,90,
2,47235,Note_on_c,2,60,30,
2,47250,Note_off_c,2,61,0,
2,47250,Note_on_c,2,81,15,
2,47280,Note_off_c,2,81,0,
2,47280,Note_off_c,2,60,0,
2,47280,Note_on_c,2,61,30,
2,47280,Note_on_c,2,80,45,
2,47325,Note_off_c,2,82,0,
2,47325,Note_off_c,2,61,0,
2,47340,Note_off_c,2,80,0,
2,47790,Note_on_c,2,69,30,
2,47790,Note_on_c,2,72,30,
2,47790,Note_on_c,2,77,30,
2,47835,Note_off_c,2,69,0,
2,47835,Note_off_c,2,72,0,
2,47835,Note_off_c,2,77,0,
