2,0,Note_on_c,2,6,10,
2,0,Note_on_c,2,70,10,
2,0,Note_on_c,2,88,10,
2,0,Note_on_c,2,75,10,
2,0,Note_on_c,2,78,10,
2,10,Note_off_c,2,6,0,
2,10,Note_off_c,2,70,0,
2,10,Note_off_c,2,88,0,
2,10,Note_off_c,2,75,0,
2,10,Note_off_c,2,78,0,
2,10,Note_on_c,2,66,10,
2,10,Note_on_c,2,82,10,
2,10,Note_on_c,2,70,10,
2,10,Note_on_c,2,87,10,
2,10,Note_on_c,2,75,10,
2,10,Note_on_c,2,62,10,
2,10,Note_on_c,2,78,10,
2,20,Note_off_c,2,66,0,
2,20,Note_off_c,2,82,0,
2,20,Note_off_c,2,70,0,
2,20,Note_off_c,2,87,0,
2,20,Note_off_c,2,75,0,
2,20,Note_off_c,2,62,0,
2,20,Note_off_c,2,78,0,
2,20,Note_on_c,2,80,10,
2,20,Note_on_c,2,65,10,
2,20,Note_on_c,2,66,10,
2,20,Note_on_c,2,68,10,
2,20,Note_on_c,2,85,10,
2,20,Note_on_c,2,70,10,
2,20,Note_on_c,2,72,10,
2,20,Note_on_c,2,75,10,
2,20,Note_on_c,2,77,10,
2,30,Note_off_c,2,80,0,
2,30,Note_off_c,2,65,0,
2,30,Note_off_c,2,66,0,
2,30,Note_off_c,2,68,0,
2,30,Note_off_c,2,85,0,
2,30,Note_off_c,2,70,0,
2,30,Note_off_c,2,72,0,
2,30,Note_off_c,2,75,0,
2,30,Note_off_c,2,77,0,
2,30,Note_on_c,2,80,10,
2,30,Note_on_c,2,65,10,
2,30,Note_on_c,2,66,10,
2,30,Note_on_c,2,85,10,
2,30,Note_on_c,2,70,10,
2,30,Note_on_c,2,73,10,
2,30,Note_on_c,2,75,10,
2,40,Note_off_c,2,80,0,
2,40,Note_off_c,2,65,0,
2,40,Note_off_c,2,66,0,
2,40,Note_off_c,2,85,0,
2,40,Note_off_c,2,70,0,
2,40,Note_off_c,2,73,0,
2,40,Note_off_c,2,75,0,
2,50,Note_on_c,2,80,10,
2,50,Note_on_c,2,65,10,
2,50,Note_on_c,2,66,10,
2,50,Note_on_c,2,85,10,
2,50,Note_on_c,2,56,10,
2,50,Note_on_c,2,75,10,
2,60,Note_off_c,2,80,0,
2,60,Note_off_c,2,65,0,
2,60,Note_off_c,2,66,0,
2,60,Note_off_c,2,85,0,
2,60,Note_off_c,2,56,0,
2,60,Note_off_c,2,75,0,
2,60,Note_on_c,2,80,10,
2,60,Note_on_c,2,65,10,
2,60,Note_on_c,2,66,10,
2,60,Note_on_c,2,70,10,
2,60,Note_on_c,2,75,10,
2,70,Note_off_c,2,80,0,
2,70,Note_off_c,2,65,0,
2,70,Note_off_c,2,66,0,
2,70,Note_off_c,2,70,0,
2,70,Note_off_c,2,75,0,
2,70,Note_on_c,2,80,10,
2,70,Note_on_c,2,65,10,
2,80,Note_off_c,2,80,0,
2,80,Note_off_c,2,65,0,
2,100,Note_on_c,2,80,10,
2,100,Note_on_c,2,65,10,
2,100,Note_on_c,2,68,10,
2,110,Note_off_c,2,80,0,
2,110,Note_off_c,2,65,0,
2,110,Note_off_c,2,68,0,
2,150,Note_on_c,2,80,10,
2,150,Note_on_c,2,66,10,
2,160,Note_off_c,2,80,0,
2,160,Note_off_c,2,66,0,
2,200,Note_on_c,2,78,10,
2,210,Note_off_c,2,78,0,
2,220,Note_on_c,2,81,10,
2,220,Note_on_c,2,79,10,
2,230,Note_off_c,2,81,0,
2,230,Note_off_c,2,79,0,
2,290,Note_on_c,2,83,10,
2,290,Note_on_c,2,87,10,
2,290,Note_on_c,2,78,10,
2,300,Note_off_c,2,83,0,
2,300,Note_off_c,2,87,0,
2,300,Note_off_c,2,78,0,
2,330,Note_on_c,2,83,10,
2,330,Note_on_c,2,87,10,
2,340,Note_off_c,2,83,0,
2,340,Note_off_c,2,87,0,
2,340,Note_on_c,2,87,10,
2,350,Note_off_c,2,87,0,
2,460,Note_on_c,2,56,10,
2,470,Note_off_c,2,56,0,
2,480,Note_on_c,2,56,10,
2,480,Note_on_c,2,58,10,
2,490,Note_off_c,2,56,0,
2,490,Note_off_c,2,58,0,
2,490,Note_on_c,2,56,10,
2,490,Note_on_c,2,58,10,
2,490,Note_on_c,2,63,10,
2,500,Note_off_c,2,56,0,
2,500,Note_off_c,2,58,0,
2,500,Note_off_c,2,63,0,
2,510,Note_on_c,2,65,10,
2,510,Note_on_c,2,58,10,
2,520,Note_off_c,2,65,0,
2,520,Note_off_c,2,58,0,
2,540,Note_on_c,2,65,10,
2,550,Note_off_c,2,65,0,
2,600,Note_on_c,2,68,10,
2,600,Note_on_c,2,55,10,
2,600,Note_on_c,2,58,10,
2,610,Note_off_c,2,68,0,
2,610,Note_off_c,2,55,0,
2,610,Note_off_c,2,58,0,
2,610,Note_on_c,2,65,10,
2,610,Note_on_c,2,55,10,
2,610,Note_on_c,2,58,10,
2,610,Note_on_c,2,61,10,
2,620,Note_off_c,2,65,0,
2,620,Note_off_c,2,55,0,
2,620,Note_off_c,2,58,0,
2,620,Note_off_c,2,61,0,
2,620,Note_on_c,2,68,10,
2,620,Note_on_c,2,55,10,
2,620,Note_on_c,2,58,10,
2,630,Note_off_c,2,68,0,
2,630,Note_off_c,2,55,0,
2,630,Note_off_c,2,58,0,
2,650,Note_on_c,2,65,10,
2,650,Note_on_c,2,55,10,
2,650,Note_on_c,2,56,10,
2,650,Note_on_c,2,59,10,
2,660,Note_off_c,2,65,0,
2,660,Note_off_c,2,55,0,
2,660,Note_off_c,2,56,0,
2,660,Note_off_c,2,59,0,
2,660,Note_on_c,2,65,10,
2,660,Note_on_c,2,68,10,
2,660,Note_on_c,2,59,10,
2,670,Note_off_c,2,65,0,
2,670,Note_off_c,2,68,0,
2,670,Note_off_c,2,59,0,
2,680,Note_on_c,2,65,10,
2,680,Note_on_c,2,85,10,
2,690,Note_off_c,2,65,0,
2,690,Note_off_c,2,85,0,
2,690,Note_on_c,2,80,10,
2,690,Note_on_c,2,65,10,
2,690,Note_on_c,2,59,10,
2,700,Note_off_c,2,80,0,
2,700,Note_off_c,2,65,0,
2,700,Note_off_c,2,59,0,
2,700,Note_on_c,2,65,10,
2,700,Note_on_c,2,59,10,
2,710,Note_off_c,2,65,0,
2,710,Note_off_c,2,59,0,
2,710,Note_on_c,2,65,10,
2,710,Note_on_c,2,82,10,
2,710,Note_on_c,2,59,10,
2,720,Note_off_c,2,65,0,
2,720,Note_off_c,2,82,0,
2,720,Note_off_c,2,59,0,
2,720,Note_on_c,2,65,10,
2,720,Note_on_c,2,59,10,
2,730,Note_off_c,2,65,0,
2,730,Note_off_c,2,59,0,
2,930,Note_on_c,2,65,10,
2,940,Note_off_c,2,65,0,
2,960,Note_on_c,2,65,10,
2,960,Note_on_c,2,57,10,
2,970,Note_off_c,2,65,0,
2,970,Note_off_c,2,57,0,
2,980,Note_on_c,2,65,10,
2,980,Note_on_c,2,68,10,
2,980,Note_on_c,2,57,10,
2,990,Note_off_c,2,65,0,
2,990,Note_off_c,2,68,0,
2,990,Note_off_c,2,57,0,
2,990,Note_on_c,2,67,10,
2,1000,Note_off_c,2,67,0,
2,1060,Note_on_c,2,65,10,
2,1070,Note_off_c,2,65,0,
2,1150,Note_on_c,2,61,10,
2,1160,Note_off_c,2,61,0,
2,1180,Note_on_c,2,65,10,
2,1180,Note_on_c,2,61,10,
2,1190,Note_off_c,2,65,0,
2,1190,Note_off_c,2,61,0,
2,1190,Note_on_c,2,61,10,
2,1200,Note_off_c,2,61,0,
2,1230,Note_on_c,2,81,10,
2,1230,Note_on_c,2,66,10,
2,1230,Note_on_c,2,90,10,
2,1230,Note_on_c,2,61,10,
2,1240,Note_off_c,2,81,0,
2,1240,Note_off_c,2,66,0,
2,1240,Note_off_c,2,90,0,
2,1240,Note_off_c,2,61,0,
2,1240,Note_on_c,2,66,10,
2,1240,Note_on_c,2,91,10,
2,1250,Note_off_c,2,66,0,
2,1250,Note_off_c,2,91,0,
2,1250,Note_on_c,2,96,10,
2,1260,Note_off_c,2,96,0,
2,1310,Note_on_c,2,65,10,
2,1310,Note_on_c,2,55,10,
2,1310,Note_on_c,2,92,10,
2,1310,Note_on_c,2,62,10,
2,1310,Note_on_c,2,95,10,
2,1320,Note_off_c,2,65,0,
2,1320,Note_off_c,2,55,0,
2,1320,Note_off_c,2,92,0,
2,1320,Note_off_c,2,62,0,
2,1320,Note_off_c,2,95,0,
2,1320,Note_on_c,2,69,10,
2,1320,Note_on_c,2,55,10,
2,1320,Note_on_c,2,56,10,
2,1330,Note_off_c,2,69,0,
2,1330,Note_off_c,2,55,0,
2,1330,Note_off_c,2,56,0,
2,1350,Note_on_c,2,56,10,
2,1360,Note_off_c,2,56,0,
2,1360,Note_on_c,2,56,10,
2,1360,Note_on_c,2,58,10,
2,1370,Note_off_c,2,56,0,
2,1370,Note_off_c,2,58,0,
2,1400,Note_on_c,2,55,10,
2,1400,Note_on_c,2,58,10,
2,1400,Note_on_c,2,63,10,
2,1410,Note_off_c,2,55,0,
2,1410,Note_off_c,2,58,0,
2,1410,Note_off_c,2,63,0,
2,1420,Note_on_c,2,67,10,
2,1420,Note_on_c,2,63,10,
2,1430,Note_off_c,2,67,0,
2,1430,Note_off_c,2,63,0,
2,1510,Note_on_c,2,67,10,
2,1520,Note_off_c,2,67,0,
2,1530,Note_on_c,2,69,10,
2,1540,Note_off_c,2,69,0,
2,1540,Note_on_c,2,64,10,
2,1540,Note_on_c,2,68,10,
2,1550,Note_off_c,2,64,0,
2,1550,Note_off_c,2,68,0,
2,1570,Note_on_c,2,64,10,
2,1570,Note_on_c,2,68,10,
2,1570,Note_on_c,2,59,10,
2,1580,Note_off_c,2,64,0,
2,1580,Note_off_c,2,68,0,
2,1580,Note_off_c,2,59,0,
2,1600,Note_on_c,2,64,10,
2,1600,Note_on_c,2,59,10,
2,1610,Note_off_c,2,64,0,
2,1610,Note_off_c,2,59,0,
2,1650,Note_on_c,2,63,10,
2,1660,Note_off_c,2,63,0,
2,1740,Note_on_c,2,64,10,
2,1740,Note_on_c,2,68,10,
2,1740,Note_on_c,2,63,10,
2,1750,Note_off_c,2,64,0,
2,1750,Note_off_c,2,68,0,
2,1750,Note_off_c,2,63,0,
2,1750,Note_on_c,2,68,10,
2,1750,Note_on_c,2,63,10,
2,1760,Note_off_c,2,68,0,
2,1760,Note_off_c,2,63,0,
2,1850,Note_on_c,2,72,10,
2,1860,Note_off_c,2,72,0,
2,1860,Note_on_c,2,52,10,
2,1860,Note_on_c,2,68,10,
2,1860,Note_on_c,2,72,10,
2,1870,Note_off_c,2,52,0,
2,1870,Note_off_c,2,68,0,
2,1870,Note_off_c,2,72,0,
2,1880,Note_on_c,2,52,10,
2,1880,Note_on_c,2,72,10,
2,1880,Note_on_c,2,58,10,
2,1880,Note_on_c,2,62,10,
2,1890,Note_off_c,2,52,0,
2,1890,Note_off_c,2,72,0,
2,1890,Note_off_c,2,58,0,
2,1890,Note_off_c,2,62,0,
2,1900,Note_on_c,2,72,10,
2,1900,Note_on_c,2,58,10,
2,1900,Note_on_c,2,62,10,
2,1910,Note_off_c,2,72,0,
2,1910,Note_off_c,2,58,0,
2,1910,Note_off_c,2,62,0,
2,1940,Note_on_c,2,59,10,
2,1940,Note_on_c,2,62,10,
2,1950,Note_off_c,2,59,0,
2,1950,Note_off_c,2,62,0,
2,1970,Note_on_c,2,52,10,
2,1970,Note_on_c,2,59,10,
2,1970,Note_on_c,2,62,10,
2,1980,Note_off_c,2,52,0,
2,1980,Note_off_c,2,59,0,
2,1980,Note_off_c,2,62,0,
2,1980,Note_on_c,2,65,10,
2,1980,Note_on_c,2,53,10,
2,1980,Note_on_c,2,59,10,
2,1980,Note_on_c,2,62,10,
2,1990,Note_off_c,2,65,0,
2,1990,Note_off_c,2,53,0,
2,1990,Note_off_c,2,59,0,
2,1990,Note_off_c,2,62,0,
2,1990,Note_on_c,2,66,10,
2,1990,Note_on_c,2,57,10,
2,1990,Note_on_c,2,59,10,
2,2000,Note_off_c,2,66,0,
2,2000,Note_off_c,2,57,0,
2,2000,Note_off_c,2,59,0,
2,2020,Note_on_c,2,65,10,
2,2020,Note_on_c,2,57,10,
2,2030,Note_off_c,2,65,0,
2,2030,Note_off_c,2,57,0,
2,2040,Note_on_c,2,37,10,
2,2040,Note_on_c,2,69,10,
2,2040,Note_on_c,2,47,10,
2,2050,Note_off_c,2,37,0,
2,2050,Note_off_c,2,69,0,
2,2050,Note_off_c,2,47,0,
2,2050,Note_on_c,2,49,10,
2,2050,Note_on_c,2,68,10,
2,2050,Note_on_c,2,37,10,
2,2050,Note_on_c,2,69,10,
2,2050,Note_on_c,2,13,10,
2,2060,Note_off_c,2,49,0,
2,2060,Note_off_c,2,68,0,
2,2060,Note_off_c,2,37,0,
2,2060,Note_off_c,2,69,0,
2,2060,Note_off_c,2,13,0,
2,2060,Note_on_c,2,49,10,
2,2060,Note_on_c,2,37,10,
2,2060,Note_on_c,2,69,10,
2,2070,Note_off_c,2,49,0,
2,2070,Note_off_c,2,37,0,
2,2070,Note_off_c,2,69,0,
2,2080,Note_on_c,2,33,10,
2,2080,Note_on_c,2,83,10,
2,2080,Note_on_c,2,69,10,
2,2080,Note_on_c,2,39,10,
2,2090,Note_off_c,2,33,0,
2,2090,Note_off_c,2,83,0,
2,2090,Note_off_c,2,69,0,
2,2090,Note_off_c,2,39,0,
2,2090,Note_on_c,2,37,10,
2,2090,Note_on_c,2,93,10,
2,2100,Note_off_c,2,37,0,
2,2100,Note_off_c,2,93,0,
2,2100,Note_on_c,2,37,10,
2,2100,Note_on_c,2,137,10,
2,2100,Note_on_c,2,92,10,
2,2110,Note_off_c,2,37,0,
2,2110,Note_off_c,2,137,0,
2,2110,Note_off_c,2,92,0,
2,2120,Note_on_c,2,67,10,
2,2120,Note_on_c,2,104,10,
2,2120,Note_on_c,2,409,10,
2,2120,Note_on_c,2,47,10,
2,2120,Note_on_c,2,1007,10,
2,2130,Note_off_c,2,67,0,
2,2130,Note_off_c,2,104,0,
2,2130,Note_off_c,2,409,0,
2,2130,Note_off_c,2,47,0,
2,2130,Note_off_c,2,1007,0,
2,2130,Note_on_c,2,47,10,
2,2130,Note_on_c,2,63,10,
2,2140,Note_off_c,2,47,0,
2,2140,Note_off_c,2,63,0,
2,2140,Note_on_c,2,37,10,
2,2140,Note_on_c,2,413001144,10,
2,2140,Note_on_c,2,107,10,
2,2150,Note_off_c,2,37,0,
2,2150,Note_off_c,2,413001144,0,
2,2150,Note_off_c,2,107,0,
2,2150,Note_on_c,2,96,10,
2,2150,Note_on_c,2,33,10,
2,2150,Note_on_c,2,12,10,
2,2150,Note_on_c,2,47,10,
2,2160,Note_off_c,2,96,0,
2,2160,Note_off_c,2,33,0,
2,2160,Note_off_c,2,12,0,
2,2160,Note_off_c,2,47,0,
2,2180,Note_on_c,2,102,10,
2,2180,Note_on_c,2,40,10,
2,2180,Note_on_c,2,104,10,
2,2190,Note_off_c,2,102,0,
2,2190,Note_off_c,2,40,0,
2,2190,Note_off_c,2,104,0,
2,2200,Note_on_c,2,102,10,
2,2200,Note_on_c,2,106,10,
2,2200,Note_on_c,2,107,10,
2,2200,Note_on_c,2,157,10,
2,2210,Note_off_c,2,102,0,
2,2210,Note_off_c,2,106,0,
2,2210,Note_off_c,2,107,0,
2,2210,Note_off_c,2,157,0,
2,2280,Note_on_c,2,81,10,
2,2280,Note_on_c,2,52,10,
2,2280,Note_on_c,2,53,10,
2,2280,Note_on_c,2,69,10,
2,2280,Note_on_c,2,59,10,
2,2290,Note_off_c,2,81,0,
2,2290,Note_off_c,2,52,0,
2,2290,Note_off_c,2,53,0,
2,2290,Note_off_c,2,69,0,
2,2290,Note_off_c,2,59,0,
2,2290,Note_on_c,2,53,10,
2,2290,Note_on_c,2,59,10,
2,2290,Note_on_c,2,91,10,
2,2290,Note_on_c,2,93,10,
2,2300,Note_off_c,2,53,0,
2,2300,Note_off_c,2,59,0,
2,2300,Note_off_c,2,91,0,
2,2300,Note_off_c,2,93,0,
2,2310,Note_on_c,2,93,10,
2,2310,Note_on_c,2,63,10,
2,2320,Note_off_c,2,93,0,
2,2320,Note_off_c,2,63,0,
2,2360,Note_on_c,2,81,10,
2,2360,Note_on_c,2,66,10,
2,2360,Note_on_c,2,93,10,
2,2370,Note_off_c,2,81,0,
2,2370,Note_off_c,2,66,0,
2,2370,Note_off_c,2,93,0,
2,2390,Note_on_c,2,81,10,
2,2390,Note_on_c,2,93,10,
2,2400,Note_off_c,2,81,0,
2,2400,Note_off_c,2,93,0,
2,2420,Note_on_c,2,91,10,
2,2430,Note_off_c,2,91,0,
2,2430,Note_on_c,2,91,10,
2,2430,Note_on_c,2,93,10,
2,2440,Note_off_c,2,91,0,
2,2440,Note_off_c,2,93,0,
2,2450,Note_on_c,2,91,10,
2,2450,Note_on_c,2,93,10,
2,2450,Note_on_c,2,95,10,
2,2460,Note_off_c,2,91,0,
2,2460,Note_off_c,2,93,0,
2,2460,Note_off_c,2,95,0,
2,2490,Note_on_c,2,93,10,
2,2490,Note_on_c,2,95,10,
2,2500,Note_off_c,2,93,0,
2,2500,Note_off_c,2,95,0,
2,2550,Note_on_c,2,64,10,
2,2550,Note_on_c,2,80,10,
2,2550,Note_on_c,2,95,10,
2,2560,Note_off_c,2,64,0,
2,2560,Note_off_c,2,80,0,
2,2560,Note_off_c,2,95,0,
2,2750,Note_on_c,2,90,10,
2,2760,Note_off_c,2,90,0,
2,2780,Note_on_c,2,90,10,
2,2780,Note_on_c,2,92,10,
2,2790,Note_off_c,2,90,0,
2,2790,Note_off_c,2,92,0,
2,2790,Note_on_c,2,90,10,
2,2790,Note_on_c,2,12,10,
2,2790,Note_on_c,2,94,10,
2,2800,Note_off_c,2,90,0,
2,2800,Note_off_c,2,12,0,
2,2800,Note_off_c,2,94,0,
2,2810,Note_on_c,2,65,10,
2,2810,Note_on_c,2,67,10,
2,2810,Note_on_c,2,90,10,
2,2810,Note_on_c,2,92,10,
2,2810,Note_on_c,2,62,10,
2,2820,Note_off_c,2,65,0,
2,2820,Note_off_c,2,67,0,
2,2820,Note_off_c,2,90,0,
2,2820,Note_off_c,2,92,0,
2,2820,Note_off_c,2,62,0,
2,2820,Note_on_c,2,69,10,
2,2820,Note_on_c,2,90,10,
2,2820,Note_on_c,2,75,10,
2,2820,Note_on_c,2,63,10,
2,2830,Note_off_c,2,69,0,
2,2830,Note_off_c,2,90,0,
2,2830,Note_off_c,2,75,0,
2,2830,Note_off_c,2,63,0,
2,2830,Note_on_c,2,91,10,
2,2840,Note_off_c,2,91,0,
2,2840,Note_on_c,2,97,10,
2,2840,Note_on_c,2,90,10,
2,2850,Note_off_c,2,97,0,
2,2850,Note_off_c,2,90,0,
2,2850,Note_on_c,2,0,10,
2,2850,Note_on_c,2,97,10,
2,2850,Note_on_c,2,19,10,
2,2850,Note_on_c,2,90,10,
2,2860,Note_off_c,2,0,0,
2,2860,Note_off_c,2,97,0,
2,2860,Note_off_c,2,19,0,
2,2860,Note_off_c,2,90,0,
2,2860,Note_on_c,2,97,10,
2,2860,Note_on_c,2,102,10,
2,2860,Note_on_c,2,90,10,
2,2870,Note_off_c,2,97,0,
2,2870,Note_off_c,2,102,0,
2,2870,Note_off_c,2,90,0,
2,2880,Note_on_c,2,101,10,
2,2880,Note_on_c,2,104,10,
2,2880,Note_on_c,2,90,10,
2,2880,Note_on_c,2,95,10,
2,2890,Note_off_c,2,101,0,
2,2890,Note_off_c,2,104,0,
2,2890,Note_off_c,2,90,0,
2,2890,Note_off_c,2,95,0,
2,2900,Note_on_c,2,103,10,
2,2900,Note_on_c,2,91,10,
2,2900,Note_on_c,2,107,10,
2,2910,Note_off_c,2,103,0,
2,2910,Note_off_c,2,91,0,
2,2910,Note_off_c,2,107,0,
2,2920,Note_on_c,2,101,10,
2,2920,Note_on_c,2,107,10,
2,2930,Note_off_c,2,101,0,
2,2930,Note_off_c,2,107,0,
2,2950,Note_on_c,2,113,10,
2,2950,Note_on_c,2,104,10,
2,2950,Note_on_c,2,107,10,
2,2960,Note_off_c,2,113,0,
2,2960,Note_off_c,2,104,0,
2,2960,Note_off_c,2,107,0,
2,2960,Note_on_c,2,100,10,
2,2960,Note_on_c,2,93,10,
2,2970,Note_off_c,2,100,0,
2,2970,Note_off_c,2,93,0,
2,3110,Note_on_c,2,90,10,
2,3120,Note_off_c,2,90,0,
2,3160,Note_on_c,2,69,10,
2,3170,Note_off_c,2,69,0,
2,3170,Note_on_c,2,67,10,
2,3170,Note_on_c,2,62,10,
2,3180,Note_off_c,2,67,0,
2,3180,Note_off_c,2,62,0,
2,3180,Note_on_c,2,67,10,
2,3180,Note_on_c,2,59,10,
2,3180,Note_on_c,2,62,10,
2,3190,Note_off_c,2,67,0,
2,3190,Note_off_c,2,59,0,
2,3190,Note_off_c,2,62,0,
2,3190,Note_on_c,2,65,10,
2,3190,Note_on_c,2,70,10,
2,3190,Note_on_c,2,86,10,
2,3190,Note_on_c,2,59,10,
2,3190,Note_on_c,2,62,10,
2,3190,Note_on_c,2,15,10,
2,3200,Note_off_c,2,65,0,
2,3200,Note_off_c,2,70,0,
2,3200,Note_off_c,2,86,0,
2,3200,Note_off_c,2,59,0,
2,3200,Note_off_c,2,62,0,
2,3200,Note_off_c,2,15,0,
2,3210,Note_on_c,2,99,10,
2,3210,Note_on_c,2,59,10,
2,3210,Note_on_c,2,92,10,
2,3210,Note_on_c,2,157,10,
2,3220,Note_off_c,2,99,0,
2,3220,Note_off_c,2,59,0,
2,3220,Note_off_c,2,92,0,
2,3220,Note_off_c,2,157,0,
2,3220,Note_on_c,2,97,10,
2,3220,Note_on_c,2,92,10,
2,3220,Note_on_c,2,95,10,
2,3230,Note_off_c,2,97,0,
2,3230,Note_off_c,2,92,0,
2,3230,Note_off_c,2,95,0,
2,3270,Note_on_c,2,97,10,
2,3270,Note_on_c,2,95,10,
2,3280,Note_off_c,2,97,0,
2,3280,Note_off_c,2,95,0,
2,3320,Note_on_c,2,97,10,
2,3330,Note_off_c,2,97,0,
2,3450,Note_on_c,2,93,10,
2,3450,Note_on_c,2,63,10,
2,3460,Note_off_c,2,93,0,
2,3460,Note_off_c,2,63,0,
2,3470,Note_on_c,2,90,10,
2,3470,Note_on_c,2,44,10,
2,3470,Note_on_c,2,63,10,
2,3480,Note_off_c,2,90,0,
2,3480,Note_off_c,2,44,0,
2,3480,Note_off_c,2,63,0,
2,3480,Note_on_c,2,4,10,
2,3480,Note_on_c,2,63,10,
2,3490,Note_off_c,2,4,0,
2,3490,Note_off_c,2,63,0,
2,3490,Note_on_c,2,49,10,
2,3490,Note_on_c,2,53,10,
2,3490,Note_on_c,2,69,10,
2,3500,Note_off_c,2,49,0,
2,3500,Note_off_c,2,53,0,
2,3500,Note_off_c,2,69,0,
2,3500,Note_on_c,2,33,10,
2,3500,Note_on_c,2,49,10,
2,3500,Note_on_c,2,609,10,
2,3500,Note_on_c,2,60,10,
2,3510,Note_off_c,2,33,0,
2,3510,Note_off_c,2,49,0,
2,3510,Note_off_c,2,609,0,
2,3510,Note_off_c,2,60,0,
2,3510,Note_on_c,2,34,10,
2,3510,Note_on_c,2,105,10,
2,3510,Note_on_c,2,60,10,
2,3520,Note_off_c,2,34,0,
2,3520,Note_off_c,2,105,0,
2,3520,Note_off_c,2,60,0,
2,3520,Note_on_c,2,100,10,
2,3520,Note_on_c,2,404,10,
2,3520,Note_on_c,2,10,10,
2,3520,Note_on_c,2,47,10,
2,3530,Note_off_c,2,100,0,
2,3530,Note_off_c,2,404,0,
2,3530,Note_off_c,2,10,0,
2,3530,Note_off_c,2,47,0,
2,3540,Note_on_c,2,307,10,
2,3540,Note_on_c,2,100,10,
2,3550,Note_off_c,2,307,0,
2,3550,Note_off_c,2,100,0,
2,3550,Note_on_c,2,337,10,
2,3550,Note_on_c,2,117,10,
2,3550,Note_on_c,2,1077,10,
2,3550,Note_on_c,2,104,10,
2,3560,Note_off_c,2,337,0,
2,3560,Note_off_c,2,117,0,
2,3560,Note_off_c,2,1077,0,
2,3560,Note_off_c,2,104,0,
2,3590,Note_on_c,2,104,10,
2,3590,Note_on_c,2,93,10,
2,3600,Note_off_c,2,104,0,
2,3600,Note_off_c,2,93,0,
2,3600,Note_on_c,2,104,10,
2,3600,Note_on_c,2,93,10,
2,3600,Note_on_c,2,109,10,
2,3610,Note_off_c,2,104,0,
2,3610,Note_off_c,2,93,0,
2,3610,Note_off_c,2,109,0,
2,3630,Note_on_c,2,102,10,
2,3630,Note_on_c,2,103,10,
2,3630,Note_on_c,2,119,10,
2,3630,Note_on_c,2,107,10,
2,3640,Note_off_c,2,102,0,
2,3640,Note_off_c,2,103,0,
2,3640,Note_off_c,2,119,0,
2,3640,Note_off_c,2,107,0,
2,3640,Note_on_c,2,102,10,
2,3640,Note_on_c,2,107,10,
2,3650,Note_off_c,2,102,0,
2,3650,Note_off_c,2,107,0,
2,3650,Note_on_c,2,112,10,
2,3650,Note_on_c,2,51,10,
2,3650,Note_on_c,2,101,10,
2,3650,Note_on_c,2,109,10,
2,3660,Note_off_c,2,112,0,
2,3660,Note_off_c,2,51,0,
2,3660,Note_off_c,2,101,0,
2,3660,Note_off_c,2,109,0,
2,3660,Note_on_c,2,113,10,
2,3660,Note_on_c,2,56,10,
2,3660,Note_on_c,2,9,10,
2,3660,Note_on_c,2,11,10,
2,3660,Note_on_c,2,111,10,
2,3670,Note_off_c,2,113,0,
2,3670,Note_off_c,2,56,0,
2,3670,Note_off_c,2,9,0,
2,3670,Note_off_c,2,11,0,
2,3670,Note_off_c,2,111,0,
2,3670,Note_on_c,2,113,10,
2,3670,Note_on_c,2,51,10,
2,3670,Note_on_c,2,109,10,
2,3670,Note_on_c,2,111,10,
2,3680,Note_off_c,2,113,0,
2,3680,Note_off_c,2,51,0,
2,3680,Note_off_c,2,109,0,
2,3680,Note_off_c,2,111,0,
2,3720,Note_on_c,2,51,10,
2,3720,Note_on_c,2,53,10,
2,3720,Note_on_c,2,55,10,
2,3730,Note_off_c,2,51,0,
2,3730,Note_off_c,2,53,0,
2,3730,Note_off_c,2,55,0,
2,3740,Note_on_c,2,53,10,
2,3740,Note_on_c,2,55,10,
2,3750,Note_off_c,2,53,0,
2,3750,Note_off_c,2,55,0,
2,3790,Note_on_c,2,82,10,
2,3790,Note_on_c,2,55,10,
2,3790,Note_on_c,2,59,10,
2,3790,Note_on_c,2,95,10,
2,3800,Note_off_c,2,82,0,
2,3800,Note_off_c,2,55,0,
2,3800,Note_off_c,2,59,0,
2,3800,Note_off_c,2,95,0,
2,3810,Note_on_c,2,65,10,
2,3810,Note_on_c,2,97,10,
2,3810,Note_on_c,2,82,10,
2,3810,Note_on_c,2,55,10,
2,3810,Note_on_c,2,59,10,
2,3820,Note_off_c,2,65,0,
2,3820,Note_off_c,2,97,0,
2,3820,Note_off_c,2,82,0,
2,3820,Note_off_c,2,55,0,
2,3820,Note_off_c,2,59,0,
2,3820,Note_on_c,2,55,10,
2,3820,Note_on_c,2,59,10,
2,3820,Note_on_c,2,93,10,
2,3820,Note_on_c,2,95,10,
2,3830,Note_off_c,2,55,0,
2,3830,Note_off_c,2,59,0,
2,3830,Note_off_c,2,93,0,
2,3830,Note_off_c,2,95,0,
2,3850,Note_on_c,2,99,10,
2,3860,Note_off_c,2,99,0,
2,3860,Note_on_c,2,97,10,
2,3860,Note_on_c,2,99,10,
2,3860,Note_on_c,2,102,10,
2,3860,Note_on_c,2,95,10,
2,3870,Note_off_c,2,97,0,
2,3870,Note_off_c,2,99,0,
2,3870,Note_off_c,2,102,0,
2,3870,Note_off_c,2,95,0,
2,3890,Note_on_c,2,102,10,
2,3890,Note_on_c,2,91,10,
2,3890,Note_on_c,2,95,10,
2,3900,Note_off_c,2,102,0,
2,3900,Note_off_c,2,91,0,
2,3900,Note_off_c,2,95,0,
2,3900,Note_on_c,2,2,10,
2,3900,Note_on_c,2,100,10,
2,3910,Note_off_c,2,2,0,
2,3910,Note_off_c,2,100,0,
2,3910,Note_on_c,2,2,10,
2,3910,Note_on_c,2,100,10,
2,3910,Note_on_c,2,102,10,
2,3920,Note_off_c,2,2,0,
2,3920,Note_off_c,2,100,0,
2,3920,Note_off_c,2,102,0,
2,3970,Note_on_c,2,117,10,
2,3970,Note_on_c,2,104,10,
2,3980,Note_off_c,2,117,0,
2,3980,Note_off_c,2,104,0,
2,3980,Note_on_c,2,93,10,
2,3990,Note_off_c,2,93,0,
2,4000,Note_on_c,2,91,10,
2,4000,Note_on_c,2,93,10,
2,4010,Note_off_c,2,91,0,
2,4010,Note_off_c,2,93,0,
2,4010,Note_on_c,2,91,10,
2,4020,Note_off_c,2,91,0,
2,4190,Note_on_c,2,52,10,
2,4190,Note_on_c,2,62,10,
2,4200,Note_off_c,2,52,0,
2,4200,Note_off_c,2,62,0,
2,4200,Note_on_c,2,52,10,
2,4210,Note_off_c,2,52,0,
2,4230,Note_on_c,2,65,10,
2,4230,Note_on_c,2,69,10,
2,4240,Note_off_c,2,65,0,
2,4240,Note_off_c,2,69,0,
2,4250,Note_on_c,2,65,10,
2,4250,Note_on_c,2,82,10,
2,4250,Note_on_c,2,69,10,
2,4260,Note_off_c,2,65,0,
2,4260,Note_off_c,2,82,0,
2,4260,Note_off_c,2,69,0,
2,4290,Note_on_c,2,65,10,
2,4290,Note_on_c,2,90,10,
2,4290,Note_on_c,2,92,10,
2,4290,Note_on_c,2,62,10,
2,4300,Note_off_c,2,65,0,
2,4300,Note_off_c,2,90,0,
2,4300,Note_off_c,2,92,0,
2,4300,Note_off_c,2,62,0,
2,4300,Note_on_c,2,60,10,
2,4300,Note_on_c,2,92,10,
2,4310,Note_off_c,2,60,0,
2,4310,Note_off_c,2,92,0,
2,4390,Note_on_c,2,69,10,
2,4400,Note_off_c,2,69,0,
2,4430,Note_on_c,2,96,10,
2,4430,Note_on_c,2,90,10,
2,4430,Note_on_c,2,59,10,
2,4430,Note_on_c,2,63,10,
2,4440,Note_off_c,2,96,0,
2,4440,Note_off_c,2,90,0,
2,4440,Note_off_c,2,59,0,
2,4440,Note_off_c,2,63,0,
2,4440,Note_on_c,2,57,10,
2,4440,Note_on_c,2,93,10,
2,4440,Note_on_c,2,95,10,
2,4450,Note_off_c,2,57,0,
2,4450,Note_off_c,2,93,0,
2,4450,Note_off_c,2,95,0,
2,4450,Note_on_c,2,90,10,
2,4450,Note_on_c,2,95,10,
2,4460,Note_off_c,2,90,0,
2,4460,Note_off_c,2,95,0,
2,4520,Note_on_c,2,51,10,
2,4520,Note_on_c,2,84,10,
2,4520,Note_on_c,2,90,10,
2,4520,Note_on_c,2,60,10,
2,4520,Note_on_c,2,95,10,
2,4530,Note_off_c,2,51,0,
2,4530,Note_off_c,2,84,0,
2,4530,Note_off_c,2,90,0,
2,4530,Note_off_c,2,60,0,
2,4530,Note_off_c,2,95,0,
2,4550,Note_on_c,2,82,10,
2,4550,Note_on_c,2,92,10,
2,4550,Note_on_c,2,95,10,
2,4560,Note_off_c,2,82,0,
2,4560,Note_off_c,2,92,0,
2,4560,Note_off_c,2,95,0,
2,4600,Note_on_c,2,92,10,
2,4610,Note_off_c,2,92,0,
2,4630,Note_on_c,2,66,10,
2,4630,Note_on_c,2,67,10,
2,4630,Note_on_c,2,61,10,
2,4640,Note_off_c,2,66,0,
2,4640,Note_off_c,2,67,0,
2,4640,Note_off_c,2,61,0,
2,4640,Note_on_c,2,66,10,
2,4640,Note_on_c,2,68,10,
2,4640,Note_on_c,2,56,10,
2,4640,Note_on_c,2,90,10,
2,4650,Note_off_c,2,66,0,
2,4650,Note_off_c,2,68,0,
2,4650,Note_off_c,2,56,0,
2,4650,Note_off_c,2,90,0,
2,4650,Note_on_c,2,66,10,
2,4650,Note_on_c,2,68,10,
2,4650,Note_on_c,2,90,10,
2,4650,Note_on_c,2,92,10,
2,4650,Note_on_c,2,95,10,
2,4660,Note_off_c,2,66,0,
2,4660,Note_off_c,2,68,0,
2,4660,Note_off_c,2,90,0,
2,4660,Note_off_c,2,92,0,
2,4660,Note_off_c,2,95,0,
2,4660,Note_on_c,2,80,10,
2,4660,Note_on_c,2,65,10,
2,4660,Note_on_c,2,68,10,
2,4660,Note_on_c,2,92,10,
2,4660,Note_on_c,2,61,10,
2,4660,Note_on_c,2,95,10,
2,4670,Note_off_c,2,80,0,
2,4670,Note_off_c,2,65,0,
2,4670,Note_off_c,2,68,0,
2,4670,Note_off_c,2,92,0,
2,4670,Note_off_c,2,61,0,
2,4670,Note_off_c,2,95,0,
2,4670,Note_on_c,2,96,10,
2,4670,Note_on_c,2,65,10,
2,4670,Note_on_c,2,90,10,
2,4670,Note_on_c,2,61,10,
2,4680,Note_off_c,2,96,0,
2,4680,Note_off_c,2,65,0,
2,4680,Note_off_c,2,90,0,
2,4680,Note_off_c,2,61,0,
2,4680,Note_on_c,2,65,10,
2,4680,Note_on_c,2,90,10,
2,4680,Note_on_c,2,95,10,
2,4690,Note_off_c,2,65,0,
2,4690,Note_off_c,2,90,0,
2,4690,Note_off_c,2,95,0,
2,4690,Note_on_c,2,19,10,
2,4690,Note_on_c,2,69,10,
2,4690,Note_on_c,2,90,10,
2,4690,Note_on_c,2,155,10,
2,4690,Note_on_c,2,95,10,
2,4700,Note_off_c,2,19,0,
2,4700,Note_off_c,2,69,0,
2,4700,Note_off_c,2,90,0,
2,4700,Note_off_c,2,155,0,
2,4700,Note_off_c,2,95,0,
2,4700,Note_on_c,2,95,10,
2,4710,Note_off_c,2,95,0,
2,4710,Note_on_c,2,97,10,
2,4710,Note_on_c,2,95,10,
2,4720,Note_off_c,2,97,0,
2,4720,Note_off_c,2,95,0,
2,4720,Note_on_c,2,97,10,
2,4720,Note_on_c,2,90,10,
2,4720,Note_on_c,2,95,10,
2,4730,Note_off_c,2,97,0,
2,4730,Note_off_c,2,90,0,
2,4730,Note_off_c,2,95,0,
2,4800,Note_on_c,2,90,10,
2,4800,Note_on_c,2,94,10,
2,4810,Note_off_c,2,90,0,
2,4810,Note_off_c,2,94,0,
2,4820,Note_on_c,2,90,10,
2,4830,Note_off_c,2,90,0,
2,4830,Note_on_c,2,99,10,
2,4830,Note_on_c,2,61,10,
2,4830,Note_on_c,2,93,10,
2,4840,Note_off_c,2,99,0,
2,4840,Note_off_c,2,61,0,
2,4840,Note_off_c,2,93,0,
2,4840,Note_on_c,2,105,10,
2,4840,Note_on_c,2,59,10,
2,4840,Note_on_c,2,349,10,
2,4840,Note_on_c,2,109,10,
2,4840,Note_on_c,2,111,10,
2,4850,Note_off_c,2,105,0,
2,4850,Note_off_c,2,59,0,
2,4850,Note_off_c,2,349,0,
2,4850,Note_off_c,2,109,0,
2,4850,Note_off_c,2,111,0,
2,4850,Note_on_c,2,16,10,
2,4850,Note_on_c,2,19,10,
2,4860,Note_off_c,2,16,0,
2,4860,Note_off_c,2,19,0,
2,4890,Note_on_c,2,106,10,
2,4900,Note_off_c,2,106,0,
2,4930,Note_on_c,2,102,10,
2,4930,Note_on_c,2,92,10,
2,4940,Note_off_c,2,102,0,
2,4940,Note_off_c,2,92,0,
2,4960,Note_on_c,2,67,10,
2,4960,Note_on_c,2,102,10,
2,4960,Note_on_c,2,55,10,
2,4960,Note_on_c,2,90,10,
2,4960,Note_on_c,2,107,10,
2,4970,Note_off_c,2,67,0,
2,4970,Note_off_c,2,102,0,
2,4970,Note_off_c,2,55,0,
2,4970,Note_off_c,2,90,0,
2,4970,Note_off_c,2,107,0,
2,4970,Note_on_c,2,112,10,
2,4970,Note_on_c,2,50,10,
2,4970,Note_on_c,2,10,10,
2,4970,Note_on_c,2,59,10,
2,4980,Note_off_c,2,112,0,
2,4980,Note_off_c,2,50,0,
2,4980,Note_off_c,2,10,0,
2,4980,Note_off_c,2,59,0,
2,4980,Note_on_c,2,50,10,
2,4980,Note_on_c,2,55,10,
2,4980,Note_on_c,2,57,10,
2,4980,Note_on_c,2,105,10,
2,4980,Note_on_c,2,111,10,
2,4990,Note_off_c,2,50,0,
2,4990,Note_off_c,2,55,0,
2,4990,Note_off_c,2,57,0,
2,4990,Note_off_c,2,105,0,
2,4990,Note_off_c,2,111,0,
2,5000,Note_on_c,2,96,10,
2,5000,Note_on_c,2,55,10,
2,5000,Note_on_c,2,59,10,
2,5000,Note_on_c,2,107,10,
2,5010,Note_off_c,2,96,0,
2,5010,Note_off_c,2,55,0,
2,5010,Note_off_c,2,59,0,
2,5010,Note_off_c,2,107,0,
2,5010,Note_on_c,2,55,10,
2,5010,Note_on_c,2,91,10,
2,5010,Note_on_c,2,95,10,
2,5020,Note_off_c,2,55,0,
2,5020,Note_off_c,2,91,0,
2,5020,Note_off_c,2,95,0,
2,5040,Note_on_c,2,59,10,
2,5040,Note_on_c,2,93,10,
2,5050,Note_off_c,2,59,0,
2,5050,Note_off_c,2,93,0,
2,5060,Note_on_c,2,59,10,
2,5070,Note_off_c,2,59,0,
2,5380,Note_on_c,2,86,10,
2,5380,Note_on_c,2,92,10,
2,5390,Note_off_c,2,86,0,
2,5390,Note_off_c,2,92,0,
2,5390,Note_on_c,2,82,10,
2,5390,Note_on_c,2,99,10,
2,5390,Note_on_c,2,76,10,
2,5400,Note_off_c,2,82,0,
2,5400,Note_off_c,2,99,0,
2,5400,Note_off_c,2,76,0,
2,5410,Note_on_c,2,97,10,
2,5410,Note_on_c,2,70,10,
2,5410,Note_on_c,2,76,10,
2,5410,Note_on_c,2,92,10,
2,5420,Note_off_c,2,97,0,
2,5420,Note_off_c,2,70,0,
2,5420,Note_off_c,2,76,0,
2,5420,Note_off_c,2,92,0,
2,5420,Note_on_c,2,96,10,
2,5420,Note_on_c,2,7,10,
2,5420,Note_on_c,2,90,10,
2,5420,Note_on_c,2,107,10,
2,5420,Note_on_c,2,62,10,
2,5430,Note_off_c,2,96,0,
2,5430,Note_off_c,2,7,0,
2,5430,Note_off_c,2,90,0,
2,5430,Note_off_c,2,107,0,
2,5430,Note_off_c,2,62,0,
2,5430,Note_on_c,2,96,10,
2,5430,Note_on_c,2,90,10,
2,5430,Note_on_c,2,107,10,
2,5430,Note_on_c,2,63,10,
2,5440,Note_off_c,2,96,0,
2,5440,Note_off_c,2,90,0,
2,5440,Note_off_c,2,107,0,
2,5440,Note_off_c,2,63,0,
2,5440,Note_on_c,2,99,10,
2,5440,Note_on_c,2,100,10,
2,5440,Note_on_c,2,92,10,
2,5450,Note_off_c,2,99,0,
2,5450,Note_off_c,2,100,0,
2,5450,Note_off_c,2,92,0,
2,5480,Note_on_c,2,80,10,
2,5480,Note_on_c,2,92,10,
2,5480,Note_on_c,2,62,10,
2,5480,Note_on_c,2,95,10,
2,5490,Note_off_c,2,80,0,
2,5490,Note_off_c,2,92,0,
2,5490,Note_off_c,2,62,0,
2,5490,Note_off_c,2,95,0,
2,5510,Note_on_c,2,97,10,
2,5510,Note_on_c,2,102,10,
2,5510,Note_on_c,2,93,10,
2,5510,Note_on_c,2,62,10,
2,5510,Note_on_c,2,95,10,
2,5520,Note_off_c,2,97,0,
2,5520,Note_off_c,2,102,0,
2,5520,Note_off_c,2,93,0,
2,5520,Note_off_c,2,62,0,
2,5520,Note_off_c,2,95,0,
2,5520,Note_on_c,2,104,10,
2,5520,Note_on_c,2,90,10,
2,5520,Note_on_c,2,93,10,
2,5530,Note_off_c,2,104,0,
2,5530,Note_off_c,2,90,0,
2,5530,Note_off_c,2,93,0,
2,5530,Note_on_c,2,102,10,
2,5530,Note_on_c,2,95,10,
2,5540,Note_off_c,2,102,0,
2,5540,Note_off_c,2,95,0,
2,5550,Note_on_c,2,112,10,
2,5550,Note_on_c,2,62,10,
2,5550,Note_on_c,2,95,10,
2,5560,Note_off_c,2,112,0,
2,5560,Note_off_c,2,62,0,
2,5560,Note_off_c,2,95,0,
2,5560,Note_on_c,2,92,10,
2,5560,Note_on_c,2,62,10,
2,5570,Note_off_c,2,92,0,
2,5570,Note_off_c,2,62,0,
2,5600,Note_on_c,2,92,10,
2,5610,Note_off_c,2,92,0,
2,5610,Note_on_c,2,68,10,
2,5610,Note_on_c,2,92,10,
2,5620,Note_off_c,2,68,0,
2,5620,Note_off_c,2,92,0,
2,5620,Note_on_c,2,82,10,
2,5620,Note_on_c,2,68,10,
2,5620,Note_on_c,2,69,10,
2,5620,Note_on_c,2,56,10,
2,5620,Note_on_c,2,90,10,
2,5630,Note_off_c,2,82,0,
2,5630,Note_off_c,2,68,0,
2,5630,Note_off_c,2,69,0,
2,5630,Note_off_c,2,56,0,
2,5630,Note_off_c,2,90,0,
2,5640,Note_on_c,2,65,10,
2,5640,Note_on_c,2,66,10,
2,5640,Note_on_c,2,68,10,
2,5640,Note_on_c,2,70,10,
2,5640,Note_on_c,2,57,10,
2,5640,Note_on_c,2,92,10,
2,5650,Note_off_c,2,65,0,
2,5650,Note_off_c,2,66,0,
2,5650,Note_off_c,2,68,0,
2,5650,Note_off_c,2,70,0,
2,5650,Note_off_c,2,57,0,
2,5650,Note_off_c,2,92,0,
2,5650,Note_on_c,2,66,10,
2,5650,Note_on_c,2,53,10,
2,5650,Note_on_c,2,55,10,
2,5650,Note_on_c,2,56,10,
2,5650,Note_on_c,2,90,10,
2,5650,Note_on_c,2,62,10,
2,5650,Note_on_c,2,94,10,
2,5660,Note_off_c,2,66,0,
2,5660,Note_off_c,2,53,0,
2,5660,Note_off_c,2,55,0,
2,5660,Note_off_c,2,56,0,
2,5660,Note_off_c,2,90,0,
2,5660,Note_off_c,2,62,0,
2,5660,Note_off_c,2,94,0,
2,5660,Note_on_c,2,66,10,
2,5660,Note_on_c,2,55,10,
2,5660,Note_on_c,2,56,10,
2,5660,Note_on_c,2,90,10,
2,5660,Note_on_c,2,92,10,
2,5660,Note_on_c,2,95,10,
2,5670,Note_off_c,2,66,0,
2,5670,Note_off_c,2,55,0,
2,5670,Note_off_c,2,56,0,
2,5670,Note_off_c,2,90,0,
2,5670,Note_off_c,2,92,0,
2,5670,Note_off_c,2,95,0,
2,5670,Note_on_c,2,56,10,
2,5670,Note_on_c,2,90,10,
2,5670,Note_on_c,2,95,10,
2,5680,Note_off_c,2,56,0,
2,5680,Note_off_c,2,90,0,
2,5680,Note_off_c,2,95,0,
2,5680,Note_on_c,2,65,10,
2,5680,Note_on_c,2,90,10,
2,5690,Note_off_c,2,65,0,
2,5690,Note_off_c,2,90,0,
2,5690,Note_on_c,2,59,10,
2,5700,Note_off_c,2,59,0,
2,5710,Note_on_c,2,91,10,
2,5720,Note_off_c,2,91,0,
2,5750,Note_on_c,2,69,10,
2,5750,Note_on_c,2,91,10,
2,5760,Note_off_c,2,69,0,
2,5760,Note_off_c,2,91,0,
2,5760,Note_on_c,2,97,10,
2,5760,Note_on_c,2,56,10,
2,5760,Note_on_c,2,91,10,
2,5770,Note_off_c,2,97,0,
2,5770,Note_off_c,2,56,0,
2,5770,Note_off_c,2,91,0,
2,5800,Note_on_c,2,59,10,
2,5800,Note_on_c,2,91,10,
2,5810,Note_off_c,2,59,0,
2,5810,Note_off_c,2,91,0,
2,5810,Note_on_c,2,69,10,
2,5820,Note_off_c,2,69,0,
2,5920,Note_on_c,2,60,10,
2,5930,Note_off_c,2,60,0,
2,5930,Note_on_c,2,60,10,
2,5930,Note_on_c,2,92,10,
2,5940,Note_off_c,2,60,0,
2,5940,Note_off_c,2,92,0,
2,5940,Note_on_c,2,97,10,
2,5940,Note_on_c,2,60,10,
2,5940,Note_on_c,2,92,10,
2,5950,Note_off_c,2,97,0,
2,5950,Note_off_c,2,60,0,
2,5950,Note_off_c,2,92,0,
2,5950,Note_on_c,2,97,10,
2,5950,Note_on_c,2,99,10,
2,5950,Note_on_c,2,60,10,
2,5950,Note_on_c,2,92,10,
2,5960,Note_off_c,2,97,0,
2,5960,Note_off_c,2,99,0,
2,5960,Note_off_c,2,60,0,
2,5960,Note_off_c,2,92,0,
2,5960,Note_on_c,2,51,10,
2,5960,Note_on_c,2,99,10,
2,5960,Note_on_c,2,69,10,
2,5960,Note_on_c,2,90,10,
2,5960,Note_on_c,2,60,10,
2,5960,Note_on_c,2,92,10,
2,5960,Note_on_c,2,15,10,
2,5970,Note_off_c,2,51,0,
2,5970,Note_off_c,2,99,0,
2,5970,Note_off_c,2,69,0,
2,5970,Note_off_c,2,90,0,
2,5970,Note_off_c,2,60,0,
2,5970,Note_off_c,2,92,0,
2,5970,Note_off_c,2,15,0,
2,5980,Note_on_c,2,96,10,
2,5980,Note_on_c,2,53,10,
2,5980,Note_on_c,2,102,10,
2,5980,Note_on_c,2,105,10,
2,5980,Note_on_c,2,90,10,
2,5990,Note_off_c,2,96,0,
2,5990,Note_off_c,2,53,0,
2,5990,Note_off_c,2,102,0,
2,5990,Note_off_c,2,105,0,
2,5990,Note_off_c,2,90,0,
2,5990,Note_on_c,2,100,10,
2,5990,Note_on_c,2,90,10,
2,6000,Note_off_c,2,100,0,
2,6000,Note_off_c,2,90,0,
2,6050,Note_on_c,2,90,10,
2,6060,Note_off_c,2,90,0,
2,6070,Note_on_c,2,90,10,
2,6070,Note_on_c,2,95,10,
2,6080,Note_off_c,2,90,0,
2,6080,Note_off_c,2,95,0,
2,6080,Note_on_c,2,85,10,
2,6080,Note_on_c,2,90,10,
2,6080,Note_on_c,2,95,10,
2,6090,Note_off_c,2,85,0,
2,6090,Note_off_c,2,90,0,
2,6090,Note_off_c,2,95,0,
2,6120,Note_on_c,2,93,10,
2,6120,Note_on_c,2,95,10,
2,6130,Note_off_c,2,93,0,
2,6130,Note_off_c,2,95,0,
2,6160,Note_on_c,2,68,10,
2,6170,Note_off_c,2,68,0,
2,6180,Note_on_c,2,68,10,
2,6180,Note_on_c,2,61,10,
2,6190,Note_off_c,2,68,0,
2,6190,Note_off_c,2,61,0,
2,6260,Note_on_c,2,68,10,
2,6260,Note_on_c,2,70,10,
2,6260,Note_on_c,2,61,10,
2,6270,Note_off_c,2,68,0,
2,6270,Note_off_c,2,70,0,
2,6270,Note_off_c,2,61,0,
2,6270,Note_on_c,2,67,10,
2,6270,Note_on_c,2,61,10,
2,6280,Note_off_c,2,67,0,
2,6280,Note_off_c,2,61,0,
2,6300,Note_on_c,2,67,10,
2,6300,Note_on_c,2,68,10,
2,6300,Note_on_c,2,57,10,
2,6310,Note_off_c,2,67,0,
2,6310,Note_off_c,2,68,0,
2,6310,Note_off_c,2,57,0,
2,6370,Note_on_c,2,68,10,
2,6380,Note_off_c,2,68,0,
2,6410,Note_on_c,2,65,10,
2,6410,Note_on_c,2,61,10,
2,6420,Note_off_c,2,65,0,
2,6420,Note_off_c,2,61,0,
2,6430,Note_on_c,2,67,10,
2,6440,Note_off_c,2,67,0,
2,6560,Note_on_c,2,68,10,
2,6570,Note_off_c,2,68,0,
2,6660,Note_on_c,2,69,10,
2,6670,Note_off_c,2,69,0,
2,6710,Note_on_c,2,67,10,
2,6710,Note_on_c,2,69,10,
2,6720,Note_off_c,2,67,0,
2,6720,Note_off_c,2,69,0,
2,6740,Note_on_c,2,64,10,
2,6740,Note_on_c,2,67,10,
2,6740,Note_on_c,2,69,10,
2,6750,Note_off_c,2,64,0,
2,6750,Note_off_c,2,67,0,
2,6750,Note_off_c,2,69,0,
2,6750,Note_on_c,2,64,10,
2,6760,Note_off_c,2,64,0,
2,6800,Note_on_c,2,65,10,
2,6800,Note_on_c,2,61,10,
2,6810,Note_off_c,2,65,0,
2,6810,Note_off_c,2,61,0,
2,6830,Note_on_c,2,64,10,
2,6830,Note_on_c,2,59,10,
2,6830,Note_on_c,2,61,10,
2,6840,Note_off_c,2,64,0,
2,6840,Note_off_c,2,59,0,
2,6840,Note_off_c,2,61,0,
2,6840,Note_on_c,2,64,10,
2,6850,Note_off_c,2,64,0,
2,6850,Note_on_c,2,64,10,
2,6850,Note_on_c,2,62,10,
2,6860,Note_off_c,2,64,0,
2,6860,Note_off_c,2,62,0,
2,6910,Note_on_c,2,64,10,
2,6920,Note_off_c,2,64,0,
2,6950,Note_on_c,2,42,10,
2,6960,Note_off_c,2,42,0,
2,6990,Note_on_c,2,43,10,
2,6990,Note_on_c,2,31,10,
2,7000,Note_off_c,2,43,0,
2,7000,Note_off_c,2,31,0,
2,7000,Note_on_c,2,49,10,
2,7000,Note_on_c,2,39,10,
2,7000,Note_on_c,2,43,10,
2,7010,Note_off_c,2,49,0,
2,7010,Note_off_c,2,39,0,
2,7010,Note_off_c,2,43,0,
2,7010,Note_on_c,2,49,10,
2,7010,Note_on_c,2,39,10,
2,7010,Note_on_c,2,57,10,
2,7010,Note_on_c,2,90,10,
2,7010,Note_on_c,2,43,10,
2,7020,Note_off_c,2,49,0,
2,7020,Note_off_c,2,39,0,
2,7020,Note_off_c,2,57,0,
2,7020,Note_off_c,2,90,0,
2,7020,Note_off_c,2,43,0,
2,7020,Note_on_c,2,49,10,
2,7020,Note_on_c,2,82,10,
2,7020,Note_on_c,2,37,10,
2,7020,Note_on_c,2,69,10,
2,7020,Note_on_c,2,40,10,
2,7020,Note_on_c,2,57,10,
2,7020,Note_on_c,2,61,10,
2,7030,Note_off_c,2,49,0,
2,7030,Note_off_c,2,82,0,
2,7030,Note_off_c,2,37,0,
2,7030,Note_off_c,2,69,0,
2,7030,Note_off_c,2,40,0,
2,7030,Note_off_c,2,57,0,
2,7030,Note_off_c,2,61,0,
2,7030,Note_on_c,2,68,10,
2,7030,Note_on_c,2,57,10,
2,7030,Note_on_c,2,90,10,
2,7030,Note_on_c,2,60,10,
2,7030,Note_on_c,2,92,10,
2,7040,Note_off_c,2,68,0,
2,7040,Note_off_c,2,57,0,
2,7040,Note_off_c,2,90,0,
2,7040,Note_off_c,2,60,0,
2,7040,Note_off_c,2,92,0,
2,7040,Note_on_c,2,66,10,
2,7040,Note_on_c,2,57,10,
2,7040,Note_on_c,2,90,10,
2,7040,Note_on_c,2,60,10,
2,7040,Note_on_c,2,92,10,
2,7040,Note_on_c,2,62,10,
2,7050,Note_off_c,2,66,0,
2,7050,Note_off_c,2,57,0,
2,7050,Note_off_c,2,90,0,
2,7050,Note_off_c,2,60,0,
2,7050,Note_off_c,2,92,0,
2,7050,Note_off_c,2,62,0,
2,7050,Note_on_c,2,96,10,
2,7050,Note_on_c,2,102,10,
2,7050,Note_on_c,2,57,10,
2,7050,Note_on_c,2,59,10,
2,7050,Note_on_c,2,60,10,
2,7060,Note_off_c,2,96,0,
2,7060,Note_off_c,2,102,0,
2,7060,Note_off_c,2,57,0,
2,7060,Note_off_c,2,59,0,
2,7060,Note_off_c,2,60,0,
2,7060,Note_on_c,2,57,10,
2,7060,Note_on_c,2,90,10,
2,7060,Note_on_c,2,91,10,
2,7070,Note_off_c,2,57,0,
2,7070,Note_off_c,2,90,0,
2,7070,Note_off_c,2,91,0,
2,7080,Note_on_c,2,90,10,
2,7080,Note_on_c,2,92,10,
2,7090,Note_off_c,2,90,0,
2,7090,Note_off_c,2,92,0,
2,7100,Note_on_c,2,90,10,
2,7110,Note_off_c,2,90,0,
2,7110,Note_on_c,2,97,10,
2,7110,Note_on_c,2,92,10,
2,7120,Note_off_c,2,97,0,
2,7120,Note_off_c,2,92,0,
2,7130,Note_on_c,2,92,10,
2,7140,Note_off_c,2,92,0,
2,7190,Note_on_c,2,83,10,
2,7190,Note_on_c,2,56,10,
2,7190,Note_on_c,2,91,10,
2,7190,Note_on_c,2,95,10,
2,7200,Note_off_c,2,83,0,
2,7200,Note_off_c,2,56,0,
2,7200,Note_off_c,2,91,0,
2,7200,Note_off_c,2,95,0,
2,7200,Note_on_c,2,67,10,
2,7200,Note_on_c,2,83,10,
2,7200,Note_on_c,2,99,10,
2,7200,Note_on_c,2,91,10,
2,7200,Note_on_c,2,45,10,
2,7200,Note_on_c,2,95,10,
2,7210,Note_off_c,2,67,0,
2,7210,Note_off_c,2,83,0,
2,7210,Note_off_c,2,99,0,
2,7210,Note_off_c,2,91,0,
2,7210,Note_off_c,2,45,0,
2,7210,Note_off_c,2,95,0,
2,7210,Note_on_c,2,97,10,
2,7210,Note_on_c,2,55,10,
2,7210,Note_on_c,2,90,10,
2,7210,Note_on_c,2,91,10,
2,7210,Note_on_c,2,63,10,
2,7220,Note_off_c,2,97,0,
2,7220,Note_off_c,2,55,0,
2,7220,Note_off_c,2,90,0,
2,7220,Note_off_c,2,91,0,
2,7220,Note_off_c,2,63,0,
2,7230,Note_on_c,2,64,10,
2,7230,Note_on_c,2,99,10,
2,7230,Note_on_c,2,53,10,
2,7230,Note_on_c,2,59,10,
2,7230,Note_on_c,2,91,10,
2,7230,Note_on_c,2,95,10,
2,7240,Note_off_c,2,64,0,
2,7240,Note_off_c,2,99,0,
2,7240,Note_off_c,2,53,0,
2,7240,Note_off_c,2,59,0,
2,7240,Note_off_c,2,91,0,
2,7240,Note_off_c,2,95,0,
2,7240,Note_on_c,2,96,10,
2,7240,Note_on_c,2,99,10,
2,7240,Note_on_c,2,52,10,
2,7240,Note_on_c,2,56,10,
2,7240,Note_on_c,2,63,10,
2,7250,Note_off_c,2,96,0,
2,7250,Note_off_c,2,99,0,
2,7250,Note_off_c,2,52,0,
2,7250,Note_off_c,2,56,0,
2,7250,Note_off_c,2,63,0,
2,7250,Note_on_c,2,99,10,
2,7250,Note_on_c,2,53,10,
2,7250,Note_on_c,2,59,10,
2,7250,Note_on_c,2,91,10,
2,7260,Note_off_c,2,99,0,
2,7260,Note_off_c,2,53,0,
2,7260,Note_off_c,2,59,0,
2,7260,Note_off_c,2,91,0,
2,7260,Note_on_c,2,95,10,
2,7270,Note_off_c,2,95,0,
2,7590,Note_on_c,2,86,10,
2,7600,Note_off_c,2,86,0,
2,7640,Note_on_c,2,66,10,
2,7640,Note_on_c,2,87,10,
2,7650,Note_off_c,2,66,0,
2,7650,Note_off_c,2,87,0,
2,7660,Note_on_c,2,87,10,
2,7670,Note_off_c,2,87,0,
2,7960,Note_on_c,2,85,10,
2,7970,Note_off_c,2,85,0,
2,7970,Note_on_c,2,85,10,
2,7970,Note_on_c,2,87,10,
2,7980,Note_off_c,2,85,0,
2,7980,Note_off_c,2,87,0,
2,8030,Note_on_c,2,88,10,
2,8040,Note_off_c,2,88,0,
2,8050,Note_on_c,2,87,10,
2,8050,Note_on_c,2,79,10,
2,8060,Note_off_c,2,87,0,
2,8060,Note_off_c,2,79,0,
2,8070,Note_on_c,2,49,10,
2,8070,Note_on_c,2,58,10,
2,8070,Note_on_c,2,78,10,
2,8080,Note_off_c,2,49,0,
2,8080,Note_off_c,2,58,0,
2,8080,Note_off_c,2,78,0,
2,8130,Note_on_c,2,80,10,
2,8130,Note_on_c,2,49,10,
2,8130,Note_on_c,2,83,10,
2,8130,Note_on_c,2,87,10,
2,8130,Note_on_c,2,75,10,
2,8140,Note_off_c,2,80,0,
2,8140,Note_off_c,2,49,0,
2,8140,Note_off_c,2,83,0,
2,8140,Note_off_c,2,87,0,
2,8140,Note_off_c,2,75,0,
2,8140,Note_on_c,2,80,10,
2,8140,Note_on_c,2,85,10,
2,8140,Note_on_c,2,73,10,
2,8140,Note_on_c,2,59,10,
2,8150,Note_off_c,2,80,0,
2,8150,Note_off_c,2,85,0,
2,8150,Note_off_c,2,73,0,
2,8150,Note_off_c,2,59,0,
2,8160,Note_on_c,2,80,10,
2,8160,Note_on_c,2,87,10,
2,8160,Note_on_c,2,75,10,
2,8170,Note_off_c,2,80,0,
2,8170,Note_off_c,2,87,0,
2,8170,Note_off_c,2,75,0,
2,8170,Note_on_c,2,80,10,
2,8170,Note_on_c,2,75,10,
2,8180,Note_off_c,2,80,0,
2,8180,Note_off_c,2,75,0,
2,8200,Note_on_c,2,50,10,
2,8200,Note_on_c,2,66,10,
2,8200,Note_on_c,2,51,10,
2,8210,Note_off_c,2,50,0,
2,8210,Note_off_c,2,66,0,
2,8210,Note_off_c,2,51,0,
2,8210,Note_on_c,2,64,10,
2,8210,Note_on_c,2,52,10,
2,8210,Note_on_c,2,86,10,
2,8210,Note_on_c,2,60,10,
2,8220,Note_off_c,2,64,0,
2,8220,Note_off_c,2,52,0,
2,8220,Note_off_c,2,86,0,
2,8220,Note_off_c,2,60,0,
2,8220,Note_on_c,2,64,10,
2,8220,Note_on_c,2,52,10,
2,8220,Note_on_c,2,84,10,
2,8220,Note_on_c,2,86,10,
2,8220,Note_on_c,2,60,10,
2,8230,Note_off_c,2,64,0,
2,8230,Note_off_c,2,52,0,
2,8230,Note_off_c,2,84,0,
2,8230,Note_off_c,2,86,0,
2,8230,Note_off_c,2,60,0,
2,8240,Note_on_c,2,85,10,
2,8240,Note_on_c,2,55,10,
2,8240,Note_on_c,2,62,10,
2,8250,Note_off_c,2,85,0,
2,8250,Note_off_c,2,55,0,
2,8250,Note_off_c,2,62,0,
2,8250,Note_on_c,2,85,10,
2,8250,Note_on_c,2,55,10,
2,8250,Note_on_c,2,56,10,
2,8250,Note_on_c,2,62,10,
2,8260,Note_off_c,2,85,0,
2,8260,Note_off_c,2,55,0,
2,8260,Note_off_c,2,56,0,
2,8260,Note_off_c,2,62,0,
2,8300,Note_on_c,2,55,10,
2,8300,Note_on_c,2,59,10,
2,8310,Note_off_c,2,55,0,
2,8310,Note_off_c,2,59,0,
2,8320,Note_on_c,2,59,10,
2,8330,Note_off_c,2,59,0,
2,8500,Note_on_c,2,75,10,
2,8510,Note_off_c,2,75,0,
2,8560,Note_on_c,2,70,10,
2,8570,Note_off_c,2,70,0,
2,8610,Note_on_c,2,51,10,
2,8610,Note_on_c,2,75,10,
2,8610,Note_on_c,2,63,10,
2,8620,Note_off_c,2,51,0,
2,8620,Note_off_c,2,75,0,
2,8620,Note_off_c,2,63,0,
2,8650,Note_on_c,2,80,10,
2,8650,Note_on_c,2,58,10,
2,8660,Note_off_c,2,80,0,
2,8660,Note_off_c,2,58,0,
2,8660,Note_on_c,2,80,10,
2,8670,Note_off_c,2,80,0,
2,8840,Note_on_c,2,96,10,
2,8840,Note_on_c,2,82,10,
2,8840,Note_on_c,2,99,10,
2,8840,Note_on_c,2,68,10,
2,8840,Note_on_c,2,90,10,
2,8850,Note_off_c,2,96,0,
2,8850,Note_off_c,2,82,0,
2,8850,Note_off_c,2,99,0,
2,8850,Note_off_c,2,68,0,
2,8850,Note_off_c,2,90,0,
2,8880,Note_on_c,2,83,10,
2,8880,Note_on_c,2,87,10,
2,8880,Note_on_c,2,57,10,
2,8880,Note_on_c,2,90,10,
2,8880,Note_on_c,2,92,10,
2,8880,Note_on_c,2,95,10,
2,8890,Note_off_c,2,83,0,
2,8890,Note_off_c,2,87,0,
2,8890,Note_off_c,2,57,0,
2,8890,Note_off_c,2,90,0,
2,8890,Note_off_c,2,92,0,
2,8890,Note_off_c,2,95,0,
2,8900,Note_on_c,2,87,10,
2,8900,Note_on_c,2,57,10,
2,8900,Note_on_c,2,90,10,
2,8900,Note_on_c,2,92,10,
2,8900,Note_on_c,2,94,10,
2,8910,Note_off_c,2,87,0,
2,8910,Note_off_c,2,57,0,
2,8910,Note_off_c,2,90,0,
2,8910,Note_off_c,2,92,0,
2,8910,Note_off_c,2,94,0,
2,8910,Note_on_c,2,97,10,
2,8910,Note_on_c,2,82,10,
2,8910,Note_on_c,2,84,10,
2,8910,Note_on_c,2,77,10,
2,8920,Note_off_c,2,97,0,
2,8920,Note_off_c,2,82,0,
2,8920,Note_off_c,2,84,0,
2,8920,Note_off_c,2,77,0,
2,8940,Note_on_c,2,80,10,
2,8940,Note_on_c,2,74,10,
2,8950,Note_off_c,2,80,0,
2,8950,Note_off_c,2,74,0,
2,8950,Note_on_c,2,74,10,
2,8960,Note_off_c,2,74,0,
2,9130,Note_on_c,2,76,10,
2,9140,Note_off_c,2,76,0,
2,9150,Note_on_c,2,67,10,
2,9150,Note_on_c,2,69,10,
2,9160,Note_off_c,2,67,0,
2,9160,Note_off_c,2,69,0,
2,9190,Note_on_c,2,67,10,
2,9200,Note_off_c,2,67,0,
2,9280,Note_on_c,2,57,10,
2,9290,Note_off_c,2,57,0,
2,9290,Note_on_c,2,57,10,
2,9290,Note_on_c,2,47,10,
2,9300,Note_off_c,2,57,0,
2,9300,Note_off_c,2,47,0,
2,9340,Note_on_c,2,57,10,
2,9350,Note_off_c,2,57,0,
2,9560,Note_on_c,2,81,10,
2,9560,Note_on_c,2,68,10,
2,9570,Note_off_c,2,81,0,
2,9570,Note_off_c,2,68,0,
2,9580,Note_on_c,2,68,10,
2,9590,Note_off_c,2,68,0,
2,9620,Note_on_c,2,66,10,
2,9620,Note_on_c,2,69,10,
2,9630,Note_off_c,2,66,0,
2,9630,Note_off_c,2,69,0,
2,9630,Note_on_c,2,66,10,
2,9630,Note_on_c,2,67,10,
2,9630,Note_on_c,2,61,10,
2,9640,Note_off_c,2,66,0,
2,9640,Note_off_c,2,67,0,
2,9640,Note_off_c,2,61,0,
2,9680,Note_on_c,2,67,10,
2,9690,Note_off_c,2,67,0,
2,9700,Note_on_c,2,65,10,
2,9700,Note_on_c,2,68,10,
2,9700,Note_on_c,2,70,10,
2,9700,Note_on_c,2,75,10,
2,9710,Note_off_c,2,65,0,
2,9710,Note_off_c,2,68,0,
2,9710,Note_off_c,2,70,0,
2,9710,Note_off_c,2,75,0,
2,9720,Note_on_c,2,55,10,
2,9720,Note_on_c,2,75,10,
2,9720,Note_on_c,2,61,10,
2,9720,Note_on_c,2,78,10,
2,9720,Note_on_c,2,79,10,
2,9730,Note_off_c,2,55,0,
2,9730,Note_off_c,2,75,0,
2,9730,Note_off_c,2,61,0,
2,9730,Note_off_c,2,78,0,
2,9730,Note_off_c,2,79,0,
2,9740,Note_on_c,2,65,10,
2,9740,Note_on_c,2,81,10,
2,9740,Note_on_c,2,69,10,
2,9740,Note_on_c,2,55,10,
2,9740,Note_on_c,2,71,10,
2,9740,Note_on_c,2,75,10,
2,9740,Note_on_c,2,79,10,
2,9750,Note_off_c,2,65,0,
2,9750,Note_off_c,2,81,0,
2,9750,Note_off_c,2,69,0,
2,9750,Note_off_c,2,55,0,
2,9750,Note_off_c,2,71,0,
2,9750,Note_off_c,2,75,0,
2,9750,Note_off_c,2,79,0,
2,9770,Note_on_c,2,65,10,
2,9770,Note_on_c,2,81,10,
2,9770,Note_on_c,2,55,10,
2,9770,Note_on_c,2,71,10,
2,9770,Note_on_c,2,76,10,
2,9770,Note_on_c,2,79,10,
2,9780,Note_off_c,2,65,0,
2,9780,Note_off_c,2,81,0,
2,9780,Note_off_c,2,55,0,
2,9780,Note_off_c,2,71,0,
2,9780,Note_off_c,2,76,0,
2,9780,Note_off_c,2,79,0,
2,9780,Note_on_c,2,55,10,
2,9780,Note_on_c,2,87,10,
2,9780,Note_on_c,2,88,10,
2,9780,Note_on_c,2,57,10,
2,9780,Note_on_c,2,76,10,
2,9780,Note_on_c,2,61,10,
2,9780,Note_on_c,2,79,10,
2,9790,Note_off_c,2,55,0,
2,9790,Note_off_c,2,87,0,
2,9790,Note_off_c,2,88,0,
2,9790,Note_off_c,2,57,0,
2,9790,Note_off_c,2,76,0,
2,9790,Note_off_c,2,61,0,
2,9790,Note_off_c,2,79,0,
2,9880,Note_on_c,2,77,10,
2,9890,Note_off_c,2,77,0,
2,9910,Note_on_c,2,77,10,
2,9910,Note_on_c,2,78,10,
2,9920,Note_off_c,2,77,0,
2,9920,Note_off_c,2,78,0,
2,9970,Note_on_c,2,78,10,
2,9980,Note_off_c,2,78,0,
2,10040,Note_on_c,2,56,10,
2,10050,Note_off_c,2,56,0,
2,10080,Note_on_c,2,57,10,
2,10080,Note_on_c,2,61,10,
2,10090,Note_off_c,2,57,0,
2,10090,Note_off_c,2,61,0,
2,10090,Note_on_c,2,66,10,
2,10100,Note_off_c,2,66,0,
2,10180,Note_on_c,2,66,10,
2,10190,Note_off_c,2,66,0,
2,10250,Note_on_c,2,70,10,
2,10260,Note_off_c,2,70,0,
2,10260,Note_on_c,2,50,10,
2,10260,Note_on_c,2,73,10,
2,10270,Note_off_c,2,50,0,
2,10270,Note_off_c,2,73,0,
2,10310,Note_on_c,2,50,10,
2,10310,Note_on_c,2,67,10,
2,10310,Note_on_c,2,70,10,
2,10310,Note_on_c,2,63,10,
2,10320,Note_off_c,2,50,0,
2,10320,Note_off_c,2,67,0,
2,10320,Note_off_c,2,70,0,
2,10320,Note_off_c,2,63,0,
2,10430,Note_on_c,2,67,10,
2,10430,Note_on_c,2,53,10,
2,10430,Note_on_c,2,70,10,
2,10440,Note_off_c,2,67,0,
2,10440,Note_off_c,2,53,0,
2,10440,Note_off_c,2,70,0,
2,10440,Note_on_c,2,66,10,
2,10440,Note_on_c,2,53,10,
2,10440,Note_on_c,2,70,10,
2,10440,Note_on_c,2,57,10,
2,10450,Note_off_c,2,66,0,
2,10450,Note_off_c,2,53,0,
2,10450,Note_off_c,2,70,0,
2,10450,Note_off_c,2,57,0,
2,10450,Note_on_c,2,66,10,
2,10450,Note_on_c,2,35,10,
2,10450,Note_on_c,2,70,10,
2,10450,Note_on_c,2,57,10,
2,10450,Note_on_c,2,62,10,
2,10460,Note_off_c,2,66,0,
2,10460,Note_off_c,2,35,0,
2,10460,Note_off_c,2,70,0,
2,10460,Note_off_c,2,57,0,
2,10460,Note_off_c,2,62,0,
2,10460,Note_on_c,2,65,10,
2,10460,Note_on_c,2,69,10,
2,10460,Note_on_c,2,73,10,
2,10460,Note_on_c,2,63,10,
2,10470,Note_off_c,2,65,0,
2,10470,Note_off_c,2,69,0,
2,10470,Note_off_c,2,73,0,
2,10470,Note_off_c,2,63,0,
2,10480,Note_on_c,2,65,10,
2,10480,Note_on_c,2,67,10,
2,10480,Note_on_c,2,69,10,
2,10490,Note_off_c,2,65,0,
2,10490,Note_off_c,2,67,0,
2,10490,Note_off_c,2,69,0,
2,10500,Note_on_c,2,56,10,
2,10500,Note_on_c,2,59,10,
2,10510,Note_off_c,2,56,0,
2,10510,Note_off_c,2,59,0,
2,10550,Note_on_c,2,54,10,
2,10560,Note_off_c,2,54,0,
2,10570,Note_on_c,2,65,10,
2,10570,Note_on_c,2,61,10,
2,10580,Note_off_c,2,65,0,
2,10580,Note_off_c,2,61,0,
2,10580,Note_on_c,2,61,10,
2,10590,Note_off_c,2,61,0,
2,10590,Note_on_c,2,66,10,
2,10590,Note_on_c,2,61,10,
2,10590,Note_on_c,2,63,10,
2,10600,Note_off_c,2,66,0,
2,10600,Note_off_c,2,61,0,
2,10600,Note_off_c,2,63,0,
2,10600,Note_on_c,2,66,10,
2,10600,Note_on_c,2,68,10,
2,10600,Note_on_c,2,61,10,
2,10600,Note_on_c,2,62,10,
2,10600,Note_on_c,2,63,10,
2,10610,Note_off_c,2,66,0,
2,10610,Note_off_c,2,68,0,
2,10610,Note_off_c,2,61,0,
2,10610,Note_off_c,2,62,0,
2,10610,Note_off_c,2,63,0,
2,10610,Note_on_c,2,66,10,
2,10610,Note_on_c,2,68,10,
2,10610,Note_on_c,2,61,10,
2,10610,Note_on_c,2,62,10,
2,10620,Note_off_c,2,66,0,
2,10620,Note_off_c,2,68,0,
2,10620,Note_off_c,2,61,0,
2,10620,Note_off_c,2,62,0,
2,10640,Note_on_c,2,64,10,
2,10640,Note_on_c,2,66,10,
2,10640,Note_on_c,2,47,10,
2,10650,Note_off_c,2,64,0,
2,10650,Note_off_c,2,66,0,
2,10650,Note_off_c,2,47,0,
2,10650,Note_on_c,2,64,10,
2,10650,Note_on_c,2,66,10,
2,10650,Note_on_c,2,56,10,
2,10650,Note_on_c,2,61,10,
2,10650,Note_on_c,2,47,10,
2,10660,Note_off_c,2,64,0,
2,10660,Note_off_c,2,66,0,
2,10660,Note_off_c,2,56,0,
2,10660,Note_off_c,2,61,0,
2,10660,Note_off_c,2,47,0,
2,10660,Note_on_c,2,67,10,
2,10670,Note_off_c,2,67,0,
2,10670,Note_on_c,2,66,10,
2,10670,Note_on_c,2,67,10,
2,10670,Note_on_c,2,69,10,
2,10670,Note_on_c,2,91,10,
2,10670,Note_on_c,2,46,10,
2,10680,Note_off_c,2,66,0,
2,10680,Note_off_c,2,67,0,
2,10680,Note_off_c,2,69,0,
2,10680,Note_off_c,2,91,0,
2,10680,Note_off_c,2,46,0,
2,10680,Note_on_c,2,81,10,
2,10680,Note_on_c,2,66,10,
2,10680,Note_on_c,2,69,10,
2,10680,Note_on_c,2,57,10,
2,10680,Note_on_c,2,76,10,
2,10680,Note_on_c,2,47,10,
2,10690,Note_off_c,2,81,0,
2,10690,Note_off_c,2,66,0,
2,10690,Note_off_c,2,69,0,
2,10690,Note_off_c,2,57,0,
2,10690,Note_off_c,2,76,0,
2,10690,Note_off_c,2,47,0,
2,10690,Note_on_c,2,66,10,
2,10690,Note_on_c,2,68,10,
2,10690,Note_on_c,2,71,10,
2,10690,Note_on_c,2,56,10,
2,10690,Note_on_c,2,57,10,
2,10700,Note_off_c,2,66,0,
2,10700,Note_off_c,2,68,0,
2,10700,Note_off_c,2,71,0,
2,10700,Note_off_c,2,56,0,
2,10700,Note_off_c,2,57,0,
2,10700,Note_on_c,2,65,10,
2,10700,Note_on_c,2,66,10,
2,10700,Note_on_c,2,68,10,
2,10700,Note_on_c,2,71,10,
2,10700,Note_on_c,2,56,10,
2,10700,Note_on_c,2,57,10,
2,10710,Note_off_c,2,65,0,
2,10710,Note_off_c,2,66,0,
2,10710,Note_off_c,2,68,0,
2,10710,Note_off_c,2,71,0,
2,10710,Note_off_c,2,56,0,
2,10710,Note_off_c,2,57,0,
2,10710,Note_on_c,2,66,10,
2,10710,Note_on_c,2,56,10,
2,10710,Note_on_c,2,57,10,
2,10720,Note_off_c,2,66,0,
2,10720,Note_off_c,2,56,0,
2,10720,Note_off_c,2,57,0,
2,10720,Note_on_c,2,57,10,
2,10730,Note_off_c,2,57,0,
2,10730,Note_on_c,2,65,10,
2,10730,Note_on_c,2,68,10,
2,10730,Note_on_c,2,59,10,
2,10730,Note_on_c,2,61,10,
2,10740,Note_off_c,2,65,0,
2,10740,Note_off_c,2,68,0,
2,10740,Note_off_c,2,59,0,
2,10740,Note_off_c,2,61,0,
2,10740,Note_on_c,2,65,10,
2,10740,Note_on_c,2,59,10,
2,10740,Note_on_c,2,61,10,
2,10750,Note_off_c,2,65,0,
2,10750,Note_off_c,2,59,0,
2,10750,Note_off_c,2,61,0,
2,10750,Note_on_c,2,68,10,
2,10750,Note_on_c,2,56,10,
2,10750,Note_on_c,2,59,10,
2,10750,Note_on_c,2,61,10,
2,10760,Note_off_c,2,68,0,
2,10760,Note_off_c,2,56,0,
2,10760,Note_off_c,2,59,0,
2,10760,Note_off_c,2,61,0,
2,10760,Note_on_c,2,59,10,
2,10770,Note_off_c,2,59,0,
2,10780,Note_on_c,2,58,10,
2,10780,Note_on_c,2,46,10,
2,10790,Note_off_c,2,58,0,
2,10790,Note_off_c,2,46,0,
2,10790,Note_on_c,2,68,10,
2,10790,Note_on_c,2,55,10,
2,10790,Note_on_c,2,46,10,
2,10800,Note_off_c,2,68,0,
2,10800,Note_off_c,2,55,0,
2,10800,Note_off_c,2,46,0,
2,10800,Note_on_c,2,66,10,
2,10800,Note_on_c,2,55,10,
2,10800,Note_on_c,2,58,10,
2,10800,Note_on_c,2,46,10,
2,10810,Note_off_c,2,66,0,
2,10810,Note_off_c,2,55,0,
2,10810,Note_off_c,2,58,0,
2,10810,Note_off_c,2,46,0,
2,10810,Note_on_c,2,49,10,
2,10810,Note_on_c,2,65,10,
2,10810,Note_on_c,2,68,10,
2,10810,Note_on_c,2,55,10,
2,10810,Note_on_c,2,46,10,
2,10820,Note_off_c,2,49,0,
2,10820,Note_off_c,2,65,0,
2,10820,Note_off_c,2,68,0,
2,10820,Note_off_c,2,55,0,
2,10820,Note_off_c,2,46,0,
2,10820,Note_on_c,2,65,10,
2,10820,Note_on_c,2,54,10,
2,10820,Note_on_c,2,59,10,
2,10820,Note_on_c,2,45,10,
2,10830,Note_off_c,2,65,0,
2,10830,Note_off_c,2,54,0,
2,10830,Note_off_c,2,59,0,
2,10830,Note_off_c,2,45,0,
2,10840,Note_on_c,2,69,10,
2,10840,Note_on_c,2,55,10,
2,10840,Note_on_c,2,59,10,
2,10850,Note_off_c,2,69,0,
2,10850,Note_off_c,2,55,0,
2,10850,Note_off_c,2,59,0,
2,10860,Note_on_c,2,55,10,
2,10860,Note_on_c,2,59,10,
2,10860,Note_on_c,2,91,10,
2,10860,Note_on_c,2,62,10,
2,10870,Note_off_c,2,55,0,
2,10870,Note_off_c,2,59,0,
2,10870,Note_off_c,2,91,0,
2,10870,Note_off_c,2,62,0,
2,10870,Note_on_c,2,55,10,
2,10870,Note_on_c,2,90,10,
2,10870,Note_on_c,2,92,10,
2,10880,Note_off_c,2,55,0,
2,10880,Note_off_c,2,90,0,
2,10880,Note_off_c,2,92,0,
2,11020,Note_on_c,2,93,10,
2,11030,Note_off_c,2,93,0,
2,11030,Note_on_c,2,97,10,
2,11030,Note_on_c,2,93,10,
2,11030,Note_on_c,2,94,10,
2,11040,Note_off_c,2,97,0,
2,11040,Note_off_c,2,93,0,
2,11040,Note_off_c,2,94,0,
2,11040,Note_on_c,2,97,10,
2,11040,Note_on_c,2,99,10,
2,11040,Note_on_c,2,93,10,
2,11040,Note_on_c,2,94,10,
2,11050,Note_off_c,2,97,0,
2,11050,Note_off_c,2,99,0,
2,11050,Note_off_c,2,93,0,
2,11050,Note_off_c,2,94,0,
2,11080,Note_on_c,2,93,10,
2,11090,Note_off_c,2,93,0,
2,11100,Note_on_c,2,65,10,
2,11100,Note_on_c,2,56,10,
2,11100,Note_on_c,2,59,10,
2,11100,Note_on_c,2,63,10,
2,11110,Note_off_c,2,65,0,
2,11110,Note_off_c,2,56,0,
2,11110,Note_off_c,2,59,0,
2,11110,Note_off_c,2,63,0,
2,11110,Note_on_c,2,65,10,
2,11110,Note_on_c,2,59,10,
2,11110,Note_on_c,2,63,10,
2,11120,Note_off_c,2,65,0,
2,11120,Note_off_c,2,59,0,
2,11120,Note_off_c,2,63,0,
2,11120,Note_on_c,2,65,10,
2,11120,Note_on_c,2,59,10,
2,11130,Note_off_c,2,65,0,
2,11130,Note_off_c,2,59,0,
2,11130,Note_on_c,2,59,10,
2,11140,Note_off_c,2,59,0,
2,11140,Note_on_c,2,59,10,
2,11140,Note_on_c,2,63,10,
2,11150,Note_off_c,2,59,0,
2,11150,Note_off_c,2,63,0,
2,11150,Note_on_c,2,65,10,
2,11150,Note_on_c,2,59,10,
2,11150,Note_on_c,2,63,10,
2,11160,Note_off_c,2,65,0,
2,11160,Note_off_c,2,59,0,
2,11160,Note_off_c,2,63,0,
2,11190,Note_on_c,2,65,10,
2,11190,Note_on_c,2,63,10,
2,11200,Note_off_c,2,65,0,
2,11200,Note_off_c,2,63,0,
2,11240,Note_on_c,2,65,10,
2,11250,Note_off_c,2,65,0,
2,11400,Note_on_c,2,67,10,
2,11410,Note_off_c,2,67,0,
2,11510,Note_on_c,2,66,10,
2,11510,Note_on_c,2,70,10,
2,11510,Note_on_c,2,63,10,
2,11520,Note_off_c,2,66,0,
2,11520,Note_off_c,2,70,0,
2,11520,Note_off_c,2,63,0,
2,11520,Note_on_c,2,70,10,
2,11520,Note_on_c,2,63,10,
2,11530,Note_off_c,2,70,0,
2,11530,Note_off_c,2,63,0,
2,11530,Note_on_c,2,70,10,
2,11540,Note_off_c,2,70,0,
2,11790,Note_on_c,2,73,10,
2,11790,Note_on_c,2,75,10,
2,11790,Note_on_c,2,61,10,
2,11790,Note_on_c,2,78,10,
2,11800,Note_off_c,2,73,0,
2,11800,Note_off_c,2,75,0,
2,11800,Note_off_c,2,61,0,
2,11800,Note_off_c,2,78,0,
2,11800,Note_on_c,2,70,10,
2,11800,Note_on_c,2,73,10,
2,11800,Note_on_c,2,75,10,
2,11800,Note_on_c,2,61,10,
2,11800,Note_on_c,2,78,10,
2,11810,Note_off_c,2,70,0,
2,11810,Note_off_c,2,73,0,
2,11810,Note_off_c,2,75,0,
2,11810,Note_off_c,2,61,0,
2,11810,Note_off_c,2,78,0,
2,11830,Note_on_c,2,51,10,
2,11830,Note_on_c,2,70,10,
2,11830,Note_on_c,2,73,10,
2,11830,Note_on_c,2,61,10,
2,11840,Note_off_c,2,51,0,
2,11840,Note_off_c,2,70,0,
2,11840,Note_off_c,2,73,0,
2,11840,Note_off_c,2,61,0,
2,11840,Note_on_c,2,70,10,
2,11840,Note_on_c,2,61,10,
2,11850,Note_off_c,2,70,0,
2,11850,Note_off_c,2,61,0,
2,11900,Note_on_c,2,78,10,
2,11910,Note_off_c,2,78,0,
2,12000,Note_on_c,2,78,10,
2,12010,Note_off_c,2,78,0,
2,12040,Note_on_c,2,81,10,
2,12040,Note_on_c,2,78,10,
2,12050,Note_off_c,2,81,0,
2,12050,Note_off_c,2,78,0,
2,12050,Note_on_c,2,81,10,
2,12060,Note_off_c,2,81,0,
2,12060,Note_on_c,2,81,10,
2,12060,Note_on_c,2,83,10,
2,12070,Note_off_c,2,81,0,
2,12070,Note_off_c,2,83,0,
2,12080,Note_on_c,2,81,10,
2,12080,Note_on_c,2,68,10,
2,12080,Note_on_c,2,87,10,
2,12080,Note_on_c,2,73,10,
2,12080,Note_on_c,2,62,10,
2,12080,Note_on_c,2,78,10,
2,12090,Note_off_c,2,81,0,
2,12090,Note_off_c,2,68,0,
2,12090,Note_off_c,2,87,0,
2,12090,Note_off_c,2,73,0,
2,12090,Note_off_c,2,62,0,
2,12090,Note_off_c,2,78,0,
2,12110,Note_on_c,2,80,10,
2,12110,Note_on_c,2,83,10,
2,12110,Note_on_c,2,68,10,
2,12110,Note_on_c,2,87,10,
2,12110,Note_on_c,2,62,10,
2,12120,Note_off_c,2,80,0,
2,12120,Note_off_c,2,83,0,
2,12120,Note_off_c,2,68,0,
2,12120,Note_off_c,2,87,0,
2,12120,Note_off_c,2,62,0,
2,12120,Note_on_c,2,82,10,
2,12120,Note_on_c,2,85,10,
2,12130,Note_off_c,2,82,0,
2,12130,Note_off_c,2,85,0,
2,12130,Note_on_c,2,83,10,
2,12130,Note_on_c,2,68,10,
2,12130,Note_on_c,2,85,10,
2,12140,Note_off_c,2,83,0,
2,12140,Note_off_c,2,68,0,
2,12140,Note_off_c,2,85,0,
2,12160,Note_on_c,2,64,10,
2,12160,Note_on_c,2,83,10,
2,12170,Note_off_c,2,64,0,
2,12170,Note_off_c,2,83,0,
2,12170,Note_on_c,2,85,10,
2,12180,Note_off_c,2,85,0,
2,12190,Note_on_c,2,83,10,
2,12190,Note_on_c,2,85,10,
2,12200,Note_off_c,2,83,0,
2,12200,Note_off_c,2,85,0,
2,12200,Note_on_c,2,83,10,
2,12200,Note_on_c,2,85,10,
2,12200,Note_on_c,2,63,10,
2,12210,Note_off_c,2,83,0,
2,12210,Note_off_c,2,85,0,
2,12210,Note_off_c,2,63,0,
2,12210,Note_on_c,2,83,10,
2,12210,Note_on_c,2,63,10,
2,12220,Note_off_c,2,83,0,
2,12220,Note_off_c,2,63,0,
2,12220,Note_on_c,2,87,10,
2,12230,Note_off_c,2,87,0,
2,12400,Note_on_c,2,81,10,
2,12410,Note_off_c,2,81,0,
2,12440,Note_on_c,2,48,10,
2,12440,Note_on_c,2,85,10,
2,12450,Note_off_c,2,48,0,
2,12450,Note_off_c,2,85,0,
2,12510,Note_on_c,2,85,10,
2,12520,Note_off_c,2,85,0,
2,12570,Note_on_c,2,84,10,
2,12580,Note_off_c,2,84,0,
2,12600,Note_on_c,2,82,10,
2,12600,Note_on_c,2,85,10,
2,12610,Note_off_c,2,82,0,
2,12610,Note_off_c,2,85,0,
2,12610,Note_on_c,2,82,10,
2,12620,Note_off_c,2,82,0,
2,12630,Note_on_c,2,82,10,
2,12630,Note_on_c,2,85,10,
2,12640,Note_off_c,2,82,0,
2,12640,Note_off_c,2,85,0,
2,12790,Note_on_c,2,80,10,
2,12800,Note_off_c,2,80,0,
2,12830,Note_on_c,2,85,10,
2,12830,Note_on_c,2,59,10,
2,12830,Note_on_c,2,44,10,
2,12840,Note_off_c,2,85,0,
2,12840,Note_off_c,2,59,0,
2,12840,Note_off_c,2,44,0,
2,12900,Note_on_c,2,97,10,
2,12900,Note_on_c,2,50,10,
2,12900,Note_on_c,2,90,10,
2,12900,Note_on_c,2,91,10,
2,12900,Note_on_c,2,46,10,
2,12910,Note_off_c,2,97,0,
2,12910,Note_off_c,2,50,0,
2,12910,Note_off_c,2,90,0,
2,12910,Note_off_c,2,91,0,
2,12910,Note_off_c,2,46,0,
2,12920,Note_on_c,2,90,10,
2,12920,Note_on_c,2,59,10,
2,12920,Note_on_c,2,91,10,
2,12930,Note_off_c,2,90,0,
2,12930,Note_off_c,2,59,0,
2,12930,Note_off_c,2,91,0,
2,13000,Note_on_c,2,57,10,
2,13000,Note_on_c,2,90,10,
2,13010,Note_off_c,2,57,0,
2,13010,Note_off_c,2,90,0,
2,13030,Note_on_c,2,57,10,
2,13030,Note_on_c,2,90,10,
2,13030,Note_on_c,2,92,10,
2,13040,Note_off_c,2,57,0,
2,13040,Note_off_c,2,90,0,
2,13040,Note_off_c,2,92,0,
2,13060,Note_on_c,2,99,10,
2,13060,Note_on_c,2,152,10,
2,13060,Note_on_c,2,90,10,
2,13060,Note_on_c,2,59,10,
2,13070,Note_off_c,2,99,0,
2,13070,Note_off_c,2,152,0,
2,13070,Note_off_c,2,90,0,
2,13070,Note_off_c,2,59,0,
2,13070,Note_on_c,2,90,10,
2,13070,Note_on_c,2,59,10,
2,13070,Note_on_c,2,92,10,
2,13080,Note_off_c,2,90,0,
2,13080,Note_off_c,2,59,0,
2,13080,Note_off_c,2,92,0,
2,13080,Note_on_c,2,102,10,
2,13080,Note_on_c,2,90,10,
2,13080,Note_on_c,2,59,10,
2,13080,Note_on_c,2,93,10,
2,13090,Note_off_c,2,102,0,
2,13090,Note_off_c,2,90,0,
2,13090,Note_off_c,2,59,0,
2,13090,Note_off_c,2,93,0,
2,13090,Note_on_c,2,90,10,
2,13100,Note_off_c,2,90,0,
2,13110,Note_on_c,2,99,10,
2,13110,Note_on_c,2,93,10,
2,13120,Note_off_c,2,99,0,
2,13120,Note_off_c,2,93,0,
2,13120,Note_on_c,2,62,10,
2,13130,Note_off_c,2,62,0,
2,13160,Note_on_c,2,57,10,
2,13160,Note_on_c,2,62,10,
2,13170,Note_off_c,2,57,0,
2,13170,Note_off_c,2,62,0,
2,13210,Note_on_c,2,82,10,
2,13210,Note_on_c,2,57,10,
2,13210,Note_on_c,2,62,10,
2,13220,Note_off_c,2,82,0,
2,13220,Note_off_c,2,57,0,
2,13220,Note_off_c,2,62,0,
2,13220,Note_on_c,2,57,10,
2,13230,Note_off_c,2,57,0,
2,13230,Note_on_c,2,83,10,
2,13230,Note_on_c,2,62,10,
2,13240,Note_off_c,2,83,0,
2,13240,Note_off_c,2,62,0,
2,13270,Note_on_c,2,62,10,
2,13280,Note_off_c,2,62,0,
2,13300,Note_on_c,2,57,10,
2,13300,Note_on_c,2,58,10,
2,13310,Note_off_c,2,57,0,
2,13310,Note_off_c,2,58,0,
2,13310,Note_on_c,2,55,10,
2,13310,Note_on_c,2,57,10,
2,13310,Note_on_c,2,58,10,
2,13320,Note_off_c,2,55,0,
2,13320,Note_off_c,2,57,0,
2,13320,Note_off_c,2,58,0,
2,13330,Note_on_c,2,65,10,
2,13330,Note_on_c,2,57,10,
2,13330,Note_on_c,2,59,10,
2,13330,Note_on_c,2,75,10,
2,13340,Note_off_c,2,65,0,
2,13340,Note_off_c,2,57,0,
2,13340,Note_off_c,2,59,0,
2,13340,Note_off_c,2,75,0,
2,13350,Note_on_c,2,65,10,
2,13350,Note_on_c,2,68,10,
2,13350,Note_on_c,2,59,10,
2,13360,Note_off_c,2,65,0,
2,13360,Note_off_c,2,68,0,
2,13360,Note_off_c,2,59,0,
2,13720,Note_on_c,2,68,10,
2,13730,Note_off_c,2,68,0,
2,13730,Note_on_c,2,64,10,
2,13730,Note_on_c,2,71,10,
2,13740,Note_off_c,2,64,0,
2,13740,Note_off_c,2,71,0,
2,13870,Note_on_c,2,64,10,
2,13880,Note_off_c,2,64,0,
2,13880,Note_on_c,2,64,10,
2,13880,Note_on_c,2,63,10,
2,13890,Note_off_c,2,64,0,
2,13890,Note_off_c,2,63,0,
2,13900,Note_on_c,2,63,10,
2,13910,Note_off_c,2,63,0,
2,13910,Note_on_c,2,66,10,
2,13910,Note_on_c,2,63,10,
2,13920,Note_off_c,2,66,0,
2,13920,Note_off_c,2,63,0,
2,13970,Note_on_c,2,63,10,
2,13980,Note_off_c,2,63,0,
2,14040,Note_on_c,2,68,10,
2,14040,Note_on_c,2,63,10,
2,14050,Note_off_c,2,68,0,
2,14050,Note_off_c,2,63,0,
2,14060,Note_on_c,2,68,10,
2,14060,Note_on_c,2,53,10,
2,14060,Note_on_c,2,75,10,
2,14060,Note_on_c,2,63,10,
2,14070,Note_off_c,2,68,0,
2,14070,Note_off_c,2,53,0,
2,14070,Note_off_c,2,75,0,
2,14070,Note_off_c,2,63,0,
2,14070,Note_on_c,2,68,10,
2,14070,Note_on_c,2,63,10,
2,14080,Note_off_c,2,68,0,
2,14080,Note_off_c,2,63,0,
2,14230,Note_on_c,2,63,10,
2,14240,Note_off_c,2,63,0,
2,14350,Note_on_c,2,59,10,
2,14360,Note_off_c,2,59,0,
2,14420,Note_on_c,2,67,10,
2,14420,Note_on_c,2,62,10,
2,14430,Note_off_c,2,67,0,
2,14430,Note_off_c,2,62,0,
2,14440,Note_on_c,2,72,10,
2,14450,Note_off_c,2,72,0,
2,14450,Note_on_c,2,72,10,
2,14450,Note_on_c,2,73,10,
2,14460,Note_off_c,2,72,0,
2,14460,Note_off_c,2,73,0,
2,14470,Note_on_c,2,73,10,
2,14480,Note_off_c,2,73,0,
2,14480,Note_on_c,2,66,10,
2,14480,Note_on_c,2,73,10,
2,14490,Note_off_c,2,66,0,
2,14490,Note_off_c,2,73,0,
2,14570,Note_on_c,2,50,10,
2,14570,Note_on_c,2,66,10,
2,14570,Note_on_c,2,60,10,
2,14570,Note_on_c,2,63,10,
2,14580,Note_off_c,2,50,0,
2,14580,Note_off_c,2,66,0,
2,14580,Note_off_c,2,60,0,
2,14580,Note_off_c,2,63,0,
2,14580,Note_on_c,2,66,10,
2,14580,Note_on_c,2,60,10,
2,14580,Note_on_c,2,63,10,
2,14590,Note_off_c,2,66,0,
2,14590,Note_off_c,2,60,0,
2,14590,Note_off_c,2,63,0,
2,14600,Note_on_c,2,66,10,
2,14610,Note_off_c,2,66,0,
2,14620,Note_on_c,2,66,10,
2,14620,Note_on_c,2,61,10,
2,14630,Note_off_c,2,66,0,
2,14630,Note_off_c,2,61,0,
2,14640,Note_on_c,2,66,10,
2,14650,Note_off_c,2,66,0,
2,14720,Note_on_c,2,66,10,
2,14720,Note_on_c,2,60,10,
2,14730,Note_off_c,2,66,0,
2,14730,Note_off_c,2,60,0,
2,14730,Note_on_c,2,90,10,
2,14740,Note_off_c,2,90,0,
2,14740,Note_on_c,2,80,10,
2,14740,Note_on_c,2,69,10,
2,14750,Note_off_c,2,80,0,
2,14750,Note_off_c,2,69,0,
2,14750,Note_on_c,2,68,10,
2,14750,Note_on_c,2,90,10,
2,14750,Note_on_c,2,59,10,
2,14760,Note_off_c,2,68,0,
2,14760,Note_off_c,2,90,0,
2,14760,Note_off_c,2,59,0,
2,14780,Note_on_c,2,65,10,
2,14780,Note_on_c,2,69,10,
2,14780,Note_on_c,2,59,10,
2,14780,Note_on_c,2,61,10,
2,14790,Note_off_c,2,65,0,
2,14790,Note_off_c,2,69,0,
2,14790,Note_off_c,2,59,0,
2,14790,Note_off_c,2,61,0,
2,14790,Note_on_c,2,65,10,
2,14790,Note_on_c,2,59,10,
2,14790,Note_on_c,2,61,10,
2,14800,Note_off_c,2,65,0,
2,14800,Note_off_c,2,59,0,
2,14800,Note_off_c,2,61,0,
2,14800,Note_on_c,2,59,10,
2,14800,Note_on_c,2,61,10,
2,14810,Note_off_c,2,59,0,
2,14810,Note_off_c,2,61,0,
2,14960,Note_on_c,2,61,10,
2,14970,Note_off_c,2,61,0,
2,15030,Note_on_c,2,66,10,
2,15030,Note_on_c,2,61,10,
2,15040,Note_off_c,2,66,0,
2,15040,Note_off_c,2,61,0,
2,15060,Note_on_c,2,66,10,
2,15060,Note_on_c,2,69,10,
2,15060,Note_on_c,2,61,10,
2,15070,Note_off_c,2,66,0,
2,15070,Note_off_c,2,69,0,
2,15070,Note_off_c,2,61,0,
