2,2980, Note_on_c,2,74,50,
2,6196, Note_on_c,2,77,199,
2,6196, Note_on_c,2,57,40,
2,6196, Note_on_c,2,65,99,
2,6196, Note_on_c,2,41,95,
2,6196, Note_on_c,2,51,50,
2,3340, Note_on_c,2,75,80,
2,3340, Note_on_c,2,72,70,
2,3340, Note_on_c,2,67,50,
2,7138, Note_on_c,2,65,60,
2,7138, Note_on_c,2,74,138,
2,3570, Note_on_c,2,70,70,
2,3690, Note_on_c,2,72,157,
2,7396, Note_on_c,2,67,40,
2,7396, Note_on_c,2,69,136,
2,3830, Note_on_c,2,74,157,
2,3830, Note_on_c,2,67,138,
2,7676, Note_on_c,2,70,80,
2,4220, Note_on_c,2,75,70,
2,8458, Note_on_c,2,70,135,
2,4230, Note_on_c,2,42,70,
2,4230, Note_on_c,2,66,139,
2,4230, Note_on_c,2,58,119,
2,8496, Note_on_c,2,63,50,
2,9098, Note_on_c,2,41,50,
2,4570, Note_on_c,2,48,138,
2,4600, Note_on_c,2,56,116,
2,9216, Note_on_c,2,55,118,
2,9238, Note_on_c,2,63,70,
2,9276, Note_on_c,2,67,137,
2,4640, Note_on_c,2,70,179,
2,9738, Note_on_c,2,70,177,
2,10016, Note_on_c,2,70,90,
2,10496, Note_on_c,2,70,138,
2,5370, Note_on_c,2,59,137,
2,5370, Note_on_c,2,70,70,
2,5370, Note_on_c,2,61,156,
2,5370, Note_on_c,2,47,60,
2,5370, Note_on_c,2,66,156,
2,5370, Note_on_c,2,40,60,
2,5630, Note_on_c,2,61,158,
2,5630, Note_on_c,2,70,70,
2,5630, Note_on_c,2,66,157,
2,5630, Note_on_c,2,73,157,
2,5640, Note_on_c,2,47,119,
2,5640, Note_on_c,2,40,116,
2,5890, Note_on_c,2,70,70,
2,11996, Note_on_c,2,68,97,
2,6120, Note_on_c,2,70,138,
2,12258, Note_on_c,2,65,136,
2,12258, Note_on_c,2,39,118,
2,6130, Note_on_c,2,46,118,
2,6130, Note_on_c,2,60,117,
2,6640, Note_on_c,2,60,50,
2,13476, Note_on_c,2,65,50,
2,6790, Note_on_c,2,67,78,
2,13658, Note_on_c,2,70,178,
2,13816, Note_on_c,2,38,135,
2,13818, Note_on_c,2,71,159,
2,14238, Note_on_c,2,64,137,
2,7120, Note_on_c,2,54,60,
2,7300, Note_on_c,2,68,139,
2,7300, Note_on_c,2,60,117,
2,14978, Note_on_c,2,71,138,
2,14978, Note_on_c,2,64,156,
2,15358, Note_on_c,2,37,60,
2,15358, Note_on_c,2,70,175,
2,15358, Note_on_c,2,44,137,
2,7680, Note_on_c,2,59,136,
2,15756, Note_on_c,2,63,70,
2,16118, Note_on_c,2,59,118,
2,8060, Note_on_c,2,65,136,
2,8060, Note_on_c,2,53,98,
2,8250, Note_on_c,2,63,70,
2,16516, Note_on_c,2,68,60,
2,8380, Note_on_c,2,36,138,
2,16856, Note_on_c,2,43,50,
2,8450, Note_on_c,2,52,155,
2,8470, Note_on_c,2,58,98,
2,17018, Note_on_c,2,61,155,
2,17098, Note_on_c,2,64,115,
2,17176, Note_on_c,2,67,195,
2,17218, Note_on_c,2,69,117,
2,8640, Note_on_c,2,70,60,
2,17336, Note_on_c,2,73,118,
2,8710, Note_on_c,2,76,60,
2,17498, Note_on_c,2,81,60,
2,17536, Note_on_c,2,82,60,
2,17578, Note_on_c,2,85,80,
2,8820, Note_on_c,2,93,159,
2,17656, Note_on_c,2,88,59,
2,18218, Note_on_c,2,79,100,
2,9110, Note_on_c,2,67,216,
2,18438, Note_on_c,2,41,60,
2,9220, Note_on_c,2,68,118,
2,9230, Note_on_c,2,56,117,
2,18498, Note_on_c,2,72,40,
2,18498, Note_on_c,2,75,70,
2,9250, Note_on_c,2,80,159,
2,9490, Note_on_c,2,72,80,
2,9490, Note_on_c,2,67,80,
2,18998, Note_on_c,2,79,176,
2,18998, Note_on_c,2,75,90,
2,9630, Note_on_c,2,60,60,
2,9630, Note_on_c,2,53,118,
2,9630, Note_on_c,2,56,60,
2,19476, Note_on_c,2,65,137,
2,19476, Note_on_c,2,77,116,
2,19478, Note_on_c,2,72,118,
2,9860, Note_on_c,2,63,136,
2,9860, Note_on_c,2,75,138,
2,19938, Note_on_c,2,46,60,
2,19956, Note_on_c,2,65,50,
2,19956, Note_on_c,2,56,60,
2,9990, Note_on_c,2,77,60,
2,20738, Note_on_c,2,36,138,
2,10370, Note_on_c,2,52,136,
2,10630, Note_on_c,2,67,110,
2,10630, Note_on_c,2,79,219,
2,10770, Note_on_c,2,70,158,
2,10770, Note_on_c,2,58,176,
2,10780, Note_on_c,2,73,158,
2,10790, Note_on_c,2,76,117,
2,10790, Note_on_c,2,82,80,
2,22038, Note_on_c,2,68,157,
2,11020, Note_on_c,2,72,60,
2,22056, Note_on_c,2,75,177,
2,11030, Note_on_c,2,80,90,
2,11140, Note_on_c,2,43,70,
2,11150, Note_on_c,2,52,138,
2,22316, Note_on_c,2,67,60,
2,11160, Note_on_c,2,72,117,
2,11160, Note_on_c,2,75,138,
2,22336, Note_on_c,2,79,80,
2,11380, Note_on_c,2,65,60,
2,22776, Note_on_c,2,77,60,
2,22996, Note_on_c,2,41,60,
2,11500, Note_on_c,2,50,60,
2,11510, Note_on_c,2,68,60,
2,11510, Note_on_c,2,56,70,
2,23056, Note_on_c,2,72,40,
2,11530, Note_on_c,2,74,60,
2,11530, Note_on_c,2,80,159,
2,11890, Note_on_c,2,56,119,
2,23796, Note_on_c,2,53,50,
2,23796, Note_on_c,2,58,118,
2,23796, Note_on_c,2,62,50,
2,12150, Note_on_c,2,70,120,
2,12260, Note_on_c,2,72,70,
2,24578, Note_on_c,2,73,99,
2,12310, Note_on_c,2,46,118,
2,12310, Note_on_c,2,39,136,
2,12320, Note_on_c,2,74,80,
2,12350, Note_on_c,2,75,139,
2,12680, Note_on_c,2,55,99,
2,25376, Note_on_c,2,60,60,
2,25378, Note_on_c,2,58,158,
2,25576, Note_on_c,2,74,110,
2,12880, Note_on_c,2,72,156,
2,12960, Note_on_c,2,70,177,
2,13040, Note_on_c,2,70,70,
2,13040, Note_on_c,2,56,70,
2,26098, Note_on_c,2,41,118,
2,26116, Note_on_c,2,71,138,
2,26156, Note_on_c,2,72,70,
2,13220, Note_on_c,2,71,78,
2,26498, Note_on_c,2,72,60,
2,26838, Note_on_c,2,42,90,
2,13820, Note_on_c,2,43,60,
2,13820, Note_on_c,2,58,138,
2,13820, Note_on_c,2,62,118,
2,13820, Note_on_c,2,65,70,
2,28178, Note_on_c,2,70,80,
2,14210, Note_on_c,2,37,155,
2,28436, Note_on_c,2,44,155,
2,28436, Note_on_c,2,65,118,
2,28438, Note_on_c,2,63,117,
2,14470, Note_on_c,2,72,139,
2,28956, Note_on_c,2,68,136,
2,28958, Note_on_c,2,64,136,
2,14480, Note_on_c,2,61,60,
2,14610, Note_on_c,2,36,137,
2,14610, Note_on_c,2,52,119,
2,14850, Note_on_c,2,84,138,
2,14850, Note_on_c,2,80,70,
2,14850, Note_on_c,2,76,60,
2,29716, Note_on_c,2,73,118,
2,14980, Note_on_c,2,42,70,
2,14980, Note_on_c,2,58,60,
2,29978, Note_on_c,2,52,60,
2,15240, Note_on_c,2,81,100,
2,15240, Note_on_c,2,86,100,
2,15240, Note_on_c,2,74,216,
2,30496, Note_on_c,2,79,90,
2,30498, Note_on_c,2,84,175,
2,15390, Note_on_c,2,41,60,
2,15390, Note_on_c,2,51,138,
2,15390, Note_on_c,2,83,70,
2,15390, Note_on_c,2,89,178,
2,15390, Note_on_c,2,57,60,
2,30798, Note_on_c,2,77,60,
2,31258, Note_on_c,2,87,198,
2,31258, Note_on_c,2,83,70,
2,31258, Note_on_c,2,75,195,
2,31518, Note_on_c,2,73,118,
2,15760, Note_on_c,2,60,98,
2,15760, Note_on_c,2,55,50,
2,15760, Note_on_c,2,79,99,
2,15760, Note_on_c,2,58,70,
2,15780, Note_on_c,2,86,116,
2,15800, Note_on_c,2,74,139,
2,31998, Note_on_c,2,72,117,
2,16000, Note_on_c,2,84,50,
2,16000, Note_on_c,2,79,50,
2,32258, Note_on_c,2,58,137,
2,32258, Note_on_c,2,86,70,
2,32258, Note_on_c,2,79,60,
2,32258, Note_on_c,2,48,60,
2,16130, Note_on_c,2,74,60,
2,16370, Note_on_c,2,75,30,
2,32778, Note_on_c,2,78,116,
2,16390, Note_on_c,2,82,116,
2,16400, Note_on_c,2,87,138,
2,33038, Note_on_c,2,42,60,
2,16520, Note_on_c,2,58,96,
2,16530, Note_on_c,2,52,119,
2,16750, Note_on_c,2,70,40,
2,16770, Note_on_c,2,75,116,
2,33576, Note_on_c,2,79,79,
2,16790, Note_on_c,2,82,137,
2,33816, Note_on_c,2,41,115,
2,16910, Note_on_c,2,56,50,
2,33836, Note_on_c,2,48,60,
2,34556, Note_on_c,2,47,119,
2,34556, Note_on_c,2,57,117,
2,34556, Note_on_c,2,51,60,
2,35358, Note_on_c,2,56,60,
2,17680, Note_on_c,2,46,70,
2,17680, Note_on_c,2,67,217,
2,17680, Note_on_c,2,63,136,
2,35858, Note_on_c,2,68,199,
2,36118, Note_on_c,2,56,60,
2,18060, Note_on_c,2,62,50,
2,18060, Note_on_c,2,69,157,
2,36596, Note_on_c,2,70,70,
2,36598, Note_on_c,2,65,117,
2,36858, Note_on_c,2,43,96,
2,36858, Note_on_c,2,58,60,
2,18810, Note_on_c,2,55,96,
2,18810, Note_on_c,2,65,97,
2,18810, Note_on_c,2,58,135,
2,18810, Note_on_c,2,61,115,
2,38156, Note_on_c,2,85,178,
2,38158, Note_on_c,2,82,80,
2,19080, Note_on_c,2,77,157,
2,19090, Note_on_c,2,73,80,
2,19210, Note_on_c,2,37,158,
2,19440, Note_on_c,2,70,90,
2,19440, Note_on_c,2,63,100,
2,38896, Note_on_c,2,59,80,
2,39176, Note_on_c,2,53,119,
2,39176, Note_on_c,2,49,156,
2,19820, Note_on_c,2,82,70,
2,19830, Note_on_c,2,78,80,
2,39678, Note_on_c,2,73,158,
2,39716, Note_on_c,2,70,60,
2,19970, Note_on_c,2,52,60,
2,19970, Note_on_c,2,36,60,
2,40698, Note_on_c,2,58,116,
2,20350, Note_on_c,2,94,100,
2,20350, Note_on_c,2,48,115,
2,40716, Note_on_c,2,52,117,
2,40896, Note_on_c,2,92,80,
2,20530, Note_on_c,2,90,90,
2,20620, Note_on_c,2,90,178,
2,20670, Note_on_c,2,87,178,
2,20720, Note_on_c,2,85,176,
2,20740, Note_on_c,2,58,70,
2,20740, Note_on_c,2,61,119,
2,20740, Note_on_c,2,52,60,
2,41618, Note_on_c,2,82,155,
2,41738, Note_on_c,2,80,139,
2,41816, Note_on_c,2,78,80,
2,41916, Note_on_c,2,75,80,
2,21000, Note_on_c,2,73,70,
2,21060, Note_on_c,2,70,139,
2,21100, Note_on_c,2,56,137,
2,42216, Note_on_c,2,68,155,
2,42318, Note_on_c,2,66,70,
2,21210, Note_on_c,2,63,60,
2,42516, Note_on_c,2,61,70,
2,42596, Note_on_c,2,58,159,
2,42718, Note_on_c,2,56,138,
2,42816, Note_on_c,2,55,135,
2,42936, Note_on_c,2,54,137,
2,21490, Note_on_c,2,41,50,
2,42996, Note_on_c,2,51,136,
2,21510, Note_on_c,2,53,137,
2,43716, Note_on_c,2,68,70,
2,43736, Note_on_c,2,56,99,
2,43758, Note_on_c,2,60,99,
2,43778, Note_on_c,2,63,80,
2,43778, Note_on_c,2,72,70,
2,21890, Note_on_c,2,65,80,
2,43796, Note_on_c,2,75,90,
2,21900, Note_on_c,2,80,100,
2,44038, Note_on_c,2,67,70,
2,22020, Note_on_c,2,72,60,
2,22020, Note_on_c,2,75,177,
2,22030, Note_on_c,2,79,90,
2,44276, Note_on_c,2,72,70,
2,44278, Note_on_c,2,65,80,
2,22140, Note_on_c,2,77,80,
2,22250, Note_on_c,2,72,70,
2,44516, Note_on_c,2,67,137,
2,44516, Note_on_c,2,56,80,
2,44518, Note_on_c,2,46,177,
2,22260, Note_on_c,2,79,80,
2,45018, Note_on_c,2,68,50,
2,22520, Note_on_c,2,72,70,
2,45056, Note_on_c,2,74,80,
2,22530, Note_on_c,2,80,90,
2,22660, Note_on_c,2,56,157,
2,45338, Note_on_c,2,62,139,
2,22670, Note_on_c,2,65,70,
2,22910, Note_on_c,2,81,176,
2,22910, Note_on_c,2,73,100,
2,45836, Note_on_c,2,76,90,
2,45836, Note_on_c,2,69,90,
2,23010, Note_on_c,2,43,70,
2,46096, Note_on_c,2,52,70,
2,23050, Note_on_c,2,70,70,
2,46118, Note_on_c,2,58,80,
2,23060, Note_on_c,2,73,80,
2,46136, Note_on_c,2,76,80,
2,23070, Note_on_c,2,82,100,
2,23310, Note_on_c,2,76,178,
2,23310, Note_on_c,2,84,90,
2,23310, Note_on_c,2,80,90,
2,23310, Note_on_c,2,72,90,
2,23430, Note_on_c,2,55,138,
2,23430, Note_on_c,2,61,158,
2,46876, Note_on_c,2,64,70,
2,46878, Note_on_c,2,58,177,
2,23440, Note_on_c,2,73,178,
2,23440, Note_on_c,2,80,80,
2,23440, Note_on_c,2,85,199,
2,23440, Note_on_c,2,76,70,
2,47356, Note_on_c,2,72,100,
2,47358, Note_on_c,2,77,100,
2,23680, Note_on_c,2,80,100,
2,23680, Note_on_c,2,84,199,
2,23770, Note_on_c,2,72,115,
2,23800, Note_on_c,2,41,60,
2,47616, Note_on_c,2,56,60,
2,47616, Note_on_c,2,80,139,
2,47618, Note_on_c,2,84,30,
2,47618, Note_on_c,2,50,138,
2,47696, Note_on_c,2,72,116,
2,47776, Note_on_c,2,80,60,
2,47796, Note_on_c,2,84,30,
2,47858, Note_on_c,2,72,50,
2,23960, Note_on_c,2,80,136,
2,47958, Note_on_c,2,84,56,
2,48016, Note_on_c,2,72,50,
2,24040, Note_on_c,2,80,60,
2,24080, Note_on_c,2,72,115,
2,24110, Note_on_c,2,80,70,
2,24120, Note_on_c,2,84,40,
2,24150, Note_on_c,2,72,40,
2,48378, Note_on_c,2,58,70,
2,48378, Note_on_c,2,62,118,
2,48378, Note_on_c,2,56,70,
2,48378, Note_on_c,2,53,60,
2,24420, Note_on_c,2,70,110,
2,49036, Note_on_c,2,72,138,
2,24550, Note_on_c,2,73,80,
2,49158, Note_on_c,2,74,157,
2,24600, Note_on_c,2,46,70,
2,49216, Note_on_c,2,39,155,
2,24610, Note_on_c,2,75,100,
2,49958, Note_on_c,2,55,60,
2,24980, Note_on_c,2,60,139,
2,24980, Note_on_c,2,65,100,
2,24980, Note_on_c,2,74,199,
2,24980, Note_on_c,2,58,175,
2,24980, Note_on_c,2,70,216,
2,25120, Note_on_c,2,72,175,
2,25220, Note_on_c,2,70,196,
2,50658, Note_on_c,2,72,158,
2,25330, Note_on_c,2,67,155,
2,25330, Note_on_c,2,68,80,
2,25330, Note_on_c,2,56,158,
2,25330, Note_on_c,2,41,70,
2,25590, Note_on_c,2,80,176,
2,25600, Note_on_c,2,75,80,
2,25600, Note_on_c,2,72,139,
2,25610, Note_on_c,2,68,80,
2,25730, Note_on_c,2,60,60,
2,25730, Note_on_c,2,53,60,
2,25730, Note_on_c,2,56,70,
2,26000, Note_on_c,2,78,216,
2,52258, Note_on_c,2,57,60,
2,52258, Note_on_c,2,42,155,
2,26130, Note_on_c,2,81,138,
2,26130, Note_on_c,2,75,60,
2,26130, Note_on_c,2,69,118,
2,26130, Note_on_c,2,72,135,
2,26380, Note_on_c,2,70,178,
2,26380, Note_on_c,2,82,90,
2,26500, Note_on_c,2,60,117,
2,53016, Note_on_c,2,54,70,
2,53018, Note_on_c,2,57,137,
2,26510, Note_on_c,2,84,159,
2,53036, Note_on_c,2,72,139,
2,26750, Note_on_c,2,82,158,
2,26750, Note_on_c,2,73,80,
2,53518, Note_on_c,2,79,117,
2,26760, Note_on_c,2,86,70,
2,26770, Note_on_c,2,74,176,
2,53778, Note_on_c,2,43,137,
2,53778, Note_on_c,2,58,155,
2,27130, Note_on_c,2,42,100,
2,27260, Note_on_c,2,58,179,
2,27270, Note_on_c,2,52,156,
2,27520, Note_on_c,2,86,120,
2,55298, Note_on_c,2,41,60,
2,27650, Note_on_c,2,57,60,
2,27650, Note_on_c,2,51,70,
2,27660, Note_on_c,2,89,90,
2,27660, Note_on_c,2,77,156,
2,27900, Note_on_c,2,87,216,
2,55816, Note_on_c,2,75,100,
2,55818, Note_on_c,2,82,197,
2,56076, Note_on_c,2,51,136,
2,56076, Note_on_c,2,43,50,
2,56076, Note_on_c,2,58,60,
2,56076, Note_on_c,2,85,157,
2,28040, Note_on_c,2,74,70,
2,28070, Note_on_c,2,86,99,
2,56578, Note_on_c,2,84,157,
2,28290, Note_on_c,2,72,70,
2,28420, Note_on_c,2,57,60,
2,56856, Note_on_c,2,41,50,
2,56858, Note_on_c,2,51,119,
2,28430, Note_on_c,2,86,159,
2,28430, Note_on_c,2,74,70,
2,28660, Note_on_c,2,75,136,
2,28670, Note_on_c,2,80,135,
2,57356, Note_on_c,2,82,70,
2,28680, Note_on_c,2,87,80,
2,57598, Note_on_c,2,42,70,
2,28800, Note_on_c,2,58,97,
2,57618, Note_on_c,2,52,60,
2,29050, Note_on_c,2,79,80,
2,29180, Note_on_c,2,82,159,
2,29180, Note_on_c,2,56,60,
2,29180, Note_on_c,2,70,138,
2,29180, Note_on_c,2,41,60,
2,58376, Note_on_c,2,75,139,
2,58858, Note_on_c,2,79,139,
2,29570, Note_on_c,2,48,159,
2,59156, Note_on_c,2,75,197,
2,59658, Note_on_c,2,73,195,
2,29950, Note_on_c,2,56,136,
2,29950, Note_on_c,2,46,70,
2,59916, Note_on_c,2,71,60,
2,59916, Note_on_c,2,74,70,
2,30210, Note_on_c,2,82,216,
2,30330, Note_on_c,2,56,70,
2,30330, Note_on_c,2,62,70,
2,30340, Note_on_c,2,78,178,
2,60938, Note_on_c,2,79,97,
2,30590, Note_on_c,2,75,198,
2,61438, Note_on_c,2,46,70,
2,61438, Note_on_c,2,39,157,
2,61838, Note_on_c,2,75,99,
2,30940, Note_on_c,2,77,98,
2,61956, Note_on_c,2,75,60,
2,62016, Note_on_c,2,72,60,
2,62116, Note_on_c,2,75,70,
2,31080, Note_on_c,2,77,135,
2,62236, Note_on_c,2,75,137,
2,31120, Note_on_c,2,60,50,
2,31120, Note_on_c,2,58,136,
2,31150, Note_on_c,2,72,60,
2,31210, Note_on_c,2,75,118,
2,62478, Note_on_c,2,77,138,
2,62556, Note_on_c,2,75,99,
2,31310, Note_on_c,2,72,136,
2,31360, Note_on_c,2,75,60,
2,62778, Note_on_c,2,77,60,
2,31420, Note_on_c,2,75,50,
2,31460, Note_on_c,2,72,60,
2,62976, Note_on_c,2,57,50,
2,62978, Note_on_c,2,47,97,
2,63056, Note_on_c,2,75,95,
2,31550, Note_on_c,2,77,137,
2,31600, Note_on_c,2,75,119,
2,31640, Note_on_c,2,72,118,
2,31690, Note_on_c,2,75,60,
2,31720, Note_on_c,2,77,60,
2,63516, Note_on_c,2,75,50,
2,31790, Note_on_c,2,72,139,
2,63696, Note_on_c,2,66,136,
2,31850, Note_on_c,2,61,70,
2,31850, Note_on_c,2,57,96,
2,31850, Note_on_c,2,62,135,
2,31850, Note_on_c,2,75,60,
2,63756, Note_on_c,2,77,139,
2,31920, Note_on_c,2,75,60,
2,31960, Note_on_c,2,72,135,
2,32010, Note_on_c,2,75,139,
2,32040, Note_on_c,2,77,70,
2,64176, Note_on_c,2,75,119,
2,32120, Note_on_c,2,72,135,
2,64338, Note_on_c,2,75,139,
2,64398, Note_on_c,2,77,139,
2,32230, Note_on_c,2,75,118,
2,32250, Note_on_c,2,56,70,
2,32250, Note_on_c,2,46,155,
2,64536, Note_on_c,2,72,157,
2,32330, Note_on_c,2,75,137,
2,32360, Note_on_c,2,77,70,
2,32390, Note_on_c,2,75,60,
2,32440, Note_on_c,2,72,138,
2,64978, Note_on_c,2,75,60,
2,32520, Note_on_c,2,77,157,
2,32560, Note_on_c,2,75,60,
2,32590, Note_on_c,2,72,70,
2,32620, Note_on_c,2,56,136,
2,32620, Note_on_c,2,60,60,
2,32620, Note_on_c,2,61,60,
2,32620, Note_on_c,2,65,60,
2,32670, Note_on_c,2,75,70,
2,65416, Note_on_c,2,77,70,
2,65496, Note_on_c,2,75,138,
2,32780, Note_on_c,2,72,70,
2,65678, Note_on_c,2,75,159,
2,32860, Note_on_c,2,77,70,
2,32900, Note_on_c,2,75,60,
2,32930, Note_on_c,2,72,70,
2,65958, Note_on_c,2,75,157,
2,33010, Note_on_c,2,77,70,
2,66096, Note_on_c,2,75,118,
2,33050, Note_on_c,2,46,155,
2,66116, Note_on_c,2,39,156,
2,33070, Note_on_c,2,72,70,
2,33150, Note_on_c,2,76,135,
2,66356, Note_on_c,2,78,70,
2,66438, Note_on_c,2,76,30,
2,33250, Note_on_c,2,73,157,
2,66616, Note_on_c,2,76,50,
2,66658, Note_on_c,2,78,80,
2,66756, Note_on_c,2,76,60,
2,66818, Note_on_c,2,73,80,
2,66858, Note_on_c,2,55,80,
2,66858, Note_on_c,2,45,80,
2,33690, Note_on_c,2,51,100,
2,33820, Note_on_c,2,44,177,
2,33820, Note_on_c,2,55,136,
2,34060, Note_on_c,2,75,120,
2,34200, Note_on_c,2,60,138,
2,68416, Note_on_c,2,58,80,
2,68418, Note_on_c,2,56,158,
2,34390, Note_on_c,2,77,50,
2,68836, Note_on_c,2,75,176,
2,68918, Note_on_c,2,74,159,
2,68996, Note_on_c,2,75,90,
2,34570, Note_on_c,2,39,139,
2,34570, Note_on_c,2,32,157,
2,34580, Note_on_c,2,72,155,
2,34580, Note_on_c,2,84,90,
2,34810, Note_on_c,2,83,90,
2,34820, Note_on_c,2,72,90,
2,69658, Note_on_c,2,82,60,
2,34830, Note_on_c,2,74,115,
2,34860, Note_on_c,2,84,119,
2,34930, Note_on_c,2,72,40,
2,69896, Note_on_c,2,60,50,
2,34950, Note_on_c,2,58,70,
2,34950, Note_on_c,2,56,70,
2,69938, Note_on_c,2,84,50,
2,35000, Note_on_c,2,72,99,
2,35050, Note_on_c,2,84,118,
2,35080, Note_on_c,2,72,40,
2,35130, Note_on_c,2,84,60,
2,35160, Note_on_c,2,72,50,
2,70398, Note_on_c,2,43,80,
2,70416, Note_on_c,2,84,70,
2,35240, Note_on_c,2,72,40,
2,35280, Note_on_c,2,84,75,
2,35330, Note_on_c,2,58,100,
2,35580, Note_on_c,2,73,80,
2,71176, Note_on_c,2,77,80,
2,35590, Note_on_c,2,82,90,
2,71196, Note_on_c,2,85,199,
2,71438, Note_on_c,2,61,157,
2,71438, Note_on_c,2,77,50,
2,71438, Note_on_c,2,55,60,
2,35720, Note_on_c,2,65,138,
2,35720, Note_on_c,2,72,116,
2,35720, Note_on_c,2,58,155,
2,35730, Note_on_c,2,80,80,
2,35730, Note_on_c,2,84,80,
2,35960, Note_on_c,2,71,70,
2,35960, Note_on_c,2,83,70,
2,35960, Note_on_c,2,76,70,
2,35960, Note_on_c,2,80,80,
2,36090, Note_on_c,2,36,155,
2,72196, Note_on_c,2,52,156,
2,72198, Note_on_c,2,72,50,
2,36100, Note_on_c,2,76,70,
2,72216, Note_on_c,2,80,159,
2,72216, Note_on_c,2,84,80,
2,36220, Note_on_c,2,53,159,
2,36220, Note_on_c,2,38,155,
2,36350, Note_on_c,2,54,139,
2,36350, Note_on_c,2,39,70,
2,36470, Note_on_c,2,55,70,
2,36470, Note_on_c,2,40,80,
2,36730, Note_on_c,2,48,90,
2,36870, Note_on_c,2,41,80,
2,36870, Note_on_c,2,56,179,
2,37130, Note_on_c,2,77,120,
2,37250, Note_on_c,2,60,70,
2,74516, Note_on_c,2,62,137,
2,74516, Note_on_c,2,53,136,
2,74518, Note_on_c,2,56,80,
2,37260, Note_on_c,2,79,90,
2,37380, Note_on_c,2,77,157,
2,37500, Note_on_c,2,76,175,
2,75276, Note_on_c,2,36,80,
2,75276, Note_on_c,2,77,178,
2,37890, Note_on_c,2,84,195,
2,37890, Note_on_c,2,80,100,
2,37890, Note_on_c,2,77,196,
2,37900, Note_on_c,2,72,197,
2,38020, Note_on_c,2,62,60,
2,38020, Note_on_c,2,53,139,
2,38020, Note_on_c,2,60,70,
2,38020, Note_on_c,2,56,158,
2,38270, Note_on_c,2,81,215,
2,38380, Note_on_c,2,45,70,
2,38400, Note_on_c,2,74,118,
2,38410, Note_on_c,2,54,159,
2,76836, Note_on_c,2,78,196,
2,38420, Note_on_c,2,81,80,
2,76858, Note_on_c,2,86,196,
2,38670, Note_on_c,2,73,90,
2,38670, Note_on_c,2,78,177,
2,38670, Note_on_c,2,81,70,
2,77356, Note_on_c,2,85,197,
2,38800, Note_on_c,2,61,195,
2,38800, Note_on_c,2,81,60,
2,38800, Note_on_c,2,78,80,
2,77618, Note_on_c,2,84,176,
2,77618, Note_on_c,2,72,70,
2,39040, Note_on_c,2,71,60,
2,39040, Note_on_c,2,75,90,
2,78098, Note_on_c,2,78,197,
2,39050, Note_on_c,2,83,90,
2,78376, Note_on_c,2,59,80,
2,78376, Note_on_c,2,54,175,
2,78858, Note_on_c,2,75,100,
2,78858, Note_on_c,2,66,100,
2,39550, Note_on_c,2,57,80,
2,39550, Note_on_c,2,78,90,
2,79116, Note_on_c,2,63,80,
2,79116, Note_on_c,2,66,178,
2,79116, Note_on_c,2,71,80,
2,79616, Note_on_c,2,68,216,
2,39940, Note_on_c,2,51,159,
2,39940, Note_on_c,2,67,138,
2,39940, Note_on_c,2,63,158,
2,79896, Note_on_c,2,36,138,
2,40270, Note_on_c,2,53,98,
2,40290, Note_on_c,2,54,90,
2,80638, Note_on_c,2,55,60,
2,40320, Note_on_c,2,67,110,
2,80896, Note_on_c,2,68,155,
2,40480, Note_on_c,2,67,60,
2,40510, Note_on_c,2,66,117,
2,40610, Note_on_c,2,67,70,
2,40690, Note_on_c,2,44,80,
2,40690, Note_on_c,2,75,199,
2,40690, Note_on_c,2,54,139,
2,40690, Note_on_c,2,63,100,
2,81778, Note_on_c,2,87,199,
2,40890, Note_on_c,2,75,90,
2,82138, Note_on_c,2,99,217,
2,41070, Note_on_c,2,87,216,
2,41070, Note_on_c,2,94,100,
2,41070, Note_on_c,2,60,70,
2,41070, Note_on_c,2,54,155,
2,41450, Note_on_c,2,36,90,
2,41450, Note_on_c,2,51,195,
2,41780, Note_on_c,2,66,110,
2,41880, Note_on_c,2,67,199,
2,41880, Note_on_c,2,55,157,
2,42010, Note_on_c,2,68,196,
2,84278, Note_on_c,2,69,199,
2,42250, Note_on_c,2,51,70,
2,42250, Note_on_c,2,41,139,
2,42250, Note_on_c,2,57,135,
2,42260, Note_on_c,2,70,195,
2,42270, Note_on_c,2,71,90,
2,42390, Note_on_c,2,79,178,
2,42620, Note_on_c,2,57,60,
2,42620, Note_on_c,2,51,158,
2,42620, Note_on_c,2,62,139,
2,85756, Note_on_c,2,77,216,
2,86036, Note_on_c,2,56,159,
2,86036, Note_on_c,2,41,156,
2,43020, Note_on_c,2,68,198,
2,43020, Note_on_c,2,75,100,
2,43240, Note_on_c,2,60,175,
2,86496, Note_on_c,2,68,80,
2,86496, Note_on_c,2,72,176,
2,86496, Note_on_c,2,67,80,
2,43510, Note_on_c,2,56,100,
2,87258, Note_on_c,2,55,80,
2,43750, Note_on_c,2,61,176,
2,87516, Note_on_c,2,70,179,
2,87516, Note_on_c,2,64,80,
2,43760, Note_on_c,2,52,80,
2,44000, Note_on_c,2,67,158,
2,44000, Note_on_c,2,58,195,
2,44000, Note_on_c,2,73,195,
2,44000, Note_on_c,2,64,176,
2,88578, Note_on_c,2,58,60,
2,88616, Note_on_c,2,57,40,
2,44370, Note_on_c,2,56,138,
2,44520, Note_on_c,2,60,70,
2,44520, Note_on_c,2,70,157,
2,44520, Note_on_c,2,67,156,
2,44520, Note_on_c,2,63,90,
2,44520, Note_on_c,2,55,138,
2,89576, Note_on_c,2,67,70,
2,89578, Note_on_c,2,56,159,
2,44790, Note_on_c,2,60,70,
2,44790, Note_on_c,2,51,80,
2,44920, Note_on_c,2,41,157,
2,89858, Note_on_c,2,63,80,
2,45180, Note_on_c,2,60,70,
2,90618, Note_on_c,2,43,60,
2,45310, Note_on_c,2,53,119,
2,45310, Note_on_c,2,61,80,
2,90636, Note_on_c,2,55,119,
2,45440, Note_on_c,2,65,70,
2,45570, Note_on_c,2,61,70,
2,91416, Note_on_c,2,58,80,
2,91416, Note_on_c,2,36,60,
2,91416, Note_on_c,2,52,136,
2,91416, Note_on_c,2,55,60,
2,91918, Note_on_c,2,79,100,
2,91918, Note_on_c,2,67,110,
2,92178, Note_on_c,2,68,70,
2,46090, Note_on_c,2,56,70,
2,46090, Note_on_c,2,41,60,
2,46100, Note_on_c,2,72,98,
2,46100, Note_on_c,2,75,70,
2,46100, Note_on_c,2,80,80,
2,46340, Note_on_c,2,67,156,
2,46340, Note_on_c,2,72,159,
2,92696, Note_on_c,2,75,178,
2,92696, Note_on_c,2,79,80,
2,46460, Note_on_c,2,72,116,
2,92936, Note_on_c,2,60,118,
2,92936, Note_on_c,2,53,115,
2,92938, Note_on_c,2,65,117,
2,46470, Note_on_c,2,56,135,
2,46470, Note_on_c,2,77,50,
2,93436, Note_on_c,2,63,198,
2,93436, Note_on_c,2,75,100,
2,46840, Note_on_c,2,56,136,
2,46840, Note_on_c,2,65,60,
2,93696, Note_on_c,2,46,156,
2,93698, Note_on_c,2,68,138,
2,93698, Note_on_c,2,72,137,
2,46850, Note_on_c,2,77,157,
2,47090, Note_on_c,2,68,70,
2,47090, Note_on_c,2,65,118,
2,94196, Note_on_c,2,72,70,
2,47100, Note_on_c,2,77,175,
2,47230, Note_on_c,2,36,70,
2,47230, Note_on_c,2,52,70,
2,47610, Note_on_c,2,41,139,
2,47620, Note_on_c,2,56,50,
2,47860, Note_on_c,2,82,237,
2,47860, Note_on_c,2,70,120,
2,48000, Note_on_c,2,68,178,
2,48000, Note_on_c,2,58,157,
2,48000, Note_on_c,2,53,60,
2,48000, Note_on_c,2,56,156,
2,48000, Note_on_c,2,80,177,
2,96236, Note_on_c,2,79,135,
2,48120, Note_on_c,2,67,95,
2,96476, Note_on_c,2,65,70,
2,48240, Note_on_c,2,77,60,
2,96696, Note_on_c,2,46,50,
2,96718, Note_on_c,2,50,60,
2,96718, Note_on_c,2,68,118,
2,48360, Note_on_c,2,56,70,
2,48370, Note_on_c,2,71,138,
2,48380, Note_on_c,2,80,80,
2,48380, Note_on_c,2,74,139,
2,48590, Note_on_c,2,62,60,
2,97278, Note_on_c,2,61,175,
2,48690, Note_on_c,2,60,80,
2,48730, Note_on_c,2,59,157,
2,97578, Note_on_c,2,58,90,
2,48830, Note_on_c,2,57,80,
2,48890, Note_on_c,2,56,135,
2,48940, Note_on_c,2,55,155,
2,49000, Note_on_c,2,54,119,
2,98116, Note_on_c,2,53,80,
2,49100, Note_on_c,2,52,70,
2,49160, Note_on_c,2,51,100,
2,98716, Note_on_c,2,39,110,
2,99056, Note_on_c,2,54,195,
2,99076, Note_on_c,2,55,70,
2,49540, Note_on_c,2,75,110,
2,49540, Note_on_c,2,70,218,
2,99096, Note_on_c,2,65,100,
2,49630, Note_on_c,2,74,90,
2,49720, Note_on_c,2,72,80,
2,49810, Note_on_c,2,70,197,
2,99838, Note_on_c,2,67,90,
2,99838, Note_on_c,2,72,198,
2,49920, Note_on_c,2,56,80,
2,49920, Note_on_c,2,41,139,
2,49920, Note_on_c,2,68,196,
2,50300, Note_on_c,2,54,176,
2,50300, Note_on_c,2,65,199,
2,50300, Note_on_c,2,44,90,
2,50300, Note_on_c,2,60,176,
2,50680, Note_on_c,2,43,70,
2,50680, Note_on_c,2,53,135,
2,50680, Note_on_c,2,65,177,
2,101376, Note_on_c,2,62,159,
2,101376, Note_on_c,2,70,198,
2,51000, Note_on_c,2,42,70,
2,102138, Note_on_c,2,52,138,
2,102156, Note_on_c,2,64,176,
2,102158, Note_on_c,2,61,179,
2,51320, Note_on_c,2,65,157,
2,51320, Note_on_c,2,62,70,
2,51450, Note_on_c,2,43,138,
2,102916, Note_on_c,2,53,137,
2,103438, Note_on_c,2,57,100,
2,51720, Note_on_c,2,64,199,
2,51720, Note_on_c,2,58,215,
2,51720, Note_on_c,2,61,199,
2,51860, Note_on_c,2,36,118,
2,51860, Note_on_c,2,52,135,
2,104258, Note_on_c,2,73,110,
2,104258, Note_on_c,2,74,218,
2,104516, Note_on_c,2,41,119,
2,104516, Note_on_c,2,57,116,
2,104516, Note_on_c,2,77,157,
2,104516, Note_on_c,2,51,60,
2,52260, Note_on_c,2,65,155,
2,52500, Note_on_c,2,75,100,
2,105236, Note_on_c,2,57,139,
2,105238, Note_on_c,2,51,159,
2,52620, Note_on_c,2,74,80,
2,105738, Note_on_c,2,72,137,
2,52980, Note_on_c,2,36,70,
2,105978, Note_on_c,2,74,70,
2,53230, Note_on_c,2,70,158,
2,53230, Note_on_c,2,75,80,
2,53230, Note_on_c,2,66,80,
2,53230, Note_on_c,2,63,158,
2,106718, Note_on_c,2,42,70,
2,53360, Note_on_c,2,58,117,
2,53370, Note_on_c,2,52,60,
2,107258, Note_on_c,2,62,99,
2,53630, Note_on_c,2,65,157,
2,107296, Note_on_c,2,70,90,
2,107556, Note_on_c,2,43,60,
2,53780, Note_on_c,2,53,117,
2,54140, Note_on_c,2,65,118,
2,54140, Note_on_c,2,55,99,
2,54140, Note_on_c,2,62,60,
2,54140, Note_on_c,2,70,100,
2,108296, Note_on_c,2,58,157,
2,54240, Note_on_c,2,74,158,
2,54340, Note_on_c,2,77,70,
2,54430, Note_on_c,2,82,195,
2,54520, Note_on_c,2,85,215,
2,54530, Note_on_c,2,44,70,
2,109536, Note_on_c,2,82,60,
2,54790, Note_on_c,2,80,60,
2,109616, Note_on_c,2,78,70,
2,54840, Note_on_c,2,75,158,
2,54900, Note_on_c,2,73,138,
2,54920, Note_on_c,2,75,157,
2,54920, Note_on_c,2,54,70,
2,109916, Note_on_c,2,73,60,
2,54980, Note_on_c,2,71,60,
2,110076, Note_on_c,2,70,136,
2,110156, Note_on_c,2,68,60,
2,55100, Note_on_c,2,66,135,
2,55180, Note_on_c,2,63,60,
2,55220, Note_on_c,2,61,70,
2,55280, Note_on_c,2,60,80,
2,55300, Note_on_c,2,41,155,
2,55300, Note_on_c,2,48,159,
2,111376, Note_on_c,2,55,60,
2,111378, Note_on_c,2,56,70,
2,111378, Note_on_c,2,53,138,
2,111516, Note_on_c,2,60,40,
2,55780, Note_on_c,2,63,70,
2,111638, Note_on_c,2,68,119,
2,55860, Note_on_c,2,70,138,
2,111798, Note_on_c,2,71,139,
2,55940, Note_on_c,2,73,70,
2,111976, Note_on_c,2,76,50,
2,56010, Note_on_c,2,78,176,
2,112138, Note_on_c,2,83,70,
2,56070, Note_on_c,2,56,70,
2,56070, Note_on_c,2,46,80,
2,56100, Note_on_c,2,85,70,
2,56140, Note_on_c,2,88,70,
2,112358, Note_on_c,2,90,215,
2,112858, Note_on_c,2,62,70,
2,112858, Note_on_c,2,56,60,
2,56430, Note_on_c,2,66,155,
2,56630, Note_on_c,2,74,236,
2,56830, Note_on_c,2,70,90,
2,56830, Note_on_c,2,43,70,
2,56830, Note_on_c,2,53,138,
2,56830, Note_on_c,2,67,70,
2,56830, Note_on_c,2,79,80,
2,56860, Note_on_c,2,71,70,
2,114478, Note_on_c,2,42,158,
2,57240, Note_on_c,2,52,118,
2,57240, Note_on_c,2,66,90,
2,57240, Note_on_c,2,70,177,
2,57240, Note_on_c,2,78,178,
2,57240, Note_on_c,2,75,80,
2,57490, Note_on_c,2,70,198,
2,57490, Note_on_c,2,79,159,
2,57490, Note_on_c,2,67,80,
2,57490, Note_on_c,2,76,70,
2,115056, Note_on_c,2,71,155,
2,57620, Note_on_c,2,43,138,
2,57620, Note_on_c,2,53,137,
2,115738, Note_on_c,2,70,110,
2,57870, Note_on_c,2,82,216,
2,57870, Note_on_c,2,75,100,
2,57870, Note_on_c,2,78,199,
2,115996, Note_on_c,2,52,70,
2,115996, Note_on_c,2,36,139,
2,116518, Note_on_c,2,83,100,
2,58260, Note_on_c,2,71,218,
2,58260, Note_on_c,2,78,219,
2,58260, Note_on_c,2,75,110,
2,58390, Note_on_c,2,41,157,
2,58390, Note_on_c,2,56,156,
2,58390, Note_on_c,2,72,60,
2,58390, Note_on_c,2,78,70,
2,58390, Note_on_c,2,75,70,
2,58400, Note_on_c,2,84,118,
2,58640, Note_on_c,2,75,155,
2,58640, Note_on_c,2,80,90,
2,58640, Note_on_c,2,87,195,
2,117518, Note_on_c,2,60,137,
2,58760, Note_on_c,2,67,135,
2,58760, Note_on_c,2,56,156,
2,58760, Note_on_c,2,63,158,
2,117536, Note_on_c,2,89,90,
2,117538, Note_on_c,2,77,70,
2,59020, Note_on_c,2,90,199,
2,59020, Note_on_c,2,82,177,
2,59020, Note_on_c,2,85,179,
2,118056, Note_on_c,2,78,80,
2,118278, Note_on_c,2,56,60,
2,59140, Note_on_c,2,46,136,
2,59140, Note_on_c,2,50,138,
2,59140, Note_on_c,2,85,80,
2,118298, Note_on_c,2,79,60,
2,59150, Note_on_c,2,91,70,
2,59200, Note_on_c,2,86,20,
2,118836, Note_on_c,2,91,179,
2,118836, Note_on_c,2,85,90,
2,118838, Note_on_c,2,79,70,
2,59440, Note_on_c,2,86,75,
2,59520, Note_on_c,2,56,157,
2,119058, Note_on_c,2,62,70,
2,119058, Note_on_c,2,65,139,
2,59900, Note_on_c,2,64,60,
2,59900, Note_on_c,2,58,80,
2,119816, Note_on_c,2,49,139,
2,119816, Note_on_c,2,55,117,
2,60080, Note_on_c,2,82,216,
2,120358, Note_on_c,2,79,136,
2,120556, Note_on_c,2,76,155,
2,120756, Note_on_c,2,73,90,
2,60460, Note_on_c,2,70,176,
2,60550, Note_on_c,2,69,159,
2,60640, Note_on_c,2,56,136,
2,60640, Note_on_c,2,50,136,
2,121298, Note_on_c,2,68,177,
2,60750, Note_on_c,2,72,135,
2,121698, Note_on_c,2,66,60,
2,121756, Note_on_c,2,67,60,
2,121916, Note_on_c,2,66,137,
2,60970, Note_on_c,2,67,70,
2,61060, Note_on_c,2,65,159,
2,122738, Note_on_c,2,65,115,
2,61380, Note_on_c,2,64,156,
2,61420, Note_on_c,2,63,159,
2,61460, Note_on_c,2,46,80,
2,61460, Note_on_c,2,39,70,
2,122936, Note_on_c,2,62,157,
2,123138, Note_on_c,2,63,159,
2,61650, Note_on_c,2,67,60,
2,123496, Note_on_c,2,70,80,
2,123678, Note_on_c,2,74,197,
2,62010, Note_on_c,2,77,100,
2,62130, Note_on_c,2,74,136,
2,62200, Note_on_c,2,41,70,
2,62200, Note_on_c,2,56,70,
2,62200, Note_on_c,2,75,179,
2,62260, Note_on_c,2,72,115,
2,62320, Note_on_c,2,68,155,
2,62390, Note_on_c,2,67,115,
2,125176, Note_on_c,2,48,155,
2,125178, Note_on_c,2,65,80,
2,62890, Note_on_c,2,67,50,
2,125818, Note_on_c,2,65,60,
2,62940, Note_on_c,2,64,50,
2,125958, Note_on_c,2,42,137,
2,125958, Note_on_c,2,51,60,
2,125958, Note_on_c,2,63,175,
2,63330, Note_on_c,2,54,156,
2,126698, Note_on_c,2,60,116,
2,63380, Note_on_c,2,62,159,
2,63380, Note_on_c,2,74,90,
2,63380, Note_on_c,2,63,218,
2,63380, Note_on_c,2,69,178,
2,63510, Note_on_c,2,60,157,
2,63520, Note_on_c,2,72,155,
2,63620, Note_on_c,2,62,137,
2,127276, Note_on_c,2,74,175,
2,63750, Note_on_c,2,70,90,
2,63750, Note_on_c,2,65,80,
2,63750, Note_on_c,2,53,60,
2,63750, Note_on_c,2,43,60,
2,64000, Note_on_c,2,75,100,
2,64000, Note_on_c,2,70,197,
2,128016, Note_on_c,2,68,198,
2,128018, Note_on_c,2,64,195,
2,128278, Note_on_c,2,52,178,
2,64140, Note_on_c,2,42,100,
2,64390, Note_on_c,2,73,235,
2,128796, Note_on_c,2,74,218,
2,64520, Note_on_c,2,41,60,
2,64520, Note_on_c,2,57,118,
2,64520, Note_on_c,2,51,137,
2,64520, Note_on_c,2,65,50,
2,129056, Note_on_c,2,77,70,
2,64910, Note_on_c,2,51,80,
2,64910, Note_on_c,2,57,80,
2,130338, Note_on_c,2,74,100,
2,130596, Note_on_c,2,36,80,
2,130616, Note_on_c,2,71,80,
2,65540, Note_on_c,2,77,90,
2,131098, Note_on_c,2,67,90,
2,65670, Note_on_c,2,57,138,
2,65670, Note_on_c,2,51,80,
2,65930, Note_on_c,2,74,179,
2,66050, Note_on_c,2,75,179,
2,132116, Note_on_c,2,56,156,
2,132118, Note_on_c,2,68,175,
2,66060, Note_on_c,2,67,117,
2,66060, Note_on_c,2,41,139,
2,66300, Note_on_c,2,72,90,
2,66430, Note_on_c,2,60,119,
2,132876, Note_on_c,2,53,118,
2,66440, Note_on_c,2,56,155,
2,66440, Note_on_c,2,68,80,
2,133396, Note_on_c,2,65,155,
2,66810, Note_on_c,2,56,70,
2,133636, Note_on_c,2,46,80,
2,133638, Note_on_c,2,66,90,
2,133678, Note_on_c,2,67,155,
2,134176, Note_on_c,2,70,110,
2,67200, Note_on_c,2,62,157,
2,134416, Note_on_c,2,56,158,
2,134418, Note_on_c,2,71,176,
2,134658, Note_on_c,2,72,136,
2,134916, Note_on_c,2,73,90,
2,135158, Note_on_c,2,43,156,
2,135158, Note_on_c,2,53,139,
2,67580, Note_on_c,2,74,217,
2,67970, Note_on_c,2,53,70,
2,67970, Note_on_c,2,57,70,
2,67970, Note_on_c,2,62,70,
2,135956, Note_on_c,2,58,176,
2,136558, Note_on_c,2,73,110,
2,68370, Note_on_c,2,38,80,
2,136758, Note_on_c,2,74,198,
2,68480, Note_on_c,2,69,97,
2,68560, Note_on_c,2,72,80,
2,137316, Note_on_c,2,71,175,
2,68740, Note_on_c,2,65,60,
2,68740, Note_on_c,2,55,60,
2,68740, Note_on_c,2,61,70,
2,68740, Note_on_c,2,58,159,
2,68740, Note_on_c,2,70,198,
2,68850, Note_on_c,2,69,159,
2,68920, Note_on_c,2,70,70,
2,68970, Note_on_c,2,73,137,
2,138058, Note_on_c,2,77,70,
2,69110, Note_on_c,2,48,175,
2,138236, Note_on_c,2,79,110,
2,138436, Note_on_c,2,80,90,
2,138618, Note_on_c,2,79,178,
2,138818, Note_on_c,2,78,216,
2,138996, Note_on_c,2,52,80,
2,138996, Note_on_c,2,58,178,
2,69500, Note_on_c,2,79,198,
2,69600, Note_on_c,2,75,179,
2,139378, Note_on_c,2,76,177,
2,139578, Note_on_c,2,72,156,
2,69860, Note_on_c,2,36,80,
2,69870, Note_on_c,2,73,198,
2,69960, Note_on_c,2,69,117,
2,140056, Note_on_c,2,70,176,
2,70090, Note_on_c,2,66,70,
2,140276, Note_on_c,2,67,70,
2,140416, Note_on_c,2,63,176,
2,70250, Note_on_c,2,64,80,
2,140516, Note_on_c,2,58,70,
2,140516, Note_on_c,2,52,60,
2,140638, Note_on_c,2,60,118,
2,70370, Note_on_c,2,61,136,
2,140858, Note_on_c,2,57,60,
2,140976, Note_on_c,2,58,139,
2,141058, Note_on_c,2,55,116,
2,70580, Note_on_c,2,56,136,
2,141258, Note_on_c,2,41,70,
2,70630, Note_on_c,2,48,70,
2,71040, Note_on_c,2,60,80,
2,71040, Note_on_c,2,79,216,
2,71040, Note_on_c,2,56,80,
2,71040, Note_on_c,2,55,157,
2,142138, Note_on_c,2,80,80,
2,142298, Note_on_c,2,79,100,
2,142478, Note_on_c,2,77,100,
2,142676, Note_on_c,2,75,100,
2,71430, Note_on_c,2,56,175,
2,71430, Note_on_c,2,46,177,
2,142876, Note_on_c,2,77,100,
2,71500, Note_on_c,2,79,135,
2,143096, Note_on_c,2,77,117,
2,143176, Note_on_c,2,79,117,
2,71620, Note_on_c,2,77,117,
2,143318, Note_on_c,2,79,116,
2,71690, Note_on_c,2,77,60,
2,71720, Note_on_c,2,79,135,
2,143516, Note_on_c,2,77,155,
2,143656, Note_on_c,2,62,118,
2,143658, Note_on_c,2,56,70,
2,143658, Note_on_c,2,65,159,
2,144036, Note_on_c,2,79,178,
2,72110, Note_on_c,2,80,60,
2,144336, Note_on_c,2,81,117,
2,72210, Note_on_c,2,43,138,
2,72210, Note_on_c,2,58,138,
2,144436, Note_on_c,2,82,198,
2,144438, Note_on_c,2,52,60,
2,145218, Note_on_c,2,40,159,
2,145218, Note_on_c,2,55,70,
2,72860, Note_on_c,2,84,95,
2,72880, Note_on_c,2,82,138,
2,72900, Note_on_c,2,81,96,
2,72930, Note_on_c,2,80,70,
2,72970, Note_on_c,2,79,137,
2,145956, Note_on_c,2,41,116,
2,72980, Note_on_c,2,56,115,
2,145976, Note_on_c,2,50,138,
2,73010, Note_on_c,2,80,137,
2,73280, Note_on_c,2,91,97,
2,146636, Note_on_c,2,89,155,
2,73350, Note_on_c,2,86,119,
2,146756, Note_on_c,2,84,70,
2,73380, Note_on_c,2,65,155,
2,73380, Note_on_c,2,56,138,
2,73380, Note_on_c,2,62,138,
2,73380, Note_on_c,2,60,115,
2,73430, Note_on_c,2,82,138,
2,146918, Note_on_c,2,80,70,
2,146978, Note_on_c,2,77,138,
2,73520, Note_on_c,2,76,20,
2,147078, Note_on_c,2,75,159,
2,73570, Note_on_c,2,74,138,
2,73600, Note_on_c,2,73,175,
2,147258, Note_on_c,2,72,139,
2,147316, Note_on_c,2,71,75,
2,73710, Note_on_c,2,70,157,
2,73740, Note_on_c,2,69,139,
2,73770, Note_on_c,2,46,159,
2,73770, Note_on_c,2,39,158,
2,73780, Note_on_c,2,68,70,
2,73810, Note_on_c,2,67,57,
2,148256, Note_on_c,2,60,70,
2,148258, Note_on_c,2,58,80,
2,148258, Note_on_c,2,55,139,
2,74130, Note_on_c,2,51,80,
2,148636, Note_on_c,2,69,100,
2,148736, Note_on_c,2,70,178,
2,74410, Note_on_c,2,71,50,
2,74440, Note_on_c,2,72,80,
2,74500, Note_on_c,2,56,138,
2,74500, Note_on_c,2,41,70,
2,74500, Note_on_c,2,70,216,
2,74880, Note_on_c,2,57,176,
2,74880, Note_on_c,2,42,195,
2,75160, Note_on_c,2,50,135,
2,75280, Note_on_c,2,58,177,
2,75280, Note_on_c,2,43,70,
2,150718, Note_on_c,2,65,136,
2,75390, Note_on_c,2,70,80,
2,150876, Note_on_c,2,74,60,
2,150978, Note_on_c,2,75,178,
2,151096, Note_on_c,2,77,80,
2,151236, Note_on_c,2,82,195,
2,151376, Note_on_c,2,86,155,
2,75760, Note_on_c,2,87,217,
2,75820, Note_on_c,2,85,90,
2,151756, Note_on_c,2,82,80,
2,151838, Note_on_c,2,80,156,
2,151918, Note_on_c,2,76,70,
2,152018, Note_on_c,2,58,60,
2,76010, Note_on_c,2,52,70,
2,76010, Note_on_c,2,75,80,
2,76010, Note_on_c,2,48,115,
2,152098, Note_on_c,2,73,155,
2,76080, Note_on_c,2,72,155,
2,152256, Note_on_c,2,70,80,
2,152338, Note_on_c,2,68,70,
2,152398, Note_on_c,2,66,80,
2,76230, Note_on_c,2,64,70,
2,76280, Note_on_c,2,63,70,
2,76320, Note_on_c,2,61,138,
2,76350, Note_on_c,2,60,155,
2,152796, Note_on_c,2,54,175,
2,76410, Note_on_c,2,58,176,
2,76450, Note_on_c,2,57,50,
2,76500, Note_on_c,2,56,70,
2,153076, Note_on_c,2,55,135,
2,76580, Note_on_c,2,54,139,
2,76620, Note_on_c,2,53,60,
2,76640, Note_on_c,2,36,136,
2,76660, Note_on_c,2,52,157,
2,153438, Note_on_c,2,51,155,
2,76760, Note_on_c,2,50,80,
2,76780, Note_on_c,2,29,199,
2,154276, Note_on_c,2,61,70,
2,154278, Note_on_c,2,59,30,
2,77150, Note_on_c,2,60,80,
2,77160, Note_on_c,2,61,157,
2,77180, Note_on_c,2,63,219,
2,77180, Note_on_c,2,74,195,
2,154376, Note_on_c,2,67,177,
2,154378, Note_on_c,2,62,135,
2,77390, Note_on_c,2,72,175,
2,77390, Note_on_c,2,60,90,
2,77390, Note_on_c,2,63,60,
2,77580, Note_on_c,2,71,178,
2,77580, Note_on_c,2,63,195,
2,77580, Note_on_c,2,60,80,
2,77580, Note_on_c,2,59,176,
2,77770, Note_on_c,2,57,179,
2,155556, Note_on_c,2,69,178,
2,77960, Note_on_c,2,60,70,
2,77960, Note_on_c,2,57,159,
2,77960, Note_on_c,2,67,159,
2,77960, Note_on_c,2,63,80,
2,77960, Note_on_c,2,55,70,
2,156298, Note_on_c,2,53,177,
2,78150, Note_on_c,2,65,90,
2,156658, Note_on_c,2,63,179,
2,78330, Note_on_c,2,56,90,
2,78330, Note_on_c,2,55,70,
2,78330, Note_on_c,2,51,179,
2,157456, Note_on_c,2,41,80,
2,78730, Note_on_c,2,66,235,
2,157476, Note_on_c,2,75,218,
2,157518, Note_on_c,2,67,80,
2,157736, Note_on_c,2,68,196,
2,78870, Note_on_c,2,75,158,
2,157978, Note_on_c,2,69,195,
2,78990, Note_on_c,2,75,198,
2,79110, Note_on_c,2,56,157,
2,79110, Note_on_c,2,46,80,
2,79120, Note_on_c,2,75,100,
2,79120, Note_on_c,2,70,100,
2,79250, Note_on_c,2,63,70,
2,79380, Note_on_c,2,75,100,
2,79380, Note_on_c,2,68,100,
2,158998, Note_on_c,2,66,90,
2,79500, Note_on_c,2,75,176,
2,159016, Note_on_c,2,53,159,
2,79520, Note_on_c,2,67,159,
2,159258, Note_on_c,2,63,90,
2,159516, Note_on_c,2,56,158,
2,159518, Note_on_c,2,62,137,
2,79890, Note_on_c,2,63,100,
2,79890, Note_on_c,2,55,175,
2,79890, Note_on_c,2,46,176,
2,79890, Note_on_c,2,39,80,
2,80280, Note_on_c,2,54,100,
2,160576, Note_on_c,2,55,80,
2,80290, Note_on_c,2,65,100,
2,80290, Note_on_c,2,66,110,
2,80300, Note_on_c,2,67,199,
2,160838, Note_on_c,2,70,70,
2,161076, Note_on_c,2,72,156,
2,161336, Note_on_c,2,55,80,
2,161338, Note_on_c,2,70,215,
2,161818, Note_on_c,2,44,176,
2,162076, Note_on_c,2,65,175,
2,162076, Note_on_c,2,60,159,
2,162078, Note_on_c,2,55,70,
2,81270, Note_on_c,2,45,157,
2,81270, Note_on_c,2,66,195,
2,81270, Note_on_c,2,63,195,
2,162556, Note_on_c,2,60,80,
2,81410, Note_on_c,2,61,156,
2,81410, Note_on_c,2,65,80,
2,162836, Note_on_c,2,56,158,
2,81420, Note_on_c,2,46,156,
2,163318, Note_on_c,2,68,90,
2,81790, Note_on_c,2,53,178,
2,163596, Note_on_c,2,70,90,
2,82030, Note_on_c,2,61,178,
2,82030, Note_on_c,2,66,90,
2,82030, Note_on_c,2,64,176,
2,82030, Note_on_c,2,72,80,
2,82180, Note_on_c,2,45,136,
2,82180, Note_on_c,2,55,60,
2,82420, Note_on_c,2,78,196,
2,82420, Note_on_c,2,71,90,
2,82420, Note_on_c,2,67,80,
2,82420, Note_on_c,2,73,90,
2,165138, Note_on_c,2,55,60,
2,165138, Note_on_c,2,61,70,
2,165138, Note_on_c,2,59,70,
2,165636, Note_on_c,2,75,239,
2,82950, Note_on_c,2,32,159,
2,82950, Note_on_c,2,39,136,
2,82960, Note_on_c,2,77,137,
2,166396, Note_on_c,2,77,157,
2,166396, Note_on_c,2,75,177,
2,83320, Note_on_c,2,60,135,
2,83320, Note_on_c,2,55,117,
2,166656, Note_on_c,2,56,158,
2,166658, Note_on_c,2,74,157,
2,167178, Note_on_c,2,75,90,
2,83710, Note_on_c,2,78,90,
2,83710, Note_on_c,2,84,80,
2,167436, Note_on_c,2,72,70,
2,167438, Note_on_c,2,39,176,
2,167516, Note_on_c,2,79,77,
2,167938, Note_on_c,2,78,100,
2,83970, Note_on_c,2,84,177,
2,83970, Note_on_c,2,72,176,
2,167978, Note_on_c,2,79,115,
2,84100, Note_on_c,2,54,100,
2,168716, Note_on_c,2,43,176,
2,168978, Note_on_c,2,84,80,
2,168978, Note_on_c,2,77,155,
2,84490, Note_on_c,2,72,80,
2,84490, Note_on_c,2,58,179,
2,84720, Note_on_c,2,73,50,
2,84730, Note_on_c,2,77,139,
2,169476, Note_on_c,2,85,178,
2,84740, Note_on_c,2,80,80,
2,84860, Note_on_c,2,55,116,
2,84860, Note_on_c,2,65,138,
2,84860, Note_on_c,2,61,70,
2,84860, Note_on_c,2,58,157,
2,169736, Note_on_c,2,80,60,
2,169738, Note_on_c,2,72,60,
2,169738, Note_on_c,2,77,50,
2,84870, Note_on_c,2,84,157,
2,170218, Note_on_c,2,71,139,
2,170218, Note_on_c,2,77,60,
2,85110, Note_on_c,2,83,60,
2,85240, Note_on_c,2,52,70,
2,85240, Note_on_c,2,36,137,
2,170496, Note_on_c,2,72,139,
2,85250, Note_on_c,2,84,175,
2,85250, Note_on_c,2,79,80,
2,85490, Note_on_c,2,72,155,
2,170996, Note_on_c,2,79,90,
2,170998, Note_on_c,2,84,90,
2,85630, Note_on_c,2,42,90,
2,85630, Note_on_c,2,58,178,
2,85850, Note_on_c,2,101,198,
2,171836, Note_on_c,2,103,195,
2,85990, Note_on_c,2,101,195,
2,85990, Note_on_c,2,56,177,
2,171998, Note_on_c,2,41,159,
2,172116, Note_on_c,2,98,175,
2,86110, Note_on_c,2,95,98,
2,86160, Note_on_c,2,92,175,
2,172416, Note_on_c,2,89,70,
2,86260, Note_on_c,2,86,96,
2,86290, Note_on_c,2,84,159,
2,86340, Note_on_c,2,80,195,
2,86360, Note_on_c,2,50,156,
2,86390, Note_on_c,2,77,70,
2,172836, Note_on_c,2,76,30,
2,172898, Note_on_c,2,74,50,
2,172956, Note_on_c,2,72,80,
2,86530, Note_on_c,2,68,80,
2,86580, Note_on_c,2,65,135,
2,173278, Note_on_c,2,62,79,
2,86670, Note_on_c,2,60,159,
2,173476, Note_on_c,2,56,100,
2,173898, Note_on_c,2,56,90,
2,87100, Note_on_c,2,53,70,
2,174236, Note_on_c,2,54,179,
2,174298, Note_on_c,2,55,136,
2,174318, Note_on_c,2,60,80,
2,87270, Note_on_c,2,63,90,
2,174556, Note_on_c,2,53,70,
2,174736, Note_on_c,2,51,90,
2,174738, Note_on_c,2,65,80,
2,174938, Note_on_c,2,66,199,
2,87560, Note_on_c,2,45,155,
2,87560, Note_on_c,2,63,90,
2,175138, Note_on_c,2,57,159,
2,175138, Note_on_c,2,60,157,
2,175778, Note_on_c,2,60,116,
2,175818, Note_on_c,2,61,138,
2,87960, Note_on_c,2,62,80,
2,87960, Note_on_c,2,63,196,
2,87960, Note_on_c,2,66,90,
2,87960, Note_on_c,2,74,90,
2,87960, Note_on_c,2,69,157,
2,88090, Note_on_c,2,60,137,
2,88100, Note_on_c,2,72,115,
2,88210, Note_on_c,2,62,80,
2,176436, Note_on_c,2,74,60,
2,176438, Note_on_c,2,63,117,
2,88220, Note_on_c,2,66,117,
2,176456, Note_on_c,2,69,50,
2,88340, Note_on_c,2,60,90,
2,88340, Note_on_c,2,66,176,
2,88340, Note_on_c,2,72,159,
2,88340, Note_on_c,2,63,177,
2,88720, Note_on_c,2,54,110,
2,88720, Note_on_c,2,55,90,
2,88970, Note_on_c,2,43,70,
2,178236, Note_on_c,2,58,177,
2,89180, Note_on_c,2,72,117,
2,89220, Note_on_c,2,75,136,
2,178498, Note_on_c,2,79,70,
2,178578, Note_on_c,2,84,196,
2,89340, Note_on_c,2,79,80,
2,89400, Note_on_c,2,75,156,
2,178896, Note_on_c,2,72,117,
2,178976, Note_on_c,2,70,70,
2,89490, Note_on_c,2,51,159,
2,179038, Note_on_c,2,69,50,
2,179116, Note_on_c,2,68,70,
2,89580, Note_on_c,2,67,117,
2,89630, Note_on_c,2,66,156,
2,89670, Note_on_c,2,65,116,
2,179416, Note_on_c,2,64,80,
2,89760, Note_on_c,2,63,80,
2,89800, Note_on_c,2,61,136,
2,89840, Note_on_c,2,62,138,
2,89850, Note_on_c,2,54,138,
2,89850, Note_on_c,2,44,80,
2,89900, Note_on_c,2,66,176,
2,179916, Note_on_c,2,70,195,
2,90000, Note_on_c,2,74,178,
2,90050, Note_on_c,2,78,159,
2,180176, Note_on_c,2,82,195,
2,90150, Note_on_c,2,85,100,
2,90160, Note_on_c,2,74,215,
2,90200, Note_on_c,2,86,90,
2,180458, Note_on_c,2,60,70,
2,90230, Note_on_c,2,54,70,
2,90260, Note_on_c,2,74,78,
2,90280, Note_on_c,2,86,80,
2,180636, Note_on_c,2,74,119,
2,90360, Note_on_c,2,86,80,
2,90400, Note_on_c,2,74,119,
2,180878, Note_on_c,2,86,80,
2,90480, Note_on_c,2,74,60,
2,181036, Note_on_c,2,86,70,
2,90550, Note_on_c,2,74,138,
2,90580, Note_on_c,2,51,177,
2,90580, Note_on_c,2,57,80,
2,181176, Note_on_c,2,86,157,
2,181236, Note_on_c,2,74,60,
2,181318, Note_on_c,2,86,159,
2,181398, Note_on_c,2,74,99,
2,90750, Note_on_c,2,86,36,
2,91020, Note_on_c,2,41,176,
2,91020, Note_on_c,2,75,217,
2,91020, Note_on_c,2,82,218,
2,182056, Note_on_c,2,87,215,
2,91290, Note_on_c,2,76,179,
2,91290, Note_on_c,2,82,100,
2,91290, Note_on_c,2,88,100,
2,182836, Note_on_c,2,57,70,
2,182836, Note_on_c,2,62,70,
2,182838, Note_on_c,2,51,80,
2,91420, Note_on_c,2,77,70,
2,91420, Note_on_c,2,82,195,
2,91430, Note_on_c,2,89,100,
2,91550, Note_on_c,2,82,70,
2,91550, Note_on_c,2,76,115,
2,91560, Note_on_c,2,88,99,
2,91650, Note_on_c,2,75,80,
2,91660, Note_on_c,2,82,70,
2,91670, Note_on_c,2,87,90,
2,91780, Note_on_c,2,55,156,
2,91780, Note_on_c,2,74,70,
2,91780, Note_on_c,2,86,90,
2,92030, Note_on_c,2,84,217,
2,184336, Note_on_c,2,56,80,
2,184338, Note_on_c,2,41,157,
2,92170, Note_on_c,2,82,110,
2,92270, Note_on_c,2,72,119,
2,184738, Note_on_c,2,75,60,
2,184918, Note_on_c,2,82,216,
2,92550, Note_on_c,2,80,216,
2,92650, Note_on_c,2,72,30,
2,92730, Note_on_c,2,75,139,
2,92830, Note_on_c,2,79,179,
2,92920, Note_on_c,2,77,80,
2,185856, Note_on_c,2,43,60,
2,92950, Note_on_c,2,79,78,
2,92970, Note_on_c,2,77,159,
2,186118, Note_on_c,2,76,90,
2,93140, Note_on_c,2,72,155,
2,186478, Note_on_c,2,68,100,
2,186596, Note_on_c,2,58,159,
2,186658, Note_on_c,2,67,117,
2,186698, Note_on_c,2,68,155,
2,186758, Note_on_c,2,67,155,
2,186838, Note_on_c,2,65,159,
2,93490, Note_on_c,2,64,70,
2,187196, Note_on_c,2,67,179,
2,187358, Note_on_c,2,56,157,
2,187358, Note_on_c,2,41,139,
2,93680, Note_on_c,2,65,90,
2,187596, Note_on_c,2,65,80,
2,187618, Note_on_c,2,63,178,
2,93880, Note_on_c,2,60,117,
2,93980, Note_on_c,2,61,199,
2,188136, Note_on_c,2,62,70,
2,188138, Note_on_c,2,48,155,
2,94180, Note_on_c,2,66,80,
2,188516, Note_on_c,2,70,196,
2,188736, Note_on_c,2,73,198,
2,188896, Note_on_c,2,72,80,
2,188898, Note_on_c,2,58,175,
2,188898, Note_on_c,2,43,70,
2,94560, Note_on_c,2,73,100,
2,94640, Note_on_c,2,72,137,
2,94760, Note_on_c,2,70,100,
2,94820, Note_on_c,2,48,70,
2,189678, Note_on_c,2,68,70,
2,189756, Note_on_c,2,70,70,
2,94900, Note_on_c,2,68,50,
2,189918, Note_on_c,2,64,70,
2,95020, Note_on_c,2,63,177,
2,95150, Note_on_c,2,61,196,
2,95220, Note_on_c,2,60,80,
2,95220, Note_on_c,2,56,80,
2,190458, Note_on_c,2,41,70,
2,191176, Note_on_c,2,53,139,
2,191238, Note_on_c,2,56,179,
2,191256, Note_on_c,2,68,70,
2,191276, Note_on_c,2,60,179,
2,95640, Note_on_c,2,72,80,
2,191298, Note_on_c,2,75,196,
2,95650, Note_on_c,2,80,100,
2,95750, Note_on_c,2,72,136,
2,95750, Note_on_c,2,75,136,
2,191516, Note_on_c,2,67,155,
2,95760, Note_on_c,2,79,178,
2,191716, Note_on_c,2,77,176,
2,191716, Note_on_c,2,65,176,
2,96000, Note_on_c,2,46,90,
2,192016, Note_on_c,2,64,100,
2,192018, Note_on_c,2,76,195,
2,96260, Note_on_c,2,65,70,
2,192538, Note_on_c,2,68,178,
2,192538, Note_on_c,2,72,80,
2,192556, Note_on_c,2,77,90,
2,192798, Note_on_c,2,56,177,
2,96400, Note_on_c,2,62,80,
2,96400, Note_on_c,2,60,80,
2,193296, Note_on_c,2,43,90,
2,96770, Note_on_c,2,52,80,
2,96770, Note_on_c,2,58,195,
2,193558, Note_on_c,2,70,100,
2,193558, Note_on_c,2,73,100,
2,96780, Note_on_c,2,76,90,
2,96780, Note_on_c,2,82,100,
2,97020, Note_on_c,2,68,199,
2,97020, Note_on_c,2,80,215,
2,194058, Note_on_c,2,73,196,
2,97150, Note_on_c,2,55,70,
2,97150, Note_on_c,2,61,159,
2,97150, Note_on_c,2,64,70,
2,97150, Note_on_c,2,58,176,
2,194318, Note_on_c,2,73,195,
2,97160, Note_on_c,2,79,178,
2,97160, Note_on_c,2,67,80,
2,97410, Note_on_c,2,66,100,
2,97410, Note_on_c,2,78,100,
2,97410, Note_on_c,2,73,199,
2,97530, Note_on_c,2,57,159,
2,97530, Note_on_c,2,47,80,
2,97540, Note_on_c,2,74,177,
2,97540, Note_on_c,2,79,159,
2,97540, Note_on_c,2,67,159,
2,97780, Note_on_c,2,68,90,
2,97780, Note_on_c,2,75,195,
2,97780, Note_on_c,2,80,90,
2,195818, Note_on_c,2,56,90,
2,97910, Note_on_c,2,46,195,
2,97920, Note_on_c,2,81,176,
2,97920, Note_on_c,2,69,80,
2,196356, Note_on_c,2,70,216,
2,196356, Note_on_c,2,82,110,
2,98310, Note_on_c,2,46,100,
2,98310, Note_on_c,2,39,100,
2,196638, Note_on_c,2,87,110,
2,98320, Note_on_c,2,75,100,
2,98570, Note_on_c,2,74,195,
2,98570, Note_on_c,2,79,197,
2,98570, Note_on_c,2,82,100,
2,98570, Note_on_c,2,86,100,
2,98700, Note_on_c,2,55,139,
2,98700, Note_on_c,2,60,158,
2,98700, Note_on_c,2,58,176,
2,98820, Note_on_c,2,72,90,
2,98820, Note_on_c,2,84,90,
2,98940, Note_on_c,2,70,90,
2,98940, Note_on_c,2,82,195,
2,99050, Note_on_c,2,41,158,
2,198138, Note_on_c,2,72,70,
2,198138, Note_on_c,2,56,90,
2,198138, Note_on_c,2,77,157,
2,99070, Note_on_c,2,80,80,
2,198156, Note_on_c,2,84,175,
2,198938, Note_on_c,2,57,198,
2,198938, Note_on_c,2,42,100,
2,99580, Note_on_c,2,63,100,
2,99700, Note_on_c,2,69,135,
2,199516, Note_on_c,2,74,179,
2,199696, Note_on_c,2,72,90,
2,199696, Note_on_c,2,58,90,
2,199698, Note_on_c,2,43,158,
2,100100, Note_on_c,2,70,110,
2,100240, Note_on_c,2,54,178,
2,200996, Note_on_c,2,36,178,
2,201256, Note_on_c,2,52,196,
2,100860, Note_on_c,2,70,110,
2,201736, Note_on_c,2,66,110,
2,201738, Note_on_c,2,64,195,
2,101000, Note_on_c,2,58,176,
2,101000, Note_on_c,2,48,80,
2,202016, Note_on_c,2,52,159,
2,101250, Note_on_c,2,51,100,
2,202776, Note_on_c,2,41,90,
2,101390, Note_on_c,2,70,218,
2,101390, Note_on_c,2,67,90,
2,101390, Note_on_c,2,77,195,
2,101390, Note_on_c,2,74,178,
2,101410, Note_on_c,2,71,90,
2,101610, Note_on_c,2,57,70,
2,101620, Note_on_c,2,56,157,
2,203358, Note_on_c,2,55,70,
2,101760, Note_on_c,2,54,216,
2,204018, Note_on_c,2,71,80,
2,204196, Note_on_c,2,57,96,
2,204216, Note_on_c,2,59,60,
2,102120, Note_on_c,2,60,156,
2,204276, Note_on_c,2,61,195,
2,204298, Note_on_c,2,62,159,
2,204298, Note_on_c,2,63,178,
2,102150, Note_on_c,2,74,178,
2,102150, Note_on_c,2,66,80,
2,102150, Note_on_c,2,69,158,
2,102370, Note_on_c,2,59,178,
2,102370, Note_on_c,2,63,177,
2,102370, Note_on_c,2,66,178,
2,204756, Note_on_c,2,71,158,
2,205518, Note_on_c,2,44,198,
2,102760, Note_on_c,2,66,110,
2,102900, Note_on_c,2,53,159,
2,102900, Note_on_c,2,43,70,
2,102900, Note_on_c,2,65,80,
2,205816, Note_on_c,2,62,70,
2,206316, Note_on_c,2,70,110,
2,103290, Note_on_c,2,72,100,
2,206596, Note_on_c,2,50,90,
2,207096, Note_on_c,2,70,218,
2,103670, Note_on_c,2,52,70,
2,103670, Note_on_c,2,73,219,
2,103670, Note_on_c,2,36,70,
2,103670, Note_on_c,2,66,216,
2,103670, Note_on_c,2,64,90,
2,207838, Note_on_c,2,66,218,
2,207838, Note_on_c,2,72,100,
2,207838, Note_on_c,2,64,199,
2,103920, Note_on_c,2,58,80,
2,103920, Note_on_c,2,52,138,
2,103920, Note_on_c,2,48,135,
2,104290, Note_on_c,2,74,90,
2,104290, Note_on_c,2,48,199,
2,104430, Note_on_c,2,41,179,
2,104430, Note_on_c,2,68,178,
2,104430, Note_on_c,2,72,80,
2,104430, Note_on_c,2,75,90,
2,209636, Note_on_c,2,68,90,
2,209636, Note_on_c,2,53,80,
2,209636, Note_on_c,2,67,80,
2,210138, Note_on_c,2,72,80,
2,210138, Note_on_c,2,60,80,
2,105070, Note_on_c,2,67,70,
2,105200, Note_on_c,2,67,176,
2,105200, Note_on_c,2,68,198,
2,105200, Note_on_c,2,75,215,
2,210416, Note_on_c,2,63,100,
2,210896, Note_on_c,2,67,157,
2,210898, Note_on_c,2,79,80,
2,105450, Note_on_c,2,72,157,
2,105450, Note_on_c,2,68,80,
2,105590, Note_on_c,2,68,80,
2,105590, Note_on_c,2,63,100,
2,105590, Note_on_c,2,75,90,
2,105820, Note_on_c,2,60,155,
2,105830, Note_on_c,2,68,156,
2,105830, Note_on_c,2,72,80,
2,211938, Note_on_c,2,56,80,
2,105970, Note_on_c,2,73,90,
2,105970, Note_on_c,2,79,155,
2,105970, Note_on_c,2,67,157,
2,211956, Note_on_c,2,71,80,
2,211956, Note_on_c,2,68,80,
2,105980, Note_on_c,2,76,156,
2,212458, Note_on_c,2,73,90,
2,212458, Note_on_c,2,71,90,
2,212458, Note_on_c,2,79,80,
2,106230, Note_on_c,2,68,196,
2,106230, Note_on_c,2,56,90,
2,106230, Note_on_c,2,76,80,
2,106230, Note_on_c,2,67,175,
2,106620, Note_on_c,2,46,110,
2,106760, Note_on_c,2,67,70,
2,106760, Note_on_c,2,62,80,
2,106760, Note_on_c,2,70,90,
2,106760, Note_on_c,2,64,176,
2,106760, Note_on_c,2,56,90,
2,107000, Note_on_c,2,73,236,
2,214276, Note_on_c,2,74,90,
2,214738, Note_on_c,2,70,218,
2,107370, Note_on_c,2,75,100,
2,107370, Note_on_c,2,65,197,
2,107370, Note_on_c,2,46,100,
2,107370, Note_on_c,2,39,90,
2,107740, Note_on_c,2,70,216,
2,107740, Note_on_c,2,75,216,
2,215498, Note_on_c,2,65,80,
2,215498, Note_on_c,2,39,90,
2,107880, Note_on_c,2,43,90,
2,215776, Note_on_c,2,67,80,
2,215776, Note_on_c,2,73,100,
2,215796, Note_on_c,2,75,60,
2,216578, Note_on_c,2,44,179,
2,216578, Note_on_c,2,75,159,
2,108290, Note_on_c,2,66,156,
2,108290, Note_on_c,2,71,138,
2,108320, Note_on_c,2,72,70,
2,108670, Note_on_c,2,71,70,
2,108670, Note_on_c,2,75,177,
2,108670, Note_on_c,2,66,80,
2,108670, Note_on_c,2,63,156,
2,108670, Note_on_c,2,45,70,
2,109070, Note_on_c,2,66,100,
2,109070, Note_on_c,2,75,198,
2,218156, Note_on_c,2,70,90,
2,218156, Note_on_c,2,46,176,
2,109120, Note_on_c,2,67,136,
2,109500, Note_on_c,2,40,80,
2,109520, Note_on_c,2,47,159,
2,109520, Note_on_c,2,66,100,
2,109520, Note_on_c,2,62,178,
2,109530, Note_on_c,2,56,100,
2,109820, Note_on_c,2,65,216,
2,219656, Note_on_c,2,60,216,
2,219658, Note_on_c,2,46,216,
2,219658, Note_on_c,2,39,100,
2,109830, Note_on_c,2,55,100,
2,221496, Note_on_c,2,65,118,
2,221496, Note_on_c,2,96,70,
2,221498, Note_on_c,2,94,70,
2,221498, Note_on_c,2,55,99,
2,221498, Note_on_c,2,84,60,
2,221498, Note_on_c,2,89,135,
2,110750, Note_on_c,2,60,50,
2,221518, Note_on_c,2,58,70,
2,113660, Note_on_c,2,77,50,
2,113660, Note_on_c,2,73,117,
2,113660, Note_on_c,2,71,95,
2,113660, Note_on_c,2,65,50,
2,113660, Note_on_c,2,67,40,
2,227678, Note_on_c,2,65,50,
2,227678, Note_on_c,2,71,40,
2,113840, Note_on_c,2,69,30,
2,113840, Note_on_c,2,75,119,
2,113840, Note_on_c,2,63,135,
2,114020, Note_on_c,2,73,70,
2,114020, Note_on_c,2,69,117,
2,114020, Note_on_c,2,61,136,
2,114020, Note_on_c,2,67,50,
2,228058, Note_on_c,2,63,138,
2,228418, Note_on_c,2,67,40,
2,228418, Note_on_c,2,65,97,
2,228418, Note_on_c,2,71,119,
2,114210, Note_on_c,2,59,60,
2,114210, Note_on_c,2,61,60,
2,228796, Note_on_c,2,69,60,
2,114400, Note_on_c,2,65,60,
2,114400, Note_on_c,2,59,117,
2,114400, Note_on_c,2,63,139,
2,114400, Note_on_c,2,57,60,
2,229178, Note_on_c,2,61,50,
2,114590, Note_on_c,2,67,60,
2,114590, Note_on_c,2,55,50,
2,114590, Note_on_c,2,63,137,
2,114590, Note_on_c,2,57,117,
2,229576, Note_on_c,2,61,115,
2,229578, Note_on_c,2,59,116,
2,229578, Note_on_c,2,55,115,
2,229578, Note_on_c,2,65,137,
2,114790, Note_on_c,2,53,116,
2,229976, Note_on_c,2,63,138,
2,229978, Note_on_c,2,53,50,
2,229978, Note_on_c,2,59,116,
2,229978, Note_on_c,2,57,50,
2,229978, Note_on_c,2,51,60,
2,115190, Note_on_c,2,54,115,
2,115190, Note_on_c,2,64,119,
2,230396, Note_on_c,2,60,60,
2,230396, Note_on_c,2,50,79,
2,230396, Note_on_c,2,58,137,
2,115200, Note_on_c,2,46,119,
2,230616, Note_on_c,2,62,40,
2,230796, Note_on_c,2,60,50,
2,230798, Note_on_c,2,54,77,
2,115400, Note_on_c,2,64,98,
2,115400, Note_on_c,2,58,115,
2,230996, Note_on_c,2,62,96,
2,115590, Note_on_c,2,60,116,
2,115590, Note_on_c,2,64,99,
2,231196, Note_on_c,2,54,95,
2,115600, Note_on_c,2,58,119,
2,115790, Note_on_c,2,54,97,
2,115790, Note_on_c,2,58,138,
2,115790, Note_on_c,2,62,50,
2,231878, Note_on_c,2,43,77,
2,115980, Note_on_c,2,53,40,
2,115980, Note_on_c,2,49,60,
2,115990, Note_on_c,2,58,60,
2,116000, Note_on_c,2,60,60,
2,232058, Note_on_c,2,61,70,
2,116290, Note_on_c,2,84,50,
2,232618, Note_on_c,2,82,139,
2,116320, Note_on_c,2,80,70,
2,116340, Note_on_c,2,78,156,
2,116370, Note_on_c,2,72,70,
2,232978, Note_on_c,2,36,70,
2,232978, Note_on_c,2,52,70,
2,233318, Note_on_c,2,65,116,
2,116680, Note_on_c,2,66,157,
2,116710, Note_on_c,2,67,70,
2,233498, Note_on_c,2,68,100,
2,116750, Note_on_c,2,56,139,
2,233516, Note_on_c,2,41,115,
2,117020, Note_on_c,2,67,90,
2,234258, Note_on_c,2,65,80,
2,234756, Note_on_c,2,63,60,
2,117490, Note_on_c,2,46,99,
2,117490, Note_on_c,2,56,78,
2,117490, Note_on_c,2,65,116,
2,235238, Note_on_c,2,60,98,
2,117750, Note_on_c,2,72,116,
2,117880, Note_on_c,2,84,115,
2,117880, Note_on_c,2,80,135,
2,236398, Note_on_c,2,58,60,
2,118210, Note_on_c,2,61,50,
2,236458, Note_on_c,2,59,60,
2,236498, Note_on_c,2,64,78,
2,118250, Note_on_c,2,67,50,
2,236516, Note_on_c,2,60,60,
2,118260, Note_on_c,2,72,138,
2,118450, Note_on_c,2,70,80,
2,118450, Note_on_c,2,61,70,
2,118450, Note_on_c,2,64,70,
2,236916, Note_on_c,2,58,70,
2,118640, Note_on_c,2,61,137,
2,118640, Note_on_c,2,68,70,
2,118640, Note_on_c,2,56,139,
2,237296, Note_on_c,2,58,60,
2,237296, Note_on_c,2,64,60,
2,237676, Note_on_c,2,55,60,
2,118840, Note_on_c,2,67,159,
2,237696, Note_on_c,2,58,40,
2,119040, Note_on_c,2,68,70,
2,119040, Note_on_c,2,56,137,
2,119040, Note_on_c,2,64,137,
2,119040, Note_on_c,2,59,137,
2,119040, Note_on_c,2,62,135,
2,238498, Note_on_c,2,63,80,
2,238878, Note_on_c,2,46,60,
2,119440, Note_on_c,2,62,135,
2,119630, Note_on_c,2,61,157,
2,119820, Note_on_c,2,46,136,
2,119820, Note_on_c,2,39,139,
2,119820, Note_on_c,2,60,70,
2,119960, Note_on_c,2,74,178,
2,239958, Note_on_c,2,75,70,
2,240178, Note_on_c,2,74,80,
2,240438, Note_on_c,2,72,157,
2,120480, Note_on_c,2,70,118,
2,241136, Note_on_c,2,56,138,
2,241136, Note_on_c,2,41,117,
2,120570, Note_on_c,2,63,70,
2,120570, Note_on_c,2,68,138,
2,120570, Note_on_c,2,72,60,
2,120660, Note_on_c,2,73,60,
2,120660, Note_on_c,2,57,60,
2,120660, Note_on_c,2,42,156,
2,241336, Note_on_c,2,64,60,
2,241338, Note_on_c,2,69,60,
2,120760, Note_on_c,2,63,177,
2,120760, Note_on_c,2,41,157,
2,120760, Note_on_c,2,68,80,
2,120760, Note_on_c,2,56,70,
2,120760, Note_on_c,2,72,70,
2,121140, Note_on_c,2,60,60,
2,121140, Note_on_c,2,63,155,
2,121140, Note_on_c,2,42,70,
2,121140, Note_on_c,2,51,138,
2,121340, Note_on_c,2,62,60,
2,121340, Note_on_c,2,43,40,
2,121340, Note_on_c,2,53,95,
2,121340, Note_on_c,2,58,139,
2,121720, Note_on_c,2,70,176,
2,121860, Note_on_c,2,82,176,
2,121970, Note_on_c,2,73,117,
2,121980, Note_on_c,2,85,179,
2,122100, Note_on_c,2,72,115,
2,122120, Note_on_c,2,84,135,
2,244476, Note_on_c,2,36,60,
2,122240, Note_on_c,2,52,60,
2,122370, Note_on_c,2,61,155,
2,122490, Note_on_c,2,70,70,
2,244996, Note_on_c,2,66,70,
2,244996, Note_on_c,2,63,138,
2,244996, Note_on_c,2,61,60,
2,122620, Note_on_c,2,42,138,
2,122620, Note_on_c,2,52,50,
2,245516, Note_on_c,2,58,138,
2,122880, Note_on_c,2,51,118,
2,122880, Note_on_c,2,62,118,
2,245776, Note_on_c,2,57,60,
2,245778, Note_on_c,2,41,99,
2,246538, Note_on_c,2,77,90,
2,123270, Note_on_c,2,70,100,
2,123270, Note_on_c,2,62,158,
2,123280, Note_on_c,2,67,70,
2,123520, Note_on_c,2,75,175,
2,123520, Note_on_c,2,68,80,
2,247058, Note_on_c,2,65,157,
2,247058, Note_on_c,2,59,70,
2,123660, Note_on_c,2,74,70,
2,247336, Note_on_c,2,67,117,
2,247338, Note_on_c,2,63,70,
2,247338, Note_on_c,2,58,80,
2,247836, Note_on_c,2,72,70,
2,247836, Note_on_c,2,57,118,
2,248078, Note_on_c,2,63,159,
2,248078, Note_on_c,2,67,60,
2,248078, Note_on_c,2,74,155,
2,124040, Note_on_c,2,58,80,
2,124160, Note_on_c,2,75,90,
2,248336, Note_on_c,2,68,80,
2,248336, Note_on_c,2,63,70,
2,248338, Note_on_c,2,58,155,
2,124170, Note_on_c,2,52,60,
2,248836, Note_on_c,2,70,70,
2,124420, Note_on_c,2,67,80,
2,124420, Note_on_c,2,53,99,
2,248856, Note_on_c,2,56,119,
2,124660, Note_on_c,2,63,80,
2,124920, Note_on_c,2,64,70,
2,125040, Note_on_c,2,63,175,
2,250336, Note_on_c,2,56,117,
2,250336, Note_on_c,2,46,135,
2,125170, Note_on_c,2,62,70,
2,250578, Note_on_c,2,65,178,
2,250596, Note_on_c,2,66,195,
2,250636, Note_on_c,2,67,138,
2,125430, Note_on_c,2,70,80,
2,251098, Note_on_c,2,66,159,
2,125560, Note_on_c,2,67,70,
2,125690, Note_on_c,2,58,60,
2,251638, Note_on_c,2,60,60,
2,125950, Note_on_c,2,43,118,
2,125950, Note_on_c,2,53,50,
2,251916, Note_on_c,2,63,90,
2,125980, Note_on_c,2,65,50,
2,126010, Note_on_c,2,63,40,
2,252118, Note_on_c,2,62,50,
2,252236, Note_on_c,2,63,70,
2,126640, Note_on_c,2,66,217,
2,253476, Note_on_c,2,60,50,
2,253478, Note_on_c,2,55,40,
2,253478, Note_on_c,2,61,50,
2,253478, Note_on_c,2,67,138,
2,126840, Note_on_c,2,70,157,
2,126930, Note_on_c,2,72,70,
2,127030, Note_on_c,2,70,157,
2,254216, Note_on_c,2,74,158,
2,127120, Note_on_c,2,75,70,
2,254436, Note_on_c,2,73,175,
2,127300, Note_on_c,2,68,138,
2,254658, Note_on_c,2,73,119,
2,254716, Note_on_c,2,68,40,
2,127410, Note_on_c,2,64,155,
2,254976, Note_on_c,2,58,95,
2,254978, Note_on_c,2,63,158,
2,127490, Note_on_c,2,48,78,
2,127490, Note_on_c,2,52,95,
2,127610, Note_on_c,2,61,50,
2,127680, Note_on_c,2,63,175,
2,127870, Note_on_c,2,54,137,
2,127870, Note_on_c,2,52,50,
2,127990, Note_on_c,2,52,118,
2,127990, Note_on_c,2,54,60,
2,128380, Note_on_c,2,35,80,
2,128380, Note_on_c,2,36,80,
2,128630, Note_on_c,2,24,80,
2,257816, Note_on_c,2,79,216,
2,257816, Note_on_c,2,67,110,
2,129030, Note_on_c,2,41,135,
2,129030, Note_on_c,2,56,60,
2,129030, Note_on_c,2,68,155,
2,129040, Note_on_c,2,72,40,
2,258098, Note_on_c,2,75,60,
2,129050, Note_on_c,2,80,158,
2,129270, Note_on_c,2,72,139,
2,129270, Note_on_c,2,67,118,
2,258558, Note_on_c,2,75,158,
2,129280, Note_on_c,2,79,157,
2,129400, Note_on_c,2,65,99,
2,258836, Note_on_c,2,77,60,
2,129660, Note_on_c,2,63,50,
2,129660, Note_on_c,2,75,80,
2,129780, Note_on_c,2,65,40,
2,259578, Note_on_c,2,46,119,
2,259578, Note_on_c,2,56,40,
2,129790, Note_on_c,2,68,50,
2,129790, Note_on_c,2,72,50,
2,129800, Note_on_c,2,77,60,
2,260056, Note_on_c,2,91,50,
2,130050, Note_on_c,2,89,40,
2,130090, Note_on_c,2,86,76,
2,130110, Note_on_c,2,84,137,
2,260318, Note_on_c,2,82,139,
2,130180, Note_on_c,2,56,50,
2,130180, Note_on_c,2,80,156,
2,130180, Note_on_c,2,62,50,
2,260436, Note_on_c,2,79,135,
2,130250, Note_on_c,2,78,139,
2,130280, Note_on_c,2,77,136,
2,130300, Note_on_c,2,76,30,
2,130320, Note_on_c,2,75,60,
2,260716, Note_on_c,2,73,156,
2,130380, Note_on_c,2,72,135,
2,130430, Note_on_c,2,70,60,
2,130460, Note_on_c,2,68,138,
2,130490, Note_on_c,2,67,139,
2,130560, Note_on_c,2,61,136,
2,130560, Note_on_c,2,58,70,
2,130560, Note_on_c,2,55,118,
2,130730, Note_on_c,2,67,135,
2,130750, Note_on_c,2,68,175,
2,130770, Note_on_c,2,69,80,
2,261596, Note_on_c,2,70,138,
2,130960, Note_on_c,2,61,50,
2,130960, Note_on_c,2,46,50,
2,130970, Note_on_c,2,55,50,
2,261976, Note_on_c,2,75,0,
2,131050, Note_on_c,2,68,176,
2,131140, Note_on_c,2,67,80,
2,131240, Note_on_c,2,65,156,
2,131310, Note_on_c,2,66,70,
2,131330, Note_on_c,2,67,60,
2,131340, Note_on_c,2,40,138,
2,262718, Note_on_c,2,68,80,
2,131530, Note_on_c,2,47,60,
2,263436, Note_on_c,2,61,70,
2,263438, Note_on_c,2,62,70,
2,131720, Note_on_c,2,56,155,
2,131910, Note_on_c,2,70,90,
2,132210, Note_on_c,2,75,90,
2,264436, Note_on_c,2,61,159,
2,264436, Note_on_c,2,71,176,
2,264438, Note_on_c,2,56,70,
2,132230, Note_on_c,2,66,138,
2,264698, Note_on_c,2,59,156,
2,132350, Note_on_c,2,54,156,
2,132350, Note_on_c,2,69,135,
2,264716, Note_on_c,2,74,179,
2,132360, Note_on_c,2,64,70,
2,132470, Note_on_c,2,72,70,
2,132470, Note_on_c,2,68,80,
2,264956, Note_on_c,2,58,157,
2,264958, Note_on_c,2,53,60,
2,132480, Note_on_c,2,63,158,
2,132660, Note_on_c,2,56,138,
2,132660, Note_on_c,2,51,138,
2,132660, Note_on_c,2,61,80,
2,132660, Note_on_c,2,70,80,
2,265336, Note_on_c,2,66,175,
2,132860, Note_on_c,2,72,155,
2,132860, Note_on_c,2,53,50,
2,132860, Note_on_c,2,58,70,
2,132860, Note_on_c,2,68,80,
2,132860, Note_on_c,2,63,175,
2,266098, Note_on_c,2,69,155,
2,266098, Note_on_c,2,73,178,
2,266098, Note_on_c,2,54,116,
2,266098, Note_on_c,2,59,119,
2,133050, Note_on_c,2,64,70,
2,266496, Note_on_c,2,53,115,
2,266496, Note_on_c,2,58,158,
2,266498, Note_on_c,2,68,177,
2,133250, Note_on_c,2,63,80,
2,266876, Note_on_c,2,42,159,
2,266878, Note_on_c,2,61,70,
2,133440, Note_on_c,2,64,157,
2,133440, Note_on_c,2,51,135,
2,133630, Note_on_c,2,53,60,
2,133630, Note_on_c,2,43,118,
2,133630, Note_on_c,2,65,175,
2,133630, Note_on_c,2,62,139,
2,267676, Note_on_c,2,70,100,
2,267676, Note_on_c,2,50,80,
2,268058, Note_on_c,2,74,90,
2,268058, Note_on_c,2,70,90,
2,268058, Note_on_c,2,60,156,
2,134030, Note_on_c,2,65,177,
2,134030, Note_on_c,2,55,135,
2,268438, Note_on_c,2,73,90,
2,134220, Note_on_c,2,54,136,
2,134220, Note_on_c,2,59,135,
2,134220, Note_on_c,2,69,139,
2,134220, Note_on_c,2,64,158,
2,268816, Note_on_c,2,75,196,
2,268818, Note_on_c,2,58,70,
2,268818, Note_on_c,2,68,178,
2,268818, Note_on_c,2,63,90,
2,268818, Note_on_c,2,52,137,
2,134600, Note_on_c,2,73,100,
2,134790, Note_on_c,2,59,135,
2,134790, Note_on_c,2,73,90,
2,134980, Note_on_c,2,49,159,
2,134980, Note_on_c,2,85,90,
2,134980, Note_on_c,2,78,176,
2,270316, Note_on_c,2,74,95,
2,270338, Note_on_c,2,79,50,
2,270338, Note_on_c,2,48,50,
2,135170, Note_on_c,2,58,135,
2,270358, Note_on_c,2,82,70,
2,270378, Note_on_c,2,86,70,
2,271098, Note_on_c,2,36,159,
2,135670, Note_on_c,2,82,100,
2,135670, Note_on_c,2,89,199,
2,271356, Note_on_c,2,77,177,
2,135790, Note_on_c,2,87,100,
2,135790, Note_on_c,2,75,199,
2,135790, Note_on_c,2,82,178,
2,135920, Note_on_c,2,55,97,
2,135920, Note_on_c,2,58,115,
2,135920, Note_on_c,2,51,50,
2,135920, Note_on_c,2,82,80,
2,135920, Note_on_c,2,62,98,
2,135920, Note_on_c,2,74,80,
2,135920, Note_on_c,2,86,176,
2,272378, Note_on_c,2,84,175,
2,136190, Note_on_c,2,72,80,
2,136310, Note_on_c,2,51,137,
2,136310, Note_on_c,2,57,60,
2,136310, Note_on_c,2,62,50,
2,272636, Note_on_c,2,74,70,
2,136320, Note_on_c,2,86,156,
2,136440, Note_on_c,2,75,70,
2,272916, Note_on_c,2,87,90,
2,273158, Note_on_c,2,42,176,
2,273416, Note_on_c,2,74,60,
2,273418, Note_on_c,2,41,175,
2,273418, Note_on_c,2,79,137,
2,136710, Note_on_c,2,82,159,
2,273438, Note_on_c,2,86,178,
2,273918, Note_on_c,2,75,70,
2,136960, Note_on_c,2,79,136,
2,273936, Note_on_c,2,82,80,
2,273938, Note_on_c,2,87,90,
2,137100, Note_on_c,2,55,96,
2,137100, Note_on_c,2,51,60,
2,137100, Note_on_c,2,84,60,
2,137100, Note_on_c,2,62,50,
2,137100, Note_on_c,2,58,70,
2,137100, Note_on_c,2,79,60,
2,274236, Note_on_c,2,72,155,
2,137350, Note_on_c,2,86,138,
2,137350, Note_on_c,2,79,60,
2,137350, Note_on_c,2,74,115,
2,137490, Note_on_c,2,56,50,
2,137490, Note_on_c,2,41,116,
2,137490, Note_on_c,2,51,60,
2,137490, Note_on_c,2,70,60,
2,137490, Note_on_c,2,82,70,
2,275758, Note_on_c,2,72,100,
2,275758, Note_on_c,2,66,110,
2,137880, Note_on_c,2,67,90,
2,276276, Note_on_c,2,58,157,
2,138170, Note_on_c,2,62,138,
2,276396, Note_on_c,2,63,60,
2,276516, Note_on_c,2,46,50,
2,276516, Note_on_c,2,39,60,
2,138620, Note_on_c,2,43,157,
2,277256, Note_on_c,2,65,195,
2,277258, Note_on_c,2,66,110,
2,138640, Note_on_c,2,67,196,
2,138890, Note_on_c,2,70,90,
2,139020, Note_on_c,2,68,195,
2,139020, Note_on_c,2,44,70,
2,139030, Note_on_c,2,70,119,
2,278318, Note_on_c,2,66,70,
2,278576, Note_on_c,2,63,156,
2,139400, Note_on_c,2,45,60,
2,278818, Note_on_c,2,58,155,
2,139540, Note_on_c,2,60,95,
2,139670, Note_on_c,2,63,137,
2,139790, Note_on_c,2,46,139,
2,139790, Note_on_c,2,66,90,
2,139820, Note_on_c,2,67,60,
2,139930, Note_on_c,2,63,80,
2,140180, Note_on_c,2,34,70,
2,280618, Note_on_c,2,51,179,
2,140310, Note_on_c,2,58,90,
2,140310, Note_on_c,2,36,70,
2,140310, Note_on_c,2,63,176,
2,140430, Note_on_c,2,57,70,
2,140430, Note_on_c,2,35,50,
2,140430, Note_on_c,2,62,60,
2,140560, Note_on_c,2,61,175,
2,140560, Note_on_c,2,56,156,
2,140560, Note_on_c,2,34,80,
2,140940, Note_on_c,2,45,118,
2,140940, Note_on_c,2,61,50,
2,140940, Note_on_c,2,59,50,
2,140940, Note_on_c,2,64,60,
2,140940, Note_on_c,2,55,50,
2,282376, Note_on_c,2,60,30,
2,282376, Note_on_c,2,55,30,
2,282378, Note_on_c,2,58,50,
2,141190, Note_on_c,2,63,60,
2,141310, Note_on_c,2,44,118,
2,141310, Note_on_c,2,51,50,
2,141710, Note_on_c,2,63,237,
2,283436, Note_on_c,2,55,159,
2,283696, Note_on_c,2,65,70,
2,141870, Note_on_c,2,63,155,
2,141900, Note_on_c,2,62,70,
2,142020, Note_on_c,2,63,70,
2,142080, Note_on_c,2,44,60,
2,142080, Note_on_c,2,72,80,
2,284436, Note_on_c,2,60,60,
2,284796, Note_on_c,2,44,70,
2,142460, Note_on_c,2,54,60,
2,142580, Note_on_c,2,59,115,
2,142580, Note_on_c,2,44,60,
2,142580, Note_on_c,2,63,70,
2,142580, Note_on_c,2,58,115,
2,142840, Note_on_c,2,61,115,
2,142840, Note_on_c,2,58,50,
2,142840, Note_on_c,2,43,40,
2,142840, Note_on_c,2,53,79,
2,142840, Note_on_c,2,57,50,
2,143240, Note_on_c,2,55,40,
2,143240, Note_on_c,2,61,50,
2,286638, Note_on_c,2,65,40,
2,143370, Note_on_c,2,70,80,
2,286878, Note_on_c,2,72,90,
2,143500, Note_on_c,2,73,177,
2,143570, Note_on_c,2,75,80,
2,143630, Note_on_c,2,73,80,
2,143630, Note_on_c,2,36,117,
2,287278, Note_on_c,2,52,40,
2,143930, Note_on_c,2,70,117,
2,143930, Note_on_c,2,72,116,
2,287876, Note_on_c,2,66,119,
2,287876, Note_on_c,2,64,116,
2,144020, Note_on_c,2,58,50,
2,144020, Note_on_c,2,48,50,
2,288636, Note_on_c,2,67,40,
2,144320, Note_on_c,2,64,40,
2,144320, Note_on_c,2,56,40,
2,144330, Note_on_c,2,60,30,
2,288776, Note_on_c,2,41,98,
2,288776, Note_on_c,2,50,40,
2,289536, Note_on_c,2,55,95,
2,289538, Note_on_c,2,65,218,
2,289538, Note_on_c,2,56,118,
2,289538, Note_on_c,2,60,50,
2,144900, Note_on_c,2,67,118,
2,144920, Note_on_c,2,65,135,
2,144960, Note_on_c,2,64,60,
2,145070, Note_on_c,2,65,176,
2,145150, Note_on_c,2,36,118,
2,145150, Note_on_c,2,71,70,
2,290338, Note_on_c,2,72,157,
2,145250, Note_on_c,2,71,70,
2,145260, Note_on_c,2,72,70,
2,145340, Note_on_c,2,71,138,
2,290716, Note_on_c,2,72,138,
2,145430, Note_on_c,2,71,60,
2,145440, Note_on_c,2,72,70,
2,145520, Note_on_c,2,71,60,
2,145530, Note_on_c,2,55,99,
2,145530, Note_on_c,2,56,118,
2,145530, Note_on_c,2,60,50,
2,145530, Note_on_c,2,72,70,
2,145900, Note_on_c,2,74,90,
2,145910, Note_on_c,2,66,199,
2,145910, Note_on_c,2,54,70,
2,291836, Note_on_c,2,65,158,
2,292876, Note_on_c,2,60,40,
2,292876, Note_on_c,2,69,40,
2,292878, Note_on_c,2,72,50,
2,292878, Note_on_c,2,54,99,
2,146440, Note_on_c,2,63,40,
2,146560, Note_on_c,2,62,116,
2,146560, Note_on_c,2,74,70,
2,293398, Note_on_c,2,66,70,
2,293398, Note_on_c,2,77,60,
2,293398, Note_on_c,2,65,116,
2,146700, Note_on_c,2,72,136,
2,293416, Note_on_c,2,57,97,
2,293576, Note_on_c,2,75,70,
2,293578, Note_on_c,2,63,155,
2,146870, Note_on_c,2,74,138,
2,293756, Note_on_c,2,69,60,
2,146880, Note_on_c,2,62,60,
2,146880, Note_on_c,2,63,70,
2,146880, Note_on_c,2,54,50,
2,146970, Note_on_c,2,60,139,
2,293956, Note_on_c,2,72,139,
2,294118, Note_on_c,2,66,90,
2,147060, Note_on_c,2,71,155,
2,147060, Note_on_c,2,59,60,
2,147060, Note_on_c,2,60,60,
2,147070, Note_on_c,2,51,50,
2,147140, Note_on_c,2,57,138,
2,147150, Note_on_c,2,69,50,
2,147240, Note_on_c,2,68,80,
2,294496, Note_on_c,2,56,156,
2,294496, Note_on_c,2,63,80,
2,294498, Note_on_c,2,57,60,
2,147340, Note_on_c,2,54,137,
2,147340, Note_on_c,2,66,80,
2,147440, Note_on_c,2,63,90,
2,147440, Note_on_c,2,60,159,
2,147440, Note_on_c,2,55,138,
2,147440, Note_on_c,2,67,80,
2,294896, Note_on_c,2,62,80,
2,294896, Note_on_c,2,48,70,
2,295656, Note_on_c,2,36,80,
2,147830, Note_on_c,2,67,110,
2,295916, Note_on_c,2,68,50,
2,147980, Note_on_c,2,67,10,
2,148020, Note_on_c,2,66,50,
2,296238, Note_on_c,2,54,156,
2,148120, Note_on_c,2,67,155,
2,296416, Note_on_c,2,44,138,
2,296418, Note_on_c,2,70,159,
2,148340, Note_on_c,2,63,136,
2,148410, Note_on_c,2,70,175,
2,297098, Note_on_c,2,63,60,
2,148600, Note_on_c,2,60,60,
2,148600, Note_on_c,2,54,137,
2,148600, Note_on_c,2,72,80,
2,148750, Note_on_c,2,63,117,
2,148810, Note_on_c,2,75,100,
2,148950, Note_on_c,2,43,60,
2,149010, Note_on_c,2,36,70,
2,149020, Note_on_c,2,74,70,
2,298298, Note_on_c,2,63,157,
2,149150, Note_on_c,2,75,80,
2,298556, Note_on_c,2,74,70,
2,298796, Note_on_c,2,51,50,
2,298796, Note_on_c,2,55,40,
2,298796, Note_on_c,2,75,90,
2,298798, Note_on_c,2,63,90,
2,298798, Note_on_c,2,58,137,
2,298798, Note_on_c,2,62,96,
2,299076, Note_on_c,2,74,138,
2,299316, Note_on_c,2,75,178,
2,149780, Note_on_c,2,77,90,
2,149900, Note_on_c,2,42,80,
2,150030, Note_on_c,2,58,90,
2,150140, Note_on_c,2,77,157,
2,150140, Note_on_c,2,57,70,
2,300298, Note_on_c,2,71,90,
2,150150, Note_on_c,2,65,176,
2,150280, Note_on_c,2,41,80,
2,150400, Note_on_c,2,74,90,
2,150520, Note_on_c,2,58,80,
2,301056, Note_on_c,2,74,197,
2,301058, Note_on_c,2,70,100,
2,150530, Note_on_c,2,67,176,
2,302356, Note_on_c,2,74,110,
2,302616, Note_on_c,2,70,90,
2,302616, Note_on_c,2,72,159,
2,302618, Note_on_c,2,58,158,
2,151310, Note_on_c,2,66,176,
2,151310, Note_on_c,2,64,138,
2,151920, Note_on_c,2,72,90,
2,152060, Note_on_c,2,42,80,
2,152060, Note_on_c,2,71,159,
2,152280, Note_on_c,2,64,118,
2,152280, Note_on_c,2,56,40,
2,304576, Note_on_c,2,49,60,
2,304576, Note_on_c,2,57,50,
2,152680, Note_on_c,2,71,80,
2,152680, Note_on_c,2,64,80,
2,152680, Note_on_c,2,57,158,
2,305676, Note_on_c,2,43,137,
2,305678, Note_on_c,2,72,70,
2,152840, Note_on_c,2,65,137,
2,152840, Note_on_c,2,50,70,
2,152840, Note_on_c,2,58,80,
2,153210, Note_on_c,2,56,159,
2,153210, Note_on_c,2,43,50,
2,306436, Note_on_c,2,68,175,
2,306436, Note_on_c,2,36,117,
2,306438, Note_on_c,2,63,80,
2,306938, Note_on_c,2,67,118,
2,153470, Note_on_c,2,63,70,
2,153470, Note_on_c,2,60,60,
2,306956, Note_on_c,2,56,115,
2,153600, Note_on_c,2,41,60,
2,307216, Note_on_c,2,48,118,
2,307718, Note_on_c,2,68,155,
2,307736, Note_on_c,2,72,80,
2,153870, Note_on_c,2,75,196,
2,307758, Note_on_c,2,80,100,
2,307976, Note_on_c,2,55,60,
2,307976, Note_on_c,2,60,137,
2,307976, Note_on_c,2,56,70,
2,153990, Note_on_c,2,72,50,
2,153990, Note_on_c,2,75,70,
2,153990, Note_on_c,2,67,60,
2,154000, Note_on_c,2,79,158,
2,154110, Note_on_c,2,65,115,
2,154110, Note_on_c,2,72,139,
2,154120, Note_on_c,2,77,70,
2,308476, Note_on_c,2,63,139,
2,154240, Note_on_c,2,75,70,
2,154350, Note_on_c,2,65,50,
2,308718, Note_on_c,2,68,138,
2,154360, Note_on_c,2,72,139,
2,154360, Note_on_c,2,56,139,
2,154360, Note_on_c,2,46,155,
2,308738, Note_on_c,2,77,157,
2,154610, Note_on_c,2,77,40,
2,309236, Note_on_c,2,80,60,
2,154620, Note_on_c,2,84,70,
2,154630, Note_on_c,2,89,176,
2,309498, Note_on_c,2,56,70,
2,154750, Note_on_c,2,62,138,
2,154750, Note_on_c,2,65,60,
2,310216, Note_on_c,2,46,156,
2,310276, Note_on_c,2,52,70,
2,155150, Note_on_c,2,70,60,
2,155150, Note_on_c,2,55,60,
2,310318, Note_on_c,2,73,80,
2,155160, Note_on_c,2,61,178,
2,310338, Note_on_c,2,76,176,
2,155170, Note_on_c,2,82,100,
2,310818, Note_on_c,2,68,70,
2,155410, Note_on_c,2,72,80,
2,155410, Note_on_c,2,75,197,
2,310836, Note_on_c,2,80,100,
2,155530, Note_on_c,2,55,50,
2,155530, Note_on_c,2,61,60,
2,311076, Note_on_c,2,58,80,
2,311076, Note_on_c,2,64,60,
2,311078, Note_on_c,2,72,70,
2,311078, Note_on_c,2,67,70,
2,311078, Note_on_c,2,75,139,
2,155540, Note_on_c,2,79,80,
2,155770, Note_on_c,2,77,157,
2,155770, Note_on_c,2,65,80,
2,311556, Note_on_c,2,72,70,
2,155910, Note_on_c,2,80,90,
2,311836, Note_on_c,2,53,157,
2,311836, Note_on_c,2,75,90,
2,311838, Note_on_c,2,72,196,
2,155920, Note_on_c,2,68,90,
2,156040, Note_on_c,2,46,198,
2,312556, Note_on_c,2,70,196,
2,312558, Note_on_c,2,61,90,
2,312558, Note_on_c,2,62,175,
2,312558, Note_on_c,2,66,195,
2,312816, Note_on_c,2,47,80,
2,312818, Note_on_c,2,40,80,
2,156670, Note_on_c,2,74,90,
2,156670, Note_on_c,2,75,195,
2,156670, Note_on_c,2,46,90,
2,313356, Note_on_c,2,70,199,
2,313356, Note_on_c,2,39,179,
2,313358, Note_on_c,2,65,90,
2,157080, Note_on_c,2,55,60,
2,157080, Note_on_c,2,60,70,
2,157080, Note_on_c,2,58,177,
2,157080, Note_on_c,2,75,198,
2,157080, Note_on_c,2,84,90,
2,157080, Note_on_c,2,86,90,
2,157330, Note_on_c,2,86,80,
2,314758, Note_on_c,2,84,80,
2,314818, Note_on_c,2,82,60,
2,314936, Note_on_c,2,84,100,
2,157590, Note_on_c,2,41,156,
2,157820, Note_on_c,2,56,90,
2,157820, Note_on_c,2,68,90,
2,157820, Note_on_c,2,63,90,
2,157820, Note_on_c,2,60,157,
2,316438, Note_on_c,2,58,80,
2,316438, Note_on_c,2,43,155,
2,158310, Note_on_c,2,62,137,
2,158400, Note_on_c,2,65,138,
2,158500, Note_on_c,2,70,90,
2,158590, Note_on_c,2,57,70,
2,158590, Note_on_c,2,42,80,
2,158600, Note_on_c,2,72,100,
2,158700, Note_on_c,2,73,50,
2,317496, Note_on_c,2,74,60,
2,317578, Note_on_c,2,75,100,
2,158890, Note_on_c,2,72,80,
2,158970, Note_on_c,2,43,138,
2,158970, Note_on_c,2,58,159,
2,158980, Note_on_c,2,74,178,
2,159090, Note_on_c,2,70,90,
2,159180, Note_on_c,2,69,138,
2,159190, Note_on_c,2,70,57,
2,159230, Note_on_c,2,69,60,
2,159290, Note_on_c,2,67,70,
2,159350, Note_on_c,2,42,60,
2,318716, Note_on_c,2,58,50,
2,159360, Note_on_c,2,66,70,
2,159360, Note_on_c,2,52,60,
2,318776, Note_on_c,2,68,98,
2,159410, Note_on_c,2,66,40,
2,318956, Note_on_c,2,64,159,
2,159550, Note_on_c,2,63,70,
2,319356, Note_on_c,2,62,139,
2,159740, Note_on_c,2,51,98,
2,159740, Note_on_c,2,41,50,
2,159750, Note_on_c,2,60,60,
2,160130, Note_on_c,2,57,138,
2,160130, Note_on_c,2,51,157,
2,160130, Note_on_c,2,60,60,
2,160130, Note_on_c,2,77,110,
2,320478, Note_on_c,2,75,90,
2,160330, Note_on_c,2,74,195,
2,160440, Note_on_c,2,72,177,
2,160530, Note_on_c,2,36,50,
2,160530, Note_on_c,2,74,178,
2,160900, Note_on_c,2,42,70,
2,160900, Note_on_c,2,58,115,
2,161030, Note_on_c,2,63,159,
2,161160, Note_on_c,2,75,176,
2,161270, Note_on_c,2,58,60,
2,161270, Note_on_c,2,43,50,
2,322556, Note_on_c,2,70,155,
2,161540, Note_on_c,2,67,80,
2,323338, Note_on_c,2,65,96,
2,161670, Note_on_c,2,70,80,
2,161670, Note_on_c,2,61,99,
2,161670, Note_on_c,2,55,40,
2,161670, Note_on_c,2,58,139,
2,161940, Note_on_c,2,72,156,
2,162060, Note_on_c,2,52,95,
2,162060, Note_on_c,2,73,90,
2,162060, Note_on_c,2,36,40,
2,162130, Note_on_c,2,75,118,
2,162220, Note_on_c,2,72,60,
2,324898, Note_on_c,2,61,96,
2,162450, Note_on_c,2,52,40,
2,162450, Note_on_c,2,58,136,
2,162740, Note_on_c,2,70,100,
2,162820, Note_on_c,2,48,115,
2,162820, Note_on_c,2,41,60,
2,162830, Note_on_c,2,68,157,
2,325896, Note_on_c,2,67,60,
2,163010, Note_on_c,2,68,136,
2,326156, Note_on_c,2,72,115,
2,163140, Note_on_c,2,75,90,
2,326418, Note_on_c,2,67,76,
2,163210, Note_on_c,2,56,50,
2,163210, Note_on_c,2,60,50,
2,163210, Note_on_c,2,77,157,
2,163210, Note_on_c,2,63,60,
2,326618, Note_on_c,2,79,80,
2,326818, Note_on_c,2,80,177,
2,163500, Note_on_c,2,81,80,
2,327198, Note_on_c,2,56,138,
2,163600, Note_on_c,2,46,70,
2,163600, Note_on_c,2,82,177,
2,163630, Note_on_c,2,83,40,
2,163660, Note_on_c,2,82,60,
2,327438, Note_on_c,2,81,158,
2,163800, Note_on_c,2,80,155,
2,163830, Note_on_c,2,81,30,
2,163870, Note_on_c,2,80,60,
2,327836, Note_on_c,2,79,175,
2,327978, Note_on_c,2,62,60,
2,163990, Note_on_c,2,56,135,
2,163990, Note_on_c,2,78,80,
2,164030, Note_on_c,2,79,97,
2,164050, Note_on_c,2,78,30,
2,164100, Note_on_c,2,74,80,
2,164190, Note_on_c,2,73,138,
2,328578, Note_on_c,2,71,175,
2,164370, Note_on_c,2,70,178,
2,164370, Note_on_c,2,39,155,
2,164370, Note_on_c,2,46,70,
2,164500, Note_on_c,2,71,70,
2,164510, Note_on_c,2,70,177,
2,164570, Note_on_c,2,69,116,
2,164670, Note_on_c,2,70,80,
2,329496, Note_on_c,2,44,139,
2,329496, Note_on_c,2,54,115,
2,329498, Note_on_c,2,77,177,
2,329758, Note_on_c,2,74,195,
2,329876, Note_on_c,2,70,70,
2,330138, Note_on_c,2,65,70,
2,165120, Note_on_c,2,53,50,
2,165120, Note_on_c,2,43,50,
2,330258, Note_on_c,2,63,80,
2,330538, Note_on_c,2,60,50,
2,165320, Note_on_c,2,61,156,
2,165460, Note_on_c,2,63,90,
2,165510, Note_on_c,2,36,115,
2,165510, Note_on_c,2,52,50,
2,165520, Note_on_c,2,64,136,
2,165660, Note_on_c,2,67,20,
2,331416, Note_on_c,2,73,110,
2,331698, Note_on_c,2,71,40,
2,331796, Note_on_c,2,41,60,
2,331796, Note_on_c,2,72,195,
2,331798, Note_on_c,2,48,118,
2,166040, Note_on_c,2,67,70,
2,166290, Note_on_c,2,55,119,
2,166290, Note_on_c,2,56,70,
2,166290, Note_on_c,2,60,60,
2,166420, Note_on_c,2,72,158,
2,166480, Note_on_c,2,75,139,
2,333096, Note_on_c,2,80,70,
2,166600, Note_on_c,2,82,90,
2,166660, Note_on_c,2,84,196,
2,166660, Note_on_c,2,72,195,
2,166660, Note_on_c,2,52,136,
2,333336, Note_on_c,2,36,60,
2,333618, Note_on_c,2,72,100,
2,166810, Note_on_c,2,84,100,
2,166880, Note_on_c,2,72,115,
2,333836, Note_on_c,2,84,119,
2,333896, Note_on_c,2,72,118,
2,166980, Note_on_c,2,84,50,
2,334016, Note_on_c,2,72,50,
2,167040, Note_on_c,2,84,40,
2,334138, Note_on_c,2,61,135,
2,334138, Note_on_c,2,72,117,
2,334138, Note_on_c,2,52,135,
2,167070, Note_on_c,2,58,80,
2,334216, Note_on_c,2,84,50,
2,334276, Note_on_c,2,72,40,
2,334356, Note_on_c,2,84,119,
2,334416, Note_on_c,2,72,97,
2,167240, Note_on_c,2,84,119,
2,334536, Note_on_c,2,72,50,
2,167310, Note_on_c,2,84,60,
2,167330, Note_on_c,2,72,95,
2,167370, Note_on_c,2,84,135,
2,167400, Note_on_c,2,72,40,
2,167430, Note_on_c,2,84,40,
2,167440, Note_on_c,2,56,155,
2,167440, Note_on_c,2,41,70,
2,167460, Note_on_c,2,72,50,
2,335018, Note_on_c,2,84,50,
2,335078, Note_on_c,2,72,40,
2,167570, Note_on_c,2,84,97,
2,335216, Note_on_c,2,72,97,
2,167640, Note_on_c,2,84,95,
2,167670, Note_on_c,2,72,40,
2,167710, Note_on_c,2,84,98,
2,335478, Note_on_c,2,72,40,
2,335556, Note_on_c,2,84,50,
2,167800, Note_on_c,2,72,40,
2,335658, Note_on_c,2,60,138,
2,167830, Note_on_c,2,53,138,
2,167830, Note_on_c,2,56,159,
2,167840, Note_on_c,2,84,95,
2,167870, Note_on_c,2,72,96,
2,335836, Note_on_c,2,84,60,
2,335896, Note_on_c,2,72,40,
2,167980, Note_on_c,2,84,40,
2,168010, Note_on_c,2,72,96,
2,336098, Note_on_c,2,84,78,
2,336156, Note_on_c,2,72,98,
2,336236, Note_on_c,2,84,40,
2,168140, Note_on_c,2,72,118,
2,336378, Note_on_c,2,56,137,
2,336378, Note_on_c,2,46,155,
2,168190, Note_on_c,2,50,70,
2,168390, Note_on_c,2,82,110,
2,336996, Note_on_c,2,80,100,
2,168580, Note_on_c,2,62,70,
2,168580, Note_on_c,2,56,70,
2,168580, Note_on_c,2,78,176,
2,337236, Note_on_c,2,80,99,
2,168630, Note_on_c,2,78,70,
2,168690, Note_on_c,2,74,176,
2,168780, Note_on_c,2,73,158,
2,337756, Note_on_c,2,71,157,
2,337938, Note_on_c,2,46,155,
2,168970, Note_on_c,2,70,175,
2,168970, Note_on_c,2,39,70,
2,169100, Note_on_c,2,74,100,
2,169110, Note_on_c,2,77,157,
2,338256, Note_on_c,2,75,58,
2,338736, Note_on_c,2,51,70,
2,338736, Note_on_c,2,62,60,
2,338736, Note_on_c,2,58,157,
2,339498, Note_on_c,2,41,80,
2,169950, Note_on_c,2,67,117,
2,170040, Note_on_c,2,68,198,
2,340258, Note_on_c,2,55,60,
2,340258, Note_on_c,2,60,60,
2,340258, Note_on_c,2,56,70,
2,170130, Note_on_c,2,72,178,
2,170230, Note_on_c,2,75,197,
2,340636, Note_on_c,2,79,195,
2,170360, Note_on_c,2,80,157,
2,170400, Note_on_c,2,81,60,
2,340858, Note_on_c,2,82,100,
2,340998, Note_on_c,2,81,90,
2,340998, Note_on_c,2,42,177,
2,170620, Note_on_c,2,81,90,
2,170620, Note_on_c,2,78,100,
2,341416, Note_on_c,2,77,80,
2,341618, Note_on_c,2,75,217,
2,341756, Note_on_c,2,60,118,
2,341758, Note_on_c,2,54,70,
2,341778, Note_on_c,2,74,176,
2,170900, Note_on_c,2,75,99,
2,341878, Note_on_c,2,74,70,
2,341998, Note_on_c,2,72,175,
2,171070, Note_on_c,2,71,176,
2,171190, Note_on_c,2,70,217,
2,342518, Note_on_c,2,43,70,
2,171260, Note_on_c,2,69,117,
2,171400, Note_on_c,2,70,137,
2,342916, Note_on_c,2,74,80,
2,171590, Note_on_c,2,77,60,
2,171640, Note_on_c,2,58,156,
2,343296, Note_on_c,2,52,138,
2,343298, Note_on_c,2,48,60,
2,343298, Note_on_c,2,81,177,
2,171780, Note_on_c,2,82,80,
2,343678, Note_on_c,2,84,90,
2,171970, Note_on_c,2,85,110,
2,172020, Note_on_c,2,41,155,
2,172020, Note_on_c,2,48,70,
2,344058, Note_on_c,2,86,178,
2,172090, Note_on_c,2,81,97,
2,172150, Note_on_c,2,84,199,
2,172220, Note_on_c,2,82,177,
2,172360, Note_on_c,2,72,50,
2,344818, Note_on_c,2,57,60,
2,172410, Note_on_c,2,60,118,
2,172410, Note_on_c,2,51,70,
2,172410, Note_on_c,2,75,90,
2,172610, Note_on_c,2,80,216,
2,345258, Note_on_c,2,81,80,
2,172790, Note_on_c,2,36,60,
2,172800, Note_on_c,2,79,178,
2,345878, Note_on_c,2,69,70,
2,346378, Note_on_c,2,57,137,
2,173190, Note_on_c,2,62,138,
2,173190, Note_on_c,2,51,70,
2,346656, Note_on_c,2,70,100,
2,346916, Note_on_c,2,74,195,
2,173580, Note_on_c,2,51,135,
2,173580, Note_on_c,2,41,60,
2,347176, Note_on_c,2,75,110,
2,347456, Note_on_c,2,67,30,
2,173850, Note_on_c,2,68,100,
2,173970, Note_on_c,2,60,139,
2,173970, Note_on_c,2,55,70,
2,173970, Note_on_c,2,56,158,
2,173980, Note_on_c,2,72,179,
2,174110, Note_on_c,2,75,216,
2,174110, Note_on_c,2,63,218,
2,348476, Note_on_c,2,68,80,
2,348698, Note_on_c,2,34,196,
2,174350, Note_on_c,2,72,157,
2,348978, Note_on_c,2,63,215,
2,348978, Note_on_c,2,75,100,
2,174610, Note_on_c,2,72,158,
2,349458, Note_on_c,2,56,197,
2,174730, Note_on_c,2,75,218,
2,174870, Note_on_c,2,72,156,
2,349978, Note_on_c,2,68,195,
2,350196, Note_on_c,2,65,138,
2,175100, Note_on_c,2,43,138,
2,175100, Note_on_c,2,66,179,
2,175100, Note_on_c,2,53,118,
2,175120, Note_on_c,2,67,80,
2,350498, Note_on_c,2,70,100,
2,175490, Note_on_c,2,55,119,
2,350996, Note_on_c,2,60,60,
2,350996, Note_on_c,2,65,135,
2,350996, Note_on_c,2,61,70,
2,351758, Note_on_c,2,49,157,
2,175880, Note_on_c,2,52,60,
2,175960, Note_on_c,2,71,70,
2,176010, Note_on_c,2,68,60,
2,176050, Note_on_c,2,69,118,
2,176100, Note_on_c,2,72,157,
2,352298, Note_on_c,2,69,117,
2,176190, Note_on_c,2,70,136,
2,176240, Note_on_c,2,73,175,
2,176550, Note_on_c,2,72,159,
2,353158, Note_on_c,2,75,80,
2,176600, Note_on_c,2,72,60,
2,353276, Note_on_c,2,71,138,
2,353298, Note_on_c,2,51,155,
2,176690, Note_on_c,2,70,80,
2,353436, Note_on_c,2,73,80,
2,176740, Note_on_c,2,70,115,
2,176770, Note_on_c,2,69,139,
2,176810, Note_on_c,2,68,70,
2,353658, Note_on_c,2,71,70,
2,176860, Note_on_c,2,68,136,
2,176890, Note_on_c,2,67,60,
2,176930, Note_on_c,2,66,70,
2,176950, Note_on_c,2,70,70,
2,176980, Note_on_c,2,66,156,
2,177010, Note_on_c,2,65,70,
2,177050, Note_on_c,2,63,155,
2,177070, Note_on_c,2,66,70,
2,354216, Note_on_c,2,63,119,
2,354278, Note_on_c,2,62,60,
2,354356, Note_on_c,2,61,80,
2,354398, Note_on_c,2,64,137,
2,177230, Note_on_c,2,61,60,
2,177260, Note_on_c,2,60,138,
2,354596, Note_on_c,2,58,80,
2,177320, Note_on_c,2,61,70,
2,354716, Note_on_c,2,58,158,
2,177380, Note_on_c,2,57,70,
2,354838, Note_on_c,2,56,100,
2,177530, Note_on_c,2,36,100,
2,177660, Note_on_c,2,75,100,
2,177780, Note_on_c,2,64,100,
2,177780, Note_on_c,2,70,100,
2,177780, Note_on_c,2,68,216,
2,177910, Note_on_c,2,48,80,
2,177910, Note_on_c,2,58,80,
2,177910, Note_on_c,2,52,80,
2,178040, Note_on_c,2,87,216,
2,178040, Note_on_c,2,75,100,
2,178040, Note_on_c,2,82,197,
2,178040, Note_on_c,2,80,90,
2,178140, Note_on_c,2,41,156,
2,356358, Note_on_c,2,75,70,
2,178180, Note_on_c,2,56,90,
2,178190, Note_on_c,2,82,90,
2,178580, Note_on_c,2,60,138,
2,178580, Note_on_c,2,53,135,
2,178580, Note_on_c,2,56,159,
2,178820, Note_on_c,2,84,195,
2,178960, Note_on_c,2,56,70,
2,357936, Note_on_c,2,46,70,
2,357936, Note_on_c,2,75,195,
2,357936, Note_on_c,2,87,100,
2,357938, Note_on_c,2,80,90,
2,179200, Note_on_c,2,86,90,
2,179200, Note_on_c,2,79,80,
2,179200, Note_on_c,2,82,175,
2,179200, Note_on_c,2,74,157,
2,358658, Note_on_c,2,56,70,
2,179330, Note_on_c,2,62,139,
2,358676, Note_on_c,2,75,197,
2,358676, Note_on_c,2,87,100,
2,359156, Note_on_c,2,89,216,
2,359156, Note_on_c,2,77,199,
2,179660, Note_on_c,2,46,70,
2,179690, Note_on_c,2,55,136,
2,179700, Note_on_c,2,78,80,
2,179700, Note_on_c,2,61,90,
2,179700, Note_on_c,2,82,179,
2,359418, Note_on_c,2,85,90,
2,179710, Note_on_c,2,90,100,
2,179840, Note_on_c,2,78,195,
2,179850, Note_on_c,2,82,196,
2,359716, Note_on_c,2,85,195,
2,179860, Note_on_c,2,90,90,
2,179930, Note_on_c,2,78,60,
2,179950, Note_on_c,2,82,58,
2,359918, Note_on_c,2,85,70,
2,359936, Note_on_c,2,90,117,
2,359976, Note_on_c,2,78,70,
2,360038, Note_on_c,2,82,15,
2,360038, Note_on_c,2,85,159,
2,180020, Note_on_c,2,90,115,
2,180040, Note_on_c,2,78,138,
2,360138, Note_on_c,2,55,119,
2,360138, Note_on_c,2,64,60,
2,360138, Note_on_c,2,61,60,
2,180070, Note_on_c,2,58,80,
2,180080, Note_on_c,2,85,156,
2,180080, Note_on_c,2,90,118,
2,180110, Note_on_c,2,78,70,
2,360298, Note_on_c,2,85,138,
2,180150, Note_on_c,2,90,95,
2,180170, Note_on_c,2,78,135,
2,360456, Note_on_c,2,85,135,
2,360476, Note_on_c,2,90,38,
2,180320, Note_on_c,2,79,176,
2,180320, Note_on_c,2,85,100,
2,360656, Note_on_c,2,91,197,
2,360756, Note_on_c,2,86,50,
2,180460, Note_on_c,2,56,139,
2,180460, Note_on_c,2,46,70,
2,180890, Note_on_c,2,56,70,
2,180890, Note_on_c,2,62,138,
2,180940, Note_on_c,2,82,176,
2,361958, Note_on_c,2,84,155,
2,181030, Note_on_c,2,87,196,
2,181090, Note_on_c,2,89,176,
2,181150, Note_on_c,2,89,90,
2,181160, Note_on_c,2,90,60,
2,181220, Note_on_c,2,89,118,
2,362538, Note_on_c,2,87,195,
2,362556, Note_on_c,2,39,70,
2,181330, Note_on_c,2,89,178,
2,362776, Note_on_c,2,87,178,
2,362898, Note_on_c,2,89,138,
2,362976, Note_on_c,2,87,178,
2,181520, Note_on_c,2,85,90,
2,181560, Note_on_c,2,82,176,
2,363218, Note_on_c,2,85,80,
2,363258, Note_on_c,2,43,60,
2,363318, Note_on_c,2,87,116,
2,181680, Note_on_c,2,85,50,
2,181730, Note_on_c,2,82,177,
2,181780, Note_on_c,2,80,178,
2,181820, Note_on_c,2,78,156,
2,181850, Note_on_c,2,75,70,
2,363796, Note_on_c,2,78,195,
2,363856, Note_on_c,2,79,159,
2,181980, Note_on_c,2,84,176,
2,181980, Note_on_c,2,41,70,
2,182050, Note_on_c,2,82,90,
2,364236, Note_on_c,2,75,179,
2,364316, Note_on_c,2,78,177,
2,182170, Note_on_c,2,84,50,
2,182210, Note_on_c,2,79,136,
2,364536, Note_on_c,2,78,197,
2,364536, Note_on_c,2,84,60,
2,364598, Note_on_c,2,79,156,
2,182390, Note_on_c,2,42,178,
2,182520, Note_on_c,2,72,80,
2,182600, Note_on_c,2,75,135,
2,182640, Note_on_c,2,78,139,
2,182680, Note_on_c,2,81,197,
2,182780, Note_on_c,2,79,197,
2,182780, Note_on_c,2,43,70,
2,182860, Note_on_c,2,77,80,
2,182910, Note_on_c,2,74,157,
2,365896, Note_on_c,2,72,70,
2,365978, Note_on_c,2,70,80,
2,183020, Note_on_c,2,69,60,
2,366116, Note_on_c,2,68,60,
2,183080, Note_on_c,2,67,137,
2,183130, Note_on_c,2,66,157,
2,183140, Note_on_c,2,42,70,
2,183160, Note_on_c,2,65,157,
2,183210, Note_on_c,2,63,116,
2,183240, Note_on_c,2,61,139,
2,183270, Note_on_c,2,60,60,
2,183330, Note_on_c,2,58,98,
2,183360, Note_on_c,2,55,80,
2,367038, Note_on_c,2,43,175,
2,367618, Note_on_c,2,43,90,
2,183920, Note_on_c,2,36,90,
2,184140, Note_on_c,2,87,237,
2,184140, Note_on_c,2,75,110,
2,368578, Note_on_c,2,86,117,
2,184330, Note_on_c,2,41,80,
2,368676, Note_on_c,2,87,110,
2,368676, Note_on_c,2,75,110,
2,184470, Note_on_c,2,87,80,
2,184470, Note_on_c,2,75,100,
2,369458, Note_on_c,2,57,70,
2,184730, Note_on_c,2,51,80,
2,184730, Note_on_c,2,62,70,
2,184860, Note_on_c,2,74,195,
2,369858, Note_on_c,2,79,50,
2,184990, Note_on_c,2,83,60,
2,370096, Note_on_c,2,74,218,
2,370098, Note_on_c,2,86,110,
2,185110, Note_on_c,2,36,80,
2,370236, Note_on_c,2,72,197,
2,370236, Note_on_c,2,84,90,
2,370516, Note_on_c,2,83,117,
2,185300, Note_on_c,2,84,100,
2,370876, Note_on_c,2,83,217,
2,185480, Note_on_c,2,62,157,
2,185480, Note_on_c,2,57,158,
2,185480, Note_on_c,2,51,80,
2,371018, Note_on_c,2,79,40,
2,185540, Note_on_c,2,83,60,
2,185570, Note_on_c,2,79,60,
2,185620, Note_on_c,2,74,155,
2,185690, Note_on_c,2,72,136,
2,371618, Note_on_c,2,71,199,
2,185860, Note_on_c,2,56,157,
2,185860, Note_on_c,2,41,157,
2,185870, Note_on_c,2,70,156,
2,371998, Note_on_c,2,69,178,
2,372136, Note_on_c,2,68,40,
2,372378, Note_on_c,2,70,218,
2,186240, Note_on_c,2,56,70,
2,186240, Note_on_c,2,63,80,
2,186240, Note_on_c,2,60,70,
2,372498, Note_on_c,2,72,159,
2,186380, Note_on_c,2,75,119,
2,372876, Note_on_c,2,79,100,
2,373138, Note_on_c,2,76,80,
2,186620, Note_on_c,2,56,176,
2,186620, Note_on_c,2,46,177,
2,373258, Note_on_c,2,77,80,
2,373516, Note_on_c,2,79,90,
2,373636, Note_on_c,2,80,90,
2,186940, Note_on_c,2,82,218,
2,187000, Note_on_c,2,60,70,
2,374016, Note_on_c,2,54,70,
2,187020, Note_on_c,2,85,176,
2,374116, Note_on_c,2,86,70,
2,187090, Note_on_c,2,85,70,
2,187140, Note_on_c,2,83,80,
2,374418, Note_on_c,2,82,90,
2,187330, Note_on_c,2,80,100,
2,187380, Note_on_c,2,46,177,
2,187380, Note_on_c,2,39,177,
2,374778, Note_on_c,2,79,155,
2,187550, Note_on_c,2,82,60,
2,187590, Note_on_c,2,84,178,
2,375556, Note_on_c,2,87,110,
2,375556, Note_on_c,2,75,215,
2,375556, Note_on_c,2,55,117,
2,375558, Note_on_c,2,60,135,
2,375558, Note_on_c,2,58,158,
2,375558, Note_on_c,2,82,195,
2,375956, Note_on_c,2,90,110,
2,375958, Note_on_c,2,75,218,
2,188120, Note_on_c,2,87,99,
2,188160, Note_on_c,2,51,80,
2,188160, Note_on_c,2,44,80,
2,376336, Note_on_c,2,90,216,
2,376336, Note_on_c,2,54,70,
2,376336, Note_on_c,2,75,110,
2,376616, Note_on_c,2,90,196,
2,188320, Note_on_c,2,87,80,
2,188340, Note_on_c,2,85,176,
2,377098, Note_on_c,2,58,80,
2,377098, Note_on_c,2,54,158,
2,377716, Note_on_c,2,87,198,
2,377716, Note_on_c,2,81,179,
2,188930, Note_on_c,2,46,80,
2,188930, Note_on_c,2,39,80,
2,188930, Note_on_c,2,87,80,
2,377876, Note_on_c,2,80,177,
2,189050, Note_on_c,2,87,198,
2,189050, Note_on_c,2,78,196,
2,378256, Note_on_c,2,75,157,
2,378496, Note_on_c,2,73,215,
2,378618, Note_on_c,2,55,117,
2,378618, Note_on_c,2,61,138,
2,189310, Note_on_c,2,58,159,
2,189310, Note_on_c,2,70,80,
2,189440, Note_on_c,2,68,197,
2,378898, Note_on_c,2,75,80,
2,189450, Note_on_c,2,69,80,
2,189510, Note_on_c,2,68,80,
2,189640, Note_on_c,2,66,176,
2,189690, Note_on_c,2,46,159,
2,189690, Note_on_c,2,56,70,
2,189700, Note_on_c,2,65,137,
2,189840, Note_on_c,2,68,138,
2,379798, Note_on_c,2,72,176,
2,380056, Note_on_c,2,61,158,
2,380058, Note_on_c,2,75,218,
2,380058, Note_on_c,2,65,195,
2,190030, Note_on_c,2,55,135,
2,190210, Note_on_c,2,71,90,
2,380436, Note_on_c,2,55,156,
2,380436, Note_on_c,2,66,100,
2,380436, Note_on_c,2,78,198,
2,380436, Note_on_c,2,45,80,
2,380876, Note_on_c,2,44,156,
2,190490, Note_on_c,2,70,90,
2,190490, Note_on_c,2,75,90,
2,190490, Note_on_c,2,72,80,
2,190490, Note_on_c,2,65,178,
2,190490, Note_on_c,2,55,70,
2,190860, Note_on_c,2,55,60,
2,190860, Note_on_c,2,60,139,
2,190860, Note_on_c,2,58,175,
2,190990, Note_on_c,2,72,100,
2,191120, Note_on_c,2,75,198,
2,382498, Note_on_c,2,32,80,
2,382498, Note_on_c,2,39,155,
2,191250, Note_on_c,2,82,215,
2,191560, Note_on_c,2,82,80,
2,383178, Note_on_c,2,81,70,
2,191610, Note_on_c,2,80,175,
2,191620, Note_on_c,2,60,138,
2,191620, Note_on_c,2,55,60,
2,383256, Note_on_c,2,58,80,
2,191640, Note_on_c,2,79,179,
2,191740, Note_on_c,2,75,90,
2,383638, Note_on_c,2,74,80,
2,191930, Note_on_c,2,73,196,
2,383996, Note_on_c,2,43,70,
2,383998, Note_on_c,2,58,70,
2,192000, Note_on_c,2,72,70,
2,192370, Note_on_c,2,65,137,
2,192370, Note_on_c,2,55,119,
2,192370, Note_on_c,2,72,110,
2,192370, Note_on_c,2,61,70,
2,384756, Note_on_c,2,58,158,
2,192490, Note_on_c,2,73,96,
2,192510, Note_on_c,2,72,70,
2,385136, Note_on_c,2,71,155,
2,385358, Note_on_c,2,72,178,
2,192760, Note_on_c,2,52,138,
2,192760, Note_on_c,2,36,138,
2,192760, Note_on_c,2,84,90,
2,193150, Note_on_c,2,61,70,
2,193150, Note_on_c,2,58,158,
2,193150, Note_on_c,2,52,60,
2,386516, Note_on_c,2,82,110,
2,193340, Note_on_c,2,81,90,
2,386878, Note_on_c,2,80,100,
2,193530, Note_on_c,2,56,157,
2,193530, Note_on_c,2,41,70,
2,193530, Note_on_c,2,79,176,
2,387276, Note_on_c,2,80,176,
2,387458, Note_on_c,2,84,178,
2,193820, Note_on_c,2,87,100,
2,387818, Note_on_c,2,67,116,
2,193910, Note_on_c,2,56,135,
2,193910, Note_on_c,2,60,117,
2,193910, Note_on_c,2,63,70,
2,193910, Note_on_c,2,91,100,
2,387956, Note_on_c,2,94,80,
2,194040, Note_on_c,2,91,80,
2,194100, Note_on_c,2,92,196,
2,194160, Note_on_c,2,89,70,
2,194230, Note_on_c,2,87,198,
2,194300, Note_on_c,2,89,90,
2,194300, Note_on_c,2,62,70,
2,194370, Note_on_c,2,91,156,
2,388876, Note_on_c,2,87,100,
2,194500, Note_on_c,2,84,60,
2,194560, Note_on_c,2,80,158,
2,389258, Note_on_c,2,79,176,
2,194690, Note_on_c,2,77,80,
2,389396, Note_on_c,2,56,90,
2,194760, Note_on_c,2,75,157,
2,389656, Note_on_c,2,74,90,
2,389778, Note_on_c,2,72,70,
2,194950, Note_on_c,2,71,157,
2,195020, Note_on_c,2,70,90,
2,390178, Note_on_c,2,42,199,
2,195090, Note_on_c,2,69,70,
2,195160, Note_on_c,2,74,50,
2,195220, Note_on_c,2,78,158,
2,390578, Note_on_c,2,81,175,
2,390578, Note_on_c,2,69,90,
2,390736, Note_on_c,2,78,117,
2,195420, Note_on_c,2,81,80,
2,390858, Note_on_c,2,69,175,
2,195490, Note_on_c,2,78,100,
2,195490, Note_on_c,2,63,90,
2,195490, Note_on_c,2,54,90,
2,391738, Note_on_c,2,57,176,
2,391738, Note_on_c,2,51,179,
2,195970, Note_on_c,2,71,199,
2,195970, Note_on_c,2,78,100,
2,195970, Note_on_c,2,75,100,
2,195970, Note_on_c,2,83,195,
2,392296, Note_on_c,2,66,90,
2,392298, Note_on_c,2,60,137,
2,392298, Note_on_c,2,71,70,
2,196150, Note_on_c,2,75,80,
2,196230, Note_on_c,2,73,198,
2,392476, Note_on_c,2,69,159,
2,392476, Note_on_c,2,77,90,
2,196240, Note_on_c,2,64,70,
2,196240, Note_on_c,2,62,70,
2,392556, Note_on_c,2,74,158,
2,392858, Note_on_c,2,60,90,
2,196430, Note_on_c,2,71,175,
2,196430, Note_on_c,2,66,90,
2,196430, Note_on_c,2,75,90,
2,196610, Note_on_c,2,70,90,
2,393236, Note_on_c,2,72,177,
2,393236, Note_on_c,2,65,158,
2,393458, Note_on_c,2,43,179,
2,196730, Note_on_c,2,36,178,
2,196990, Note_on_c,2,60,138,
2,196990, Note_on_c,2,55,60,
2,196990, Note_on_c,2,70,215,
2,196990, Note_on_c,2,65,90,
2,196990, Note_on_c,2,51,70,
2,197120, Note_on_c,2,72,90,
2,197120, Note_on_c,2,67,90,
2,394498, Note_on_c,2,65,80,
2,394498, Note_on_c,2,70,90,
2,197300, Note_on_c,2,72,80,
2,197300, Note_on_c,2,67,80,
2,394738, Note_on_c,2,72,80,
2,197370, Note_on_c,2,65,90,
2,197370, Note_on_c,2,66,100,
2,197370, Note_on_c,2,70,199,
2,197500, Note_on_c,2,54,100,
2,197500, Note_on_c,2,44,215,
2,395498, Note_on_c,2,58,176,
2,395498, Note_on_c,2,60,155,
2,197750, Note_on_c,2,54,175,
2,197750, Note_on_c,2,65,195,
2,197750, Note_on_c,2,70,100,
2,197880, Note_on_c,2,66,100,
2,197880, Note_on_c,2,72,90,
2,396036, Note_on_c,2,65,80,
2,396038, Note_on_c,2,70,198,
2,198070, Note_on_c,2,72,178,
2,198070, Note_on_c,2,66,196,
2,198140, Note_on_c,2,74,215,
2,198140, Note_on_c,2,67,90,
2,396298, Note_on_c,2,69,198,
2,396538, Note_on_c,2,41,90,
2,198270, Note_on_c,2,51,199,
2,198510, Note_on_c,2,57,90,
2,397036, Note_on_c,2,51,90,
2,397038, Note_on_c,2,69,176,
2,198520, Note_on_c,2,75,216,
2,198640, Note_on_c,2,77,90,
2,198640, Note_on_c,2,71,100,
2,397576, Note_on_c,2,69,155,
2,397576, Note_on_c,2,75,90,
2,198840, Note_on_c,2,77,90,
2,198840, Note_on_c,2,71,90,
2,198910, Note_on_c,2,57,80,
2,198910, Note_on_c,2,63,90,
2,198910, Note_on_c,2,61,90,
2,198910, Note_on_c,2,73,219,
2,198910, Note_on_c,2,79,197,
2,398096, Note_on_c,2,77,90,
2,398098, Note_on_c,2,71,90,
2,199160, Note_on_c,2,79,155,
2,398338, Note_on_c,2,73,196,
2,398458, Note_on_c,2,71,138,
2,398458, Note_on_c,2,77,156,
2,199300, Note_on_c,2,53,157,
2,199300, Note_on_c,2,63,178,
2,199300, Note_on_c,2,57,159,
2,199300, Note_on_c,2,81,90,
2,398616, Note_on_c,2,75,217,
2,199430, Note_on_c,2,79,90,
2,199430, Note_on_c,2,71,176,
2,199560, Note_on_c,2,81,156,
2,199560, Note_on_c,2,75,198,
2,399236, Note_on_c,2,79,157,
2,199620, Note_on_c,2,71,70,
2,199690, Note_on_c,2,82,217,
2,199690, Note_on_c,2,70,110,
2,399396, Note_on_c,2,75,197,
2,399638, Note_on_c,2,41,197,
2,199820, Note_on_c,2,48,198,
2,399916, Note_on_c,2,70,110,
2,399916, Note_on_c,2,79,90,
2,200080, Note_on_c,2,60,90,
2,200080, Note_on_c,2,56,198,
2,200080, Note_on_c,2,55,90,
2,400436, Note_on_c,2,70,110,
2,400436, Note_on_c,2,82,110,
2,400436, Note_on_c,2,75,217,
2,200340, Note_on_c,2,48,100,
2,200340, Note_on_c,2,41,90,
2,200470, Note_on_c,2,79,80,
2,200470, Note_on_c,2,70,217,
2,200470, Note_on_c,2,82,90,
2,400956, Note_on_c,2,76,90,
2,401198, Note_on_c,2,52,178,
2,401198, Note_on_c,2,36,90,
2,401476, Note_on_c,2,79,176,
2,401478, Note_on_c,2,70,110,
2,401478, Note_on_c,2,76,195,
2,401716, Note_on_c,2,42,100,
2,401716, Note_on_c,2,58,100,
2,401958, Note_on_c,2,82,199,
2,200980, Note_on_c,2,70,217,
2,200980, Note_on_c,2,76,197,
2,201100, Note_on_c,2,48,90,
2,402458, Note_on_c,2,82,100,
2,402458, Note_on_c,2,70,216,
2,402458, Note_on_c,2,73,100,
2,402458, Note_on_c,2,77,178,
2,402716, Note_on_c,2,41,90,
2,201480, Note_on_c,2,70,218,
2,201480, Note_on_c,2,77,90,
2,201480, Note_on_c,2,73,100,
2,403218, Note_on_c,2,54,218,
2,403218, Note_on_c,2,44,218,
2,403458, Note_on_c,2,82,100,
2,201730, Note_on_c,2,70,110,
2,201730, Note_on_c,2,77,178,
2,201730, Note_on_c,2,73,100,
2,403716, Note_on_c,2,51,215,
2,403956, Note_on_c,2,43,176,
2,403956, Note_on_c,2,53,199,
2,202020, Note_on_c,2,65,80,
2,202050, Note_on_c,2,67,70,
2,202080, Note_on_c,2,68,137,
2,404196, Note_on_c,2,70,90,
2,404238, Note_on_c,2,72,90,
2,404316, Note_on_c,2,75,198,
2,202180, Note_on_c,2,72,60,
2,202200, Note_on_c,2,73,195,
2,202220, Note_on_c,2,75,176,
2,202250, Note_on_c,2,76,176,
2,202280, Note_on_c,2,78,196,
2,404618, Note_on_c,2,80,80,
2,202340, Note_on_c,2,82,90,
2,202340, Note_on_c,2,58,198,
2,202340, Note_on_c,2,48,80,
2,404696, Note_on_c,2,52,80,
2,202370, Note_on_c,2,84,177,
2,202400, Note_on_c,2,85,195,
2,404876, Note_on_c,2,86,60,
2,404878, Note_on_c,2,88,115,
2,202460, Note_on_c,2,87,90,
2,202480, Note_on_c,2,89,176,
2,202520, Note_on_c,2,91,138,
2,405058, Note_on_c,2,54,90,
2,405098, Note_on_c,2,92,80,
2,202580, Note_on_c,2,94,155,
2,405216, Note_on_c,2,96,178,
2,405276, Note_on_c,2,97,177,
2,405338, Note_on_c,2,98,159,
2,405378, Note_on_c,2,99,90,
2,202710, Note_on_c,2,101,90,
2,405476, Note_on_c,2,41,178,
2,405476, Note_on_c,2,56,218,
2,202740, Note_on_c,2,103,197,
2,202770, Note_on_c,2,104,90,
2,203130, Note_on_c,2,60,80,
2,203130, Note_on_c,2,67,70,
2,406276, Note_on_c,2,63,178,
2,406278, Note_on_c,2,103,238,
2,203140, Note_on_c,2,98,120,
2,203140, Note_on_c,2,91,237,
2,203270, Note_on_c,2,89,110,
2,203270, Note_on_c,2,96,110,
2,406556, Note_on_c,2,101,110,
2,406798, Note_on_c,2,99,100,
2,406798, Note_on_c,2,87,100,
2,406798, Note_on_c,2,94,100,
2,203520, Note_on_c,2,67,80,
2,407056, Note_on_c,2,62,80,
2,407056, Note_on_c,2,56,90,
2,203530, Note_on_c,2,96,217,
2,203530, Note_on_c,2,101,100,
2,407076, Note_on_c,2,89,100,
2,407458, Note_on_c,2,46,110,
2,407836, Note_on_c,2,56,218,
2,203920, Note_on_c,2,80,110,
2,203920, Note_on_c,2,72,110,
2,203920, Note_on_c,2,84,216,
2,203920, Note_on_c,2,77,218,
2,408076, Note_on_c,2,73,218,
2,408076, Note_on_c,2,85,215,
2,408078, Note_on_c,2,80,199,
2,204120, Note_on_c,2,53,90,
2,408258, Note_on_c,2,81,100,
2,408258, Note_on_c,2,86,199,
2,204130, Note_on_c,2,74,90,
2,408458, Note_on_c,2,87,100,
2,204230, Note_on_c,2,82,100,
2,204230, Note_on_c,2,75,100,
2,204290, Note_on_c,2,46,90,
2,204310, Note_on_c,2,52,70,
2,204330, Note_on_c,2,55,157,
2,204330, Note_on_c,2,76,179,
2,204330, Note_on_c,2,61,199,
2,408676, Note_on_c,2,82,198,
2,408678, Note_on_c,2,85,90,
2,204340, Note_on_c,2,88,159,
2,204460, Note_on_c,2,78,195,
2,204470, Note_on_c,2,82,195,
2,204470, Note_on_c,2,85,90,
2,204470, Note_on_c,2,90,198,
2,409178, Note_on_c,2,79,179,
2,409178, Note_on_c,2,91,100,
2,409196, Note_on_c,2,89,156,
2,409316, Note_on_c,2,55,60,
2,409396, Note_on_c,2,58,90,
2,409398, Note_on_c,2,61,198,
2,204700, Note_on_c,2,64,90,
2,204700, Note_on_c,2,81,100,
2,409416, Note_on_c,2,93,216,
2,204830, Note_on_c,2,82,217,
2,204830, Note_on_c,2,94,110,
2,204950, Note_on_c,2,96,100,
2,204950, Note_on_c,2,84,198,
2,205030, Note_on_c,2,46,90,
2,205070, Note_on_c,2,56,198,
2,205070, Note_on_c,2,86,80,
2,205070, Note_on_c,2,91,196,
2,410158, Note_on_c,2,98,100,
2,205230, Note_on_c,2,103,138,
2,205250, Note_on_c,2,101,60,
2,205280, Note_on_c,2,98,137,
2,410616, Note_on_c,2,96,70,
2,205350, Note_on_c,2,97,80,
2,205370, Note_on_c,2,98,157,
2,205400, Note_on_c,2,97,155,
2,410858, Note_on_c,2,95,175,
2,205440, Note_on_c,2,66,199,
2,205440, Note_on_c,2,56,90,
2,410898, Note_on_c,2,93,40,
2,205470, Note_on_c,2,92,90,
2,411016, Note_on_c,2,90,90,
2,205530, Note_on_c,2,86,90,
2,205570, Note_on_c,2,85,198,
2,205590, Note_on_c,2,86,135,
2,205620, Note_on_c,2,85,70,
2,205640, Note_on_c,2,83,70,
2,205670, Note_on_c,2,81,98,
2,411378, Note_on_c,2,80,158,
2,411436, Note_on_c,2,78,90,
2,205750, Note_on_c,2,74,90,
2,411698, Note_on_c,2,46,216,
2,205850, Note_on_c,2,39,100,
2,411878, Note_on_c,2,84,199,
2,411976, Note_on_c,2,79,179,
2,206020, Note_on_c,2,77,80,
2,412096, Note_on_c,2,72,80,
2,412178, Note_on_c,2,67,80,
2,412218, Note_on_c,2,65,70,
2,206140, Note_on_c,2,60,80,
2,412358, Note_on_c,2,65,175,
2,206200, Note_on_c,2,67,138,
2,412436, Note_on_c,2,51,196,
2,412436, Note_on_c,2,58,100,
2,206220, Note_on_c,2,72,90,
2,412518, Note_on_c,2,72,90,
2,206290, Note_on_c,2,77,157,
2,412636, Note_on_c,2,79,139,
2,412676, Note_on_c,2,81,40,
2,412718, Note_on_c,2,84,176,
2,206390, Note_on_c,2,89,80,
2,206410, Note_on_c,2,91,198,
2,412878, Note_on_c,2,84,100,
2,206440, Note_on_c,2,96,216,
2,206600, Note_on_c,2,41,90,
2,206600, Note_on_c,2,56,216,
2,413436, Note_on_c,2,72,119,
2,413436, Note_on_c,2,74,50,
2,206740, Note_on_c,2,67,158,
2,206770, Note_on_c,2,65,40,
2,206790, Note_on_c,2,60,80,
2,413676, Note_on_c,2,65,97,
2,206850, Note_on_c,2,67,80,
2,413778, Note_on_c,2,72,90,
2,413858, Note_on_c,2,77,157,
2,206970, Note_on_c,2,79,136,
2,206970, Note_on_c,2,81,50,
2,413958, Note_on_c,2,60,80,
2,206980, Note_on_c,2,56,90,
2,206980, Note_on_c,2,63,90,
2,207000, Note_on_c,2,84,195,
2,414098, Note_on_c,2,89,80,
2,414136, Note_on_c,2,91,70,
2,414138, Note_on_c,2,93,70,
2,414196, Note_on_c,2,84,216,
2,414198, Note_on_c,2,96,219,
2,414658, Note_on_c,2,42,110,
2,414876, Note_on_c,2,63,100,
2,207510, Note_on_c,2,69,70,
2,415118, Note_on_c,2,72,80,
2,415216, Note_on_c,2,74,90,
2,415296, Note_on_c,2,75,216,
2,207690, Note_on_c,2,72,80,
2,207720, Note_on_c,2,63,90,
2,207720, Note_on_c,2,54,177,
2,415456, Note_on_c,2,74,177,
2,415518, Note_on_c,2,75,196,
2,415596, Note_on_c,2,77,176,
2,207830, Note_on_c,2,78,90,
2,415736, Note_on_c,2,80,195,
2,415796, Note_on_c,2,81,80,
2,207930, Note_on_c,2,82,90,
2,207960, Note_on_c,2,83,80,
2,207990, Note_on_c,2,84,70,
2,208030, Note_on_c,2,83,70,
2,208050, Note_on_c,2,82,90,
2,416178, Note_on_c,2,81,70,
2,416238, Note_on_c,2,63,158,
2,208120, Note_on_c,2,60,139,
2,208120, Note_on_c,2,80,90,
2,208120, Note_on_c,2,56,157,
2,208160, Note_on_c,2,82,90,
2,208190, Note_on_c,2,80,159,
2,416458, Note_on_c,2,79,156,
2,416538, Note_on_c,2,78,80,
2,208300, Note_on_c,2,77,159,
2,416676, Note_on_c,2,75,177,
2,208370, Note_on_c,2,73,178,
2,416798, Note_on_c,2,72,156,
2,208510, Note_on_c,2,42,100,
2,417258, Note_on_c,2,67,216,
2,208710, Note_on_c,2,68,70,
2,417536, Note_on_c,2,69,60,
2,208810, Note_on_c,2,70,110,
2,208900, Note_on_c,2,43,80,
2,417816, Note_on_c,2,67,215,
2,209090, Note_on_c,2,67,217,
2,209090, Note_on_c,2,73,236,
2,209090, Note_on_c,2,77,100,
2,209090, Note_on_c,2,65,177,
2,418196, Note_on_c,2,64,50,
2,418258, Note_on_c,2,74,80,
2,209190, Note_on_c,2,63,90,
2,209190, Note_on_c,2,67,155,
2,209190, Note_on_c,2,75,100,
2,418576, Note_on_c,2,62,178,
2,418578, Note_on_c,2,67,177,
2,418578, Note_on_c,2,74,195,
2,418956, Note_on_c,2,60,215,
2,209480, Note_on_c,2,72,100,
2,209650, Note_on_c,2,74,90,
2,209650, Note_on_c,2,63,100,
2,209650, Note_on_c,2,67,80,
2,209750, Note_on_c,2,55,90,
2,209830, Note_on_c,2,54,70,
2,209880, Note_on_c,2,53,178,
2,419876, Note_on_c,2,52,80,
2,209990, Note_on_c,2,51,90,
2,210040, Note_on_c,2,75,199,
2,210040, Note_on_c,2,67,176,
2,210040, Note_on_c,2,70,196,
2,210040, Note_on_c,2,63,218,
2,420096, Note_on_c,2,51,197,
2,210240, Note_on_c,2,60,197,
2,420496, Note_on_c,2,54,216,
2,420858, Note_on_c,2,70,100,
2,420858, Note_on_c,2,65,197,
2,210430, Note_on_c,2,62,90,
2,210430, Note_on_c,2,43,177,
2,210430, Note_on_c,2,53,178,
2,210620, Note_on_c,2,49,217,
2,421616, Note_on_c,2,82,199,
2,421618, Note_on_c,2,73,100,
2,421618, Note_on_c,2,65,90,
2,421618, Note_on_c,2,77,90,
2,210810, Note_on_c,2,61,100,
2,210810, Note_on_c,2,70,217,
2,210990, Note_on_c,2,55,90,
2,422376, Note_on_c,2,64,100,
2,422376, Note_on_c,2,73,217,
2,422376, Note_on_c,2,68,198,
2,422378, Note_on_c,2,63,218,
2,211280, Note_on_c,2,36,195,
2,211280, Note_on_c,2,52,195,
2,422776, Note_on_c,2,68,110,
2,422776, Note_on_c,2,64,110,
2,422778, Note_on_c,2,75,236,
2,211490, Note_on_c,2,58,110,
2,211590, Note_on_c,2,72,100,
2,211590, Note_on_c,2,64,110,
2,211590, Note_on_c,2,68,219,
2,211700, Note_on_c,2,56,219,
2,211800, Note_on_c,2,64,110,
2,211800, Note_on_c,2,70,110,
2,211800, Note_on_c,2,66,235,
2,423818, Note_on_c,2,48,218,
2,424056, Note_on_c,2,72,195,
2,424058, Note_on_c,2,67,90,
2,424058, Note_on_c,2,63,219,
2,212030, Note_on_c,2,68,90,
2,212130, Note_on_c,2,41,198,
2,212240, Note_on_c,2,60,110,
2,212350, Note_on_c,2,63,100,
2,424956, Note_on_c,2,60,90,
2,424958, Note_on_c,2,67,176,
2,212480, Note_on_c,2,56,100,
2,212620, Note_on_c,2,70,100,
2,212620, Note_on_c,2,63,100,
2,212760, Note_on_c,2,74,237,
2,212900, Note_on_c,2,70,110,
2,213050, Note_on_c,2,72,196,
2,213050, Note_on_c,2,75,218,
2,213050, Note_on_c,2,68,217,
2,426116, Note_on_c,2,46,216,
2,213200, Note_on_c,2,66,216,
2,213200, Note_on_c,2,73,100,
2,426416, Note_on_c,2,70,199,
2,213380, Note_on_c,2,78,100,
2,213380, Note_on_c,2,75,100,
2,213380, Note_on_c,2,56,216,
2,213550, Note_on_c,2,70,199,
2,213550, Note_on_c,2,73,196,
2,213550, Note_on_c,2,76,178,
2,213550, Note_on_c,2,62,90,
2,427458, Note_on_c,2,82,110,
2,427458, Note_on_c,2,85,110,
2,427458, Note_on_c,2,78,110,
2,213730, Note_on_c,2,66,100,
2,427838, Note_on_c,2,80,235,
2,427838, Note_on_c,2,83,218,
2,427838, Note_on_c,2,76,218,
2,214080, Note_on_c,2,56,80,
2,428198, Note_on_c,2,59,157,
2,428258, Note_on_c,2,62,70,
2,214140, Note_on_c,2,82,177,
2,214140, Note_on_c,2,66,196,
2,214150, Note_on_c,2,85,100,
2,214150, Note_on_c,2,90,100,
2,214370, Note_on_c,2,88,197,
2,214370, Note_on_c,2,80,100,
2,428756, Note_on_c,2,83,90,
2,214690, Note_on_c,2,39,110,
2,214690, Note_on_c,2,46,235,
2,214810, Note_on_c,2,84,217,
2,214810, Note_on_c,2,93,218,
2,214930, Note_on_c,2,89,110,
2,214930, Note_on_c,2,96,219,
2,215040, Note_on_c,2,93,199,
2,215040, Note_on_c,2,84,100,
2,215160, Note_on_c,2,55,80,
2,215160, Note_on_c,2,65,179,
2,215160, Note_on_c,2,60,176,
2,215160, Note_on_c,2,61,90,
2,430578, Note_on_c,2,89,90,
2,430578, Note_on_c,2,82,100,
2,215400, Note_on_c,2,94,215,
2,430818, Note_on_c,2,85,100,
2,431056, Note_on_c,2,89,90,
2,431058, Note_on_c,2,82,195,
2,215640, Note_on_c,2,44,215,
2,215640, Note_on_c,2,51,218,
2,215780, Note_on_c,2,82,219,
2,215780, Note_on_c,2,74,100,
2,215920, Note_on_c,2,78,110,
2,215920, Note_on_c,2,86,100,
2,216060, Note_on_c,2,82,217,
2,432136, Note_on_c,2,74,198,
2,216210, Note_on_c,2,54,90,
2,216210, Note_on_c,2,59,175,
2,432436, Note_on_c,2,63,90,
2,432438, Note_on_c,2,58,195,
2,216370, Note_on_c,2,68,215,
2,432756, Note_on_c,2,75,199,
2,216560, Note_on_c,2,80,100,
2,216560, Note_on_c,2,44,110,
2,216560, Note_on_c,2,71,199,
2,433498, Note_on_c,2,68,218,
2,216750, Note_on_c,2,75,215,
2,433896, Note_on_c,2,44,110,
2,433898, Note_on_c,2,37,218,
2,434256, Note_on_c,2,53,215,
2,434256, Note_on_c,2,58,216,
2,434256, Note_on_c,2,61,197,
2,434258, Note_on_c,2,63,100,
2,434458, Note_on_c,2,53,79,
2,217250, Note_on_c,2,58,155,
2,217290, Note_on_c,2,61,156,
2,217310, Note_on_c,2,63,155,
2,217340, Note_on_c,2,65,90,
2,217380, Note_on_c,2,70,178,
2,217410, Note_on_c,2,73,155,
2,434878, Note_on_c,2,75,136,
2,217460, Note_on_c,2,77,80,
2,434998, Note_on_c,2,82,80,
2,435036, Note_on_c,2,85,179,
2,435096, Note_on_c,2,82,70,
2,435096, Note_on_c,2,87,179,
2,217570, Note_on_c,2,85,158,
2,435218, Note_on_c,2,82,60,
2,435256, Note_on_c,2,77,80,
2,217670, Note_on_c,2,75,157,
2,435378, Note_on_c,2,73,157,
2,435438, Note_on_c,2,70,175,
2,217730, Note_on_c,2,65,70,
2,217770, Note_on_c,2,75,218,
2,435598, Note_on_c,2,73,90,
2,435656, Note_on_c,2,70,177,
2,217850, Note_on_c,2,65,70,
2,217890, Note_on_c,2,63,80,
2,217910, Note_on_c,2,61,80,
2,217940, Note_on_c,2,58,176,
2,217960, Note_on_c,2,53,137,
2,435998, Note_on_c,2,63,197,
2,218020, Note_on_c,2,61,178,
2,218050, Note_on_c,2,58,175,
2,218070, Note_on_c,2,53,80,
2,436258, Note_on_c,2,51,80,
2,218140, Note_on_c,2,49,177,
2,218160, Note_on_c,2,46,195,
2,218190, Note_on_c,2,41,80,
2,218220, Note_on_c,2,37,217,
2,436458, Note_on_c,2,32,90,
2,436578, Note_on_c,2,25,236,
2,218610, Note_on_c,2,27,216,
2,218670, Note_on_c,2,34,216,
2,218730, Note_on_c,2,39,199,
2,437478, Note_on_c,2,65,239,
2,437478, Note_on_c,2,55,237,
2,437478, Note_on_c,2,60,235,
2,438376, Note_on_c,2,67,90,
2,438376, Note_on_c,2,77,100,
2,438376, Note_on_c,2,74,195,
2,438376, Note_on_c,2,70,195,
2,438376, Note_on_c,2,72,90,
2,438378, Note_on_c,2,101,120,
2,438378, Note_on_c,2,96,120,
2,438698, Note_on_c,2,95,99,
2,438756, Note_on_c,2,67,76,
2,219380, Note_on_c,2,101,60,
2,219390, Note_on_c,2,70,70,
2,219410, Note_on_c,2,72,137,
2,219430, Note_on_c,2,96,40,
2,219430, Note_on_c,2,77,30,
2,219440, Note_on_c,2,74,70,
2,438918, Note_on_c,2,101,60,
2,438978, Note_on_c,2,67,60,
2,219490, Note_on_c,2,96,137,
2,438996, Note_on_c,2,70,70,
2,219510, Note_on_c,2,72,70,
2,439058, Note_on_c,2,101,60,
2,219540, Note_on_c,2,74,70,
2,439096, Note_on_c,2,77,50,
2,439118, Note_on_c,2,96,135,
2,219590, Note_on_c,2,67,96,
2,439196, Note_on_c,2,70,60,
2,439196, Note_on_c,2,101,135,
2,439238, Note_on_c,2,72,115,
2,219620, Note_on_c,2,96,116,
2,219640, Note_on_c,2,74,115,
2,439298, Note_on_c,2,77,40,
2,219660, Note_on_c,2,101,138,
2,219680, Note_on_c,2,96,157,
2,219690, Note_on_c,2,67,40,
2,219700, Note_on_c,2,77,60,
2,439418, Note_on_c,2,72,157,
2,439418, Note_on_c,2,74,99,
2,219710, Note_on_c,2,70,139,
2,219920, Note_on_c,2,104,50,
2,219930, Note_on_c,2,96,115,
2,219950, Note_on_c,2,106,177,
2,219960, Note_on_c,2,103,50,
2,439938, Note_on_c,2,108,90,
2,220210, Note_on_c,2,31,137,
2,220230, Note_on_c,2,39,70,
2,220240, Note_on_c,2,34,80,
