2,16178, Note_on_c,0,74,63,
2,16212, Note_on_c,0,56,0,
2,16274, Note_on_c,0,65,0,
2,16294, Note_on_c,0,67,0,
2,16296, Note_on_c,0,79,0,
2,16296, Note_on_c,0,70,0,
2,16176, Note_on_c,0,70,0,
2,16206, Note_on_c,0,44,36,
2,16328, Note_on_c,0,68,0,
2,16562, Control_c,0,65,0,
2,16620, Note_on_c,0,61,65,
2,16626, Note_on_c,0,56,64,
2,16660, Note_on_c,0,67,39,
2,16724, Control_c,0,65,127,
2,16796, Note_on_c,0,63,58,
2,16804, Note_on_c,0,47,36,
2,16806, Note_on_c,0,65,36,
2,16812, Note_on_c,0,68,59,
2,16810, Control_c,0,65,0,
2,16894, Note_on_c,0,60,45,
2,16928, Note_on_c,0,86,50,
2,16946, Note_on_c,0,72,0,
2,16960, Note_on_c,0,85,0,
2,17290, Control_c,0,65,127,
2,17302, Note_off_c,0,79,0,
2,17402, Note_off_c,0,48,0,
2,17478, Note_on_c,0,77,101,
2,17510, Note_on_c,0,56,0,
2,17512, Note_on_c,0,77,0,
2,17528, Note_on_c,0,65,0,
2,17588, Note_on_c,0,51,52,
2,17616, Note_on_c,0,51,0,
2,17636, Control_c,0,65,127,
2,17648, Note_off_c,0,84,0,
2,17670, Note_off_c,0,77,0,
2,13892, Note_on_c,0,48,74,
2,17928, Note_on_c,0,81,0,
2,17960, Control_c,0,69,127,
2,17960, Note_off_c,0,67,0,
2,17962, Note_off_c,0,57,0,
2,18026, Control_c,0,65,0,
2,18038, Note_on_c,0,37,67,
2,18052, Note_on_c,0,38,84,
2,18060, Note_on_c,0,70,118,
2,18070, Note_on_c,0,57,102,
2,18114, Note_on_c,0,70,0,
2,18138, Control_c,0,65,127,
2,18136, Note_on_c,0,59,77,
2,18138, Note_on_c,0,59,78,
2,18160, Note_on_c,0,69,59,
2,18176, Note_on_c,0,77,0,
2,18168, Note_on_c,0,88,0,
2,18182, Note_on_c,0,92,0,
2,18194, Note_on_c,0,79,0,
2,18332, Note_on_c,0,42,60,
2,18356, Note_on_c,0,41,0,
2,18388, Note_on_c,0,55,83,
2,18394, Note_on_c,0,60,0,
2,18396, Note_on_c,0,69,0,
2,18398, Note_on_c,0,50,0,
2,18404, Note_on_c,0,64,62,
2,18464, Note_on_c,0,50,42,
2,18470, Control_c,0,65,127,
2,18488, Note_off_c,0,70,0,
2,18724, Note_off_c,0,69,0,
2,18758, Note_on_c,0,61,75,
2,18760, Note_on_c,0,41,68,
2,18774, Note_on_c,0,69,0,
2,18788, Note_on_c,0,64,0,
2,18814, Note_on_c,0,35,0,
2,18854, Note_on_c,0,80,0,
2,18968, Note_on_c,0,67,0,
2,19136, Note_on_c,0,67,33,
2,19356, Note_on_c,0,63,0,
2,19362, Control_c,0,65,127,
2,19376, Note_off_c,0,52,0,
2,19420, Note_on_c,0,70,95,
2,19448, Control_c,0,65,127,
2,19458, Note_off_c,0,66,0,
2,19516, Note_on_c,0,67,97,
2,19566, Control_c,0,65,0,
2,19604, Note_on_c,0,49,59,
2,19640, Note_on_c,0,60,71,
2,19642, Note_on_c,0,60,0,
2,19642, Note_on_c,0,35,0,
2,19722, Control_c,0,65,127,
2,19840, Note_on_c,0,81,100,
2,19668, Note_on_c,0,85,0,
2,19686, Note_on_c,0,75,0,
2,19680, Note_on_c,0,52,0,
2,19690, Note_on_c,0,80,0,
2,19754, Note_on_c,0,63,103,
2,19776, Control_c,0,60,0,
2,19802, Note_on_c,0,72,71,
2,18948, Note_on_c,0,70,0,
2,18950, Note_on_c,0,58,0,
2,19012, Control_c,0,65,127,
2,19046, Note_off_c,0,31,0,
2,19056, Note_off_c,0,49,0,
2,19146, Note_off_c,0,79,0,
2,19192, Note_off_c,0,65,0,
2,21914, Note_off_c,0,58,0,
2,21918, Note_off_c,0,72,0,
2,20234, Note_on_c,0,62,49,
2,20236, Note_on_c,0,36,40,
2,20226, Note_on_c,0,53,0,
2,20252, Note_on_c,0,55,0,
2,20264, Note_on_c,0,78,0,
2,20288, Note_on_c,0,69,37,
2,20298, Note_on_c,0,53,69,
2,20314, Note_on_c,0,72,0,
2,20330, Control_c,0,60,127,
2,203336, Note_off_c,0,68,0,
2,203386, Note_off_c,0,62,0,
2,203398, Note_off_c,0,60,0,
2,203548, Note_on_c,0,47,112,
2,203558, Note_on_c,0,59,0,
2,203592, Note_on_c,0,77,0,
2,203596, Note_on_c,0,64,0,
2,203810, Control_c,0,65,0,
2,203710, Note_off_c,0,64,0,
2,202932, Note_on_c,0,58,104,
2,202928, Note_on_c,0,58,92,
2,202934, Note_on_c,0,82,117,
2,202954, Control_c,0,69,0,
2,202964, Note_on_c,0,41,65,
2,200584, Control_c,0,64,127,
2,200666, Note_off_c,0,71,0,
2,202854, Note_on_c,0,79,19,
2,202906, Note_on_c,0,42,0,
2,202928, Note_on_c,0,92,0,
2,203080, Note_on_c,0,87,0,
2,203210, Note_on_c,0,55,103,
2,203232, Note_on_c,0,81,108,
2,203258, Note_on_c,0,63,0,
2,202356, Control_c,0,64,127,
2,202442, Note_off_c,0,57,0,
2,202538, Note_on_c,0,49,95,
2,202536, Note_on_c,0,66,101,
2,202538, Note_on_c,0,56,92,
2,202540, Control_c,0,60,0,
2,202588, Control_c,0,67,127,
2,202690, Note_off_c,0,52,0,
2,202732, Note_on_c,0,47,85,
2,202724, Note_on_c,0,62,108,
2,202752, Control_c,0,65,127,
2,207296, Note_off_c,0,62,0,
2,82736, Note_on_c,0,61,100,
2,82746, Note_on_c,0,45,68,
2,82764, Note_on_c,0,58,65,
2,82760, Note_on_c,0,75,103,
2,82764, Note_on_c,0,64,107,
2,82784, Note_on_c,0,55,94,
2,92872, Note_on_c,0,66,92,
2,92876, Note_on_c,0,82,96,
2,92996, Control_c,0,69,0,
2,93012, Note_off_c,0,84,0,
2,93048, Note_off_c,0,79,0,
2,93046, Note_off_c,0,81,0,
2,93078, Note_on_c,0,56,58,
2,93128, Note_on_c,0,58,0,
2,91588, Note_on_c,0,47,0,
2,91586, Control_c,0,62,127,
2,91988, Note_on_c,0,73,106,
2,92046, Note_on_c,0,34,80,
2,92076, Note_on_c,0,77,110,
2,92080, Note_on_c,0,62,91,
2,92164, Note_on_c,0,43,0,
2,92182, Control_c,0,60,127,
2,92356, Note_on_c,0,57,77,
2,92520, Control_c,0,69,127,
2,92408, Note_off_c,0,49,0,
2,92406, Note_on_c,0,65,107,
2,92482, Note_on_c,0,62,104,
2,92540, Note_on_c,0,46,0,
2,92552, Note_on_c,0,70,0,
2,92552, Note_on_c,0,91,0,
2,92564, Note_on_c,0,83,0,
2,92586, Note_on_c,0,71,0,
2,92662, Note_on_c,0,78,0,
2,92696, Note_on_c,0,74,0,
2,92700, Note_on_c,0,76,0,
2,92734, Control_c,0,69,0,
2,92754, Note_on_c,0,83,119,
2,92750, Note_on_c,0,67,92,
2,92752, Note_on_c,0,78,70,
2,92760, Note_on_c,0,77,92,
2,92776, Note_on_c,0,71,96,
2,92776, Note_on_c,0,55,101,
2,93882, Note_on_c,0,64,99,
2,93893, Note_on_c,0,64,88,
2,93978, Note_on_c,0,57,86,
2,92856, Control_c,0,69,0,
2,93908, Note_off_c,0,60,0,
2,93936, Note_off_c,0,65,0,
2,93976, Note_on_c,0,84,100,
2,93990, Note_on_c,0,50,88,
2,95992, Note_on_c,0,79,98,
2,99630, Note_on_c,0,62,0,
2,99652, Note_on_c,0,67,0,
2,99660, Note_on_c,0,80,0,
2,99666, Note_on_c,0,77,0,
2,99682, Note_on_c,0,87,0,
2,99692, Note_on_c,0,90,0,
2,99796, Note_on_c,0,82,0,
2,99798, Note_on_c,0,93,106,
2,99796, Note_on_c,0,49,89,
2,99810, Note_on_c,0,77,112,
2,99824, Note_on_c,0,93,95,
2,99842, Note_on_c,0,69,94,
2,99888, Note_on_c,0,47,0,
2,99896, Note_on_c,0,75,0,
2,99980, Note_on_c,0,52,0,
2,99992, Note_on_c,0,68,0,
2,99998, Note_on_c,0,84,0,
2,99996, Control_c,0,64,127,
2,10009, Note_off_c,0,81,0,
2,100254, Note_on_c,0,93,101,
2,100356, Note_on_c,0,73,0,
2,100382, Note_on_c,0,68,0,
2,100386, Note_on_c,0,93,0,
2,100406, Control_c,0,64,0,
2,100452, Note_off_c,0,80,0,
2,100544, Control_c,0,64,127,
2,100552, Note_off_c,0,81,0,
2,100572, Note_on_c,0,92,110,
2,100624, Note_on_c,0,49,95,
2,100626, Note_on_c,0,82,87,
2,100642, Note_on_c,0,77,0,
2,100808, Note_on_c,0,83,0,
2,100842, Note_on_c,0,47,0,
2,100886, Note_on_c,0,98,0,
2,100924, Note_on_c,0,63,75,
2,100932, Note_on_c,0,66,74,
2,100974, Note_on_c,0,59,0,
2,101000, Note_on_c,0,45,0,
2,101022, Note_on_c,0,44,54,
2,101032, Note_on_c,0,68,57,
2,101068, Note_on_c,0,61,0,
2,101088, Note_on_c,0,70,0,
2,101106, Note_on_c,0,55,0,
2,101146, Note_on_c,0,61,0,
2,101158, Note_on_c,0,68,0,
2,101214, Note_on_c,0,70,106,
2,101226, Note_on_c,0,77,105,
2,101228, Note_on_c,0,89,98,
2,101230, Note_on_c,0,80,96,
2,101430, Note_on_c,0,87,76,
2,101460, Control_c,0,64,0,
2,101460, Note_off_c,0,86,0,
2,101460, Note_off_c,0,87,0,
2,101486, Note_off_c,0,89,0,
2,101492, Note_on_c,0,67,25,
2,101496, Note_on_c,0,83,60,
2,101512, Note_on_c,0,69,94,
2,101522, Note_on_c,0,73,76,
2,101626, Note_on_c,0,47,63,
2,101630, Control_c,0,64,0,
2,101636, Note_off_c,0,66,0,
2,101844, Note_on_c,0,68,46,
2,101842, Note_on_c,0,74,59,
2,101844, Note_on_c,0,73,79,
2,101864, Note_on_c,0,61,60,
2,101884, Note_on_c,0,67,61,
2,101916, Control_c,0,64,0,
2,101980, Note_off_c,0,77,0,
2,101992, Note_off_c,0,76,0,
2,102004, Control_c,0,64,127,
2,102076, Note_off_c,0,79,0,
2,102128, Note_on_c,0,79,104,
2,102154, Note_on_c,0,72,0,
2,102426, Note_on_c,0,67,0,
2,102472, Note_on_c,0,63,117,
2,102672, Note_on_c,0,72,112,
2,102856, Control_c,0,64,127,
2,102846, Control_c,0,65,0,
2,102938, Control_c,0,64,127,
2,102948, Note_off_c,0,41,0,
2,103130, Note_on_c,0,65,70,
2,103204, Note_on_c,0,63,0,
2,103286, Note_on_c,0,58,0,
2,102376, Note_on_c,0,59,0,
2,102430, Note_on_c,0,71,0,
2,102456, Note_on_c,0,40,66,
2,102462, Note_on_c,0,57,49,
2,102474, Note_on_c,0,55,49,
2,102560, Note_on_c,0,65,0,
2,102972, Note_on_c,0,65,0,
2,102968, Note_on_c,0,71,0,
2,102964, Note_on_c,0,65,0,
2,102994, Note_on_c,0,63,0,
2,103356, Note_on_c,0,74,90,
2,103392, Note_on_c,0,89,121,
2,103420, Note_on_c,0,51,0,
2,103614, Note_on_c,0,69,0,
2,103658, Note_on_c,0,63,0,
2,103792, Note_on_c,0,69,0,
2,103796, Note_on_c,0,70,0,
2,103978, Note_on_c,0,43,0,
2,104010, Note_on_c,0,84,0,
2,104022, Note_on_c,0,48,0,
2,104036, Control_c,0,64,127,
2,104090, Control_c,0,64,0,
2,104260, Note_on_c,0,39,84,
2,104282, Control_c,0,64,0,
2,104318, Note_on_c,0,59,79,
2,104342, Note_on_c,0,66,0,
2,104356, Note_on_c,0,52,0,
2,104508, Note_on_c,0,45,49,
2,104508, Note_on_c,0,55,0,
2,104540, Note_on_c,0,64,0,
2,104542, Note_on_c,0,46,64,
2,104542, Note_on_c,0,60,0,
2,104582, Note_on_c,0,50,95,
2,104614, Control_c,0,62,127,
2,104728, Note_off_c,0,67,0,
2,104724, Note_off_c,0,40,0,
2,104734, Note_off_c,0,70,0,
2,104980, Control_c,0,62,0,
2,104984, Note_on_c,0,60,73,
2,104990, Note_on_c,0,63,71,
2,105010, Note_on_c,0,61,0,
2,105086, Note_on_c,0,75,0,
2,105088, Note_on_c,0,67,0,
2,105088, Note_on_c,0,63,0,
2,105088, Control_c,0,64,127,
2,91708, Note_off_c,0,44,0,
2,91728, Note_off_c,0,84,0,
2,91756, Note_off_c,0,74,0,
2,91764, Note_off_c,0,51,0,
2,91778, Note_off_c,0,69,0,
2,91802, Note_off_c,0,89,0,
2,91816, Control_c,0,69,127,
2,91844, Note_off_c,0,76,0,
2,91892, Note_off_c,0,73,0,
2,91898, Note_off_c,0,65,0,
2,91918, Note_off_c,0,67,0,
2,91998, Note_on_c,0,74,73,
2,91994, Note_on_c,0,60,72,
2,92062, Control_c,0,60,0,
2,92062, Note_on_c,0,66,101,
2,92054, Note_on_c,0,68,107,
2,92054, Note_on_c,0,68,111,
2,92052, Note_on_c,0,79,99,
2,92062, Note_on_c,0,43,99,
2,92074, Note_on_c,0,68,79,
2,92102, Control_c,0,60,0,
2,92116, Note_on_c,0,73,93,
2,93156, Note_on_c,0,66,88,
2,93162, Note_on_c,0,58,55,
2,93164, Note_on_c,0,63,75,
2,93202, Control_c,0,60,0,
2,93278, Note_on_c,0,67,93,
2,93278, Note_on_c,0,63,59,