2,41764, Note_off_c,0,55,0,
2,41894, Note_off_c,0,79,0,
2,41952, Note_off_c,0,65,0,
2,41978, Note_on_c,0,36,56,
2,41112, Note_on_c,0,54,57,
2,41040, Note_on_c,0,42,73,
2,41176, Note_on_c,0,65,0,
2,41152, Note_on_c,0,67,0,
2,41200, Note_on_c,0,60,0,
2,41228, Note_on_c,0,68,0,
2,41242, Note_on_c,0,73,0,
2,41210, Note_on_c,0,74,68,
2,41232, Note_on_c,0,64,0,
2,41296, Note_on_c,0,72,0,
2,41152, Note_on_c,0,70,0,
2,40132, Note_on_c,0,75,0,
2,61200, Note_on_c,0,86,0,
2,61278, Note_on_c,0,79,0,
2,61244, Note_on_c,0,70,86,
2,61168, Note_on_c,0,79,0,
2,61128, Control_c,0,62,127,
2,61116, Control_c,2,64,127,
2,61288, Note_off_c,0,81,0,
2,61296, Note_off_c,0,76,0,
2,61248, Note_off_c,0,71,0,
2,61270, Note_on_c,0,68,82,
2,61284, Note_on_c,0,64,0,
2,61214, Note_on_c,0,40,58,
2,61132, Note_on_c,0,58,0,
2,61236, Note_on_c,0,58,0,
2,60136, Note_on_c,0,78,0,
2,80540, Note_on_c,0,82,0,
2,80520, Note_on_c,0,81,98,
2,80540, Note_on_c,0,91,67,
2,80602, Note_on_c,0,55,77,
2,80662, Note_on_c,0,75,0,
2,80664, Note_on_c,0,77,0,
2,80686, Note_on_c,0,84,111,
2,80656, Note_on_c,0,64,0,
2,80586, Note_on_c,0,75,0,
2,80664, Note_on_c,0,88,0,
2,80762, Note_on_c,0,85,0,
2,80694, Note_on_c,0,85,0,
2,80612, Note_on_c,0,59,0,
2,80026, Note_on_c,0,91,0,
2,80206, Note_on_c,0,90,0,
2,80222, Note_on_c,0,85,0,
2,80420, Note_on_c,0,58,0,
2,80164, Note_on_c,0,78,0,
2,80902, Note_on_c,0,80,109,
2,80952, Note_on_c,0,38,88,
2,80742, Note_on_c,0,69,0,
2,80634, Note_on_c,0,79,82,
2,80616, Note_on_c,0,47,0,
2,80616, Note_on_c,0,80,92,
2,80676, Note_on_c,0,51,91,
2,80632, Note_on_c,0,36,88,
2,80620, Note_on_c,0,55,0,
2,80668, Note_on_c,0,54,84,
2,80692, Note_on_c,0,79,44,
2,80724, Note_on_c,0,66,87,
2,80710, Note_on_c,0,45,0,
2,80720, Note_on_c,0,74,75,
2,80734, Note_on_c,0,42,91,
2,80514, Note_on_c,0,65,0,
2,80514, Note_on_c,0,50,91,
2,80510, Note_on_c,0,77,53,
2,80526, Note_on_c,0,82,0,
2,80508, Note_on_c,0,65,85,
2,80740, Note_on_c,0,36,0,
2,80698, Note_on_c,0,76,0,
2,80846, Note_on_c,0,48,74,
2,80692, Note_on_c,0,65,0,
2,80778, Note_on_c,0,80,95,
2,80812, Note_on_c,0,80,82,
2,80710, Note_on_c,0,62,91,
2,80050, Note_on_c,0,87,0,
2,80068, Note_on_c,0,58,0,
2,80084, Note_on_c,0,80,0,
2,80098, Note_on_c,0,70,25,
2,80076, Note_on_c,0,80,0,
2,80268, Note_on_c,0,97,0,
2,80400, Note_on_c,0,85,0,
2,80282, Note_on_c,0,80,0,
2,80304, Note_on_c,0,71,0,
2,80258, Note_on_c,0,65,99,
2,80452, Note_on_c,0,58,0,
2,80560, Note_on_c,0,82,87,
2,80676, Control_c,0,64,127,
2,80650, Note_on_c,0,43,91,
2,80624, Note_on_c,0,67,100,
2,80666, Note_on_c,0,54,0,
2,80868, Note_on_c,0,77,0,
2,80814, Note_on_c,0,60,112,
2,80868, Note_on_c,0,55,93,
2,80864, Note_on_c,0,51,61,
2,80922, Note_on_c,0,77,0,
2,80812, Note_on_c,0,63,143,
2,80810, Note_on_c,0,75,0,
2,80838, Note_on_c,0,42,0,
2,80900, Note_on_c,0,87,0,
2,80956, Note_on_c,0,85,0,
2,89084, Control_c,0,64,0,
2,89032, Note_on_c,0,39,67,
2,89156, Note_on_c,0,64,0,
2,89362, Note_on_c,0,56,0,
2,89456, Note_on_c,0,35,0,
2,89470, Note_on_c,0,74,0,
2,89512, Note_on_c,0,87,0,
2,89184, Note_on_c,0,90,0,
2,89058, Note_on_c,0,75,62,
2,89010, Note_on_c,0,75,0,
2,89086, Note_on_c,0,88,0,
2,89068, Note_on_c,0,59,0,
2,98116, Note_on_c,0,84,0,
2,89082, Note_on_c,0,111,0,
2,89165 Note_on_c,0,80,0,
2,89014, Note_on_c,0,71,0,
2,89136, Note_on_c,0,86,65,
2,89118, Note_on_c,0,93,90,
2,89120, Note_on_c,0,75,0,
2,89164, Note_on_c,0,90,48,
2,89036, Note_on_c,0,38,0,
2,89046, Note_on_c,0,67,0,
2,89124, Note_on_c,0,51,66,
2,89344, Note_on_c,0,71,106,
2,89522, Note_on_c,0,80,0,
2,89520, Note_on_c,0,59,0,
2,89434, Note_on_c,0,86,77,
2,89526, Note_on_c,0,95,69,
2,89502, Note_on_c,0,85,0,
2,89936, Note_on_c,0,68,0,
2,88116, Note_on_c,0,86,0,
2,89812, Note_on_c,0,75,0,
2,89914, Note_on_c,0,70,82,
2,89954, Note_on_c,0,47,0,
2,89984, Control_c,0,62,0,
2,89908, Note_on_c,0,80,62,
2,89976, Note_on_c,0,47,65,
2,89968, Note_on_c,0,66,72,
2,89964, Note_on_c,0,46,0,
2,89846, Note_on_c,0,45,0,
2,89932, Note_on_c,0,88,0,
2,89924, Note_on_c,0,56,90,
2,89974, Note_on_c,0,58,67,
2,89904, Note_on_c,0,75,0,
2,89910, Control_c,0,64,0,
2,89940, Control_c,0,64,0,
2,89986, Note_off_c,0,62,0,
2,89948, Note_on_c,0,61,100,
2,89936, Note_on_c,0,36,0,
2,89924, Note_on_c,0,53,0,
2,89236, Note_on_c,0,61,0,
2,89580, Note_on_c,0,54,55,
2,89864, Note_on_c,0,74,0,
2,89866, Note_on_c,0,58,103,
2,89072, Note_on_c,0,63,0,
2,89022, Note_on_c,0,69,0,
2,89116, Note_on_c,0,42,0,
2,89148, Note_on_c,0,52,0,
2,89194, Note_on_c,0,89,0,
2,89170, Note_on_c,0,55,90,
2,89128, Note_on_c,0,54,0,
2,89120, Note_on_c,0,54,0,
2,89152, Note_on_c,0,81,0,
2,89152, Note_on_c,0,61,0,
2,80072, Note_on_c,0,91,0,
2,80088, Note_on_c,0,97,0,
2,80204, Note_on_c,0,80,0,
2,80410, Note_on_c,0,89,0,
2,80528, Note_on_c,0,87,0,
2,80520, Note_on_c,0,83,115,
2,80440, Note_on_c,0,89,0,
2,80516, Note_on_c,0,79,0,
2,80558, Note_on_c,0,69,0,
2,80514, Note_on_c,0,71,78,
2,80664, Note_on_c,0,66,0,
2,80688, Note_on_c,0,46,0,
2,80866, Note_on_c,0,56,75,
2,80882, Note_on_c,0,57,0,
2,80996, Note_on_c,0,71,0,
2,81970, Note_on_c,0,67,106,
2,81916, Note_on_c,0,86,0,
2,81072, Note_on_c,0,48,0,
2,81034, Note_on_c,0,86,114,
2,80126, Note_on_c,0,90,0,
2,80272, Note_on_c,0,93,0,
2,80288, Note_on_c,0,83,0,
2,80312, Note_on_c,0,76,0,
2,80524, Note_on_c,0,77,52,
2,80450, Note_on_c,0,70,95,
2,80510, Note_on_c,0,72,48,
2,80424, Note_on_c,0,78,93,
2,80304, Note_on_c,0,76,0,
2,80538, Note_on_c,0,85,0,
2,80652, Note_on_c,0,89,0,
2,80592, Note_on_c,0,80,100,
2,80520, Note_on_c,0,80,0,
2,80546, Note_on_c,0,80,0,
2,80508, Note_on_c,0,52,67,
2,80758, Note_on_c,0,58,59,
2,80966, Control_c,0,62,127,
2,80920, Note_off_c,0,76,0,
2,80688, Note_off_c,0,59,0,
2,80056, Note_off_c,0,59,0,
2,80212, Note_off_c,0,64,0,
2,80632, Note_on_c,0,52,64,
2,80954, Note_on_c,0,54,0,
2,80964, Note_on_c,0,75,0,
2,80858, Control_c,0,62,127,
2,80826, Note_off_c,0,66,0,
2,80820, Control_c,0,62,127,
2,80862, Note_off_c,0,66,0,
2,80854, Note_off_c,0,80,0,
2,80892, Note_off_c,0,71,0,
2,80872, Note_off_c,0,71,0,
2,80868, Note_on_c,0,72,98,
2,80798, Note_on_c,0,65,101,
2,80934, Control_c,0,64,117,
2,80232, Note_off_c,0,74,0,
2,80228, Note_off_c,0,50,0,
2,80366, Note_on_c,0,60,78,
2,80476, Note_on_c,0,60,0,
2,80546, Note_on_c,0,55,58,
2,80620, Note_on_c,0,55,0,
2,80610, Note_on_c,0,38,0,
2,80600, Note_on_c,0,68,0,
2,80728, Note_on_c,0,61,123,
2,80712, Note_on_c,0,64,65,
2,80754, Note_on_c,0,41,69,
2,80824, Note_on_c,0,59,0,
2,80832, Note_on_c,0,69,0,
2,80886, Note_on_c,0,60,0,
2,80890, Note_on_c,0,60,72,
2,80056, Note_on_c,0,59,72,
2,80282, Note_on_c,0,65,0,
2,80244, Note_on_c,0,28,89,
2,80320, Note_on_c,0,76,0,
2,80520, Note_on_c,0,69,85,
2,80574, Note_on_c,0,83,89,
2,80536, Note_on_c,0,53,0,
2,80558, Note_on_c,0,58,0,
2,80722, Note_on_c,0,59,0,
2,80708, Note_on_c,0,78,0,
2,80816, Note_on_c,0,88,0,
2,80936, Note_on_c,0,70,0,
2,80028, Note_on_c,0,78,0,
2,80020, Note_on_c,0,74,0,
2,80066, Note_on_c,0,88,0,
2,80086, Note_on_c,0,95,78,
2,80024, Note_on_c,0,85,70,
2,81016, Note_on_c,0,83,114,
2,80300, Control_c,0,64,127,
2,80346, Control_c,0,62,0,
2,80422, Note_on_c,0,45,45,
2,80426, Note_on_c,0,78,70,
2,80604, Note_on_c,0,55,58,
2,80848, Note_on_c,0,30,85,
2,80854, Note_on_c,0,55,0,
2,80856, Note_on_c,0,56,0,
2,80826, Note_on_c,0,81,0,
2,80872, Note_on_c,0,77,52,
2,80872, Note_on_c,0,39,0,
2,80854, Control_c,0,62,0,
2,80962, Note_on_c,0,66,67,
2,80052, Note_on_c,0,65,0,
2,80034, Note_on_c,0,76,0,
2,80096, Note_on_c,0,59,75,
2,80070, Note_on_c,0,71,75,
2,80050, Note_on_c,0,50,79,
2,80024, Note_on_c,0,52,0,
2,80082, Control_c,0,64,0,
2,80002, Note_on_c,0,60,76,
2,80048, Note_on_c,0,76,0,
2,80058, Note_on_c,0,79,0,
2,80066, Note_on_c,0,76,0,
2,80016, Note_on_c,0,88,0,
2,80096, Note_on_c,0,73,0,
2,80236, Note_on_c,0,98,0,
2,80288, Control_c,0,64,127,
2,80388, Note_on_c,0,35,78,
2,80518, Note_on_c,0,51,0,
2,80474, Note_on_c,0,77,101,
2,80214, Control_c,0,59,0,
2,80302, Note_on_c,0,50,57,
2,80242, Note_on_c,0,69,81,
2,80238, Note_on_c,0,52,0,
2,80320, Note_on_c,0,85,0,
2,80220, Note_on_c,0,75,115,
2,80336, Note_on_c,0,86,0,
2,80450, Note_on_c,0,71,0,
2,80564, Note_on_c,0,53,80,
2,80692, Control_c,0,60,0,
2,80620, Note_on_c,0,78,66,
2,80612, Note_on_c,0,51,0,
2,80896, Note_on_c,0,69,65,
2,80904, Note_on_c,0,59,59,
2,80000, Note_on_c,0,80,01
2,80316, Note_on_c,0,95,93,
2,80356, Note_on_c,0,90,82,
2,80390, Note_on_c,0,65,0,
2,80456, Note_on_c,0,55,0,
2,80440, Note_on_c,0,79,0,
2,80452, Note_on_c,0,89,110,
2,80470, Note_on_c,0,81,0,
2,80624, Note_on_c,0,94,115,
2,80632, Note_on_c,0,88,0,
2,80572, Note_on_c,0,37,0,
2,80518, Note_on_c,0,82,0,
2,80456, Note_on_c,0,72,0,
2,80384, Note_on_c,0,82,0,
2,80324, Control_c,0,64,127,
2,80504, Note_off_c,0,70,0,
2,80658, Note_off_c,0,45,0,
2,80610, Note_on_c,0,50,85,
2,80622, Note_on_c,0,62,49,
2,80614, Note_on_c,0,74,64,
2,80664, Note_on_c,0,81,109,
2,80656, Note_on_c,0,74,65,
2,80750, Note_on_c,0,94,79,
2,80940, Note_on_c,0,80,90,
2,80962, Note_on_c,0,99,106,
2,80000, Note_on_c,0,79,0,
2,80018, Note_on_c,0,65,0,
2,80036, Note_on_c,0,52,81,
2,80070, Note_on_c,0,46,0,
2,80030, Note_on_c,0,59,0,
2,80116, Note_on_c,0,57,66,
2,80190, Note_on_c,0,79,0,
2,80242, Note_on_c,0,76,61,
2,80536, Note_on_c,0,57,0,
2,80434, Note_on_c,0,82,0,
2,80546, Note_on_c,0,69,0,
2,80708, Note_on_c,0,61,76,
2,80838, Note_on_c,0,79,91,
2,80666, Note_on_c,0,55,110,
2,80646, Note_on_c,0,52,0,
2,80728, Note_on_c,0,55,0,
2,80840, Note_on_c,0,75,93,
2,80860, Note_on_c,0,87,29,
2,80906, Note_on_c,0,77,0,
2,80832, Note_on_c,0,101,0,
2,80980, Note_on_c,0,90,0,
2,80834, Note_on_c,0,76,0,
2,80858, Note_on_c,0,70,91,
2,80870, Note_on_c,0,58,91,
2,80886, Note_on_c,0,58,0,
2,80978, Note_on_c,0,85,0,
2,80790, Note_on_c,0,79,0,
2,80718, Control_c,0,69,0,
2,80982, Note_off_c,0,53,0,
2,80994, Control_c,0,64,127,
2,80878, Note_off_c,0,51,0,
2,809040, 8ontrol_c,0,60,127,
2,80028, Note_on_c,0,69,80,
2,80084, Note_on_c,0,74,0,
2,80174, Note_on_c,0,80,77,
2,80032, Note_on_c,0,75,0,
2,80084, Note_on_c,0,79,0,
2,80080, Control_c,0,64,127,
2,80224, Note_on_c,0,55,96,
