2,16140, Note_on_c,2,45,64,
2,17536, Note_on_c,2,35,0,
2,16684, Note_on_c,2,51,0,
2,16468, Note_on_c,2,44,106,
2,17500, Note_on_c,2,79,0,
2,16388, Note_on_c,2,60,0,
2,18064, Note_on_c,2,60,0,
2,17516, Note_on_c,2,35,0,
2,10896, Note_on_c,2,64,0,
2,17296, Note_on_c,2,34,81,
2,17452, Note_on_c,2,51,108,
2,17076, Control_c,2,60,127,
2,17400, Note_off_c,2,59,0,
2,17440, Note_off_c,2,57,0,
2,17868, Note_on_c,2,55,75,
2,17768, Note_on_c,2,63,44,
2,17160, Note_on_c,2,50,48,
2,17536, Note_on_c,2,70,85,
2,17504, Note_on_c,2,62,57,
2,18536, Note_on_c,2,70,68,
2,17656, Note_on_c,2,77,70,
2,1760, Control_c,2,69,0,
2,18608, Control_c,2,60,0,
2,18704, Note_on_c,2,54,53,
2,19632, Note_on_c,2,64,44,
2,18600, Note_on_c,2,50,55,
2,18596, Note_on_c,2,67,0,
2,18636, Note_on_c,2,59,43,
2,17660, Note_on_c,2,57,44,
2,17648, Note_on_c,2,55,0,
2,17796, Note_on_c,2,51,0,
2,18784, Note_on_c,2,62,0,
2,18744, Note_on_c,2,55,0,
2,17636, Note_on_c,2,59,0,
2,17620, Note_on_c,2,53,0,
2,17700, Note_on_c,2,43,67,
2,18680, Note_on_c,2,65,0,
2,17376, Note_on_c,2,67,0,
2,17396, Note_on_c,2,64,49,
2,18044, Note_on_c,2,70,0,
2,18608, Note_on_c,2,64,72,
2,17776, Note_on_c,2,68,0,
2,17860, Note_on_c,2,64,0,
2,18096, Note_on_c,2,64,0,
2,18112, Note_on_c,2,48,0,
2,18004, Note_on_c,2,91,0,
2,18704, Note_on_c,2,90,0,
2,17420, Note_on_c,2,75,0,
2,18632, Note_on_c,2,58,0,
2,17056, Note_on_c,2,68,0,
2,17800, Note_on_c,2,70,109,
2,18760, Note_on_c,2,37,77,
2,18680, Note_on_c,2,69,0,
2,18644, Note_on_c,2,79,81,
2,17624, Note_on_c,2,47,0,
2,17616, Note_on_c,2,71,91,
2,18596, Note_on_c,2,51,91,
2,17620, Note_on_c,2,36,79,
2,18632, Note_on_c,2,54,0,
2,17376, Note_on_c,2,43,83,
2,16292, Note_on_c,2,79,101,
2,17446, Note_on_c,2,75,57,
2,18504, Note_on_c,2,71,80,
2,17356, Note_on_c,2,86,0,
2,17560, Note_on_c,2,59,0,
2,18344, Note_on_c,2,64,0,
2,12844, Note_on_c,2,40,91,
2,1462, Control_c,2,67,24,
2,14644, Note_off_c,2,71,0,
2,14608, Note_off_c,2,64,0,
2,14760, Note_on_c,2,35,56,
2,14988, Note_on_c,2,65,30,
2,14948, Note_on_c,2,67,104,
2,14944, Note_on_c,2,58,0,
2,18448, Control_c,2,70,0,
2,14848, Note_on_c,2,67,52,
2,14740, Note_on_c,2,59,40,
2,14770, Note_on_c,2,41,0,
2,14900, Note_on_c,2,54,70,
2,14824, Note_on_c,2,46,0,
2,14892, Note_on_c,2,62,0,
2,14932, Note_on_c,2,50,59,
2,14968, Note_on_c,2,47,0,
2,14972, Note_on_c,2,44,38,
2,18002, Note_on_c,2,47,91,
2,14720, Note_on_c,2,66,39,
2,18660, Control_c,2,59,0,
2,18696, Note_on_c,2,47,0,
2,18716, Note_on_c,2,62,52,
2,18304, Note_on_c,2,40,73,
2,15244, Control_c,2,60,127,
2,13620, Note_off_c,2,58,0,
2,15792, Note_off_c,2,60,0,
2,17604, Note_off_c,2,74,0,
2,18688, Note_off_c,2,67,0,
2,17868, Note_off_c,2,70,0,
2,18728, Control_c,2,60,0,
2,18724, Note_on_c,2,53,43,
2,18892, Note_on_c,2,61,61,
2,18860, Note_on_c,2,57,42,
2,18896, Note_on_c,2,67,73,
2,19308, Control_c,2,67,127,
2,11620, Note_on_c,2,69,72,
2,10528, Note_on_c,2,50,0,
2,13604, Note_on_c,2,69,66,
2,13600, Note_on_c,2,79,0,
2,13760, Note_on_c,2,65,50,
2,15592, Note_on_c,2,59,0,
2,15388, Note_on_c,2,61,0,
2,15644, Note_on_c,2,39,0,
2,13860, Note_on_c,2,37,0,
2,17364, Note_on_c,2,41,0,
2,16580, Note_on_c,2,54,54,
2,16648, Note_on_c,2,57,35,
2,17616, Note_on_c,2,57,68,
2,17524, Note_on_c,2,43,84,
2,17532, Note_on_c,2,64,0,
2,17560, Control_c,2,60,127,
2,16660, Note_on_c,2,50,68,
2,16676, Note_on_c,2,49,0,
2,17568, Note_on_c,2,51,40,
2,17632, Note_on_c,2,71,69,
2,17780, Note_on_c,2,66,72,
2,17804, Note_on_c,2,59,0,
2,17836, Note_on_c,2,71,68,
2,18008, Control_c,2,69,127,
2,17164, Note_on_c,2,71,54,
2,18708, Control_c,2,65,0,
2,18592, Note_on_c,2,50,41,
2,18608, Note_on_c,2,68,0,
2,17868, Note_on_c,2,59,62,
2,18860, Control_c,2,60,127,
4,18828, Note_off_c,2,62,0,
2,18828, Note_on_c,2,58,49,
2,18856, Note_on_c,2,54,53,
2,17974, Control_c,2,59,127,
2,18880, Note_off_c,2,60,0,
2,19664, Note_on_c,2,57,80,
2,18860, Note_on_c,2,39,0,
2,18864, Note_on_c,2,63,64,
2,18756, Note_on_c,2,64,50,
2,17760, Note_on_c,2,59,0,
2,17888, Control_c,2,59,127,
2,18852, Note_off_c,2,55,0,
2,18196, Note_off_c,2,58,0,
2,18512, Note_on_c,2,58,40,
2,17512, Control_c,2,64,0,
2,17640, Control_c,2,70,0,
2,18588, Note_off_c,2,53,0,
2,18656, Note_on_c,2,61,0,
2,18664, Control_c,2,10,0,
2,18636, Note_on_c,2,54,48,
2,18704, Control_c,2,60,127,
2,19812, Note_off_c,2,57,0,
2,18840, Note_off_c,2,62,0,
2,19768, Note_off_c,2,60,0,
2,11868, Note_on_c,2,55,59,
2,14868, Note_on_c,2,51,55,
2,18748, Note_on_c,2,59,0,
2,18640, Note_on_c,2,43,0,
2,18632, Note_on_c,2,43,64,
2,14844, Control_c,2,59,127,
2,14964, Note_on_c,2,71,61,
2,14800, Note_on_c,2,45,0,
2,18404, Control_c,2,67,0,
2,14872, Note_on_c,2,67,0,
2,14862, Control_c,2,67,127,
2,12896, Note_off_c,2,59,0,
2,14888, Note_off_c,2,62,0,
2,14868, Note_off_c,2,59,0,
2,14840, Control_c,2,51,0,
2,14956, Note_on_c,2,51,36,
2,12982, Note_on_c,2,62,59,
2,14900, Control_c,2,69,127,
2,184572, Note_off_c,2,75,0,
2,14884, Note_off_c,2,70,0,
2,14944, Note_off_c,2,65,0,
2,14404, Control_c,2,61,0,
2,12716, Note_on_c,2,56,78,
2,12846, Control_c,2,10,127,
2,14680, Note_off_c,2,42,0,
2,14776, Note_off_c,2,59,0,
2,15880, Note_off_c,2,57,0,
2,15604, Control_c,2,70,0,
2,15668, Note_on_c,2,57,69,
2,15660, Note_on_c,2,59,0,
2,15612, Control_c,2,168,0,
2,15724, Note_on_c,2,55,77,
2,16064, Note_on_c,2,53,66,
2,17572, Note_on_c,2,54,61,
2,1866, Control_c,2,67,0,
2,17676, Note_on_c,2,45,67,
2,18680, Note_on_c,2,57,60,
2,18712, Note_on_c,2,60,40,
2,18712, Control_c,2,60,0,
2,17816, Note_on_c,2,52,48,
2,18108, Note_on_c,2,52,53,
2,19316, Note_on_c,2,75,67,
2,18226, Note_on_c,2,52,57,
2,18460, Note_on_c,2,52,36,
2,19616, Note_on_c,2,71,0,
2,18720, Control_c,2,60,127,
2,18644, Note_off_c,2,59,0,
2,18644, Note_off_c,2,53,0,
2,18768, Note_on_c,2,61,67,
2,18780, Note_on_c,2,59,0,
2,18736, Control_c,2,108,0,
2,18600, Note_on_c,2,39,74,
2,17672, Note_on_c,2,54,72,
2,17668, Note_on_c,2,71,67,
2,17784, Note_on_c,2,71,85,
2,18608, Note_on_c,2,76,0,
2,18736, Note_on_c,2,69,0,
2,18816, Note_on_c,2,32,57,
2,18816, Control_c,2,69,0,
2,18772, Note_on_c,2,56,58,
2,18836, Note_on_c,2,61,56,
2,18844, Control_c,2,1167,0,
2,11876, Note_off_c,2,58,0,
2,14916, Note_off_c,2,69,0,
2,14940, Note_on_c,2,55,43,
2,18460, Note_on_c,2,55,52,
2,17460, Control_c,2,69,0,
2,18544, Note_on_c,2,59,77,
2,17264, Note_on_c,2,42,0,
2,17506, Note_on_c,2,57,38,
2,17576, Note_on_c,2,60,0,
2,17608, Note_on_c,2,78,53,
2,17744, Note_on_c,2,54,50,
2,18600, Note_on_c,2,65,0,
2,18860, Note_on_c,2,55,0,
2,18868, Note_on_c,2,70,114,
2,11816, Note_on_c,2,63,0,
2,11808, Note_on_c,2,49,0,
2,11836, Note_on_c,2,67,0,
2,11864, Note_on_c,2,56,0,
2,11870, Note_on_c,2,39,0,
2,18728, Note_on_c,2,62,0,
2,19780, Control_c,2,60,127,
2,18958, Note_off_c,2,72,0,
2,19820, Note_off_c,2,58,0,
2,19248, Note_on_c,2,67,81,
2,19288, Note_on_c,2,30,50,
2,19524, Control_c,2,60,0,
2,18660, Note_on_c,2,55,69,
2,17744, Control_c,2,60,127,
2,18628, Note_off_c,2,48,0,
2,17660, Note_on_c,2,69,65,
2,1768, Control_c,2,60,127,
2,17664, Note_off_c,2,46,0,
2,18660, Note_on_c,2,52,57,
2,16200, Note_on_c,2,55,71,
2,15108, Note_on_c,2,48,67,
2,15148, Note_off_c,2,61,0,
2,10596, Note_on_c,2,57,0,
2,10606, Note_on_c,2,55,0,
2,10716, Note_on_c,2,62,0,
2,10960, Note_on_c,2,54,49,
2,10728, Note_on_c,2,78,0,
2,10540, Note_on_c,2,74,91,
2,10586, Note_on_c,2,62,70,
2,10680, Note_on_c,2,58,59,
2,10800, Note_on_c,2,74,0,
2,10862, Note_on_c,2,69,0,
2,16836, Note_on_c,2,81,71,
2,17560, Note_on_c,2,62,0,
2,16500, Note_on_c,2,71,0,
2,16640, Note_on_c,2,70,0,
2,17664, Note_on_c,2,58,117,
2,17076, Control_c,2,71,0,
2,10872, Note_off_c,2,67,0,
2,16560, Note_off_c,2,57,0,
2,10860, Note_on_c,2,43,66,
2,17604, Note_on_c,2,76,0,
2,17692, Note_on_c,2,64,0,
2,17696, Control_c,2,65,0,
2,17628, Note_on_c,2,70,73,
2,17776, Note_on_c,2,70,77,
2,17820, Note_on_c,2,60,108,
2,17964, Note_on_c,2,60,0,
2,17864, Note_on_c,2,71,0,
2,17828, Note_on_c,2,73,57,
2,18768, Control_c,2,69,127,
2,18680, Note_off_c,2,45,0,
2,17580, Note_off_c,2,45,0,
2,17580, Note_off_c,2,35,0,
2,16744, Note_on_c,2,77,52,
2,17520, Note_on_c,2,65,68,
2,17736, Note_on_c,2,65,0,
2,18668, Note_on_c,2,71,0,
2,17768, Note_on_c,2,61,0,
2,16896, Note_on_c,2,61,0,
2,18772, Control_c,2,60,127,
2,18820, Note_off_c,2,40,0,
2,17996, Control_c,2,69,127,
2,19176, Note_off_c,2,57,0,
2,11008, Note_off_c,2,50,0,
2,11604, Control_c,2,59,127,
2,11076, Note_on_c,2,61,81,
2,11612, Control_c,2,109,127,
2,11706, Note_off_c,2,38,0,
2,11068, Note_on_c,2,47,56,
2,11652, Control_c,2,64,127,
2,11584, Note_on_c,2,55,54,
2,11604, Control_c,2,64,0,
2,15480, Control_c,2,67,0,
2,15480, Note_on_c,2,57,53,
2,15900, Note_on_c,2,56,48,
2,18602, Control_c,2,60,0,
2,18648, Note_on_c,2,42,50,
2,18812, Note_on_c,2,32,0,
2,18884, Note_on_c,2,53,56,
2,18724, Note_on_c,2,56,0,
2,11872, Control_c,2,60,127,
2,19752, Note_off_c,2,52,0,
2,18748, Note_off_c,2,58,0,
2,17832, Note_off_c,2,50,0,
2,17160, Note_off_c,2,51,0,
2,18296, Note_off_c,2,41,0,
211868, Control_c,2,60,127,
2,17420, Note_otfc,2,38,0,
2,18624, Note_off_c,2,58,0,
2,18504, Control_c,2,60,0,
2,17628, Control_c,2,60,0,
2,17696, Note_on_c,2,43,60,
2,17516, Note_on_c,2,48,0,
2,17760, Note_on_c,2,64,82,
2,18736, Note_on_c,2,49,0,
2,18612, Control_c,2,60,127,
2,17664, Note_off_c,2,57,0,
2,17568, Note_off_c,2,59,0,
2,16536, Note_on_c,2,59,94,
2,16568, Note_on_c,2,67,70,
2,15772, Note_on_c,2,61,56,
2,17560, Control_c,2,59,0,
2,18566, Note_on_c,2,59,58,
2,17664, Note_on_c,2,66,0,
2,1860, Control_c,2,118,0,
2,17608, Note_on_c,2,79,80,
2,17592, Note_on_c,2,52,54,
2,16540, Note_on_c,2,67,70,
2,17504, Note_on_c,2,43,44,
2,17608, Control_c,2,65,127
2,17556, Note_off_c,2,48,0,
2,15672, Note_off_c,2,62,0,
2,15664, Note_off_c,2,58,0,
2,15676, Note_on_c,2,73,52,
2,15664, Note_on_c,2,50,112,
2,15756, Note_on_c,2,64,0,
2,15680, Note_on_c,2,38,60,
2,15784, Note_on_c,2,65,38,
2,15760, Note_on_c,2,68,0,
2,16340, Control_c,2,69,127,
2,16660, Note_on_c,2,53,79,
2,16704, Note_on_c,2,69,0,
2,17724, Control_c,2,69,0,
2,18724, Note_on_c,2,57,64,
2,18716, Note_on_c,2,45,50,
2,18528, Note_on_c,2,59,80,
